<?xml version="1.0"?>
<svg xmlns="http://www.w3.org/2000/svg" version="1.2" baseProfile="tiny" width="500" height="315" viewBox="0 0 500 315" stroke-linecap="round" stroke-linejoin="round">
<g id="ne_50m_admin_0_countries-Afghanistan">
<path d="M 209.6824 39.3004 220.2425 38.5121 228.5778 39.7731 232.9564 43.2166 237.2506 44.1027 241.4672 42.4283 244.0802 42.1295 245.0896 43.2014 247.1963 43.6554 250.3967 43.4917 252.2265 44.4403 252.4358 45.3941 252.6788 46.5031 255.0454 49.1279 259.316 52.3148 263.1106 53.0828 268.1003 50.6032 269.7883 50.8952 270.612 50.0917 271.1218 48.2906 274.1433 46.5942 279.6596 45.0058 282.7891 43.5879 283.8998 42.4148 285.7701 42.0822 287.8025 42.4283 289.244 41.9894 289.7538 40.8787 290.3378 40.3942 291.3709 40.006 292.2891 39.8034 293.9704 40.1107 297.0661 42.1346 301.5663 45.8751 304.4933 47.6003 305.8437 47.3049 307.5688 46.1604 309.6653 44.1652 310.1919 41.2922 309.1386 37.5432 309.8611 34.5217 312.3492 32.2278 316.9709 30.8115 323.7161 30.2748 327.855 30.5955 329.3877 31.7754 331.4538 32.4303 334.0499 32.5586 336.43 31.2116 338.6007 28.3876 338.7223 24.8884 336.8013 20.7174 337.328 19.3906 338.1619 18.8099 340.7377 17.3026 344.35 14.1697 347.834 10.1404 351.1965 5.2166 355.3489 2.1698 360.2914 1 366.2803 2.3318 373.3226 6.1652 375.9795 10.8916 374.2544 16.5042 374.1059 19.5982 375.5373 20.1705 377.9477 20.0169 381.3406 19.1324 383.5586 19.0885 384.6051 19.8852 384.541 21.4702 383.3594 23.8418 381.9381 30.5043 381.0604 36.2739 380.1995 41.9506 379.4433 46.9386 380.7903 50.826 382.8294 56.7019 385.1318 60.5809 387.4882 61.8249 389.8446 62.2705 392.2044 61.9161 397.0422 59.4212 404.3546 54.786 411.4509 51.9384 421.7746 50.3432 425.2181 45.3772 430.0052 42.0991 440.9164 37.2259 446.8547 35.3674 450.2577 35.0416 454.5215 35.9278 455.4871 36.2333 456.3344 36.4663 458.5288 36.8714 458.9846 38.3568 458.414 39.9587 456.0475 41.2804 455.3115 42.305 456.2095 43.0731 459.5315 43.3347 466.4185 41.5589 470.8748 40.4162 473.9638 39.9587 475.223 38.4716 477.1642 36.9862 480.2532 36.8714 483.5684 37.6715 486.3097 38.129 490.9821 37.7103 493.4431 39.005 496.8968 41.4627 498.4497 42.9819 499 43.3398 497.2344 43.5677 494.7159 42.7338 493.7335 41.4729 493.3081 41.2973 491.3129 42.1278 487.5116 43.1676 481.0533 45.8954 481.1917 46.5993 485.4016 49.3693 486.3874 50.2875 486.9039 50.5812 483.089 51.9114 474.9192 54.9126 469.5311 57.372 468.2516 57.4632 465.0006 56.4318 460.2067 55.2029 458.9171 55.2266 447.8304 55.4376 437.6552 55.8916 433.4015 56.4774 425.5354 57.0513 420.5795 57.2387 417.4162 58.1924 413.9525 59.4432 410.3503 60.2534 407.6833 60.5184 404.466 61.6882 402.3526 64.0092 396.3063 67.451 392.9033 69.1136 391.1883 70.989 389.2437 71.1713 385.9285 70.8286 383.3493 72.861 380.4932 75.7795 375.2841 79.9995 372.5293 81.7077 370.875 84.4625 372.0904 85.8939 376.3306 88.0427 378.2212 90.0599 379.2576 91.6651 381.1954 95.7838 382.4209 99.8316 384.2507 101.5838 384.7841 104.5563 385.2398 106.3861 384.2507 107.6825 383.3358 109.1307 383.3358 110.5014 384.433 111.9142 385.4019 113.1667 385.9285 114.1609 385.277 115.2784 383.3358 116.9816 382.3534 118.7202 380.2096 121.6303 376.8573 123.612 374.646 125.0603 372.2828 128.1088 368.3937 131.4949 366.7462 134.329 365.0414 135.8837 363.2892 136.7226 363.7484 138.2468 365.2709 140.1526 367.786 142.2862 367.6712 145.6115 367.5565 148.0034 367.6341 150.9 366.2601 153.3391 359.2381 155.6837 352.5165 156.7067 344.2791 156.7708 341.1665 156.4011 338.675 155.888 329.7253 153.2665 326.0928 154.806 325.3467 158.5955 331.8657 164.7415 334.5462 168.1681 337.5035 173.9089 339.7317 176.8697 338.935 179.6363 333.027 182.7793 327.1461 185.7383 319.6649 186.3528 314.9655 187.4094 312.6766 188.9337 311.0022 195.4071 309.3243 197.7771 309.3513 200.596 307.7646 203.7897 305.3609 205.8558 303.683 209.2098 304.2063 215.5735 304.9929 226.3817 301.7993 229.7948 298.2106 233.2383 294.4194 235.696 290.8071 236.8421 287.8126 236.4201 285.4393 234.2899 284.0416 232.504 281.4286 231.0085 278.7684 231.314 276.0912 232.6846 271.824 232.2289 268.1644 230.8565 266.3346 231.0085 265.2678 232.3808 261.3618 235.3297 251.7741 239.8164 247.8647 240.1422 246.1868 241.2579 246.8553 243.0961 248.5669 244.5951 251.5546 245.6568 251.7066 246.8772 249.0665 247.9474 246.8148 249.1678 241.8521 250.6566 236.1298 251.2373 230.205 250.3697 227.1565 248.388 223.5813 248.2023 220.2965 249.6523 216.9104 252.0425 213.207 257.1756 212.2245 258.077 211.2219 258.8856 208.8216 259.9929 205.3578 261.8024 203.6192 265.5852 201.5463 272.3219 202.0325 275.9494 202.1878 282.2355 201.3708 286.6496 199.8719 289.5478 200.1723 291.8334 202.4612 294.4244 201.5463 296.1023 199.622 297.9793 197.7484 299.0208 190.301 300.9806 180.0886 303.6628 173.3401 305.3828 163.2966 307.9385 160.3595 308.5664 154.2557 308.7976 151.089 308.4043 146.8083 308.3014 140.502 308.3925 136.0997 309.0897 131.6873 310.3827 128.4396 311.993 126.566 313.5865 125.9009 314.3579 121.4851 313.0396 107.539 310.6916 69.8226 313.7907 66.2576 313.2016 53.3816 309.5707 36.8056 304.895 26.5359 302.0001 13.3628 298.2224 22.3767 288.898 30.2427 280.7636 38.1188 272.6173 45.8869 264.5775 46.8086 261.7653 46.9267 256.2591 44.8809 248.9045 41.5995 245.5471 30.7558 244.1916 22.6062 243.1721 13.7342 242.0614 12.5796 241.6495 11.5735 235.9306 12.0124 233.3767 11.4318 228.4427 11.5162 224.6431 12.8058 218.3908 12.8767 215.5752 8.7681 203.4555 6.4893 196.7356 4.1397 189.8047 3.6333 187.5951 3.586 184.8623 9.0314 178.4429 10.7194 177.0503 13.9131 173.8549 15.9083 172.1619 15.5606 170.9955 12.0867 170.3135 6.8371 170.2544 4.0451 169.2889 1.8676 167.5402 1.0068 165.0166 2.428 160.5198 1 151.7811 3.9202 147.4649 6.4252 144.4384 14.9563 144.0147 11.9989 140.6066 10.5709 138.6283 9.656 138.0561 9.315 137.1412 9.7708 136.2263 11.9449 135.8837 13.4303 134.7409 15.8307 133.1407 17.0899 132.4537 17.3195 130.5108 18.4605 129.1385 20.1755 127.4235 21.5462 125.4789 21.2052 123.1934 22.4644 120.4487 23.035 118.7337 23.9499 117.2466 23.1498 115.0758 22.4644 113.2461 22.2349 111.0736 23.6055 110.5014 25.3205 109.7013 25.6649 107.9863 26.5798 105.8139 27.2651 104.0989 28.4062 102.7265 28.5209 101.3559 27.8356 99.0687 30.6951 98.726 31.8361 99.9835 33.3587 101.6192 37.5415 104.6593 40.2457 105.5421 43.6588 105.9877 47.8518 105.5708 51.2075 105.0036 52.7908 105.1488 56.447 107.3617 60.7142 110.4643 62.0882 111.8366 62.7229 113.95 63.9889 114.5829 66.7133 112.4932 69.35 111.7978 71.7773 112.1944 74.4544 112.4274 77.135 111.661 78.3301 111.1074 83.0092 108.3998 87.2359 106.3422 89.8759 105.0762 90.8279 100.8495 92.0433 98.4475 93.7853 97.0448 93.1303 95.3112 92.4112 93.9811 91.6719 92.185 92.4112 91.2347 94.1026 90.811 98.3462 90.8127 105.7902 88.9205 111.9986 87.0299 117.7344 85.4905 120.3474 85.2356 122.822 85.4989 123.953 85.0499 124.2635 83.5797 125.6747 82.0217 128.8616 80.7692 134.8641 78.1022 140.1543 74.1405 142.0482 71.1359 143.3175 66.7471 145.7989 59.9833 148.5233 52.5646 149.5361 49.2984 150.7076 46.7816 155.3833 44.6564 160.1569 43.122 167.5537 42.8165 176.2434 42.6646 178.0766 38.6117 179.2244 35.175 180.6693 33.4009 182.7725 31.9594 183.5051 31.6724 188.1944 33.7824 195.3751 37.0098 203.7373 38.6202 207.9404 39.4304 209.6824 39.3004 Z"/>
</g>
</svg>