<?xml version="1.0"?>
<svg xmlns="http://www.w3.org/2000/svg" version="1.2" baseProfile="tiny" width="800" height="1061" viewBox="0 0 800 1061" stroke-linecap="round" stroke-linejoin="round">
<g id="us-states-1">
<path d="M 639.156 4.6606 678.2019 196.2295 733.11 478.0918 758.734 540.3212 783.1374 575.7064 773.3761 597.6698 799 611.0919 761.1743 639.156 762.3945 667.2203 742.8714 705.046 764.8347 772.1561 748.9724 830.7249 773.3761 891.7341 663.5595 892.9543 195.0091 892.9543 187.6881 922.2385 237.7155 964.945 229.1743 1001.5507 246.2569 1019.8534 213.3118 1052.7983 182.8073 1060.1194 126.6789 1023.5138 120.5779 968.6056 103.4954 962.5046 82.7523 1003.9908 75.4311 1044.2569 18.0825 1033.2753 1 692.8442 52.2476 269.4404 83.9725 25.4037 60.789 2.2202 248.6973 1 639.156 4.6606 Z" id="01"/>
</g>
</svg>