<?xml version="1.0"?>
<svg xmlns="http://www.w3.org/2000/svg" version="1.2" baseProfile="tiny" width="800" height="269" viewBox="0 0 800 269" stroke-linecap="round" stroke-linejoin="round">
<g id="us-states-2">
<path d="M 777.1168 220.8704 777.5619 218.645 780.4549 219.9802 780.0098 222.2798 776.5234 221.9831 777.1168 220.8704 Z M 774.0012 216.7163 776.5234 218.3483 775.1139 220.7221 774.0012 219.9061 774.0012 216.7163 Z M 758.4975 202.993 761.7615 202.6962 763.1709 203.2155 762.7258 205.2184 759.8328 205.6635 757.2365 204.4024 758.4975 202.993 Z M 750.1152 204.1798 755.9754 204.6249 757.459 207.2212 763.3193 210.1143 765.3221 211.8946 765.4705 213.3782 766.8799 213.6749 767.1025 215.6036 769.4762 217.5323 769.773 219.2384 771.3307 218.7192 771.9984 220.0544 772.2951 225.3212 771.3307 226.5081 767.5475 226.2856 766.509 223.6151 765.1738 223.8376 762.4291 221.8348 761.6131 222.5024 759.3135 221.8348 759.6844 223.8376 761.8357 223.3184 763.2451 224.0602 762.5775 226.8048 759.9812 226.5081 756.0496 223.0216 754.9369 221.2413 755.1594 219.3868 752.0439 219.5352 752.0439 218.1257 754.4176 217.9774 756.7914 216.7163 755.7529 214.4909 752.934 214.0458 752.4889 210.4852 751.4504 208.7048 749.5217 209.9659 748.7799 207.963 750.7828 206.9987 749.1508 204.6991 750.1152 204.1798 Z M 748.1865 214.936 750.7828 215.8262 752.5631 214.7134 754.3435 215.2327 752.4889 217.2356 749.5959 216.6421 748.1865 214.936 Z M 745.8869 196.3167 743.9582 194.9815 746.1836 194.0913 753.5275 195.3524 756.7914 195.2782 759.091 197.8003 763.3193 199.8774 762.8742 201.4352 760.6488 202.2511 757.6074 201.8803 755.4562 202.8446 752.4889 202.2511 749.225 202.8446 748.5574 199.6549 748.8541 197.5778 746.4062 197.5036 745.8869 196.3167 Z M 743.0681 202.3995 741.2135 201.361 739.2107 199.1356 738.9881 197.4294 740.6201 196.6135 742.3262 197.4294 742.6971 196.02 748.0381 198.468 748.5574 200.8417 746.7029 201.1384 745.516 203.8089 746.8513 204.5507 745.2193 207.6663 743.1422 206.9987 742.8455 208.9274 741.5103 207.963 740.6943 204.1798 743.0681 202.3995 Z M 736.0209 205.07 735.5758 206.6278 733.7213 205.7376 728.6771 199.729 725.4873 197.9487 726.6 196.5393 725.339 193.127 721.7783 190.3823 725.4131 187.7118 727.0451 188.8245 730.2349 189.7147 733.1279 189.863 733.2021 192.0143 736.0209 199.0614 736.0209 205.07 Z M 734.9824 178.8102 739.5816 179.8487 742.2521 179.7003 742.1037 180.7389 745.9611 184.4479 743.2906 183.8544 742.623 185.1155 745.516 187.0442 746.4062 190.4565 743.5131 191.3466 742.5488 192.5335 737.8754 194.9815 736.466 194.9073 735.8726 192.311 736.8369 190.7532 736.3918 188.4536 734.7599 185.6348 735.0566 184.1512 734.0181 180.5163 732.2377 178.9585 731.7185 176.288 734.9824 178.8102 Z M 719.4787 190.9016 721.4074 190.9016 723.4103 193.3495 722.5201 195.0557 719.4787 195.4266 719.9238 192.7561 719.4787 190.9016 Z M 713.7668 179.0327 717.8467 179.1069 720.5172 177.92 724.3746 179.552 722.2976 181.3323 723.0394 181.9999 724.9681 179.9971 729.6414 180.6647 732.2377 182.1483 730.7541 184.8188 731.941 185.0413 733.4988 188.602 729.9381 189.1212 723.3361 186.2282 723.5586 189.1954 721.4816 190.3823 719.0336 189.863 717.55 188.0085 714.7312 186.7475 712.5799 184.1512 709.8353 182.9643 709.9836 180.8131 711.8381 180.0712 712.4316 178.2167 713.7668 179.0327 Z M 567.4833 152.0311 561.7714 155.4434 561.3263 156.7786 556.7271 157.6688 557.6915 155.5917 562.6616 153.4405 565.7771 151.0668 567.4833 152.0311 Z M 560.9554 146.9127 560.2136 149.7315 558.2849 152.6245 555.6144 151.6602 557.8398 148.3221 560.9554 146.9127 Z M 557.914 15.9844 559.3234 16.5779 566.3706 17.1713 570.0796 16.8004 575.198 16.8004 580.7616 17.3197 584.0255 17.0229 587.2152 18.1356 593.0013 19.3967 600.7902 19.6934 602.9415 18.9516 608.1341 18.5066 610.3595 17.5422 615.9972 17.3938 615.923 18.0615 619.2611 17.6906 626.1599 18.7291 630.8333 20.4352 635.2099 21.2512 636.1742 21.993 640.18 22.1414 643.9632 23.4025 644.705 24.2184 647.0046 23.5508 649.8234 24.0701 649.8234 150.6217 656.1287 151.7344 656.9447 150.5475 663.5468 152.2536 667.4783 150.1024 675.7123 149.8799 674.2287 153.5147 676.3058 154.7758 680.9791 155.9627 682.0177 157.8913 695.8152 165.0126 697.9664 169.5376 700.4144 168.2766 706.3488 166.1254 709.6869 166.0512 711.2447 164.4192 711.0963 161.9713 713.4701 161.9713 714.0636 159.82 718.2918 159.3008 724.5972 157.4462 730.7541 160.636 730.1607 162.5647 731.6443 164.4934 735.1308 164.9385 739.5074 167.8315 739.2107 168.6475 741.2135 170.2053 746.7771 171.9856 755.8271 179.7745 757.1623 181.8516 759.9812 183.9286 764.1353 188.5278 768.2893 192.4594 766.7316 194.0913 771.034 194.6848 769.9955 197.0585 773.482 198.0229 773.9271 200.7676 777.4135 200.6192 784.0898 203.438 788.2438 203.9573 790.3951 205.2925 792.4721 205.6635 793.0656 206.9987 797.4422 207.3696 798.7775 209.0016 796.7746 212.043 797.0713 214.5651 799 218.7192 797.5164 219.7577 794.2525 223.5409 789.5049 226.2856 788.1697 224.8761 786.3893 225.3212 785.1283 222.5024 785.4992 221.3155 784.0156 219.9061 787.1311 218.4225 786.241 217.9032 783.1254 219.7577 781.4193 218.5708 779.4906 219.2384 773.8529 216.2712 775.7816 213.0073 772.2209 214.12 772.0725 215.752 769.2537 214.4909 768.6603 212.9331 770.5889 211.227 769.9955 209.5208 767.325 210.9302 764.6545 207.8889 763.0226 208.4823 761.984 205.9602 764.5803 204.3282 767.1025 204.3282 766.3607 202.3253 767.6959 199.729 765.6189 199.8032 761.3164 197.5778 758.275 194.9073 751.1537 192.9786 751.3021 187.5635 749.0025 186.8958 749.5217 184.6704 747.148 184.077 743.6615 181.1098 742.6971 179.552 736.6885 179.0327 730.0865 175.027 727.2676 165.6803 725.9324 167.8315 726.5258 169.7602 729.1963 173.4692 728.5287 174.0626 730.309 177.104 729.9381 179.1069 727.3418 178.6618 725.2648 176.4364 722.5201 176.0655 718.6627 176.659 718.7369 173.4692 716.3631 170.7987 714.2119 171.6147 705.6812 168.7958 704.9394 169.6118 709.6127 170.502 713.2476 172.7274 714.657 172.8016 715.1021 174.5819 716.9566 176.659 712.2832 177.8458 709.5386 177.104 709.4644 178.9585 705.9037 177.5491 704.7168 176.5106 702.4914 176.5106 696.3345 173.8401 691.8095 171.4663 691.3644 170.0569 688.8422 167.9799 681.8693 166.4962 678.0119 164.9385 671.2615 163.1581 666.8107 161.452 667.1816 159.5975 668.4427 160.1909 669.9263 159.004 668.4427 156.3335 670.2972 154.8499 669.407 154.1823 666.0689 157.0012 659.0959 158.8557 650.7878 158.1881 643.8148 156.4819 643.5181 155.1467 640.2542 155.4434 636.7677 154.479 628.9787 153.5889 624.4538 153.5147 614.291 154.2565 610.6562 154.7758 606.057 152.8471 600.3451 151.9569 598.5648 150.77 597.8972 148.7672 593.9657 148.9155 592.6304 150.6958 585.6575 148.3221 584.5447 147.2836 577.3493 149.2122 573.8628 151.5118 572.3792 149.3606 573.8628 148.1737 575.9398 148.4704 582.7644 146.9127 581.8743 145.7258 578.6845 146.3192 577.4234 144.7614 574.4562 144.5389 571.489 140.6073 570.3763 141.5717 566.2222 142.0909 564.887 141.5717 563.4775 142.8327 558.2849 142.3877 558.0624 143.7971 554.5759 144.168 552.944 143.6487 554.1308 141.1266 552.6472 141.2008 550.2735 143.8713 553.5374 144.7614 553.8341 146.6901 555.837 148.7672 554.6501 150.9926 552.0538 150.2508 551.312 151.3635 553.8341 151.8086 555.2435 154.7758 551.6087 155.3692 549.6058 154.7758 546.4161 155.5917 544.7841 154.9241 540.5558 154.9983 540.7042 153.8856 538.7013 154.6274 537.5886 156.0368 535.8083 154.7758 533.5829 156.5561 534.5472 157.3721 531.4317 158.4106 528.6128 158.559 527.5001 159.9684 524.4587 161.2294 522.3817 160.7844 520.0821 162.268 518.2276 162.1938 514.3702 165.2352 510.2161 165.4577 508.8808 164.4934 506.3587 166.1254 501.1661 164.8643 502.353 162.5647 505.7653 161.7487 507.9907 161.8971 508.6583 161.0069 512.664 159.2266 512.8124 157.743 507.5456 159.7458 503.169 158.559 502.6497 157.743 504.8751 154.3307 508.6583 151.8827 509.2518 149.8799 510.3645 149.509 510.8095 147.3577 508.8808 144.984 513.5542 144.0938 522.4558 140.6815 524.6071 142.0168 527.3517 142.3877 531.4317 140.9782 526.9067 139.1237 525.1263 137.7143 521.5657 137.8627 519.0436 137.195 518.3017 137.7885 514.0735 138.7528 512.1448 140.6073 507.9165 141.0524 503.5399 143.2036 503.0948 144.6131 499.7567 145.3549 499.0149 146.9127 496.6411 147.877 495.5284 150.6217 490.9292 152.402 493.1546 153.8114 491.3001 155.8885 486.9977 156.2594 486.6268 158.9299 482.621 159.8942 481.36 158.7815 479.3571 160.8586 476.9833 160.9327 477.4284 162.4163 472.1616 163.3065 471.1231 167.3864 477.1317 167.609 481.8792 168.7217 483.2145 170.0569 481.2858 172.2081 478.096 173.5434 475.1288 173.6176 474.8321 174.8045 472.9034 175.2495 473.7936 176.7331 471.7907 178.9585 467.4882 181.0356 465.0403 181.0356 462.6665 181.7774 460.3669 181.629 458.5866 182.445 459.1059 183.5577 455.7678 184.1512 455.1001 185.7831 452.8005 184.7446 450.2784 187.9344 446.0501 187.7118 446.3469 189.418 443.8247 188.9729 442.0444 189.7147 442.0444 192.0143 439.2255 195.5749 434.7006 196.02 430.9915 197.652 430.3981 198.5421 428.0243 197.2811 424.0186 200.6934 422.9059 199.729 420.6805 200.0257 420.1612 201.9544 417.8616 202.6962 415.1169 202.3995 412.9657 204.3282 416.7489 204.9216 412.669 209.2241 400.9485 210.6335 397.6846 214.4167 396.8686 213.6007 397.3137 211.227 395.0141 210.8561 392.1211 211.7462 391.676 212.7106 387.151 214.2684 385.2223 216.0487 384.6288 214.7876 383.442 216.2712 380.7715 215.3069 375.8014 217.6065 372.0924 217.5323 372.6116 215.752 370.9797 214.0458 369.4961 215.4553 369.6444 216.9389 364.6743 221.4639 362.9682 220.3511 362.4489 222.0573 359.0366 221.7606 358.5174 219.0901 356.4403 218.4966 355.6985 219.461 357.553 220.6479 356.6629 222.5024 353.9182 223.4667 351.8412 221.3897 349.319 221.2413 348.8739 222.0573 351.3961 223.2442 346.7969 225.1729 349.9125 225.6921 349.9866 226.5823 347.3903 225.9147 343.9039 227.695 337.1535 227.6208 333.8153 228.8077 333.5186 229.6979 329.6612 230.7364 326.8424 230.3655 325.878 227.8434 328.6969 227.0274 330.8481 223.986 333.667 223.9118 339.7498 221.9089 344.6457 221.8348 346.5002 223.7634 347.9096 222.354 347.6129 220.7221 350.4317 219.9802 353.4731 219.9802 357.553 216.4196 362.078 213.2298 368.0125 210.411 374.9854 209.1499 377.8784 209.7434 380.6973 208.9274 381.4391 210.1143 379.8813 211.4495 381.5874 212.488 382.1067 210.8561 385.5932 210.7077 386.5575 211.7462 388.7088 212.1171 388.7829 210.8561 385.2223 209.7434 384.9256 209.0016 387.2993 205.5151 390.4891 203.5122 394.7916 201.5835 401.6161 199.8774 406.5862 197.4294 408.96 198.3196 410.8887 197.9487 410.0727 196.3909 410.6661 194.9073 414.4493 191.7917 419.642 189.7889 423.796 187.1184 423.5735 185.6348 426.9116 175.1012 432.1042 172.2823 431.5108 170.0569 419.0485 173.2467 415.1169 172.8758 414.1526 171.5405 411.9272 170.9471 411.1854 169.4635 409.1825 170.1311 407.9215 172.4307 410.0727 175.3237 407.4764 176.5848 405.1768 176.1397 400.726 171.5405 397.6846 169.2409 396.1268 169.2409 395.0883 170.9471 393.753 171.2438 391.7502 169.8344 389.3022 169.6118 388.1895 167.3122 380.9198 169.9085 374.392 171.7631 373.8727 172.8016 368.7543 174.3594 366.2321 172.9499 368.5317 171.318 367.7157 167.4606 366.0096 163.3807 369.4219 161.6745 366.603 158.2622 364.1551 156.3335 362.2264 153.5147 359.3334 152.3278 358.5916 154.7758 355.1051 155.295 349.5416 156.8528 342.8653 157.5204 339.2305 157.3721 336.1149 156.5561 335.744 154.4049 333.0735 153.7372 328.8453 150.77 325.2846 150.1766 321.1305 146.9127 323.9494 145.429 324.5428 142.6844 322.3916 143.2778 322.0949 141.5717 323.1334 140.1622 320.3887 138.9012 320.092 140.2364 316.7539 139.7172 316.3088 137.4176 313.7125 137.1209 312.3031 135.5631 312.3772 133.6344 309.7809 134.5245 309.3358 132.67 312.5256 132.225 309.9293 130.1479 314.5285 129.9995 314.5285 127.4774 315.6412 125.7713 324.1719 120.3561 325.9522 118.7241 327.2133 119.0209 326.4715 116.7213 329.7354 112.7897 332.5543 111.2319 337.8211 110.5643 341.901 111.2319 347.6129 113.6057 351.3219 113.309 356.4403 111.0094 361.7071 107.5229 364.3776 107.152 365.0453 108.0422 371.4247 108.0422 377.0625 107.3004 382.1067 103.6655 382.1067 102.7754 379.5846 99.3631 379.2879 97.3602 375.3563 95.209 373.8727 93.3545 377.8784 93.8737 381.6616 92.316 381.8842 90.8323 376.9883 88.0877 373.3534 90.2389 369.9412 89.868 366.7514 91.0549 363.1166 91.3516 362.2264 92.1676 358.0723 93.3545 356.8112 95.3573 354.7342 96.1733 353.7698 93.7996 351.2477 93.2803 349.4674 95.1348 348.4289 94.2446 343.7555 92.9094 334.1862 92.9836 327.3617 94.4672 324.7653 94.6897 319.2018 93.7996 308.6682 92.761 305.9235 91.945 304.6625 90.6098 305.6268 88.7553 301.8436 87.1975 302.5854 85.4914 304.9592 84.6012 304.2174 82.45 300.4342 82.45 297.3186 81.8565 291.2358 81.4115 288.0461 80.2987 283.1502 79.186 282.7051 77.7766 290.3457 75.9221 299.9891 72.8065 306.7395 70.952 310.5969 71.9905 314.5285 72.2131 315.4186 70.7295 313.0449 70.5069 312.8223 69.2459 322.2432 67.1688 332.851 65.611 338.5629 65.4627 341.6784 65.9819 340.0465 68.2074 340.6399 69.7651 339.453 70.8778 341.4559 72.6582 345.1649 72.3615 349.8383 72.6582 355.2534 72.2873 356.8112 72.9549 360.3719 73.1033 363.4875 72.4356 367.5674 73.1774 371.4989 70.2102 374.3178 70.0619 376.2465 70.6553 377.2108 68.9492 371.7957 68.1332 366.603 68.8008 367.1223 66.5754 363.0424 64.2016 358.5916 63.4598 357.2563 61.3086 360.7428 60.7893 365.1936 62.9405 364.3776 64.6467 366.5288 65.9819 371.2022 67.5397 372.3149 65.9078 366.9739 63.7565 369.2735 59.8992 367.419 59.2315 362.1522 60.0475 356.737 59.825 355.9211 59.1574 353.1764 59.825 341.8268 58.193 341.6043 56.4869 338.192 52.7037 335.4473 51.2942 331.0707 50.1074 322.169 46.8434 318.0891 45.5824 314.0092 45.2856 307.9264 43.0602 301.992 41.7992 301.6953 41.3541 306.1461 40.6865 308.149 38.6094 308.2973 34.4553 320.3145 34.752 334.8539 33.7877 338.6371 33.0459 344.6457 30.9688 350.3575 27.7791 351.5444 24.5893 353.9924 21.8447 359.0366 19.5451 361.1879 17.8389 367.419 15.0943 368.3834 15.8361 373.576 16.0586 381.1424 14.6492 385.8899 13.1656 397.2395 8.5664 401.5419 8.3438 401.987 9.0115 406.3637 8.4922 410.6661 8.6406 419.1227 8.0471 427.4309 6.0443 435.6649 1.8902 439.003 1 439.5965 1.7418 452.2813 3.4479 453.3198 4.6348 448.9432 6.1926 446.9403 6.2668 447.0145 8.3438 453.394 7.6762 453.7649 6.5635 456.6579 5.525 457.6223 6.1184 459.7735 3.7447 466.0788 5.8959 465.0403 7.5279 468.9718 7.973 471.2714 8.9373 474.6837 7.3795 480.6923 7.3053 484.1046 6.7861 492.8579 7.3053 497.3087 7.8988 495.1575 11.0885 503.3173 11.9045 503.9108 12.7205 511.8481 14.1299 511.9222 13.4623 517.6341 12.5721 523.1235 12.6463 523.1976 13.3881 526.3874 13.4623 529.7255 12.4238 535.2149 12.2754 539.0722 12.7205 544.339 13.8332 546.787 13.6107 550.2735 15.1684 552.2763 14.575 555.5402 15.0201 557.914 15.9844 Z M 488.1104 181.4807 488.0362 182.0741 483.3628 181.1839 486.7009 177.6975 489.7423 177.4007 491.8194 174.211 494.119 177.0299 496.0477 176.0655 499.7567 177.6233 499.7567 179.7745 494.3415 180.0712 491.9677 181.0356 488.1104 181.4807 Z M 474.3128 188.0827 478.1702 186.3024 474.6837 185.9315 474.6096 184.3737 477.5026 183.3352 479.5796 184.077 479.8763 185.6348 481.0632 184.5962 481.1374 182.2967 483.6595 183.3352 484.1046 181.8516 486.33 182.7417 489.0005 182.7417 491.0776 181.9258 494.4899 183.3352 494.4899 187.2667 498.7923 186.97 495.9735 189.5663 490.7809 188.5278 492.7095 190.2339 491.2259 191.6434 488.5554 190.9758 488.4813 193.6462 484.4014 194.388 483.0661 195.5007 480.544 194.4622 477.8735 197.2811 475.7964 197.5778 473.571 198.8389 472.755 195.7975 469.6395 197.4294 469.4911 196.4651 466.6723 195.5007 466.4497 192.7561 463.705 191.6434 465.2628 188.4536 470.678 186.4507 474.0161 186.5991 474.3128 188.0827 Z M 466.5239 200.7676 463.705 203.5122 462.8149 203.0671 466.5239 200.7676 Z M 451.6137 209.9659 453.7649 210.1143 453.0231 212.9331 449.4624 212.5622 448.869 211.5979 451.6137 209.9659 Z M 393.9756 218.645 393.1596 221.538 389.0055 223.9118 391.0084 220.277 392.4178 220.6479 393.9756 218.645 Z M 385.4448 217.6065 387.967 217.6065 387.8928 219.0901 385.3706 220.7221 383.1452 219.6094 381.7358 220.6479 380.9198 218.1257 381.6616 217.3098 385.4448 217.6065 Z M 361.9297 222.7249 362.2264 223.9118 360.6686 224.6536 359.4817 223.3925 361.9297 222.7249 Z M 359.7784 105.52 357.7756 106.8553 357.108 105.6684 359.7784 105.52 Z M 354.5116 229.4011 357.4047 229.9204 357.108 231.0331 354.8084 230.9589 354.5116 229.4011 Z M 317.3473 231.9975 318.3117 233.5552 316.2346 234.2229 315.4928 232.5909 317.3473 231.9975 Z M 314.751 233.9261 310.5969 235.4098 309.7067 234.3712 311.4871 233.036 314.751 233.9261 Z M 306.2945 149.8799 309.41 149.3606 310.0776 150.3249 312.8223 150.1024 315.4928 150.9926 316.0121 154.8499 314.6026 156.111 311.1162 156.8528 310.3744 158.1881 305.2559 156.7045 302.8822 156.7786 297.7637 154.8499 295.9834 154.8499 293.0162 153.7372 291.9776 151.9569 293.4613 151.5118 298.5055 151.9569 300.8793 150.5475 303.4014 150.3991 304.5141 149.4348 306.2945 149.8799 Z M 306.1461 235.8548 308.3715 236.8934 303.8465 239.4155 303.9207 239.8606 309.6326 238.0061 309.7067 239.0446 307.4072 240.3057 303.6981 241.1216 303.3272 242.3827 299.3215 243.7179 295.835 243.7921 293.5354 245.0532 289.233 246.1659 286.9334 244.979 291.4584 243.5696 292.8678 243.7921 296.2801 242.6052 295.4641 241.27 297.3928 239.8606 300.2858 240.5282 300.5826 239.638 297.467 239.3413 295.7608 238.377 297.2445 236.745 302.5113 235.7807 303.624 237.6352 306.1461 235.8548 Z M 273.4326 247.427 278.6252 244.8306 278.9219 243.7179 280.9248 242.4569 284.0404 241.8634 285.6723 242.5311 286.2658 244.3114 280.4797 246.2401 277.3641 249.0589 274.842 250.0233 273.4326 247.427 Z M 260.451 250.9876 261.0445 252.3229 257.558 252.397 257.1871 251.5069 260.451 250.9876 Z M 255.0359 192.3852 253.1814 193.6462 252.8105 192.3852 255.0359 192.3852 Z M 247.9887 253.6581 248.8789 254.9192 246.3568 255.8093 245.9859 254.4741 247.9887 253.6581 Z M 233.4494 104.4073 244.2055 106.4102 250.4367 104.7041 253.2555 104.8524 255.7777 105.8168 256.4453 107.4487 261.8605 108.3389 263.5666 109.1549 270.6137 109.5258 274.842 110.1192 272.5424 112.1221 269.1301 111.677 265.4953 112.0479 263.6408 112.9381 261.9346 114.9409 259.3383 113.0864 256.2969 111.8254 253.4781 111.677 252.1428 110.2676 245.3182 108.4873 242.1285 108.4131 237.2326 109.9709 233.5236 109.1549 231.9658 107.5229 233.4494 104.4073 Z M 224.1027 257.8122 224.3252 259.37 221.7289 259.6667 222.2482 258.3315 224.1027 257.8122 Z M 207.9314 261.0761 209.7117 261.6696 214.756 261.5954 214.9785 262.0405 208.9699 262.7081 207.9314 261.0761 Z M 198.5105 259.2958 198.4363 257.9606 200.365 257.4413 203.1097 258.7765 202.0711 260.0376 200.4392 259.9634 200.9584 261.3729 198.3621 261.5212 192.8728 263.0048 189.7572 262.5597 190.6474 261.5212 193.9855 261.6696 198.5105 259.2958 Z M 169.4318 265.0819 171.8797 264.8593 171.8797 266.5655 168.7642 266.3429 164.9068 268.3458 163.4232 265.6753 165.0552 265.6011 165.2777 263.5983 167.2806 263.5241 167.2806 265.0077 169.4318 265.0819 Z M 160.1593 263.8208 161.6429 264.4884 160.6043 266.788 158.5273 267.4556 158.4531 266.0462 160.1593 263.8208 Z M 147.0293 264.1917 149.3289 264.2659 151.406 265.8978 149.1806 267.8265 147.0293 264.1917 Z M 25.3436 249.6524 22.8214 250.5425 22.6731 251.952 1 252.7679 4.5607 250.5425 4.5607 249.504 25.3436 249.6524 Z" id="02"/>
</g>
</svg>