<?xml version="1.0"?>
<svg xmlns="http://www.w3.org/2000/svg" version="1.2" baseProfile="tiny" width="235" height="400" viewBox="0 0 235 400" stroke-linecap="round" stroke-linejoin="round">
<g id="ne_50m_admin_0_countries-albania">
<path d="M 9.2032 104.5205 9.6186 97.9073 11.6954 87.4196 10.5012 83.928 11.7343 77.9378 7.6716 69.9358 1 64.1857 7.425 53.9901 16.8094 41.6787 25.5189 31.9114 36.0715 21.7353 43.1065 11.9679 50.6867 3.5765 57.1896 1 60.4346 2.7847 62.1479 6.4515 61.7585 17.3221 63.9781 21.0733 68.4691 23.8315 77.9703 22.4816 88.5099 19.7753 102.6839 14.0317 105.1111 14.3822 110.3679 17.387 121.2969 30.5161 128.5786 42.0681 142.8953 46.0789 150.8779 50.5764 161.132 57.4297 166.1032 64.3285 173.0864 85.3818 173.8911 98.0955 171.8663 103.9104 170.127 105.4161 163.7539 126.1319 165.2725 136.691 165.2206 143.6417 159.821 146.3869 156.2386 150.7481 162.0535 168.0113 161.3396 175.3643 161.5992 183.8012 172.0869 203.0438 178.2783 208.995 183.8077 211.8376 190.8817 229.555 195.0742 232.6248 212.2724 230.9439 220.6833 232.9103 224.0191 237.1093 224.772 239.9843 223.6427 249.9009 227.9131 257.546 233.6502 265.4053 233.6242 270.2143 229.7822 278.0671 222.9029 287.2373 213.7911 290.7549 203.7447 293.7402 198.9551 300.8596 196.5149 308.4334 192.0239 314.0471 189.2462 320.1996 184.9888 332.777 183.9894 337.3459 177.188 341.9602 166.6614 343.8423 157.225 344.2317 150.839 346.3733 147.607 350.6632 141.5973 354.1353 137.963 355.6799 137.9889 359.4894 142.3631 367.485 147.3344 373.9749 147.4382 379.1798 144.998 380.6271 137.301 379.9716 135.6656 381.8926 134.8348 387.6946 132.7711 392.6659 129.604 395.6966 124.1005 399 114.0282 397.9227 104.5529 392.9384 99.6076 391.4003 96.778 391.5691 96.0252 379.394 91.9366 369.9252 76.9189 347.1586 28.1018 325.041 16.6147 315.0855 11.5656 306.733 6.5294 298.8413 11.3579 298.6206 16.1345 300.6195 22.248 303.0143 24.7271 299.0684 22.0792 290.4433 9.5018 270.2662 8.5543 264.7173 14.7197 247.8501 24.9997 228.8996 24.3117 205.9383 27.5048 188.6167 23.9613 177.3697 22.2609 163.5786 29.8022 145.2447 36.2402 140.7082 40.212 134.9127 40.4586 115.3651 25.9342 106.2403 9.2032 104.5205 Z"/>
</g>
</svg>