<?xml version="1.0"?>
<svg xmlns="http://www.w3.org/2000/svg" version="1.2" baseProfile="tiny" width="500" height="439" viewBox="0 0 500 439" stroke-linecap="round" stroke-linejoin="round">
<g id="ne_50m_admin_0_countries-Algeria">
<path d="M 417.2193 4.742 417.728 6.0278 417.8151 7.2324 415.5355 8.3522 414.0283 8.9974 412.2291 12.0895 408.8804 14.1937 408.3222 14.8283 408.3505 15.4029 410.616 16.3555 411.3696 17.2586 411.7252 18.4691 410.7125 22.7905 410.0743 26.1133 409.2407 30.4641 409.2736 32.122 410.1379 34.1119 410.9857 35.6638 411.2495 37.4171 410.9457 41.7361 411.9936 44.2324 412.8226 46.5414 410.842 49.4168 409.9919 51.9519 409.4573 55.5821 409.2383 57.8699 407.9643 59.9871 406.2923 61.9735 404.4154 63.2086 402.0957 64.2696 399.4158 65.6778 397.2516 69.4352 392.5723 72.5578 391.5926 73.6305 391.1522 76.1386 391.2629 79.6121 392.0871 82.3745 394.3338 86.4568 396.3025 90.9501 396.8371 93.212 397.593 94.0657 400.3554 95.5364 405.1383 97.5393 406.0285 98.3529 408.4023 101.4544 410.6513 107.0109 411.3554 110.6929 415.738 113.6178 419.7838 116.3154 423.6695 118.6868 427.8873 121.2608 428.4925 122.0568 429.8984 127.512 431.2949 132.9331 432.8327 138.9053 434.3728 144.894 436.1908 151.9459 437.2223 155.9517 438.4752 160.8088 439.9399 166.4996 437.5826 167.7077 434.9121 169.2525 436.8597 172.1844 440.6017 176.9521 442.8672 180.7989 443.6514 182.4733 445.4176 187.2491 446.8494 191.879 447.2215 193.3779 447.749 196.9421 447.099 206.7517 448.1258 219.2165 449.5199 225.4289 447.3322 231.0408 445.4576 236.3972 445.5777 239.0865 446.6115 243.296 447.6171 246.4057 448.9995 248.0424 448.7287 253.2787 448.154 255.1803 443.9481 257.9227 439.2806 260.4425 437.99 262.5702 437.6156 264.944 438.2397 266.8715 441.4471 271.1399 446.2654 277.5513 451.5617 284.5973 452.0044 286.3706 452.2234 291.3749 454.4277 297.6638 456.8179 300.4132 457.7152 302.4679 459.4013 303.9339 461.0922 305.0101 462.1307 305.1396 468.0911 303.424 478.2693 306.2535 487.9011 309.1395 488.6076 309.7071 490.7129 313.3514 494.1558 319.3106 496.7133 324.0794 499 328.3466 486.5116 335.7082 474.0256 343.071 461.5373 350.4326 449.0489 357.7942 436.5629 365.157 424.0769 372.5186 411.5886 379.8802 399.1002 387.2418 390.8178 392.1248 385.5521 396.432 378.9441 401.8331 372.7058 407.1977 367.7957 411.4202 361.4373 416.8896 358.2369 419.6425 351.1461 425.7395 349.0173 426.8228 339.621 428.6244 331.0042 430.2752 323.0444 431.8012 317.6044 432.8444 312.3458 433.8512 304.6898 435.2748 299.224 436.2909 293.3224 437.3872 292.4087 437.5732 291.3372 437.6168 290.5412 437.5744 288.914 436.9739 286.9429 435.5362 285.6288 434.8061 285.2991 433.6746 286.0668 432.178 287.0159 430.8274 287.3809 429.7689 288.0379 428.9646 288.8763 428.3088 288.9116 427.3845 288.2169 425.8738 287.6046 423.7802 287.6305 419.9722 287.647 418.7076 287.6541 418.2508 285.8831 416.7919 282.5603 415.1905 279.5035 414.2414 278.1094 413.9164 274.73 413.3501 270.0625 412.3351 268.4211 411.6392 265.3997 408.1079 263.9161 407.2036 256.91 406.6031 254.5857 406.0203 252.6758 405.1831 251.0415 404.0551 250.123 402.1146 249.8499 400.5344 249.2376 399.782 241.511 395.9716 239.5493 394.6764 238.5084 393.4671 238.4683 391.6856 238.6779 389.499 238.3506 387.5574 238.0209 386.5989 234.4979 384.2958 226.5993 379.1325 218.7032 373.9693 210.807 368.8048 202.9084 363.6427 195.0123 358.4795 187.1149 353.3151 179.2175 348.153 171.3214 342.9897 163.424 337.8253 155.5266 332.6632 147.6281 327.4988 139.7319 322.3356 131.8345 317.1723 123.9372 312.0091 116.041 306.8458 108.1425 301.6837 101.4709 297.32 94.101 292.7113 88.6293 289.339 83.1917 285.9856 77.3572 282.386 73.5575 280.1523 69.023 277.4853 64.4886 274.8183 59.9529 272.1513 55.4184 269.4844 50.884 266.8162 46.3483 264.1504 41.8138 261.4834 37.2793 258.8164 32.7437 256.1494 28.208 253.4824 23.6736 250.8154 19.1391 248.1484 14.6034 245.4814 10.069 242.8144 5.5345 240.1474 1 237.4804 1 232.5539 1 228.5457 1 222.663 1 217.5598 1 212.4555 1 208.9454 1 205.2917 1.1189 203.6361 1.5652 202.932 4.0143 201.7439 7.8494 199.0357 9.2683 197.83 11.0839 196.616 17.5047 192.9528 18.8329 191.932 25.0712 187.7178 26.5313 187.0984 29.8801 186.6875 31.2801 185.8974 33.1593 184.2159 35.9288 182.2825 37.7303 181.3723 38.1589 181.2051 39.3046 181.0697 45.0766 181.6384 47.4987 182.067 50.3871 182.4297 51.2937 182.1848 52.0673 181.5843 53.1553 180.2337 53.3932 178.6382 53.4603 177.2453 53.6298 176.6341 54.1397 176.3633 55.3961 176.4658 57.0846 176.6542 60.5287 176.5965 61.6932 176.3975 65.6048 176.1007 71.1343 175.1894 75.5157 174.0095 79.001 173.0699 82.7419 170.6172 85.4795 168.0244 88.3302 164.1599 90.5886 160.8088 95.1643 158.7105 98.9958 157.4471 101.1777 156.9467 106.1525 155.1781 110.3502 152.5087 114.2913 150.0019 117.3127 149.671 121.1242 149.2554 121.9732 148.7844 122.9352 147.8942 122.9928 146.3305 121.8354 145.2307 120.4448 144.6514 119.4604 144.0144 118.476 143.899 117.9556 143.1466 118.2452 141.756 118.396 140.469 119.0224 139.1914 118.8469 137.3758 117.8661 135.5613 117.5658 134.2578 117.6353 132.9685 118.1157 131.9547 119.5287 131.2882 121.1666 131.0339 123.4733 131.3553 127.4473 130.9267 137.6336 127.7981 138.3366 126.835 138.9901 124.6708 139.7201 122.7762 140.7728 122.1415 141.3462 122.0002 144.7421 121.4927 149.5497 120.7709 151.3548 120.6673 156.5911 120.8757 160.412 121.0276 166.5808 121.2749 170.9658 121.4009 174.7784 121.5139 179.6426 121.6552 180.8342 121.216 180.8342 119.8337 179.9617 117.2632 180.4869 115.6607 182.3614 114.1759 184.7022 112.5086 183.6048 110.4833 181.7432 109.128 179.1351 107.5078 177.7904 106.8402 175.4308 104.8761 173.9836 102.6377 173.0016 97.9125 171.2083 95.2655 169.9037 92.0027 171.06 86.02 169.3302 82.4004 169.0618 80.8332 169.0476 78.9916 169.5787 75.8065 169.2349 71.3262 167.1884 66.6999 168.1516 65.1244 168.599 64.3096 168.4507 63.609 166.5902 62.1383 165.7931 60.9267 166.2087 59.7857 167.179 58.1325 167.0966 57.4402 164.0751 55.4231 158.9896 52.1603 157.5672 50.7391 156.8713 48.9446 161.739 49.4062 164.2588 49.1849 170.0379 47.0418 174.6171 44.1488 178.1837 42.6734 181.3299 39.5024 184.1677 37.4984 188.2724 35.3389 200.1213 30.6819 201.9382 30.6419 205.8357 31.7052 209.2339 31.3743 211.5535 29.7411 214.0545 25.8201 217.926 23.4275 222.8149 21.0289 229.4677 18.7446 233.8291 16.6369 240.715 14.813 258.0122 13.6556 266.8951 12.6253 272.9356 12.8572 279.0396 9.525 282.0869 8.4252 295.2935 8.1685 301.5271 5.7311 325.138 5.7276 328.0251 6.5459 330.8605 7.8565 335.6882 11.0215 338.095 11.7104 341.2106 11.0545 348.4662 8.0602 356.6473 6.5012 361.0935 4.715 362.9916 2.1174 366.8184 1.1601 368.9732 3.1548 377.4534 5.1706 382.6602 4.5937 384.9516 3.9873 384.1274 1 389.6286 1.7983 393.8557 3.2337 398.2901 6.115 401.1561 6.6919 406.3818 5.3896 417.2193 4.742 Z"/>
</g>
</svg>