<?xml version="1.0"?>
<svg xmlns="http://www.w3.org/2000/svg" version="1.2" baseProfile="tiny" width="362" height="400" viewBox="0 0 362 400" stroke-linecap="round" stroke-linejoin="round">
<g id="ne_50m_admin_0_countries-angola">
<path d="M 39.9392 7.0285 39.4873 7.5061 36.2701 8.8016 32.8211 10.0113 28.2855 14.953 25.9833 17.0922 25.3198 17.6241 23.2465 18.8052 21.7451 19.8176 21.7966 20.3781 22.7975 21.0244 23.8213 22.0854 23.7212 30.1586 23.2751 38.1003 22.7146 38.7724 19.829 39.0355 15.9997 39.5846 14.7814 39.9421 14.3525 39.1585 13.077 36.2529 13.7977 33.4989 14.5727 31.437 13.7119 27.2359 11.7615 23.4981 9.6938 18.7537 9.0618 17.85 10.7949 16.3229 13.4173 12.9712 14.5069 11.241 17.5412 10.8578 18.6765 9.6452 19.4772 7.7005 19.7861 6.5709 23.2093 5.6443 27.316 3.9942 29.5924 2.1954 31.9003 1.0486 33.3616 1 34.3254 1.4747 36.9707 4.5976 39.2157 6.5738 39.9392 7.0285 Z M 358.9569 189.6761 359.5947 193.5139 360.2324 198.8418 360.6871 202.6739 361.1504 204.387 361.3048 205.3021 360.7958 206.2916 360.3668 208.5909 359.5518 210.6271 359.0885 212.0512 359.466 214.6623 359.16 218.4086 358.8339 222.3609 358.7339 226.1644 359.8349 232.9851 359.6833 235.0785 358.3192 238.6389 357.2839 241.3443 356.6147 244.4815 356.4946 246.1145 359.0027 250.7388 358.854 251.6625 356.935 251.9485 355.345 252.0286 349.2736 252.0286 340.5712 252.0286 331.8688 252.0286 323.1664 252.0286 315.1618 252.0286 307.506 252.0286 300.7512 252.0286 300.754 256.5928 300.7569 265.9902 300.7569 275.3904 300.7626 284.7877 300.7655 294.185 300.7683 303.5824 300.7712 312.9797 300.774 322.3771 300.7769 331.7744 300.7769 338.5522 302.5471 347.5491 305.7816 357.3411 307.0485 358.2477 310.3029 360.0465 314.8243 363.7242 317.3581 366.5097 322.5115 371.3428 329.3607 377.5057 335.9726 383.0308 341.8009 387.8982 332.6524 389.6027 319.6431 392.0278 310.8635 393.6636 300.2221 395.6454 293.124 396.8923 284.293 398.4423 282.8831 398.408 280.5151 397.3384 275.4075 397.1268 269.3991 398.5996 264.6317 399 261.1056 398.3251 257.6652 397.0324 254.3078 395.125 248.491 394.43 240.2175 394.9476 232.2387 394.5759 224.5601 393.3118 219.0635 392.8142 215.7547 393.083 212.2057 392.6684 208.4193 391.5788 205.2592 389.7314 201.4556 385.8306 198.4814 382.1042 197.7122 381.5723 196.7713 381.0032 195.839 380.8345 187.4168 380.7344 179.4094 380.64 174.8251 380.6343 163.6232 380.6171 152.4185 380.6 141.2137 380.5828 130.009 380.5657 118.8042 380.5485 107.5995 380.5342 96.3947 380.517 85.19 380.4999 79.2387 380.4913 73.7079 380.7859 67.605 381.1119 66.7242 380.9746 65.2771 380.5228 64.2876 379.702 61.0017 377.5829 58.1419 375.9757 54.2583 373.2731 51.7474 370.3104 49.6311 369.3666 45.8819 368.8318 43.065 368.3085 40.7714 368.1912 36.7305 369.5897 33.6876 370.971 31.5171 372.3065 27.7507 373.8394 24.5763 375.3665 19.0454 375.1663 17.85 375.3865 14.7729 375.2864 11.873 373.9566 8.9331 374.0739 5.6701 375.7726 1 376.4361 2.0839 365.3686 3.2221 360.4726 3.2507 354.6214 2.5786 339.4559 1.7721 337.3739 1.2288 334.9316 4.1229 333.0699 5.5929 331.6486 7.5833 329.1348 8.996 325.6115 10.669 317.8385 16.7375 299.9533 19.6202 282.4284 23.2751 274.1235 24.6449 264.8205 34.8116 252.8121 37.3167 245.431 42.5731 241.8133 50.02 237.9554 55.3193 231.0947 57.8845 226.3417 60.8072 217.2332 60.7758 207.7215 62.6261 195.0239 62.22 191.3719 59.4488 186.3187 58.9341 182.701 56.3602 179.1491 53.6062 176.4666 52.3165 171.6764 47.5377 164.1151 46.2279 159.0732 43.9401 155.4556 43.574 150.9885 42.3672 146.2727 40.0336 141.6084 37.7657 136.2691 37.7657 134.599 39.1785 132.5857 40.5255 131.925 40.0707 132.9374 39.1728 134.1357 39.3844 135.0623 48.3213 125.7021 48.8875 123.8718 48.5873 121.8242 48.5387 119.319 48.8933 116.4048 40.4683 99.1402 33.7763 83.0823 32.6381 74.969 23.7898 64.2962 20.3009 57.3583 18.3133 52.4938 16.8205 50.6492 17.3839 49.7198 19.6631 49.4767 24.7336 48.3528 31.6772 47.123 38.0946 44.3033 39.8048 43.0507 43.208 42.799 46.6712 43.5483 47.9552 43.0078 48.6874 42.962 56.8149 42.9592 60.1981 42.7676 66.464 42.8276 70.4248 43.0593 72.6812 43.3767 78.7669 43.8657 86.3597 43.7542 89.0393 43.4968 98.9943 43.3338 108.8235 43.1679 117.666 43.0221 127.4237 43.0535 134.8935 43.0736 138.2967 44.0859 141.391 46.0077 142.798 47.7493 143.4672 48.5186 144.391 50.3632 146.0811 51.8189 146.6817 54.0781 146.1898 57.141 146.4357 60.8215 147.4195 65.1198 149.4728 69.6326 152.5872 74.3599 153.9456 78.112 153.5424 80.8917 154.5004 83.8316 156.814 86.9259 158.507 88.5646 159.4879 89.8029 162.1218 94.5473 166.9921 102.1201 170.644 107.7997 171.9195 108.4774 173.787 108.2344 177.7535 107.6681 181.6858 107.5594 184.4884 108.7291 185.6123 108.5289 189.8391 106.2754 194.0373 105.5862 198.4242 104.6567 200.7092 103.7016 203.366 103.7044 210.5384 105.5233 211.8882 105.6205 217.6937 105.6205 223.4962 104.5995 224.3484 96.9839 224.3999 95.4767 225.7955 92.6141 227.5686 90.1203 227.7888 87.7352 227.683 84.4779 228.967 80.5228 232.8535 77.3799 239.1451 75.8927 242.7256 75.6039 248.3651 74.7202 256.9217 73.828 260.0789 73.9481 260.3334 74.3942 258.5232 79.8593 258.4917 81.6467 259.1523 83.4512 260.5994 84.4264 269.4763 84.5351 277.6582 84.6381 287.0441 84.9812 294.0792 85.2386 294.9743 85.5074 295.6893 85.9164 296.7303 88.6218 296.4958 93.9124 294.9286 101.6368 295.5377 108.8549 298.3203 115.5669 298.5977 125.8823 297.6168 132.0366 296.3757 139.7952 295.8981 148.5892 297.1707 152.264 299.8646 156.1105 303.9799 160.1285 307.16 165.3362 309.4078 171.7336 310.2257 175.7631 309.6166 177.4218 309.6623 180.2988 310.3601 184.3911 309.5823 187.1051 307.3287 188.4378 306.5795 190.2766 307.7148 193.8028 307.9922 197.0029 308.8845 198.2241 309.5336 199.1163 310.5918 199.2479 312.8768 198.1011 315.605 195.9705 317.7985 195.0668 320.8871 195.1812 325.2283 195.7818 332.8869 196.0048 335.2434 195.6216 342.3729 192.7418 344.2403 192.533 347.0515 192.8047 351.0467 193.6541 355.0733 193.8314 357.0437 192.9391 357.2239 191.7752 357.8502 190.2538 358.9569 189.6761 Z"/>
</g>
</svg>