<?xml version="1.0"?>
<svg xmlns="http://www.w3.org/2000/svg" version="1.2" baseProfile="tiny" width="500" height="43" viewBox="0 0 500 43" stroke-linecap="round" stroke-linejoin="round">
<g id="ne_50m_admin_0_countries-Antarctica">
<path d="M 186.7571 1 187.0587 1.0354 187.2156 1.0855 187.2556 1.1424 187.4344 1.1644 187.4581 1.176 187.4922 1.2089 187.5109 1.246 187.5097 1.2934 187.1994 1.1782 186.769 1.1722 186.671 1.0901 186.4534 1.137 186.4292 1.1059 186.4271 1.0657 186.4568 1.0078 186.5961 1.0312 186.7571 1 Z M 124.7583 12.4497 124.7431 12.4505 124.7161 12.4502 124.6965 12.4509 124.6766 12.453 124.6574 12.4553 124.646 12.4572 124.6418 12.4572 124.6373 12.4546 124.6308 12.4486 124.6169 12.4365 124.6049 12.4247 124.598 12.4125 124.6035 12.3968 124.6185 12.3898 124.6192 12.3798 124.6192 12.3668 124.6265 12.3556 124.6308 12.344 124.6297 12.3371 124.6345 12.3336 124.6468 12.3312 124.6699 12.3314 124.6843 12.3324 124.7107 12.3337 124.723 12.3352 124.7413 12.3398 124.7593 12.3537 124.7735 12.3676 124.7735 12.3739 124.7767 12.382 124.779 12.3917 124.7818 12.4033 124.788 12.413 124.7832 12.4295 124.7725 12.4457 124.7627 12.449 124.7583 12.4497 Z M 171.1214 4.9452 171.2505 5.1288 171.4518 5.2202 171.3786 5.3027 171.1864 5.2935 170.9851 5.3117 170.9394 5.2202 171.0148 5.1536 170.9394 5.0922 170.7573 5.1081 170.5128 5.1399 170.3456 5.1855 170.1306 5.2824 169.9648 5.338 169.4029 5.4854 169.0309 5.6958 168.7667 5.9199 168.6061 6.0712 168.376 6.0824 168.3179 6.1371 168.4148 6.1806 168.4899 6.1991 168.6609 6.2176 168.6335 6.2817 168.5146 6.2999 168.5279 6.3507 168.6518 6.4281 168.6793 6.5379 168.5329 6.5562 168.3132 6.4371 168.066 6.4263 167.8719 6.371 167.746 6.2908 167.627 6.3091 167.5365 6.4216 167.5904 6.547 167.4897 6.6202 167.3674 6.5859 167.325 6.4371 167.2072 6.4126 167.0511 6.4095 166.6646 6.5693 166.5289 6.5744 166.4554 6.6557 166.2309 6.7487 166.0871 6.8215 165.7337 7.0672 165.5339 7.1702 165.1576 7.2291 165.0088 7.2205 164.9208 7.1957 164.7822 7.1792 164.644 7.1784 164.5983 7.2424 164.8179 7.4529 164.6989 7.5261 164.4331 7.5217 164.3055 7.4621 164.1994 7.5177 164.1162 7.5741 164.0323 7.655 164.1591 7.828 164.367 7.9064 164.5159 7.9195 164.5709 7.9835 164.2452 8.0111 164.025 8.1628 163.9257 8.2682 163.8114 8.3587 163.8277 8.4638 163.9994 8.6228 164.2264 8.7356 164.456 8.7448 164.7524 8.7105 164.8217 8.6783 165.1199 8.6607 165.2485 8.5517 165.3426 8.5442 165.4263 8.5638 165.5624 8.5683 165.6331 8.4967 165.7373 8.47 165.8754 8.4882 166.1447 8.4869 166.2179 8.5509 166.1356 8.6241 165.9708 8.7248 165.8153 8.6698 165.678 8.679 165.6038 8.7323 165.7512 8.8437 165.6963 8.9443 165.5774 9.0449 165.4309 8.9809 165.4095 8.8723 165.2114 8.8071 165.0192 8.7796 164.8889 8.8916 164.682 8.9246 164.6532 9.0541 164.5709 9.1731 164.4519 9.1365 164.4056 8.989 164.0722 8.8685 163.8996 8.852 163.5498 8.8828 163.4271 8.8803 163.2899 8.9077 163.1891 9.0085 163.3338 9.0825 163.3821 9.1822 163.3785 9.2568 163.3514 9.2865 163.3271 9.3486 163.482 9.4385 163.4911 9.5575 163.3633 9.5563 163.2584 9.5202 162.8545 9.2058 162.6016 9.0671 162.4938 8.9443 162.2295 8.9166 162.0385 8.9138 161.809 8.9636 161.8989 9.0218 161.9448 9.1091 161.8047 9.1452 161.6321 9.2793 161.516 9.3939 161.4459 9.4186 161.3591 9.4843 161.7312 9.6321 161.7862 9.6905 161.8059 9.787 161.6886 9.841 161.4078 9.8621 160.912 9.7599 160.7003 9.7577 160.6271 9.6856 160.5173 9.6947 160.4493 9.8163 160.3692 9.924 160.2519 9.9967 160.2852 10.1077 160.3801 10.1339 160.3064 10.1786 160.1513 10.2162 160.0461 10.2589 160.2794 10.2986 160.3234 10.3351 160.3333 10.3879 159.9732 10.4267 159.7395 10.4358 159.599 10.3929 159.4704 10.414 159.3873 10.4846 159.3592 10.5778 159.3863 10.6935 159.4321 10.776 159.4653 10.8068 159.505 10.8752 159.2893 11.0533 159.2682 11.092 159.2533 11.1741 159.3532 11.2492 159.434 11.3592 159.3209 11.413 159.1987 11.5267 159.3277 11.549 159.5473 11.5541 159.7817 11.5398 160.1403 11.4396 160.2428 11.424 160.286 11.4611 160.3192 11.5224 160.2273 11.579 159.5782 11.7438 159.4581 11.8119 159.6249 11.8498 159.9592 11.8582 160.0882 11.9102 160.0079 11.9676 159.8895 12.0229 159.7491 12.1529 159.8643 12.2009 160.224 12.2775 160.8733 12.3782 161.3581 12.4129 161.2497 12.2963 161.2326 12.1519 161.5712 12.0345 161.7482 11.9959 162.5504 11.9255 162.7718 11.9281 162.9423 11.9583 162.8781 12.0188 162.6913 11.9971 162.3693 12.0369 161.8715 12.1653 161.7801 12.2201 161.8166 12.3208 162.2376 12.4032 162.3748 12.4672 162.1885 12.6619 162.2193 12.7874 162.433 12.9245 162.7194 13.0794 162.8582 13.1844 163.0717 13.2439 163.4216 13.3896 163.6101 13.5378 163.6701 13.8738 163.9533 14.1514 164.2872 14.2789 164.3238 14.3887 164.214 14.4986 163.9319 14.4354 163.7748 14.4986 163.7107 14.6175 163.912 14.6999 164.2323 14.8005 164.9185 14.7913 164.9369 14.9011 164.7793 14.9659 164.6532 15.0476 164.4976 15.0932 164.2414 15.1207 164.1774 15.2213 164.2872 15.3586 164.6454 15.2979 164.9065 15.2902 165.1839 15.3129 165.2685 15.4992 165.5928 15.727 165.6689 15.8345 165.6124 15.9378 165.4113 15.969 165.2884 16.0502 165.1058 16.1218 164.903 16.1588 164.5245 16.3482 164.3584 16.3688 164.2903 16.4061 164.6131 16.4265 164.8381 16.4302 165.3212 16.2764 165.5041 16.3103 165.6232 16.4109 165.6872 16.5298 165.5682 16.6305 164.7251 16.6898 164.3178 16.7461 163.8783 16.9037 164.3799 16.9776 164.7479 16.9524 164.9351 16.9799 165.1875 17.0353 165.468 17.006 165.6834 16.9489 165.8474 16.9508 166.0048 16.9799 166.0257 17.0788 166.044 17.2527 166.0806 17.3809 165.9897 17.4687 165.5509 17.5303 165.2296 17.5272 165.2208 17.7105 165.7008 17.8474 165.9983 17.7743 166.2636 17.8109 166.2636 18.0305 166.4679 18.2729 166.648 18.2867 166.7943 18.1768 166.9865 18.1768 167.0597 18.305 166.9773 18.5246 166.8309 18.6436 166.4415 18.5951 166.2244 18.5552 166.0502 18.6376 165.7607 18.706 165.5041 18.7168 165.2818 18.609 165.024 18.5275 164.6118 18.4851 164.2219 18.467 164.3513 18.5612 164.5272 18.6153 164.5962 18.7822 164.7355 18.9547 165.0558 18.9089 165.5063 19.0079 165.7842 19.1094 165.9068 19.2474 165.7512 19.4671 165.4945 19.5486 165.3353 19.5861 165.0577 19.5022 164.8622 19.5022 164.6598 19.5407 164.5908 19.6408 164.4571 19.6904 165.1748 19.6958 165.3944 19.7232 165.5591 19.8148 165.3028 19.9337 164.8271 19.9155 164.6231 19.9617 164.4508 20.0468 165.1577 20.1007 165.4498 20.0707 165.9159 19.9795 166.0257 20.071 165.8401 20.162 165.6017 20.3078 165.1046 20.3541 164.7313 20.3565 164.2409 20.3043 164.1104 20.2725 163.9078 20.2566 163.9211 20.3455 164.0497 20.4069 164.3794 20.6325 164.4336 20.7206 164.3329 20.8396 164.0427 20.9276 163.7181 20.9632 163.4493 20.8853 163.2532 20.6658 163.0062 20.6017 162.75 20.5834 162.6036 20.5925 162.6177 20.7037 162.6767 20.8212 162.5761 20.9037 162.3561 20.8611 162.077 20.8989 161.8113 20.9635 161.5708 21.0356 162.0601 21.0713 162.3839 21.0775 162.6104 21.1882 162.5304 21.2422 162.0872 21.2666 161.6638 21.3146 161.08 21.4346 161.5048 21.4851 161.9115 21.4831 162.1931 21.4947 162.4297 21.5167 162.4938 21.5807 162.3473 21.654 161.3939 21.8312 160.3901 22.0506 160.0219 22.1188 159.6383 22.157 158.7475 22.3459 158.1876 22.4313 156.5998 22.5646 154.1289 22.898 153.2839 23.1348 153.0345 23.3181 152.876 23.3453 152.4048 23.4061 151.9286 23.4355 150.6785 23.454 149.4008 23.366 148.364 23.3472 147.7996 23.3766 145.8788 23.2171 145.6365 23.2244 145.338 23.2541 145.1 23.2541 144.9181 23.2318 144.5289 23.2225 143.2204 23.284 143.0862 23.3834 143.251 23.5663 143.7274 23.787 144.5228 24.1764 144.9535 24.2588 145.2151 24.3473 145.7148 24.4521 146.8301 24.4574 148.3551 24.5369 149.2215 24.6126 149.1894 24.7559 148.6687 25.0331 148.3457 25.139 147.575 25.3307 146.51 25.4254 145.6988 25.3977 144.261 25.2405 142.4567 25.0969 139.7774 24.9617 139.1893 24.898 138.5012 24.8363 138.1042 24.8995 137.8073 24.9606 137.1463 24.9665 137.3399 25.0212 140.0116 25.3929 142.2963 25.6649 142.5637 25.7348 142.8849 25.7807 142.8575 25.9546 142.7294 26.0918 142.281 26.2107 141.1156 26.2198 139.6563 26.3147 138.929 26.3176 138.2041 26.2229 136.6645 25.9528 135.725 25.7499 135.0692 25.5207 134.6133 25.338 134.1057 25.1567 134.1429 25.2712 134.232 25.3842 134.4803 25.5226 134.8432 25.6733 134.8694 25.7349 134.6923 25.7433 134.4302 25.6709 134.2068 25.7384 134.1282 25.8173 134.2197 25.9227 134.36 26.0247 134.8237 26.2504 135.2238 26.3092 135.7516 26.447 137.0358 26.7008 137.2543 26.7881 137.6427 26.9748 137.7243 27.1166 138.0994 27.257 138.3584 27.2782 138.5935 27.2721 138.671 27.1523 138.6575 27.0068 138.7582 26.9702 139.1242 26.9336 140.0863 26.9838 144.1762 27.0133 144.5655 27.0984 144.7212 27.2062 144.823 27.4302 144.3909 27.6983 144.095 27.8126 143.6161 27.8842 143.1759 27.938 142.5124 27.9593 141.1424 27.9397 139.8031 27.9418 140.8451 28.0701 141.8564 28.1768 143.2614 28.1576 143.8193 28.1277 144.3032 28.0774 144.5075 28.1675 144.8865 28.3542 145.1123 28.4139 145.2692 28.4755 145.4822 28.6804 145.5659 28.8003 145.7733 28.9406 145.9228 29.0564 146.1454 29.1358 146.5175 29.1724 146.9263 29.1053 147.7193 29.0748 148.4864 29.1823 148.9759 29.215 149.6347 29.1262 150.1599 29.0028 151.2576 28.8898 151.4642 28.8408 151.7589 28.8024 152.2151 28.8124 152.3919 28.8405 152.6238 28.9635 152.8359 29.1311 153.1494 29.2157 153.4817 29.2762 153.673 29.2821 154.2988 29.3362 155.1174 29.2851 155.4816 29.3351 155.5396 29.4316 155.7345 29.5098 155.9812 29.5345 159.2897 29.9665 160.429 30.0511 162.1891 30.0947 163.5552 30.0996 163.744 30.1271 164.0046 30.2094 163.4838 30.2678 162.9248 30.2756 162.0837 30.2524 161.7867 30.2647 161.1448 30.2421 160.8086 30.2586 160.5037 30.2318 160.0535 30.2929 159.226 30.3383 159.4102 30.4015 159.7185 30.4162 160.3454 30.4399 161.2036 30.4289 161.277 30.532 160.4898 30.5571 158.8159 30.5775 158.6415 30.5936 158.5149 30.6483 158.765 30.6726 158.916 30.7034 158.9952 30.7757 158.8201 30.9662 159.0957 31.099 159.2922 31.1199 159.4962 31.1006 159.848 31.153 160.1946 31.2253 160.9181 31.2307 161.7809 31.1337 162.2049 31.1372 163.3407 31.0767 164.3694 31.0878 165.8116 30.9711 166.0495 30.9736 166.27 30.9893 165.8696 31.0943 164.1026 31.3582 163.4683 31.409 163.2157 31.4422 163.3606 31.5714 163.5893 31.7062 164.0554 31.8504 164.3482 32.0638 164.636 32.1099 165.1839 32.0119 165.3145 32.0847 165.3395 32.2316 165.1972 32.3509 165.0131 32.4176 164.8827 32.4826 164.8007 32.5681 165.0283 32.6433 165.6399 32.6875 166.4508 32.7058 167.2022 32.7081 167.6695 32.7302 169.3656 32.2631 170.0464 32.0388 170.3793 31.9442 170.6608 31.8751 172.0936 31.589 172.4295 31.5016 172.8091 31.3746 173.509 31.3558 174.4684 31.1502 175.3193 30.9902 175.6602 30.9596 175.912 30.9471 176.2143 30.9127 176.9616 30.9253 177.4927 30.8993 178.4392 30.7979 179.16 30.7338 179.93 30.6788 180.7929 30.668 183.1009 30.5638 183.7566 30.6093 184.485 30.7183 184.9558 30.7172 185.5827 30.684 186.0097 30.6394 186.2019 30.7675 186.3025 30.9323 186.092 31.0878 185.7465 31.1829 185.6518 31.3416 186.1242 31.4205 186.6591 31.3974 187.6895 31.3186 188.5041 31.2189 188.7297 31.1523 189.0445 31.1713 189.5908 31.0864 190.2672 30.7365 191.119 30.383 191.836 30.1565 192.299 29.8934 192.6832 29.7413 193.1092 29.6266 193.4015 29.5679 194.0569 29.5579 194.9955 29.3737 196.3658 29.1666 197.4182 29.2662 198.5272 29.4178 199.0762 29.2944 199.509 29.2735 199.8763 29.2195 200.2473 29.1785 200.51 29.0703 200.8632 28.9776 201.131 28.8462 202.4826 28.7808 203.8953 28.6937 204.0854 28.6636 204.2708 28.6815 204.7564 28.6569 205.3796 28.5835 206.2393 28.5612 206.6849 28.5687 207.0953 28.3723 207.9117 28.333 208.7803 28.255 209.1481 28.1976 209.4281 28.1841 216.4676 28.0317 216.7726 27.9585 217.3887 27.8975 217.6205 27.751 216.6779 27.69 216.3852 27.629 216.0615 27.6112 215.8726 27.6343 215.0589 27.6175 208.5701 27.3914 208.4321 27.3725 208.2078 27.234 208.2539 26.9837 208.063 26.7884 207.6074 26.7345 207.1372 26.7397 206.5456 26.7636 204.9838 26.8701 204.358 26.8793 202.6936 26.7153 201.5904 26.5317 200.8696 26.4701 200.352 26.3463 199.8692 26.2504 199.8326 26.0309 199.9498 25.8273 200.8788 25.2364 201.4622 24.9541 201.8484 24.9313 202.2038 24.8039 202.5652 24.518 202.8618 24.3845 203.5322 24.2266 203.8288 24.1857 204.8839 23.9909 205.1727 23.9845 205.6457 24.0172 206.1818 23.8419 207.8233 23.4673 208.1929 23.3262 208.65 23.2399 209.9751 22.925 211.1568 22.7694 211.7466 22.7259 212.4639 22.6304 213.2586 22.4884 213.9513 22.3536 216.4271 22.0904 217.9104 22.0222 218.9228 21.9439 219.6385 21.9897 220.3499 21.9744 220.9652 21.907 221.2498 21.851 221.659 21.71 223.0347 21.7763 223.9229 21.6799 224.2905 21.6694 224.6787 21.6261 224.5257 21.5779 224.3849 21.5688 224.2461 21.5031 224.0636 21.3643 224.2461 21.189 224.3849 21.1013 224.794 20.9942 225.0056 20.8399 225.2069 20.6133 225.8804 20.1705 226.0697 20.108 226.4982 20.0885 226.8608 20.0993 227.2725 20.0942 228.3197 20.2096 228.5151 20.1657 228.8492 20.0346 229.1267 19.872 229.7218 19.6307 229.8395 19.5596 229.7875 19.441 228.8909 19.4924 228.2141 19.5708 227.5622 19.5295 227.4767 19.4621 227.6165 19.4113 227.8623 19.3914 227.9557 19.3108 227.7318 19.2437 227.3303 19.2053 227.1489 19.1537 227.1653 19.0318 227.2646 18.8516 227.4806 18.8001 227.6605 18.7254 228.1394 18.4732 228.4255 18.3966 229.2403 18.3284 230.1893 18.433 230.4055 18.4045 230.6332 18.2636 230.4005 18.0459 230.2208 17.9647 230.2214 17.8934 230.7178 17.9256 231.1827 17.9751 231.7281 17.9654 232.3668 17.7494 233.269 17.5685 233.708 17.4937 234.0959 17.4506 234.304 17.269 234.6154 16.9231 234.8413 16.7438 234.8372 16.6337 234.7706 16.5445 234.5352 16.5707 234.3226 16.5828 233.8193 16.4912 233.195 16.345 233.0064 16.181 232.914 16.0352 233.1125 15.9557 233.2981 15.9068 233.5022 15.8954 233.8661 15.9543 234.3295 16.1044 234.5618 16.1617 234.8251 16.2708 235.0248 16.2615 235.2544 16.1085 235.4472 15.9049 235.6041 15.8423 235.8477 15.7741 236.1203 15.6768 235.9975 15.5804 235.7088 15.5293 235.6687 15.4718 235.7923 15.4072 236.0301 15.3942 236.3216 15.5339 236.7209 15.6279 236.9934 15.6587 237.2309 15.7368 237.5971 15.9959 238.039 16.4267 238.2448 16.4296 238.6339 16.3912 239.0498 16.375 239.3294 16.2521 239.3912 15.9447 239.5003 15.8056 239.4618 15.6641 239.2696 15.5199 239.1083 15.4135 239.134 15.3364 239.2754 15.2786 239.4593 15.2595 239.7797 15.2013 240.273 15.2681 240.5405 15.281 240.9426 15.2428 241.3608 15.1582 241.7881 15.0987 242.1223 15.1438 242.2701 15.2979 242.103 15.4522 241.8331 15.5678 241.589 15.7093 241.5247 15.8635 241.5375 15.947 241.7691 15.9686 243.844 15.9495 244.1164 15.9643 244.4738 15.9649 244.8634 16.0143 245.5185 15.9947 246.1101 15.9401 246.3891 15.9399 246.8718 15.9901 247.2131 16.0956 247.9241 16.0664 248.1266 16.0312 248.3174 15.8892 248.5229 15.8635 248.7607 15.9792 248.8379 16.2427 248.9489 16.368 249.2486 16.482 249.5477 16.384 249.7447 16.2692 250.2133 16.0466 250.7449 15.8754 251.155 15.776 252.1473 15.6071 252.6404 15.5011 253.6098 15.3579 254.8513 15.2809 257.0731 15.0198 257.8075 14.993 259.0027 14.924 259.6155 14.8532 260.2383 14.7967 260.6195 14.6057 261.491 14.7513 261.7902 14.7682 262.1975 14.6534 262.6459 14.3669 263.2986 14.4849 263.675 14.6701 264.1345 14.8154 265.1736 15.0641 265.4982 15.1208 266.1868 15.1732 266.3698 15.1316 266.694 14.9656 267.0272 14.7259 267.2386 14.6248 267.5433 14.5398 267.8857 14.4079 267.796 14.3373 267.6008 14.3115 267.4232 14.2751 267.4663 14.2035 268.0741 14.1869 268.3955 14.4304 268.7201 14.5105 269.1213 14.5875 270.047 14.5272 270.8383 14.5205 271.5287 14.5703 271.8663 14.561 272.1682 14.3804 272.6605 14.3135 272.9424 14.3947 273.1144 14.6623 273.7473 14.7365 275.0724 14.8602 275.221 14.8297 275.3861 14.6876 275.4985 14.5138 275.7678 14.4855 276.1135 14.3913 276.2963 14.4062 276.555 14.5183 276.4664 14.7932 276.3201 15.0452 276.4949 15.2483 276.6501 15.361 276.8495 15.3813 277.1851 15.3863 277.5895 15.3718 277.8439 15.3821 279.1479 15.2795 279.3073 15.0542 279.5166 14.7977 280.0252 14.4703 280.2243 14.4956 280.3812 14.5283 280.7319 14.69 280.9397 14.77 280.9818 14.8893 280.7566 15.0018 280.8177 15.075 281.0495 15.1361 281.7876 15.2337 282.024 15.2143 282.3795 15.1132 282.7364 14.9082 282.9283 14.6724 283.2334 14.6846 283.5261 14.7334 283.7336 14.8555 283.7336 15.0872 284.0139 15.2477 284.2468 15.3468 284.8426 15.456 285.4828 15.4831 285.9309 15.5478 286.6567 15.5231 287.0102 15.4508 287.2365 15.4321 287.6361 15.3729 288.0536 15.2378 288.3152 15.1813 289.2679 15.0562 289.9943 14.9194 290.7583 14.6747 291.5046 14.5278 292.6538 14.4535 292.9703 14.4236 293.4074 14.4251 294.4874 14.2508 294.8982 14.1487 295.1261 14.1136 295.3868 13.9874 295.5276 13.7444 295.6353 13.5929 295.6168 13.4446 295.516 13.2533 295.2876 13.082 295.0518 12.8321 295.1542 12.5481 295.3404 12.4294 295.8181 12.2994 296.2941 12.2739 296.8307 12.2909 297.3001 12.3178 297.3367 12.4398 297.136 12.5708 296.8741 12.7008 296.718 12.7571 296.7756 12.8668 297.1144 12.8823 297.8577 12.8602 298.0702 12.9614 298.5984 13.403 298.7276 13.611 298.9106 13.672 299.202 13.6425 299.8246 13.6449 300.2581 13.6139 300.6105 13.6118 300.7943 13.6317 300.9838 13.7332 301.3422 13.8505 301.7014 13.764 301.9577 13.7232 302.2722 13.7333 302.7663 13.8696 303.2575 14.1904 303.7917 14.3505 303.8279 14.2481 303.7553 14.1211 303.9759 14.0079 304.2423 13.8166 304.6237 13.5705 304.9254 13.3182 305.0045 12.9692 305.145 12.6838 305.391 12.5465 305.6316 12.4595 306.0027 12.3682 306.4636 12.3471 306.9003 12.1416 307.2096 12.0584 307.8574 11.9445 308.6655 11.8328 309.2337 11.5166 309.4293 11.4779 309.7197 11.4288 310.2498 11.4092 311.1123 11.308 311.3824 11.2926 311.8347 11.2137 312.2355 11.0269 312.5225 10.9742 313.0376 10.9815 313.478 10.8754 313.8462 10.8717 314.1853 10.8171 314.2372 10.7006 314.0756 10.622 314.0722 10.5188 314.2615 10.3828 314.4075 10.3337 314.856 10.3429 315.2302 10.4569 315.503 10.4634 315.5741 10.5288 315.3367 10.6105 315.1788 10.7549 315.4513 10.8826 315.6943 10.9697 315.9899 10.9535 316.3427 10.8758 316.6904 10.9301 316.845 11.049 316.845 11.2319 316.9181 11.3296 317.1622 11.2442 317.2965 11.0612 317.2577 10.8276 317.272 10.6829 317.8566 10.4503 318.0867 10.2766 317.6769 10.239 317.3872 10.2628 317.2278 10.1997 317.0436 10.0229 317.5485 9.8774 318.1251 9.882 318.4593 10.0056 319.1752 10.2051 319.5719 10.2009 319.9317 10.2316 320.0049 10.1705 319.8706 9.8778 319.8872 9.7138 319.59 9.6215 319.5047 9.4142 319.6265 9.1945 319.9805 9.0725 320.4627 9.0158 321.501 8.6793 321.7737 8.6071 322.4565 8.5367 323.2548 8.504 324.246 8.3839 326.0112 8.4637 326.4851 8.5161 326.7812 8.5831 327.066 8.6901 327.4307 8.8691 327.9668 9.0951 328.6555 9.1652 328.8504 9.2362 329.1065 9.4278 328.8314 9.5538 328.606 9.5653 328.1722 9.4914 327.8741 9.4142 327.6685 9.4455 327.8705 9.5769 328.0936 9.6581 328.1302 9.768 328.0081 9.9266 327.1938 10.2385 327.6809 10.3287 327.9729 10.2567 328.2443 10.1231 328.5181 10.0642 328.7 10.0406 329.3496 10.0356 329.718 9.9822 329.9956 10.0199 330.2703 10.1058 330.6725 10.1884 331.2534 10.2804 331.9636 10.6336 332.5161 10.5971 332.8168 10.5204 333.6668 10.4956 334.4001 10.6537 334.8109 10.7101 336.0073 10.7588 336.7182 10.8585 337.1745 10.7399 337.4787 10.6916 338.117 10.6659 338.4382 10.6905 339.3269 10.821 340.8954 10.9538 341.9756 11.0217 342.9251 11.0251 343.3784 11.0835 344.203 11.1443 344.5203 11.1933 345.311 11.1553 345.6813 11.1037 346.026 10.9905 346.2235 11.0185 346.3574 11.1587 346.2842 11.4028 346.4245 11.5686 346.541 11.7327 346.7053 11.8711 346.8087 11.9883 346.7336 12.0867 346.504 12.1741 346.1889 12.3655 346.2065 12.5311 346.3431 12.6357 346.1842 12.7627 346.3003 12.9421 346.3208 13.0499 346.21 13.1358 345.9644 13.1879 345.5398 13.1962 345.3203 13.2451 345.2837 13.3792 345.3935 13.4767 345.6375 13.5289 345.7107 13.6353 345.6741 13.7941 345.5643 13.9282 345.34 13.9908 345.0955 14.004 344.6411 13.9774 344.3131 13.8877 344.1042 13.9667 343.9518 14.0474 343.4793 14.2343 343.2596 14.3578 343.054 14.4906 343.5949 14.5637 343.9848 14.6977 344.8405 14.6834 345.1144 14.6245 345.4789 14.5626 345.6741 14.5748 345.7961 14.709 345.7221 14.9224 345.7106 15.0874 345.274 15.5447 345.129 15.6216 344.9295 15.7471 344.6858 15.8441 344.4963 15.8924 344.1184 16.037 343.8915 16.2981 343.6428 16.5152 343.2812 16.8835 343.0721 17.2815 342.9805 17.5177 342.8402 17.7663 342.5341 18.1917 342.3326 18.2625 341.9884 18.4363 342.0873 18.5521 342.3579 18.5628 342.6877 18.5898 343.1289 18.6782 343.7189 18.4954 344.0271 18.3812 344.0881 18.1496 344.0271 17.9177 344.2145 17.7795 344.6474 17.5919 345.6672 17.4586 345.8781 17.4449 346.2173 17.3975 346.5148 17.2303 346.7809 17.0633 347.2405 16.956 347.6258 16.7839 347.6858 16.661 347.8454 16.6336 348.3257 16.5152 348.4489 16.4251 348.5995 16.3592 348.6998 16.2069 348.7407 15.9238 348.8597 15.7099 349.0935 15.4258 349.2838 15.2212 349.4684 15.0903 349.9633 15.0212 350.1782 14.9409 350.4609 14.7658 350.6518 14.6601 350.6297 14.4436 350.7372 14.2454 351.0406 14.1261 351.4326 13.9038 351.9186 13.8718 352.2867 13.7575 352.6803 13.8366 353.1567 13.9462 353.9545 13.9128 354.3363 13.9648 354.6292 13.9038 354.8853 13.733 354.9828 13.5257 355.2879 13.4037 355.631 13.4076 356.1987 13.1993 356.7823 13.0143 357.2649 12.9707 357.6475 12.8248 357.9209 12.5799 358.2161 12.3921 358.5764 12.2118 358.6795 11.8908 358.9047 11.7304 359.332 11.5887 359.6814 11.5112 361.1689 11.2726 362.3092 11.1127 363.4568 10.9173 363.8113 10.9196 364.2731 10.8109 365.035 10.8073 365.2376 10.7969 365.4996 10.5731 366.0668 10.3667 366.4224 10.3005 366.8711 10.1211 367.2352 10.1042 367.7449 10.1365 368.1768 10.1854 368.5665 10.1859 369.1304 10.0388 370.0044 10.0141 370.2761 9.9428 370.4674 9.8799 371.706 9.6701 372.1679 9.7103 372.8254 9.675 373.2226 9.6853 373.6033 9.7112 374.0828 9.718 374.9053 9.6441 375.2571 9.5952 375.9133 9.4133 376.6388 9.3708 376.9583 9.323 377.3683 9.282 377.6987 9.3521 377.9387 9.4154 378.0856 9.4294 378.2773 9.4432 378.7536 9.3694 379.1452 9.3893 379.6483 9.4689 379.9839 9.5334 380.1561 9.5324 380.467 9.4747 380.8451 9.3313 381.1951 9.273 381.5328 9.3091 381.7597 9.3696 382.1651 9.4522 382.7881 9.4387 383.3862 9.4089 383.8913 9.3411 384.3225 9.2703 384.7207 9.3798 385.1791 9.4196 385.923 9.2261 386.2054 9.2691 386.401 9.3192 386.5628 9.3446 386.7548 9.5074 387.462 9.4762 388.0903 9.3384 388.6262 9.235 389.1512 9.1676 389.5632 9.0747 390.1692 8.7184 390.1606 8.6083 390.2442 8.5421 390.3729 8.5119 391.3409 8.5161 391.6425 8.4862 392.0327 8.3929 392.7138 8.4645 393.367 8.5779 393.5395 8.5652 393.7991 8.5629 394.2665 8.6336 394.7893 8.7687 395.2505 8.8064 397.1686 9.1475 398.2531 9.2302 398.799 9.3435 398.9397 9.3823 399.1027 9.498 399.3885 9.5091 399.6184 9.4635 399.9204 9.6388 400.6589 9.7717 401.4235 9.8364 401.9228 9.7327 402.7712 9.4386 403.0275 9.3043 402.9787 9.0114 403.421 8.6855 404.1768 8.5254 405.1135 8.4412 405.6912 8.3691 406.4542 8.3026 406.8257 8.3702 407.0113 8.4222 407.2985 8.482 407.637 8.663 408.1661 9.0776 408.5557 9.2268 408.9029 9.2392 409.1974 9.2614 409.5127 9.3553 409.9622 9.6462 409.6946 9.9047 409.462 10.0014 408.4893 10.1128 408.0593 10.2011 407.6878 10.2559 407.579 10.4714 407.7367 10.5731 408.1413 10.5239 408.6101 10.4993 408.9807 10.456 409.3211 10.3886 409.6148 10.2921 410.3079 10.2421 410.7636 10.1603 411.1709 10.112 411.4536 10.028 411.7444 10.0395 412.0325 10.1209 412.262 10.1139 412.8802 10.1405 413.1669 10.0808 413.4252 10.0768 413.684 10.1219 413.9512 10.1854 414.2208 10.2002 414.5678 10.1631 415.0569 10.0607 415.679 9.951 416.2591 9.916 416.4001 9.9166 416.5185 9.9403 415.936 10.0677 415.0049 10.2383 414.5083 10.405 414.8007 10.4756 416.5539 10.2893 417.3539 10.1505 418.0578 10.0883 418.2316 10.0417 418.8125 9.8269 419.0196 9.7684 419.6423 9.6928 420.4567 9.6102 421.0721 9.5157 421.4909 9.4206 421.8047 9.4105 422.0459 9.4817 422.3604 9.5591 422.6699 9.5402 423.0482 9.4663 423.3128 9.293 423.4672 9.1665 423.7509 9.1236 424.1141 9.0836 424.4067 9.1265 424.8862 9.2191 425.2196 9.2677 425.5085 9.6299 426.1888 9.9484 426.432 10.0334 427.0225 10.0014 427.6623 10.1276 427.9352 10.111 428.196 10.0739 428.4257 10.0987 428.7777 10.0203 429.1417 9.621 429.4753 9.2276 429.7998 9.0564 430 8.9827 430.2491 8.9508 430.6336 8.868 431.1499 8.8442 431.5376 8.8776 432.366 8.9057 433.0431 8.8083 433.8095 8.8257 434.1884 8.7106 434.5983 8.6921 435.1492 8.7919 435.3079 8.862 435.6142 8.9627 435.6874 9.0603 435.7671 9.2389 435.9174 9.2433 436.4315 9.0682 436.7106 9.0362 437.2369 8.7553 437.5175 8.8285 438.1463 8.9485 438.4016 8.9836 438.8988 9.1867 439.1565 9.1434 439.3633 9.0493 439.9818 9.0587 440.5594 9.1417 440.7973 9.2115 441.0936 9.3319 441.2749 9.3603 441.4208 9.327 442.6175 9.3735 443.1316 9.4614 443.5285 9.5687 444.9138 9.6196 445.4455 9.7301 445.7654 9.6778 446.3958 9.6954 446.6533 9.7879 446.8852 9.8913 447.3844 9.9805 447.6623 9.9629 448.0504 9.8917 448.4367 9.7923 448.827 9.7923 449.0101 9.8778 449.0771 10.0883 449.3628 10.0841 449.6812 9.9876 449.9616 10.0119 450.0593 10.1584 449.9129 10.3536 449.5592 10.625 449.4126 10.8538 449.1198 11.0612 449.1687 11.1587 449.4615 11.2075 449.7593 11.0615 450.4161 10.96 450.7603 10.8287 451.3531 10.7802 451.9324 10.8263 452.349 11.0015 453.1118 11.2972 453.1459 11.4028 453.2069 11.5125 453.1815 11.6106 453.0701 11.7246 453.4796 11.8561 453.8394 11.8777 454.1365 11.865 455.3645 11.9921 455.9515 11.9425 456.4801 11.9428 457.1084 11.924 457.5906 11.927 457.9734 11.9489 458.4296 11.9035 458.7947 11.842 458.9778 11.8786 459.0508 12.208 459.0754 12.4032 459.2828 12.4764 459.5025 12.4032 459.6609 12.3056 460.6336 12.3498 461.0213 12.3554 461.3929 12.408 461.7632 12.5314 462.1203 12.4776 462.3357 12.4034 462.6256 12.3544 462.711 12.2323 462.7461 12.0286 462.7355 11.8297 462.9061 11.7931 463.077 11.8297 463.3096 11.9241 463.8306 12.2235 464.2313 12.4172 464.3994 12.5099 464.6435 12.5837 465.1364 12.7632 465.8151 12.8371 466.476 12.9826 467.2475 12.9733 467.8492 13.1564 468.2565 13.0126 468.4733 12.9795 468.785 13.0184 469.1651 13.1436 469.4619 13.1723 470.4844 13.3773 471.0345 13.4514 471.2378 13.6017 471.5073 13.7452 471.5073 13.8916 471.6234 14.078 472.2351 14.2242 472.477 14.3646 472.7679 14.5515 473.3039 15.2564 473.5814 15.38 473.984 15.3679 474.3621 15.5508 474.4842 15.5264 474.4964 15.4533 474.1548 14.9773 474.1304 14.7212 474.3988 14.5748 475.0335 14.5341 475.5199 14.8063 475.9657 14.9717 476.267 15.0013 476.8645 14.9933 477.4245 14.8189 477.8572 14.8826 478.5396 14.9024 479.4312 15.0054 479.816 14.9881 480.5006 15.0316 481.3332 15.1797 481.8044 15.2336 481.9021 15.2947 482.1217 15.3922 482.2314 15.5142 482.3534 15.624 482.6388 15.7495 482.9296 15.7691 483.5037 15.8762 484.7015 16.2034 485.1348 16.2993 485.3912 16.3682 485.5132 16.2829 485.5497 16.1102 485.7694 16.0754 486.0013 16.3316 486.2452 16.5268 486.3551 16.6976 486.101 16.8359 485.7328 16.8074 485.4766 16.8074 485.2083 17.0392 485.1024 17.4367 485.3426 17.4297 485.5255 17.393 485.5621 17.5395 485.4522 17.6615 485.2327 17.7102 484.8553 17.6178 484.3925 17.5529 483.8834 17.5279 483.3944 17.4113 483.197 17.4038 482.9926 17.4098 483.26 17.5333 483.5344 17.6436 484.1562 17.7389 484.9296 17.8876 484.952 17.9787 484.7684 18.0925 484.5373 18.3325 483.8295 18.54 483.418 18.3889 482.9275 18.3539 482.6829 18.4423 482.1967 18.4322 481.232 18.4665 480.8546 18.2783 480.2598 18.1743 480.2793 18.2592 480.787 18.5731 481.3287 18.6443 481.8686 18.7287 481.9976 18.8081 481.7556 18.8815 481.4268 18.8715 481.0113 19.0158 480.2265 18.9917 479.8538 19.0012 479.6348 19.0605 479.4399 19.0826 479.5927 19.1353 479.78 19.2797 479.5134 19.401 479.2649 19.4617 479.0093 19.4332 478.73 19.4793 478.5957 19.3451 478.5883 19.0529 478.4291 18.792 478.2568 18.7808 477.9913 18.8116 477.9036 19.0357 478.0946 19.4216 478.2222 19.5436 478.1199 19.6501 477.9397 19.6855 478.3015 20.0106 478.6139 20.2356 478.8031 20.309 478.8152 20.4188 478.6689 20.4674 478.2516 20.4245 478.0467 20.4461 477.8197 20.4323 477.4349 20.384 477.1074 20.3699 476.7779 20.431 476.5004 20.426 476.2532 20.2235 476.0337 20.1747 475.8506 20.2358 475.7149 20.4788 475.4297 20.5536 475.1403 20.6644 474.9357 20.7848 474.8381 21.2606 474.6672 21.3581 474.4121 21.3539 474.2214 21.3913 473.976 21.353 473.6568 21.3307 472.5932 21.4924 472.7622 21.5771 473.0312 21.5636 473.9665 21.5886 474.3623 21.6753 474.4307 21.8894 474.5869 21.9791 474.8991 22.078 475.143 22.1268 475.2284 22.2 475.1307 22.3463 474.9967 22.4806 474.7039 22.627 474.7892 22.7001 475.1064 22.7245 475.2407 23.054 475.0332 23.2003 475.1309 23.3223 475.1552 23.4443 474.9432 23.5591 474.7771 23.6152 474.7229 23.7348 475.0394 23.8054 475.2761 23.8286 475.6036 23.8408 475.829 23.971 476.1176 24.1687 476.3239 24.3325 476.3398 24.6016 476.5433 24.7643 476.9292 24.8676 476.9171 24.9761 477.1876 25.0093 477.4489 25.0183 477.5466 25.1158 477.4611 25.2378 477.0158 25.3825 476.8357 25.4891 477.278 25.5062 477.7356 25.616 478.32 25.4922 478.6291 25.3573 478.8276 25.2378 478.9749 25.2674 478.9889 25.3922 479.1671 25.6023 479.9219 25.8042 480.3393 25.8674 480.7416 25.9009 481.0969 25.8966 481.1969 26.0179 481.0845 26.1284 480.8092 26.1199 480.359 26.1407 480.0297 26.0479 479.7949 25.9694 477.7448 26.0139 477.2825 26.051 476.7308 26.1714 476.1793 26.2288 475.3382 26.3481 474.9846 26.4213 474.0647 26.1398 473.7644 25.9332 473.6424 25.9211 473.4228 25.9698 473.4108 26.1163 473.8418 26.4347 474.0329 26.5189 474.0329 26.6042 473.9122 26.6471 473.7366 26.6457 473.4721 26.5836 472.9802 26.5333 472.5417 26.6315 472.0011 26.8415 472.1182 26.981 472.2605 27.0592 472.2271 27.1532 471.6227 27.3297 471.4274 27.3391 471.3 27.3729 471.449 27.4377 471.7798 27.4419 471.8124 27.5193 471.6997 27.5817 471.1561 27.6554 471.1901 27.751 471.4875 27.7974 471.8691 27.7794 472.1052 27.8487 472.1063 27.9607 471.8614 28.0215 471.5815 28.0679 469.6283 28.3519 469.3418 28.4288 469.3602 28.5318 470.0401 28.5583 472.0834 28.534 472.2149 28.5685 472.1679 28.6483 472.0544 28.7531 472.1652 28.8266 472.4722 28.8785 472.4819 28.9558 472.3294 28.9879 472.0285 29.0241 471.6932 29.0344 471.7148 29.1175 472.1733 29.1927 472.3249 29.2014 472.3403 29.4856 472.3248 29.6056 472.0804 29.6638 471.9954 29.7031 471.9833 29.8006 472.5891 29.8692 473.5219 30.1729 473.7267 30.1739 474.0946 30.2328 474.6883 30.3876 474.8977 30.4804 475.236 30.5277 475.2819 30.6031 475.4893 30.6698 476.3166 30.8796 476.4241 30.9719 474.6901 31.1478 472.947 31.2769 473.1084 31.3905 474.9905 31.3789 475.4997 31.4528 475.725 31.4306 475.8548 31.3536 476.8686 31.2616 477.9002 31.203 478.2224 31.2453 479.6079 31.5838 480.2502 31.7118 480.66 31.76 480.9568 31.7705 481.1776 31.8212 481.3919 31.9293 481.3385 32.0302 481.4282 32.0765 481.5762 32.0945 481.8494 32.1617 482.1614 32.1386 482.527 32.0611 482.7818 32.0784 483.2401 32.1865 483.0663 32.2714 482.965 32.3106 482.8427 32.3876 482.7323 32.4141 482.3627 32.4325 482.1585 32.4322 481.9496 32.4163 481.9264 32.4726 482.1825 32.5335 482.5522 32.5969 484.9424 32.6481 485.626 32.7584 486.2975 32.6989 486.5994 32.7164 486.8553 32.7532 486.9501 32.8645 487.293 32.9003 487.8188 32.987 488.556 33.0304 489.1423 33.0273 489.8662 33.1457 490.2322 33.1487 490.4543 33.2168 492.0986 33.2568 492.3426 33.3099 492.5299 33.3965 492.9213 33.4346 493.3439 33.4423 495.6538 33.583 496.5219 33.6591 496.7211 33.6546 496.9195 33.6672 497.5398 33.7304 498.1742 33.7646 498.4748 33.8507 499 33.9658 499 41.7779 497.0547 41.7779 495.1094 41.7779 493.1641 41.7779 491.2188 41.7779 489.2734 41.7779 487.3281 41.7779 485.3828 41.7779 483.4375 41.7779 481.4922 41.7779 479.5469 41.7779 477.6014 41.7779 475.6563 41.7779 473.7109 41.7779 471.7656 41.7779 469.8203 41.7779 467.875 41.7779 465.9297 41.7779 463.9844 41.7779 462.0391 41.7779 460.0938 41.7779 458.1484 41.7779 456.2031 41.7779 454.2578 41.7779 452.3125 41.7779 450.3672 41.7779 448.4219 41.7779 446.4766 41.7779 444.5313 41.7779 442.5859 41.7779 440.6406 41.7779 438.6953 41.7779 436.75 41.7779 434.8047 41.7779 432.8594 41.7779 430.9141 41.7779 428.9688 41.7779 427.0234 41.7779 425.078 41.7779 423.1328 41.7779 421.1875 41.7779 419.2422 41.7779 417.2969 41.7779 415.3516 41.7779 413.4063 41.7779 411.4609 41.7779 409.5156 41.7779 407.5703 41.7779 405.625 41.7779 403.6798 41.7779 401.7344 41.7779 399.7891 41.7779 397.8438 41.7779 395.8984 41.7779 393.9531 41.7779 392.0078 41.7779 390.0625 41.7779 388.1172 41.7779 386.1719 41.7779 384.2266 41.7779 382.2813 41.7779 380.3359 41.7779 378.3906 41.7779 376.4453 41.7779 374.5 41.7779 372.5547 41.7779 370.6094 41.7779 368.6641 41.7779 366.7188 41.7779 364.7734 41.7779 362.8281 41.7779 360.8828 41.7779 358.9375 41.7779 356.9922 41.7779 355.0469 41.7779 353.1016 41.7779 351.1563 41.7779 349.2109 41.7779 347.2656 41.7779 345.3203 41.7779 343.375 41.7779 341.4297 41.7779 339.4844 41.7779 337.5391 41.7779 335.5938 41.7779 333.6484 41.7779 331.7031 41.7779 329.7578 41.7779 327.8125 41.7779 325.8672 41.7779 323.9219 41.7779 321.9766 41.7779 320.0313 41.7779 318.0859 41.7779 316.1406 41.7779 314.1953 41.7779 312.25 41.7779 310.3047 41.7779 308.3594 41.7779 306.4141 41.7779 304.4688 41.7779 302.5234 41.7779 300.5781 41.7779 298.6328 41.7779 296.6875 41.7779 294.7422 41.7779 292.7969 41.7779 290.8516 41.7779 288.9061 41.7779 286.9609 41.7779 285.0156 41.7779 283.0702 41.7779 281.125 41.7779 279.1797 41.7779 277.2344 41.7779 275.2889 41.7779 273.3438 41.7779 271.3984 41.7779 269.4531 41.7779 267.5078 41.7779 265.5625 41.7779 263.6172 41.7779 261.6719 41.7779 259.7266 41.7779 257.7813 41.7779 255.8359 41.7779 253.8906 41.7779 251.9453 41.7779 250 41.7779 248.0547 41.7779 246.1094 41.7779 244.164 41.7779 242.2187 41.7779 240.2734 41.7779 238.3281 41.7779 236.3827 41.7779 234.4374 41.7779 232.4922 41.7779 230.5469 41.7779 228.6016 41.7779 226.6563 41.7779 224.7109 41.7779 222.7656 41.7779 220.8203 41.7779 218.875 41.7779 216.9297 41.7779 214.9843 41.7779 213.0391 41.7779 211.0938 41.7779 209.1484 41.7779 207.2031 41.7779 205.2578 41.7779 203.3125 41.7779 201.3672 41.7779 199.4219 41.7779 197.4766 41.7779 195.5313 41.7779 193.5859 41.7779 191.6406 41.7779 189.6952 41.7779 187.75 41.7779 185.8047 41.7779 183.8594 41.7779 181.9141 41.7779 179.9688 41.7779 178.0234 41.7779 176.0781 41.7779 174.1328 41.7779 172.1875 41.7779 170.2422 41.7779 168.2969 41.7779 166.3516 41.7779 164.4063 41.7779 162.4609 41.7779 160.5156 41.7779 158.5703 41.7779 156.625 41.7779 154.6797 41.7779 152.7344 41.7779 150.7891 41.7779 148.8438 41.7779 146.8984 41.7779 144.9531 41.7779 143.0078 41.7779 141.0625 41.7779 139.1172 41.7779 137.1719 41.7779 135.2266 41.7779 133.2813 41.7779 131.3359 41.7779 129.3906 41.7779 127.4453 41.7779 125.5 41.7779 123.5547 41.7779 121.6094 41.7779 119.6641 41.7779 117.7188 41.7779 115.7734 41.7779 113.8281 41.7779 111.8828 41.7779 109.9375 41.7779 107.9922 41.7779 106.0469 41.7779 104.1016 41.7779 102.1563 41.7779 100.2109 41.7779 98.2656 41.7779 96.3203 41.7779 94.375 41.7779 92.4297 41.7779 90.4844 41.7779 88.5391 41.7779 86.5938 41.7779 84.6484 41.7779 82.7031 41.7779 80.7578 41.7779 78.8125 41.7779 76.8672 41.7779 74.9219 41.7779 72.9766 41.7779 71.0313 41.7779 69.0859 41.7779 67.1406 41.7779 65.1953 41.7779 63.25 41.7779 61.3047 41.7779 59.3594 41.7779 57.4141 41.7779 55.4688 41.7779 53.5234 41.7779 51.5781 41.7779 49.6328 41.7779 47.6875 41.7779 45.7422 41.7779 43.7969 41.7779 41.8516 41.7779 39.9063 41.7779 37.9609 41.7779 36.0156 41.7779 34.0703 41.7779 32.125 41.7779 30.1797 41.7779 28.2344 41.7779 26.289 41.7779 24.3438 41.7779 22.3984 41.7779 20.4531 41.7779 18.5077 41.7779 16.5624 41.7779 14.6171 41.7779 12.6719 41.7779 10.7266 41.7779 8.7813 41.7779 6.8359 41.7779 4.8906 41.7779 2.9453 41.7779 1 41.7779 1 41.2024 1 40.8014 1 39.8248 1 38.8482 1 37.8718 1 36.8953 1 35.9188 1 34.9423 1 33.9658 3.2279 33.9463 3.6712 33.9668 4.1396 34.0261 5.17 34.0318 6.1335 34.0582 6.3848 34.1369 6.7068 34.1854 7.3896 34.1431 7.935 34.1233 8.3826 34.1195 12.4766 34.2297 16.6762 34.4251 17.5328 34.4873 18.3025 34.6327 19.1063 34.6127 23.8752 34.7256 24.6088 34.726 27.5311 34.8442 32.6403 35.1196 33.0791 35.1286 33.5649 35.1201 33.3108 34.9726 32.8329 34.8382 32.1888 34.7416 32.6097 34.7124 33.5227 34.7096 33.341 34.6409 32.8356 34.6015 31.0136 34.5557 23.7302 34.2108 23.5685 34.1892 23.4667 34.1611 23.2758 34.1302 22.9754 34.0956 21.865 34.0761 21.5628 34.0464 21.4174 34.0068 21.4943 33.9906 21.5769 33.9976 23.2728 33.9672 23.4582 33.9279 23.4686 33.902 23.3804 33.8813 23.0889 33.8585 22.4025 33.7437 22.1857 33.6933 22.2994 33.6132 22.4382 33.5784 22.9619 33.5535 23.1177 33.501 23.0186 33.4049 21.818 33.2109 21.0081 33.1428 20.4749 33.1892 19.4682 33.1917 18.2185 33.2178 17.875 33.1901 17.5271 33.1135 17.1195 32.977 16.9121 32.9418 16.5141 32.8283 15.9847 32.7183 13.1902 32.4508 12.7038 32.3779 9.2087 31.9579 9.062 31.8855 8.9736 31.8104 10.5849 31.9796 10.8887 31.981 11.2465 31.9359 11.5243 31.9482 11.8946 31.9057 12.3139 31.8851 13.4067 32.0172 15.6069 32.2289 16.1944 32.304 16.507 32.356 16.7648 32.3749 17.0222 32.4126 17.3358 32.3911 17.5243 32.4095 17.9814 32.3968 20.0666 32.3738 20.8935 32.3942 21.8667 32.4973 22.242 32.6667 22.517 32.743 23.0525 32.6836 23.5021 32.6121 24.363 32.5513 24.6383 32.5762 25.1057 32.6641 25.6271 32.814 27.844 32.7733 28.7724 32.7805 29.4353 32.8475 31.8493 32.6235 32.224 32.5753 32.7782 32.4203 32.3245 32.3706 32.0016 32.3553 31.8767 32.2752 32.0947 32.2436 32.7914 32.2001 34.1488 32.1332 34.9478 32.0695 35.3755 31.9002 37.2125 31.6387 37.7986 31.5237 38.3364 31.3347 37.129 30.957 35.9742 30.6308 36.3421 30.5296 36.7059 30.4507 36.8818 30.3883 37.0266 30.298 36.6456 30.1916 36.2955 30.1127 35.7109 30.0354 33.5186 29.8509 32.7717 29.7709 33.0725 29.6489 33.4693 29.5539 34.3091 29.514 39.6852 29.3695 45.0969 29.1922 45.2342 29.1022 44.5156 28.9975 43.9052 28.9718 43.6798 28.9402 43.5964 28.8735 43.5872 28.7819 43.5176 28.7665 43.2904 28.757 42.3163 28.6522 42.1103 28.6107 41.786 28.5125 41.704 28.4354 41.8976 28.238 42.1947 28.1536 42.7139 28.1089 43.0843 28.0927 44.2069 28.0956 44.6469 28.0713 44.828 28.0443 44.7966 27.9499 44.6715 27.9064 44.667 27.8486 44.8566 27.8168 45.0878 27.8184 45.1519 27.7479 45.0225 27.6361 44.6892 27.5746 43.8122 27.4715 41.8213 27.3175 41.0497 27.1986 40.6072 27.1069 40.2367 27.0022 39.8667 26.9509 39.6069 26.897 39.6594 26.8294 39.5429 26.7231 39.3965 26.7049 38.7631 26.7493 37.634 26.725 36.2505 26.6272 35.293 26.5141 34.0415 26.2095 33.5508 26.0583 33.9124 25.9523 34.311 25.8854 35.9756 25.7302 36.2229 25.6759 36.5613 25.5378 36.0052 25.4796 35.5327 25.4849 35.1109 25.445 33.4126 25.4369 32.4476 25.4558 31.6435 25.2817 31.0379 25.1113 30.8704 25.0242 30.7411 24.8728 30.9472 24.6466 31.1152 24.4845 31.0924 24.2862 31.1379 24.0135 31.4291 23.9223 31.6518 23.9056 32.1729 24.116 32.624 24.131 33.2764 24.0907 33.6906 23.9825 33.9078 23.9423 34.3112 23.9317 35.0869 23.9805 35.4426 23.9614 35.8393 23.9717 37.0912 24.11 37.3642 24.1754 37.5116 24.2251 37.5573 24.2984 37.7128 24.3716 38.2435 24.4082 39.7356 24.3669 40.1221 24.3852 41.177 24.5895 42.0773 24.8079 42.3833 24.8626 42.8905 24.8992 43.0693 24.8671 43.2276 24.785 43.7091 24.6851 44.7964 24.5585 45.0513 24.4356 44.9073 24.3669 44.493 24.2959 44.2369 24.2709 44.0997 24.1885 44.106 24.076 44.1911 23.969 44.4748 23.9414 44.9951 24.0884 45.6399 24.2246 45.8665 24.2461 46.0382 24.2397 46.3633 24.1915 46.7502 24.1556 47.493 24.4497 47.9315 24.4694 48.4799 24.4713 48.5858 24.4259 48.518 24.3471 48.4292 24.2642 48.3179 24.2526 48.299 24.1741 48.5388 24.1022 48.7033 24.0717 48.6376 24.0198 48.3748 23.939 48.221 23.9263 48.079 23.8912 48.1247 23.8362 48.3012 23.8128 48.5462 23.7321 48.4681 23.6363 48.482 23.5148 48.3785 23.4489 47.8031 23.3225 46.959 23.1142 46.1791 23.0192 44.4352 23.0951 43.8199 23.0463 43.4135 22.9923 42.9783 22.9181 43.4891 22.8433 44.0288 22.7887 44.1872 22.7424 44.3927 22.6451 44.6317 22.5759 44.8236 22.5573 45.46 22.5938 46.9027 22.8527 47.2069 22.88 48.1914 22.9997 48.4665 23.0059 48.8051 22.9788 48.5281 22.8633 48.2264 22.7816 47.5035 22.5507 47.5858 22.4409 48.0503 22.2589 49.2707 22.2452 49.8022 22.1805 50.4948 22.0413 51.3889 21.809 52.1527 21.7812 53.1104 21.7085 53.4364 21.7623 54.2504 21.9845 54.7638 22.0614 54.9376 22.068 55.1239 22.0613 54.641 21.7846 54.9518 21.7488 55.3522 21.7178 55.6818 21.6481 55.9269 21.5909 56.7606 21.3238 57.5108 21.251 59.6282 21.134 60.3586 21.2406 60.9677 21.2531 61.1065 21.2223 61.2277 21.079 61.5515 20.8026 61.8251 20.7048 62.7491 20.6012 63.4708 20.6063 63.99 20.7198 64.4713 20.7938 64.9151 20.8283 65.3598 20.8245 66.0282 20.7613 66.9141 20.738 67.3317 20.7053 67.8059 20.7679 68.9805 20.7887 69.8961 20.8781 70.456 20.8792 71.2204 20.7927 71.6321 20.7807 73.1223 20.641 74.2887 20.6115 75.1688 20.6733 76.5944 20.6347 78.0344 20.6639 78.6196 20.7155 81.8642 20.6836 84.4468 20.5516 84.7993 20.5059 85.3523 20.3625 85.6559 20.2302 85.8595 20.1894 86.2935 20.1739 87.0348 20.2035 88.0555 20.3007 88.9343 20.2645 90.6087 20.3203 90.7712 20.2756 90.9291 20.0265 91.2058 19.6303 91.4372 19.5118 91.8214 19.5423 92.9799 19.769 93.0063 19.8652 92.8884 19.9337 92.6962 19.9611 92.6413 20.1534 92.7969 20.2082 93.055 20.1915 93.2227 20.2744 92.857 20.4191 92.6 20.5012 92.4335 20.5376 92.3211 20.8122 92.1655 20.9037 92.1472 21.0043 92.3943 21.0043 92.6423 20.9632 92.8625 20.9515 93.5568 20.8796 94.8315 20.7973 95.249 20.7544 95.4869 20.7419 95.6415 20.6848 95.4281 20.55 95.3589 20.4369 95.4873 20.3434 95.4509 20.1809 95.3346 20.0192 95.5785 19.8971 95.8043 19.9238 96.2008 19.9063 96.4226 19.9649 96.7676 20.0181 97.0947 20.0457 97.4085 20.1534 97.5155 20.388 97.4177 20.6291 97.0975 20.803 96.4949 20.962 95.8093 21.214 95.9537 21.3336 96.3059 21.2934 97.8472 21.3049 98.8402 21.2854 99.4625 21.3153 100.248 21.3788 100.8701 21.4743 101.6143 21.4921 102.0772 21.4574 102.5106 21.5052 104.1975 21.3028 104.8858 21.1887 105.2787 21.2456 105.9125 21.1964 106.2698 21.2404 106.9289 21.1695 107.3492 21.1611 107.833 21.1913 109.3038 21.2056 109.4148 21.3362 109.8632 21.5355 110.2289 21.613 110.6896 21.5802 111.0256 21.5183 111.5521 21.5418 112.315 21.4569 113.0774 21.4824 113.3926 21.4681 113.5401 21.4128 113.6616 21.2919 113.4273 21.2242 112.7621 21.138 112.1482 20.9586 111.8761 20.9211 111.4397 20.9435 111.2337 20.9109 111.0119 20.8529 111.3002 20.7845 111.6491 20.562 111.5026 20.3586 111.3372 20.3159 110.9323 20.3224 110.4468 20.3946 110.2513 20.3446 109.9351 20.318 109.8092 20.1304 109.4717 19.7794 109.2937 19.6789 108.7546 19.5876 108.2902 19.5434 107.8397 19.4853 107.7065 19.3467 107.794 19.156 108.3319 19.1155 108.8493 19.135 109.1374 19.1695 109.4708 19.1852 109.8535 19.2245 110.1032 19.2793 110.3035 19.3103 110.6737 19.3111 111.9695 19.2589 112.1423 19.223 112.3016 19.1552 112.575 19.14 112.826 19.1492 113.1937 19.1082 112.7729 19.0526 112.3197 18.9477 111.6379 18.8196 111.063 18.7512 110.0213 18.7025 109.4897 18.7187 109.1546 18.6933 107.9662 18.7067 107.6428 18.6572 107.4113 18.5181 107.091 18.1871 106.9979 18.0122 107.217 17.9475 107.3644 17.8771 107.7161 17.8702 108.2294 17.8971 108.398 17.931 108.5237 18.0345 108.3979 18.1402 108.2332 18.1952 108.3338 18.2453 108.8601 18.2602 109.1193 18.2917 109.341 18.3041 109.8243 18.2564 110.5316 18.2367 110.8871 18.2842 111.3087 18.3199 111.9285 18.2626 114.1448 18.2936 114.4162 18.3087 114.6844 18.4035 114.9161 18.4626 115.1576 18.4374 115.8779 18.5483 116.2651 18.6343 116.6546 18.6794 116.9895 18.6906 117.3652 18.6692 117.8512 18.5967 118.256 18.5673 118.5424 18.5933 119.1554 18.6079 119.6261 18.6957 119.9879 18.6594 120.3734 18.5602 121.5874 18.4905 122.3999 18.5096 123.8834 18.6875 124.226 18.7042 124.9039 18.5993 125.1213 18.4269 125.0913 18.2322 125.2891 18.186 125.4513 18.2076 125.7522 18.0727 126.1607 18.0842 126.4113 18.11 126.566 18.0218 126.7074 17.8383 127.1877 17.8243 127.5378 17.851 127.9982 17.9688 127.9976 18.0671 127.8078 18.172 127.491 18.4297 127.6865 18.5795 127.9831 18.5664 128.3547 18.596 128.8083 18.5319 129.0952 18.5283 129.5975 18.7523 129.9391 18.7658 130.2004 18.7521 131.0599 18.5512 131.308 18.5285 131.6113 18.621 132.0562 18.8345 132.4427 18.9573 133.0097 19.0329 133.5037 19.0551 134.0818 19.1552 134.402 19.2393 135.1254 19.2411 135.4389 19.2758 136.3128 19.448 137.1116 19.3635 137.5229 19.284 137.7243 19.1376 137.6236 18.9181 137.587 18.6984 137.706 18.607 137.9164 18.5886 138.868 18.8357 138.8079 18.689 138.7264 18.574 138.4837 18.3781 138.5203 18.2318 138.7216 18.186 139.1234 18.2629 139.5989 18.3017 139.9949 18.3866 140.7669 18.6949 141.0124 18.9637 141.5358 19.0316 141.9006 19.0195 142.3136 18.9752 142.8691 18.9378 143.2958 18.9486 143.6902 18.8997 143.8091 19.0462 143.4377 19.2566 143.2967 19.3939 143.4157 19.4305 143.639 19.3978 143.8223 19.3548 144.4638 19.3769 144.9826 19.2815 145.4269 19.2466 145.8446 19.1464 146.1897 19.1552 146.4499 19.173 146.8116 19.2522 147.1557 19.2088 147.3604 19.2249 147.6388 19.2308 149.1146 18.8824 149.4491 18.8885 149.8732 18.8692 150.408 18.7873 150.8184 18.7511 151.1571 18.7531 151.7596 18.6263 152.7203 18.6418 153.2101 18.576 154.1596 18.4974 154.7977 18.4087 155.9329 18.1736 156.3939 18.0339 156.8923 17.7248 157.2066 17.4156 157.555 17.0045 157.3835 16.7373 157.2003 16.6196 157.0459 16.4906 156.6798 16.2248 156.5836 15.8897 156.6187 15.5761 156.4889 15.2812 156.3591 15.0619 156.0876 14.6961 155.7595 14.4585 155.3754 14.14 155.3749 13.8488 155.2834 13.6201 155.0514 13.4576 154.954 13.3273 155.131 13.3003 155.2949 13.2606 155.7385 13.2102 156.8024 13.2998 156.8957 13.1687 157.1639 13.0726 157.3514 12.9522 157.2873 12.7691 157.0572 12.694 156.7764 12.5375 156.903 12.4122 157.1317 12.4122 157.2416 12.275 157.155 12.1412 157.2599 11.9729 157.464 11.7578 157.6025 11.6787 157.3477 11.5491 157.1094 11.3801 157.1691 11.2494 157.2872 11.1129 157.4337 10.9208 157.635 10.7836 157.7631 10.7378 157.7248 10.692 157.423 10.6428 157.1447 10.6338 156.6431 10.7194 156.5634 10.7024 156.5354 10.6585 156.5063 10.5647 156.5553 10.3352 156.6342 10.1188 156.7073 10.0883 156.903 10.0607 157.0951 9.896 157.269 9.8868 157.3788 9.9417 157.4154 10.1613 157.4742 10.2117 157.452 10.3168 157.5435 10.3534 157.6524 10.2844 157.8562 10.2513 157.937 10.326 158.0102 10.3626 158.0468 10.2986 158.0208 10.1208 157.9874 10.0492 157.9623 9.9341 158.0054 9.8799 158.0572 9.7901 157.9713 9.6041 158.0033 9.5337 158.1869 9.4217 158.2759 9.3983 158.4484 9.399 158.764 9.4725 158.911 9.4783 159.0231 9.4439 159.0901 9.3724 159.1448 9.1365 159.0102 9.0533 159.0119 8.9778 159.0908 8.9315 159.2294 8.7665 159.44 8.7583 159.6457 8.7729 159.8454 8.741 159.7761 8.6741 159.7133 8.5715 159.938 8.5212 160.0851 8.5051 160.4683 8.5694 160.618 8.6058 160.7552 8.5235 160.7095 8.4411 160.563 8.3953 160.5356 8.3222 160.5722 8.2306 160.8101 8.2764 160.8644 8.259 160.9271 8.1762 160.8901 8.1366 160.8595 8.0823 161.1714 8.0716 161.2177 8.0501 161.2838 7.9853 161.3755 7.9621 161.6573 7.9652 161.7183 7.9314 161.7462 7.8606 161.5939 7.8426 161.3957 7.7732 161.3683 7.581 161.414 7.4437 161.5878 7.3248 161.7983 7.2424 162.1831 7.3136 162.4846 7.2973 162.6036 7.3705 162.7683 7.3889 162.8049 7.3065 162.7315 7.2347 162.6842 7.1165 163.1617 6.9771 163.3141 6.999 163.5036 6.9656 163.4362 6.8581 163.5369 6.7208 163.6741 6.7026 163.7656 6.8215 163.8968 6.8459 164.0402 6.8181 164.3958 6.6779 164.5703 6.6564 164.7427 6.6492 164.9243 6.5675 164.9665 6.4707 165.0689 6.4036 165.3765 6.3142 165.5031 6.2482 165.7735 6.0199 165.7245 5.962 165.8046 5.9143 166.6165 5.7075 167.014 5.6877 167.6776 5.5647 168.0824 5.4169 168.3329 5.3567 168.5603 5.1928 168.8349 5.1686 169.4685 5.0537 169.9492 4.8704 170.611 4.7424 170.9172 4.7542 171.0439 4.7925 171.1214 4.9452 Z M 187.442 26.301 187.6233 26.3058 188.3499 26.292 189.0764 26.2953 189.5178 26.3116 189.6488 26.3499 189.7637 26.4271 189.8933 26.5484 190.0136 26.68 190.147 26.7884 190.2254 26.9778 190.3525 27.0469 190.5646 27.2227 190.5932 27.3638 190.5305 27.6712 190.4255 27.7959 190.1469 27.9165 189.8308 27.9037 189.6863 27.91 189.5433 27.9324 189.49 27.9501 189.4678 27.9745 189.8388 28.0782 189.8819 28.1163 189.889 28.1606 189.8397 28.1924 189.7864 28.2109 181.9573 28.8353 181.6489 28.8686 181.3456 28.9314 181.2465 28.988 181.1473 29.0309 175.0752 29.1498 175.0204 29.1411 174.9662 29.1177 174.8148 28.9979 174.786 28.8088 174.8198 28.7338 175.1207 28.6606 175.2379 28.6205 175.7481 28.3385 176.0161 28.2075 176.1384 28.0966 176.204 28.1044 176.4393 28.1687 176.6094 28.1882 176.95 28.1618 177.2826 28.0831 177.429 28.0382 177.5726 28.0538 177.599 28.1205 177.6556 28.1414 178.466 27.932 179.1957 27.6967 179.9143 27.4298 180.2778 27.2706 180.364 27.2261 180.4254 27.1572 180.375 27.0904 180.3095 27.0306 180.253 27.0072 180.1917 26.9961 179.8193 26.9538 179.9355 26.8848 180.0403 26.8011 180.1136 26.7072 180.1384 26.5929 180.1227 26.5349 180.1382 26.4935 180.308 26.456 180.4214 26.3998 180.4986 26.3322 180.3693 26.3114 180.3113 26.2591 180.4264 26.1422 180.5295 26.0167 180.6374 25.9496 180.9167 25.8188 181.7268 25.4872 182.0179 25.3092 182.1043 25.2451 184.0259 24.9583 184.3422 24.9291 184.9419 24.8897 185.2245 24.8824 186.01 24.9095 186.3761 24.9399 187.0165 25.0154 187.9548 25.1633 188.311 25.2281 188.6632 25.3079 189.0033 25.4108 189.3346 25.537 189.3981 25.5758 189.4313 25.6447 189.4422 25.7121 189.4262 25.7779 189.3377 25.9124 189.2064 26.006 187.6562 26.0944 187.4552 26.1298 187.3422 26.2029 187.2626 26.2739 187.442 26.301 Z M 167.3681 28.4222 167.313 28.7181 167.3163 28.8543 167.2414 28.9605 167.1019 29.0172 166.8276 29.1091 166.629 29.1653 166.1938 29.2577 164.201 29.176 163.3058 29.1002 162.9325 29.0055 162.8693 28.9622 162.7566 28.8141 162.6508 28.7689 161.861 28.7996 161.3767 28.8458 161.2917 28.87 161.1624 28.9614 161.0956 28.9816 159.8027 28.7864 158.4458 28.5575 157.8819 28.4408 157.6852 28.3868 157.6333 28.3526 157.7578 28.3064 157.886 28.2761 158.0323 28.2565 158.1785 28.2536 158.2908 28.2708 158.3993 28.3033 158.4681 28.425 158.5403 28.4458 158.7276 28.4779 163.5157 28.4625 163.9126 28.4561 164.7406 28.4222 165.1839 28.3701 165.3483 28.3011 164.9461 28.2834 164.7902 28.2309 164.6562 28.132 164.625 28.042 164.6702 27.9734 165.1984 27.9403 165.276 27.9161 165.1377 27.8777 165.142 27.7895 165.4576 27.7555 165.5803 27.6817 166.1993 27.5878 167.1752 27.6375 167.4062 27.7736 167.3425 27.8603 167.2965 27.9476 167.2936 28.0858 167.6942 28.1052 167.8192 28.1548 167.9383 28.2175 167.7932 28.2195 167.6501 28.2338 167.5362 28.2995 167.4381 28.3823 167.3681 28.4222 Z M 153.0959 12.991 153.0569 13.1596 153.2866 13.0992 153.3673 13.112 153.5712 13.1733 153.9732 13.5362 154.0617 13.6512 154.2266 13.987 154.4238 14.2377 154.9227 14.6773 155.1676 14.9171 155.2977 15.0574 155.3098 15.2441 155.4686 15.297 155.4989 15.374 155.5489 15.6304 155.5841 15.9297 155.6182 16.4993 155.5999 16.6334 155.3884 16.8451 155.296 16.9975 155.1828 17.0975 155.0479 17.1696 154.3435 17.4695 154.2604 17.6184 153.0794 17.7456 152.4149 17.7986 152.155 17.7412 151.8899 17.7275 151.5639 17.7467 150.6128 17.7639 149.8917 17.8059 149.8006 17.7901 149.7362 17.7333 149.6657 17.695 149.4729 17.7038 149.3205 17.6825 149.1721 17.6357 149.0069 17.5491 148.9372 17.4985 148.8972 17.4436 149.2175 17.3002 149.3798 17.2675 149.5448 17.26 149.8798 17.2893 150.2133 17.3378 150.946 17.376 151.9596 17.3863 152.2383 17.3724 152.575 17.3256 152.8817 17.1945 152.732 17.1437 152.5799 17.1115 152.4291 17.1054 152.2794 17.1141 151.8592 17.1963 151.5375 17.2447 151.2126 17.2729 150.8683 17.225 150.5491 17.0908 150.5417 17.0465 151.6358 16.9445 151.7358 16.9272 151.934 16.862 151.9983 16.8044 152.031 16.7501 151.2923 16.6531 151.1406 16.6552 150.9887 16.6727 150.6543 16.633 150.3364 16.5193 150.0416 16.3831 149.9343 16.3707 149.8298 16.4123 149.1168 16.7711 149.0553 16.7738 148.7861 16.7474 148.4496 16.6762 148.1411 16.6511 147.9432 16.6704 147.8687 16.6999 148.0614 16.7818 148.225 16.8531 148.2737 16.9104 147.7727 17.0902 147.6394 17.1143 147.4217 17.0991 147.3443 17.0763 147.1882 16.9799 147.0395 16.9563 146.7159 16.9761 146.5463 16.9674 146.3769 16.9255 146.2166 16.8635 146.0705 16.8296 145.8919 16.7604 145.7616 16.7112 145.7206 16.6414 145.7337 16.5755 145.7924 16.5368 145.8006 16.4998 145.7615 16.4363 145.786 16.3886 145.8453 16.3468 146.1121 16.2644 146.4393 16.2477 146.753 16.3503 146.959 16.3835 147.0542 16.3859 147.0913 16.3789 147.1169 16.3509 147.1076 16.2976 147.0519 16.1978 147.0449 16.1282 147.1146 16.0701 147.2074 16.0493 147.3068 16.0333 147.3744 16.0259 147.5767 16.0639 147.7203 16.1022 148.0148 16.2113 148.2623 16.2888 148.354 16.2966 148.4258 16.2692 148.4908 16.2264 148.1975 16.1159 148.163 16.0447 148.1805 15.9813 148.361 15.9455 148.4669 15.9404 148.9894 16.0061 149.2642 16.0267 149.5401 16.0333 150.1072 15.9596 149.8051 15.8765 149.1474 15.8048 149.0242 15.7541 148.9331 15.6717 149.4172 15.597 149.9071 15.5996 150.7894 15.6968 151.0855 15.6504 151.3579 15.5111 151.5149 15.475 152.1415 15.4858 152.6401 15.4219 152.72 15.4285 152.7964 15.4473 153.2822 15.6812 153.3468 15.67 153.3948 15.6242 153.4117 15.5427 153.4122 15.4593 153.4013 15.3767 153.3385 15.3245 153.2591 15.3306 153.1763 15.3537 153.0366 15.3337 152.8952 15.2894 152.7535 15.2694 152.2528 15.2441 151.8982 15.1998 151.715 15.167 151.5445 15.0991 151.5204 15.0252 151.6988 14.8558 152.3891 14.6718 152.7128 14.6125 153.0416 14.5979 153.2008 14.611 153.5788 14.6865 153.6372 14.6831 153.6946 14.6634 153.3285 14.5349 153.0036 14.4367 152.8429 14.3624 152.7134 14.3336 152.1713 14.3057 151.8854 14.3789 151.7505 14.3913 151.6166 14.3846 150.8204 14.2065 150.7756 14.1871 150.6629 14.1199 150.6025 14.0703 150.567 13.9869 150.583 13.9013 150.6047 13.8458 150.723 13.6278 150.7898 13.4543 150.7556 13.3142 150.6302 13.2368 150.4509 13.1841 150.2884 13.099 150.2418 13.0412 150.213 12.9737 150.2093 12.8879 150.2497 12.8125 150.32 12.7308 150.4136 12.689 150.5812 12.6478 151.2417 12.5545 152.5898 12.4375 152.7352 12.4973 152.9532 12.6228 153.0208 12.6732 153.0937 12.9225 153.0959 12.991 Z M 114.3073 16.7584 114.19 16.905 114.201 17.0496 114.5397 17.0407 114.6878 16.7672 115.0077 16.717 115.1617 16.8798 115.0116 17.011 115.0895 17.0858 115.18 17.1399 115.3391 17.141 115.4819 17.0618 115.5462 17.0053 115.6025 16.9422 115.6939 16.802 115.9973 16.6733 116.6697 16.653 117.0271 16.7349 116.7875 16.9418 116.211 17.0615 115.8458 17.1864 115.9686 17.2211 116.0951 17.2384 116.2074 17.2328 116.5328 17.1666 117.3296 17.0482 117.6352 16.9578 117.7404 16.9741 117.7402 17.1215 117.8487 17.2235 117.7874 17.4465 117.4411 17.4867 117.0919 17.5072 117.1802 17.6053 117.1587 17.6462 117.1284 17.6779 116.2418 17.637 116.0879 17.6513 115.9345 17.6794 115.7784 17.6732 115.4704 17.6 115.311 17.6012 114.9927 17.637 114.6708 17.65 114.2073 17.6486 113.8692 17.637 113.5471 17.5569 113.2139 17.5341 112.8441 17.5323 112.4492 17.4419 112.1199 17.4049 111.6469 17.3116 111.5227 17.2765 111.3966 17.2566 111.1722 17.2642 109.4506 17.1225 109.1977 17.1253 109.0337 17.1427 108.8694 17.1353 108.5337 17.0665 108.4662 16.9915 108.5012 16.9239 108.5728 16.8923 108.7228 16.8593 111.112 16.6937 111.3642 16.6483 111.5496 16.6538 111.6872 16.7957 111.8974 16.9432 111.9655 16.9408 112.0334 16.9251 112.2711 16.8032 112.6985 16.8409 112.9364 16.7861 113.099 16.6779 113.582 16.5526 113.8879 16.5772 114.1717 16.6305 114.3073 16.7584 Z M 83.2305 19.3086 83.4769 19.4467 83.568 19.5382 83.6231 19.6311 82.6312 19.8633 82.5903 19.886 82.5418 20.0057 82.5663 20.0325 82.6102 20.0512 82.6133 20.0976 82.5303 20.1127 80.8368 20.2037 80.0449 20.1201 79.9352 20.0639 79.9108 19.9785 80.0013 19.9602 80.1754 19.9486 80.1347 19.9095 80.0226 19.8414 80.0149 19.7831 80.2512 19.6373 80.3692 19.5984 79.9175 19.4616 79.8617 19.4305 79.802 19.4214 79.586 19.4376 79.3711 19.429 79.4463 19.3736 79.5055 19.2846 79.6948 19.2065 79.8327 19.1937 79.9739 19.203 80.6306 19.2057 81.2794 19.2474 81.9287 19.2765 83.0009 19.303 83.2305 19.3086 Z M 75.2437 18.6587 75.6097 18.6983 75.7334 18.7564 75.8983 18.7999 76.0655 18.8239 76.2163 18.8897 76.3068 19.0048 76.3863 19.0409 76.6321 19.1175 76.7182 19.1846 76.7014 19.218 76.2362 19.246 76.0829 19.2349 75.9374 19.2565 75.8938 19.2984 75.8978 19.342 75.9786 19.3721 76.1504 19.4001 76.3192 19.3973 76.6312 19.3632 76.7729 19.3705 76.9328 19.4054 77.0925 19.4106 77.5061 19.2997 77.6125 19.2799 77.7197 19.2861 78.2889 19.4164 78.4085 19.4806 78.3276 19.5172 78.2567 19.569 78.2877 19.6061 78.5603 19.6572 78.6725 19.725 78.7427 19.7516 78.7281 19.8085 78.6897 19.8789 78.6925 19.9583 78.5533 20.0004 78.4909 20.0003 78.1908 19.9582 77.259 19.9342 76.9595 19.8984 76.5012 19.7428 76.3234 19.7328 76.1389 19.6951 75.8565 19.5833 75.3623 19.4952 75.0475 19.3862 75.056 19.2951 75.0137 19.2314 74.9552 19.2037 74.894 19.1895 74.7165 19.1669 74.5404 19.1721 74.4527 19.1989 74.3078 19.2668 74.1478 19.2784 74.0239 19.2649 73.9962 19.2497 73.9945 19.0728 73.8574 19.0478 73.7435 18.977 73.7231 18.8809 73.7712 18.7915 73.9464 18.6833 74.1458 18.6699 74.3473 18.6888 74.5519 18.6651 74.8743 18.6486 75.2437 18.6587 Z M 29.9768 27.6797 28.2488 27.731 27.5507 27.686 26.086 27.536 24.0778 27.261 23.5312 27.1742 23.1736 27.1006 22.821 27.0065 22.7437 26.9024 22.7946 26.7532 22.8573 26.633 22.9597 26.5563 23.3897 26.4643 23.6033 26.3632 24.039 26.2583 24.1624 26.1783 24.345 26.1742 24.6927 26.1826 25.0401 26.2056 25.3604 26.231 25.6777 26.277 26.3939 26.4258 26.8912 26.5725 27.6092 26.7449 28.3214 26.9383 28.7171 27.0114 29.1037 27.1195 29.4707 27.2656 29.5431 27.317 29.6957 27.3803 29.7876 27.4444 29.8857 27.4958 29.9789 27.5235 30.0547 27.5797 30.0368 27.6424 29.9768 27.6797 Z M 481.133 24.2411 481.6543 24.3416 483.0236 24.3302 484.1646 24.4251 484.2713 24.5219 483.9456 24.5715 483.4438 24.6999 483.1177 24.7385 482.8462 24.7402 482.286 24.6872 481.5593 24.6934 481.4033 24.7681 481.0514 24.8425 480.6418 24.9733 480.533 24.8668 480.37 24.765 479.9609 24.5534 479.9332 24.5218 480.1568 24.4795 480.2669 24.4099 480.4998 24.3173 480.4732 24.2603 480.2822 24.1957 480.2048 24.1446 480.3338 24.058 480.6244 24.0198 480.9991 24.0541 481.1645 24.1704 481.1342 24.2214 481.133 24.2411 Z M 206.9523 27.6673 207.1373 27.695 207.3369 27.6297 207.3083 27.5669 207.4211 27.4583 207.5868 27.5769 208.6786 27.7016 209.0333 27.821 208.8863 27.8491 208.7765 27.8437 208.4599 27.8577 207.9161 27.9611 207.3319 27.861 206.2946 27.7907 205.9766 27.7379 205.7329 27.5759 206.1754 27.4402 206.2799 27.4546 206.9523 27.6673 Z M 203.0577 27.006 202.8976 27.0568 199.5342 26.9695 199.3689 26.9538 199.4171 26.8516 199.8711 26.8335 200.1336 26.8134 200.4902 26.7688 200.757 26.6899 200.8437 26.6873 202.4251 26.8712 202.974 26.948 203.0398 26.9852 203.0577 27.006 Z M 152.7045 27.5033 152.4023 27.5076 151.8058 27.4957 151.2106 27.4484 151.056 27.4254 150.8334 27.3486 150.7663 27.3078 150.7075 27.2552 150.6994 27.1774 150.86 26.9026 151.1553 26.7411 151.4313 26.6453 152.3009 26.4266 152.4141 26.4019 153.2056 26.2991 153.5157 26.2434 153.9991 26.1286 156.6547 25.6809 157.2639 25.6162 157.5377 25.6632 157.6928 25.7102 157.6113 25.7627 157.2528 25.8907 157.0865 25.9673 156.6513 26.1234 155.7161 26.3842 155.0509 26.581 154.203 26.8537 154.0044 26.9498 153.6004 27.1761 153.6723 27.2787 153.5378 27.4182 153.0058 27.4841 152.7045 27.5033 Z M 169.9797 5.8873 170.0315 5.9062 170.0797 5.8979 170.1247 5.879 170.1678 5.8337 170.3298 5.7672 170.4864 5.7597 170.4347 5.8275 170.8049 5.947 170.7726 6.0427 170.8425 6.119 170.6968 6.1417 170.5773 6.2221 170.6819 6.253 170.7424 6.3204 170.6134 6.3369 170.3466 6.2975 170.2049 6.3069 170.2221 6.2429 170.1771 6.2184 170.0117 6.2306 169.9444 6.3674 169.8915 6.38 169.8327 6.3578 169.8764 6.271 169.8067 6.256 169.7368 6.2576 169.5322 6.3226 169.4705 6.3242 169.3455 6.2479 169.739 6.1475 169.5762 6.0979 169.5423 6.0351 169.5632 5.9474 169.4202 5.9605 169.2797 5.9935 169.2166 5.9992 169.1606 5.9697 169.1788 5.9065 169.2937 5.8049 169.3865 5.6968 169.5652 5.6435 169.6693 5.6017 169.8072 5.584 169.8695 5.5445 170 5.5414 170.0717 5.6305 170.0701 5.6839 170.006 5.7425 169.9797 5.8873 Z M 173.1862 4.6695 173.2717 4.7056 173.6185 4.7042 173.7005 4.7127 173.7694 4.7743 173.8126 4.8781 173.6998 4.9179 173.0954 4.894 172.8789 4.8398 172.7679 4.8423 172.5207 4.9018 172.4185 4.9587 172.0097 5.0344 171.8931 5.0077 171.843 4.9241 171.8343 4.8918 171.8758 4.8697 171.8962 4.8471 171.8887 4.8216 172.0006 4.7532 172.475 4.6468 173.101 4.6069 173.1853 4.6464 173.1862 4.6695 Z M 169.7965 2.9242 169.9751 2.963 170.1291 2.9371 170.2141 2.966 170.2695 3.0437 170.2653 3.0743 170.0341 3.0626 169.8182 3.1534 169.5625 3.1339 169.5284 3.209 169.5825 3.2478 169.5135 3.2813 169.2943 3.2113 169.1211 3.2359 169.0649 3.3583 168.9893 3.3835 168.9449 3.3888 168.8758 3.3576 168.7351 3.3475 168.7218 3.3311 168.6337 3.283 168.3782 3.3363 168.4453 3.2733 168.7852 3.108 168.821 3.0574 169.2141 2.9607 169.3998 2.9815 169.7965 2.9242 Z M 162.6002 6.4623 162.4669 6.6059 162.6695 6.6045 162.8056 6.5528 162.9493 6.5312 163.0761 6.6039 162.8146 6.6579 162.5698 6.7538 162.469 6.8051 162.3591 6.828 162.2167 6.8189 162.0775 6.8284 161.9552 6.9236 161.827 6.9668 161.7849 6.931 161.7373 6.9077 161.4569 6.8759 161.3295 6.8263 161.2125 6.7943 161.0903 6.7777 161.1537 6.6917 161.23 6.6178 161.6505 6.5179 161.6093 6.4866 161.5826 6.4453 161.9171 6.3957 161.9255 6.3439 161.905 6.2869 162.0123 6.2473 162.1111 6.1903 162.1783 6.1732 162.3885 6.181 162.5323 6.2604 162.4755 6.3393 162.6002 6.4623 Z M 163.7827 6.3999 163.6857 6.4555 163.6037 6.4652 163.5305 6.4409 163.4314 6.5241 163.2276 6.4989 163.1519 6.4754 163.2002 6.4652 163.2361 6.4277 163.3438 6.3545 163.5361 6.1633 163.5697 6.1041 163.4168 6.0059 163.3885 5.9737 163.4231 5.9173 163.4795 5.876 163.6089 5.8299 163.7785 5.8314 163.8631 5.868 163.8616 5.9373 164.1524 6.0038 164.1035 6.1372 163.9923 6.2222 163.9765 6.323 163.8132 6.368 163.7827 6.3999 Z M 155.9493 10.619 155.8053 10.7079 155.6911 10.7349 155.587 10.7093 155.4836 10.6993 155.4059 10.731 155.3255 10.8706 155.2323 10.941 155.1304 10.9765 155.0724 10.9623 155.0147 10.9627 154.9184 10.9943 154.8013 11.005 154.6864 10.9923 154.5745 10.9034 154.415 10.7965 154.3835 10.7622 154.359 10.6755 154.3665 10.5889 154.436 10.5204 154.7991 10.2859 154.9185 10.1803 155.0254 10.0602 155.1385 9.9525 155.3567 9.7599 155.4686 9.6889 156.0196 9.488 156.1678 9.4431 156.3329 9.4551 156.3744 9.5602 156.2919 9.6117 156.0269 9.7477 155.976 9.938 155.977 10.0073 156.004 10.0248 156.1048 10.0491 156.1716 10.0761 156.2637 10.1328 156.3652 10.1666 156.1435 10.2659 155.9937 10.316 155.8917 10.3778 155.691 10.4388 155.6081 10.4773 155.7335 10.4918 155.9237 10.5409 155.9755 10.5857 155.9493 10.619 Z M 148.0391 14.9914 148.2554 15.1135 148.0559 15.2116 147.3497 15.3911 146.9351 15.4593 146.5186 15.5131 144.6228 15.6793 144.4914 15.6798 144.3632 15.6577 144.2836 15.6212 144.1591 15.4834 144.1747 15.415 144.3443 15.3497 144.5224 15.3076 144.8188 15.2691 145.9595 15.1815 146.0744 15.1527 146.1671 15.0888 146.1981 15.0127 146.2397 14.9551 146.3142 14.9292 146.3904 14.9297 146.5398 14.9856 146.8176 15.2083 146.9041 15.1775 146.985 15.118 147.0023 14.9244 147.0786 14.9094 147.3221 14.963 147.4749 15.0194 147.4775 14.9106 147.5803 14.8776 147.6917 14.8887 147.8 14.9125 148.0391 14.9914 Z M 146.2678 13.7363 146.5126 13.7703 146.8729 13.9204 146.9895 13.9978 147.0274 14.0431 146.9969 14.0736 146.8332 14.1101 146.704 14.295 146.4591 14.3608 145.8787 14.3194 145.2447 14.2457 145.1925 14.2304 145.1376 14.1656 145.1254 14.0906 145.1993 13.9967 145.3075 13.949 145.7797 13.8917 145.8157 13.8593 145.884 13.766 146.0024 13.7464 146.0613 13.754 146.2678 13.7363 Z M 147.143 18.3989 146.9432 18.5798 146.9106 18.6002 146.7097 18.6436 146.7821 18.6936 146.8372 18.7161 146.8716 18.7734 146.9871 18.8536 147.1269 18.905 147.0079 19.0449 146.8384 19.1084 145.0039 18.7229 144.8622 18.6611 144.7932 18.6151 144.7416 18.5433 144.7333 18.4709 144.7803 18.4132 144.8422 18.381 145.0082 18.3407 145.1784 18.3379 145.5502 18.4134 145.6032 18.4026 145.6728 18.3341 145.8679 18.3325 145.9127 18.2757 145.6421 18.2548 145.4196 18.1972 145.2792 18.1397 145.2387 18.0958 145.7287 18.0143 146.9778 18.1158 147.1692 18.1506 147.2518 18.1953 147.3236 18.2587 147.143 18.3989 Z M 123.8944 18.5148 123.6405 18.5493 123.41 18.5332 123.4936 18.2183 123.623 18.1375 123.5881 18.08 123.3538 17.9219 123.1898 17.7423 123.2695 17.7009 123.6968 17.6366 124.1894 17.649 124.3835 17.7241 124.4441 17.8215 124.4208 17.8917 124.2614 18.0188 124.4262 18.0608 124.4611 18.1474 124.4271 18.253 124.2646 18.3789 124.1188 18.4516 123.8944 18.5148 Z M 481.9058 25.375 481.7325 25.4782 481.5381 25.5239 480.9285 25.4872 480.4993 25.5727 480.0274 25.6033 479.8019 25.5593 479.7033 25.4746 479.6506 25.361 479.6512 25.3205 479.7871 25.3034 480.4178 25.3842 480.6845 25.4533 480.8281 25.4511 481.2074 25.3592 481.5203 25.2428 481.6009 25.1883 481.7054 25.1689 481.8382 25.2102 481.9018 25.334 481.9058 25.375 Z M 389.691 8.1334 389.0898 8.1662 389.042 8.1304 388.8183 8.127 388.7381 8.097 388.7073 8.0307 388.7817 7.9164 388.8996 7.8402 389.0874 7.7619 389.1729 7.7444 389.5554 7.7192 389.8256 7.7529 390.0218 7.8494 390.0749 7.926 390.0464 7.9771 389.691 8.1334 Z M 287.1525 14.64 287.0636 14.6928 286.8088 14.6832 286.6171 14.7324 286.4614 14.7135 285.9741 14.6287 285.9172 14.5202 285.9032 14.4744 285.9425 14.3893 286.3832 14.213 286.5554 14.1965 286.8033 14.221 286.916 14.2711 286.9867 14.3701 287.1768 14.5692 287.1525 14.64 Z M 241.8465 14.8767 241.4841 14.9587 241.4498 14.9228 241.3319 14.8739 241.0941 14.7389 241.3629 14.7293 241.6056 14.6726 241.7392 14.6958 241.7698 14.7107 241.8465 14.8767 Z M 245.4624 14.8512 245.2387 14.8535 245.1718 14.8155 245.1627 14.7883 245.4524 14.5887 245.6103 14.5379 245.9193 14.4997 246.1196 14.5118 246.2463 14.5557 246.2866 14.6331 246.2889 14.7521 246.2124 14.8142 245.4624 14.8512 Z M 158.4598 28.0538 158.3304 28.0588 158.258 28.05 158.1925 28.0212 158.1323 27.9092 157.4492 27.8201 157.3687 27.7699 157.3254 27.6602 157.2098 27.6166 156.3219 27.4207 156.2505 27.3782 156.1979 27.3179 156.365 27.2937 156.7104 27.3379 157.3458 27.3494 157.4809 27.3682 157.6138 27.4038 158.3213 27.4094 158.6804 27.4265 158.8794 27.5832 159.282 27.629 159.337 27.7205 159.3855 27.8829 158.8397 28.0022 158.7147 28.0208 158.4598 28.0538 Z M 156.9544 27.1889 156.7158 27.256 155.71 27.2247 155.3688 27.2046 155.174 27.1678 155.3492 27.0237 155.4846 26.9753 155.611 26.957 155.8883 26.877 156.3287 26.8589 156.6603 26.8712 157.2217 26.9341 157.0774 26.9937 156.9854 27.016 156.8949 27.1078 156.9544 27.1889 Z M 173.6878 1.9677 173.5058 2.0066 173.4368 1.9555 173.406 1.8653 173.3077 1.8096 173.3813 1.7633 174.3718 1.8246 174.3179 1.8561 173.837 1.8961 173.6878 1.9677 Z M 172.7096 5.1704 172.5932 5.2317 172.2866 5.1395 172.208 5.078 172.243 5.0338 172.7299 4.9929 172.8628 5.0133 172.9218 5.1101 172.7096 5.1704 Z M 170.8173 6.5968 170.6987 6.6022 170.5505 6.5601 170.5304 6.4885 170.5332 6.4489 170.6442 6.4197 170.7149 6.415 171.1188 6.3002 171.2956 6.2734 171.2168 6.3408 171.2257 6.4038 171.1624 6.4601 170.8173 6.5968 Z M 172.4504 4.538 172.1751 4.6689 172.0435 4.663 171.7782 4.5655 171.7026 4.5147 171.6837 4.4918 171.8575 4.4048 172.3391 4.4367 172.4479 4.447 172.4525 4.4551 172.4627 4.5051 172.4504 4.538 Z M 170.6324 5.5461 170.6517 5.5704 170.9275 5.5578 171.0061 5.5931 170.8484 5.6407 170.8073 5.6307 170.6745 5.6447 170.2974 5.6103 170.2048 5.5537 170.5422 5.5242 170.6324 5.5461 Z M 164.2366 13.728 164.1155 13.7386 163.9955 13.6101 163.9345 13.4141 163.5469 13.1281 163.448 12.9791 163.5197 12.9433 163.6217 12.9314 163.9028 12.9726 164.0702 13.0265 164.2633 13.145 164.4879 13.2498 164.5326 13.3407 164.5001 13.4414 164.356 13.4673 164.3609 13.5423 164.2747 13.6859 164.2366 13.728 Z M 166.1354 3.8208 166.2028 3.8383 166.8065 3.8052 166.9962 3.9016 167.2081 3.8968 166.6944 4.0772 166.5551 4.0248 166.5106 3.9856 166.4771 3.8989 166.1428 3.9223 166.0359 3.9047 165.899 3.9623 165.6235 3.9855 165.5291 3.9852 165.4094 3.9234 165.4059 3.861 165.6517 3.8646 165.8411 3.7844 165.8943 3.7034 165.9876 3.7253 166.1354 3.8208 Z M 150.4203 13.6956 150.1205 13.7533 149.9233 13.7075 149.3255 13.6217 149.0757 13.4613 149.1041 13.378 149.214 13.3286 149.3955 13.3009 149.7577 13.3545 149.9419 13.4097 150.4203 13.6956 Z M 118.5459 17.7994 118.2798 17.806 118.2058 17.7743 118.2851 17.7086 118.925 17.5949 119.1835 17.5269 119.2219 17.5376 119.2558 17.5596 119.3664 17.6944 119.3773 17.7269 118.5459 17.7994 Z M 105.3892 18.4928 105.2209 18.5562 104.9147 18.5402 104.6768 18.437 104.5792 18.2992 104.5677 18.251 104.633 18.2156 104.7882 18.1812 105.3892 18.4928 Z M 84.624 19.7986 84.3343 19.815 84.2476 19.8116 84.156 19.7806 84.1312 19.7589 84.2813 19.6865 84.4236 19.6546 84.4682 19.6314 84.2731 19.3897 84.4578 19.3823 84.669 19.3347 85.0842 19.3385 85.4397 19.3825 85.5081 19.4168 85.553 19.4774 85.3975 19.6004 85.3023 19.6428 84.7629 19.7515 84.624 19.7986 Z M 73.8106 20.5074 73.6005 20.5322 73.1864 20.441 73.0506 20.3967 72.9333 20.3232 72.8359 20.3076 72.8002 20.291 72.7487 20.0991 72.874 20.078 73.1367 20.1051 73.6438 20.2067 73.9989 20.2343 74.1159 20.3103 73.9958 20.4462 73.8106 20.5074 Z M 25.9086 32.2604 25.4782 32.2922 24.4523 32.23 24.1817 32.1786 24.0347 32.1259 23.7529 32.0791 23.6842 32.0526 23.6836 31.9956 23.6392 31.9609 23.5429 31.9291 23.4995 31.898 23.4156 31.8785 24.7954 31.9091 25.332 31.9567 25.43 31.9892 26.4047 32.1334 26.1376 32.155 25.9086 32.2604 Z M 28.0205 30.1448 27.8768 30.1565 24.1666 29.9968 23.4569 29.9448 23.2853 29.9154 23.2174 29.8884 23.2008 29.8702 23.2301 29.8166 23.3146 29.7777 24.2391 29.7188 25.2685 29.7628 26.5106 29.8782 27.3693 29.9706 27.8133 30.0516 27.9951 30.1138 28.0205 30.1448 Z M 476.8334 20.798 476.6517 20.798 476.5393 20.7567 476.5031 20.6612 476.5094 20.6304 476.8699 20.5161 477.1551 20.4868 477.0026 20.6586 476.9485 20.6874 476.8334 20.798 Z M 475.4392 21.8139 475.1905 21.9925 475.0156 21.9865 474.9178 21.9543 475.096 21.8548 475.2653 21.8127 475.3685 21.8004 475.4392 21.8139 Z M 484.9504 19.0996 484.7644 19.1277 484.5059 19.0395 484.4466 19.009 484.6955 18.8411 484.6762 18.7872 484.7128 18.7415 484.8071 18.706 484.8668 18.7113 485.0097 18.8973 485.1118 18.9743 484.9713 19.0486 484.9504 19.0996 Z M 478.0198 10.7104 477.899 10.7497 477.8241 10.7375 477.7506 10.6546 477.8299 10.5269 477.8007 10.3624 477.8128 10.3216 478.0079 10.4138 478.0426 10.4658 478.1217 10.5418 478.1375 10.5817 478.057 10.6598 478.0198 10.7104 Z M 475.901 9.7154 475.8756 9.7994 475.8078 9.7801 475.71 9.7126 475.6073 9.5486 475.6993 9.5318 475.8124 9.5599 475.8583 9.6412 475.8971 9.6839 475.901 9.7154 Z M 474.9458 9.2397 474.8707 9.3058 474.8073 9.2989 474.5188 9.1324 474.5513 9.0601 474.5112 8.9996 474.5178 8.9455 474.5296 8.927 474.8792 9.1779 474.9458 9.2397 Z M 383.6476 8.629 383.8062 8.6636 384.0888 8.6602 384.191 8.7133 384.2094 8.7723 384.2049 8.8062 384.092 8.8572 383.3458 8.8907 383.2247 8.8365 383.3517 8.6903 383.4914 8.6429 383.6476 8.629 Z M 388.6996 8.8791 388.5176 8.8969 388.4468 8.8599 388.4388 8.8396 388.5746 8.7607 388.7352 8.7349 388.7228 8.8284 388.6996 8.8791 Z M 386.7371 9.2293 386.6066 9.2457 386.4729 9.2065 386.4038 9.1326 386.3918 9.1087 386.6023 9.0902 386.8806 9.1611 386.7371 9.2293 Z M 393.0329 7.8121 392.9498 7.8443 392.7268 7.8251 392.6749 7.7979 392.6552 7.6642 392.6394 7.6277 392.5586 7.5908 392.1911 7.5225 392.1507 7.4283 392.2013 7.3847 392.3351 7.3755 392.6726 7.4598 392.7473 7.5241 392.7347 7.6218 392.7408 7.6534 392.8444 7.7181 393.0075 7.786 393.0329 7.8121 Z M 378.0986 8.3142 377.9175 8.3327 377.7273 8.3128 377.6302 8.2475 377.6099 8.2197 377.6837 8.1737 377.9533 8.1674 378.1434 8.2068 378.186 8.248 378.193 8.2679 378.0986 8.3142 Z M 368.7209 9.8982 368.4826 9.9347 368.4441 9.9148 368.4374 9.8948 368.0797 9.7612 368.0183 9.6529 368.0541 9.58 368.3481 9.5872 368.6986 9.651 368.8805 9.8163 368.7209 9.8982 Z M 369.7162 9.6411 369.5569 9.675 369.4329 9.6689 369.2879 9.5933 369.3509 9.5432 369.4969 9.5129 369.6868 9.5297 369.7368 9.5557 369.8685 9.5729 369.7162 9.6411 Z M 368.0378 9.4259 367.8911 9.4695 367.7717 9.4608 367.6934 9.4154 367.6784 9.387 367.7508 9.2968 367.8112 9.3009 367.8516 9.3486 368.0378 9.4259 Z M 346.7204 16.7657 346.5456 16.944 346.4786 16.9405 346.4081 16.8355 346.4697 16.7715 346.5513 16.7327 346.6884 16.7519 346.7204 16.7657 Z M 344.7054 17.2946 344.6323 17.2947 344.67 17.2397 344.8501 17.1424 344.9895 17.0221 345.0755 17.0028 345.2293 17.1083 345.1971 17.1958 344.9929 17.2612 344.7054 17.2946 Z M 349.6031 14.9879 349.5018 14.9884 349.3803 14.9732 349.2207 14.8724 349.1288 14.8009 349.098 14.7263 349.1111 14.578 349.192 14.5061 349.3186 14.4783 349.3759 14.5446 349.3941 14.6214 349.434 14.6738 349.6 14.7447 349.677 14.8058 349.7016 14.8383 349.7347 14.9076 349.7081 14.9553 349.6031 14.9879 Z M 317.1553 9.6642 316.9228 9.6962 316.8212 9.6831 316.8095 9.6499 316.8066 9.6171 316.8161 9.5813 316.8948 9.553 317.2823 9.5491 317.439 9.5749 317.4824 9.5909 317.4867 9.6412 317.4717 9.6561 317.1553 9.6642 Z M 272.4413 14.1233 272.3537 14.2123 271.9188 14.0879 271.6678 14.0506 271.5992 14.0285 271.5399 13.9533 271.5283 13.923 271.5757 13.8749 271.717 13.7991 272.0082 13.7371 272.4748 13.7046 272.9266 13.7299 272.9986 13.7673 272.5697 13.8976 272.4413 14.1233 Z M 254.2011 14.9391 253.7319 14.9753 253.6281 14.9336 253.5755 14.8522 253.6402 14.805 254.2498 14.6407 254.4167 14.656 254.469 14.6697 254.5095 14.7336 254.4561 14.8309 254.3867 14.879 254.2011 14.9391 Z M 245.9123 15.7918 245.7662 15.8234 245.5713 15.8146 245.422 15.774 245.3165 15.6939 245.2913 15.6618 245.3081 15.6084 245.2981 15.582 245.4861 15.5677 245.5556 15.6012 245.5853 15.6273 245.9123 15.7918 Z M 251.7974 14.4658 251.6759 14.6403 251.5996 14.6358 251.528 14.5336 251.37 14.4231 251.3177 14.3465 251.3136 14.2428 251.4203 14.1817 251.8189 14.1442 251.9536 14.1691 252.021 14.3004 251.7974 14.4658 Z M 246.4963 15.1748 246.6476 15.22 246.8798 15.214 247.1057 15.2483 247.0687 15.296 246.9391 15.3599 246.8278 15.4933 246.723 15.5576 246.394 15.6913 246.1495 15.7278 246.0919 15.652 246.0964 15.5746 246.1195 15.5165 246.1259 15.4715 245.901 15.4135 245.8846 15.3347 245.8403 15.2906 245.1736 15.1308 245.0551 15.0854 245.1071 15.058 245.7946 15.0457 246.1961 15.073 246.4963 15.1748 Z M 256.2608 14.775 256.0386 14.8081 255.7819 14.737 255.7126 14.6896 255.6387 14.5627 255.6298 14.5142 255.6879 14.4818 255.8875 14.4459 256.2181 14.4605 256.3443 14.5198 256.3876 14.6227 256.3494 14.7111 256.2608 14.775 Z M 221.4931 19.4892 221.4283 19.7913 221.4463 19.8544 221.5029 19.9184 221.7477 20.0851 221.7642 20.2112 221.757 20.2594 221.6569 20.3276 221.3138 20.3114 221.2022 20.2752 221.1635 20.2517 220.9822 19.9575 220.8791 19.8897 220.7196 19.8295 220.1064 19.7731 219.5178 19.7935 219.663 19.7244 220.5512 19.6314 220.7752 19.5629 220.9161 19.4802 220.9788 19.3562 221.1339 19.1988 221.3786 19.1276 221.5307 19.1194 221.613 19.2474 221.613 19.3665 221.4931 19.4892 Z M 227.7221 17.8188 227.6249 17.8517 227.4274 17.8507 227.24 17.7818 227.1615 17.6848 227.1521 17.6138 227.2367 17.5345 227.3744 17.5138 227.4477 17.5407 227.628 17.7094 227.7221 17.8188 Z M 232.696 17.1192 232.586 17.1507 232.4038 17.1391 232.171 17.0691 232.0945 17.0163 232.0675 16.9686 232.1345 16.8997 232.1889 16.8804 232.3087 16.8885 232.5193 16.978 232.6602 17.0731 232.696 17.1192 Z M 205.2595 27.4946 205.0211 27.5073 204.9265 27.4734 205.0405 27.3821 205.2124 27.3024 205.5258 27.2958 205.8254 27.3483 205.7932 27.398 205.7317 27.4025 205.2595 27.4946 Z M 175.2022 2.0765 175.1403 2.0895 175.0456 2.0359 175.0341 2.0039 175.1313 1.9419 175.231 1.8593 175.2664 1.8499 175.2429 2.016 175.2022 2.0765 Z M 168.6075 3.4646 168.3011 3.5272 168.1419 3.4635 168.1033 3.4377 168.2951 3.3768 168.3963 3.3908 168.4357 3.4111 168.5512 3.4166 168.6075 3.4646 Z M 165.3975 14.0793 165.1897 14.0822 165.0931 14.0433 165.0573 14.0194 165.082 13.9651 165.1641 13.914 165.4066 13.9511 165.4674 14.0509 165.3975 14.0793 Z M 166.0927 12.4079 166.0409 12.4459 165.8656 12.4229 165.7632 12.3959 165.596 12.3279 165.6898 12.2877 165.8746 12.2974 166.025 12.345 166.0927 12.4079 Z M 165.9755 15.0957 165.8573 15.0957 165.7599 15.0668 165.6748 14.9829 165.6505 14.9415 165.6972 14.8494 165.7773 14.8287 166.2341 14.8166 166.3741 14.8656 166.3789 14.9474 166.3254 15.0073 165.9755 15.0957 Z M 166.2361 15.5693 166.0979 15.5773 165.9075 15.553 165.7462 15.5064 165.6907 15.451 165.7701 15.4053 165.9171 15.3772 166.1518 15.3856 166.2623 15.4442 166.2858 15.4954 166.2586 15.5527 166.2361 15.5693 Z M 167.8452 3.6608 167.6567 3.6706 167.5265 3.5925 167.4694 3.5362 167.7214 3.5332 167.8357 3.5542 167.8945 3.6173 167.8452 3.6608 Z M 166.3016 4.3843 166.2327 4.3984 166.1427 4.3866 166.1455 4.4109 166.2203 4.4419 166.14 4.4543 166.0415 4.4235 165.9757 4.3584 166.0236 4.2988 166.1183 4.2845 166.3016 4.3843 Z M 166.0965 5.6282 165.9242 5.6774 165.8208 5.662 165.6552 5.6039 165.8794 5.5867 165.8979 5.4209 166.0111 5.3547 166.2221 5.3921 166.0927 5.4794 166.0471 5.547 166.0939 5.6054 166.0965 5.6282 Z M 164.2991 5.9195 164.1726 5.9239 164.2046 5.8506 164.3215 5.7992 164.5124 5.7666 164.3907 5.85 164.3563 5.8881 164.2991 5.9195 Z M 162.4126 7.004 162.1937 7.0668 162.0776 7.066 162.2147 6.9143 162.3425 6.9085 162.5465 6.8223 162.6048 6.8347 162.4946 6.9067 162.4126 7.004 Z M 163.3825 4.5253 163.3269 4.5316 163.3496 4.4736 163.5042 4.3241 163.7942 4.2553 163.7574 4.3157 163.6641 4.3901 163.3825 4.5253 Z M 158.9141 8.3615 158.6116 8.4146 158.4575 8.3948 158.449 8.3392 158.4877 8.2664 158.6314 8.2263 158.6074 8.1175 158.7004 8.0715 158.7438 7.986 158.9302 7.9254 159.2023 7.9538 159.1593 8.0623 159.1569 8.0993 158.9992 8.1289 158.9575 8.1459 158.9202 8.2176 158.9272 8.3218 158.9141 8.3615 Z M 157.8765 8.857 157.5675 9.012 157.5242 9.002 157.4999 8.9859 157.5007 8.9596 157.6051 8.9026 157.6224 8.7328 157.8266 8.6718 157.9043 8.6934 157.8384 8.7646 157.8802 8.8265 157.8765 8.857 Z M 156.8153 9.8169 156.7506 9.8271 156.5962 9.8206 156.496 9.7907 156.6257 9.6911 156.61 9.6256 156.7274 9.5988 156.8578 9.6218 156.9449 9.7072 156.9612 9.7427 156.8153 9.8169 Z M 156.834 11.0227 156.5634 11.049 156.3575 11.0189 156.3626 10.9141 156.3059 10.9027 156.2885 10.8775 156.5465 10.799 156.7389 10.7798 156.9754 10.791 157.0747 10.8267 157.11 10.8622 156.9298 10.9476 156.9021 10.9826 156.834 11.0227 Z M 150.8219 14.4795 150.8873 14.5214 151.1863 14.4825 151.2924 14.5248 151.3126 14.5519 151.1778 14.6543 151.0208 14.7199 150.8362 14.7246 150.7016 14.5538 150.6832 14.5117 150.8219 14.4795 Z M 147.8015 18.7564 147.6682 18.783 147.5804 18.7684 147.4305 18.6991 147.4474 18.6455 147.5165 18.6076 147.5659 18.5674 147.8656 18.4195 148.084 18.4016 148.2663 18.4341 148.0729 18.574 148.0187 18.6726 147.8015 18.7564 Z M 120.2494 18.1517 120.0144 18.1524 119.8586 18.1021 119.8101 18.0692 119.9017 18.018 119.9608 18.0134 120.2439 18.0996 120.3045 18.135 120.2494 18.1517 Z M 88.5116 19.8744 87.8314 19.9128 87.6479 19.8687 87.599 19.8155 87.6292 19.7606 89.0059 19.4601 89.253 19.5017 89.3189 19.5222 88.9089 19.6705 88.7247 19.723 88.6914 19.7409 88.7944 19.7613 88.8221 19.7782 88.7436 19.82 88.5116 19.8744 Z M 66.8588 20.2574 66.6443 20.3356 66.2142 20.2848 66.2495 20.2293 66.6357 20.1809 66.8988 20.2132 66.8588 20.2574 Z M 68.6911 20.4537 68.5358 20.4827 67.9562 20.4121 67.6201 20.3967 67.4657 20.3576 67.3653 20.3221 67.3318 20.2878 67.175 20.2351 67.4861 20.129 67.7283 20.0941 67.9615 20.1022 68.0092 20.1542 68.4598 20.2182 68.8095 20.2189 68.8431 20.2772 68.8286 20.3586 68.6911 20.4537 Z M 45.8362 23.3117 45.8492 23.3296 45.6407 23.3167 45.3299 23.2388 45.2652 23.2111 45.4054 23.1847 45.5853 23.2107 45.752 23.2578 45.8362 23.3117 Z M 49.0873 22.0133 48.9347 22.02 48.6681 21.9876 47.9742 21.8759 47.8247 21.8228 47.9286 21.7673 48.1779 21.7277 48.3642 21.7403 48.8393 21.8428 48.9803 21.9167 49.0677 21.974 49.0873 22.0133 Z M 47.194 23.7426 46.6757 23.8039 46.5408 23.7861 46.5889 23.6988 46.5096 23.6391 46.4901 23.611 46.5301 23.571 46.8347 23.5708 47.6953 23.6344 47.8065 23.7249 47.194 23.7426 Z M 44.4424 23.8055 43.8631 23.8226 43.5447 23.7865 43.4648 23.6796 43.554 23.658 44.2927 23.7071 44.5626 23.7333 44.6584 23.7645 44.6105 23.793 44.4424 23.8055 Z M 43.4223 23.4051 43.983 23.4227 44.3501 23.4095 44.7352 23.4426 44.8229 23.4802 44.7535 23.5124 44.3405 23.5223 44.1398 23.5758 43.9056 23.5821 43.5534 23.544 43.2346 23.4601 43.4223 23.4051 Z M 43.5816 24.2613 43.9817 24.3312 43.2765 24.3088 42.9671 24.2124 43.1659 24.1761 43.364 24.1834 43.5387 24.2319 43.5816 24.2613 Z M 42.1783 23.4869 41.5937 23.5042 41.3512 23.4662 41.2916 23.4319 41.3413 23.4007 42.2546 23.3691 42.3567 23.4072 42.3827 23.4297 42.1783 23.4869 Z M 47.0786 22.7536 46.796 22.7737 46.4412 22.6859 46.1722 22.6157 46.0859 22.5574 46.0678 22.5376 46.0717 22.5143 46.1511 22.4996 46.7205 22.5485 47.0786 22.7536 Z M 46.9404 23.2886 46.7775 23.4005 46.3438 23.3408 46.1585 23.2688 46.2646 23.1771 46.4628 23.1481 46.7227 23.1805 46.8189 23.192 46.9404 23.2886 Z M 41.9507 24.3067 41.8431 24.3131 40.6401 24.206 40.4089 24.1742 40.8151 24.1094 41.0869 24.1005 41.8095 24.2596 42.0072 24.2789 41.9507 24.3067 Z M 37.0629 27.9922 36.8089 27.9959 36.4841 27.9822 36.2343 27.9468 35.6641 27.8995 35.5214 27.8075 34.8566 27.7337 34.5442 27.7104 34.6506 27.6217 35.3589 27.7395 36.2264 27.8569 36.9315 27.9291 37.0629 27.9922 Z M 43.5642 23.9628 43.4774 23.9851 42.8754 23.9739 42.7533 23.954 42.6987 23.9336 41.8612 23.9008 41.4822 23.802 41.4092 23.7707 41.559 23.7248 41.8418 23.6938 41.9559 23.656 42.679 23.6232 42.7907 23.6429 42.8561 23.6952 43.1837 23.7984 43.2722 23.8642 43.3073 23.9052 43.4845 23.925 43.5642 23.9628 Z M 31.4506 30.858 31.3279 30.8677 31.2202 30.7937 30.679 30.642 30.3637 30.5405 30.1519 30.4619 30.0656 30.4075 30.1694 30.4081 30.9537 30.5751 31.0725 30.6398 31.6622 30.7553 31.4506 30.858 Z"/>
</g>
</svg>