<?xml version="1.0"?>
<svg xmlns="http://www.w3.org/2000/svg" version="1.2" baseProfile="tiny" width="240" height="400" viewBox="0 0 240 400" stroke-linecap="round" stroke-linejoin="round">
<g id="argentina">
<path d="M 192.2458 101.4325 191.8042 101.9015 191.7428 102.7168 191.0024 103.7882 189.583 105.1146 189.0883 106.262 189.7345 107.7112 189.8298 109.4669 189.5485 110.1722 188.9228 110.4108 188.7795 110.8634 189.1175 111.5325 189.1374 112.4109 188.8386 113.4998 188.18 114.7467 187.1613 116.1503 186.9162 117.0884 187.4455 117.5609 187.7052 118.0615 187.6946 118.5937 187.4777 119.3645 187.0542 120.3739 186.4133 121.1237 185.5553 121.6126 185.2974 122.2302 185.6401 122.9764 185.6887 123.7554 185.4413 124.5636 185.5875 125.352 186.1273 126.1193 186.0875 126.993 185.1518 128.7873 184.9266 129.8926 185.5132 134.6273 185.1565 135.2905 184.5623 136.0532 183.8617 136.1081 183.0581 135.976 182.4774 136.4508 182.1136 138.5398 181.0071 143.0617 181.2066 144.1343 182.0926 145.8748 182.4171 146.9836 182.6622 147.8199 182.8604 149.4036 182.3452 150.1171 181.8692 150.2423 181.2674 150.6399 181.9774 152.571 182.5435 153.46 184.1675 155.2788 190.393 157.8064 192.9768 159.2966 195.9015 161.3271 197.4946 163.4114 197.6355 165.1296 195.2997 167.697 195.0412 169.8527 195.5208 171.3674 196.3647 172.7733 198.6262 174.6015 200.2912 175.2694 202.5393 175.1969 202.9236 175.7068 203.1546 176.1548 203.5119 179.8533 203.4669 181.2428 202.8066 182.5177 198.4882 188.3707 194.7985 191.9428 193.4628 193.9149 192.9873 196.0273 191.806 197.0332 185.415 200.2216 175.4975 203.0663 167.4841 204.5435 165.663 205.0406 152.7798 206.6665 150.2855 206.8945 147.0438 206.7495 144.4127 206.9647 141.4739 206.5214 138.851 206.0103 137.3854 204.7424 135.6426 204.5845 135.1671 205.2173 136.0157 206.8361 135.6028 208.7824 136.1181 209.8924 137.148 210.1146 138.1375 210.6889 139.0095 211.4562 137.5041 211.5357 138.0884 212.1475 138.7323 212.5065 138.6609 213.7861 138.0767 216.8647 136.6105 217.5244 136.2157 217.7022 135.7719 218.3654 134.8391 221.3105 134.5379 223.2194 134.9379 224.4511 136.7017 227.036 136.0368 228.7133 134.9209 229.6256 130.0943 231.4982 128.1656 232.2468 125.1256 232.7591 120.2277 232.8469 118.4165 232.7299 114.2221 231.0269 111.105 230.0046 108.2539 229.1905 105.4813 228.7028 105.8778 228.4571 106.0632 228.0174 105.2836 227.7694 104.7157 227.7156 102.8887 228.601 102.1226 229.504 101.9015 230.2982 101.8641 232.1989 102.1887 233.7931 103.5016 237.7232 103.6361 239.8578 103.0127 242.5503 103.8835 244.1329 104.9415 244.8487 107.3194 245.5552 108.2422 246.0371 109.2569 245.9599 109.5686 246.147 109.4189 246.4944 108.8212 247.174 108.8587 247.8933 110.6623 248.1062 112.5284 247.9612 114.4894 247.643 114.9526 247.1436 114.9648 246.0979 112.6682 245.9143 112.9606 245.5248 114.7005 245.1002 116.9807 244.4031 118.1463 244.2744 118.9376 244.7423 119.4733 245.1704 120.1306 246.2967 120.5377 247.7799 120.5552 249.5648 120.2809 251.2444 119.9558 251.8421 119.3809 252.5556 115.2812 253.4656 114.1326 253.2281 113.0636 251.9602 112.7279 250.649 111.8138 249.7648 109.8546 249.0606 107.9066 249.2759 105.9725 250.4946 104.0713 250.8911 103.3981 252 108.1615 253.7977 110.409 254.2972 111.1418 254.2796 111.8752 254.5159 111.198 255.1826 110.5207 255.5967 107.1311 256.5113 105.6374 257.15 103.8935 258.4038 101.4477 261.1408 100.698 261.7374 100.3237 262.4333 100.071 264.32 100.8629 267.4488 100.0266 268.76 100.5401 270.215 100.2488 271.1858 99.3932 272.5824 95.9638 274.7872 95.3561 276.4013 96.5445 277.3523 96.4656 278.1839 96.0696 278.936 94.645 278.9278 89.4658 278.4202 87.5779 279.2448 85.8311 280.2507 85.3538 280.7326 84.7357 281.0332 81.1735 281.5689 80.4676 281.9245 76.6802 285.7563 75.0585 288.1318 73.0988 290.4618 72.5847 291.449 72.473 292.8175 72.7461 294.0479 73.0181 294.9568 73.7 296.1229 75.1351 297.4528 82.4385 302.8671 83.9532 303.3397 91.7606 303.9198 93.4958 304.6743 94.5087 305.872 94.8801 306.9282 94.4333 309.6044 93.9672 310.4407 93.1046 311.1998 91.2565 312.1788 89.0453 312.6993 89.6786 313.0689 90.5769 313.0163 92.5308 312.6993 93.3759 313.0163 94.0181 314.0689 92.7952 314.4959 92.4209 315.0058 91.5372 315.7837 87.0317 318.8751 84.6012 319.7991 82.3671 321.0378 79.3693 322.2928 78.1973 323.0133 76.6118 324.5268 74.1807 326.1737 71.563 329.7061 71.4572 330.3927 71.8373 330.85 70.3817 337.0386 69.8729 337.7662 68.819 338.5428 66.044 339.8236 64.7077 339.9815 62.9421 339.2399 61.9449 338.4645 60.97 337.1357 59.7928 335.7649 59.7319 336.255 60.1413 337.0878 59.8641 337.9592 56.8534 338.3545 56.0557 338.7651 58.7734 338.5814 60.6267 338.8423 61.4098 339.1616 62.1145 339.8236 62.7356 340.6201 62.2139 341.0611 60.7297 341.426 58.8073 342.0962 56.5364 343.308 55.275 344.7069 54.7311 345.7128 54.1176 347.7422 53.955 349.0826 52.9947 350.1142 51.5163 351.0429 51.5981 351.2546 52.6017 350.7798 53.4035 350.63 54.0924 351.8675 55.0241 354.3414 55.4568 356.0537 55.3884 356.5625 55.113 357.2597 53.1994 357.4281 51.4929 357.407 50.2367 357.7065 50.9116 358.0153 52.0619 357.9053 53.6538 358.6387 55.4218 358.3264 56.2265 358.8165 56.8078 359.2656 59.5144 362.8401 61.8777 365.0496 63.0725 366.3608 62.4783 366.9549 62.2672 366.1619 60.7244 365.9572 59.2225 365.7432 56.7148 365.1759 53.3415 364.3139 49.9612 364.3139 47.2763 363.5863 44.31 362.7816 38.0506 362.7103 32.5374 362.6611 26.8892 362.6108 23.2738 362.5793 20.8537 362.5582 20.2256 362.2541 20.4368 361.2505 19.539 360.5113 18.239 359.6177 16.6576 358.9837 15.8728 358.1357 14.9967 357.1836 15.4909 356.3391 16.2476 354.2864 16.264 353.3811 15.5774 352.7471 15.3663 351.8488 15.5774 351.4266 16.1979 351.1061 16.5699 349.6312 16.2786 348.1855 15.8043 346.8953 15.1774 346.3257 14.368 346.0555 13.7732 346.0052 12.4486 346.486 10.2543 346.3667 9.5081 346.5515 8.4343 347.0708 6.9155 347.8357 6.0705 347.5714 5.812 346.7538 5.2476 346.0438 4.8885 345.4181 4.6183 344.3888 4.1686 343.0635 3.2715 341.4974 1.8983 340.2295 1.8211 339.0914 1.5673 337.6621 2.2679 336.2678 1.8591 335.1122 1 333.7332 1.2643 332.3074 2.1094 331.5144 2.3738 330.5108 6.2822 330.3529 6.119 329.0031 6.7693 327.9118 7.4992 326.9235 8.1209 326.4731 9.5139 326.0801 11.1544 325.5093 12.079 324.8543 12.5205 324.2707 12.7919 323.5139 12.8615 322.7092 12.5925 320.9945 12.8983 320.4681 13.913 319.7734 15.6306 319.1558 16.3699 317.5183 15.947 316.0924 14.9938 314.9649 13.782 314.4549 13.6761 313.2935 14.2235 312.1893 14.9376 311.008 15.7891 309.6488 15.7359 308.6979 16.4909 308.1423 18.6408 306.9025 19.38 305.6884 20.1367 305.3585 21.0175 305.2123 21.0707 304.5257 20.4274 303.845 20.3227 302.9888 20.3987 302.0402 20.5952 300.7758 21.5988 300.3009 23.0808 299.274 23.4767 298.6213 23.5299 297.7476 23.0977 295.944 22.7287 294.6503 22.5427 294.1731 21.8661 293.2959 21.3684 292.7426 22.1638 292.0502 23.6586 291.3215 24.2925 290.2653 23.7112 289.367 22.8661 288.8921 22.6024 287.5189 22.9194 285.7761 23.5527 285.2474 25.771 284.9831 25.9827 284.0848 27.6728 282.8181 27.6196 281.6028 26.5453 280.8577 25.4932 279.6553 24.7148 278.5933 22.1269 278.012 19.38 277.695 19.0109 276.6914 19.1162 276.1101 20.3941 276.3452 22.4807 276.1405 24.0516 276.0926 25.1446 275.992 26.4049 275.8458 27.567 276.2692 28.729 276.0048 29.2039 274.4199 29.9437 273.5755 30.0496 272.7824 29.3104 272.1496 27.9553 271.9543 22.0351 271.4537 21.855 270.8197 21.9064 269.7565 22.1298 268.6711 22.1269 268.1354 22.6679 267.664 23.279 266.6792 23.7112 266.0218 23.2814 265.1691 22.338 263.9094 23.0246 263.3281 23.0802 262.6345 22.8661 261.9561 21.8865 261.2017 21.0175 260.1595 21.0175 259.0507 22.0328 258.7559 22.7076 258.4167 22.8661 257.7301 22.4965 256.8856 21.0941 256.6283 19.2244 256.109 18.653 255.6739 18.1255 254.7686 18.5185 252.214 18.322 250.6748 18.1583 249.8232 18.6168 249.1682 19.239 248.5787 18.9437 247.2044 18.3869 246.4839 18.5834 245.9271 19.108 245.3704 19.5665 244.6826 19.9595 244.5189 20.549 244.9119 21.5468 244.6814 22.7427 244.1259 22.8737 243.4708 22.634 242.534 21.7421 240.1794 20.942 238.7232 21.1058 238.1992 21.4228 237.6471 21.1707 235.6447 21.2497 234.4353 21.3082 230.869 21.4 229.6514 20.5818 228.408 20.6923 227.2407 21.2713 226.3892 21.8134 225.2371 22.2193 224.216 22.6445 223.7575 23.365 223.5282 23.5287 222.9715 23.2012 222.5457 22.2679 221.8825 22.0556 221.0719 22.2515 220.4497 22.71 220.0894 23.42 220.0929 23.9545 219.2052 24.106 218.108 24.2165 217.6004 23.8071 216.9594 23.5106 215.4471 23.234 214.5874 23.5615 214.2271 24.02 214.0961 24.8259 214.2985 25.3955 214.1944 25.4938 213.7359 25.5593 213.2446 25.7751 212.9101 26.2827 211.7977 26.826 210.4187 26.9535 209.4456 26.7593 206.8068 27.0471 206.2009 27.6266 205.6477 28.4343 205.1272 29.494 204.6956 30.8134 204.0745 32.4363 203.8464 33.0913 203.1587 33.5498 202.2416 33.6814 201.4884 33.0585 200.9644 32.2403 200.3421 31.8508 198.7724 31.6391 197.3244 31.5192 195.4951 30.7046 193.9231 29.8496 192.1545 29.6203 190.5825 29.9063 189.7216 30.242 188.3555 29.8817 187.7344 29.4566 186.6209 29.8987 185.7483 30.4385 184.3939 30.3736 183.7061 29.9478 182.0686 29.5548 181.1516 29.9478 180.1691 30.5701 179.2521 31.0613 178.7608 30.9795 177.9701 31.1917 177.3198 32.121 176.8835 32.993 176.0764 33.6153 175.9782 34.3685 175.9782 34.8598 175.7489 35.0563 175.1267 35.1873 174.4389 36.3856 173.5851 37.0862 172.8002 38.3635 172.6365 38.9857 171.7861 38.9992 170.6937 38.8547 169.5919 39.2805 168.3146 38.8068 166.366 38.8547 165.3343 38.3635 164.4828 38.4617 163.5658 38.1997 162.9763 37.4582 162.7576 37.1845 162.0265 37.5447 161.6663 38.2454 161.3891 39.1249 160.8288 39.784 158.1328 40.0958 157.3327 40.3993 156.3689 40.3613 155.8695 40.7835 155.149 41.3104 154.0542 42.1421 152.9956 42.6187 152.2669 43.0795 151.2844 43.2105 150.6949 43.8001 150.4013 44.4767 150.3253 45.2738 150.1393 45.6013 149.7791 45.5423 149.2539 45.4925 148.0936 45.2533 146.2514 45.0995 143.8746 45.2405 142.3132 45.7651 140.7411 46.2563 139.8896 46.1253 139.2346 45.9943 138.5141 45.0773 138.1211 44.2048 138.4615 43.5965 138.3667 42.8175 137.5316 42.5883 136.6473 42.7193 135.4356 43.3293 134.68 43.5708 133.7326 43.2105 133.4378 42.4427 132.8085 41.7146 130.6365 41.8023 128.7873 41.0818 128.296 40.7461 126.8503 40.001 126.3321 39.7063 125.2514 39.477 124.1379 39.5753 123.6454 40.3496 123.5098 40.787 122.6314 40.4595 122.1389 39.87 121.7132 39.1167 121.7459 38.4424 121.2441 37.5383 119.1423 36.8248 117.9808 37.05 116.286 37.1903 114.9619 37.4974 113.8297 37.6108 112.9384 38.1676 112.5115 38.691 112.7092 39.1822 112.6109 39.6349 111.8846 40.132 111.4319 40.0993 111.0716 39.8045 110.6786 39.6641 109.9909 40.0104 109.1721 40.6075 107.2948 41.511 105.228 41.9005 104.4561 41.8023 103.8011 41.9988 103.5063 42.6123 103.8338 44.3568 103.4736 44.9463 102.5565 45.175 101.7378 45.699 101.2793 45.4703 100.6243 44.7498 100.4278 44.3135 100.1213 44.4872 99.3798 44.7428 97.6744 44.7007 96.4182 44.0422 93.7385 43.5129 91.0869 43.8866 90.2003 45.0276 88.9885 45.8955 88.4423 46.0516 87.751 46.9102 84.6175 47.009 82.9075 47.5722 81.9601 47.943 80.1822 49.4974 78.6499 49.9559 77.6347 50.5782 77.5364 50.9057 77.2089 51.7303 76.0767 52.8023 74.9129 53.7222 74.3269 53.9515 73.4099 54.3919 72.1572 55.306 70.0787 55.8183 68.6295 56.506 68.1043 57.3072 66.206 57.6517 65.0925 58.5687 64.634 59.2892 64.503 59.977 65.0281 60.6969 64.9287 61.3525 64.2737 62.9333 63.8281 63.6444 63.586 63.9719 62.9309 63.9719 61.7847 63.3169 60.9332 61.9783 59.3027 60.8279 57.4827 60.7027 56.9084 60.6957 56.2814 60.8922 55.4896 61.4426 54.5913 62.8239 53.1152 62.6771 52.0578 61.6701 48.1722 61.2981 47.1008 60.5986 45.1136 60.6969 44.3276 61.311 42.1321 61.8437 41.249 62.6298 41.0853 63.0549 40.7905 63.1865 40.3975 62.6619 39.9074 62.4333 39.284 62.2034 38.4009 61.4759 38.0898 61.0572 37.3529 61.0572 36.271 61.7127 34.8627 62.4333 34.4697 62.7274 33.8486 63.4994 33.2755 64.2012 32.8334 64.7907 32.0146 67.2212 31.0122 69.1512 30.2344 72.9175 28.7442 75.4995 27.7243 75.7463 27.0178 75.9434 26.5371 77.1411 22.9357 78.6909 18.2782 79.6605 15.3587 77.4318 13.2065 77.8265 12.6334 79.102 11.1608 79.364 9.9794 79.8722 9.4718 82.1577 8.2718 82.5508 7.474 82.7525 6.591 83.2186 5.9558 84.0894 5.8248 85.6708 5.2622 87.3691 4.7277 87.8809 4.0013 88.3639 2.7358 88.7774 1.3345 89.1061 1 89.6511 1.0374 90.5623 1.3895 91.0413 1.9217 93.418 3.6013 94.4853 4.5581 95.5018 4.6856 97.5066 4.4973 97.913 4.5405 103.0279 4.5955 103.8087 4.6786 105.6 5.0891 106.6112 5.4166 107.3124 5.5874 108.4452 6.1055 109.4259 7.8156 109.9757 9.1782 110.3617 10.376 111.2184 12.4802 111.8015 13.2779 112.0097 12.8907 112.5068 10.5912 113.1934 9.2496 114.1186 7.7466 115.9836 4.2341 116.6357 3.7078 117.3621 3.4516 117.8697 3.4305 118.3855 3.6914 119.0879 3.6949 119.5862 3.4165 124.4747 3.3721 129.551 3.3323 129.6598 3.3545 129.8897 3.9592 130.7341 5.2798 131.6839 5.9757 131.8553 6.164 132.1582 6.4974 132.1547 6.8436 133.1659 7.5524 135.1905 8.625 137.0871 10.7 138.8545 13.7785 140.5142 16.0523 142.0652 17.5226 143.491 18.5612 144.7905 19.1683 145.4847 19.6595 145.5747 20.0373 146.7912 20.8222 149.1334 22.014 150.6148 23.2047 151.2353 24.3931 153.5477 25.6201 157.5538 26.8833 160.4662 27.4869 162.2856 27.4295 164.8945 28.4401 168.2947 30.5151 170.3691 31.9549 171.1171 32.7562 173.3412 34.0545 178.8895 36.7412 181.3376 37.4149 182.4973 38.029 183.185 38.8091 183.864 39.0466 184.5336 38.7436 185.9267 39.0232 188.0426 39.8864 189.6971 40.9309 191.8264 43.2304 192.506 44.1486 192.7937 44.9709 192.6914 45.6949 192.0428 46.468 190.8492 47.288 190.4983 47.6459 190.4708 47.9921 190.1667 48.6834 189.1754 50.1595 188.9239 50.8461 188.8713 51.3525 188.2426 51.9081 186.5741 52.9339 186.2302 53.4322 186.1472 53.9679 185.9366 54.286 185.7086 54.4194 185.3875 54.9562 185.1296 55.8428 185.1038 56.9821 185.3103 58.3716 185.2699 58.8196 184.9015 59.0594 184.6945 59.381 184.6202 60.0302 184.3073 60.5051 183.7564 60.8068 183.5529 61.1542 183.6979 61.5461 183.292 61.9344 182.3353 62.3169 181.7493 62.8736 181.5341 63.6047 181.0013 64.2573 180.1521 64.834 179.8749 65.6001 180.317 67.0166 185.546 66.5265 189.8105 67.0435 194.8523 68.4073 198.1993 68.8822 199.8503 68.4704 201.0749 68.5289 201.872 69.0564 202.9434 69.1652 204.2891 68.8553 205.4009 69.095 206.2799 69.8845 207.0782 69.688 207.7963 68.5067 208.6209 67.6447 209.5508 67.1019 210.7094 66.937 212.0972 67.1522 213.2042 67.5862 214.0312 68.2388 214.9336 68.2201 215.9126 67.5289 216.381 66.7019 216.3395 65.7381 216.7272 65.048 217.5437 64.6328 218.0957 64.0702 218.3829 63.3625 219.3514 62.9298 221.0018 62.7742 221.865 62.4268 221.9404 61.8864 222.4287 61.3893 223.33 60.9355 223.9464 60.3694 224.278 59.6887 224.8236 59.2606 225.5833 59.0863 226.4266 57.657 227.353 54.9726 227.9016 51.3432 228.094 46.1967 229.0285 46.2014 229.4636 46.5827 230.1531 46.7827 230.8789 46.3476 231.4953 46.1464 232.4749 46.1288 233.0013 45.6399 233.6188 45.5616 234.0423 45.8271 234.4522 46.1464 235.323 46.2189 236.012 47.054 236.774 47.3078 237.0968 48.2658 237.5875 50.7899 238.5016 52.2765 239.4075 53.9702 239.4402 54.7258 238.9326 55.4884 238.846 56.5821 238.5296 59.2571 238.425 60.2407 238.7384 60.9121 238.8566 61.8478 238.363 62.9918 237.4085 64.7018 236.481 65.1626 236.2447 65.1814 234.9897 66.1709 234.1072 66.5417 233.5966 66.2914 233.0124 66.7206 232.3544 67.8271 231.5538 68.3242 230.1029 68.5991 229.6695 68.7289 228.8238 68.6903 228.0992 68.9664 227.4951 69.5582 226.85 69.7781 226.1629 69.6296 225.54 69.8459 224.9815 70.4284 224.6575 71.0601 224.5686 71.7385 224.0212 72.2005 223.0147 72.4473 222.6668 72.7888 222.7282 73.2637 222.2773 73.6333 220.5737 74.0169 219.3432 74.7012 218.5847 75.6814 217.784 76.2989 216.5179 76.6779 214.8038 77.6733 214.5581 78.2885 215.2108 78.8558 215.4447 79.3599 215.2617 79.7997 214.726 79.8594 213.8388 79.5377 213.206 79.471 212.827 79.6605 212.6487 80.0149 212.6697 80.5378 212.3522 80.8922 211.6966 81.0805 211.2807 81.5121 211.1059 82.1858 210.2836 83.035 208.8145 84.0584 207.6548 85.4386 206.8056 87.1732 205.8149 88.3136 204.6804 88.8599 203.9002 89.6377 203.4727 90.6471 202.2639 92.2109 200.2737 94.3304 198.4683 95.7842 196.8478 96.5738 195.9372 97.465 195.736 98.4581 194.6851 99.5891 192.785 100.8594 192.2458 101.4325 Z M 59.9647 396.8619 60.0331 394.1576 60.1255 390.5188 60.1442 387.2719 60.163 384.1091 60.1823 380.8341 60.2016 377.5579 60.2226 374.0559 60.2437 370.5002 60.9472 371.0066 63.731 373.4641 64.4562 374.4688 64.9123 375.6408 63.8 374.8957 62.6245 375.3227 62.0455 376.0233 61.5507 376.7836 61.5543 377.3181 61.9373 377.786 63.0801 378.193 65.8586 378.331 66.0627 378.4819 67.6868 381.4166 68.5038 382.0716 69.4524 382.5921 71.6437 384.0881 73.7462 385.7034 76.2416 387.2344 78.9336 388.4111 81.3811 389.3036 83.7175 390.3937 86.2094 391.9201 88.9207 393.0277 91.832 393.8114 94.7725 394.4641 99.2973 394.2091 100.7026 394.2804 101.5764 394.76 100.698 396.0864 99.5763 397.1531 98.0774 397.5929 96.4942 397.7543 95.0637 397.7333 93.6356 397.5368 92.2969 397.649 91.0167 398.097 89.6827 398.3193 88.3084 398.3485 86.968 398.7275 85.6211 399 84.2251 398.7743 80.5986 397.7157 78.2435 397.4631 70.2647 397.042 67.7031 396.7999 65.1521 396.4303 63.8158 396.4151 61.9075 396.6537 60.3788 396.6244 59.9647 396.8619 Z M 109.1201 395.2162 110.4418 395.4934 113.0565 395.2852 114.4362 395.2817 115.0397 395.3799 115.3093 395.5296 117.1117 395.2969 117.9083 395.3226 117.703 395.8361 116.0421 396.3472 115.3584 396.1308 111.8302 396.1776 110.2687 396.7028 109.6049 396.6981 108.0639 397.4479 106.9369 396.9742 106.627 396.5379 107.4428 395.9168 108.2107 395.9039 108.7347 395.6536 109.1201 395.2162 Z M 141.14 209.0373 141.2575 209.7918 140.6341 209.7029 139.1539 208.9777 138.6545 208.2981 138.5381 208.0116 140.0516 208.3227 140.7645 208.6034 141.14 209.0373 Z"/>
</g>
</svg>