<?xml version="1.0"?>
<svg xmlns="http://www.w3.org/2000/svg" version="1.2" baseProfile="tiny" width="800" height="786" viewBox="0 0 800 786" stroke-linecap="round" stroke-linejoin="round">
<g id="us-states-3">
<path d="M 799 1.7571 798.2429 785.372 518.11 785.372 356.0873 733.8882 1 624.8634 13.871 593.8217 41.127 588.5219 48.6983 576.408 41.127 550.6661 22.1992 549.909 13.1138 498.4251 41.127 478.7401 44.9126 458.2979 39.6129 425.742 56.2694 401.5143 78.2257 392.4288 94.8823 374.2581 67.6261 354.573 48.6983 318.2315 25.9848 295.5181 25.9848 278.1043 34.313 259.1765 31.2845 233.4346 19.9278 206.9355 11.5996 125.9241 62.3264 120.6243 78.9828 137.2809 92.6109 136.5238 106.9961 113.0531 106.9961 1.7571 597.6072 1 799 1.7571 Z" id="04"/>
</g>
</svg>