<?xml version="1.0"?>
<svg xmlns="http://www.w3.org/2000/svg" version="1.2" baseProfile="tiny" width="800" height="574" viewBox="0 0 800 574" stroke-linecap="round" stroke-linejoin="round">
<g id="us-states-4">
<path d="M 799 83.3049 793.6324 113.7219 769.4776 122.6682 764.11 147.7175 733.6929 174.556 736.3768 213.9193 720.2737 242.5471 704.1705 247.0201 714.0113 261.334 688.0673 273.8588 676.4373 301.592 659.4396 308.7489 662.1234 340.9552 632.601 349.9014 633.4955 360.6368 599.5001 387.4754 609.3408 405.3678 579.8184 431.3117 553.8745 481.4104 582.5023 502.8812 568.1884 516.3004 577.1345 550.296 564.6099 572.6615 165.6099 569.9777 94.9349 569.9777 94.9349 483.1997 71.6749 476.0426 39.4685 484.0943 22.4708 468.8858 31.417 181.713 1 1 24.26 1 730.1144 1.8946 744.4283 33.2063 719.379 52.8878 693.435 83.3049 799 83.3049 Z" id="05"/>
</g>
</svg>