<?xml version="1.0"?>
<svg xmlns="http://www.w3.org/2000/svg" version="1.2" baseProfile="tiny" width="500" height="385" viewBox="0 0 500 385" stroke-linecap="round" stroke-linejoin="round">
<g id="ne_50m_admin_0_countries-Armenia">
<path d="M 211.3914 252.3425 205.9333 245.5392 178.4883 223.1966 153.0224 206.0725 135.5503 199.0063 117.9391 199.7408 90.6023 203.1656 80.5674 201.7354 56.7714 194.275 36.9028 185.392 39.6086 181.7044 43.8143 179.0372 38.7891 167.5102 27.7493 148.9404 28.9244 143.1267 25.43 135.0942 21.5645 129.0253 37.1656 114.5065 44.2936 102.8404 45.8398 91.4759 41.696 79.6629 31.4292 58.3099 25.1053 52.1019 13.3541 46.3037 3.5048 36.8254 1 30.1072 9.3186 28.7775 33.5475 28.5997 57.0034 26.3113 75.3722 21.8969 101.9823 18.1705 112.9449 14.8694 125.7474 13.2923 164.6498 16.8254 179.1841 14.104 222.9724 13.6015 224.1012 12.2099 218.1483 7.7105 218.2101 6.002 244.2636 3.1338 248.2992 1 251.7163 8.1666 261.5037 16.1218 272.2034 19.3379 277.9398 23.7291 278.2027 27.0612 259.2772 31.1045 257.9939 33.1146 259.2463 35.1014 264.8744 36.091 291.3763 46.0795 306.4981 46.2959 314.4456 49.3342 318.4193 55.3025 331.0518 63.4201 341.1021 71.3057 341.7206 74.027 339.8187 78.0239 311.6315 93.4395 308.0753 98.7507 307.6423 104.3712 320.0274 121.1088 338.2571 139.4003 364.5734 153.2929 400.8163 168.3838 401.2802 177.7229 395.5283 188.8246 390.5959 196.3623 388.3539 201.4648 383.9473 203.614 347.859 203.1501 342.4473 204.9515 340.0661 207.1393 339.8806 208.9561 352.8687 212.3346 373.1084 224.2249 384.7513 235.744 396.9044 240.7769 410.511 249.9613 421.4272 258.5273 438.4044 269.6058 457.3454 265.9722 482.6412 275.8293 483.6926 282.532 482.1155 288.5081 466.2051 295.0331 464.226 297.7389 464.2414 300.0041 466.3288 303.2047 475.6524 308.5469 486.6304 316.4634 499 328.315 493.4955 331.8404 481.9609 332.3506 472.962 330.8972 469.7923 333.3015 469.9778 337.1825 481.6826 346.1736 483.9709 352.7372 483.4762 364.1327 484.0946 378.5047 456.7269 377.5615 433.3484 384.4653 424.535 383.0814 418.6749 370.8742 413.6807 360.9553 398.7908 335.528 402.8418 325.1144 394.5387 319.0919 374.5309 308.284 369.413 303.8077 372.2425 297.6693 374.1908 286.4439 372.2889 277.3445 366.9082 274.6 356.9197 274.4222 344.782 276.6797 320.4139 285.4389 303.483 279.8339 293.7265 274.1826 288.0674 269.4512 275.4041 273.3863 272.2807 271.4767 271.6159 259.772 267.8122 253.4789 260.1895 246.119 253.0924 242.586 227.0544 249.8686 211.3914 252.3425 Z M 251.8245 42.7551 252.6285 38.5417 251.4225 34.7226 247.1859 33.5166 241.9752 34.5216 241.5732 38.735 243.1813 42.7551 248.4074 44.5642 251.8245 42.7551 Z M 335.5358 107.8579 329.5211 110.4709 323.8929 109.2958 323.8929 102.7477 327.9594 100.1346 332.6598 100.266 337.1129 102.6162 335.5358 107.8579 Z"/>
</g>
</svg>