<?xml version="1.0"?>
<svg xmlns="http://www.w3.org/2000/svg" version="1.2" baseProfile="tiny" width="500" height="485" viewBox="0 0 500 485" stroke-linecap="round" stroke-linejoin="round">
<g id="ne_50m_admin_0_countries-Australia">
<path d="M 328.3526 21.5765 328.0717 22.8892 327.55 23.903 327.4887 24.5124 327.6102 25.3509 328.4793 25.975 329.1658 26.3689 329.5502 27.463 330.7604 28.9891 330.7171 30.0293 331.3677 31.323 331.9548 33.9051 332.1439 36.1682 332.7617 37.6805 332.3488 40.8963 332.7902 42.2132 333.3753 43.3041 334.0659 45.4764 334.5971 47.4693 335.311 48.0343 336.8191 48.7027 338.3768 47.9635 339.5015 46.9623 340.7107 46.7184 342.3476 46.2041 343.5737 47.5326 344.2401 49.0227 347.1348 50.9891 348.7432 52.2511 349.9925 52.964 351.1574 53.8965 351.0412 54.829 350.7677 55.5651 351.0328 56.7162 351.2155 58.05 350.9831 59.6658 351.8259 62.098 352.1057 64.039 352.9992 65.9357 352.9326 67.8873 352.7658 68.6234 352.6538 69.7175 353.3498 71.0798 353.9929 72.0852 354.9487 73.1772 356.2086 74.8363 357.1073 75.17 357.9099 75.1932 357.8001 76.8988 359.399 80.2603 360.2216 83.0092 359.6609 86.7086 359.1075 88.8546 359.2089 89.9043 361.2724 92.4674 362.4637 92.9416 362.2314 94.1635 362.0708 96.0507 363.0065 97.5197 364.0636 98.619 365.2116 99.2759 366.3437 99.7944 367.8254 100.3172 369.7031 100.5368 370.6778 101.3648 371.1752 102.0196 372.6822 102.2466 373.3676 102.1252 374.2009 101.8569 374.7669 102.3026 375.1872 102.8951 376.012 104.5024 377.7028 106.096 378.9014 106.3621 379.5763 107.1679 380.5373 107.3876 381.3653 107.4858 382.5396 108.1047 384.4564 109.5282 386.1852 109.7595 386.9825 110.1524 388.7007 111.7133 389.3671 112.5444 390.0567 113.7821 389.195 113.8993 388.3829 113.6406 387.8823 114.8561 389.026 116.5374 390.3556 117.7223 391.9577 118.9759 393.5185 120.749 393.9135 122.1018 394.3338 122.6351 394.864 124.5445 396.2136 125.6545 396.278 127.6737 396.9698 130.4659 397.7449 132.9963 398.2814 133.7609 398.9151 134.9743 399.6469 134.8201 400.1971 134.4262 401.2553 135.6322 401.8404 136.1655 402.1773 135.8508 401.4887 133.5422 401.9143 132.2031 402.3399 132.031 402.9408 131.9888 403.6631 133.0807 404.6569 134.2435 406.4976 135.2816 407.9709 136.2564 408.3848 136.2204 408.2201 135.4675 408.2655 134.3628 408.8527 134.1822 409.3892 134.7324 410.3777 136.4412 410.5825 139.9748 410.5846 142.9339 411.2352 145.9775 412.1856 146.7769 412.8098 147.532 413.8796 148.5522 414.5945 149.5037 415.4869 149.9462 418.3468 151.9728 419.1536 152.202 420.4029 152.2537 421.9247 153.1683 422.6936 154.0121 424.3442 157.1856 425.15 158.3008 426.7953 159.4012 427.5642 159.7603 428.6804 160.5164 429.0786 161.6147 429.1747 162.2632 429.8368 163.4322 430.8211 164.8368 432.2795 165.6173 433.6239 167.326 433.6999 170.0992 434.3969 171.4795 434.8648 172.0646 435.9166 172.6306 436.3433 173.0795 435.4699 176.7525 436.3127 184.0943 435.8226 186.3838 436.7002 188.6576 438.7311 192.5925 439.1926 193.9886 439.4788 195.6181 440.7851 197.6965 440.7144 200.8636 441.2308 202.3738 441.0977 204.336 439.558 206.4524 438.3234 209.0503 438.3118 211.2797 437.505 215.561 436.9801 216.7089 436.5946 218.4958 434.8901 222.8162 434.8162 224.5112 435.0771 226.5336 434.793 228.4746 434.3674 229.7958 433.9534 232.2406 432.2436 236.0414 429.7935 238.8463 429.6425 240.9806 429.332 241.9226 428.8325 243.1002 427.3276 244.3812 426.4215 244.9346 426.0783 245.6854 425.2218 245.6854 425.2007 245.9209 425.7794 246.1564 425.5217 246.543 423.2512 247.2231 421.722 248.0964 420.159 250.2329 419.5032 251.3491 418.6636 252.421 418.163 252.9237 417.9423 253.4634 417.6033 254.8067 416.7975 255.0485 416.0899 255.4488 416.4215 256.7288 416.0498 258.1946 415.9622 259.1873 415.5767 259.8188 415.112 259.5918 414.7466 259.6932 414.2809 260.0374 414.999 260.1452 415.4352 260.3014 413.9039 261.7377 412.5025 263.193 412.1466 264.1614 411.5393 265.378 411.005 268.0826 410.5635 269.6287 410.8677 270.728 410.818 270.934 410.4938 271.0153 410.2932 270.8717 409.6585 271.2476 409.481 271.6236 409.7482 272.0893 409.9267 272.2498 409.8454 272.4727 409.5824 272.7166 408.9784 272.7156 408.2539 273.1116 406.1629 277.112 405.2768 278.1733 404.2292 279.8092 403.8311 281.2909 403.5111 282.9109 403.1478 285.6387 402.7961 287.5608 401.9893 289.4247 401.6872 290.7522 401.5827 293.291 401.9692 295.2173 401.7158 296.2406 401.7094 297.2228 401.3894 298.1384 400.0556 298.3475 398.97 299.0952 397.4175 300.3171 396.503 300.7627 394.5302 301.0975 390.6967 300.9496 383.3274 301.4059 381.9017 301.6804 379.156 302.5253 376.5031 303.8391 373.9527 305.6069 368.1263 310.412 363.5726 310.9348 362.7129 310.9348 362.0244 310.8049 361.2122 311.1038 361.1985 311.7015 361.9483 312.3235 362.5007 312.9075 363.4775 312.1007 363.9063 312.3246 364.0689 313.8126 364.0922 314.7546 363.7986 315.2657 363.186 315.6248 362.5376 315.3904 362.451 314.8803 361.6104 313.6669 360.5733 312.5992 359.6165 312.257 359.0568 312.6139 358.1613 312.9889 357.4062 311.6286 356.5983 310.4501 355.5285 310.3276 354.6033 310.3402 353.8356 309.8301 352.3423 309.0265 352.6338 308.3992 353.0509 307.7391 353.9095 307.4962 353.6518 306.6049 353.1914 305.873 352.0086 305.6777 351.2123 305.8065 350.7381 306.3863 350.114 307.3853 347.609 308.6526 346.3945 307.9556 344.9942 306.9175 345.67 306.9935 347.0883 306.9576 348.2638 306.0315 348.7707 305.4527 349.3431 304.2245 348.5827 303.3554 347.8825 302.7207 346.8708 302.1536 343.0552 304.0714 342.2642 304.346 341.5091 304.7177 342.8313 305.0366 343.6065 304.9416 344.426 305.5076 343.1112 306.3092 342.0752 306.5215 340.7868 307.003 338.3303 308.2365 335.1959 310.7943 333.8442 311.5304 332.2463 312.1144 330.0782 311.4322 328.8669 311.2738 327.3113 310.2219 324.6901 309.5186 322.2231 308.1214 320.5334 307.4149 319.3295 307.2618 317.6335 307.5564 314.7895 306.306 312.6298 306.1719 311.2125 307.4307 310.1079 307.3442 309.3771 307.1678 307.1023 305.0968 304.9078 304.0693 300.7585 303.5444 298.1975 302.1198 296.2691 299.3676 292.6215 296.2301 291.6425 295.0811 291.1884 293.9553 291.1472 293.0671 291.6383 291.37 292.3163 289.6983 292.4324 288.7689 291.0447 285.625 289.0952 282.6543 288.1997 281.7207 285.8098 279.7416 283.5688 278.2483 282.9996 277.4732 282.8253 277.075 283.8846 277.2662 284.3778 276.6589 285.0864 276.4509 285.6546 277.2577 286.2914 277.4056 286.3199 276.0496 286.6768 275.4086 286.4329 275.1139 286.2164 274.8541 285.2459 274.55 284.175 275.0072 283.3523 275.5881 282.2445 276.0813 281.8126 276.5998 280.6847 276.6167 280.238 276.7508 277.9906 277.7414 276.5565 277.7668 274.3409 277.4204 275.0738 276.0559 275.9471 275.247 276.6706 274.3176 277.8745 271.0586 277.6453 268.2378 277.0645 267.0772 275.2058 264.7422 274.3609 263.3028 273.3122 261.8169 272.7937 262.6818 272.4801 263.5932 271.4736 264.9123 270.9857 267.8471 269.013 272.3407 267.658 272.3956 266.5027 272.215 264.4782 272.7272 263.0948 273.3513 261.856 273.3524 261.1717 273.5509 260.274 273.3872 261.687 269.8842 262.9216 269.9803 264.2585 269.8378 264.8679 269.8969 265.7613 269.8568 266.4457 268.2473 266.8639 266.4446 266.5999 265.2819 266.4964 264.078 266.7625 262.7072 266.8734 261.7229 268.5663 258.4565 269.9772 256.7699 271.6099 255.4287 271.4166 254.1551 270.8981 252.5626 270.7502 251.3375 271.5285 250.952 272.2667 250.1853 271.4082 246.6866 270.8664 245.6379 270.0025 244.604 269.9877 245.9431 270.086 247.2547 268.8884 248.9286 267.3317 250.1304 266.3158 251.2594 265.3632 253.8182 264.0991 255.9737 262.9416 256.7689 261.9056 256.9474 260.8464 257.279 259.1915 258.1386 257.5916 258.862 256.4056 259.8093 255.3759 260.3046 252.0282 264.6166 250.499 266.057 250.1843 266.6389 249.5401 267.1279 249.6658 267.808 250.1843 268.2727 250.7028 270.1863 250.3913 270.5981 249.8442 270.3827 248.4734 269.3161 247.6096 269.7047 246.9073 270.1419 245.1046 268.1797 244.3569 267.7182 243.4106 266.9304 242.3989 266.2503 241.968 266.1732 241.2351 266.3147 241.3059 265.7825 241.8075 265.3505 242.249 265.2502 243.0674 265.8807 243.9999 266.4436 244.5259 266.49 244.7709 266.264 243.8838 264.0421 243.2786 262.0947 243.0009 261.5191 242.2722 259.5453 241.91 258.9719 240.3597 257.5768 238.7016 255.9399 238.2465 253.9745 237.6445 252.7167 236.8662 251.9257 235.6622 251.2224 232.3483 250.951 230.967 248.9402 230.176 246.4479 230.8033 246.2832 231.5467 246.2525 231.7854 245.4753 231.6228 244.284 228.3352 242.8045 226.7839 241.2594 225.4712 240.593 224.2387 240.3301 222.6081 240.3903 220.5699 240.3396 215.6529 237.8789 214.4764 237.804 210.9618 238.5686 209.7832 238.4292 204.4469 235.0677 200.8995 233.4698 199.7294 233.172 198.2013 232.8985 196.9646 233.2893 196.087 233.6568 194.3012 234.0697 187.2371 233.8004 181.1711 234.321 177.0492 234.6748 174.4376 235.1363 170.1108 237.1376 164.9371 239.0712 160.7234 239.9879 156.8497 241.2077 154.3004 241.5625 151.0044 241.7146 144.0533 241.1295 141.6814 241.5636 137.8996 243.8225 136.777 244.3706 134.6458 244.9969 129.1543 247.8979 126.6218 248.5189 124.9849 248.7163 123.5846 249.331 122.312 250.5655 120.5938 253.9925 119.525 255.6157 117.1679 258.2104 115.6154 259.0743 114.0862 258.9571 112.3796 259.8537 110.8652 258.9053 109.655 258.7237 107.7287 258.7997 100.9529 259.8917 99.9814 258.6223 98.7405 258.4311 96.397 258.4935 92.8867 258.1069 86.5006 258.5885 83.4295 259.1123 82.2161 259.5812 79.9561 259.2823 76.1141 259.7069 74.7624 260.4292 73.7464 261.0745 71.7505 263.9628 69.5559 264.9165 67.7574 264.9482 65.7456 265.1699 61.6882 267.9516 57.5294 270.6499 56.1333 270.9382 54.583 271.3891 52.5532 271.6046 51.5425 271.8517 46.806 271.1589 43.7941 271.0818 40.0282 270.6636 36.7829 269.3435 34.2916 268.5779 31.4751 265.6695 29.7315 264.5849 26.6235 263.2669 25.7279 263.3165 25.0045 263.6767 23.7161 262.7473 23.6823 261.5497 23.3338 260.5338 23.3581 257.863 23.5545 254.7391 24.6909 255.4414 25.5853 256.1247 27.5011 256.0867 29.1939 254.9123 30.1581 253.192 31.0072 251.252 30.8763 249.1895 30.3102 245.565 30.6967 244.8036 31.2765 244.4942 31.4655 242.6893 31.6028 237.1397 31.1741 235.0487 28.5371 230.8096 26.804 227.125 25.5336 225.4617 24.4638 222.7845 23.5619 219.0619 23.2842 217.181 22.9948 213.7129 23.3116 211.7465 23.1775 210.5985 22.0728 207.4556 19.6027 204.5229 19.194 203.4404 19.2067 202.2999 18.6184 200.9661 16.6299 198.2847 14.5927 195.9677 14.2505 194.8409 13.8714 190.1667 13.111 188.0366 9.664 182.6348 5.5939 177.9807 4.4914 176.0776 3.9908 175.4377 4.2717 175.3511 4.73 175.6003 5.238 176.065 5.4883 176.104 5.727 175.7196 5.7006 174.8304 5.8431 174.3372 6.199 174.6086 6.6151 175.6087 7.9035 178.1898 8.2827 179.5025 9.927 179.9027 10.4318 179.5584 11.038 178.8805 11.2154 177.0587 10.3821 176.235 9.6323 175.8854 8.3629 174.5337 7.5445 172.3677 6.2677 170.3664 6.2899 169.6514 6.8739 169.1319 7.8264 169.4138 8.7104 170.5649 9.7041 171.6369 9.5394 173.5124 9.3852 174.0257 9.4729 174.4587 9.8193 174.8705 10.2744 175.1948 10.7718 174.7195 11.227 173.6233 11.5079 173.7659 12.1838 176.2646 12.7203 176.9436 13.7837 177.7241 14.7099 177.1168 15.1397 176.5972 15.0056 174.8336 15.2781 173.1291 15.1239 171.8618 12.7287 168.5447 10.5617 164.445 9.2469 162.4047 8.1485 159.3326 7.4378 158.2691 6.5095 156.5498 6.4588 154.5855 6.5486 153.2697 7.29 150.4288 7.9722 148.9493 10.1794 145.5466 10.2871 144.0797 10.2639 142.9761 10.5891 141.2801 10.5912 140.1005 10.2966 139.0011 9.3768 137.1075 10.5902 133.802 12.357 129.5524 13.054 128.9283 14.147 128.3569 14.3487 129.2345 13.8101 132.1715 14.579 133.707 14.3382 135.4347 15.0257 135.1401 16.0891 134.8106 16.8918 133.9034 17.3163 133.0332 19.326 129.5851 20.4771 128.301 22.0971 127.3547 25.3699 126.2152 28.554 124.7135 30.0673 123.2688 31.964 122.0163 33.2841 120.6582 34.5535 119.7246 40.9871 116.2966 42.078 115.6524 43.4794 115.5795 45.1987 115.6936 46.7532 115.513 48.4155 116.2934 49.6427 116.3811 52.6451 115.5331 54.2503 114.7737 57.0077 113.1136 58.218 112.6394 61.0197 112.1146 64.19 111.4144 68.0077 108.5313 70.7577 108.7151 73.2142 108.996 75.1806 108.1321 79.8146 107.603 82.3819 106.8733 87.1913 104.9597 88.4839 104.3039 90.4503 102.9362 92.158 101.2275 93.8435 98.9189 94.8805 96.8501 95.3262 95.7845 96.3136 94.0906 96.9937 92.7494 97.5228 92.1126 99.3878 91.2107 102.1547 88.674 103.0556 88.1639 103.2235 87.3529 102.6268 86.8987 101.8876 86.6136 101.3891 83.9291 100.9149 82.0767 100.8685 80.7725 101.0533 79.5316 102.1421 77.6074 102.9183 76.7816 103.9923 75.8195 104.9713 75.5217 105.7866 74.6789 107.1109 73.8436 107.6696 73.0051 108.4912 71.2995 109.2347 70.0037 109.8176 70.0491 110.9392 73.061 111.671 74.6589 113.0101 76.5376 114.2784 79.3056 115.3123 80.5729 115.814 81.3924 116.2237 81.7726 116.3146 81.2466 116.21 80.632 116.7085 78.5178 116.4751 77.034 116.5532 76.4679 116.8141 76.2293 117.3157 76.3908 118.2862 77.2188 118.7752 77.5145 119.1216 77.4458 119.1047 76.1057 119.5905 75.2598 119.3951 74.6768 118.5492 74.7096 118.1912 73.9872 117.4931 73.1508 116.7 72.5499 115.7358 71.1728 115.438 70.6321 115.8129 70.3818 116.4212 70.4177 116.9038 69.8273 117.1256 69.0353 116.699 67.7479 117.1362 67.2706 118.0169 67.4068 119.4257 69.4598 120.0319 69.2571 120.5304 68.4281 121.4291 68.1904 122.3521 68.3404 122.9604 68.9329 124.1971 69.5243 125.8445 69.4567 126.6799 69.5992 128.4361 69.501 129.2968 69.6795 129.1353 69.3627 128.1859 68.9888 127.1161 68.9138 125.8636 68.9508 125.3271 68.5579 125.1475 67.5209 125.4517 66.769 125.6481 66.4479 126.4634 66.5831 127.1868 66.5546 127.2755 65.5429 127.53 64.6494 127.962 63.9218 127.9599 63.2216 127.5089 63.4075 126.4021 65.0275 125.872 63.7095 125.0757 62.7105 125.2373 61.2795 125.702 59.8485 126.4169 59.6521 127.0221 59.8781 127.9166 59.0406 128.4203 58.4007 128.3041 57.8747 128.4383 57.4703 129.0645 57.5959 131.4607 58.8833 131.9402 59.556 132.4439 59.2941 132.6055 58.5612 132.5517 57.8283 132.0226 57.9391 130.7806 57.8642 130.4944 57.4523 130.6021 57.1122 130.0224 56.2494 130.8345 55.7003 131.5325 55.6644 132.0152 55.2884 132.0226 54.7752 132.1757 54.5555 132.5517 54.8607 133.8031 55.0022 135.0324 55.6665 135.609 55.8069 135.8244 55.45 135.9131 54.6801 134.3934 53.9113 134.3523 53.1551 133.7133 52.2839 133.6954 51.4264 134.6448 50.7093 134.8402 50.0133 135.3904 49.7303 136.4771 49.7187 137.21 49.1283 138.0327 48.9224 138.2333 47.6076 138.2196 46.7047 138.5512 46.4723 139.3823 46.8483 139.1299 47.8927 139.1268 48.8897 138.9177 49.423 139.2302 49.3786 139.4235 49.1569 139.7488 48.5021 140.6253 48.7703 140.8418 49.4705 140.9559 50.1559 141.3941 50.3798 141.994 49.3248 142.8008 49.0449 142.7565 47.7122 143.0617 46.7575 143.1567 46.0404 143.6679 45.6908 143.7809 44.9305 143.3711 44.4056 143.1599 43.4509 143.8643 43.2397 144.5697 43.7191 145.045 44.9231 145.3724 45.4659 145.8085 45.1702 146.0704 44.3686 146.9364 43.9018 147.7939 44.5503 148.7381 45.4374 149.9209 44.6633 151.0192 43.2122 150.8439 42.3241 150.9643 41.4095 152.3445 40.9301 153.4566 41.2828 154.4641 42.2628 156.5604 42.9915 158.3399 44.037 159.134 44.7203 160.6674 45.807 161.6475 46.9349 162.9897 48.9435 166.1569 51.3926 166.3618 51.8266 165.9341 52.644 165.5507 53.6906 165.0755 55.4627 164.9561 58.0722 165.4134 57.8853 165.8865 56.9507 166.3871 57.1429 166.9595 57.7396 167.006 57.1672 166.6628 56.8208 166.0756 55.6168 166.0978 54.9779 166.5667 54.4647 167.289 53.85 168.079 53.4477 168.5658 53.096 168.6376 52.6609 169.3684 52.2184 170.4319 52.0727 171.0782 52.1424 175.6489 53.2608 176.8053 54.377 176.914 55.7552 177.3534 56.2442 177.592 55.3782 177.5456 53.4952 177.9131 53.1214 179.1424 53.4128 179.983 53.7888 181.1521 55.0233 181.3749 55.6285 181.8839 56.0224 182.0518 55.45 181.8132 54.6389 181.6452 53.7096 181.9093 52.8996 183.2758 52.8352 184.1978 52.6609 183.7616 52.3451 183.1681 52.2353 182.1891 51.4929 181.5586 50.6945 182.5746 49.9183 182.5672 49.725 181.5935 49.7493 180.2523 48.9932 179.1149 47.9413 179.9851 46.0055 181.7202 44.112 182.696 43.4805 182.7879 42.8416 183.2568 41.663 183.5546 40.6682 183.6402 39.8951 184.0911 39.0788 185.162 38.3078 186.6193 38.0322 187.3037 37.7312 187.9891 37.0205 188.6428 36.1513 187.2931 34.4563 187.4051 33.5228 187.6522 32.4224 189.2722 31.6166 190.1582 29.5076 190.7454 29.1908 192.018 29.2531 192.5112 29.064 192.4256 27.3817 192.5671 26.7301 193.1047 26.4693 193.7943 26.6942 194.2315 27.425 195.2137 28.1009 195.5474 27.7313 195.3816 26.9899 195.2834 26.0395 196.1789 25.8346 196.9013 25.7765 196.9731 25.0003 196.859 24.3814 197.142 24.1195 199.0261 23.9928 199.5182 23.356 199.8012 22.8026 200.041 23.1057 200.3472 24.3402 201.3874 25.0636 204.5018 25.0763 206.2507 24.5768 206.9941 24.8725 208.1548 25.1048 209.4337 24.5229 210.2004 24.0804 211.4856 24.6549 211.907 25.2601 212.2375 23.9759 212.9831 23.5271 213.7752 23.2609 214.7763 23.4753 215.1702 23.4035 214.28 22.4488 214.3317 21.5786 214.2736 20.2934 214.4342 19.118 214.7531 18.2731 212.6008 16.5697 210.4675 16.312 208.9067 16.6689 208.2498 16.388 206.8632 15.0236 205.542 14.5251 205.4269 14.1893 207.0459 13.2103 207.6626 13.3782 208.6057 14.2949 209.1432 14.6191 209.6005 14.5526 209.8952 13.8365 210.3028 13.4606 211.0737 13.6718 213.489 15.2221 214.846 16.7217 215.5409 16.3257 216.7311 15.484 217.8548 15.6593 218.5454 16.1515 219.5128 17.9785 220.2795 18.8856 222.1276 19.1296 223.0686 19.477 224.0423 20.0811 225.3539 20.0283 228.0543 20.2522 230.5984 21.4213 231.6545 22.1521 232.8869 22.3474 233.604 22.6389 234.9093 22.7266 236.9876 21.8997 237.9191 22.66 238.3331 23.1775 240.2255 24.1639 242.2616 24.4659 243.7148 23.4658 245.8386 22.7244 247.3181 21.5944 248.4312 21.0632 249.4778 20.1402 249.8801 20.1846 249.0268 21.0463 248.9233 21.5353 249.5918 21.7391 249.5232 21.9905 248.6023 22.6611 247.5019 23.7076 247.5219 24.3381 247.9496 24.6824 248.4566 24.5293 249.1768 23.9991 250.0459 23.714 250.8105 24.1385 251.0587 25.6466 251.6036 26.6372 252.8023 26.7745 253.5373 26.7597 254.2713 25.3731 253.8753 24.1924 253.4211 23.94 253.6398 23.4922 255.5132 21.5438 256.5608 21.6103 257.3128 23.5133 258.4987 24.5177 259.7639 24.4384 260.424 24.7025 260.9647 25.8525 256.526 30.5499 256.3179 31.0748 256.9157 31.9271 257.1459 32.924 255.7044 35.3181 255.1732 35.4364 254.661 34.7901 253.8995 34.375 253.2311 34.6665 252.515 34.8408 249.9329 36.1735 249.953 39.6047 250.6057 41.644 250.2265 42.9926 249.4577 45.3529 248.6245 46.2294 247.956 46.7965 245.7319 50.0228 245.0222 50.798 244.2861 51.8963 244.5332 52.9503 244.8068 53.68 245.6442 54.5154 248.9086 56.2431 250.3892 57.4333 252.9396 58.8738 253.5225 59.8665 253.87 60.6765 255.7139 61.5974 257.0297 62.1518 257.4099 62.0092 257.6845 61.817 258.014 61.8149 258.3414 61.9216 258.2896 62.6429 258.145 63.0379 258.2685 63.5406 259.2042 64.1816 260.6964 64.1615 261.5561 64.0094 262.5044 64.6906 263.3598 65.1321 264.7697 66.0424 267.2251 67.1323 269.1429 67.8451 271.405 70.4789 273.1211 71.9976 274.9967 73.0938 277.8153 73.8637 279.1132 73.7369 281.218 74.6325 283.2678 75.0507 284.3545 76.2916 284.7242 77.2325 284.8277 77.9538 285.8478 79.6932 287.9251 80.255 290.6191 81.987 292.8348 82.7505 293.3913 83.2078 294.3629 83.7379 296.2427 83.7569 299.5028 82.8931 300.9877 82.0197 302.9562 80.6215 303.8792 78.2221 304.422 76.2968 307.1593 72.3133 307.9408 70.3374 308.6357 67.7163 309.244 66.0772 309.0413 64.2946 309.6728 61.0567 311.0774 56.6243 311.5537 55.1237 311.316 52.9186 310.4448 48.7809 310.8345 47.351 311.2168 45.3497 310.58 43.8987 309.9875 42.9049 309.8998 41.5077 310.5662 38.8718 311.1566 37.4799 311.7691 35.6846 311.4248 32.2713 312.7333 31.0822 313.2486 30.4897 314.2604 30.4845 314.7419 30.7516 314.8444 30.0694 314.4452 29.4368 314.2878 28.7008 314.0048 28.3269 313.3817 28.196 312.8642 27.7936 312.1187 27.3828 312.2359 25.8652 313.5032 22.9346 314.2033 21.8046 314.6627 22.2767 315.1834 22.6558 315.2552 21.812 315.0799 20.946 316.042 18.0862 317.1065 14.2093 317.4244 10.6768 319.1341 10.002 320.0033 9.1159 320.5398 8.0894 321.4955 8.0894 322.1471 8.5319 321.7183 9.3018 321.5811 9.8963 323.4228 11.3675 324.0354 12.5017 324.2909 13.5683 324.6532 14.5737 324.8274 15.9286 324.8021 18.0925 325.0397 20.1371 325.704 20.7792 326.2932 21.1931 327.136 21.2481 328.3526 21.5765 Z M 435.397 170.7719 435.1214 171.0697 434.6346 170.5354 434.3072 168.6154 434.549 167.5023 435.1172 166.4843 435.2165 165.9214 434.9714 164.7418 436.6062 163.4153 437.0202 162.7152 437.1765 161.8154 436.5746 160.8428 436.1141 160.6505 436.5165 160.1098 436.9727 159.8363 437.3381 159.7212 437.6106 159.8226 437.7816 161.7362 438.4449 162.4121 438.3466 163.3351 436.0888 168.1983 435.4657 170.0337 435.397 170.7719 Z M 288.6527 71.5223 287.8174 72.4739 287.395 72.3397 286.9926 72.8583 286.2217 73.1054 285.7464 73.0969 284.8868 73.3462 284.758 73.0452 284.9206 72.0937 285.6345 71.0302 286.3294 70.3786 288.1237 70.0671 289.5187 69.5992 289.6983 69.6858 290.7068 70.894 289.2135 71.0513 288.6527 71.5223 Z M 258.447 41.5764 258.9159 42.0252 259.4186 41.9935 259.86 41.004 260.1346 41.1413 260.3521 41.3895 260.5116 41.8256 259.8347 42.5786 259.5316 42.6948 259.2422 43.1108 258.7786 44.4827 258.8282 44.9431 259.2295 45.4036 260.2941 45.8302 260.8179 45.6327 261.0006 45.6898 260.7904 46.3572 260.3902 46.8662 258.9719 46.654 257.7447 46.73 255.6991 46.2337 254.6472 46.1724 254.3463 45.9876 254.9598 45.5947 255.3442 45.0646 255.1647 43.8174 255.3115 42.2354 256.4911 41.4665 257.0213 40.6808 257.8091 40.1919 258.3097 40.2542 258.2453 40.7357 258.447 41.5764 Z M 190.8003 18.6005 191.6927 18.8582 192.1046 19.2257 192.3517 19.6164 192.3897 20.0853 191.2682 20.2913 189.2669 19.6006 187.253 20.1709 186.6616 20.1814 186.3015 19.7685 186.613 18.6163 187.3375 18.7927 187.9701 18.3724 187.8571 17.1072 187.4864 16.4186 188.5498 15.1535 189.023 14.8968 189.5024 14.899 189.908 15.7977 190.0041 16.7682 190.5141 17.6585 190.8003 18.6005 Z M 192.526 15.3214 193.9685 15.4112 195.7047 14.599 196.5116 14.9296 196.897 14.8704 198.1685 14.0995 198.9965 13.8777 199.5488 13.3075 200.1138 13.9242 201.3727 14.6413 201.7666 15.3911 202.2957 15.7449 202.472 15.9793 201.7074 16.765 201.6071 17.612 200.7876 17.5539 199.8065 18.9427 196.1177 21.2734 192.8079 19.2827 191.3696 17.9362 190.4054 16.0754 190.211 14.5526 189.8192 13.5789 189.9924 13.3328 190.191 13.2061 190.4476 13.2346 191.4477 14.2769 191.887 14.5631 192.526 15.3214 Z M 3.9718 174.0415 3.6845 174.4893 1.6062 171.1215 1 168.815 1.4203 168.4011 1.8026 168.2786 3.034 171.4668 3.4152 172.1976 3.4184 172.9474 3.5969 173.184 3.9718 174.0415 Z M 267.9833 278.7827 270.5728 279.0362 271.5782 278.6465 272.8507 278.9612 273.6819 280.012 273.0662 280.5337 272.4758 280.6097 270.5686 280.1788 268.788 280.5052 268.2621 280.9392 267.9157 281.9023 266.3823 282.4177 265.6663 281.8347 263.7992 281.4187 263.1307 282.0312 261.8127 281.8675 260.5887 282.1135 258.8842 281.9668 257.091 280.9096 256.5651 280.4207 256.9812 279.5399 257.6254 278.8925 262.5255 277.9737 265.1456 277.2018 267.2694 277.338 267.8587 277.5017 268.4047 277.8935 268.0013 278.6053 267.9833 278.7827 Z M 353.3076 307.0749 351.678 307.7898 351.0771 307.4614 351.1373 306.9249 351.2398 306.6862 352.6591 306.6345 353.3076 307.0749 Z M 351.4468 308.5449 351.8227 309.0571 351.8861 309.2609 350.9757 308.8575 349.4349 308.943 350.4012 308.1964 351.1595 308.3432 351.4468 308.5449 Z M 391.776 111.7344 391.5183 111.8537 391.1667 111.8453 390.6418 111.6499 391.098 110.2421 391.3504 110.9772 391.7929 111.5834 391.776 111.7344 Z M 390.6059 110.2031 390.3672 110.2506 390.08 110.1344 390.2912 109.6845 390.5636 109.3276 390.9554 109.0615 390.8298 110.0383 390.6059 110.2031 Z M 414.5164 146.3323 414.886 146.6069 415.224 146.5731 415.5281 146.7526 415.4056 147.4581 415.8977 148.2533 416.1301 148.8141 415.7594 149.2682 415.508 149.4139 414.923 149.0348 413.2914 146.7579 413.5797 146.0049 414.5164 146.3323 Z M 407.7047 133.6985 407.3995 133.7218 407.1176 133.538 407.3583 133.1071 407.3995 132.4893 407.7565 132.6794 408.0522 133.5296 407.7047 133.6985 Z M 401.3419 132.2982 400.967 132.6245 400.7061 131.8367 400.7695 131.0108 401.1687 130.7373 401.3377 131.8251 401.3419 132.2982 Z M 440.3859 189.0008 439.4555 191.9779 439.1725 191.9208 438.8398 191.473 438.8947 189.7495 439.2686 188.665 440.2032 188.8498 440.3859 189.0008 Z M 439.3446 187.6986 439.1112 187.8602 438.6318 186.8263 438.5072 185.7829 438.6677 184.8156 439.2348 184.6044 439.6076 184.6931 439.1704 186.4599 439.3446 187.6986 Z M 318.5755 8.0619 317.6736 8.6808 317.0875 8.3555 316.9607 7.6691 317.0209 7.3681 317.7443 6.8422 318.5755 8.0619 Z M 319.2693 2.5186 318.6251 3.1892 317.9418 2.9886 317.7137 2.5957 317.9693 2.0561 318.8342 1.9589 319.2693 2.5186 Z M 317.4159 2.1068 317.1392 2.4004 316.6598 1.7572 317.2131 1 317.6799 1.3622 317.4159 2.1068 Z M 361.8702 89.4544 362.092 90.4799 362.5587 91.2804 362.3972 91.8052 362.092 92.196 361.4087 91.8285 360.9292 90.878 360.1171 90.1155 359.9291 89.6762 360.8796 89.7132 361.3569 89.5643 361.5544 89.3963 361.8702 89.4544 Z M 257.1913 15.352 256.413 16.0004 256.3602 15.5136 256.7721 15.125 257.7373 13.543 258.1587 13.1754 258.4026 12.9674 258.5843 12.3876 258.6318 11.5206 259.1567 11.3896 258.7364 13.3592 257.1913 15.352 Z M 254.3811 17.7683 252.6682 18.573 253.6102 17.4884 255.5766 16.5221 255.9019 16.293 255.8068 16.7619 254.8215 17.5613 254.3811 17.7683 Z M 262.5456 62.9259 262.083 63.4265 261.4948 62.9006 261.3712 62.362 260.9129 62.2078 261.1368 61.7104 261.3786 61.5668 261.6363 60.9437 262.2309 61.6798 262.3016 62.4929 262.5456 62.9259 Z M 260.048 61.2151 259.8759 61.2953 259.8632 60.3945 260.2011 59.9457 260.3458 60.8793 260.048 61.2151 Z M 257.11 61.3048 256.4626 61.3503 256.2799 61.2953 256.1553 60.8169 256.3697 60.385 257.0561 60.2826 257.3402 60.3956 257.11 61.3048 Z M 288.1268 77.3783 287.7213 77.5631 287.5756 77.1195 288.1268 76.6707 288.4901 76.036 289.2177 76.5936 289.335 77.1607 288.1268 77.3783 Z M 253.286 41.7992 253.0293 41.9228 252.0451 41.7137 252.0409 41.324 252.1718 41.0272 252.4443 40.8498 253.0484 40.0715 253.5025 40.5245 253.6968 41.438 253.286 41.7992 Z M 213.8787 14.5293 213.6653 14.6972 212.8015 13.0244 213.0454 12.5091 212.6937 11.6579 213.2778 11.5618 213.7213 10.9176 213.8776 11.2291 213.9167 12.4056 214.2652 13.0836 213.8787 14.5293 Z M 133.9129 49.9637 133.2201 50.6364 132.7491 50.0957 133.0322 49.0175 133.4926 48.6288 133.9055 48.8316 133.8559 49.6733 133.9129 49.9637 Z M 127.4075 58.8579 126.9999 59.1631 126.6176 59.0691 126.6123 58.6467 126.1698 58.1915 126.4 57.6741 126.5648 57.4037 126.9059 57.4343 127.0537 57.8726 127.492 58.3669 127.4075 58.8579 Z M 28.4462 117.1013 27.8179 117.9472 27.0607 117.7804 26.9582 117.3537 27.4525 116.6525 28.3206 115.8055 28.5698 116.3283 28.4462 117.1013 Z M 348.5109 333.3731 349.7623 333.4154 350.472 333.1398 351.1067 333.1915 351.8248 333.8019 352.6897 334.1462 353.2928 334.0828 353.8155 334.2085 354.2802 334.6425 355.4651 335.0206 355.9815 335.2688 356.4314 335.649 356.9299 335.9457 360.0622 336.9564 362.2937 337.4475 365.0722 337.2194 365.8959 336.9363 366.6838 336.5234 367.3607 336.9089 368.0324 337.4971 367.9014 336.8624 368.1242 336.3101 368.8033 335.8718 369.5647 335.5972 370.8183 335.6173 372.0412 335.5001 372.583 335.2445 373.1406 335.2086 373.8671 335.5233 374.5927 335.6976 375.0901 335.292 375.9392 334.3342 376.3975 334.0005 378.517 334.2919 379.1148 334.3014 380.1508 333.2961 380.8436 333.3108 382.8163 334.1103 383.6559 335.1072 383.5756 336.9268 383.6421 337.5679 383.8006 338.2004 383.865 339.4614 383.6231 340.7086 383.5915 341.6813 383.696 342.6676 383.5988 344.501 383.903 345.7123 383.7509 346.5392 383.7488 346.9257 384.0361 347.2911 384.1744 347.6956 384.0688 348.2152 384.1934 348.8224 384.0709 349.323 383.6284 349.2512 383.4837 348.8668 383.5661 348.3694 383.4858 347.9691 383.2546 347.6037 382.4689 347.194 382.6991 346.9479 383.1014 346.7303 382.7994 346.1696 382.2967 346.6268 382.0158 347.2489 382.1784 347.4485 381.8679 347.6153 381.209 348.3356 380.7348 349.2998 380.5415 350.2259 380.5901 351.2081 380.2025 351.9642 379.6713 352.6845 379.5383 353.6149 379.5699 355.3225 380.0314 356.8802 380.2817 359.0061 379.8984 359.2744 378.743 359.418 378.1728 359.6873 377.2328 358.6333 376.6816 357.5308 377.1072 357.0904 378.0439 357.3449 378.3301 357.0946 378.4061 356.8116 378.3259 356.5307 377.1737 355.9234 375.88 355.6394 375.4692 355.9889 375.6118 357.0323 375.4787 357.2699 374.5663 357.6691 374.0868 356.16 372.8966 355.0469 372.9399 355.5834 373.4342 356.5138 373.3803 356.9235 373.1892 357.4537 372.7108 357.6512 372.4837 358.0768 372.4837 358.6756 372.3242 359.6429 371.5438 360.0749 369.6418 358.9987 369.5109 359.361 369.5394 359.6735 370.511 360.2914 370.0632 360.7581 369.7252 361.3052 369.1845 362.7414 368.3112 363.9316 367.8824 364.0056 366.4218 363.8176 364.7923 362.8111 363.3286 362.9262 360.8796 362.8534 359.3272 363.2251 359.0019 362.1184 358.6629 361.7244 358.8002 361.3749 360.0368 361.1404 361.3083 361.1499 361.1098 360.7275 360.7687 360.5712 360.2132 360.6736 358.5932 360.3051 357.4896 360.4698 356.7271 359.9471 355.4165 358.1296 354.6424 357.2889 354.182 356.9616 353.6434 356.782 353.3192 356.5148 350.9462 352.3803 350.6103 351.4204 350.1964 348.9903 352.0793 350.1541 352.7489 350.8902 353.1101 351.8238 353.7479 350.6917 353.6328 350.3273 351.9431 348.9544 351.7192 348.5563 351.6263 348.0842 351.2303 348.5595 350.5861 348.6239 350.8469 347.6544 350.622 346.706 348.645 344.6203 347.1327 342.6444 345.6447 340.2091 345.5169 339.8976 345.4979 339.3727 344.7777 337.7421 344.3954 336.5329 344.219 335.4726 344.9065 333.332 345.0026 332.1354 346.084 332.6698 348.5109 333.3731 Z M 336.4526 326.1211 336.1369 326.1655 335.8887 325.5572 336.0165 324.688 335.4863 323.8284 335.7747 322.9645 335.7377 322.032 335.9278 321.6212 336.5762 321.1681 336.6786 320.3634 337.2405 320.3254 338.2195 320.9516 338.5394 322.5431 338.3789 323.5031 338.757 324.3659 338.4423 325.1041 337.6112 325.7113 336.4526 326.1211 Z M 380.4929 322.2443 382.4129 324.2001 383.4088 324.5053 383.7045 324.7112 383.6231 325.573 383.2007 325.9416 383.9843 326.4274 383.8798 326.7421 383.7266 326.7305 382.7635 327.3926 381.6314 327.6999 381.285 327.4697 380.9956 327.1666 380.757 326.7252 379.3049 325.0228 379.4717 324.556 379.1507 323.8432 378.4589 323.897 377.971 323.463 378.7494 323.0437 379.7643 321.9021 380.4929 322.2443 Z M 373.525 361.6009 373.0149 362.7235 372.1774 362.5323 371.3379 362.7171 370.8098 361.9705 370.8067 361.773 371.4382 361.961 371.6716 361.7181 371.8205 361.4087 372.0507 361.3242 372.2049 360.8817 372.7445 360.3241 373.054 360.3389 373.3782 361.0528 373.525 361.6009 Z M 381.6166 354.1767 381.0094 354.2717 380.8098 354.2242 380.8224 353.6677 380.7348 353.4195 381.2734 352.9084 382.0327 353.1544 382.3221 353.542 381.5765 353.8535 381.6166 354.1767 Z M 374.3741 359.9112 373.6961 359.9122 373.4468 359.8214 373.3254 359.2902 372.8766 359.0568 373.1258 358.8794 373.2145 358.5478 373.487 358.176 373.9706 358.5869 374.3741 359.9112 Z M 345.7144 330.3454 345.3215 331.2399 344.9118 330.1131 345.3553 329.9504 345.7038 329.5681 345.7841 329.6273 345.7144 330.3454 Z M 384.0171 328.1847 385.0383 328.8363 385.617 329.5417 384.8577 330.1268 384.3032 330.2429 383.9431 329.565 382.8036 329.8131 381.5976 329.7498 380.7063 329.2365 380.6017 328.9809 381.1245 328.7243 382.6315 328.7359 384.0171 328.1847 Z M 383.0507 330.4362 382.5195 331.2737 381.8616 330.7478 381.7571 330.5049 382.5776 330.3063 382.8501 330.3274 383.0507 330.4362 Z M 498.134 483.9394 497.7707 484.366 497.6704 483.8771 498.3305 481.7364 499 481.3721 498.8564 482.482 498.134 483.9394 Z"/>
</g>
</svg>