<?xml version="1.0"?>
<svg xmlns="http://www.w3.org/2000/svg" version="1.2" baseProfile="tiny" width="500" height="101" viewBox="0 0 500 101" stroke-linecap="round" stroke-linejoin="round">
<g id="ne_50m_admin_0_countries-Australian Indian Ocean Territories">
<path d="M 499 4.4865 497.4043 8.4702 494.4643 6.2789 491.0926 5.5794 491.7429 2.623 494.5299 2.2077 495.8906 2.0492 497.8852 1 499 4.4865 Z M 1.8142 98.9923 2.4591 99.271 3.3225 98.9704 3.6722 99.3202 2.3224 99.8612 1.5027 98.8721 1.1038 97.2491 1 95.8774 1.3771 95.8774 1.3771 96.4294 1.4645 96.8829 1.7596 97.7846 1.5465 98.4021 1.8142 98.9923 Z M 6.1696 99.6808 5.5138 99.9978 4.9673 99.7573 4.8089 99.5934 4.7542 99.2929 5.3936 99.2546 5.8963 98.9923 6.2078 98.5169 6.2953 97.8556 6.563 98.5114 6.5084 99.1508 6.1696 99.6808 Z"/>
</g>
</svg>