<?xml version="1.0"?>
<svg xmlns="http://www.w3.org/2000/svg" version="1.2" baseProfile="tiny" width="500" height="172" viewBox="0 0 500 172" stroke-linecap="round" stroke-linejoin="round">
<g id="ne_50m_admin_0_countries-Austria">
<path d="M 1.2297 114.0377 6.5565 106.1304 7.6538 101.215 2.984 98.3347 1 97.4798 2.6268 96.8387 9.2678 97.3714 13.4846 95.7446 15.6919 94.1274 21.5865 95.6457 30.2371 98.7142 34.3199 100.7876 36.0041 102.3888 36.9419 103.7317 36.4252 106.0283 38.3964 106.9278 42.4665 107.2755 45.1778 107.9836 44.2272 111.0043 44.0486 113.5114 47.8125 113.1637 52.5269 111.2499 56.2079 107.8113 58.479 104.4845 60.2078 96.3793 60.8011 95.6936 63.6336 96.3315 75.123 95.9774 80.5391 97.4862 89.1259 97.7414 88.9664 99.0109 90.4911 100.9917 94.2933 103.8497 96.1688 105.7157 100.1624 106.0442 106.3058 105.014 109.9102 103.9486 111.2626 104.7045 116.8829 103.9677 121.8589 101.6584 123.0902 99.9008 128.1172 98.6632 134.9113 95.8116 144.2445 93.6075 174.8723 91.2534 176.0588 89.4768 175.6059 85.4035 176.4161 84.8038 180.2757 85.8181 186.4701 86.7687 191.2101 88.2104 194.2913 90.0924 197.143 90.1689 201.5639 88.8516 207.5479 87.9999 213.1363 89.9552 214.7567 92.07 213.7742 93.1545 213.8827 94.8706 215.6179 96.306 220.1601 98.6409 225.9845 100.6504 229.0084 100.4941 230.1312 98.5388 231.2029 93.8914 231.6048 88.9281 230.2651 86.0797 227.1264 85.3812 223.3753 85.1579 221.3849 84.5678 222.0803 83.0048 225.0786 78.957 225.034 73.5441 218.2654 67.3911 212.3963 61.4358 212.4154 59.4104 215.9369 55.8921 221.3722 53.0915 233.4357 48.4281 237.2443 47.4584 242.1309 46.677 249.1611 44.7599 252.5422 42.7919 254.8133 40.6516 258.1115 29.5194 258.8834 29.0441 259.8595 28.3902 272.1782 32.2307 273.2882 31.5959 275.3616 30.9675 279.3742 28.0234 280.2546 25.7874 280.1653 21.5578 280.5225 17.5675 281.2945 16.298 283.1509 16.7605 288.4522 18.8402 292.6627 21.1655 296.6052 27.041 305.798 28.6039 317.4086 28.757 321.5552 26.1415 325.3191 25.5354 329.5806 26.3328 338.5565 27.2547 339.5581 22.5052 344.7382 17.577 347.0859 15.8354 353.6631 16.0077 355.2835 12.3267 356.9038 2.1228 358.2946 1 363.0855 1.2137 367.851 3.0765 369.2864 4.5821 371.7616 4.4609 375.232 3.4338 379.0342 2.7703 385.0437 3.858 397.8791 8.4959 404.501 10.1896 408.6987 9.8643 412.6285 9.9281 427.7861 17.0922 438.376 18.097 448.0409 18.1257 451.1476 15.963 455.2688 14.1321 459.5558 14.3841 463.3069 15.3219 470.605 18.4351 473.9861 19.2325 478.4773 19.7365 481.7755 20.4287 484.6909 25.8384 486.3112 27.2802 486.0306 27.95 485.6733 30.4093 483.1343 33.5066 480.4039 37.5639 480.5825 41.1236 487.5871 53.4583 493.8071 60.9606 494.9873 63.8154 499 66.0099 495.1915 68.7754 494.4514 72.8742 491.9826 74.6987 491.3383 77.04 492.3717 79.1676 492.3526 81.831 493.7242 85.5024 487.6382 86.303 480.4039 86.1754 477.8138 86.3891 475.3896 87.3907 472.8825 86.8931 466.3435 83.4482 462.6498 82.6954 460.0406 82.9027 458.0885 84.3987 454.7265 86.3189 451.5687 87.665 452.2768 88.8516 465.8396 91.9488 468.2446 96.7079 465.6354 100.5898 464.7487 102.4877 461.5717 103.9837 457.6738 105.2978 452.9786 105.6264 452.4235 107.722 454.2672 113.8814 452.7744 115.2147 451.2816 117.1286 452.6851 122.1938 455.5878 122.5543 456.2321 123.7122 455.7153 125.7632 455.205 127.9449 454.1779 130.2575 453.6675 131.2814 451.7409 131.9225 445.7251 131.5812 440.545 133.5589 430.1273 140.656 426.4783 141.8617 422.5358 144.7006 422.7718 150.9397 422.2359 151.5043 421.279 152.7834 408.8199 150.5856 408.3861 150.6207 400.0482 151.4245 394.3449 154.2857 387.4168 155.9189 372.8972 155.0481 358.7667 156.1581 355.4174 156.9906 351.7492 157.4691 348.3107 159.1309 346.3458 161.4754 342.8308 164.445 337.8293 166.7767 332.394 168.563 331.0989 170.0749 329.3127 170.9393 326.2888 169.807 323.8327 169.8676 320.828 169.0957 310.8569 168.2599 299.897 166.8756 294.6786 165.5519 288.7457 164.5056 282.379 163.654 276.6693 163.453 273.7986 163.0639 260.0827 160.7577 251.0367 160.6046 239.0943 159.6413 215.3691 156.1645 208.4601 154.7546 201.851 154.3208 194.0489 153.1183 188.1096 151.1502 184.3075 147.415 180.2501 142.4454 172.8117 135.9543 171.287 132.72 173.5581 129.8843 175.893 127.7472 175.625 126.8253 173.8133 126.3596 160.7545 129.1315 148.0913 132.6338 143.1089 132.7263 138.2797 131.948 131.8811 131.8938 125.7185 132.8316 113.387 133.3132 106.1654 135.8937 101.5659 140.9271 99.0587 144.9877 96.979 146.2923 92.6729 146.7835 86.2424 146.4071 81.7257 145.2269 77.1197 141.7597 69.9684 141.2812 63.4103 141.1887 61.6751 140.5476 61.7899 138.2956 59.1998 134.0501 54.9192 132.72 43.8381 140.7166 40.8142 141.4247 31.8894 139.2143 24.1064 135.7949 23.2516 133.2941 21.9884 131.2431 15.4367 129.3006 7.2646 127.9704 4.6746 127.9768 5.6825 126.7711 6.6522 124.7265 6.0398 123.0965 4.1259 121.4092 3.0733 119.607 2.7671 117.859 2.1866 116.43 1.8357 115.0903 1.2297 114.0377 Z"/>
</g>
</svg>