<?xml version="1.0"?>
<svg xmlns="http://www.w3.org/2000/svg" version="1.2" baseProfile="tiny" width="500" height="313" viewBox="0 0 500 313" stroke-linecap="round" stroke-linejoin="round">
<g id="ne_50m_admin_0_countries-Azerbaijan">
<path d="M 5.3527 200.3303 2.3467 197.2852 1 195.6084 9.801 194.2183 24.4317 190.1262 28.4195 192.1114 32.7028 196.2469 34.84 199.783 35.2136 206.3598 36.9686 207.4328 44.0841 205.2217 47.264 207.8803 52.7461 211.0557 62.2596 214.2052 75.952 209.2834 82.7721 208.0149 88.3846 208.1148 91.408 209.657 92.4767 214.7699 91.382 221.0774 89.792 224.5266 92.6678 227.0418 103.9102 233.1147 108.5756 236.4987 106.2994 242.3502 114.666 256.6377 117.4722 262.2111 120.765 269.0703 103.6321 266.39 72.7721 260.6168 64.2926 257.6412 56.2474 249.6655 51.469 245.8167 44.3882 240.8775 38.5759 239.0139 34.1797 235.5735 31.6776 230.4779 27.9938 225.9123 21.6342 220.517 7.2207 202.2287 5.3527 200.3303 Z M 365.8032 308.4186 363.275 308.2622 345.0561 311.6896 341.2421 310.5906 325.647 295.0085 322.4324 293.2839 315.6992 292.5846 311.7635 290.0216 308.5489 285.847 306.7244 282.741 290.582 274.2962 288.2014 271.2076 287.8626 268.4926 290.2344 266.0425 292.9712 263.9791 300.8426 261.8766 310.0432 260.0695 312.9885 258.7663 314.5002 256.5204 314.4046 252.9235 312.9016 249.3788 299.6784 242.9279 298.2275 240.1521 297.8017 236.7464 298.5576 233.1886 300.6167 230.4084 311.3986 226.6161 317.1761 222.6934 313.5793 218.3103 301.9546 208.3277 288.1493 197.3503 278.9313 197.2504 268.3058 200.4954 251.3119 209.8568 241.9114 213.862 229.6612 220.4866 216.3077 227.8628 205.3694 235.6994 198.558 242.1677 186.4294 244.9913 180.2609 250.4214 159.9395 266.7028 154.2314 266.4986 153.8839 258.4231 154.1619 252.02 152.8761 248.3319 146.2992 243.2798 146.195 241.0991 147.976 239.7481 153.0325 240.5648 159.5138 240.2781 162.6067 238.2972 155.6563 231.6378 149.4878 227.1895 144.2488 224.1878 143.076 222.3893 143.0673 221.1165 144.1793 219.5961 153.1194 215.9297 154.0055 212.5718 153.4148 208.8055 139.2011 203.2669 128.5582 205.3086 119.0187 199.0836 112.8849 194.2704 105.2394 189.1097 98.4106 186.2817 91.8685 179.8091 80.4958 173.128 73.1978 171.2296 73.3021 170.2088 74.6401 168.9794 77.6809 167.9673 97.9588 168.2279 100.4349 167.0203 101.6947 164.1532 104.4662 159.9178 107.6982 153.6797 107.4375 148.4322 87.0727 139.9526 72.2856 132.1464 62.0424 121.8684 55.0832 112.4636 55.3265 109.3054 57.3247 106.3211 73.1631 97.6591 74.2317 95.4132 73.8842 93.8841 68.237 89.4532 61.1388 84.892 58.906 81.5384 54.4403 79.8312 45.9434 79.7095 31.052 74.0971 27.8896 73.541 27.1858 72.4246 27.9069 71.2952 38.5411 69.0232 38.3934 67.1509 35.1702 64.6835 29.158 62.8764 23.6585 58.4064 21.7384 54.3795 40.939 42.6158 46.6124 40.2701 59.184 42.429 85.2829 50.2266 83.5106 54.5532 86.1604 56.9902 92.1465 60.3004 103.6408 63.654 113.3628 65.3829 118.2802 63.9103 125.7693 62.6636 135.4913 66.5254 144.4574 71.4298 148.923 73.4107 151.3209 74.0189 158.1237 72.3855 166.3079 66.0606 169.5137 58.4238 170.4173 54.7487 165.6476 49.6836 155.8474 44.184 144.8309 39.3535 137.7589 35.0963 133.2411 26.695 128.6885 25.7653 127.533 24.675 126.7858 21.8079 126.977 17.7984 128.5408 14.7098 132.9891 13.3848 137.4982 12.9113 141.5642 9.9661 146.6554 4.1929 148.8275 1 158.4191 2.8288 159.7049 7.9982 161.4078 9.0842 165.3869 8.4761 171.9985 6.3041 177.2461 7.9722 184.0315 14.1277 193.3972 20.622 198.4624 24.9834 200.452 27.9982 205.2391 30.9174 212.233 34.3535 217.8107 39.7314 222.7803 52.2335 227.8107 55.1397 245.8645 59.8877 252.1981 60.8608 269.9217 62.5376 276.1598 61.3386 285.2822 50.5524 293.5012 39.4577 301.1727 37.138 315.0389 31.7775 323.336 26.7167 326.8286 21.2519 334.6565 10.9305 339.4784 5.1355 347.6452 10.2832 361.8154 24.2536 382.0065 46.9946 386.9674 53.4238 390.2254 60.8912 393.023 69.9355 397.6276 77.9328 418.1141 98.0718 426.9585 105.5044 441.3894 115.1308 446.5154 117.2767 453.2573 117.8806 465.6118 117.9153 477.0453 121.6773 482.6838 124.3228 488.5135 128.1499 493.7437 132.5591 499 144.3661 479.1825 140.4739 459.226 141.082 447.9402 143.619 437.002 147.0768 426.5155 151.9595 419.9473 161.4686 414.413 183.4798 406.3418 204.0749 406.6198 213.6057 410.1645 222.7542 409.7562 227.0983 406.0551 228.9358 401.4417 232.828 395.2558 251.7333 392.1889 255.5039 388.2445 257.8497 387.1498 255.6125 387.3844 250.6603 378.679 246.2772 374.0743 251.1903 370.9118 261.5986 364.5348 272.5368 364.2133 274.6263 365.8032 308.4186 Z M 70.7565 114.4227 71.6427 111.4775 69.1405 110.1569 66.4993 110.083 64.2144 111.5513 64.2144 115.2307 67.3768 115.891 70.7565 114.4227 Z M 23.7193 77.8416 21.7992 78.8581 18.8627 77.8416 17.9591 75.5827 18.185 73.2152 21.1129 72.6505 23.4934 73.3282 24.1711 75.4741 23.7193 77.8416 Z"/>
</g>
</svg>