<?xml version="1.0"?>
<svg xmlns="http://www.w3.org/2000/svg" version="1.2" baseProfile="tiny" width="303" height="380" viewBox="0 0 500 627" stroke-linecap="round" stroke-linejoin="round">
<g id="ne_50m_admin_0_countries-Bangladesh">
<path d="M 112.097 484.9691 112.5719 474.9116 111.9387 465.3606 103.4537 439.8211 97.9658 426.7347 98.6413 422.508 98.2613 420.735 95.6968 403.881 92.1614 393.5755 90.3884 382.5893 98.7679 366.8012 95.4119 364.2314 85.7449 362.1471 76.7532 359.4137 74.5476 355.3242 78.5262 339.7842 73.8616 333.6895 67.1706 327.5315 65.081 325.0725 62.8753 321.8907 59.7832 314.0863 65.7459 297.665 74.0938 278.6265 75.6029 271.3762 76.9854 258.7753 77.7453 253.947 76.6583 249.1927 67.8777 243.6732 52.3429 241.4411 41.3673 236.8345 34.9402 229.8533 29.4945 227.0566 22.7825 229.1198 14.1919 226.4023 7.0155 219.4739 1 211.0522 1.7387 207.0946 3.3429 201.8442 14.6563 180.0565 18.8777 179.4127 28.6714 183.5919 32.3334 183.6025 38.7711 174.9908 47.7732 150.4697 60.4797 150.5277 71.6875 151.3298 79.2544 152.5751 86.7896 151.7888 94.6626 149.8259 98.9473 146.7337 101.3113 142.8131 100.4987 139.4096 90.8422 134.7871 87.1168 131.3308 84.4257 121.5266 81.5868 117.8276 62.601 117.3052 52.7651 112.7988 47.3511 108.7568 37.7052 95.3802 25.8008 85.481 14.403 83.1434 9.9916 79.9351 7.6065 74.8431 8.989 67.482 12.4084 60.7963 14.7618 53.3455 23.8801 43.5202 34.5602 34.9349 39.3199 29.046 46.0636 22.8353 46.8656 19.4265 45.6625 15.5269 40.2064 11.8068 36.4493 10.6143 35.8478 8.2133 38.4439 1.8021 43.6574 1 54.4747 6.8097 65.4821 16.2235 72.0253 24.6188 72.2574 31.2411 76.5105 32.307 80.8058 32.5709 87.9505 35.51 95.3486 34.613 100.1293 36.2488 103.3376 35.6525 104.5407 31.8427 100.9419 26.2388 98.3352 22.2284 101.343 18.2286 104.7412 17.4266 108.551 18.4292 113.7539 22.0332 117.5532 29.4418 118.2392 40.9082 126.682 51.314 137.7949 58.7014 146.491 62.1049 156.9917 64.5428 165.9622 62.1946 170.4475 54.9391 168.4318 48.4645 169.8354 42.6601 173.4341 39.4571 179.0381 39.6576 183.2489 44.2589 195.4699 69.0967 192.9476 80.0987 195.681 110.2976 192.5888 130.2174 193.0848 134.5074 194.5095 137.8318 196.5886 139.1932 200.1557 139.151 215.015 142.9133 227.5315 147.0609 241.6627 150.8443 262.0838 153.7887 274.6108 152.8284 280.8585 152.707 293.5122 153.5988 326.8086 152.021 354.3533 151.5989 365.5401 154.4483 374.5106 155.472 405.1791 153.4721 436.1115 152.517 452.86 158.8439 471.0965 169.1969 481.3545 176.8693 483.2014 181.2807 482.0721 185.043 478.6317 187.1062 472.3418 187.1748 457.894 182.1725 455.4139 183.6552 455.6566 193.9344 455.2345 195.5807 452.1423 204.794 443.4357 225.5211 441.7577 234.8029 439.9319 237.1669 437.6734 238.4439 430.8559 238.8185 425.5158 240.3488 423.289 243.7206 419.8274 250.7282 417.4423 257.7938 414.118 259.9573 406.15 256.1369 401.1899 256.7384 394.9422 258.3584 388.7156 262.3846 384.4203 267.3817 379.5551 269.0913 365.1074 268.0835 362.3423 268.7958 360.5166 272.3629 359.0285 276.8693 347.7468 287.4967 343.4726 304.5248 340.0111 315.5744 340.5598 324.1755 350.1002 346.5912 356.7384 375.6873 359.2924 378.6475 361.5086 379.5815 362.5112 378.9114 362.3107 372.8695 362.7223 365.5717 365.8356 363.8568 369.8142 365.3659 373.6135 371.7033 377.9193 383.328 382.489 387.8819 389.6232 389.1641 397.7705 386.4466 403.8283 381.1857 406.2978 375.5026 404.5776 364.2947 404.1765 355.9205 408.0497 347.9526 422.0014 336.064 424.0277 332.4284 423.1201 322.3181 423.1307 312.8357 428.418 312.1867 435.4994 313.7222 444.4699 309.0523 447.2033 308.9573 450.9603 313.9649 457.3347 313.0943 462.0099 333.7475 466.8539 351.9735 466.8117 360.7751 467.6138 379.4232 469.8195 394.6414 473.2283 398.0977 477.2597 406.2239 480.9324 415.6693 483.8451 420.9672 485.8081 438.2275 488.2143 450.6965 491.3909 489.8448 492.8684 497.4064 493.7232 501.4854 493.8815 537.2882 494.8736 552.6014 498.314 565.2023 499 570.0147 495.5595 573.909 492.1824 574.6477 489.0058 568.5425 481.7344 563.8778 471.012 558.9018 466.4635 555.5775 460.9651 556.8967 453.2399 564.4319 450.1477 571.4289 451.488 581.2489 453.947 590.9265 459.3187 596.4619 459.7514 602.5987 461.6722 610.4981 464.4477 617.7536 465.7669 625.6002 464.0045 625.7532 457.5563 615.6851 451.773 604.8044 436.7975 584.2145 431.9218 547.3141 431.6052 529.1039 421.3577 507.675 414.5295 478.0301 411.8067 470.3261 415.3738 460.7435 415.9754 457.1605 414.0335 457.9573 408.8095 462.8911 402.0025 451.087 397.5595 440.4859 379.914 418.561 374.7744 408.8623 374.5528 399.4169 366.9331 408.9045 356.5801 415.5902 346.0371 425.6319 339.0296 428.6765 316.7933 430.5181 303.9496 417.0782 285.5232 384.2145 283.0748 376.7848 285.5021 357.4613 281.1329 339.1668 281.1857 329.5156 279.877 323.0621 276.5738 324.4921 275.2968 328.9246 275.9933 335.7158 274.653 341.4147 258.6961 340.296 243.689 337.7051 256.9126 347.3141 271.0965 349.562 278.4629 358.179 279.3599 364.9068 278.9167 372.4948 271.6347 377.7874 264.9649 381.1434 266.2102 388.399 274.2837 397.2481 264.49 399.744 261.82 405.5379 261.6194 413.7802 266.5479 421.0463 268.4687 426.4339 267.2761 431.4152 272.0674 436.7553 278.9589 447.9367 281.1857 455.8994 278.3046 467.1072 274.347 471.4606 268.0043 475.7031 253.05 489.8237 245.7469 505.9073 239.5203 513.432 231.7635 514.8303 228.7346 511.527 222.297 507.2212 222.1703 499.3694 224.1016 493.1481 237.2513 478.1146 230.1066 480.1356 222.012 484.4256 209.6539 492.5676 205.749 482.4837 203.1529 473.1439 203.1318 461.7091 212.9993 444.6335 201.8337 453.1502 198.7415 463.8093 200.1029 476.3363 198.6676 485.2118 194.2774 496.8207 188.3252 503.786 178.7003 508.2554 174.4156 515.1205 167.978 520.1704 167.7669 510.1023 165.6984 496.7996 158.7542 465.2604 157.2556 472.0252 160.8438 491.5914 160.6327 504.2926 155.377 514.3712 144.7602 525.178 136.6445 526.703 131.8532 525.0408 124.5924 518.3499 116.6878 508.7884 115.3581 493.4225 112.097 484.9691 Z M 338.9663 476.1041 327.5051 483.671 331.2622 438.8713 339.7789 455.5458 341.9318 464.453 338.9663 476.1041 Z M 382.8373 453.7306 377.8349 456.9125 373.128 454.1422 367.1231 443.6309 370.0992 430.3229 371.9566 428.4127 374.9749 432.7291 379.1963 442.0057 381.9297 449.066 382.8373 453.7306 Z M 298.6412 485.3859 279.8348 489.1799 270.2628 487.9979 288.1405 459.6459 287.5389 446.95 284.7633 436.6075 275.6556 428.2913 275.1596 422.355 271.0754 414.2551 268.9541 404.7622 279.0644 401.7176 287.254 407.1579 288.4149 410.1709 290.1667 417.9278 294.2404 426.0118 308.4243 442.6389 308.1711 452.8283 304.2874 477.7505 298.6412 485.3859 Z M 417.1046 513.1787 413.1892 522.0278 411.2579 515.5902 412.9254 507.427 414.6034 502.9206 415.7538 502.9629 418.0439 507.6117 417.1046 513.1787 Z M 425.2519 548.2006 418.7298 548.7124 415.5532 545.5094 417.0413 541.0294 415.2894 526.5078 420.7667 524.9775 423.6056 525.0619 425.1886 529.3414 426.6239 537.2091 425.2519 548.2006 Z M 283.9613 390.9688 285.882 395.6123 279.8665 392.8526 275.3707 389.6232 272.5634 385.3596 277.2703 383.1381 283.9613 390.9688 Z"/>
</g>
</svg>