<?xml version="1.0"?>
<svg xmlns="http://www.w3.org/2000/svg" version="1.2" baseProfile="tiny" width="500" height="257" viewBox="0 0 500 257" stroke-linecap="round" stroke-linejoin="round">
<g id="ne_50m_admin_0_countries-Belarus">
<path d="M 449.5468 212.2471 439.6419 211.8798 427.7478 212.0227 421.0613 214.9018 418.4754 214.2388 413.8187 213.5069 408.6674 215.1135 401.6187 219.9767 396.8957 223.0012 392.3003 227.2345 390.8467 229.5348 387.9446 233.7706 385.2873 238.6083 386.7358 241.995 388.9085 245.1419 389.3982 248.5311 390.4846 251.1909 387.5824 253.1265 385.8891 255.9113 380.9265 255.4268 374.8621 252.7516 373.587 248.883 368.9151 246.1875 365.8447 244.7951 360.78 244.5783 352.6857 245.833 342.0974 246.797 334.1102 247.0571 329.7494 248.4265 323.3178 249.773 320.8288 248.1817 317.2586 243.7954 314.3207 239.4295 312.3061 237.5143 310.5516 236.9788 308.3941 237.0884 305.9051 238.4732 304.0588 239.8911 301.4372 240.3935 297.362 241.541 294.4242 243.0992 291.1855 247.1183 289.0433 246.8327 286.8247 245.9095 284.2796 241.4135 280.7807 240.3782 275.1703 240.317 268.2236 239.3657 262.5928 238.0065 260.5374 238.3304 257.1864 240.243 253.555 240.5184 245.6086 238.8149 244.053 239.5952 241.9669 242.1174 239.483 244.5503 237.3256 244.79 236.1117 244.1652 236.79 239.8579 232.1742 238.3329 224.391 238.0983 218.9235 238.7231 216.2407 238.5522 214.8738 237.7081 208.1821 230.4758 204.6373 230.0168 198.3027 230.3738 188.9333 229.5016 178.146 227.8721 172.2194 227.2702 169.1337 225.6508 162.4879 225.0974 144.6366 222.0423 137.3482 221.5042 126.617 221.4558 110.2652 220.7774 99.7941 221.1549 94.9437 222.1673 89.3333 222.7946 79.867 223.3608 76.0111 223.297 69.9468 223.6336 62.9848 224.4446 60.9905 225.9645 58.7107 229.2925 50.7082 235.0406 42.9505 238.871 41.5326 239.1974 36.9933 237.1649 33.2037 236.4789 28.7715 236.2596 25.6297 236.9099 23.6405 237.8688 23.9109 242.3137 23.4671 242.7039 20.0397 237.4301 20.31 232.6587 22.2175 229.9351 24.5331 227.4844 23.5793 223.8045 25.8592 218.9362 25.9306 215.417 24.9309 213.8919 23.0846 212.1425 18.0301 210.1942 15.7962 208.6717 8.9413 206.6392 2.1425 204.1069 1 202.5564 1.3213 201.4929 2.5148 199.8787 7.6968 195.1532 13.3174 190.5654 16.9029 188.7191 35.9732 182.8358 38.9263 180.7778 39.6659 177.2968 39.7118 174.7645 39.3497 170.2659 38.1868 163.8599 36.7281 159.443 33.0762 151.1472 23.1356 134.0023 17.1682 116.2148 21.0546 117.2578 30.1741 117.6531 37.4268 116.429 41.1807 116.2581 44.5265 116.6407 49.5096 115.9419 54.0744 115.6588 56.441 117.2502 60.6896 118.6604 69.0746 116.6305 76.5008 114.1236 84.2023 114.3939 85.304 113.1622 87.2064 106.8556 89.4965 105.4887 98.718 106.1211 102.1301 104.9787 105.6851 101.8802 111.1272 99.9472 115.6665 99.9497 120.3945 97.7795 122.7203 99.2331 123.8526 101.8343 122.2868 103.9178 122.9651 104.7338 126.2396 105.7641 131.8551 105.7335 135.4406 104.8716 136.2771 103.6806 136.2669 101.5181 135.3845 99.5085 133.0026 97.7693 128.5296 96.8742 125.4286 96.8436 124.8982 95.7393 125.9539 93.3779 128.7081 89.0247 132.0948 85.0872 134.1655 83.6005 134.5226 82.2361 134.1196 79.8517 134.0431 75.5776 137.0931 69.5515 141.1887 65.0581 146.6818 63.6019 153.3939 62.8114 157.6884 60.6718 159.8102 58.2108 160.616 56.135 161.6361 54.3397 163.7783 53.5516 179.9362 54.0438 182.4048 50.1778 183.7921 49.0965 186.8931 47.954 189.0506 46.5794 188.2396 45.5211 184.1185 44.8377 174.4074 44.2333 172.4387 42.9556 173.0609 41.4179 175.657 37.437 178.1307 32.301 179.3956 28.3227 179.5384 25.9791 180.9308 25.3466 188.8517 24.5969 191.4937 23.8012 198.3129 18.3846 203.5101 17.464 216.9139 18.8564 223.0752 18.7493 224.7481 18.8768 230.8889 19.1242 231.552 18.581 234.3113 13.2256 237.0247 11.6674 247.5773 4.6366 254.6668 1.6528 259.1501 1 260.721 1.1505 267.8411 5.6949 269.514 5.8709 273.4719 4.0857 274.2523 3.9659 282.4485 3.8103 286.2585 5.3889 289.0739 8.4771 291.6853 10.9457 294.5007 11.6139 302.4777 8.5052 306.8793 7.4775 309.7865 7.5106 320.0026 10.2929 324.8071 11.8153 325.9088 13.2001 326.0057 14.8271 324.7102 17.2472 323.6799 19.8765 326.7912 22.9851 330.4073 25.089 338.1293 21.6106 340.9753 20.6415 344.0865 20.6058 348.2535 19.3154 351.2678 17.3722 354.1597 16.6964 359.6783 17.158 369.6495 16.6989 381.2784 19.749 382.2781 20.69 388.0925 24.2679 390.1224 26.0454 392.0402 26.609 395.1412 28.3507 399.2725 29.4473 402.1542 29.1132 403.5262 29.6947 404.8115 31.0718 404.9135 33.4052 404.4851 40.0867 402.4602 42.0197 400.3283 43.5932 399.7825 44.8096 399.9865 46.2862 403.2763 49.173 407.53 53.6562 408.5144 56.2574 408.5144 58.2057 402.7203 63.9385 400.7924 65.2825 399.4663 68.1056 398.7625 70.9745 399.1705 72.1629 408.851 76.7252 416.0119 79.2014 417.6236 80.4102 417.7664 81.1625 413.9565 86.0639 413.5841 87.3849 419.3271 89.4123 422.4996 92.6154 425.2997 97.8356 430.7571 102.8365 442.4981 107.2636 451.0412 110.1504 452.8162 111.4663 453.4333 113.0296 452.7805 116.4647 450.572 120.6444 449.0674 122.9702 452.5458 123.9367 461.497 123.6792 472.371 124.4952 485.4177 129.1085 485.4585 131.1767 484.112 133.0587 485.0097 135.0453 486.4327 136.731 497.7198 141.8926 498.8011 143.3921 499 145.8989 498.6889 147.7325 495.5624 148.1201 492.0941 148.9821 486.4174 151.1804 484.1681 154.2992 474.9977 158.5937 469.321 160.537 464.802 160.6262 454.0556 159.7515 450.2813 157.6272 448.7155 155.6789 444.5791 154.8042 439.0809 154.7226 431.5017 155.0592 429.9614 155.6457 428.7169 158.0404 425.4986 162.1181 423.1932 164.426 425.0906 165.8312 428.1151 168.7741 432.8023 172.5152 437.6273 175.8355 439.1778 177.8731 439.1064 179.3242 436.8061 181.0328 437.158 184.4654 441.8453 188.9996 440.2591 189.7162 439.7898 195.2756 439.8306 201.215 441.0955 202.6507 443.6202 203.8315 445.7471 206.0017 449.2969 210.9541 449.5468 212.2471 Z"/>
</g>
</svg>