<?xml version="1.0"?>
<svg xmlns="http://www.w3.org/2000/svg" version="1.2" baseProfile="tiny" width="500" height="259" viewBox="0 0 500 259" stroke-linecap="round" stroke-linejoin="round">
<g id="ne_50m_admin_0_countries-Belgium">
<path d="M 221.6592 14.5719 231.8176 17.8081 240.7979 18.5238 244.7245 17.0862 242.2292 9.2394 249.5123 5.0595 257.6188 3.1279 261.2793 6.5162 268.6891 9.9741 274.5536 9.9994 290.3358 1 294.0343 2.7796 297.4542 5.9778 298.1635 8.5618 298.7715 11.2534 302.3181 12.3933 314.7563 11.8107 321.0641 6.9342 326.042 3.8562 329.7405 5.9272 331.5518 11.931 334.9844 19.7588 349.8039 28.5175 362.3435 31.0127 377.7711 29.2901 383.8762 27.7258 388.0181 29.0305 392.122 33.66 400.9884 38.9608 419.6078 42.7164 425.3329 44.8443 429.3101 48.4035 428.1575 53.4891 419.2785 66.1553 418.1132 69.8982 419.3038 71.1522 417.5685 73.5018 406.0169 81.9945 404.9656 84.9837 408.8161 89.8666 411.9827 93.9135 411.9953 93.9261 418.9238 95.8831 425.4469 96.5354 437.7814 96.7927 450.9441 97.0674 452.5021 99.4296 467.2203 106.3011 471.7675 111.7476 482.3312 117.0104 473.5788 123.6666 474.9087 126.6305 478.0626 129.664 489.9816 131.431 495.9474 135.8072 496.3021 142.4886 499 153.3943 474.4401 164.224 467.461 176.3266 466.8403 178.7079 466.0043 178.3469 463.2811 174.3507 458.8352 174.3887 448.6516 172.7167 434.4653 183.6604 428.0435 192.7548 424.2436 199.4299 418.5311 204.8257 417.3912 210.5319 418.1132 212.9258 416.1626 216.0164 416.0612 219.2653 424.231 225.6744 426.2702 229.1386 436.2133 240.475 433.1227 244.6168 430.6654 249.0944 427.7902 252.2736 424.459 254.2875 414.1739 254.1672 401.153 255.5922 392.3753 257.8214 387.8281 257.8404 378.4044 252.1849 367.8787 243.7112 361.1909 239.6707 358.189 236.1748 349.9179 234.7055 338.1256 230.5256 329.9432 225.9784 322.9261 223.1475 313.0211 221.7352 304.8513 221.8809 302.4574 214.2304 301.4694 205.4907 294.7943 199.6452 303.9393 176.7763 298.5055 174.5343 292.565 176.3646 283.9773 181.8111 279.8861 188.3216 277.4288 194.0847 263.0146 199.5566 240.152 201.5388 215.1614 199.5566 211.6908 198.0873 210.0949 196.4153 210.0696 194.4014 211.8175 191.3045 216.1747 187.5489 217.2513 182.1911 212.7801 177.5552 209.8669 175.7503 211.0195 171.2601 214.3254 165.6363 214.9714 162.4317 198.0493 152.723 185.801 150.8294 173.92 150.4874 164.9016 149.3981 159.6451 149.8478 155.8579 152.6787 152.0327 154.7053 149.1701 152.2733 143.9136 135.0852 139.8477 132.4886 124.4835 129.6197 103.6348 128.5937 98.0743 125.4588 95.0218 117.7261 93.0965 108.4164 86.2314 99.4993 82.7102 97.2637 76.4783 93.3055 65.5853 94.9331 52.5011 100.1009 44.7747 101.5322 41.8361 102.0832 31.4117 97.042 19.7081 89.1573 10.3224 80.7912 8.0551 76.1427 10.9304 70.4999 7.4725 66.1807 2.444 58.2769 1 52.1021 57.4536 30.2718 91.8299 19.0938 108.03 15.7119 111.9186 26.9405 114.8698 30.5061 118.7204 32.824 123.8376 33.28 129.6894 30.5061 137.8845 27.5802 151.0574 28.9418 160.6331 31.6461 164.0403 34.4516 170.3735 37.1242 179.6198 37.7639 197.5173 32.653 214.7054 24.8696 219.7466 19.4674 221.6592 14.5719 Z"/>
</g>
</svg>