<?xml version="1.0"?>
<svg xmlns="http://www.w3.org/2000/svg" version="1.2" baseProfile="tiny" width="168" height="300" viewBox="0 0 500 893" stroke-linecap="round" stroke-linejoin="round">
<g id="ne_50m_admin_0_countries-Belize">
<path d="M 27.131 230.4227 26.8289 200.482 36.7309 176.818 65.2954 166.8825 102.3521 187.5255 117.7589 196.152 131.6551 191.2513 149.1933 178.6306 170.7594 142.1613 224.8676 66.9234 246.5847 13.5201 267.7983 2.9133 298.3432 1 324.726 4.4069 306.2984 43.444 324.726 48.5125 341.3579 44.8706 381.5698 46.23 397.0437 89.0601 392.9319 124.9755 355.036 219.6816 350.2361 252.2405 332.9497 300.8775 356.4122 332.9329 334.5105 375.5615 327.0756 403.0184 325.2966 444.4555 336.3566 523.201 318.617 636.7208 287.3001 686.264 267.8487 705.1112 233.0744 754.3859 187.408 769.0878 124.1867 848.4878 112.9757 869.3322 119.0512 891.8046 104.2318 892.0731 43.5951 888.3473 2.6112 892.4759 1 890.4955 4.3902 805.1207 9.6096 673.0222 13.4529 576.1511 17.1955 481.3947 20.0151 410.4029 23.8248 313.8003 27.131 230.4227 Z M 443.331 192.5772 427.0012 198.9715 440.4276 179.1508 442.3912 166.4126 461.2887 113.5296 474.8326 113.8317 478.4073 118.5309 443.331 192.5772 Z M 476.8969 365.1561 450.4134 413.2224 448.7351 399.494 459.7447 363.9142 474.6647 351.4277 483.9121 338.2698 486.01 322.7288 499 330.3147 495.7273 345.6543 476.8969 365.1561 Z"/>
</g>
</svg>