<?xml version="1.0"?>
<svg xmlns="http://www.w3.org/2000/svg" version="1.2" baseProfile="tiny" width="200" height="400" viewBox="0 0 200 400" stroke-linecap="round" stroke-linejoin="round">
<g id="ne_50m_admin_0_countries-benin">
<path d="M 56.4549 399 55.6986 396.8036 66.4757 393.977 64.232 385.4813 57.5263 375.4605 54.8982 373.6108 53.5431 368.6287 55.1818 365.3578 54.4003 363.1519 53.8331 356.3926 50.5369 348.9432 56.5872 348.628 56.5872 324.6285 56.5809 301.6089 56.5809 281.9675 56.5809 266.4289 55.4213 247.8242 55.2385 234.1606 55.0053 216.1515 52.8184 210.5234 43.6547 200.9879 41.1652 196.0405 40.7241 189.5018 38.6695 182.755 38.5434 170.9664 38.3985 157.2366 37.5729 155.0402 27.6403 148.4952 13.5796 139.2243 2.8592 132.1562 2.0714 131.6394 1 129.8905 2.5567 109.0075 4.7751 106.2754 8.191 97.682 9.8486 90.7431 11.4053 90.7715 13.5607 88.5152 15.3065 85.2096 17.1657 85.9123 20.2917 86.552 21.7286 85.3797 21.5332 82.821 22.5668 80.2181 25.0185 79.0553 25.6613 76.7297 25.6802 74.0512 27.8041 73.3516 31.4154 73.4619 34.3712 72.6268 36.7535 71.2529 39.8165 65.8549 41.5371 63.9768 42.0665 62.6407 43.8122 61.4527 48.6273 60.9075 52.5033 61.3235 54.9927 64.4526 71.6184 61.6953 79.5406 63.3056 95.7062 49.705 99.3427 45.6967 104.2523 36.0918 105.9224 32.4143 107.4413 25.8157 104.2523 13.6111 104.4288 11.4494 111.0967 8.8118 119.4285 6.7762 122.6553 6.6186 124.7792 5.585 127.8233 2.9506 132.777 1 135.6761 1.6555 137.4786 2.0399 154.9993 18.152 162.6 26.2947 164.6482 30.4732 168.5746 33.4857 174.3728 35.326 179.6606 39.4888 183.7697 45.3721 181.0912 49.5285 177.001 58.0903 176.8245 64.7898 186.5743 78.8946 187.6961 80.3315 190.2171 82.5437 191.5784 85.1718 192.7254 92.1202 193.4187 99.9604 194.1876 105.2323 198.8892 112.6534 199.198 115.6439 195.9271 126.7141 195.1519 127.8926 194.2947 128.2109 189.2465 127.2372 187.0722 128.4504 184.3306 132.2129 182.6416 135.9691 182.5534 137.5258 187.0281 144.5089 184.1983 154.5518 181.3055 160.8258 176.1123 164.4024 171.4674 165.2596 168.2217 166.9266 166.331 169.1419 166.6083 176.3329 159.7639 182.8779 155.9698 187.4566 154.1295 190.236 154.8984 198.6907 152.472 207.2304 148.2431 213.9709 138.7643 215.4204 130.8106 216.2492 128.1069 233.4169 128.2203 244.2917 127.5082 255.3997 126.1847 259.9217 126.7267 266.2997 126.1342 280.7039 125.0817 292.0671 126.4809 295.108 127.3002 301.7886 127.2309 308.6834 129.2728 313.4827 131.4787 317.6801 131.4031 319.8386 130.2308 321.1874 129.2413 322.9583 129.2476 339.2122 129.6447 344.0714 129.0649 347.1753 127.3632 349.7278 128.0313 357.9524 129.3989 363.1929 130.798 367.0594 129.4493 370.2831 128.2834 374.5467 126.4998 385.39 126.3989 389.1619 99.3238 391.8184 69.0723 396.1702 56.4549 399 Z"/>
</g>
</svg>