<?xml version="1.0"?>
<svg xmlns="http://www.w3.org/2000/svg" version="1.2" baseProfile="tiny" width="500" height="242" viewBox="0 0 500 242" stroke-linecap="round" stroke-linejoin="round">
<g id="ne_50m_admin_0_countries-Bhutan">
<path d="M 431.7789 83.0743 430.8774 86.4477 426.6752 95.4265 423.9416 105.1905 426.239 113.195 435.6758 122.7337 448.3261 130.3384 464.4371 130.92 479.283 127.9901 485.2155 129.1969 493.271 141.9272 499 152.9562 491.2208 164.3197 486.9604 174.2872 485.4336 181.354 486.3788 184.422 491.1772 190.151 496.7317 199.9223 497.5169 208.9083 493.9835 214.8627 486.3352 217.8217 478.207 216.9493 471.4892 217.0656 463.0703 218.1198 449.911 221.4278 437.6824 225.71 414.7519 224.9175 405.5623 216.0478 401.2292 216.0187 380.3489 227.5057 357.622 225.4991 316.2105 229.3233 298.9217 230.2248 281.1532 228.9525 272.1526 226.517 255.4454 218.447 240.2942 212.558 224.8812 217.9453 219.4721 218.9341 207.098 232.7694 180.3289 237.3352 153.6324 240.665 145.7514 238.8256 130.7164 238.004 130.1493 234.776 130.6001 231.6353 127.1685 229.1416 121.0615 226.5679 110.5632 225.4991 97.0986 222.053 89.3485 218.7669 61.9686 223.6016 45.9885 216.324 27.8564 206.3201 18.6959 201.9652 15.3515 186.465 12.1381 181.4848 4.9987 176.243 1 170.085 4.2135 163.7526 22.2729 151.9384 23.7269 149.1684 32.0877 127.1394 43.6911 119.1203 55.1345 107.9968 63.7862 90.3227 80.4933 72.1761 98.8435 53.5642 111.4647 38.4056 119.8401 31.3389 137.0852 23.7633 151.5385 19.3138 161.5279 9.1718 173.582 3.5373 185.9706 1 204.3499 2.3595 221.6677 5.9801 240.6431 11.0112 242.8388 15.0971 241.2248 22.2947 238.4911 29.594 238.3894 33.3382 241.312 35.3884 259.8658 36.7843 282.6072 35.6356 295.3593 36.6535 323.7861 43.3858 332.1033 48.1405 340.7841 51.7902 349.2612 51.1359 360.0067 43.3494 371.3193 36.7262 378.3423 35.6647 383.3734 37.8022 392.4176 44.1128 411.1459 50.0453 427.853 54.5238 433.2621 58.7624 431.4009 76.9818 431.7789 83.0743 Z"/>
</g>
</svg>