<?xml version="1.0"?>
<svg xmlns="http://www.w3.org/2000/svg" version="1.2" baseProfile="tiny" width="369" height="400" viewBox="0 0 369 400" stroke-linecap="round" stroke-linejoin="round">
<g id="ne_50m_admin_0_countries-bolivia">
<path d="M 5.0692 236.3837 5.0647 236.3483 5.0677 235.0037 4.7374 232.8482 3.4725 231.1557 1.5986 229.9939 1 228.608 1.6295 227.1484 5.2992 224.2676 7.2615 223.7722 7.7819 222.3126 8.9762 221.1449 12.4276 216.9047 14.4636 214.1123 16.4953 212.4404 18.8498 211.2698 19.8715 210.2997 19.3378 207.295 19.5029 205.2811 20.3079 204.0043 22.6698 202.6568 24.7899 201.6218 25.244 201.1116 25.0612 200.3538 23.1091 198.8176 19.1004 197.4818 16.4451 197.6116 14.8204 196.4292 13.927 195.4119 8.6636 182.9655 7.7878 180.0581 7.8601 178.9347 11.3808 172.7749 12.8183 170.7669 15.2893 167.8595 14.847 166.7154 10.5109 161.8914 9.1826 159.5973 9.2121 157.318 9.6426 154.5344 12.1622 153.0424 12.8773 150.7837 13.4036 148.5486 14.4799 147.8085 15.5841 146.5524 16.8815 144.7212 18.9029 143.129 20.1 141.9112 20.361 138.5231 21.3488 137.5972 24.1102 136.5239 24.3948 135.6452 23.7667 133.3689 22.3852 130.9627 21.2736 129.7951 19.8007 123.8859 18.2586 120.9431 18.9014 119.7696 19.9673 118.2746 20.9964 115.3141 21.334 111.8701 21.0849 99.1967 21.1424 96.7051 22.4973 94.9535 24.4921 92.9337 26.1787 92.1612 27.771 90.8814 27.656 88.4812 28.7057 87.0629 30.0002 85.2878 25.9708 78.2965 22.428 72.1485 19.1019 66.378 15.2509 59.6933 12.7151 55.2939 9.5659 49.8271 6.8 45.0325 3.0257 38.4806 6.5302 38.3715 13.5967 38.5985 20.4465 39.7662 25.0759 40.2734 27.0161 41.2848 27.4437 42.8859 28.7249 43.6349 30.2081 43.3429 31.8903 43.2338 35.644 41.5914 38.6737 40.5034 41.2966 39.1883 42.6412 37.9174 45.9009 33.4472 48.5267 30.9733 50.9417 30.1063 55.6728 29.7555 57.1619 30.4572 59.0918 30.3688 60.7563 27.827 63.2995 25.0199 68.2961 21.5139 70.8393 20.5497 72.4168 19.3231 75.134 19.1461 77.518 17.8635 89.0385 9.0027 93.7077 6.7204 96.6195 6.3047 99.0257 5.7621 103.1214 4.4912 113.3533 3.2646 119.9332 2.7515 122.0371 3.9782 124.4049 3.6273 126.4188 1.6428 128.0863 1 129.313 1.059 131.0718 3.4091 131.9343 5.8977 131.3667 7.7967 131.4743 10.5566 132.2587 14.1747 131.8208 17.3828 129.3336 21.5876 128.0819 23.3008 127.7737 25.0641 127.989 27.4437 129.1272 31.3241 131.1883 36.6996 131.4979 40.6862 130.0545 43.2692 129.3896 45.5014 129.5017 47.3738 130.0162 48.6918 130.9362 49.4496 131.4463 50.9505 131.551 53.1974 132.7511 55.3676 135.0481 57.4671 135.9784 59.4692 135.545 61.377 135.6659 62.5683 136.3411 63.0401 136.9662 62.6538 137.7978 62.1319 138.5482 62.3176 140.1537 64.9803 140.3602 65.5228 141.2374 67.7167 141.4998 69.3827 143.8602 70.3115 146.4108 71.0457 147.8129 71.9244 150.6333 74.5546 152.9996 76.2885 155.966 77.7097 156.9523 79.9802 158.7717 83.4095 163.7682 84.7246 169.608 85.3822 173.3234 86.1252 177.8673 84.3059 180.872 84.5654 183.9799 85.8009 185.3009 86.6383 187.6156 88.4045 191.1953 90.6662 194.1218 91.5065 196.208 90.2475 198.1364 89.8081 199.6255 90.3359 200.4143 92.7892 201.2045 94.4552 202.9339 95.7084 206.6404 98.9284 208.7443 100.2435 211.1121 100.155 215.9892 102.2663 221.2039 104.3244 223.8887 104.6635 226.541 104.3628 228.294 105.1501 228.9958 107.6328 233.5264 112.5925 235.6583 114.5298 238.2001 116.1958 244.6694 116.1722 246.6052 116.6676 249.489 116.2253 258.1522 115.379 259.7268 115.1136 264.6334 117.2779 270.4349 120.3858 274.2712 122.8303 276.95 124.1749 278.3521 126.3658 279.4933 128.648 280.0181 131.1013 279.3208 133.5399 278.2666 134.5188 277.9142 136.0993 278.3521 138.4642 280.282 140.5695 280.9927 143.1643 282.0394 147.7466 283.2219 149.1973 283.9929 163.3952 280.1081 163.5161 274.6368 163.6842 276.2291 165.0376 280.7582 170.3246 284.9291 175.1958 285.5911 183.0186 286.0069 187.9488 286.5937 194.8988 286.9446 199.0417 297.3445 199.4162 309.3279 199.8467 323.7307 200.3656 336.3923 200.8197 337.6411 200.7726 339.8423 200.2064 341.3004 199.4722 342.1997 199.4958 342.3516 201.1736 342.0434 203.2966 342.0552 205.7293 338.4254 210.5415 338.1984 212.066 338.7513 218.4086 340.0325 223.5363 340.6782 228.1775 342.1349 229.6224 346.4281 232.0668 352.9093 236.5901 355.5027 237.1769 357.6935 236.5665 359.0101 238.4065 359.2725 241.3876 362.8508 249.7087 365.1212 254.9898 366.1606 256.8268 367.8635 257.7792 367.5465 258.4633 366.1282 258.7405 365.4972 259.7313 363.5304 265.6404 360.9385 273.4367 359.1841 278.9035 360.7616 278.992 360.8294 280.5076 361.1862 282.8223 359.2342 283.1083 358.6622 283.9369 356.4241 288.4218 353.4902 294.3015 350.4604 300.3728 348.6647 303.9731 351.7313 306.6358 356.8399 311.0706 356.029 312.3031 353.8381 312.9165 351.9967 313.3529 350.5931 315.0189 349.8044 316.2485 347.811 316.6583 348.4096 311.6515 347.8022 307.3051 347.1948 306.1876 338.3163 301.0009 330.2576 296.2948 319.7073 290.135 306.1094 290.3031 292.0236 290.4771 278.6101 293.2311 265.4104 295.941 259.1533 297.2236 246.5979 299.8037 239.1997 300.9773 237.2653 305.934 234.3653 313.3588 231.5007 317.6963 228.1849 322.252 223.5142 328.6712 223.5083 336.4705 223.5039 343.8746 220.219 354.3129 217.4296 363.1766 214.7389 371.7336 212.8798 377.631 212.2016 379.1318 211.7696 378.6571 209.3753 376.9026 207.2464 373.5736 206.6669 372.0491 206.3927 371.9931 193.5955 372.0934 181.2715 372.2054 180.0154 372.9072 178.2447 372.8984 176.9443 372.2408 175.6646 372.2939 173.8335 372.9396 172.1896 374.2665 167.4879 383.1214 165.1555 386.9104 163.4247 390.2926 162.1715 396.0897 161.6466 397.0657 160.1767 395.0547 158.0168 389.75 157.0437 386.7306 155.6579 383.2954 153.1854 378.9844 150.3296 377.6782 148.5619 377.2476 146.0128 376.422 141.4969 375.387 139.5286 375.1777 126.6341 375.0391 125.6094 374.93 120.5554 375.4047 117.993 375.0833 115.3023 372.6713 109.3106 368.437 108.1032 367.0954 105.8061 366.2078 104.4321 366.1135 103.6035 366.9568 102.5611 370.4893 101.3433 373.6798 100.0533 375.5109 95.7718 376.8584 91.7852 378.2767 89.5899 378.607 88.4149 380.2081 87.9062 382.4344 86.9155 384.4454 81.1538 387.4707 79.8726 388.7504 79.2121 391.7286 75.9965 395.441 75.0014 396.8858 69.9473 397.8972 63.3747 399 59.5282 398.9233 56.898 398.6314 56.1107 397.9739 54.3312 396.9241 54.0378 395.7535 54.0127 394.0934 54.5037 391.1153 54.2619 386.9724 52.189 382.1513 52.3541 380.5973 52.0828 378.2354 51.0419 373.8006 48.3734 371.5567 47.617 367.8679 47.3045 364.6185 45.062 360.5582 44.6964 355.3862 44.7421 350.9484 41.214 345.7971 37.5414 340.3185 34.5721 339.5754 33.8349 338.9208 33.5121 337.3462 33.4487 334.9106 33.686 333.4304 35.9742 331.0331 36.0671 330.6616 35.5982 330.1662 29.6817 326.5718 28.1912 325.5338 27.7268 324.2541 27.7666 323.1012 29.1834 321.9217 29.8999 321.0489 28.5111 318.4865 28.6482 316.1688 27.7636 315.1751 27.8698 314.4291 28.7249 313.7893 32.5685 313.0433 33.7612 310.6932 33.801 308.7382 33.2305 307.3553 29.6699 303.8581 29.6065 303.2655 33.3204 298.406 35.986 295.2126 36.7143 294.561 36.4946 293.871 35.8356 293.0247 34.149 291.7922 31.9537 290.4505 30.1388 288.8111 27.771 286.3902 24.7855 284.3114 22.5799 282.2532 21.4535 280.5253 21.4299 278.7649 21.135 275.8458 19.6872 271.1131 19.3068 267.9079 18.6802 264.3725 18.0522 262.0666 17.7101 259.8256 16.681 257.4107 16.1046 255.6473 16.9317 254.4001 17.7662 253.4329 17.66 252.8225 11.972 250.2365 11.0343 249.5819 9.6868 244.4041 5.5498 239.81 5.0692 236.3837 Z"/>
</g>
</svg>