<?xml version="1.0"?>
<svg xmlns="http://www.w3.org/2000/svg" version="1.2" baseProfile="tiny" width="500" height="354" viewBox="0 0 500 354" stroke-linecap="round" stroke-linejoin="round">
<g id="ne_50m_admin_0_countries-Bosnia and Herzegovina">
<path d="M 448.5869 226.658 444.7061 226.3799 438.0315 227.3786 433.7967 228.6743 427.0969 226.7592 420.0936 225.4887 417.0471 227.5176 415.6945 231.3922 420.0431 238.427 428.184 249.4375 426.882 257.8375 420.6751 258.7477 414.974 251.7508 409.9175 250.6194 404.1531 250.8596 390.9683 258.9879 381.2599 265.8141 379.0097 270.5862 375.5334 275.8007 374.4842 279.5614 374.7117 292.1078 357.2163 294.1178 353.5504 295.9634 351.4393 299.7747 352.893 315.8733 354.3088 324.5262 364.308 337.869 364.6493 342.0848 363.2335 344.8659 356.1292 350.1625 352.7413 352.065 350.4659 352.6845 338.8487 349.1955 333.3371 347.5458 310.0267 335.7452 299.7494 329.1845 283.4802 320.6201 273.4431 315.7469 268.3487 308.3454 260.3595 306.6326 250.9544 309.0091 240.2852 303.6682 247.832 300.8998 249.6903 298.2704 248.7422 294.8383 245.4176 290.1548 216.6083 269.9415 202.4754 256.131 200.1747 251.182 199.9851 237.9909 196.6478 234.8242 175.4865 228.826 151.8348 211.6782 127.4499 194.8781 124.1126 190.1882 111.5346 177.4838 96.2009 165.9108 83.9642 158.5283 73.9397 150.1282 62.8281 138.3972 57.0764 120.6805 51.9567 104.9233 48.4803 98.8049 41.4392 96.6559 19.5699 77.9723 1 67.1135 1.177 55.3888 4.2235 35.8265 7.6619 13.6349 12.1622 10.5504 20.6318 8.8755 30.3276 9.5138 38.7593 12.257 55.4583 27.4517 65.0024 33.3551 73.0675 35.6558 82.3461 29.2468 93.799 15.8281 103.7856 8.7491 137.4617 11.3152 154.0091 1 180.7705 14.564 191.8062 16.5992 198.0257 14.722 206.4953 15.5753 225.2675 19.5446 229.6034 21.2196 235.254 20.9352 249.1341 15.6385 253.8745 16.2958 269.7519 26.6869 277.7285 26.8007 287.3358 22.3194 293.5047 18.4449 311.7459 21.346 322.2002 19.5952 330.8721 19.4182 340.2771 21.1943 348.8605 23.5961 357.191 25.6883 379.7556 26.7754 390.5638 33.3678 394.8745 39.7453 394.9756 43.6324 396.0374 47.8167 402.2569 51.9124 415.8336 54.251 424.3537 53.7328 428.8793 53.4547 440.4586 49.795 454.0858 47.8988 463.908 50.0731 468.56 52.2158 469.6219 55.1106 466.727 65.192 461.2155 76.0508 452.3161 87.3394 443.0248 97.9833 440.5724 103.6212 439.915 112.5839 438.7647 119.6503 440.0415 123.4932 443.088 127.0833 453.4032 129.9276 467.2959 137.013 479.1154 146.2474 494.2596 156.7332 499 160.6204 498.9874 164.811 494.5629 167.9144 481.6057 169.09 468.1176 168.1735 462.9473 167.1053 458.131 168.3884 455.1477 170.7713 456.7278 173.584 470.5573 186.3389 486.6243 204.6181 487.5218 212.4746 485.5624 218.6498 481.8459 222.9352 475.1587 222.221 470.0769 218.871 462.3658 219.0859 456.3739 220.0467 448.5869 226.658 Z"/>
</g>
</svg>