<?xml version="1.0"?>
<svg xmlns="http://www.w3.org/2000/svg" version="1.2" baseProfile="tiny" width="414" height="400" viewBox="0 0 414 400" stroke-linecap="round" stroke-linejoin="round">
<g id="ne_50m_admin_0_countries-botswana">
<path d="M 232.8416 1.2615 231.9756 3.4349 231.3155 6.6029 232.1171 8.965 233.879 12.133 236.4168 14.9108 238.3545 16.557 240.6522 20.6381 242.9586 25.7437 245.9894 29.7176 254.8974 38.8229 255.8834 42.0852 257.1223 45.3132 262.7167 51.5291 263.5869 53.5911 263.2139 57.8094 268.9755 70.4599 272.7565 77.8504 275.9587 79.2136 286.2129 87.0843 295.151 93.4117 305.6195 97.6857 313.3058 100.4979 317.0997 102.5513 318.9988 104.5189 320.5463 108.3042 321.3308 114.8802 321.6009 119.1328 329.8616 118.9613 336.6949 119.3471 339.0955 120.2002 339.9872 121.4134 339.7771 124.217 339.8714 128.3967 340.193 131.7619 339.4813 135.3585 338.9926 139.594 338.6625 144.8368 339.7171 146.8902 346.3317 153.4962 349.1096 157.7788 352.059 164.2605 353.7908 166.3439 355.1755 167.1713 361.1471 167.8872 376.5283 170.605 385.998 173.0786 393.53 175.6421 396.6637 176.3194 398.1941 176.9967 398.7085 177.6312 397.7654 183.277 398.0955 185.0903 398.9314 186.7193 400.2089 187.9968 401.7607 188.7985 407.4837 189.4029 410.9089 192.8367 413.0866 194.4271 402.7724 195.2759 397.6625 198.1352 394.6917 203.258 390.0405 207.0219 383.7045 209.4182 377.0042 211.0644 369.9309 211.9603 362.3988 216.3629 354.3996 224.2679 350.3228 229.2406 350.1599 231.2855 348.368 233.0559 344.9471 234.552 343.0137 236.3482 342.5636 238.4488 340.7417 239.4519 337.5394 239.3662 335.2931 240.9009 333.9984 244.0603 331.1691 245.9808 326.8008 246.6495 323.0327 248.4329 319.8647 251.3222 317.4212 252.7883 315.7022 252.8312 313.0315 255.1804 308.706 260.7404 307.9858 263.3254 302.0357 284.2795 298.7905 286.753 292.4974 291.0699 287.3961 296.2398 285.2098 299.2878 282.8134 300.6424 271.1232 303.1846 266.7763 304.5435 261.5206 306.5197 260.1917 308.2988 258.9014 314.7633 255.279 324.0358 252.3253 330.8776 250.4177 336.8278 247.1082 344.2183 244.2275 346.7004 240.9566 348.9681 236.6783 350.087 230.8482 350.8029 225.5411 350.5929 221.4343 350.7043 215.7413 353.315 210.4256 353.4865 201.9848 351.9818 195.1516 350.52 192.095 350.2156 186.0549 345.3886 182.171 345.4744 176.2465 345.0885 172.92 343.9825 169.8334 341.5133 163.1288 336.6563 156.5785 332.7253 150.7741 330.3975 145.3641 329.3086 140.2155 330.2775 136.2116 331.3149 134.6555 331.8336 131.5475 333.8613 128.3667 337.7066 125.7388 343.7296 124.7357 347.4163 121.7907 355.2398 117.8939 364.628 116.0248 367.3287 113.8728 369.335 110.4605 371.1183 99.3404 378.5731 93.7804 386.9711 90.2694 389.4146 86.0383 390.5592 82.4674 391.2794 80.4954 392.6726 78.292 396.9209 76.3886 398.417 74.2623 399 67.9006 398.4942 65.8644 398.0612 49.0085 398.8928 43.8685 397.5468 40.2247 397.0066 34.4717 398.7642 32.0668 397.6068 30.1506 394.083 29.2075 387.0011 29.5076 380.9866 32.6284 376.434 35.2262 373.0988 37.7726 368.7434 38.107 366.7972 37.5969 365.0396 37.0867 361.46 36.8124 357.7991 33.1943 349.7912 28.7402 339.1684 22.7644 327.3195 20.8996 324.0615 17.1486 318.9173 3.2506 309.1347 1.1372 307.8058 1.1372 306.7169 1.1243 297.2258 1.1115 284.6396 1.0986 272.0577 1.0857 259.4758 1.0686 246.8939 1.0514 234.312 1.0386 221.7301 1.0257 209.1481 1.0129 196.5619 1 185.922 11.0098 185.922 23.3945 185.922 38.1113 185.922 44.6187 185.922 44.9917 184.2415 44.9831 176.4352 44.9574 158.5247 44.9317 140.6185 44.9017 122.7123 44.8759 104.8061 44.8459 86.8957 44.8202 68.9895 44.7945 51.0833 44.7645 33.1728 44.7559 24.3205 56.0989 23.7932 69.1438 21.9841 90.2909 19.0434 109.9847 15.4038 122.8324 13.2733 138.0721 10.744 143.3149 10.311 144.7296 10.654 146.7959 11.5242 153.8692 20.4666 158.2761 27.287 159.172 30.2063 160.0122 30.515 162.0956 30.052 164.4363 28.9503 171.6253 22.1556 173.1214 20.3851 177.6998 17.0886 183.2598 13.7277 188.2926 11.3527 193.3425 9.3679 195.6789 9.8609 198.431 11.5757 200.8745 12.6388 212.359 4.3823 217.4904 2.4833 230.9639 1 232.8416 1.2615 Z"/>
</g>
</svg>