<?xml version="1.0"?>
<svg xmlns="http://www.w3.org/2000/svg" version="1.2" baseProfile="tiny" width="402" height="400" viewBox="0 0 402 400" stroke-linecap="round" stroke-linejoin="round">
<g id="ne_50m_admin_0_countries-brazil">
<path d="M 73.7217 42.1766 76.3443 44.5331 78.2811 46.2726 79.1193 46.8287 79.5832 46.9842 80.7103 46.8686 82.0487 46.6434 82.699 46.3942 83.4181 45.8496 84.5871 45.0932 85.5383 44.6771 85.9125 44.6218 86.2877 44.7553 87.0905 45.2073 87.5295 46.0509 87.1244 47.0295 87.1921 47.637 88.0358 47.6036 88.711 46.591 89.1843 45.7933 90.173 45.148 91.1357 44.2261 91.8079 43.3496 92.5957 42.8359 93.7841 42.2105 94.7244 41.8288 95.6064 41.8677 96.2606 41.4541 97.1082 40.6783 97.7012 40.0544 98.1118 39.8322 98.9375 39.8925 99.9674 39.8067 100.9795 39.0493 101.8998 38.133 102.3877 36.5898 102.7101 35.2229 102.9851 34.9459 103.319 34.7271 103.7131 34.5846 104.6589 34.4855 106.3157 33.7564 107.4573 33.018 108.5426 32.8595 108.863 32.6602 109.2567 31.977 109.4515 30.7736 109.3045 30.0441 107.3108 29.8194 106.0053 29.8184 103.8457 29.6306 102.8177 29.3301 102.5965 29.1208 102.5735 28.8891 102.7788 28.3689 102.9796 27.3912 102.6861 26.0682 101.6068 23.9928 100.8385 21.9538 100.7373 20.5322 100.7548 19.0298 100.8155 18.0482 100.2624 17.2798 97.2762 14.8601 96.2447 13.717 95.9019 12.9262 94.7254 11.4672 95.0234 11.0207 95.701 11.0372 96.2801 11.4179 96.8093 12.2281 97.1899 12.41 97.7087 12.409 100.4628 12.4055 101.1075 12.543 101.4972 12.8156 101.8296 13.1539 102.3229 14.0987 102.8526 14.5611 103.9428 14.5452 105.654 14.5257 106.6137 14.4415 107.1882 14.7046 107.9008 14.9224 109.4012 14.4206 109.8207 14.4101 110.2692 14.6309 111.8867 16.3231 112.8145 17.0371 113.5968 17.9814 114.7364 17.9864 115.6792 17.1752 115.9308 14.4465 116.2149 13.6547 116.6922 13.433 117.2593 13.4061 117.931 12.977 118.6595 12.4239 119.2913 12.2381 121.9194 12.8335 122.6494 12.5485 125.3103 11.827 128.0309 10.9006 128.7948 9.7326 129.9364 9.4187 130.8289 8.5626 131.5499 8.6528 132.6417 8.6872 133.3169 8.5377 133.6582 8.3753 134.0299 7.9726 134.6438 6.8286 135.3873 6.396 136.3226 5.9376 136.9614 5.397 137.4876 4.7292 137.7298 4.1492 137.7233 3.6878 137.4119 2.7959 137.0346 1.9552 136.6265 1.6777 136.3186 1.5705 137.2449 1.3757 138.0098 1.6682 139.2027 1.7131 139.7205 1.4878 140.4714 1.5985 141.4261 1 142.0375 1.1953 142.4426 1.1953 142.8109 1.6503 143.0954 2.163 143.9874 2.7869 143.8987 3.7361 143.7342 4.5763 143.6191 5.544 143.5678 6.2804 143.1886 7.0344 142.621 7.7384 142.4541 8.0245 142.3754 8.3957 142.7581 8.6209 143.4328 8.6882 144.2764 8.7176 144.8504 8.9359 145.5929 8.9807 146.4863 9.5856 146.9203 9.9484 146.9567 10.2299 146.6732 10.9021 146.5601 11.5235 146.7813 11.9172 147.0434 12.2007 147.7679 13.6014 148.1127 14.0887 148.4052 14.2457 148.473 14.5158 148.2254 15.027 147.9289 15.6778 147.2577 16.361 147.168 16.9011 146.6308 17.2404 145.3781 18.0472 145.5959 19.3263 145.6392 19.9751 145.6153 20.4789 145.1878 21.1536 144.4468 23.1462 144.1747 24.1398 143.934 26.4365 143.95 27.2064 144.2923 28.2433 145.0183 30.5439 145.4319 30.9102 146.3901 31.4503 146.5097 33.0065 146.4255 34.6315 146.3802 35.2618 146.5381 35.5319 146.9687 35.6614 147.2751 35.8568 147.3234 36.3376 147.2945 36.8369 148.0086 37.1254 148.6305 37.3093 149.2045 37.9989 150.243 39.0713 150.6556 39.2666 150.8623 39.7116 151.7378 40.6155 153.0728 40.9459 154.4187 41.3445 154.9484 41.913 155.5005 42.375 155.9161 42.3994 156.2688 42.3251 156.8494 41.927 157.3158 41.5847 158.1275 41.6041 159.0787 41.5478 159.2437 41.2663 159.3339 40.904 159.138 39.9762 159.4759 39.6946 160.2632 39.5367 160.4206 39.0419 160.601 38.7718 160.8258 38.4569 161.0958 38.412 161.4332 38.5919 161.9509 38.7045 162.5359 38.862 162.8508 39.1769 163.3706 39.2038 163.9486 39.1435 164.1823 38.9427 164.3522 38.5919 164.4778 37.8355 164.85 37.8136 165.5939 37.6431 166.3877 37.3093 167.4481 37.2605 168.4412 37.2674 168.938 37.0432 169.4004 36.5559 170.2959 35.1771 170.7643 34.8587 171.2675 34.6205 171.6951 34.6638 172.5726 34.4356 173.2941 34.1053 173.5617 34.1885 174.1238 34.896 174.4048 35.0515 174.8184 35.1008 176.1738 35.4596 176.8928 35.348 177.6726 35.1223 178.4216 35.0371 178.9612 35.1945 179.3499 34.9902 179.7854 34.8382 180.0914 34.9384 180.775 35.0246 182.3945 35.4178 184.5092 35.8578 185.0868 35.7063 185.4306 35.3958 185.5123 34.4859 185.5766 33.8441 185.1007 33.2771 184.5077 32.6338 183.9611 31.8315 183.3074 31.6043 183.3921 31.1912 183.8166 30.7647 184.2521 30.529 184.5048 30.2395 184.7788 29.1706 184.9617 28.9823 185.1466 28.9364 185.3663 28.9758 185.7968 29.2524 187.4621 30.1029 188.1931 29.9744 190.9851 29.7511 191.4071 29.2598 191.9986 29.1487 193.0022 28.6604 193.3988 28.627 193.7531 28.7451 194.2001 28.6519 194.8583 28.1965 195.1354 28.1486 195.24 28.6519 195.6671 29.1721 196.1823 29.6515 196.4315 29.7621 197.297 29.6071 197.7524 29.7407 197.9493 30.1867 198.0056 30.5758 198.3683 30.9052 198.8337 30.9132 199.0819 31.0457 199.5049 31.257 199.8662 31.7428 200.7028 32.13 202.132 32.6736 202.7962 32.6831 203.4146 32.849 203.7953 33.0125 204.2069 32.712 205.6694 31.8744 206.3819 31.408 206.8623 31.0542 207.2225 30.7168 207.4926 30.6267 207.6725 30.829 207.83 31.099 208.3507 31.2585 209.5725 31.5749 210.1336 31.6646 210.9209 31.396 211.5926 30.9391 211.915 30.7806 212.4143 31.2351 212.7541 31.8774 212.9828 32.1569 213.4901 32.0911 214.4882 32.1893 215.2287 32.3931 215.6866 32.3747 216.3129 32.0891 216.6503 31.5266 217.5383 31.0108 218.3829 30.5365 218.8672 29.9031 219.5833 28.8502 219.8234 28.3988 219.8723 27.6384 220.8808 25.4289 221.263 25.0238 221.4877 24.3262 221.8934 23.5165 221.8934 22.8413 222.1869 22.188 222.7649 21.623 223.1914 21.2702 223.8736 20.3209 224.348 19.427 225.5379 17.4413 225.6286 16.8787 226.101 16.5408 226.2584 16.1138 226.7627 15.5871 227.2934 15.1685 227.5201 14.5526 227.9098 13.9123 228.7634 13.4325 229.0788 13.2122 230.0455 11.4517 230.1551 10.6649 231.0281 10.6355 232.3999 11.5439 233.4937 12.8824 234.9597 17.1881 235.2033 21.1665 235.7978 23.2514 237.5015 27.5955 237.6106 28.3998 237.8842 29.3719 238.4223 30.4029 239.0163 32.1011 239.0387 32.4165 238.6525 32.8799 239.2186 32.9113 239.7313 33.1854 240.0662 34.2622 240.4892 34.9902 241.2601 35.9868 242.8377 36.3127 244.0286 36.4318 245.385 36.9959 246.3806 37.7189 247.1515 40.1675 246.8998 41.7072 246.9751 42.7895 246.5764 43.2136 245.4612 43.9227 245.2186 44.2989 242.9384 46.1291 242.4401 46.9937 241.2182 48.1542 240.0084 50.3666 238.2374 52.3867 237.6121 52.897 236.6549 53.0151 236.0738 53.3285 234.6976 54.9769 232.8509 55.5275 232.681 56.4827 231.6136 58.6652 230.6733 59.8572 230.0739 60.2618 228.5675 62.4373 228.3747 63.3881 228.3842 65.0514 227.3786 66.0649 226.3327 66.7087 226.2016 68.1319 225.7287 68.6182 225.3241 68.9351 223.1934 68.5624 219.8852 70.1091 218.7551 70.4938 222.3662 70.5735 223.5258 71.3957 226.0681 70.8506 229.1426 68.8873 230.317 68.4767 232.7034 67.1442 233.6731 66.2563 235.4425 65.1909 235.8192 64.7235 236.8103 64.2262 237.3475 64.859 237.3893 65.2597 236.5761 66.039 236.7874 66.5413 237.3241 67.1721 237.5184 68.0412 237.5887 68.7029 237.9205 69.8629 239.0143 71.4336 239.0517 71.9528 238.9012 72.6364 239.4244 73.2015 239.967 73.5364 241.8282 75.2266 243.2852 74.2818 244.1806 74.0087 244.7532 73.6141 245.9511 73.352 246.9332 73.7476 248.8053 74.3167 250.1746 73.7128 252.9471 72.3305 252.0801 74.7781 251.4522 77.0224 250.9744 77.9283 250.501 80.374 250.0321 81.0267 249.6524 81.7722 250.2713 81.5121 250.8015 81.1593 251.4791 80.2175 251.9879 78.5821 253.9945 74.216 254.5686 73.8284 256.2369 73.3311 259.1076 69.84 260.2302 69.851 260.9488 70.6542 261.6289 71.1286 261.8033 70.1739 262.7835 69.7832 261.746 69.3108 261.5766 68.8823 261.4779 68.1677 262.1835 67.202 261.763 66.348 263.2255 65.2696 263.1124 64.4604 263.6341 63.7927 264.2943 63.107 265.0422 62.7732 265.1788 62.1842 265.6507 61.941 266.0209 61.8533 266.7519 62.5121 267.5432 61.7337 268.3161 61.4288 268.6624 61.5643 269.0934 61.9081 269.5463 62.0546 269.9141 61.9929 270.8708 61.4946 271.7548 62.2968 272.286 62.4742 272.1405 62.0247 271.8604 61.6072 272.0777 61.2673 272.4958 61.0531 273.8172 61.2444 274.5119 61.6022 275.2633 62.2649 276.3072 62.3138 277.1264 62.244 277.6436 62.6167 278.4848 62.6147 278.9063 63.1947 280.1869 64.01 280.4645 64.5631 281.4945 64.8311 282.4597 65.17 283.4891 65.2627 284.5271 65.1819 284.5695 65.8815 285.3308 66.0709 286.308 65.9144 287.0465 66.7755 289.0207 67.4223 290.3885 68.4129 291.285 68.2375 292.2885 68.4986 293.3659 70.6532 293.6095 72.183 294.0894 71.9717 294.5339 71.2871 295.1104 70.0373 296.1892 69.6228 296.7054 70.1031 297.7872 70.8725 298.72 71.7176 299.1132 72.2597 299.8143 72.3484 299.2288 73.0151 299.8163 72.9484 300.5274 72.474 301.1358 73.4536 301.5937 74.52 301.6854 75.6063 301.2544 76.2301 300.8742 76.6208 300.4521 77.3902 299.9533 77.5287 299.455 77.7779 300.0236 78.3379 300.4137 78.8771 301.2648 77.4201 301.8633 77.0105 302.7298 76.7833 303.1803 77.8197 303.277 78.7984 301.8658 79.206 301.8603 79.9793 301.4382 80.4178 301.1627 80.9201 300.9404 81.9755 300.6529 82.8495 299.8118 86.7252 299.7949 87.3631 300.8194 86.6804 302.7084 84.7062 303.2839 82.6033 304.0289 80.5294 304.8406 79.8777 305.3429 79.8767 306.0963 80.1039 306.1392 80.7836 306.0241 81.1762 305.2183 82.2077 304.8755 82.7728 305.2074 83.3299 307.0386 81.6217 307.8583 81.0228 308.5569 81.1443 309.9432 80.356 312.7341 80.1916 312.9434 79.2897 313.5 78.906 315.0347 79.0076 318.0245 79.8139 319.0904 80.4726 320.6864 81.0855 321.5265 81.814 325.0365 83.1505 327.5853 83.294 328.8475 82.6871 330.4221 83.3229 331.2562 84.0345 332.8911 84.4211 334.5415 84.6224 335.8037 84.1112 339.0586 83.9428 343.1511 83.1873 345.5922 83.3667 348.3543 83.86 350.3225 85.1287 351.9798 85.8472 352.9824 86.5548 354.5999 87.2873 358.0526 89.2556 359.2604 90.3937 361.4011 91.9444 363.5488 92.5952 364.7108 94.2176 365.6297 94.9481 367.9059 97.6867 370.4895 99.6042 372.2176 101.5206 375.5328 102.7554 376.8269 104.7895 379.0697 105.0376 380.0264 105.3426 381.1874 106.2006 382.786 106.679 384.8678 106.5435 387.1635 106.6401 389.0196 106.2385 393.4126 107.0039 394.1037 107.3776 395.0131 108.2436 396.6167 111.4666 397.5729 115.0434 398.0453 117.78 399.14 119.9067 399.738 123.9001 400.2452 125.1568 400.2851 126.1235 400.7146 126.3427 401.0046 129.0365 400.891 130.1228 400.471 131.536 400.4396 132.1658 400.5014 132.5664 400.3155 133.1564 400.2582 133.7215 400.6837 134.9901 400.7067 136.0077 400.1366 137.2394 399.3598 140.4584 397.4094 145.7952 395.5408 148.8577 392.9263 152.0209 391.2231 153.6732 390.5479 153.8417 389.9285 153.5148 390.368 154.3868 389.9833 155.1542 388.2533 157.4822 386.5331 159.006 384.7492 161.6489 384.6137 161.7087 382.3265 162.7292 380.9737 163.5634 379.2441 165.0812 377.6565 167.473 377.3286 167.781 376.7436 167.6125 376.7601 168.8274 375.3933 170.7508 374.9762 171.0358 374.9876 170.4907 375.2248 170.0761 375.3355 169.6346 375.3255 169.1094 374.9433 169.4911 374.1346 170.9322 374.4066 171.9886 373.8196 173.5841 371.5808 178.1395 368.8397 181.9714 368.2078 183.1534 365.9575 185.7346 364.3042 186.9793 363.8393 186.9883 363.3126 186.8816 363.0475 184.8984 361.73 183.6975 361.3528 183.4862 360.8126 184.7579 360.3627 185.1067 359.7119 185.1824 360.4075 185.7365 360.6103 186.3774 359.9017 187.66 359.8798 188.826 358.6156 190.1106 357.8837 191.0504 357.5114 192.2273 357.2872 193.3266 357.8428 193.0266 358.1064 193.2578 358.3152 193.6006 358.1866 194.1059 357.7795 195.0606 357.8428 197.4375 357.7078 197.9777 358.1124 198.5617 358.5409 197.5641 358.7876 197.8421 357.5912 204.2113 358.0625 207.0775 358.2379 210.3244 358.7786 213.4936 359.3701 216.3269 359.4174 216.5541 358.5992 219.8429 357.5538 223.0868 356.9229 225.7317 356.5258 228.589 356.1287 229.9623 356.0026 231.3674 356.458 234.6971 356.6275 235.3279 355.3583 236.8128 353.9885 237.5334 353.2316 238.2489 351.5578 240.9248 350.6494 244.8792 350.6275 246.983 351.057 251.39 350.7346 253.1868 350.2054 254.3897 349.5786 255.179 347.98 256.1267 346.5479 258.4358 345.9251 260.8625 344.9439 261.7465 344.7431 263.1049 343.9533 264.5709 341.9058 266.7584 340.5744 267.3952 339.9395 268.0061 339.5364 269.2847 338.2528 271.3925 337.3065 274.1252 337.5527 275.056 337.5686 275.1985 337.913 278.3567 337.7859 279.16 336.5387 280.031 331.8402 281.6564 330.589 282.3301 327.7836 285.0957 327.6087 285.7484 327.7253 286.6792 328.1867 287.2144 327.7114 287.7944 327.1513 288.8349 326.3341 288.7711 321.6541 288.7731 319.1208 289.1029 317.8043 289.0392 317.2133 288.789 316.5505 288.3804 316.3512 287.8452 316.711 287.035 316.4982 286.5517 315.8041 286.5706 315.0417 286.7998 314.9097 287.2842 314.964 287.628 315.2475 288.1313 315.403 288.7482 315.091 289.2853 313.6081 289.3551 311.9413 289.8484 309.8624 290.0547 308.2061 290.4105 307.4407 289.96 308.2061 289.7348 309.3023 289.8444 310.4803 289.4717 310.2053 289.0312 308.5395 288.4621 306.6893 288.8109 305.6633 289.4876 303.419 289.4258 300.6704 289.9411 300.2224 290.4663 300.2971 291.4838 300.8353 291.707 301.36 292.1714 300.8557 292.604 300.3649 292.7953 297.4618 293.2677 294.7701 295.2489 293.6479 295.4951 292.6488 296.3691 292.5457 297.1155 292.2302 297.565 291.5894 297.5879 290.1857 297.1803 288.364 297.1684 287.0485 297.4932 280.3265 300.7062 277.9127 301.9919 275.1581 304.6129 270.515 307.5508 268.0764 309.3048 267.613 309.7593 267.2278 309.7842 266.4639 310.1499 266.7678 310.4529 267.2886 310.4808 267.0738 311.5023 266.1046 312.2009 264.2843 314.0357 263.8792 313.9011 264.4558 312.9474 263.5623 312.9115 262.2458 312.5617 261.6743 312.9563 261.9892 313.9011 261.4944 314.3057 260.596 314.3516 259.7812 314.24 258.8858 313.5483 259.2894 314.801 261.179 315.105 261.9663 315.4 262.2593 315.8813 260.7898 318.1117 259.559 318.4017 259.424 318.7166 260.0992 318.7146 260.4719 319.3315 260.0319 321.821 259.424 322.2944 259.0692 322.3064 258.7169 322.7319 259.2027 323.5451 259.7035 324.1381 259.6367 325.2882 259.4494 326.2399 259.4369 327.1637 260.0703 328.9516 260.2975 330.7873 260.5531 331.4551 260.6981 332.1955 260.2761 332.8882 260.5162 333.9994 259.7957 335.8889 260.1724 338.6166 260.0179 341.1718 259.7359 342.5152 259.279 343.5656 258.2171 344.918 258.1927 346.2714 255.9075 347.5301 253.3796 349.291 251.0466 351.3749 248.5352 354.3119 245.6027 358.7796 242.8865 365.1558 239.6162 369.9713 238.3082 371.7104 236.5403 373.6527 234.1893 375.918 231.0396 378.1842 227.5929 380.2033 226.3471 381.1142 225.1328 382.3928 224.8293 381.8646 225.0924 380.9916 224.925 380.3378 224.8876 379.4897 225.5827 379.3333 226.6232 379.8714 227.1534 379.5067 227.539 379.1459 228.7918 378.9207 231.1846 376.7033 232.9605 375.8831 233.9591 374.4829 234.1305 373.7384 234.0906 372.2286 234.6567 371.8459 235.9413 371.9774 236.2034 371.5479 236.0918 371.0715 236.3419 370.0331 238.0835 369.1112 238.9086 367.9971 238.6331 365.1578 238.952 365.0302 239.6685 365.4727 240.0044 365.2893 240.3657 364.0446 240.1923 363.3988 239.3486 363.2274 236.4331 364.6306 235.4834 364.5728 235.3259 363.4705 233.9083 362.9643 233.3542 362.0494 233.1882 361.4225 232.6964 361.1664 232.7273 362.2497 232.8623 363.3021 234.133 364.5279 233.824 365.0143 233.2216 365.5823 232.802 366.844 232.8494 368.4804 232.509 367.9821 232.0735 367.6941 231.8961 369.4531 231.0525 370.1258 230.7859 370.7865 231.0062 371.5529 230.5712 372.0821 228.422 373.5032 226.2799 374.4739 225.8139 374.9323 225.5852 376.0156 225.2578 377.1288 224.3101 378.1075 223.5577 380.0528 223.5781 380.89 223.8277 382.1237 224.2329 382.933 223.592 383.4741 222.7305 384.5245 222.0463 385.7085 220.3437 390.1533 218.8767 392.8321 217.7475 394.1446 216.1356 395.5279 211.5458 399 211.2707 398.9502 210.597 398.6701 210.0329 398.3373 209.9054 398.115 209.8411 397.7822 209.9153 396.5314 209.9054 393.1699 210.1042 392.5351 210.4002 392.1255 211.2946 391.5315 212.1631 390.6815 213.1433 389.6002 214.0462 388.7391 213.7228 388.1611 212.9679 387.603 211.626 387.1515 210.3334 386.3563 209.1873 385.3338 208.6576 384.2694 208.1728 383.1223 207.7089 382.2154 207.5544 381.8008 207.1015 381.6284 206.3829 381.165 205.933 380.7345 205.2742 380.4873 204.0977 380.2163 202.8719 379.7429 201.3476 378.6187 200.2479 377.371 199.7048 376.5468 199.1257 375.9668 195.979 375.0081 194.5499 373.863 193.9873 374.2198 193.1467 373.869 192.319 373.3179 192.0709 372.8953 191.7206 372.4618 191.3917 371.9645 191.1819 371.4871 190.3298 370.653 189.2301 369.7501 188.7637 369.4929 188.5175 369.5677 188.2793 369.9145 188.1289 370.2494 187.7133 370.4706 187.199 370.8842 186.6743 371.3904 186.0016 371.7263 185.2024 371.8409 184.6647 371.824 184.5541 371.6246 184.5242 370.933 184.723 369.3544 184.2551 368.7465 183.6322 368.0947 182.9147 367.2237 180.5568 365.377 177.3477 362.7181 176.2146 361.9049 175.1478 361.8421 174.1736 361.9328 173.2777 362.2846 172.6 363.5134 172.3189 363.7027 170.5904 363.6748 168.8712 363.4765 168.2937 362.7271 168.7531 362.2388 170.3721 361.1565 171.2675 360.1928 171.439 359.3466 172.2148 358.5872 173.5956 357.9145 175.1338 356.6758 176.8295 354.87 177.8595 353.5375 178.2237 352.6775 178.8885 352.0147 179.8552 351.5493 180.6993 350.5776 181.4228 349.0997 182.4109 347.9237 183.6626 347.0517 184.3632 346.3282 184.5122 345.7541 184.8665 345.3864 185.4251 345.226 185.6957 344.924 185.6777 344.4785 185.8297 344.1765 186.1526 344.0151 186.6918 344.0719 187.4477 344.346 187.9041 344.2951 188.0601 343.9204 187.8608 343.4909 187.3047 343.0075 187.514 342.4833 188.9745 341.6352 190.0533 341.3123 190.7354 340.7861 191.3817 339.951 192.4301 339.368 193.8817 339.0411 194.2659 338.7262 194.2135 338.3216 194.51 338.0306 195.3676 337.8203 195.834 337.4266 195.9097 336.8486 196.1858 336.3105 196.6617 335.8141 197.1924 335.6298 197.7779 335.7563 198.3275 335.569 198.8422 335.0647 199.4596 334.8295 200.1801 334.8624 200.5494 334.7518 201.7856 334.5176 202.4678 334.094 203.0284 333.1513 203.5262 332.7855 203.9612 332.9988 204.7131 332.6829 205.7825 331.8397 205.9838 331.8238 206.7741 331.4311 207.5873 329.9741 208.0079 328.9995 207.9072 328.2022 207.6401 327.6301 207.7293 326.792 207.9989 324.5128 208.0726 323.581 208.5052 322.9312 208.4773 322.2874 207.7054 320.8444 206.9266 319.5777 206.5085 317.427 206.2334 316.6108 205.5841 316.3946 204.9972 315.683 204.2552 315.6212 203.9059 315.3492 203.5451 315.1229 203.0189 315.1897 202.5705 315.6063 201.7358 315.6212 201.2106 315.7926 200.5922 316.1634 200.0047 315.993 199.634 315.6681 198.8377 315.6641 198.892 314.2011 200.2942 312.0325 200.671 311.023 200.4886 310.4509 200.9081 308.4328 201.9292 304.9697 202.255 302.7034 201.8848 301.6341 201.8748 300.8876 202.399 300.2518 202.6552 300.0625 201.3387 299.2861 200.6301 298.5775 199.7182 298.0713 198.7396 297.6666 198.2672 297.8351 197.7609 298.0713 196.7823 298.442 195.6681 299.0838 195.0945 299.32 194.082 299.5562 192.9344 299.7585 191.9897 299.624 191.1794 299.4884 190.6732 299.0838 190.4031 298.2058 190.4031 297.4633 190.2347 296.383 189.6267 295.7761 189.4244 295.3037 189.3905 294.7297 189.4583 294.0889 189.6267 293.6165 189.5256 293.0425 189.2555 292.6369 189.3233 291.9283 189.1882 290.9496 188.7831 290.3417 188.5803 289.6331 188.5803 288.9246 188.2769 288.216 188.243 287.4396 188.513 286.7311 188.6142 286.0225 188.3107 285.5162 187.7367 285.2123 187.2982 284.402 187.2304 283.3556 186.758 282.7816 186.2518 282.3092 185.6782 282.3092 184.8002 282.0391 184.0239 282.073 182.7752 282.0391 182.2016 281.8707 181.8982 281.499 181.1218 280.9927 180.6828 280.1157 180.1427 279.9473 179.3668 280.2163 179.0968 280.5542 178.7928 281.0266 178.2526 281.5667 177.5441 281.5328 176.8016 281.8368 176.0925 281.8707 175.1478 281.9385 174.2025 281.6684 173.0549 281.3644 172.0763 281.1621 171.131 281.3644 170.4902 281.195 169.6461 281.0943 168.7013 281.0266 167.9589 280.4864 167.1486 280.1825 166.7101 280.2841 166.1361 280.622 165.5287 280.5542 164.7523 280.2841 164.4484 279.6433 164.5161 279.2377 164.6851 278.8331 164.9885 278.259 164.8196 277.6511 164.8874 277.112 165.0224 276.6386 165.1574 276.0994 165.0558 275.5932 165.0224 275.053 164.9546 274.5467 164.8535 274.0066 165.2586 273.2302 165.5959 272.5884 165.3936 272.0493 165.4609 271.6776 165.731 271.0696 166.0683 270.3282 166.0349 268.9439 165.731 268.1337 165.4021 267.9144 165.3179 267.6693 165.4778 267.3494 165.3034 267.0195 165.2362 266.6826 165.4106 266.3876 165.1684 265.8046 164.6851 265.6362 164.5161 265.4678 164.3472 264.826 164.2122 264.0835 164.2794 263.5095 164.0433 263.0032 163.7059 262.7003 163.3686 262.1601 163.0307 261.7545 162.8962 261.1815 162.6719 260.44 163.3456 260.3015 163.6122 259.8859 164.0866 259.3228 164.709 259.1753 165.4494 258.968 165.7235 258.5515 163.9969 257.0526 162.9605 256.1527 163.5674 254.9358 164.5914 252.8838 165.583 250.8966 166.3394 249.3808 166.5327 249.1008 167.1925 249.0041 167.0719 248.2218 167.049 247.7095 166.5158 247.6796 167.1088 245.832 167.9848 243.197 168.6495 241.1998 168.8628 240.865 169.3421 240.7713 169.4493 240.5401 168.8737 240.2182 168.5224 239.5973 167.7551 237.8124 166.5457 235 166.457 233.9925 166.012 233.3706 165.2716 233.5769 164.395 233.3786 162.2045 231.8498 160.7535 231.0236 160.2612 230.5353 160.0429 228.9667 159.6099 227.2336 159.4231 225.0899 159.4998 224.5747 160.7266 222.9482 160.7226 222.1261 160.8268 221.4085 160.7754 220.8415 160.4715 220.8335 159.9787 221.0816 159.2347 221.273 158.8126 221.2889 154.5333 221.1354 149.6654 220.96 145.6153 220.8145 142.1003 220.688 141.9817 219.2878 141.7834 216.9388 141.6429 215.2725 141.4191 212.6285 140.0095 210.9822 138.4787 209.1953 137.9405 208.7379 139.7897 208.6811 141.1027 208.6402 140.8421 203.8416 140.4425 203.3513 140.0887 201.8026 139.8485 200.9256 139.1963 200.214 139.0483 199.4148 139.1673 198.8806 139.5236 198.5497 139.7593 197.7255 139.5819 196.8964 139.1963 196.125 138.7224 195.3845 137.817 194.9301 136.5204 194.1039 134.5596 193.0535 132.9013 192.322 132.3691 192.4117 129.4411 192.6977 128.4665 192.8472 127.8122 192.6798 125.6257 192.6878 124.7666 192.1247 124.0461 191.4699 122.5148 189.7937 122.2776 188.9545 121.6852 188.6884 120.7887 188.7901 119.8813 188.6755 118.1189 187.9799 116.4705 187.2663 115.6702 187.2962 114.9592 186.8517 113.7064 185.7635 113.1219 185.3399 112.8549 184.7768 112.5883 183.9477 112.085 183.7693 111.4332 183.9178 110.7281 184.3433 109.739 184.0593 108.5292 183.2949 107.7468 182.6979 107.3004 182.4149 106.25 181.9973 105.2344 181.9096 103.6987 182.5245 102.443 182.2734 100.4692 182.0512 98.7805 181.6067 98.1656 180.4476 97.8323 179.6803 96.8297 179.1999 96.0299 178.6139 95.0767 177.7249 94.6028 177.428 93.7407 177.1798 92.943 176.8659 92.8543 176.3028 92.5578 175.5614 92.488 175.378 91.9454 174.4781 91.6918 174.4153 91.4107 174.5917 91.1994 174.7222 90.9712 174.5628 90.9304 174.1601 91.0769 173.5154 90.7624 172.8387 89.9861 172.1291 89.5805 171.3956 89.5451 170.6362 89.3727 170.1289 89.0618 169.8728 88.8878 169.4273 88.85 168.7945 89.0747 168.0401 89.5625 167.1671 89.4579 165.8197 88.7613 164.0029 88.3766 162.6914 88.3038 161.8871 88.408 161.2912 88.831 160.7121 89.6717 159.291 89.8197 158.2067 89.5546 156.9839 89.5182 156.0511 89.71 155.4093 89.4185 154.5682 88.8241 153.7739 88.4095 153.754 87.8459 153.9712 87.1652 154.6419 86.365 154.7605 85.6539 154.3459 83.43 154.5193 79.9718 154.9339 78.5876 155.3634 77.7744 155.5468 76.7902 155.6873 75.2121 156.4587 71.3185 159.4535 70.5127 159.887 69.5943 159.9468 69.0612 160.3613 68.2016 160.6872 66.5129 161.8722 65.6533 162.8209 65.0908 163.68 64.4385 163.7099 63.9352 163.4727 62.3362 163.5913 61.52 163.8843 60.6325 164.7204 59.5308 166.2313 59.0763 166.6608 58.1899 167.1053 57.1659 167.473 55.8972 168.0281 55.3286 168.065 54.8274 168.1637 54.3943 167.9105 54.2498 167.3694 53.5941 167.0275 52.0294 166.8561 49.7144 166.4615 47.326 166.3847 46.1416 166.4216 45.1679 166.4455 43.4762 166.2343 42.2459 166.1984 41.1646 166.7345 39.5955 167.4003 38.8779 167.5697 38.3512 167.5946 37.838 167.5119 37.24 167.1671 36.3994 166.3718 35.7536 166.6777 35.2862 167.0186 35.2942 165.2895 35.3066 162.6894 35.3166 160.3962 35.3251 158.5615 35.3345 156.4208 35.3415 154.91 35.7815 154.336 36.0526 153.6942 35.7267 152.8361 35.7975 152.0498 36.0227 151.5027 36.3192 150.9685 35.6375 151.2356 35.3415 151.3841 34.9788 151.7897 34.1008 152.3378 33.5113 152.8849 32.8147 153.3314 31.9347 154.318 31.2102 154.8592 30.4597 155.203 29.208 156.362 28.1725 156.5922 25.4314 156.7706 22.5797 156.7656 19.9721 156.7617 19.5779 156.7467 19.6034 155.792 19.6671 155.1173 18.7782 154.4057 18.7184 153.5297 18.4817 152.9248 18.1852 152.1843 17.5628 151.7099 16.6883 151.5266 15.2522 151.117 13.1215 150.6914 11.0855 150.6615 9.0888 150.7024 10.3092 149.2155 11.5285 147.7296 11.4911 146.434 10.5065 145.3078 9.9753 144.6062 9.1531 143.6396 8.1396 142.9728 7.5855 142.0849 7.6368 141.5457 7.5481 141.1899 7.1629 140.9826 6.7777 140.6568 6.2446 140.301 5.6222 139.8276 5.6222 139.3532 5.385 138.8489 4.9998 138.257 4.9998 137.7826 4.6445 137.0421 4.2594 136.5089 3.8742 136.1532 3.3111 135.6499 3.3405 135.2343 3.7556 135.027 3.9335 134.5536 3.8742 134.0793 3.3998 133.7833 2.8367 133.6348 2.0962 132.7757 1.5631 132.3312 1.2073 132.0641 1 131.7682 1.2073 131.5609 1.4445 131.2639 1.5038 130.7905 1.3852 130.346 1.3852 129.9603 1.741 129.8418 2.1256 129.9015 2.5108 129.6644 3.0146 129.5757 3.5777 129.5159 3.8742 129.2498 3.8443 128.7754 3.4885 127.8565 3.1332 127.4719 3.0146 126.9088 3.3041 125.8235 3.4895 125.1319 4.1383 124.3974 6.1245 122.8228 7.9044 121.7534 8.7734 121.6448 9.4152 121.2481 9.8243 120.6422 9.9369 119.9795 9.8447 119.4025 9.5144 118.5484 9.1187 117.485 8.8222 116.893 9.0893 116.1815 9.5637 115.2088 10.5314 113.7408 11.4313 112.1622 11.53 111.7008 11.6451 110.7371 12.0602 108.7708 12.2894 107.7065 12.1703 107.2929 12.3786 106.9361 12.9412 106.6401 14.3005 106.369 15.2228 105.7811 16.645 104.6758 17.8304 103.4999 18.8106 103.1212 20.589 102.0329 21.6105 101.3422 22.0111 101.125 23.0157 100.6257 24.8155 100.4513 26.3159 100.2719 27.1635 99.944 28.4033 99.8085 29.2379 99.4398 30.1642 99.4298 31.9048 99.0551 32.4973 98.492 33.0035 97.8213 33.6822 97.2473 34.4775 97.0998 35.3654 97.1994 36.4258 97.1885 37.7119 97.0101 38.3343 97.4545 38.6074 97.9987 39.4006 98.5518 39.9637 98.5209 40.5268 98.4033 41.2971 98.8777 41.8009 98.8179 42.1268 98.5518 42.1891 97.8861 42.37 97.5253 42.7492 95.4434 43.3745 92.0072 43.9421 88.8918 44.57 85.4436 45.2187 81.8818 45.8755 78.2752 46.4146 75.3153 46.8781 72.771 47.1621 71.2103 47.6081 69.1663 47.782 67.3705 47.9619 66.8522 47.8477 66.4167 47.4631 65.7978 47.467 65.5258 47.5119 65.165 47.467 64.8501 47.0619 64.5132 46.747 64.3099 46.4994 64.0179 46.3867 63.6123 46.1844 63.2077 46.0942 62.7802 45.8017 62.4423 45.712 62.0148 45.9144 61.6102 46.0045 61.1826 45.9144 60.777 45.8017 60.3046 45.5765 59.8552 45.2347 59.5811 44.4185 59.2761 43.5973 58.5496 42.6296 57.8979 41.3918 56.6601 41.1217 56.0751 41.1173 54.4686 41.1706 52.7256 41.2503 50.0926 41.2912 48.7531 41.9898 48.6794 42.6057 48.643 43.249 48.5503 43.8096 48.4587 44.3238 48.2658 44.71 48.0266 45.1699 47.8707 45.5282 47.926 45.8864 47.7147 46.2821 47.5124 46.6678 47.347 47.2284 47.2089 47.7521 47.5308 48.0461 47.8522 48.3864 48.0087 48.7078 47.9718 48.9285 47.9997 49.1583 48.2568 49.4523 48.2753 49.8748 48.2294 50.27 48.1741 50.4538 48.1009 50.4817 47.9349 50.3806 47.6504 50.2425 47.3833 50.3527 46.9702 50.3621 46.4739 50.3806 45.8401 50.0681 45.4908 49.7557 44.8291 49.4064 44.2959 48.8643 43.9376 48.3585 43.7996 47.9359 44.0203 47.5408 44.0567 47.2468 43.8549 46.7689 43.8459 46.2542 43.7817 45.7101 43.7054 44.7294 43.8499 44.3791 43.671 43.9012 43.6526 43.3501 43.8454 43.3641 41.3016 43.3775 38.9023 43.3865 37.2201 43.8828 37.2565 44.4987 36.9535 45.4126 36.9067 46.1147 36.5873 46.5058 36.5618 47.2483 36.7183 48.0221 37.0462 48.7835 37.0925 50.7782 37.092 52.9323 37.091 55.3277 37.09 57.7259 37.089 59.8068 37.088 60.4496 37.107 60.0749 36.5484 59.6394 35.8244 59.8078 35.2543 60.0231 34.6803 60.2737 34.3803 60.922 34.6992 61.4652 35.6754 61.9161 36.4109 62.3561 36.7731 62.9022 36.8145 63.5216 36.6909 64.1385 36.3899 65.1919 35.0425 66.2393 33.89 66.782 33.5028 67.3575 33.1465 67.785 33.0115 68.37 33.0568 68.8648 33.3718 69.1847 33.9204 70.3562 35.8313 71.2397 37.2724 71.5367 38.1708 71.5556 40.3648 71.5008 42.3097 71.6169 42.5608 71.7908 42.6326 73.7217 42.1766 Z M 249.7326 56.9969 250.6864 57.0418 252.0367 56.8485 252.9411 56.3711 253.9532 56.2774 254.9543 56.3272 258.3262 56.8574 260.3523 57.0219 261.0933 57.1913 261.8173 57.4325 262.346 57.6926 262.4785 58.2586 261.9852 59.1635 261.6185 60.1153 261.2766 61.4437 261.0125 61.7138 260.5705 61.643 260.8456 62.832 260.7454 63.3074 260.5267 63.7698 259.9846 64.7295 259.1629 65.9513 258.9187 66.2074 258.2928 66.632 257.7841 67.1751 257.8932 67.6854 258.1478 68.1996 257.8464 68.8434 256.8737 69.7852 256.2917 70.0134 255.7555 70.1091 255.2617 70.0174 254.3857 69.0736 254.294 69.8121 254.0583 70.5675 253.7603 70.9811 252.6292 70.9373 251.9989 70.5326 250.9779 70.0842 250.7835 71.297 250.1487 72.1332 249.5089 72.3953 248.5068 72.5717 247.9318 72.9274 246.848 72.6494 245.8414 72.0933 245.2724 72.0455 244.8279 72.4949 242.4894 72.5776 241.4176 73.0341 240.7628 72.9045 239.7991 71.9837 239.6446 71.3708 239.0711 70.129 238.5564 68.6541 238.1896 67.3146 238.4986 66.1566 239.1229 66.1955 239.8619 66.3679 240.0189 66.2862 240.0552 65.9154 239.8923 65.6075 238.7014 65.6563 237.9494 64.9687 237.8189 63.9063 237.9733 61.6979 238.071 61.2444 238.5962 60.6116 238.7681 60.0515 238.6381 59.4565 238.8638 58.3772 239.3556 57.4424 241.2327 56.2644 243.4098 55.8459 249.7326 56.9969 Z M 305.8541 290.8231 306.173 291.1031 305.5841 291.0752 304.9233 291.3223 303.9073 291.5416 303.4982 291.131 304.3762 290.561 304.6951 290.1314 304.9243 290.2211 305.2183 290.5311 305.8541 290.8231 Z M 260.3892 324.0883 260.1988 324.2128 259.559 322.9462 260.8451 321.7283 261.2751 322.2226 260.9333 323.1863 260.5561 323.865 260.3892 324.0883 Z M 294.3126 298.449 294.3061 298.9811 293.8811 298.7101 292.7554 298.9164 292.3618 298.5147 293.8831 296.7996 294.19 297.0488 294.4267 297.3617 294.5897 297.7982 294.4143 298.0802 294.3126 298.449 Z M 302.0781 84.6573 301.0735 85.6569 301.4044 84.4969 301.2354 83.6976 301.366 83.0787 302.0511 82.4798 302.2604 82.3911 302.2006 83.1276 302.249 83.3538 302.0781 84.6573 Z M 360.8131 188.3147 360.4135 188.535 360.3731 187.8862 361.4151 187.068 361.586 186.1013 362.1326 186.5488 362.2781 187.0431 362.2692 187.2484 360.8131 188.3147 Z M 359.1832 192.1556 358.8329 192.7565 358.4278 192.6668 358.2683 192.2642 357.9728 191.8716 358.1318 191.5646 358.4019 191.3902 359.1468 191.4171 359.1832 192.1556 Z M 298.1615 68.1069 297.5082 68.5983 297.2964 68.8514 296.7558 68.663 296.8539 68.381 297.0134 68.4099 297.1863 67.5907 298.1086 67.6884 298.1615 68.1069 Z M 248.6144 51.9213 249.0325 52.454 247.5865 54.5877 246.7892 54.8946 245.9177 54.9569 244.7885 54.3211 243.0286 54.3664 242.4789 54.2155 242.4211 53.2856 243.1606 52.293 244.6371 52.3464 247.1779 51.5501 248.6144 51.9213 Z M 242.892 34.8751 241.8735 35.341 241.2885 35.1611 240.7489 33.9463 240.9322 32.9353 241.6697 32.5999 242.2422 32.6717 242.453 32.8012 242.9623 34.4561 242.892 34.8751 Z M 239.2804 56.0013 236.4894 57.9985 235.5442 57.3428 235.3493 56.9631 235.5098 56.5804 235.4754 56.4169 235.7883 55.7323 237.3485 55.1702 238.1333 55.075 239.1364 55.2499 239.3038 55.7382 239.2804 56.0013 Z M 251.6182 55.805 248.9144 56.1249 247.6772 55.6162 247.9567 55.1871 248.879 54.5035 250.0027 54.0181 251.0103 53.8039 252.0612 54.0739 252.3487 54.647 252.2615 55.224 251.6182 55.805 Z M 241.5945 53.2368 241.4126 54.7362 239.5759 54.1028 239.7134 52.5681 240.573 52.1381 241.3348 51.3219 241.595 50.3213 241.6104 48.9609 241.8929 48.7247 242.1391 48.6281 242.3613 48.7213 242.4475 50.7638 242.5522 52.0145 241.5945 53.2368 Z M 244.3824 50.6472 243.2762 50.9925 243.0699 50.6696 243.0684 49.387 243.3799 48.6834 244.792 48.4866 244.9365 48.2798 245.3426 48.1467 245.5674 48.5877 245.5345 49.3227 244.3824 50.6472 Z M 227.2421 69.2899 226.1618 69.4822 227.553 66.93 228.7982 65.742 228.8162 63.3841 230.1656 61.2873 231.4063 60.4332 233.1459 60.183 234.0976 61.4617 232.9181 65.0853 232.5733 65.1062 230.9912 67.0177 229.2303 68.3521 227.2421 69.2899 Z M 261.3947 338.0226 260.6936 338.484 260.8202 336.0613 261.1979 335.2521 261.6105 334.6481 262.1192 334.2734 262.4965 334.8026 262.1736 335.9746 261.2836 337.4107 261.3947 338.0226 Z"/>
</g>
</svg>