<?xml version="1.0"?>
<svg xmlns="http://www.w3.org/2000/svg" version="1.2" baseProfile="tiny" width="500" height="396" viewBox="0 0 500 396" stroke-linecap="round" stroke-linejoin="round">
<g id="ne_50m_admin_0_countries-Brunei">
<path d="M 380.7 49.3675 425.3706 49.3482 436.5767 62.3835 460.0288 108.1709 475.3169 154.1508 480.2846 224.1989 499 254.0049 496.0348 260.1086 484.7516 265.1148 467.4225 267.2328 437.4239 260.5322 412.3545 250.1925 390.4813 174.3873 380.7 131.5267 381.5087 80.3481 380.7 49.3675 Z M 380.7 49.3675 348.3523 66.504 316.7363 87.9921 285.0433 106.4957 270.2558 120.9944 275.493 141.3273 283.1178 186.0749 287.3924 221.2144 298.483 235.0777 307.1475 249.095 303.5277 264.3639 284.7737 293.4383 295.4023 299.0606 281.8856 337.589 261.7068 366.0858 233.7491 389.3068 215.6884 394.698 201.286 384.8012 177.7954 359.3659 152.1098 323.8798 140.095 303.2581 103.1647 300.524 90.0331 284.1961 89.2244 264.2676 78.7499 240.7963 64.1935 215.7076 42.3973 196.3568 13.3229 181.2612 1 170.4401 45.9787 171.1141 93.884 164.7215 143.1757 143.7341 190.6189 118.4336 230.5144 89.417 267.9453 56.742 307.3016 30.9601 368.3385 1 388.9409 3.3683 388.7099 24.6253 380.7 49.3675 Z"/>
</g>
</svg>