<?xml version="1.0"?>
<svg xmlns="http://www.w3.org/2000/svg" version="1.2" baseProfile="tiny" width="500" height="241" viewBox="0 0 500 241" stroke-linecap="round" stroke-linejoin="round">
<g id="ne_50m_admin_0_countries-Bulgaria">
<path d="M 453.4475 182.0257 442.6554 180.6232 438.8841 181.0478 436.4685 183.0231 431.4582 182.6257 425.2557 182.6413 418.7727 184.9088 415.1805 185.875 410.3884 183.7945 401.4587 177.557 396.0354 173.209 391.9991 172.1142 387.9316 173.4038 373.4383 174.8765 370.0098 177.4128 363.3164 180.2063 356.5763 181.5387 346.9063 182.4816 341.8103 182.3569 338.9661 183.7088 336.574 187.7958 334.9454 191.7892 333.5195 193.41 321.4651 195.3892 318.8236 197.6839 318.0834 199.9281 318.3171 202.1722 308.7173 199.9982 301.2836 201.4436 299.5382 203.1618 297.9798 205.628 298.8525 208.2656 301.5875 210.8175 304.1667 217.733 305.0939 224.6484 303.5121 228.5679 298.0109 231.3652 286.5955 234.4587 275.5541 232.9821 270.6841 234.2093 262.5102 234.6028 254.9752 235.4249 243.3962 238.2534 232.9626 239.9131 223.5653 234.1509 212.4071 230.2237 200.7034 227.89 196.6281 229.5925 194.8671 230.9328 185.0802 225.8367 180.6855 224.0212 178.5583 222.0537 174.483 215.259 172.0597 215.0447 163.9871 217.5732 156.2261 217.4525 151.5119 216.9927 137.6031 217.2771 135.7563 221.9173 134.0343 222.6381 131.0187 223.2576 123.6241 222.9654 114.1645 226.3939 104.0192 228.4861 96.0946 228.5445 87.9207 227.5315 83.0273 228.2562 72.4768 228.6302 65.7834 233.6483 55.381 233.3639 46.6382 232.5146 47.7291 230.9328 49.4668 211.024 53.7914 202.141 53.6277 200.3138 52.7005 198.9307 48.8668 197.5008 46.0928 192.7048 40.3189 180.066 37.0696 177.5063 27.9918 174.8375 20.0439 171.1908 13.3037 166.3831 1 154.5041 7.2259 153.3158 9.1116 150.9003 15.3219 144.3705 16.0309 141.1601 15.3764 139.3485 11.2154 136.2044 8.3557 129.359 10.5141 122.9461 10.7011 119.6501 8.5973 116.3891 10.7947 112.3333 15.2595 110.1126 18.0803 109.4619 29.8931 109.0256 37.3735 100.9023 41.9162 98.3076 46.5759 93.7024 48.7343 92.0194 50.7836 88.4311 51.4927 84.7649 42.1344 79.6299 38.9553 75.769 34.7943 71.5067 29.1606 68.5613 17.7997 63.5003 13.3738 58.3653 11.3791 51.7109 8.3635 46.6655 5.0519 43.3812 4.4207 40.7085 3.0415 37.4241 2.7065 30.9762 5.3869 22.4049 7.1246 19.3815 10.9739 18.5361 21.2205 13.966 21.6958 8.1181 23.5425 4.487 26.8074 2.4026 29.8073 1 35.4021 4.3973 48.9837 9.8167 55.6147 13.7517 55.2875 16.2063 52.1706 18.6179 46.2642 20.9945 42.8279 24.1308 41.8851 28.0307 42.7812 30.7814 46.8798 33.1813 71.2612 30.0372 95.9933 31.658 129.2032 36.9955 151.2236 38.8462 167.4857 36.38 197.6177 40.8448 225.6614 45.0019 252.5831 46.2409 267.6686 42.9721 278.258 38.5773 287.3981 30.3021 309.9328 19.3932 331.7507 13.2725 360.3554 8.309 379.4382 6.6181 382.1343 8.3129 406.4456 18.3374 417.2688 18.3725 426.0349 20.1491 429.2141 22.7984 431.4348 23.4607 443.0606 20.9828 448.219 26.4684 456.2838 34.1436 470.0056 38.0981 482.2314 40.3383 486.0807 40.6812 499 40.5409 497.1221 59.764 489.4313 68.7015 477.7977 65.7055 462.9616 68.1989 455.0994 78.3598 450.6423 81.3715 446.6216 84.913 444.0346 98.1128 443.4268 119.7358 437.801 122.3734 432.6426 123.1799 411.1832 142.2082 423.5336 147.5613 429.0115 151.6327 438.0425 162.9585 450.915 175.7726 453.4475 182.0257 Z"/>
</g>
</svg>