<?xml version="1.0"?>
<svg xmlns="http://www.w3.org/2000/svg" version="1.2" baseProfile="tiny" width="500" height="358" viewBox="0 0 500 358" stroke-linecap="round" stroke-linejoin="round">
<g id="ne_50m_admin_0_countries-Burkina Faso">
<path d="M 405.3077 258.073 389.1002 258.7153 383.1938 260.4546 379.6413 260.4823 379.5184 259.0226 379.1066 258.1529 358.6582 253.2667 344.3161 250.3718 329.7866 247.1451 328.963 250.1659 326.8733 252.1143 323.7357 252.2556 321.5507 251.7793 320.091 254.1056 317.6878 257.1695 314.3197 258.6753 311.0192 260.5653 309.1631 262.2186 307.8171 262.2585 304.4889 258.3434 300.0729 257.947 291.8063 258.6108 288.1001 257.5414 283.0234 257.0159 271.0568 257.8241 251.9145 256.223 248.7861 257.0896 247.9564 257.7964 229.0139 257.9839 208.163 258.1898 190.714 258.3588 175.453 258.5063 175.4254 257.8394 170.5269 257.7503 169.9829 259.0656 165.656 274.7691 165.1797 283.3061 167.4753 288.6164 170.069 291.9722 172.9669 293.3705 173.2527 295.2912 170.9356 297.7435 171.1323 300.2665 173.852 302.8633 174.5188 305.5952 173.1359 308.4655 173.4678 315.3554 175.5114 326.271 175.5698 333.3483 173.6368 336.5812 174.5526 342.1066 178.3141 349.9184 178.9656 353.2281 177.6226 354.7523 174.5127 356.7929 171.3566 356.7222 167.6812 351.9958 166.0617 349.8753 163.0869 345.0844 160.5609 340.2627 157.1405 338.1515 153.7939 336.1878 149.7098 330.0785 145.7547 327.1652 141.5907 327.998 135.5121 326.861 123.2474 325.349 110.0639 325.7977 104.5876 327.199 99.1852 329.4209 85.4853 334.3225 80.0705 336.744 75.9772 342.8841 71.3215 342.7396 66.6596 340.7729 63.7432 337.9886 57.4987 338.6125 51.4601 335.9082 45.6274 330.5825 41.3312 328.8339 35.8427 324.9864 34.3246 317.6602 30.8458 312.5097 27.6652 305.3801 22.9173 302.1687 17.441 300.4662 9.8904 300.8227 4.9182 297.9555 1 293.7731 2.0387 290.1591 3.8027 285.0209 4.0116 280.0579 5.1825 272.0371 4.4603 261.9881 3.0805 254.9815 7.2507 252.0651 12.0846 249.4499 15.0778 244.6866 18.2001 233.9984 19.5123 224.7669 18.5443 221.3496 16.937 218.6361 15.6648 214.6441 14.9426 209.7886 15.8154 205.5416 19.4631 201.6173 24.0359 198.3383 27.2841 196.7557 35.9011 195.1331 46.6661 192.69 52.8737 189.9181 57.4096 187.1461 59.948 184.955 62.5201 180.4591 66.6842 176.9773 69.9048 173.4648 70.3534 163.68 70.3319 158.1085 67.9441 155.0385 66.6381 152.4049 82.5936 144.759 82.7103 139.3596 80.4823 133.3272 77.3601 128.4717 76.1985 124.2831 80.6053 119.3569 84.5388 115.6538 87.3814 112.5039 93.6659 107.7068 100.2023 106.4622 106.1088 108.2661 123.5855 119.5536 126.6155 120.2758 130.2479 119.4153 134.8545 116.4375 140.8316 114.105 143.035 106.5513 142.8199 95.4329 144.1752 90.3408 147.3343 89.4281 157.3894 91.5516 159.9985 91.6776 162.9179 90.9646 165.0414 89.0102 164.9523 85.43 164.4883 82.2586 167.758 71.9392 173.7413 64.198 185.8339 54.5147 189.5985 52.5818 193.9838 51.5861 215.6337 58.2363 219.1646 56.5891 224.4565 40.105 230.3261 38.5347 237.3758 38.2489 241.9516 36.8353 244.3271 35.6829 254.6281 29.4353 272.7962 20.9105 282.5778 17.2597 284.4893 15.886 291.4898 9.8413 300.7736 2.8961 306.6892 1.5101 314.8667 1 320.0295 2.1463 321.4278 4.1069 323.118 5.1149 333.7877 2.1616 349.0948 6.8573 362.3214 11.4731 361.4609 14.3956 361.3933 19.5707 360.2808 27.7451 358.9471 37.5452 364.4049 43.888 370.9506 50.7103 372.7084 53.3685 370.969 60.0893 372.1737 64.0321 375.6463 70.5931 381.5097 78.9243 387.5391 87.5043 391.7185 88.6383 395.6951 89.3236 398.1044 90.8632 401.6446 92.3506 405.1479 93.3248 408.2087 95.1994 410.1693 97.0371 412.6954 102.3289 419.4992 105.823 424.2318 109.2741 422.3265 111.0319 416.4077 110.3282 410.8454 108.8131 410.1079 111.3515 409.8743 121.0532 410.7717 129.1385 412.0685 130.2141 417.6615 131.7046 430.9987 142.2053 443.0698 152.1375 447.1263 154.722 453.8072 155.7023 461.2809 156.1141 464.4954 155.1952 471.7479 150.1892 475.6015 149.636 479.154 149.7774 481.09 150.5764 484.5626 154.6575 487.8201 160.8251 488.7482 165.3795 488.4409 167.8226 487.3346 168.7445 481.3912 169.9246 478.8221 170.8496 478.1829 172.1833 479.0987 175.241 480.2603 177.217 486.7445 186.1228 496.1174 198.1109 499 201.1901 497.3713 204.7764 492.5834 214.1432 489.037 218.0522 473.2721 231.3156 465.5464 229.7453 449.3328 232.4342 446.905 229.3827 443.1251 228.977 438.4294 229.5087 436.727 230.6672 436.2107 231.9702 434.5328 233.8018 431.5457 239.066 429.2225 240.4058 426.3399 241.2202 422.8182 241.1126 420.7469 241.7949 420.7285 244.407 420.1015 246.6749 417.7107 247.8089 416.7027 250.3473 416.8932 252.8426 415.4919 253.9858 412.4434 253.362 410.6303 252.6767 408.9278 255.9003 406.8258 258.1007 405.3077 258.073 Z"/>
</g>
</svg>