<svg xmlns="http://www.w3.org/2000/svg" version="1.2" baseProfile="tiny" width="252" height="300" viewBox="0 0 500 596" stroke-linecap="round" stroke-linejoin="round">
<g id="ne_50m_admin_0_countries-Burundi">
<path d="M 427.5634 25.1369 422.0433 32.3888 396.6345 84.2616 391.7097 92.0547 394.5239 96.8442 405.3206 106.6667 398.9887 122.9835 396.4451 127.3671 391.6556 142.6015 394.2804 156.5912 400.3958 161.7595 416.8749 168.5243 441.6072 173.4221 470.7501 185.0576 490.3681 187.1682 494.9682 195.5566 494.0481 210.5745 498.9188 223.6171 499 246.9423 493.1281 267.4533 463.0923 277.0864 447.6414 287.6125 443.4472 292.889 447.2355 299.0586 449.2649 307.3658 420.9879 327.8226 391.9262 354.5302 384.999 372.5517 379.2083 393.8474 370.7117 407.4312 348.5772 427.0222 326.0097 466.4747 314.9424 492.0999 259.5519 553.6057 210.304 584.291 195.9625 594.763 108.8044 592.95 102.1478 551.4951 88.8887 494.887 58.934 443.7448 55.7681 422.395 57.1481 381.1566 57.2564 323.1684 55.281 292.0231 55.9034 269.2933 59.7188 229.7867 59.2587 206.1909 39.5325 178.9692 15.0167 150.0158 1.6765 135.8367 1 124.3906 1.0541 113.8374 5.0048 98.4136 14.5838 81.2309 25.3534 79.3368 51.8174 86.1557 79.3909 100.7678 94.0029 133.5907 105.2055 138.3261 125.5541 138.272 177.5622 133.9425 190.4965 134.4837 214.1464 126.6365 237.6339 112.7821 244.3987 98.4407 249.8918 66.2942 254.8166 8.3601 266.8038 7.6837 299.6268 28.3029 306.6622 29.71 313.5894 28.9794 324.9544 18.7509 338.944 10.4437 349.2536 10.6602 387.3532 1 407.783 18.4803 420.7173 23.8922 427.5634 25.1369 Z"/>
</g>
</svg>