<?xml version="1.0"?>
<svg xmlns="http://www.w3.org/2000/svg" version="1.2" baseProfile="tiny" width="800" height="738" viewBox="0 0 800 738" stroke-linecap="round" stroke-linejoin="round">
<g id="us-states-5">
<path d="M 343.4254 2.2761 343.8508 136.694 343.4254 234.9552 443.3881 304.7164 537.8209 373.2015 612.2612 428.9254 665.8582 470.1866 760.2911 545.4776 760.2911 555.2612 773.0523 568.0224 783.6866 588.4403 799 599.5 789.6418 609.7089 777.306 614.8134 767.9478 628.4254 770.9254 646.7164 768.7985 658.2015 753.0597 669.2612 758.1642 698.1866 768.7985 698.6119 773.0523 713.0746 768.7985 719.8806 753.4851 722.8582 650.5448 730.0896 566.7463 736.8955 557.3881 726.6866 556.9627 710.5224 551.0075 691.3806 539.9477 677.7687 515.7015 659.0523 484.6492 641.6119 478.694 646.291 466.7836 643.3134 468.485 635.6567 454.8731 619.9179 436.5821 623.3209 404.2537 611.8358 399.5746 602.4776 377.8806 590.9925 353.209 591.4179 332.7911 586.3134 306.8433 588.4403 293.2313 578.2313 296.209 556.5373 291.5298 553.1343 294.5075 537.8209 274.0896 526.3358 273.2388 510.597 265.5821 509.7462 252.8209 496.1343 243.8881 493.1567 240.0597 484.6492 210.2836 452.7462 196.2463 443.3881 193.2687 418.291 199.2239 420.4179 204.7537 405.5298 193.694 391.9179 180.0821 393.6194 162.2164 381.2835 155.8358 371.5 157.1119 362.1418 148.1791 349.806 148.1791 329.3881 162.6418 329.3881 156.6866 300.8881 150.306 303.8656 149.0298 317.9029 133.7164 320.8806 115.4254 310.2462 112.4477 291.9552 100.5373 277.4925 84.7985 268.5597 76.291 258.3508 53.3209 238.3582 57.1492 232.4029 46.515 206.4552 51.194 191.9925 44.3881 170.2985 24.3955 149.0298 4.8283 137.1194 1 123.0821 20.5671 89.0522 24.3955 77.5671 20.5671 68.6343 27.7985 45.2388 21.4179 23.9702 12.9104 18.8656 16.3134 1.8508 92.4552 1.4254 158.8134 1 263.0298 2.2761 343.4254 2.2761 Z" id="06"/>
</g>
</svg>