<?xml version="1.0"?>
<svg xmlns="http://www.w3.org/2000/svg" version="1.2" baseProfile="tiny" width="500" height="407" viewBox="0 0 500 407" stroke-linecap="round" stroke-linejoin="round">
<g id="ne_50m_admin_0_countries-Cambodia">
<path d="M 69.3432 323.2196 67.6687 324.1213 66.0861 324.0937 64.4668 322.7136 64.6232 317.2805 65.8009 313.9636 68.5611 313.338 69.3432 323.2196 Z M 95.0317 376.5978 91.5906 380.2551 86.0978 372.7289 86.1438 370.6173 95.0317 376.5978 Z M 490.8941 1 492.3847 6.1938 488.4191 16.011 484.2052 24.9174 476.2925 32.692 475.9061 38.4241 473.1827 55.5007 474.2316 60.9383 476.0717 65.5939 478.6479 68.0873 485.5117 84.8005 491.759 100.0093 497.9143 112.4947 499 120.3982 493.3507 140.4052 486.7446 158.7837 487.3242 167.9477 490.1489 177.1208 493.1667 189.3532 494.2892 204.9853 492.6515 215.1797 489.6704 221.5145 483.9752 228.001 479.016 231.3179 473.0539 225.802 468.3063 225.5628 461.9394 227.2189 456.9342 229.7583 446.7305 239.2903 435.4228 248.5601 419.7815 250.9293 413.6998 257.8114 407.1857 258.7637 394.8107 259.1087 386.7324 260.7189 387.1004 264.1784 386.438 280.5097 386.6036 284.3326 385.3523 285.3493 379.7582 285.8369 370.2723 283.3389 357.4372 279.2952 348.3101 278.6603 343.6177 285.7771 340.8206 288.5604 337.3612 288.9882 333.7453 290.2487 332.5216 293.423 332.2271 297.3977 333.9845 304.1878 334.6377 314.9895 334.1777 322.3501 337.5268 327.0103 357.1152 342.6654 362.9024 346.5803 363.5649 348.9173 360.133 357.428 363.1877 369.3982 357.0508 369.1774 346.8103 364.0387 341.9155 360.8967 335.981 363.4085 333.9201 362.9301 329.9085 357.0416 324.6641 351.0197 319.2633 350.6378 307.8451 353.007 296.1786 354.654 291.753 354.6356 289.9405 355.7213 283.1687 364.6644 280.3073 363.1279 268.5487 359.7282 257.8298 358.4263 255.6217 360.7357 256.9282 368.0365 259.2836 375.1579 257.8942 378.1849 252.0058 381.9296 244.2219 388.683 239.4467 393.9366 236.1345 395.2247 224.2839 394.9947 212.4701 395.6801 207.7409 400.6393 203.3062 404.4991 199.4787 405.5479 184.0306 393.2971 153.3829 389.0234 150.0522 383.6225 147.108 382.5691 144.2833 389.5938 127.4552 396.3426 120.4074 392.2667 115.2366 387.3259 116.0094 381.2902 120.8766 376.3586 129.2401 372.8209 133.1044 360.4274 126.7375 344.5469 121.1526 339.9236 115.255 336.2571 109.0629 342.164 103.846 352.2664 98.4084 357.4648 90.735 358.6241 79.4916 358.2055 75.1213 343.1254 73.6768 330.1892 75.2133 315.4266 76.9154 306.6766 66.0861 294.6145 65.4881 283.1273 60.2529 277.202 58.7163 280.1969 58.8635 283.4953 57.373 281.1031 40.278 247.4008 37.4166 231.7733 40.3516 219.7387 42.0722 215.6996 37.1406 209.3649 30.2032 202.1653 17.9478 192.7391 17.1105 177.8201 14.3779 160.2282 10.6976 154.2984 5.0759 143.4645 2.0397 134.4891 1 110.7696 2.5641 108.8558 11.2496 108.1704 22.401 106.4636 24.1583 102.6315 22.1985 99.4665 29.3291 94.0978 39.5512 82.3255 47.4546 70.0241 53.1499 62.2586 56.545 54.5484 68.0183 43.6363 83.8804 36.0917 94.6269 34.3297 105.8334 31.7581 116.5707 28.1008 121.6587 27.7558 134.9906 32.1768 142.1948 33.3084 149.7578 33.2486 157.5968 33.7087 164.4238 33.2532 180.7643 30.1664 198.0893 32.6092 213.5558 30.6816 232.7026 27.1209 242.1058 29.3659 250.6717 32.9358 251.8678 40.1584 253.8459 43.4569 256.6981 46.0055 260.5073 46.0009 265.3929 40.9589 269.4596 35.765 270.7937 34.8082 271.0053 37.366 273.0295 42.9922 276.673 48.5357 280.3625 52.216 286.5178 57.1062 290.5201 57.3408 303.6036 52.7174 323.2196 59.4248 325.5106 62.8061 331.8591 69.633 338.7413 74.5416 354.0329 74.8545 359.489 62.8015 356.8484 55.4547 348.126 42.661 345.7522 35.1118 348.5309 33.7777 363.3073 32.347 365.7087 30.861 368.9749 22.562 372.9865 23.505 381.1843 24.5815 389.8515 18.9047 394.9855 12.9518 397.7825 15.666 400.8464 19.8431 404.1954 22.2629 410.4335 25.8512 417.2881 30.8978 421.5573 35.8571 424.9891 37.78 433.7759 36.3953 436.122 36.5885 441.2193 30.5896 444.7984 27.3234 447.8346 28.2572 452.2602 28.1698 461.4241 20.5194 466.6686 13.5268 469.53 11.6177 477.7463 15.1094 481.0309 14.3963 485.7785 4.7769 490.8941 1 Z"/>
</g>
</svg>