<?xml version="1.0"?>
<svg xmlns="http://www.w3.org/2000/svg" version="1.2" baseProfile="tiny" width="269" height="400" viewBox="0 0 269 400" stroke-linecap="round" stroke-linejoin="round">
<g id="ne_50m_admin_0_countries-cameroon">
<path d="M 1.8045 291.5266 2.8271 288.8184 4.7598 285.5307 7.3811 281.3465 10.3603 276.0902 12.3919 266.7946 13.7759 261.0032 15.0405 255.7214 17.2084 250.9492 19.4071 247.7604 25.6416 241.5804 30.3388 236.9207 32.742 235.0442 34.4191 233.4642 37.3437 231.6576 40.3434 229.5084 42.6341 225.389 44.5293 221.5439 45.9541 220.7139 47.8221 220.039 53.5692 215.9161 57.2234 213.2965 58.0687 214.597 58.6891 216.2161 59.3845 216.9558 62.4421 217.4739 66.6348 217.4398 69.0482 216.9677 70.3299 215.5991 71.632 211.8649 72.3922 211.1576 73.3739 210.9701 77.9586 213.5812 81.7593 217.2984 85.5191 220.9713 87.4212 222.2785 88.2529 223.717 89.8993 230.4322 90.8333 232.1007 92.4695 232.791 95.401 232.3513 98.4484 231.1599 101.1413 229.4402 103.7864 227.2246 105.5862 225.2134 106.3736 223.7392 106.7691 218.246 107.3656 217.0513 110.0687 214.8629 114.5887 211.2104 117.1861 209.1089 116.9543 208.3556 115.342 206.1229 113.9035 203.6686 115.3624 201.1274 116.8725 199.1845 122.5821 192.5869 122.6025 190.4138 122.9025 187.7687 127.4668 180.2746 130.0915 170.3297 130.1699 168.4123 132.89 163.6162 136.1079 157.4788 142.3629 156.4818 144.766 154.9581 147.5441 152.2396 149.3269 149.7189 150.1756 147.3191 150.7994 142.6833 151.9005 137.4015 152.589 132.7673 154.4672 128.4826 157.6066 126.3163 163.0538 124.5251 163.8651 123.6831 164.6491 120.8419 165.2626 114.9483 165.4365 111.3913 165.6478 109.8505 166.35 107.1934 171.3983 102.4724 173.631 95.0789 175.6149 87.336 181.3586 77.979 188.0669 68.6613 191.1859 66.1559 193.814 64.9986 196.8342 64.8759 198.8964 64.1908 206.1263 59.5481 209.1498 57.9784 211.3723 56.3678 211.9177 54.9668 212.1359 52.9165 211.4439 48.1153 212.6847 44.5855 213.4107 39.1129 213.7243 34.852 213.4653 33.376 212.3234 31.3359 212.112 30.8944 209.9475 28.2356 206.3342 26.6335 201.3575 26.2023 198.726 25.2496 198.2863 23.0356 198.034 21.7489 197.7784 20.353 197.4205 17.2562 194.0663 1 200.3792 1.0409 207.95 2.9805 209.852 4.4479 210.8474 10.0161 213.588 13.1674 218.4045 15.7614 221.4008 21.1199 222.5734 29.2429 225.2288 34.0952 225.8253 34.8639 228.8284 41.8876 229.5749 44.0385 229.7998 48.267 229.4624 51.1218 230.9963 54.6583 228.675 60.6866 227.9864 64.3885 227.7819 69.5834 229.1351 78.7494 231.3542 85.8208 233.754 91.544 236.3753 95.9822 240.6975 100.8856 245.3061 105.3681 249.5977 108.1837 245.6197 109.842 237.9092 110.0516 233.4813 109.1023 231.3713 109.0546 229.2374 109.6443 221.0088 110.4914 212.7051 110.0943 205.0014 108.9779 200.3247 109.1637 196.7114 111.8838 193.7868 115.9828 191.0393 119.2228 192.0074 122.8122 194.0731 124.8012 198.0442 129.1728 201.6098 133.4116 203.4334 136.2579 210.5474 142.4805 217.4126 148.0503 218.7556 148.9758 220.6747 149.9831 221.878 150.3904 225.6208 153.5793 230.7952 158.8133 235.5469 167.0147 238.9216 175.3405 242.2008 183.4379 243.6495 184.8031 245.9299 185.6706 246.2094 187.4108 246.0287 189.9775 245.3231 192.0756 243.4961 194.8895 239.9715 200.6707 235.322 203.972 233.9551 205.9763 233.2256 208.463 232.2234 210.9531 229.7521 216.3167 227.9455 220.6969 226.1355 222.0621 221.9189 228.6801 219.0726 235.3117 218.5034 237.0348 217.6375 238.3114 216.2502 239.3426 211.3587 241.4031 209.7089 242.4257 208.4136 243.6512 207.2171 245.0504 206.8831 246.7258 208.025 249.1 209.3953 250.9782 210.769 251.0941 211.9825 251.0089 212.7358 252.1269 213.3664 252.7848 213.3664 265.6868 212.2041 267.6366 212.2313 268.5058 211.6621 270.7283 211.4848 273.2116 211.853 274.1967 212.8381 274.996 214.1947 276.7328 214.931 280.6954 216.5808 294.6558 217.358 296.8612 218.7249 298.4071 223.0233 301.417 227.5331 305.3728 228.9579 307.9447 229.793 312.1647 231.5178 315.4745 231.4803 316.5994 230.7679 317.034 229.0908 317.0868 227.9557 317.3169 228.9068 319.7303 231.2315 323.9298 235.1106 328.2845 239.3102 332.997 242.7393 336.8472 247.0139 341.299 250.3544 344.7758 253.7904 348.3533 256.3844 349.1952 258.324 349.4475 259.1557 350.148 260.1783 351.791 261.9304 353.6078 263.8597 355.9837 264.521 358.409 263.7132 360.7167 264.5108 364.0266 264.5585 364.3112 265.1994 365.615 264.9778 366.7825 265.3698 371.1712 266.3958 375.0009 268.0456 378.2716 268.0184 378.5375 267.807 380.5503 265.6834 381.8405 264.4392 383.971 264.0745 386.9417 264.7119 390.5583 266.3549 394.8209 266.3958 397.3246 265.8163 397.6774 264.7971 398.4751 263.7166 399 260.7783 396.0753 257.5127 394.1 252.6246 390.6657 247.6922 389.43 241.3111 389.2085 238.5637 389.6277 236.5968 388.3358 233.8426 386.8445 232.3257 386.4559 230.2157 387.6166 228.7568 387.6677 226.9638 387.2178 223.3335 387.2689 222.9961 385.2782 222.3757 384.8896 218.4625 385.0737 217.2558 383.4256 216.7308 383.6096 215.1901 383.0881 212.0404 380.748 208.7306 382.2973 201.8518 382.1013 193.0334 382.1524 183.9015 382.2036 175.5501 382.1303 167.1749 382.0587 166.35 379.872 164.6184 378.7471 161.496 378.6431 152.3027 379.0846 145.2603 378.7352 143.0139 378.4471 140.5153 377.8779 134.6353 377.3666 127.3782 377.7722 125.7283 377.6631 119.9199 377.745 106.6293 377.1501 99.2801 377.2371 99.4505 378.5733 98.9835 379.5362 98.5915 381.8542 90.489 381.8525 79.8197 381.849 69.7436 381.8473 62.9296 381.8439 51.5104 381.8422 47.679 380.2538 46.52 379.238 46.2916 378.0824 46.145 377.3035 45.2588 377.0717 45.9916 368.8755 47.5903 362.0444 48.2141 355.7059 50.4128 350.0338 49.247 344.4282 47.8903 341.9807 40.7661 334.0282 44.035 331.0183 39.7298 331.4392 38.8061 328.4822 36.7199 324.9371 37.9982 324.3696 39.2322 322.4249 43.1249 323.0214 43.0022 322.0721 39.6446 319.098 39.9684 317.5964 41.3524 315.9194 40.6775 315.2121 38.2641 316.9488 36.5256 316.896 35.1724 315.7711 34.1907 315.5802 34.7872 317.8623 33.4339 319.8939 32.1523 320.5995 29.9536 320.4802 28.1607 319.9689 27.6868 318.8321 26.0029 317.9629 21.2819 316.4545 17.3107 314.6905 16.5063 309.845 14.9348 307.7572 14.2906 305.3984 13.9156 302.6987 14.4542 298.5588 13.4486 297.8958 12.2965 297.6691 10.5751 297.8719 8.9968 297.6418 7.1118 295.3495 5.4518 294.4666 6.4744 298.6815 5.3086 299.8643 2.4521 299.52 1.2352 297.9265 1 296.7402 2.3158 291.6357 1.8045 291.5266 Z"/>
</g>
</svg>