<?xml version="1.0"?>
<svg xmlns="http://www.w3.org/2000/svg" version="1.2" baseProfile="tiny" width="500" height="447" viewBox="0 0 500 447" stroke-linecap="round" stroke-linejoin="round">
<g id="ne_50m_admin_0_countries-Cape Verde">
<path d="M 33.1547 47.2801 14.9151 51.1291 7.2261 49.2732 4.6753 34.3798 1 24.5789 1.832 20.2178 43.7053 1 58.4615 4.2182 68.7562 19.523 61.7529 28.0257 33.1547 47.2801 Z M 356.2558 410.2523 344.9372 427.4496 320.1241 426.0691 307.361 418.9836 292.4493 397.3429 292.9156 380.6393 298.1635 366.139 297.2492 353.5496 299.3612 350.2308 307.0135 352.4068 308.2478 360.882 330.8393 381.6176 339.214 385.6677 356.2558 410.2523 Z M 86.0998 71.3161 70.731 75.796 61.2135 75.2292 47.5269 68.619 51.824 61.4695 66.6351 53.5062 76.8474 51.8423 85.1946 66.0042 86.0998 71.3161 Z M 454.841 180.077 470.4567 183.4964 476.3902 182.2713 486.3557 183.021 496.9886 192.8493 499 203.2902 493.7155 216.3825 473.044 227.116 461.1403 225.8634 447.0606 216.0534 455.1427 196.7075 454.841 180.077 Z M 194.4767 438.6494 179.8942 445.7806 169.7093 442.6721 160.0364 435.294 155.3736 424.6154 159.1587 415.4362 178.7971 404.5747 190.4997 408.0947 196.8081 424.9354 194.4767 438.6494 Z M 235.774 107.9415 243.5087 113.4546 246.0687 117.395 234.5672 119.4521 206.6821 112.266 199.24 116.6636 191.8345 132.1696 177.6542 108.7095 178.6234 100.088 181.6587 97.5921 201.4343 103.7542 235.774 107.9415 Z M 460.3449 101.0937 454.3656 110.6752 447.0332 96.6047 443.0653 93.2676 441.1362 73.0532 451.9977 67.0282 457.273 66.5162 457.4284 87.4163 460.3449 101.0937 Z M 405.3336 386.134 400.1223 386.8197 392.287 378.3902 394.0333 366.7059 393.1556 363.6248 400.0674 351.1634 413.6442 352.2514 417.091 361.4854 417.7402 380.5387 405.3336 386.134 Z"/>
</g>
</svg>