<?xml version="1.0"?>
<svg xmlns="http://www.w3.org/2000/svg" version="1.2" baseProfile="tiny" width="500" height="149" viewBox="0 0 500 149" stroke-linecap="round" stroke-linejoin="round">
<g id="ne_50m_admin_0_countries-Cayman Islands">
<path d="M 15.7191 124.8003 25.3047 130.5574 37.4136 127.0335 40.8794 120.7398 86.7191 125.4239 93.6508 137.7792 58.7599 138.0983 43.1127 146.0307 35.2673 147.6693 5.249 145.7261 1 117.1144 9.3384 114.0981 15.7191 124.8003 Z M 428.6962 18.0829 425.7958 19.7651 416.2973 18.4889 394.4869 30.6413 385.0753 29.9162 387.9756 25.6672 392.4856 21.6793 397.6192 18.7065 402.3902 17.5608 417.6459 15.0956 424.8822 14.791 429.8563 17.5608 428.6962 18.0829 Z M 474.9128 16.9808 461.0493 21.5053 450.3181 19.7651 474.6663 7.4242 480.931 3.2623 486.2676 1.029 491.8507 1 499 3.5523 499 5.4085 474.9128 16.9808 Z"/>
</g>
</svg>