<?xml version="1.0"?>
<svg xmlns="http://www.w3.org/2000/svg" version="1.2" baseProfile="tiny" width="500" height="337" viewBox="0 0 500 337" stroke-linecap="round" stroke-linejoin="round">
<g id="ne_50m_admin_0_countries-Central African Republic">
<path d="M 374.0042 90.472 375.8262 90.9425 376.8272 92.6746 375.2564 98.3225 376.3473 101.854 379.534 104.8383 382.7619 106.1035 385.8548 106.8327 396.6295 108.6716 401.1058 110.7448 407.0142 117.375 414.4298 123.3996 416.2331 126.5994 415.8994 129.5011 413.6987 133.0233 414.0361 134.4779 417.444 138.0039 421.3505 141.6161 428.4886 145.635 440.8641 151.9221 446.5288 156.1341 448.4633 159.3245 451.6275 162.7942 456.0513 165.9696 459.0168 168.4159 456.9736 175.3253 457.5884 177.5935 458.6906 179.5636 461.2699 182.2797 462.3047 185.7794 464.869 190.147 467.9169 192.1321 473.0118 192.8726 475.7036 194.897 481.3009 198.3742 486.7182 201.3716 489.0426 203.441 490.4747 205.2762 491.7082 207.4393 492.3118 209.6006 492.443 214.2738 493.3727 220.0754 496.2782 224.0418 499 227.0036 487.9292 223.5995 486.2759 223.5264 484.3076 224.1168 478.5304 228.2895 476.6859 228.7993 474.5939 228.4338 469.4128 227.9239 451.7887 224.6248 438.2135 221.455 434.1421 220.3041 426.8953 219.2131 422.1003 221.3707 417.6052 228.7881 416.308 230.2521 409.2412 232.4453 405.9083 231.8492 397.7354 233.8792 385.1275 230.8126 380.6249 231.4199 377.0896 232.9664 368.0283 236.3292 362.5285 238.245 356.1327 239.9939 350.0593 242.6632 345.9728 244.1272 341.9689 244.1122 338.3586 242.5976 334.4071 241.2948 329.6834 241.0286 324.7572 241.7953 320.5808 244.7589 318.89 246.8677 315.2609 252.48 310.9796 261.6126 309.2962 263.4515 308.8314 263.6295 307.7741 264.4037 288.0431 259.8374 279.5516 258.7821 273.8156 260.1861 266.6212 257.6311 263.4796 257.1812 261.9987 257.9835 257.9985 256.8326 251.479 253.7246 245.2294 252.4125 239.6434 252.8605 236.213 251.822 233.465 248.7947 229.8959 243.2424 223.4776 237.7351 214.8774 233.3169 209.5088 229.9934 207.3606 227.7665 202.7343 226.5349 195.63 226.3006 188.8143 228.4788 179.0293 235.3639 169.938 249.4901 164.8768 254.8962 160.8166 256.2927 159.7931 259.6968 161.8064 265.1085 162.335 271.3394 160.9141 281.9191 161.439 289.6083 159.2683 288.388 157.1951 284.7833 156.2203 284.0579 150.2219 285.6775 147.1102 287.1415 145.4532 288.5717 144.186 288.7873 142.2815 286.819 140.7819 286.4648 138.42 286.8284 136.0094 286.7928 134.4423 286.5379 133.4151 286.7122 130.5846 285.5481 120.2598 282.5752 118.4903 281.5892 116.4321 281.6923 111.0747 284.281 108.2442 285.0008 99.7152 286.6035 90.5714 287.387 87.0773 287.4283 84.6742 288.5736 83.1259 290.1969 82.0761 293.7885 80.2804 299.9575 79.5306 301.6351 79.658 304.0982 79.1257 308.2353 78.8707 311.9468 79.2156 314.4343 76.6326 319.4523 73.4984 325.5276 70.8928 330.7481 68.2685 335.9967 66.454 332.3995 65.3255 328.1875 64.8944 323.3607 65.1381 322.0766 64.4333 320.6426 64.3808 320.3296 63.5035 316.6893 64.392 314.1512 63.6647 311.4838 61.5428 308.8707 59.6158 306.8725 58.4911 305.0655 57.5763 304.2951 55.4432 304.0176 52.5902 303.0916 48.8111 299.157 45.1371 295.3331 40.4359 290.4368 36.6644 286.2023 32.0456 281.0193 27.7792 276.23 25.2224 271.6112 24.1764 268.9569 25.4248 268.7038 27.2693 268.6457 28.0529 268.1677 28.0941 266.9305 26.1971 263.2902 25.2786 258.649 23.7115 255.8203 18.7516 251.4696 14.0241 248.1592 12.5207 246.4591 11.6659 244.0334 9.8514 228.6794 9.0416 224.3211 7.5495 222.411 6.4661 221.5319 6.0612 220.4484 6.2561 217.7173 6.8822 215.2729 6.8522 214.3169 8.1306 212.1725 8.1306 197.9825 7.4371 197.2589 6.6085 196.0292 5.2739 196.1229 3.763 195.9955 2.2559 193.9298 1 191.3186 1.3674 189.476 2.6833 187.937 4.1079 186.5892 5.9225 185.4645 11.3023 183.1982 12.8281 182.0642 13.7804 180.6601 14.4065 178.765 17.5369 171.4713 22.1744 164.1926 24.1651 162.6911 26.1521 157.8737 28.8702 151.9746 29.9724 149.2359 30.7747 146.501 32.278 144.2966 37.3917 140.6657 41.2681 134.3074 45.4595 134.6429 49.7596 135.6645 55.2782 136.1688 59.6008 134.9297 62.4051 132.4516 68.5647 130.4815 75.774 128.174 76.7525 124.7643 78.8632 122.9741 81.3151 121.4014 82.1624 121.1896 82.3498 122.3255 83.8382 125.8777 86.8861 129.3943 91.3549 133.2633 92.6371 133.0196 95.4076 130.0879 102.3808 128.279 104.1466 127.4692 109.099 123.2047 115.0562 120.4566 116.3721 120.213 118.5315 119.4875 124.5487 116.6551 128.8263 117.03 135.7095 116.5839 147.1777 115.2436 155.478 114.7956 159.6657 114.2633 160.7192 113.6915 162.3312 109.5864 163.5834 108.4354 166.7026 106.6659 172.806 100.4744 176.8137 95.2483 177.9271 93.4937 178.0246 93.3644 178.8494 93.0364 180.5702 90.8357 178.8606 88.56 172.0224 83.93 172.1199 83.2983 171.7263 82.5035 172.1087 81.8681 174.718 79.9823 178.2345 77.8266 181.9836 77.0225 191.7647 77.1893 200.1025 76.73 202.0558 76.8331 208.5565 75.7403 213.0029 74.7506 217.5767 72.5218 227.9202 72.7561 236.5504 67.0801 239.0285 66.066 240.112 65.1775 240.4381 64.3096 244.4721 62.062 248.9934 57.3983 252.5699 53.2087 253.5409 50.2545 263.3071 40.2203 266.7075 40.4302 268.3795 39.1931 272.2523 32.5011 273.4482 31.2676 275.2815 30.8553 277.4671 30.098 279.3866 28.1185 281.0399 25.1736 281.0549 21.524 280.3014 18.596 280.3014 17.1789 281.2274 15.878 282.7945 14.5677 290.2175 10.9649 292.0958 9.2235 293.2242 7.662 295.2974 7.3789 297.5656 7.5327 299.0015 6.5617 300.6248 4.9196 305.7647 2.717 310.5259 1 315.5234 1.7254 319.5985 2.6196 322.9464 3.6506 324.5847 3.9392 327.299 8.7136 328.5887 10.3838 339.7795 21.6702 341.9464 24.3526 347.4874 32.5554 350.8803 38.0908 354.768 46.0444 355.1504 50.3651 354.633 54.0673 353.8608 64.5589 352.841 67.5806 347.9336 73.2303 347.7236 75.774 348.7321 77.8922 350.228 78.7639 351.1427 79.8155 350.5841 84.7061 352.3462 86.6256 356.0352 87.9058 365.3515 88.7794 370.1952 89.4861 374.0042 90.472 Z"/>
</g>
</svg>