<?xml version="1.0"?>
<svg xmlns="http://www.w3.org/2000/svg" version="1.2" baseProfile="tiny" width="265" height="400" viewBox="0 0 265 400" stroke-linecap="round" stroke-linejoin="round">
<g id="ne_50m_admin_0_countries-chad">
<path d="M 263.4777 99.406 263.4874 110.5223 263.4972 121.6385 263.5069 132.7548 263.5166 143.8723 263.5264 154.9886 263.5337 166.106 263.5434 177.2223 263.5532 188.3398 263.5556 192.027 263.2416 193.4884 263.1029 193.6904 262.6234 193.9375 256.6972 192.9043 254.1004 192.8788 250.4619 193.6771 245.1149 194.0944 241.6687 193.9618 239.2763 195.8735 237.3998 198.1844 238.2881 203.7115 238.0837 205.5356 237.3609 207.4303 235.7375 209.0622 234.1166 210.363 233.148 211.5032 231.9433 214.0027 231.0525 215.1721 231.1328 216.7383 230.8457 218.3872 229.8721 219.2439 227.3848 219.8754 225.7834 220.608 224.4984 221.8078 223.6344 222.673 224.0871 223.8267 224.7174 225.3964 225.0752 227.8655 225.3234 229.3087 226.5452 230.4842 227.2899 231.3275 227.5479 232.3582 226.8348 233.2162 223.7999 235.0086 222.583 235.673 221.1909 236.5833 220.6579 236.9228 218.4407 238.6203 217.3212 240.1269 216.7784 241.3815 216.8076 243.1131 217.9369 245.7026 219.1684 247.904 219.643 249.5602 219.9229 251.3758 219.8109 253.1001 219.1757 254.6017 218.0635 255.9549 213.8822 258.4958 211.8257 261.2897 210.1829 264.6849 209.7716 266.5345 210.2219 267.7636 211.0883 268.8065 212.3344 269.3358 214.1427 269.4916 217.1459 268.9257 219.9423 268.5546 222.9067 269.7763 224.4546 272.619 223.851 274.6974 224.973 278.4625 225.9757 283.0148 225.9002 284.5469 226.3334 285.1213 228.1904 285.4145 228.6042 286.4817 227.9908 294.4718 228.8573 296.706 230.1009 298.3001 231.5052 299.1288 232.9168 300.1961 233.6494 300.9408 235.2849 301.1075 237.1199 302.5629 237.6213 304.499 237.4947 306.3718 236.4263 310.4349 235.5599 313.1596 234.4963 312.9722 232.323 312.3029 229.6774 311.7224 226.4332 311.2515 223.3423 312.3661 220.0056 313.796 218.9518 314.862 218.0197 315.4923 216.5472 315.3925 215.2014 315.5763 214.4688 316.59 213.2495 317.7205 208.4306 320.0593 207.4133 320.9099 206.8121 321.7544 206.8121 322.6744 207.3013 324.5752 207.2916 326.9445 206.2183 328.8562 204.9722 330.1412 203.5533 330.6328 202.3632 330.9006 201.5868 331.7013 199.0727 336.0456 197.9873 336.8487 195.7798 336.7124 189.4399 343.2264 188.8095 345.1442 186.4877 347.864 183.5526 350.8916 180.9338 352.3506 180.7221 352.914 180.0187 353.4909 178.41 354.1492 172.8074 357.8339 166.0927 357.6818 163.1234 359.1287 160.237 359.7712 156.0168 360.4807 154.7488 360.4137 149.3361 360.7119 142.9864 360.6036 140.5526 361.1256 138.2697 362.525 136.5758 363.7492 136.3276 364.1617 136.5831 364.6777 136.5199 365.0878 140.9591 368.0935 142.0689 369.5708 140.9518 370.9994 140.4163 371.2124 140.3531 371.2963 139.6302 372.4354 137.0285 375.828 133.0663 379.8474 131.0414 380.9962 130.2286 381.7433 129.182 384.4083 128.4981 384.7795 125.7796 385.1251 120.3912 385.4159 112.9463 386.286 108.4779 386.5756 105.701 386.3322 101.7948 388.1709 100.3929 388.6419 99.5387 388.8001 95.6714 390.584 92.4564 393.3524 91.3101 393.8781 86.7832 395.0524 84.9847 396.9556 84.1523 397.1138 81.2513 394.6022 79.2726 392.3193 78.3064 390.0133 78.1847 389.2759 77.6347 389.4134 76.043 390.4343 74.6728 391.5965 74.0376 393.81 69.3574 395.308 65.3587 396.5869 63.5383 398.1956 60.7321 399 57.1496 398.6727 54.3581 398.0095 51.6371 397.7916 52.9416 395.7826 53.4454 394.2846 53.5744 392.4519 53.3748 391.2095 51.7466 390.5901 50.7123 389.6154 48.371 383.8339 45.9615 377.8894 42.5689 372.0338 38.8744 368.2967 36.2021 366.0199 35.343 365.7291 33.9728 365.0099 33.0139 364.3491 28.1122 360.3723 23.033 355.9295 21.7309 353.8973 19.1852 350.8709 16.3498 347.7496 14.8749 346.3295 14.1838 343.7667 16.1454 341.4534 18.2336 338.5268 20.8134 336.5846 24.1525 336.452 29.6528 337.2491 35.5815 337.5326 41.4566 336.9278 42.9802 336.5068 44.4867 336.5408 47.6482 337.2186 53.1534 337.069 55.9936 335.8849 52.9294 333.8746 49.639 330.6742 46.553 327.1732 44.6814 324.0045 42.968 319.9182 41.3836 314.8693 40.4174 308.3249 40.5634 304.6158 41.0551 301.9727 42.7125 297.6686 41.6173 295.1435 41.8582 293.1053 41.6976 290.0862 41.1646 288.5504 39.0204 283.5357 38.5945 282.9868 36.6986 279.5224 35.8614 273.7227 33.7221 269.8968 30.2832 268.0447 28.3264 265.7947 27.6158 261.8191 26.2577 260.7713 20.8523 259.3865 16.3449 259.3573 13.0642 254.8719 8.8562 249.1136 4.9403 243.7544 2.4335 233.0421 1 226.9054 2.6306 225.0399 5.8383 220.6725 9.9441 212.3149 19.1925 199.3891 23.9213 192.7753 33.3595 182.8942 44.9588 170.7509 51.4935 163.9096 52.5498 151.4462 53.6669 138.2685 54.5138 128.3047 55.5628 116.4972 56.4438 106.6295 57.0839 99.4413 57.9917 89.2523 58.7681 87.2956 63.3192 79.3055 63.677 78.2334 62.8325 76.896 56.3319 70.1046 54.3045 68.5859 53.1387 65.0569 54.8083 63.0759 46.991 51.6834 45.0513 50.29 44.2044 48.8955 44.1046 46.8414 43.9659 38.9596 41.8898 26.5911 39.1494 12.1905 48.332 8.0908 55.3024 4.9744 64.1978 1 72.4459 5.0717 84.386 10.9675 96.3261 16.8633 108.2637 22.7592 120.2038 28.655 132.1439 34.5508 144.0816 40.4466 156.0217 46.3424 167.9618 52.2383 179.9019 58.1353 191.842 64.0299 203.7821 69.9269 215.7222 75.8227 227.6598 81.7186 239.5999 87.6144 251.54 93.5102 263.4777 99.406 Z"/>
</g>
</svg>