<?xml version="1.0"?>
<svg xmlns="http://www.w3.org/2000/svg" version="1.2" baseProfile="tiny" width="500" height="447" viewBox="0 0 500 447" stroke-linecap="round" stroke-linejoin="round">
<g id="ne_50m_admin_0_countries-Chile">
<path d="M 2.7853 112.5838 1 112.9412 1.0577 112.3033 1.5056 111.7491 2.8261 112.0681 3.447 112.128 2.7853 112.5838 Z M 355.7516 187.9359 353.6762 188.1825 353.6055 188.1124 353.7231 187.9088 354.1998 187.5548 354.7772 187.1238 354.9028 187.1103 355.116 187.1442 355.3574 187.2245 355.9773 187.5152 356.1593 187.7142 356.0926 187.8794 355.7516 187.9359 Z M 452.8757 10.7235 453.3479 10.5844 454.4506 10.4894 455.5913 10.4872 457.0356 10.0042 458.5727 9.1073 459.5765 7.8032 460.0063 6.6077 460.008 5.5626 459.5556 4.2325 459.4329 3.2904 459.9656 2.8402 461.3709 2.6649 462.5098 1.7782 463.3841 1 463.5685 2.3143 465.1553 4.0764 465.6722 6.0625 466.0319 6.3136 468.2137 7.3055 468.2544 7.5397 467.9343 7.9107 467.6171 8.3891 467.8382 9.0654 468.2329 9.9918 468.3641 10.8514 468.605 11.7358 468.8454 13.0919 468.9913 14.3214 469.5466 16.1367 469.6597 17.2564 469.6688 17.9317 470.1008 18.5944 470.9468 19.3839 472.092 20.1813 473.0002 21.1099 473.6964 21.7387 474.5384 22.2534 475.1854 22.7261 475.4382 23.0507 475.5225 23.3154 475.2431 23.5654 474.2206 24.7903 472.7961 26.6542 472.8204 26.8816 474.1861 28.223 474.405 28.7534 474.3897 29.5033 473.9322 30.4048 472.4579 30.6909 472.1299 30.9363 472.0892 31.2225 472.4285 31.6037 472.3759 32.4927 472.9086 33.4755 472.6338 33.8103 472.0903 34.2627 472.075 34.705 472.2532 35.1958 472.8249 35.594 475.0944 36.9727 475.2742 37.1627 475.2386 37.3052 474.3609 38.2248 474.2698 38.7925 474.2941 39.7268 474.418 40.3308 474.7008 40.5819 475.8397 40.8669 477.2484 42.9683 478.6017 44.9443 478.5842 46.6465 478.7244 48.6303 479.5846 50.1878 479.7045 51.4342 479.9946 52.8491 481.0182 53.7098 481.4174 55.4109 481.5215 56.3169 481.4581 56.9129 482.2533 58.7622 482.346 60.3513 482.1577 61.4936 482.1673 62.1304 482.2798 62.5794 482.9624 62.9821 483.2644 63.2343 484.2733 63.3463 485.7487 63.3757 488.2698 62.9527 490.2084 62.5647 492.3636 64.6458 491.426 67.4689 489.9274 71.9727 488.7692 75.4552 488.5786 75.92 488.34 76.6032 485.8432 77.5895 482.2012 79.0304 480.335 79.7825 477.9847 80.7518 477.4147 81.5436 476.7361 81.9711 475.9896 82.5253 475.7051 83.1259 475.0084 83.5059 474.3744 84.8677 474.3744 85.9139 474.7794 86.6265 475.4829 86.9273 475.7051 87.7813 475.9262 88.3841 476.4335 88.858 476.3063 89.238 475.8951 89.5231 475.1351 89.6814 474.6199 90.5353 474.0261 92.6583 473.9311 93.4184 474.6074 95.34 474.9671 96.376 475.9409 100.1333 476.0829 101.1558 474.7471 102.5832 474.215 103.4518 474.025 104.2175 474.0317 104.8238 474.1528 105.3791 475.2651 107.139 476.5596 108.7157 477.193 109.5391 477.193 110.6475 476.8763 111.2809 476.1886 111.515 474.66 111.9459 474.0261 112.5793 473.3299 112.6754 472.6649 112.1676 471.9682 112.2943 471.0814 112.7376 470.7483 113.8144 469.9736 115.6501 469.3085 116.1579 468.8131 117.5593 467.9292 119.5691 467.5034 120.7805 467.2817 121.6672 466.3921 122.2338 465.3555 123.3592 464.5582 124.4541 464.2415 124.7708 463.6398 124.8658 463.1964 125.8475 461.6932 127.3292 461.3347 129.0484 460.7901 129.9645 460.6945 131.6181 459.8643 134.6481 459.7133 135.3166 458.8741 135.8448 457.7708 137.0165 457.4094 137.8739 457.9212 140.4379 458.558 143.0291 458.5987 144.2439 458.3516 145.8929 458.1836 146.61 458.6055 146.9063 459.3022 147.0963 459.5233 147.7297 459.0166 148.1731 458.7955 148.9648 458.2255 149.8516 456.5385 150.1999 455.9453 149.8832 455.7553 150.1683 455.8503 150.8016 455.4736 151.5481 454.5999 153.5467 454.0225 155.362 453.6877 156.1537 453.8235 156.8188 454.1085 157.1988 454.1402 157.5472 453.6595 157.9849 453.2217 158.6872 452.7467 158.7822 452.2406 158.5911 451.7022 159.0039 451.5925 159.8658 451.2956 160.9606 451.1599 162.241 450.9421 163.8798 451.6321 165.003 452.5064 167.0354 453.1584 167.5207 453.8868 167.489 454.4568 167.9007 454.7735 168.3769 454.3505 169.2263 453.6018 169.3575 453.5068 169.8336 453.7285 170.9104 454.0135 171.9555 454.7339 172.4565 455.0586 173.8545 455.7553 174.3295 455.6704 176.1177 456.3745 178.218 457.117 178.8265 457.4654 179.1115 457.2318 180.0277 456.642 180.7583 456.5153 181.9301 456.737 182.7852 457.4903 183.5927 458.0784 183.6843 458.9222 183.3552 459.8089 183.7352 459.9356 184.432 460.0623 185.0653 459.5872 185.8887 459.08 187.4089 458.9437 188.9188 459.0924 191.2171 459.3237 192.9984 459.3718 194.1204 459.4289 194.6283 459.1122 194.9766 458.3414 195.1565 457.6871 195.23 457.117 195.5139 456.9904 196.0839 456.5447 197.034 456.0838 197.7386 455.2797 198.7622 454.7701 199.8209 454.3618 200.5176 454.3986 201.0005 454.1051 201.9325 453.8037 202.7062 453.1663 205.3132 452.3158 205.855 451.6383 206.123 451.2899 206.4714 451.5546 207.1783 452.2717 207.3898 452.525 207.9598 452.43 208.8466 452.9051 209.67 452.8587 210.6675 453.3168 212.5519 452.9051 213.7869 453.0447 214.8524 453.0317 215.9088 452.43 216.731 451.1949 216.8894 450.5174 217.6483 449.3587 218.474 449.232 219.139 449.042 219.7407 448.567 219.9624 447.8386 219.9624 447.2369 220.0574 446.3937 220.8378 445.4951 221.2597 445.2898 221.8886 445.3689 222.6532 444.8939 223.1282 444.2922 224.0149 443.9122 224.965 444.2922 225.8517 444.7039 227.4352 444.7667 228.1003 444.2447 229.41 443.8172 230.2538 444.2283 231.3305 444.5767 231.9311 444.252 233.2521 443.9755 234.0846 444.1972 235.6047 445.024 237.3148 445.8117 238.8349 445.9277 240.6039 446.1324 242.0041 446.509 243.522 447.3002 244.1237 447.9025 244.6304 447.7752 245.3588 447.3319 246.2455 446.6985 246.9106 445.1292 247.1311 443.8534 247.7317 442.8286 248.1491 442.0476 248.6524 441.4872 249.1873 441.209 249.7732 441.3967 252.3249 441.2735 253.2659 440.7481 254.5994 440.2572 255.675 440.0485 255.9985 439.9852 256.4735 439.8902 256.9169 439.3394 257.0175 438.5601 256.8219 438.1167 256.9485 437.8 257.2969 438.0675 258.1282 438.3542 259.5906 438.7501 260.2105 438.6432 260.7013 438.4967 261.7622 437.9799 262.6207 437.2933 262.6173 436.85 262.9657 436.6605 263.5674 436.8658 264.3512 437.7684 264.9925 438.0851 265.4042 437.9267 265.9426 437.23 266.1642 436.8189 266.6076 436.4264 267.595 435.9021 268.7091 435.3423 269.5325 435.2354 270.6613 436.0266 271.8636 435.9378 273.041 435.8812 276.4895 435.8049 277.659 436.0486 279.5953 435.7421 280.1292 435.5838 280.6359 436.3574 282.044 437.2198 284.3208 437.4517 285.2268 437.325 285.8602 436.1685 286.3974 435.2037 286.6202 434.6337 286.2402 434.2537 286.3985 433.8103 287.0636 433.303 287.602 433.113 288.1403 433.6514 288.8371 433.937 290.166 433.3353 290.7361 432.8919 291.3695 433.0502 292.1929 433.2402 293.6813 432.8602 296.1515 433.3703 297.0269 433.9228 297.4477 435.7308 297.9498 437.0869 298.1987 437.4443 299.0153 437.2911 299.6792 436.6385 300.0072 435.6567 300.2922 435.6567 301.3645 436.4971 302.3722 437.4443 303.1017 437.6513 303.7577 437.5976 304.4284 436.9337 304.9906 437.8458 306.2087 438.2615 307.0332 437.8436 307.6689 437.2526 308.6212 436.7295 309.077 436.7323 309.595 436.5163 310.6446 436.4665 311.6727 436.6407 312.2858 442.3655 312.7699 443.6758 312.9587 444.3906 313.5706 444.2882 314.3375 443.5729 315.1541 443.1137 316.6866 441.99 316.9423 440.8663 316.5328 439.6476 316.6742 438.5906 316.7715 437.0716 316.8178 435.0539 317.0158 433.8182 316.7884 433.7164 317.3506 434.0733 318.321 436.7295 318.6275 439.2319 319.1896 439.9846 320.2166 441.002 321.3793 442.0409 322.0998 442.0923 323.2749 440.458 324.4999 440.2533 325.3685 438.1082 325.6241 437.4958 326.1353 437.1893 327.8206 437.4443 329.1484 438.2615 329.6076 438.8236 330.4763 438.2106 331.4976 436.7651 332.2022 435.996 332.8718 436.4773 333.4068 437.1316 334.2551 437.3114 334.7165 437.6683 335.9675 438.0862 337.7115 438.0347 338.5564 437.6519 339.1875 436.2188 340.1806 435.2484 340.6398 435.0584 341.8624 434.9849 342.7797 435.0861 343.6076 435.7082 344.2659 435.6567 344.9298 434.805 345.0712 434.0733 345.3902 433.3584 346.5642 431.2796 347.7631 430.5495 348.3003 430.601 349.2199 429.7776 350.5341 429.0871 351.6765 428.5577 352.7442 428.6601 353.8673 429.8319 354.3604 430.7537 355.4508 431.1625 356.8295 430.4477 358.4129 428.7868 359.0101 427.8056 359.682 427.5098 360.1909 427.77 361.849 427.7027 362.6272 427.4403 363.359 427.0133 363.9234 426.1192 364.5568 424.5329 365.1087 423.1859 365.4887 422.5847 365.9242 421.879 366.8799 421.2501 367.9352 421.4079 369.2404 417.6285 369.3931 417.3729 370.3635 416.5557 371.1304 416.3001 372.5091 417.1309 373.8426 417.5261 374.9601 416.8487 376.3082 417.0941 377.6904 417.1687 378.7909 418.4966 380.0169 419.3641 381.5314 419.799 382.8129 420.0602 383.8082 420.4075 384.4133 420.9532 385.0998 421.2032 385.8904 422.0203 386.146 423.489 385.4063 424.5273 384.9041 425.2489 384.7254 427.3707 384.8408 428.6516 384.376 429.2268 384.4246 430.0094 384.6859 430.6157 385.2367 431.0743 386.4842 431.3559 387.8822 430.9963 389.3084 430.3962 389.6183 430.1921 390.0266 430.3962 390.8953 431.0602 391.5083 431.0443 392.3837 430.3125 394.3687 429.8347 395.1853 430.6818 396.106 431.4408 396.926 432.9699 397.539 434.2271 398.4031 435.0951 399.1179 434.891 400.0884 435.4984 400.3824 437.8385 400.4028 441.3345 400.4333 446.7963 400.482 452.1275 400.5295 458.1802 400.5984 461.0485 401.3766 463.6448 402.0801 466.9135 402.0801 470.1755 402.9137 472.6004 403.4622 474.0527 403.6692 475.5445 403.8672 475.7487 404.634 469.218 403.5459 467.7522 402.9521 466.5103 402.8831 464.1261 403.624 462.809 405.3861 462.1174 405.8861 460.461 406.3588 458.7944 406.4516 453.1918 408.1572 451.2 408.3031 449.8405 408.7555 448.511 409.407 448.002 410.8061 448.209 411.6578 446.6934 414.7138 446.3196 416.4126 446.3105 417.2779 446.7426 418.6917 446.1861 421.111 445.1789 421.6403 442.6895 422.3167 440.9969 421.8247 438.1026 421.387 436.0401 420.455 433.3873 419.7967 432.5362 419.4088 430.1921 417.5425 429.9438 416.9239 429.7742 416.1412 431.0115 415.0237 431.6766 414.9423 433.6163 414.9762 435.2314 414.7964 436.2618 415.3947 436.5457 416.6988 436.0927 417.3944 435.6822 417.8242 435.8105 418.1488 436.9715 417.6975 437.5614 414.7794 441.5014 413.3249 442.7913 412.4755 444.0507 411.1646 444.247 410.7891 444.342 410.2971 443.5073 409.8922 441.6473 409.355 435.7376 412.1056 433.061 412.8306 431.3361 413.6178 429.2482 415.0328 428.8512 415.4513 428.4084 416.39 428.1986 417.4215 426.1384 416.9499 422.993 415.4524 422.3636 414.905 422.9947 414.1381 423.9527 413.498 424.0177 411.3501 424.2581 410.598 424.9214 409.9951 426.1283 409.3323 426.7272 409.1785 427.2356 409.4658 427.2989 409.9725 429.3042 409.9363 433.1944 408.0316 434.796 407.9864 436.9065 408.4117 439.2907 408.1561 439.72 407.9615 440.2165 407.5148 438.4391 406.99 436.7346 406.723 431.9424 406.5375 430.9035 406.7411 429.4869 407.7511 429.0169 407.4989 428.7144 406.99 427.088 406.6314 426.3087 406.7061 425.5622 407.1913 425.6843 407.9457 425.2687 408.7544 423.7633 409.5563 422.7397 410.8321 422.7877 411.824 422.708 412.3409 422.3319 412.6135 421.556 412.9415 419.0576 412.7187 417.6483 411.6781 417.0964 410.9678 415.5016 410.1976 418.9677 409.2396 420.1852 408.6933 421.297 407.4752 422.1267 406.7004 421.5391 406.1552 420.8457 406.1541 420.9108 407.0205 420.1468 407.7308 418.5486 407.396 416.191 408.4456 414.7415 408.1651 412.3805 408.4739 411.2251 407.9084 410.9774 407.189 411.3937 406.4403 410.9599 405.1701 410.3096 404.8613 409.6456 404.9337 409.3476 404.1771 408.6305 402.847 408.3121 402.4873 407.9683 401.8686 408.324 401.7182 409.135 401.8958 409.8458 402.2961 410.9265 402.347 413.3096 403.2134 414.2982 403.0053 414.8348 402.8062 415.0362 402.0869 415.0486 401.4037 415.4575 401.4037 416.8102 402.2769 417.6704 402.1943 419.1899 402.4251 419.9579 402.3312 421.3836 402.0055 423.6264 401.0463 424.7902 400.0533 425.3484 399.9187 426.0389 400.0465 426.5015 400.3315 426.5089 401.0215 427.0331 401.6605 427.7462 402.1842 427.9447 402.8209 427.7988 403.4475 426.523 404.3286 426.2866 404.6351 426.7147 404.9586 427.2423 404.807 427.9696 404.3716 428.3841 403.7733 428.495 403.4622 428.5413 403.0177 428.4859 402.476 427.4499 400.9321 427.3204 400.5837 427.3221 399.8836 428.5006 399.2401 428.8331 398.7379 428.8852 397.7663 428.2727 397.1001 425.7398 395.5608 421.5063 394.0169 421.0199 394.1787 420.6925 394.458 421.0821 394.6616 421.6426 394.7645 425.414 396.0358 426.3958 396.7733 427.0388 396.9712 427.8005 397.4609 427.6065 398.1769 423.804 398.8804 420.7892 400.3949 418.5356 401.3144 416.9731 400.9785 416.23 400.0442 415.4428 398.8386 414.2574 398.135 413.5856 398.2006 413.0421 398.0706 412.6152 397.6985 411.7024 398.0072 409.6965 397.1691 409.1146 396.8038 410.5867 395.6241 412.2057 396.0777 412.5982 392.7603 412.0932 392.0059 409.9883 391.1848 408.9546 391.2911 407.5436 391.1803 406.5935 390.8036 405.5106 390.6544 404.5955 390.4349 403.4 389.9237 401.9563 389.65 400.0064 387.544 399.1699 386.4378 398.7141 385.2299 401.7029 385.2027 403.4504 385.0071 403.8768 384.5026 403.2615 383.5401 402.4064 382.7823 403.0341 382.0709 403.9282 381.5201 404.8591 381.7644 407.1585 382.9904 407.5538 383.8206 409.1898 386.3507 409.5846 386.5758 409.778 386.8111 413.1592 388.2271 413.6331 388.2079 413.4239 387.0203 414.3971 385.4086 415.3415 384.8759 415.8149 384.8815 415.8635 384.6123 414.9451 383.9416 415.3947 383.0459 415.0995 383.0176 414.2857 383.5921 412.6491 386.405 411.647 386.9185 410.2722 385.645 409.4918 384.7277 409.1084 384.402 409.243 382.961 411.9677 383.2528 411.0329 382.7812 407.8535 381.9499 407.0595 381.5438 406.4691 381.3957 405.4116 380.4162 404.1007 379.5871 406.3622 378.0953 407.5272 377.0457 411.1674 377.6033 411.8721 377.2787 411.2625 376.5118 410.5437 376.7437 409.4081 376.2664 407.6409 374.8311 407.7008 374.0982 408.0243 372.7545 408.7244 372.4672 410.2112 372.1901 411.9077 372.6267 412.6485 372.9819 413.2876 372.8156 412.6378 371.8203 411.5311 371.4436 410.2988 370.7345 410.4255 369.9484 410.8225 369.2981 411.1211 368.5855 411.3275 367.5879 411.2144 366.8109 411.569 366.4524 412.1119 366.2918 412.1458 366 411.0713 366.061 410.6822 367.0439 410.5369 367.9397 409.7734 368.659 409.4483 369.47 409.2549 370.4415 408.8296 371.5556 407.9004 371.1315 407.3558 370.6949 407.1472 370.3963 407.2444 369.8274 406.9916 366.3121 406.9668 363.368 407.4429 361.0754 408.7555 360.1638 409.3516 359.8991 409.895 360.0156 410.7331 360.0088 411.2873 359.6774 409.4059 359.1266 408.2646 359.4411 407.4203 359.881 405.8979 359.5496 405.6084 358.3722 404.7075 357.3543 404.5509 356.0513 404.621 354.1648 406.7541 354.3276 408.492 354.6964 413.0857 354.6647 416.8571 356.4721 418.5215 356.23 418.4451 355.8658 417.1721 355.4112 416.3776 354.4 415.9105 354.1059 415.6905 353.4986 415.6187 352.7905 414.6833 350.1858 414.3083 350.2536 413.9492 351.1471 413.1683 352.6356 412.0774 353.3583 410.4108 353.6513 408.7629 353.8164 407.3321 353.5314 406.999 352.9161 407.0352 352.2035 406.4159 351.8552 404.7997 351.5464 404.3405 351.3734 403.8072 350.7275 404.5774 349.7514 405.2103 349.169 405.985 349.2843 406.7185 349.5479 407.6567 350.3158 408.5785 350.4617 409.6326 349.8521 409.8396 349.437 409.1802 349.1769 408.5791 349.0762 407.6437 348.7493 405.8024 347.5799 406.7219 346.3877 408.8946 345.0214 409.558 344.7081 408.9828 343.5567 409.6332 342.2979 408.9664 341.2596 407.7608 340.141 406.1321 339.8933 405.782 340.2202 405.7249 340.6782 405.9839 341.0232 405.8312 341.272 405.4597 341.2641 403.3916 341.0187 402.0038 340.2745 399.7417 339.5958 399.4465 339.0654 399.2022 338.2861 399.9939 336.9436 399.5935 336.9255 398.1226 337.9626 395.9029 338.5067 394.2697 338.6842 393.5526 339.105 393.2659 339.4522 393.7002 339.6569 394.6452 339.7078 395.3352 341.004 395.1638 341.5016 394.8262 341.8364 394.0588 341.9009 392.4533 341.0051 391.6095 339.9883 391.6293 339.1808 392.2039 338.0814 394.7504 336.6065 395.4556 335.9822 396.9497 335.29 398.9437 333.7291 400.6855 332.8616 399.8378 332.1434 398.9477 331.0644 399.0382 329.5635 402.554 328.9697 404.0883 329.214 406.0325 329.1677 407.1172 328.808 407.9044 328.7311 409.5642 328.316 410.2784 327.7324 410.4447 327.2867 410.4368 326.8977 410.2428 326.4192 409.9714 325.1774 410.2468 324.7623 410.9576 324.268 411.8885 324.1142 412.3155 324.1526 413.4193 324.6062 413.1977 325.2497 412.7554 326.0245 411.8529 329.1043 411.3982 329.7999 410.6856 330.4028 411.1618 331.6593 410.4481 332.5393 407.2603 333.4758 406.8412 333.5301 407.0787 333.8649 408.924 333.7857 410.3531 333.5878 411.768 332.7972 412.2125 331.5903 412.7973 329.2389 413.5636 328.9064 414.4588 328.8317 414.9265 329.386 414.7755 330.6267 414.7726 331.8267 413.5856 335.3827 412.1475 336.8112 411.9874 337.1867 412.044 337.6324 413.1835 337.5679 414.0533 336.801 414.6793 335.8216 415.3065 334.4575 415.2352 333.469 415.4269 332.8571 415.6843 330.8563 416.1197 329.844 416.0909 328.428 415.3076 327.8941 414.2116 327.5706 413.9362 326.7031 414.5108 324.9896 416.6055 325.0337 418.5899 323.8642 419.8912 323.4401 420.6309 323.5283 423.2272 324.6559 423.7406 324.6695 423.6598 324.2635 423.2577 323.9773 422.2347 323.5973 420.3526 322.386 417.8208 322.1891 418.2851 320.6159 418.7765 319.1783 420.0043 318.9793 422.0661 318.5065 425.9976 316.3519 426.6797 314.7277 426.8674 312.9033 424.9718 312.4283 422.9625 311.235 421.3417 310.5994 419.9042 309.802 420.1864 308.6099 420.3747 306.6668 422.1775 306.2505 423.014 303.5813 421.8049 301.5386 422.0944 300.0151 423.6694 298.7144 423.9533 297.8141 424.387 296.8245 425.7771 296.7238 425.8076 296.1854 425.6843 295.2037 424.7699 294.0432 424.7343 292.4349 425.5927 290.5359 426.972 290.6682 427.2384 290.5879 426.26 289.4388 425.4627 288.1743 425.6006 287.6698 426.3635 287.2389 427.2474 286.9991 428.2043 287.6472 429.5728 289.7102 429.7804 289.1809 429.2273 287.0783 428.7721 284.4633 427.3294 284.8072 426.0067 284.6228 425.5085 284.2168 425.0119 283.6286 425.4779 282.9104 425.9428 282.3754 426.9138 281.7025 428.927 281.4661 430.3821 280.6212 430.8702 278.8828 430.3929 279.0547 429.6023 280.5839 428.2744 281.1019 427.5975 281.0261 426.799 280.74 425.2314 279.4076 424.3644 279.0977 423.5207 279.0649 422.8008 279.4019 420.9583 281.75 420.1739 282.147 416.9369 282.3347 415.747 282.0633 414.4599 281.7025 414.6137 281.1234 415.0051 280.507 415.7351 280.1903 415.7482 279.8363 414.7438 279.7469 413.5845 279.0966 413.0716 278.2732 412.8267 276.8017 411.7878 274.4729 411.5825 272.8057 412.3155 271.6159 413.8938 266.9469 414.3751 264.5672 415.2211 262.4748 415.203 261.0949 417.3893 259.8338 418.2212 259.0794 420.08 254.8312 420.3515 252.5386 417.4063 245.585 416.9493 244.2571 416.8062 242.6058 417.5092 239.8642 417.5912 238.8248 416.9895 237.3216 415.3093 234.8661 415.2771 233.6141 415.9857 232.3247 415.3025 230.7254 415.6356 229.7346 416.006 228.9587 418.6363 229.3738 419.8346 229.1781 420.4731 228.7088 420.9724 227.3956 421.2224 225.3416 421.3785 224.4583 421.6069 223.1667 422.898 222.6464 423.347 221.4226 424.4272 219.7159 425.5407 214.9451 426.6412 213.7689 427.7536 212.4105 427.33 210.3961 428.0465 209.4652 428.7053 208.7889 429.2867 207.5594 430.0773 206.3967 431.9644 204.7262 432.4434 202.6881 433.9081 199.1626 434.1999 196.9005 434.6546 195.3714 434.5234 193.9451 435.4034 192.2112 436.2477 190.7511 436.514 189.9401 438.4436 188.0072 438.7688 186.4622 438.0828 185.4171 438.0703 183.7963 437.5331 181.5501 438.7772 180.7097 439.2811 180.0956 440.9002 176.5056 440.7939 175.0964 441.2587 173.3466 440.1961 171.2746 440.0474 166.6181 439.4519 163.0338 438.4713 159.2482 438.5646 157.1298 437.9652 154.4967 437.9273 152.9766 438.3842 149.5292 441.5008 147.3587 442.107 144.9293 442.4814 141.6459 442.3542 139.2537 442.0465 138.1792 440.5111 136.4171 440.1243 133.2694 440.4212 132.4449 441.6897 131.5581 442.5855 130.3276 443.0475 128.4172 443.9789 126.9152 444.3487 123.2812 445.1359 120.3902 445.5284 119.3814 446.7658 118.1135 446.9976 117.7753 447.1888 116.8082 447.1311 114.5235 447.3206 113.129 448.3068 110.3851 448.4205 109.1149 449.5153 106.2896 449.7636 104.2605 450.2313 103.1905 450.0497 101.986 450.3602 99.2907 449.6171 97.7672 449.4537 96.8759 450.3885 94.1128 451.0241 93.4398 452.0506 92.1539 452.4826 90.7106 452.5618 89.7934 451.2498 85.2285 451.0705 83.6744 451.3912 80.0529 451.843 77.7139 451.6965 75.8477 451.843 74.8885 452.0704 73.684 452.9718 72.2227 453.1759 71.1844 452.8598 70.7512 451.7904 70.2219 450.9082 68.8963 450.8477 67.5888 451.1316 66.6376 451.1972 65.2905 452.512 65.0259 453.2127 64.2783 453.8783 62.8769 454.7142 59.4883 455.0733 55.2854 455.572 52.7541 455.9238 51.5032 456.219 48.8882 456.7059 47.1769 456.793 45.5991 456.6963 44.3991 455.438 38.2858 455.477 36.0396 456.012 32.5458 456.0041 27.6269 455.8967 26.4778 455.4228 25.4022 455.2831 23.942 454.5258 21.4017 453.8416 16.3052 453.8274 13.6145 453.5317 11.3309 452.8757 10.7235 Z M 473.5878 408.0622 473.5675 411.5005 473.5471 414.8869 473.5284 418.0549 473.5098 421.2218 473.4917 424.2802 473.4736 427.4199 473.3842 430.9386 473.3181 433.5535 471.5734 433.5535 471.1137 433.8216 468.3562 434.205 463.6697 433.6146 462.4968 433.0808 460.923 431.9147 460.3626 432.228 458.8843 432.7222 457.3664 433.1124 456.1206 433.1554 454.9658 432.6725 454.7192 432.427 454.4568 432.3739 451.9618 433.0434 449.2054 432.3603 447.0101 431.9407 443.4829 431.7066 441.0314 430.8436 436.5073 430.9194 435.6963 430.6343 435.3932 429.7906 435.6335 429.3981 436.6011 429.1617 436.8709 428.6935 437.8475 428.8054 439.116 429.4252 439.5045 429.4038 440.3426 428.8201 441.5817 428.3021 442.0239 428.2467 444.2984 428.8857 445.2123 428.8122 446.5266 428.5261 446.7613 428.2772 446.9699 427.8373 447.3166 427.5805 448.4861 427.4572 449.6262 427.7072 449.7568 428.4707 449.5996 429.2895 451.0835 429.5089 452.8796 429.4841 454.1181 429.7883 454.2725 429.2907 452.296 427.99 451.4658 427.1813 450.3523 426.7051 448.9193 426.4619 447.7238 424.9463 447.7973 423.6185 447.67 422.3257 450.2556 421.6154 449.6635 420.5104 450.5536 419.6723 451.5665 419.3511 452.5872 422.4332 453.3218 423.5133 452.3859 423.7327 450.4253 423.7316 451.5201 425.2438 453.319 425.7595 454.8697 426.8804 454.9013 427.6936 455.7626 428.0601 457.8341 428.0838 459.2604 427.9232 459.9311 427.3826 460.7098 427.2095 462.1015 427.8836 464.4456 428.3824 465.0767 428.7353 465.5365 429.3212 465.567 429.9523 465.6875 430.286 466.3695 430.1231 467.3422 429.2646 467.8206 428.9672 468.4071 428.8213 468.7781 428.629 468.7882 428.3779 467.0357 427.7717 457.8573 424.9305 456.7285 423.7961 455.9696 422.371 455.9962 420.9006 456.6646 420.4448 458.3024 419.8634 461.3132 419.0446 464.7855 417.8694 465.2198 417.6443 465.1791 416.9069 464.7436 416.4104 463.3655 416.0462 461.924 415.9546 460.5503 415.9908 459.1778 416.1446 456.6731 416.9284 455.2548 416.8798 453.906 416.459 452.9056 415.6153 452.3893 414.474 452.3927 413.7457 452.585 413.0761 453.1952 412.3918 454.0135 412.0932 454.7509 412.1328 455.4442 411.9722 455.8565 411.7369 456.2071 411.4225 456.1036 411.151 455.835 410.9158 454.7181 410.4317 454.2759 409.9657 453.3173 409.2124 453.841 409.0021 455.5234 408.8844 456.698 409.4047 457.7945 410.0155 458.4675 410.0132 459.0726 409.7576 460.4581 408.9738 461.6197 407.9887 462.6784 406.8655 463.5295 406.1948 464.5061 406.1349 467.3671 408.2352 468.376 408.3133 471.7363 407.1834 472.1101 407.2444 473.2485 407.8179 473.5878 408.0622 Z M 491.5397 437.0304 491.1975 437.4737 490.4669 438.0585 489.484 438.5131 488.5311 438.6376 487.8412 438.4023 487.4922 437.9883 487.3316 437.5789 487.0975 437.3538 486.7356 437.3041 486.2662 437.3165 485.6877 437.4726 484.4571 438.063 483.93 438.2191 483.5732 438.2553 480.0726 437.8096 479.731 437.6445 479.3188 437.2486 478.8647 436.0746 477.3932 435.025 479.6451 434.4312 482.3415 434.4346 487.5482 434.8893 489.6248 434.99 491.2224 435.9853 491.4752 436.5836 491.5397 437.0304 Z M 414.0171 300.273 413.1462 300.515 412.3341 300.575 411.509 300.3974 410.0675 300.4121 408.6294 299.9597 407.2818 299.3195 406.9063 298.9497 407.0708 298.4181 408.0413 297.1875 408.9664 294.8621 409.5823 291.5244 409.0897 290.2599 409.1508 289.7351 409.3764 289.104 409.489 288.4548 409.42 287.7999 409.5371 287.1914 410.555 285.9111 410.7049 285.3365 410.7343 284.7122 411.1748 283.4216 411.0391 282.9941 410.6624 282.6322 410.9678 282.3166 414.5085 283.2633 416.8611 283.4839 416.9872 284.4633 417.4408 285.2313 417.7105 286.6067 418.0764 286.9188 417.887 287.9028 416.8034 288.327 416.899 289.2318 417.5216 290.0857 416.6128 290.39 415.6328 290.5709 415.406 290.8085 414.6963 290.994 413.8333 291.469 414.0929 291.8875 415.1792 292.8432 416.3928 293.506 417.059 294.4968 417.9209 295.5317 417.5001 296.1888 416.7107 297.1208 415.4507 297.7395 414.2919 298.1093 414.4282 299.6419 414.0171 300.273 Z M 405.8776 367.4703 405.9862 369.1691 405.7916 370.8759 405.346 372.9728 405.4189 373.397 405.9392 373.501 406.0783 373.7623 405.9262 374.8639 405.6468 375.7122 405.1085 376.4033 404.7929 377.2323 404.5045 377.4167 403.2462 377.5626 402.5557 377.4721 402.0015 376.5254 401.8409 375.9441 401.8731 375.184 401.1956 374.1649 401.1747 373.7747 401.4399 373.1029 401.9879 372.7681 402.0711 371.7343 402.347 371.4244 402.9719 370.9969 403.0669 370.8193 403.0093 370.6666 402.7774 370.6508 400.2727 371.9311 400.0273 372.2919 399.917 372.7726 399.8859 374.4647 399.4454 375.443 399.0461 375.6296 397.8772 375.6715 396.335 375.5731 394.5853 374.675 393.4429 374.9227 393.2077 373.8313 393.7794 372.9581 395.9069 373.0339 396.2683 371.4798 395.5925 371.1145 394.8437 370.4879 394.3964 369.9145 394.794 369.4881 396.0274 368.8694 396.6879 368.8027 397.2992 369.1488 398.8142 368.8875 398.7254 367.9046 397.3767 367.4726 397.677 366.7261 399.3809 366.0135 400.3988 365.2965 400.4452 364.4776 400.0335 363.6598 400.1636 363.3409 401.0124 362.6679 402.2028 362.3422 402.7446 362.3863 403.8462 362.8613 404.8302 362.9179 405.0678 363.0581 405.2465 363.5875 405.8776 367.4703 Z M 393.901 363.0185 392.5969 363.0321 392.2717 360.9668 393.806 357.9843 393.9151 356.8476 393.3999 355.9914 393.1918 355.2868 393.3168 354.9972 395.2775 354.4045 395.8916 355.0334 396.62 356.7062 398.0095 359.1006 397.975 361.3876 397.2036 361.952 394.7843 362.5288 393.901 363.0185 Z M 406.9249 411.1861 407.1149 411.2913 407.5707 411.2664 408.212 411.4542 410.6285 411.6838 412.7916 412.2267 413.9198 412.7345 415.3998 412.894 416.6128 413.5409 417.1309 413.7072 417.7558 413.757 419.3799 414.9536 419.471 415.0905 421.314 416.0337 421.4084 416.1842 420.36 416.2362 418.233 415.7974 417.1716 415.7736 416.4042 415.639 416.2243 415.5621 416.0722 415.0147 415.8273 414.7455 413.7841 413.4832 412.9336 413.2073 411.4621 412.963 409.7876 413.1338 408.6548 412.9709 408.2629 413.0297 406.593 412.0265 404.9264 411.1805 404.2127 410.1716 403.1518 409.4002 403.1461 409.1751 403.633 409.0032 404.7731 409.4364 405.8962 410.1817 406.5019 410.4645 406.9249 411.1861 Z M 404.8223 361.0324 404.6023 361.3073 403.1744 361.1387 400.7019 361.4317 399.6619 360.381 399.2067 358.7093 398.8968 358.3632 398.2826 357.4108 397.975 356.7854 397.345 355.8172 397.1018 354.7948 396.9469 354.486 397.5141 353.882 400.0991 353.2826 401.0192 352.3155 401.8092 352.4433 401.5921 354.417 402.0665 355.082 402.9459 355.634 403.1088 355.8613 403.2575 356.5603 403.6981 357.6427 404.2681 358.1494 404.4151 358.465 404.4417 358.7285 404.2325 359.1006 404.8223 361.0324 Z M 423.8634 417.6636 424.1755 418.6035 424.3384 418.7833 425.1822 418.6329 426.6169 418.5469 428.9706 418.8964 429.2375 419.0208 430.2373 420.0478 431.0042 420.4866 432.1771 421.4367 431.0093 422.0701 430.3176 422.9817 430.2809 423.4443 429.8245 423.7112 429.1069 423.9883 428.0369 424.5211 426.7204 424.581 425.4225 424.8615 424.823 425.116 424.4685 425.133 424.0483 424.995 423.5987 424.7337 423.4539 424.4306 424.3441 424.1489 425.5028 423.1435 425.7103 422.1018 424.46 421.9129 423.7141 422.0554 423.157 422.052 422.5174 421.7308 422.1283 422.2228 421.9836 422.6933 422.1538 423.4126 422.039 423.6445 421.5849 423.7757 420.5347 423.5031 419.445 423.0179 419.359 422.7363 419.5824 421.7658 419.5586 421.2591 419.3335 420.5308 419.2125 420.455 418.8037 420.4708 417.5199 420.6111 416.2379 419.6768 415.5446 418.6906 413.1824 418.4067 415.0232 417.0291 417.7965 416.8345 418.7369 417.5312 421.8235 418.0142 421.6386 417.2745 421.6901 417.0098 422.1136 416.6807 422.3534 416.6536 422.7188 416.8865 423.3108 416.9849 423.5851 417.21 423.8634 417.6636 Z M 401.8613 396.2202 402.3572 398.4732 402.7118 398.7877 403.8937 398.9539 405.1752 400.0997 405.2329 400.4107 403.6794 402.3572 403.3491 403.7371 401.527 403.6387 400.7636 402.2667 399.6122 400.9423 399.2237 399.3905 398.5903 398.0581 399.7168 397.3037 400.793 397.4723 400.8569 396.4498 401.8613 396.2202 Z M 461.1599 434.3113 470.4509 435.4548 473.3147 434.7615 475.579 434.7819 476.2531 435.7353 473.9565 436.7352 473.7807 437.0507 474.1019 437.3075 476.4623 437.4681 477.0607 437.7904 477.6098 438.2044 477.1455 438.8185 477.1014 439.1024 477.3463 439.3795 479.1163 440.3092 479.8425 440.7888 480.2083 441.248 480.3559 442.0533 480.3237 442.698 479.9262 442.784 479.0643 442.5883 478.2239 442.2162 477.4859 441.2876 476.9685 441.101 475.4783 440.9132 474.0018 440.4608 472.8509 440.4868 471.7917 440.2945 470.8416 440.4631 470.5046 440.1577 470.0974 439.5413 470.0884 439.2721 470.5877 438.2983 470.5747 438.0426 470.3135 438.0121 469.2067 438.2112 468.7594 438.0788 467.5554 437.3731 467.0708 437.2396 465.8611 437.1695 465.1768 438.4215 465.1412 438.7314 465.8385 439.5266 467.2071 440.7481 466.5126 440.7707 464.5321 440.3941 464.0237 440.1599 463.4102 439.5447 462.2339 439.1861 461.821 438.9656 461.7006 438.7054 461.6881 437.9013 461.428 437.7848 459.758 437.9883 459.4142 437.7949 459.2745 437.4568 459.0313 437.2656 457.954 436.9568 457.859 436.7634 458.3391 436.535 458.6366 435.957 459.0585 433.8827 461.1599 434.3113 Z M 441.6156 424.0472 444.1836 424.9712 445.8841 424.9622 445.8734 425.5401 446.0815 426.5241 445.8134 426.9234 445.1772 427.3306 444.7768 427.9097 444.4788 427.999 442.6098 427.2989 440.6565 426.3443 439.6742 426.5117 438.3712 426.2776 437.3216 426.3285 436.669 426.8691 435.1523 427.1519 434.8763 426.0672 433.4959 425.0425 432.1188 424.2202 432.8647 422.9591 433.7577 422.7555 434.5969 422.3336 437.9714 422.7793 439.72 423.1582 441.6156 424.0472 Z M 414.4576 312.4181 413.8876 312.9158 412.9873 313.004 411.5859 313.5797 411.4383 314.0796 411.3688 314.6926 412.3358 315.4312 412.8125 316.2896 413.386 317.5756 413.7999 318.8028 413.7626 319.1828 413.8655 319.8196 414.5526 320.8093 414.616 321.256 414.5408 321.6994 414.2637 322.5205 414.0448 322.6336 413.3628 322.714 413.3096 323.2127 413.1417 323.3756 411.2042 323.4254 410.2451 323.1992 410.3588 321.6971 409.1316 321.1079 408.289 320.1137 407.34 318.3979 406.5426 317.8697 405.6152 316.5136 404.2376 315.3531 405.8272 314.6191 405.5807 313.3331 406.5087 312.892 407.9038 312.4317 408.9314 312.7936 409.8543 312.6658 410.2666 312.3582 410.1405 311.0439 410.4334 310.0079 411.4513 309.4729 412.5484 309.4107 412.9613 309.9954 413.503 310.57 414.8298 311.0235 414.8241 311.6173 414.4576 312.4181 Z M 423.135 316.8834 420.3283 317.8086 418.9207 317.4987 418.3756 316.8167 418.1092 316.2433 417.8197 315.2728 418.2992 314.7526 419.3268 314.0027 419.7085 313.5186 419.8934 312.9474 419.8289 312.4136 419.963 311.9057 420.5686 311.7282 422.6452 312.2971 424.7993 313.1499 425.5644 313.7392 425.707 314.2074 424.7659 315.2434 424.1653 316.0951 423.135 316.8834 Z M 399.3187 318.1581 399.0291 318.3481 398.6672 318.2927 398.372 317.924 398.1645 317.2951 398.5665 317.0576 398.89 317.0576 399.2497 317.3913 399.4374 317.9308 399.3187 318.1581 Z M 396.3129 385.2152 395.9832 386.2851 395.0462 386.1924 394.7317 385.9232 394.5683 385.2446 394.2816 384.9166 394.6837 384.2368 394.9489 383.4824 394.8579 382.9056 396.2931 382.9452 398.0021 383.0934 398.4749 383.2517 397.9524 383.7607 397.4547 384.0649 396.4249 384.2527 396.3129 385.2152 Z M 398.575 363.8646 398.4778 364.7852 396.7682 366.5564 395.2944 367.6015 393.9491 368.4294 393.0889 368.4215 392.3848 368.0211 393.176 367.3663 394.1628 366.7125 393.8512 365.8688 393.5549 365.6245 393.1375 365.5351 392.4233 365.0929 392.6399 364.4369 393.0572 364.1236 393.6115 363.8838 394.13 364.0263 396.3678 363.5648 397.0753 363.1938 398.437 363.1282 398.575 363.8646 Z M 398.5111 352.2963 397.6583 352.4467 397.5599 352.0689 396.7874 351.4412 397.4581 351.0261 398.7701 350.5929 399.7649 350.6404 400.6624 350.9696 400.7834 351.3575 399.2169 351.8654 398.8323 352.1436 398.5111 352.2963 Z M 403.6472 303.3064 402.006 303.51 401.6328 303.1639 401.6407 302.8721 401.9223 302.6301 402.7638 302.474 403.3146 302.6719 403.6019 302.9547 403.693 303.2114 403.6472 303.3064 Z M 415.6526 317.363 415.2742 317.4953 414.9298 317.475 414.5804 317.078 414.4633 316.5543 413.7072 315.7716 413.4951 315.4018 413.5121 314.9595 413.9464 314.325 414.59 314.152 415.0237 314.1757 415.548 314.9234 415.6984 315.7332 415.833 316.569 415.6526 317.363 Z M 404.9224 392.1304 404.8964 393.1008 404.5294 393.4096 404.2076 393.5046 403.3927 393.2094 402.9273 393.1766 402.1576 393.6901 401.5095 393.9502 400.5442 393.8823 399.2621 393.5351 398.1164 394.9941 397.582 395.485 396.4622 396.1648 396.3356 395.3663 397.0487 394.1741 397.3784 393.3609 398.031 392.1507 399.3436 392.6065 401.1838 392.1586 402.8605 391.3262 404.3094 391.3205 404.785 391.7639 404.9224 392.1304 Z M 399.1762 380.7691 396.9107 381.6977 396.2451 381.3131 394.609 381.3165 395.0377 380.3121 395.2028 379.5713 395.4477 379.2851 395.5387 378.645 396.0274 377.4766 397.3823 377.8657 398.3912 377.9799 399.7615 378.3667 401.2471 378.6133 401.6803 379.6245 400.2348 380.0882 399.1762 380.7691 Z M 413.5856 305.8479 413.8288 306.4179 413.3192 306.496 412.5026 306.4055 412.1073 306.8556 411.906 306.945 410.0285 306.5457 409.7367 306.3682 409.7717 305.7755 411.7726 305.7235 413.0495 305.3446 413.2293 305.4045 413.5856 305.8479 Z M 409.7457 399.7049 409.3996 399.8327 408.1136 399.5624 407.4701 399.3215 406.4861 398.7096 406.33 398.0785 405.8866 397.3264 406.1716 397.3173 407.1986 397.6159 407.6205 397.8421 408.1838 398.3217 409.8475 399.0082 410.0556 399.2118 410.0155 399.4742 409.7457 399.7049 Z M 407.7687 327.4394 407.1251 327.9529 406.0009 328.2006 404.8879 327.798 403.5431 327.9846 403.4029 327.1046 403.9056 326.3796 404.9252 325.5178 405.6632 324.363 405.5745 322.7332 406.1807 322.3599 406.5064 321.7842 407.7958 321.4302 408.0871 322.6416 407.7393 324.8052 408.6124 326.0844 408.738 326.5109 408.5678 327.0006 407.7687 327.4394 Z M 485.8036 445.5527 485.384 445.5765 484.3638 445.3616 482.8346 445.2655 482.6621 445.1772 482.6242 445.0076 482.8052 444.8334 483.6394 444.7011 486.1554 444.8153 486.4743 444.8945 486.5608 445.0279 486.1503 445.4114 485.8036 445.5527 Z M 498.5793 437.9024 497.6575 438.4091 496.9692 438.3752 496.7487 438.1919 496.674 437.9635 496.8114 437.7169 497.1016 437.4918 497.7751 437.2113 497.9883 437.1661 499 437.4466 498.5793 437.9024 Z M 446.2353 433.7198 446.7737 434.4538 446.9728 434.5884 448.3984 434.8746 449.0414 434.7015 450.5938 434.619 451.5263 434.3374 452.8841 434.1937 454.4416 436.0124 454.2702 436.5666 453.0391 437.1672 452.2117 437.2995 451.4257 437.1174 451.4805 436.8121 451.3374 436.5451 450.8002 436.199 450.2969 436.2318 449.4854 436.4875 449.098 436.4558 448.2751 436.1742 446.8348 435.966 446.5492 435.7082 446.5169 435.3281 446.2455 435.1381 444.744 434.5285 443.7832 434.0094 442.9689 433.9392 442.6714 434.0014 442.37 434.2503 441.6376 434.4878 441.4284 434.4482 441.1937 434.2503 441.0744 433.9664 441.3832 433.3884 441.8033 433.333 443.8556 433.4472 445.1116 433.7141 446.2353 433.7198 Z M 489.1198 444.2464 488.6979 444.338 488.3858 444.1208 487.9096 443.967 485.98 443.6435 485.9393 443.4467 486.1401 443.1674 486.5263 442.9163 487.2672 442.6686 487.8632 442.0262 488.133 442.0748 488.405 442.3383 488.8698 443.2251 489.4258 443.863 489.3698 444.0835 489.1198 444.2464 Z"/>
</g>
</svg>