<?xml version="1.0"?>
<svg xmlns="http://www.w3.org/2000/svg" version="1.2" baseProfile="tiny" width="800" height="461" viewBox="0 0 800 461" stroke-linecap="round" stroke-linejoin="round">
<g id="map">
<path d="M 477.8912 453.3936 466.6533 459.646 455.9874 455.614 455.6104 444.4252 462.0208 438.531 476.2316 434.8862 483.7101 435.1948 486.6172 440.1583 480.9018 445.8821 477.8912 453.3936 Z M 703.1517 49.1073 725.7894 53.2653 741.196 62.5123 746.4638 74.7332 766.2267 74.7483 777.5029 69.6174 799 65.783 792.1648 77.4867 787.1121 82.247 782.6544 96.4968 773.9068 109.1509 758.1204 106.8474 746.9572 111.4417 750.3825 122.5814 748.5112 137.9497 741.8669 138.3006 741.9469 144.9083 733.5475 137.2292 728.3759 144.5184 708.287 150.1206 710.3189 156.982 699.0723 156.5088 692.8978 152.4321 683.9614 161.6572 669.6262 168.6487 659.0343 176.9906 640.8496 180.7719 631.274 186.8506 617.2674 190.4013 624.18 184.374 621.4584 179.3089 631.7579 170.5657 624.8871 163.7507 613.5484 168.3422 598.863 177.3865 590.8488 185.7855 578.0925 186.4106 571.4582 192.4803 578.3129 201.2752 588.9587 203.4103 589.3942 209.2487 599.685 213.0478 614.2615 203.7601 625.8093 208.8239 634.2207 209.1704 636.3286 215.9844 617.9127 219.6171 611.8364 226.6395 599.1876 233.1646 592.5104 242.2687 606.5102 249.4164 611.6199 262.2104 619.5367 274.1302 628.3702 284.1215 628.1592 293.7835 619.9951 297.3356 623.1072 304.273 630.7631 308.3103 628.7641 318.9046 625.4604 329.2129 618.1923 330.3814 608.6947 344.4612 598.1592 361.5321 586.0804 377.0547 568.1922 389.0589 550.1009 400.006 535.4431 401.4993 527.4921 407.2785 522.9946 403.0567 515.6365 409.5208 497.4592 416.0358 483.696 418.0304 479.255 431.7674 472.0467 432.5293 468.6362 423.0891 471.7167 418.0576 454.2654 413.8933 448.1178 416.0112 435.0227 412.6356 428.8294 407.3508 430.8862 399.8578 418.9956 397.4824 412.7257 392.6025 401.6391 399.5342 388.9917 401.0351 378.6182 400.9696 371.6391 404.1439 364.896 406.0501 366.8614 420.9281 359.9274 420.5732 358.7564 417.5176 358.3666 412.1403 348.8259 415.9272 343.1932 413.5326 333.5342 408.6501 337.3205 397.8447 329.0838 395.3254 325.9818 383.3515 312.2522 385.5092 313.8116 370.0797 326.1324 359.2179 326.656 348.4892 326.2735 338.5351 320.5964 335.4341 316.2489 327.7765 308.6414 328.7437 294.616 326.7998 299.0093 321.3375 292.9101 313.2494 283.6376 318.7265 272.727 315.5303 257.7345 323.8134 245.895 333.4875 235.4052 335.1151 229.7107 331.6179 222.8385 331.3013 213.5425 328.2903 206.5184 331.59 197.9133 341.2601 196.8218 331.0163 188.8889 333.752 173.7236 332.4809 159.0099 329.4982 148.4523 323.7855 138.345 321.2215 133.98 314.9738 126.6715 313.1072 113.5395 304.6326 103.1116 300.6335 97.7195 303.7453 79.641 294.6503 66.8618 286.4143 63.214 272.0771 72.549 273.825 72.9752 267.1834 67.8008 260.5263 69.1169 249.9159 55.1366 234.6705 33.7451 229.4105 29.8956 219.4158 20.285 213.3516 17.9694 209.6191 16.0181 202.2048 16.4712 197.1471 8.5719 194.1859 4.297 195.4956 1 183.4585 4.7023 180.4828 2.9103 177.4396 15.3271 171.2944 24.3146 168.7496 38.0832 170.4942 43.0014 162.1886 59.6858 160.6429 64.3224 155.4801 84.8187 148.4341 86.6469 145.4938 85.6084 138.0788 94.5321 134.6931 82.8244 112.0977 108.591 106.9012 115.2488 104.0055 124.6342 80.7178 150.4378 84.9981 157.6723 79.1187 158.2934 66.0754 169.0964 64.8601 178.9974 56.2 184.087 55.1306 187.5022 64.2061 198.4343 71.1049 216.9893 75.9895 225.964 86.4655 220.9558 101.6634 225.6354 107.3038 241.0924 109.528 258.611 111.3439 274.3261 119.4491 282.3638 120.8929 288.2896 132.884 295.9241 140.6078 310.2626 140.3053 337.1101 143.2215 354.4103 141.412 367.2506 143.3492 386.4912 151.2498 402.2299 151.2384 407.9883 155.2828 423.1328 148.299 444.1453 143.7831 463.6407 143.2897 478.8396 138.714 488.1733 131.7474 497.277 127.3733 495.1718 123.0802 491.0179 118.082 497.8457 109.6971 505.1655 110.8733 518.5348 113.5106 531.4955 106.6048 551.3283 101.5656 560.8596 92.9683 570.0144 89.2674 588.9089 87.5416 599.1708 89.0079 600.5958 84.3854 588.8081 75.2934 578.3708 71.1354 568.373 75.9354 555.5408 73.9101 548.1772 75.5603 544.8272 70.2425 554.017 57.2455 560.3514 47.439 575.9657 52.3499 594.2956 44.1306 594.1773 38.4072 605.9187 24.6111 613.1525 20.4416 612.9911 13.2602 605.8541 10.169 616.598 3.6977 632.7615 1.3522 650.0058 1 669.4736 4.873 680.8957 9.6628 688.9347 22.7811 693.8093 28.3789 698.3396 36.3665 703.1517 49.1073 Z" id="CHN"/>
</g>
</svg>