<?xml version="1.0"?>
<svg xmlns="http://www.w3.org/2000/svg" version="1.2" baseProfile="tiny" width="292" height="400" viewBox="0 0 292 400" stroke-linecap="round" stroke-linejoin="round">
<g id="ne_50m_admin_0_countries-colombia">
<path d="M 184.9722 14.6674 184.1165 14.9577 183.051 15.5837 179.8067 16.7646 175.4281 17.8919 169.731 19.3351 168.437 20.8739 162.7982 30.5555 158.0804 32.5175 156.3632 33.9584 155.0681 35.791 152.2551 39.1647 151.0835 41.7585 147.9756 47.3914 146.2794 54.4466 145.6348 58.4102 144.6998 64.1539 143.3265 67.0415 141.4835 69.7531 139.5017 72.404 137.7973 75.3067 136.3483 77.5788 136.1128 78.3599 136.8169 78.9859 140.2443 78.3599 141.5919 77.6756 143.4618 76.7978 144.6345 77.2664 145.8073 79.7681 147.1374 80.0805 148.3871 79.7681 149.7172 80.393 151.4088 86.617 152.8438 91.8862 156.1791 95.1783 158.7857 97.75 159.4117 100.0162 160.0366 103.2221 160.1928 104.7853 159.3791 105.7308 158.0816 107.6788 157.7587 111.4092 157.536 112.6484 157.2959 116.1037 157.4626 118.2277 158.155 119.8843 159.3091 120.8344 161.6558 121.3251 163.7717 121.9045 164.9899 124.7828 166.7187 128.4316 168.5723 129.9658 171.2931 130.9753 173.2365 130.6058 177.7818 129.9588 181.6917 130.115 187.4051 131.0977 189.535 131.0616 192.2885 130.8774 197.1252 128.8921 198.8809 128.5948 200.8405 128.7685 203.6943 129.7769 205.2436 130.5743 207.2289 131.3985 210.127 131.9872 211.9887 131.8893 213.3958 131.852 214.2118 132.2262 218.7676 137.9011 222.7125 142.8159 226.1538 146.9439 229.868 151.3983 230.1571 151.6594 231.8299 151.0859 232.9339 151.3342 233.9528 152.2388 235.7107 151.8657 238.2078 150.2174 241.8543 149.8874 246.6467 150.876 252.9663 150.8818 260.8142 149.9038 265.6894 148.8429 267.592 147.6982 270.7442 147.8159 274.5422 148.8464 276.5975 150.3153 276.8458 151.7597 277.6152 154.0096 276.791 156.291 274.372 158.6038 273.0314 161.5579 272.7703 165.1531 271.5206 167.8099 269.2812 169.5293 268.4103 172.0369 268.9046 175.3302 268.6633 180.1459 267.6852 186.4807 267.6852 190.2671 268.6633 191.5039 269.1144 193.2794 269.0375 195.5911 269.4059 197.6358 270.6206 200.3031 272.3086 205.6096 273.7192 207.8887 274.9467 208.7234 276.1988 209.7434 279.8033 215.1712 280.6765 216.3148 280.413 217.315 280.0761 218.0635 279.6623 218.5403 275.8129 221.7729 268.1748 228.8024 267.543 229.6978 267.5943 231.1713 269.8057 230.2235 272.1746 231.0139 273.3333 231.1713 273.8591 231.7507 274.5434 233.6462 275.3326 233.9609 276.4914 234.7513 278.7553 236.7506 280.6497 238.8571 282.0707 239.8655 283.0709 240.804 283.3869 242.1737 282.966 243.5412 284.1539 246.7144 284.9665 247.7006 285.3873 248.9107 284.9665 250.1219 285.9667 251.5429 287.0567 254.3396 288.388 257.7541 288.5453 259.6496 289.0991 260.5228 289.7496 263.0583 290.8629 265.44 290.5994 267.072 291.0646 268.668 286.5472 269.7346 286.1404 269.5668 285.8688 268.9792 285.997 264.4293 285.9527 259.2964 285.2579 257.1945 283.191 253.8232 280.4503 249.3525 279.7019 248.069 278.5443 247.3322 277.1757 247.2261 276.1755 247.542 274.829 248.3756 273.5595 249.2814 271.1091 251.9778 268.6446 255.13 267.2014 255.8341 265.7524 256.1232 264.4747 256.0265 263.4454 255.1789 262.3903 253.4583 261.1197 251.1746 259.603 250.4285 259.0166 251.1303 258.513 252.4732 258.119 253.8068 259.1379 255.5007 260.0145 256.8075 258.5107 256.7632 253.6425 256.7655 248.0317 256.7679 242.4279 256.7702 237.3883 256.7725 232.7217 256.7737 230.9405 256.6653 229.13 255.8982 227.393 255.5322 226.4779 255.5916 224.8354 256.3389 222.6974 256.4485 221.2565 257.1572 220.0954 257.0721 220.0744 261.0078 220.0429 266.6209 220.0103 272.5721 221.2996 272.1209 222.4176 272.1641 223.2371 272.5826 225.5313 272.2445 226.8043 272.4229 228.0086 272.5733 229.1265 272.5942 229.8143 273.0664 230.7388 272.9813 231.7273 272.4648 232.9106 272.7878 234.1789 273.6259 234.9961 274.8733 235.7271 276.4214 236.458 277.2386 236.4149 278.7215 236.3927 279.8826 236.1351 280.849 236.458 281.4738 236.6946 282.1395 236.6294 282.5277 236.1992 282.6991 235.2748 282.8285 234.2862 282.9357 233.5984 282.8926 233.061 282.291 232.5445 282.2258 231.7926 282.312 230.9964 281.946 230.3086 281.1941 229.0834 280.441 227.7719 280.7639 226.8696 281.1509 225.944 281.6242 225.1058 282.1185 224.2676 281.9891 223.1916 282.354 222.2882 282.9136 221.0851 283.3647 219.7736 283.5792 218.2686 283.796 216.8278 283.8811 215.1934 284.0537 215.0978 287.1872 214.9112 293.3471 214.7865 297.4249 214.797 301.1834 215.4288 302.552 218.3246 305.4477 220.5885 306.9725 222.5097 308.6722 224.4192 309.3857 225.2189 310.0268 225.7458 311.0783 226.0093 312.1835 226.2203 313.1324 226.0093 314.1326 225.536 315.0792 225.7458 316.0794 226.4301 316.8698 226.6411 317.8701 227.1144 318.8167 227.3779 319.7656 227.9573 320.4487 228.694 320.9243 229.6418 321.7124 229.7467 322.4492 229.6418 323.2932 229.6325 323.9297 230.5324 325.3776 230.7994 326.3964 230.3786 327.6088 229.9717 331.8102 228.9283 336.5922 228.2639 340.2433 227.1797 346.1957 225.9184 353.1203 224.3819 361.5581 222.8641 369.891 221.3952 377.958 220.0674 385.2464 218.6044 393.2854 217.7172 398.156 217.2941 399 216.07 397.235 214.2176 395.568 212.4806 394.5654 211.7439 393.2505 210.7436 390.5669 209.3552 389.6483 208.3748 388.9348 207.4271 389.0397 206.4268 389.7765 204.881 390.2475 203.8342 390.1775 199.62 388.3286 198.9298 388.1514 201.6379 383.9267 206.477 376.3749 209.5534 371.5766 212.9691 366.2468 214.7131 363.5282 214.9416 363.0643 214.9346 362.3695 214.192 361.3319 212.5471 360.8936 210.6446 360.0986 209.4462 358.8092 207.7861 358.2543 206.4956 357.3334 204.1419 356.4357 202.7314 355.6034 201.0095 355.305 199.6398 353.7825 194.6457 350.8354 193.3563 350.5557 191.9539 351.008 189.8987 351.4766 187.9169 353.0923 185.4408 353.6123 183.1279 353.5936 181.9226 352.6307 180.7615 352.2833 179.2483 350.9707 176.574 349.9658 174.6389 349.264 173.4405 349.5881 171.8993 351.0546 170.343 352.5095 169.1062 353.4141 167.4461 353.3675 165.4643 354.7058 163.5152 355.1791 161.5509 355.3889 159.2858 355.8575 156.7771 355.0485 154.723 354.335 153.8009 354.0133 152.9697 354.2371 151.6804 354.9809 149.3629 355.298 147.5501 355.3702 146.2619 355.0252 145.1032 353.7289 143.2286 353.0667 141.1676 352.26 140.7339 350.593 141.0312 349.3503 141.8355 347.5527 141.3891 345.6968 140.5229 342.7614 140.1533 341.5653 139.5087 340.5488 138.4945 340.1804 136.5115 340.4578 134.3444 339.348 133.0072 338.2895 132.3159 336.9955 133.0539 334.5544 132.408 332.4794 131.1164 331.3253 130.2863 329.2968 128.9959 327.6834 127.2903 326.8557 125.5848 326.9467 124.2477 326.4384 122.7252 324.7317 121.296 324.0859 119.6826 322.4258 116.6656 321.6891 115.0988 321.0409 114.2035 320.0197 112.997 318.1825 113.1357 317.1683 112.5505 316.1704 112.0305 314.3751 111.0047 311.7312 109.875 310.2273 108.7128 309.0919 107.7289 308.1313 106.2659 306.7021 104.4682 305.872 102.9469 304.9977 102.3477 303.7061 101.8395 302.6452 100.9861 302.7222 99.7609 302.6289 98.4121 302.3608 96.9876 301.589 95.8008 300.6541 93.8027 299.0733 92.7116 298.8647 91.744 298.8647 90.3147 300.4116 86.0294 298.7854 82.3678 296.3664 78.5639 295.7369 76.1018 294.2634 73.8321 291.9529 72.6068 290.3931 71.6101 289.6178 66.771 287.3773 65.8058 287.1604 63.9639 288.1991 63.3624 288.8228 63.2528 290.6122 63.0301 291.6311 61.4225 292.2466 58.8345 292.1149 57.0323 291.4656 55.8269 291.3712 55.5809 291.8794 54.9024 292.0986 53.4312 291.9529 51.2641 291.4574 49.2986 290.7953 46.6325 289.3905 45.4003 289.5654 42.3693 289.2635 39.8944 288.4637 39.2638 287.7247 38.1913 282.6711 37.8637 282.3214 36.7958 282.1022 35.0006 281.4062 33.871 280.5914 33.2846 279.1925 32.5758 277.8646 29.5518 278.1619 24.5985 276.4109 21.1688 274.7439 18.0306 272.8927 13.2696 269.2462 11.4522 268.3427 9.2081 267.2259 7.8838 265.4295 5.6934 263.6156 4.9578 263.1213 4.27 261.481 1 259.1029 2.6181 256.0346 6.5502 253.7299 11.7087 255.5193 12.3405 251.9416 10.4741 248.7754 10.7504 242.7939 11.3555 241.6037 12.7159 240.0031 14.489 238.8956 15.5289 238.575 17.2962 239.1229 18.4118 237.9304 22.6167 238.4631 23.8909 237.963 24.7617 237.1528 25.7876 236.5338 27.099 235.0952 27.851 233.434 28.4781 232.7882 29.933 233.0155 30.0671 232.2986 30.8143 231.3217 33.3603 229.1359 33.3347 228.1694 32.6213 226.0629 32.7961 225.29 34.2673 225.0219 36.0078 224.4297 36.9357 222.4176 38.0828 220.6619 39.3978 218.0833 40.8445 217.9212 41.6116 214.9089 43.5608 212.2685 47.5232 204.4392 46.3283 204.6117 45.3793 205.6574 44.2952 205.5339 43.0653 204.9183 43.4267 201.3908 42.7191 200.9722 40.8049 203.6885 39.1553 200.9256 39.0061 199.2423 39.6998 197.5752 39.5983 196.4538 36.9252 197.2884 37.0488 196.2497 38.7124 195.1819 39.4666 194.0698 40.9168 192.8597 41.5183 191.0283 41.8681 188.1908 42.5209 185.1377 42.0383 183.6351 41.2525 182.3492 40.6009 176.6661 40.7816 173.3565 40.4447 170.7592 39.765 168.5583 36.5977 165.6707 41.6069 162.3634 43.4057 159.8675 41.1278 154.73 38.1493 150.3992 38.063 147.7996 38.8499 148.1318 39.849 148.0537 40.7653 142.5746 40.5519 140.8773 38.8791 138.1377 36.7993 138.0713 34.9808 134.6288 33.9374 133.8571 33.0992 131.6899 30.1685 127.4675 27.8416 125.2689 29.581 120.1722 31.0999 119.1965 31.5966 117.9246 31.0032 114.7946 31.1664 114.0601 31.5243 113.7489 31.8798 113.771 32.493 114.242 33.6331 115.5931 34.5879 117.266 35.3526 117.7789 36.5056 117.2252 40.9821 113.8923 40.6965 112.8606 41.1057 110.7727 42.6013 109.0625 44.2008 108.4808 44.6776 107.5272 44.2882 106.0607 42.6095 102.4037 41.108 100.4347 40.1439 98.4739 39.6333 96.6693 37.9325 94.9696 38.6529 93.3597 39.9725 91.4782 40.4225 91.1529 41.1406 91.6682 43.1119 95.0827 46.2502 97.3058 49.5411 100.8929 50.8887 103.3643 51.9601 103.8143 52.8938 104.7096 52.4823 105.3729 51.453 106.0723 51.1557 107.5097 51.8248 108.3153 52.5348 108.8282 54.4525 108.5029 55.5086 106.8184 54.7987 99.4555 53.6877 95.7752 52.4077 94.6281 51.2559 93.172 52.0312 92.0704 54.0782 91.5738 56.7735 90.2833 66.6218 83.2549 69.9967 76.6532 72.5812 74.2622 75.4991 72.7071 79.0675 73.072 81.842 72.2408 82.6953 70.1389 81.9376 67.2898 80.8709 65.5715 81.8956 63.0768 82.9565 59.2939 82.8795 56.116 84.2481 54.2216 83.7748 53.4755 81.7744 55.0097 80.1948 55.6963 81.0889 54.4326 83.8867 51.2956 85.3416 46.523 86.4584 44.5353 90.4068 41.7585 91.1867 40.4202 94.1688 38.3393 98.9787 33.871 100.8171 32.6259 110.1362 35.5065 113.0972 35.3247 112.568 35.8504 111.2028 36.0288 109.228 36.8098 108.6557 38.5282 109.9928 40.3293 111.4104 40.8504 112.6204 39.6928 113.82 36.3855 115.7493 32.7308 116.2016 28.9013 117.5691 27.5852 119.5695 27.113 123.1402 27.8708 125.8588 28.6635 128.6951 28.7638 137.3742 28.1844 151.4974 18.2428 158.0571 16.1048 162.1652 14.0146 164.7859 9.9332 165.49 6.8684 167.4158 5.6782 169.4442 5.6817 170.3722 4.9356 170.6613 3.9913 175.5458 1.3439 178.3413 1 180.8116 1.0501 186.3478 3.3653 188.9043 7.4513 189.3275 10.2643 185.8209 13.3209 184.9722 14.6674 Z M 22.7671 237.1843 22.1201 237.7112 20.8867 236.7658 20.4659 235.5744 21.2224 234.6872 22.1959 234.9775 22.6377 235.7072 22.7671 237.1843 Z"/>
</g>
</svg>