<?xml version="1.0"?>
<svg xmlns="http://www.w3.org/2000/svg" version="1.2" baseProfile="tiny" width="500" height="385" viewBox="0 0 500 385" stroke-linecap="round" stroke-linejoin="round">
<g id="ne_50m_admin_0_countries-Comoros">
<path d="M 479.698 274.1462 499 327.0024 498.813 366.8409 490.6582 379.4845 473.4884 371.2923 441.8046 339.5338 381.5419 308.5607 409.1857 306.0171 425.3455 309.1966 442.4405 306.3537 453.139 288.922 455.2712 278.5229 470.3088 270.2559 479.698 274.1462 Z M 216.2775 360.5191 243.2106 383.9733 168.3965 374.2475 156.6133 353.1125 156.0148 337.5512 183.9579 340.9552 216.2775 360.5191 Z M 92.6099 205.0928 85.3155 210.1802 50.3399 188.3345 30.3645 183.1723 1 147.8601 12.2595 25.3894 21.6861 9.7158 28.7186 3.3192 44.9907 1 64.7042 16.3743 59.5046 95.1161 85.6521 148.1219 102.4479 190.0926 92.6099 205.0928 Z"/>
</g>
</svg>