<?xml version="1.0"?>
<svg xmlns="http://www.w3.org/2000/svg" version="1.2" baseProfile="tiny" width="280" height="300" viewBox="0 0 500 466" stroke-linecap="round" stroke-linejoin="round">
<g id="ne_50m_admin_0_countries-Costa Rica">
<path d="M 499 241.1515 498.1566 243.8999 495.5828 246.7863 491.8965 249.7019 487.0106 251.6941 475.203 245.703 463.6425 238.8976 457.2443 242.024 454.8377 250.8579 450.548 255.3949 445.1749 257.1762 442.9719 260.1354 442.5284 289.9598 442.8992 318.0684 451.6822 318.7009 466.3182 328.4655 472.5564 334.2094 474.5413 339.517 472.7309 342.1199 462.0212 348.2491 451.5877 356.0069 446.3673 365.6843 455.4993 381.3236 457.4479 391.9461 457.128 403.0557 454.6196 408.3924 434.3779 421.1598 429.9428 425.6313 430.5317 428.8667 441.6923 437.6788 446.9853 446.2001 451.3914 456.4809 451.9803 465.402 441.8668 448.8612 427.8416 433.0765 415.6486 423.3483 414.7179 400.6564 409.832 388.3398 391.4589 376.9975 375.7324 369.0506 364.0702 370.672 371.21 383.7156 389.6776 400.4455 390.8991 406.8583 390.6083 415.4668 377.9063 414.1435 366.7022 410.6318 353.0478 409.5339 343.9667 404.4008 324.7065 384.4282 338.39 367.3856 342.6288 356.196 342.2653 333.0024 339.1244 321.7546 324.2848 304.6394 300.6623 285.8591 267.5588 270.5179 251.9994 258.1505 213.2393 248.6695 198.5088 242.3876 186.9993 230.7253 185.2761 222.3568 189.355 209.4731 178.6525 193.0922 132.4762 160.8829 106.658 149.0317 101.1177 142.0663 97.017 139.8996 100.9868 162.1262 112.2709 175.5188 141.7464 188.0245 149.8532 195.3024 153.1178 204.7762 136.0171 222.8948 127.314 227.5044 124.7329 237.3853 119.1563 240.3881 113.2743 234.6879 89.3682 206.2667 43.1628 192.6414 34.8015 184.2801 17.6063 158.3309 9.6885 134.6284 12.5241 118.8291 31.5079 94.2105 37.4335 83.4935 36.2266 76.8917 36.8519 67.178 29.7629 60.3944 12.1896 51.5532 1 44.4643 4.0682 40.9307 24.1936 31.4061 25.4659 22.8121 25.3714 19.962 28.6578 19.344 31.5806 17.0683 33.3837 14.698 38.8731 6.4167 43.6791 1.7416 49.2193 1 55.9884 4.4463 81.3559 13.3602 109.559 23.2629 149.7296 37.3535 166.3796 28.3306 180.7029 21.438 190.6783 22.4195 212.2723 30.4536 225.2723 33.0129 233.2483 32.2059 247.0554 43.9917 254.5878 52.8402 255.8384 58.7367 260.0409 61.914 270.787 62.612 297.1287 68.6176 313.2261 67.4397 327.8548 61.0924 335.8962 53.5018 338.4191 41.5342 342.0981 47.4526 346.4314 56.7591 348.3509 68.7121 367.2693 108.7374 382.3705 131.153 415.4595 171.9198 429.7683 179.4159 453.9216 212.2214 462.2611 217.6381 467.0089 227.3227 492.0637 235.2914 499 241.1515 Z"/>
</g>
</svg>