<?xml version="1.0"?>
<svg xmlns="http://www.w3.org/2000/svg" version="1.2" baseProfile="tiny" width="500" height="349" viewBox="250 0 500 349" stroke-linecap="round" stroke-linejoin="round">
<g id="ne_50m_admin_0_countries-Croatia">
<path d="M 6.1412 87.1395 9.2986 90.5367 31.5991 94.6323 36.4179 92.818 39.3357 90.0407 39.3522 88.2843 41.2533 87.7719 49.1056 90.4458 55.5114 89.8258 65.8185 89.7019 73.1749 90.1399 78.035 88.0818 84.6227 80.5106 87.061 76.2745 90.0118 75.2619 91.9542 75.7661 93.3759 79.2501 96.8392 82.5191 103.9558 87.8504 108.9895 90.4127 113.5604 91.3343 118.0403 89.1894 122.6608 88.5777 135.8526 92.7353 146.9946 93.5288 155.2354 91.3591 154.1526 88.3752 151.1522 85.0525 150.5075 81.8248 151.0612 79.0352 156.7149 76.2538 156.4421 75.0346 149.6065 70.1414 149.9537 68.8809 164.9391 63.3802 179.3873 60.2971 181.7017 57.9166 183.049 54.3377 183.6854 47.6302 182.8919 42.146 177.0234 37.0048 176.6597 34.4011 178.0483 31.6983 180.3296 29.26 186.1072 28.202 192.885 26.4455 198.2411 24.4246 205.4982 22.7508 211.2015 20.4034 216.7724 14.82 220.1531 13.8984 230.3941 14.6919 232.5845 13.3157 231.1793 5.2981 233.0143 3.2606 236.6346 2.12 238.329 1 247.3385 1.8638 254.8354 3.9384 259.3814 5.1989 274.4578 11.0055 284.9055 17.5311 290.6996 24.78 298.5519 30.3965 308.4458 34.3722 316.2815 39.7655 322.0757 46.5763 330.1759 50.3909 340.574 51.2174 347.1617 53.5483 349.9224 57.3918 355.576 60.8716 364.0978 63.9877 377.364 65.6945 402.7641 66.0996 405.0206 66.1863 410.7486 67.1534 417.4355 65.9425 425.5853 63.5042 428.2137 62.0536 436.7934 54.0814 441.513 54.7675 450.9275 53.7963 456.6225 52.0274 457.0523 52.0274 456.6886 54.069 456.0521 57.6315 451.44 60.1525 456.1348 65.9632 460.5982 75.3818 458.1103 80.0353 461.1437 83.6597 469.7234 86.2634 470.5003 87.3007 467.8802 88.3835 465.7063 91.4624 465.4584 97.0747 472.9387 102.373 488.1556 107.3612 493.0157 108.2002 494.8755 110.1178 497.4213 111.37 498.9173 112.9033 499 114.887 497.9089 116.2467 490.7096 116.7302 482.4937 116.6889 476.6499 114.2795 476.1292 116.0359 476.0383 118.0486 470.3846 119.276 473.5255 133.1084 472.2774 137.0883 470.1863 138.4232 468.2439 137.8694 465.8716 137.7124 464.6814 139.0142 465.665 141.9609 460.094 142.2998 451.2168 140.7706 447.1501 138.0926 446.4558 135.3567 446.3897 132.815 443.5712 128.645 436.5041 124.3346 421.7501 123.6237 416.3031 122.2558 410.6908 120.6853 404.5412 119.524 398.871 119.6397 392.0354 120.7845 380.1082 118.8876 376.0746 121.4209 369.7928 124.3511 364.5772 124.2767 354.1957 117.4824 351.0961 117.0526 342.0205 120.5159 338.3258 120.7018 335.4907 119.6067 323.2163 117.0113 317.6784 116.4533 313.6118 117.6808 306.3959 116.35 288.8977 107.4811 278.0781 114.2258 256.0587 112.5479 249.5289 117.1766 242.0403 125.9505 235.9733 130.1411 230.6999 128.6368 224.4594 124.7768 213.5406 114.8416 208.0275 113.0479 201.6878 112.6305 196.1499 113.7257 193.2073 115.7425 190.9591 130.2527 188.9671 143.0437 188.8514 150.71 200.9935 157.8101 215.2929 170.0266 219.8968 171.4317 222.1699 175.4322 225.5174 185.7353 229.2782 197.3195 236.5437 204.9899 243.0983 210.4824 251.0993 215.3094 261.1254 222.8766 269.3497 231.1835 271.5318 234.25 287.476 245.2349 302.9409 256.4471 316.7775 260.3691 318.9596 262.4397 319.0836 271.0648 320.5879 274.3007 329.8288 283.3309 348.666 296.5475 350.8398 299.6099 351.4598 301.854 350.2447 303.5732 345.3102 305.3834 341.26 303.3625 323.704 290.4434 306.7348 282.2977 287.5835 266.9527 261.952 260.8899 244.4869 254.1782 233.907 255.2032 222.236 257.315 215.0367 257.3811 209.9203 256.1744 206.2835 252.0127 206.8372 248.7932 206.1925 244.5902 195.9598 237.8786 181.9992 231.5017 168.7743 223.2485 142.2336 200.9604 136.9106 193.7942 142.1344 192.4304 146.0854 192.5544 150.5653 191.0831 157.7977 191.0459 166.3691 192.5089 158.7813 187.7438 149.342 183.0696 124.9255 164.4969 117.6353 155.723 116.7922 146.2714 118.5941 133.311 114.1968 124.0329 95.3596 112.023 88.4579 105.6916 74.547 101.9308 68.3313 102.2986 64.5952 106.9769 61.8676 117.375 49.5354 131.0917 45.4191 137.0511 38.972 144.8001 33.3845 145.3332 30.0782 144.6513 20.0686 131.6082 10.4889 121.7309 9.1498 117.0567 8.2902 111.3039 1 90.111 6.1412 87.1395 Z M 266.217 300.4571 281.8637 302.8211 293.3363 301.7341 303.7096 303.1847 310.1567 305.8711 311.7189 307.1894 303.3459 307.3713 293.8819 306.2802 283.1449 309.012 273.6808 307.5531 270.0853 305.7801 267.5395 303.5608 266.217 300.4571 Z M 312.2066 289.5218 306.2885 290.3979 268.6306 289.7449 257.6787 287.9885 245.4953 283.4631 243.0073 282.0745 255.2734 280.7644 266.6634 282.0745 270.1597 285.3601 300.9572 287.9885 312.2066 289.5218 Z M 277.607 277.2598 264.2498 277.4789 252.645 275.9456 246.9583 273.3171 247.3798 271.102 249.1404 267.4073 262.0595 267.8453 281.7645 270.4738 286.5834 273.5362 285.0873 274.9496 277.607 277.2598 Z M 146.0606 210.2551 147.3831 213.2389 136.8197 207.6307 132.8192 203.8616 132.0753 202.1837 146.0606 210.2551 Z M 110.4443 132.8316 100.0131 134.6458 95.0455 131.4016 93.7479 128.736 85.1765 127.8929 79.9857 124.1858 78.9277 122.5409 86.2675 118.4619 90.2019 111.866 95.1861 115.821 101.2117 123.2683 104.427 125.3471 110.4443 132.8316 Z M 112.2379 151.2927 114.3704 155.0246 106.4024 151.6564 99.2692 150.3669 97.7566 147.8335 98.7816 145.7548 100.3107 143.7421 105.6999 144.0231 106.5099 146.0069 112.2379 151.2927 Z M 142.4568 187.1115 140.2664 189.3597 134.7946 185.2145 129.7692 182.2637 126.1736 178.7674 119.1231 174.4073 116.7426 169.4232 106.2288 159.2648 104.6584 156.5041 109.8988 160.6245 114.263 163.1992 117.875 163.8274 127.0498 170.3117 136.0675 178.6476 146.8127 185.8882 144.581 186.1114 142.4568 187.1115 Z M 142.4816 222.0996 143.6884 223.3394 143.5726 224.1825 139.1836 222.9923 138.0017 223.3766 117.3047 204.9031 115.0813 201.3117 122.4872 205.6098 142.4816 222.0996 Z M 157.9382 217.7437 163.5092 224.0337 158.1779 222.7402 152.6234 218.8471 149.3585 214.6193 157.9382 217.7437 Z M 83.1762 159.6616 82.5232 162.9471 77.3738 158.7937 74.7784 151.3464 68.3065 139.32 67.4716 135.9311 70.8275 132.5877 70.6456 129.1988 66.0582 118.6479 69.9017 116.9245 72.183 116.7178 73.1087 124.037 75.1917 128.2442 81.4239 133.4101 80.1675 141.9609 81.4404 154.136 82.7051 156.843 83.1762 159.6616 Z M 347.2278 319.7159 358.7748 325.5307 324.9108 317.9098 328.7543 317.2114 332.3415 317.0626 347.2278 319.7159 Z M 417.3528 337.4331 417.5016 340.5451 420.7665 344.0869 424.2215 348.1659 408.6078 340.1277 394.0191 331.143 365.5112 317.3147 345.2936 313.9506 317.6371 302.8376 299.6264 298.9073 306.4868 298.0022 314.3887 297.9774 357.0307 312.8059 352.2863 308.8756 358.4359 307.3217 363.6597 308.4416 366.9907 313.2811 373.5536 316.4675 384.1914 322.0674 390.9113 326.3572 406.153 334.0731 409.7567 335.1518 417.3528 337.4331 Z"/>
</g>
</svg>