<?xml version="1.0"?>
<svg xmlns="http://www.w3.org/2000/svg" version="1.2" baseProfile="tiny" width="500" height="156" viewBox="0 0 500 156" stroke-linecap="round" stroke-linejoin="round">
<g id="ne_50m_admin_0_countries-Cuba">
<path d="M 142.2766 2.2689 154.414 4.4245 164.2261 3.8138 168.9173 2.5562 168.4876 3.8636 172.7965 7.0574 174.3708 7.2768 180.7155 5.6595 197.2772 5.0466 198.9781 5.9423 201.8937 9.0524 206.1212 10.9795 210.4912 12.443 215.0648 12.8343 219.6293 12.167 223.9089 12.4928 229.2515 15.5237 230.9366 15.8834 235.7206 15.0555 234.3091 17.8263 242.3728 21.7236 248.2764 29.3802 252.5718 32.5265 257.1205 35.3494 260.9476 37.2629 265.2407 38.1767 278.2626 37.8013 281.341 38.0365 284.096 39.129 286.7244 39.5588 288.2421 39.1516 313.4126 51.0764 321.4085 57.4437 326.2942 60.7506 336.8664 65.5323 341.1142 66.5863 343.3377 65.9507 342.9011 64.8989 339.8068 62.2457 339.3522 61.2754 343.3309 62.0919 350.517 67.482 352.4916 69.4748 356.079 71.3205 359.689 72.655 357.97 74.7835 355.0385 74.9644 349.4041 74.0891 353.8782 77.5521 354.6517 80.0718 356.735 80.2867 359.836 77.5181 361.7971 75.1838 369.698 81.2073 373.9481 83.9623 372.8601 85.5705 372.5073 87.1629 377.2527 85.6814 379.0555 85.8442 380.7949 86.6992 382.6994 89.2891 387.1328 89.8636 391.6046 89.7935 400.6816 91.9355 409.2791 96.2874 417.3677 97.1764 425.5241 97.3257 429.6567 99.6283 431.4142 102.7158 429.435 104.9031 428.304 107.1876 431.3463 109.9901 424.7234 111.1799 423.7893 112.8672 424.1331 114.6903 425.4495 115.6924 429.2382 114.8147 434.712 115.5951 443.3503 116.2918 449.134 115.724 460.88 117.6331 464.4539 118.6532 471.4251 122.2406 474.6505 124.6065 481.5675 130.9783 487.5321 133.4845 492.7006 134.0907 494.5033 133.6723 496.1432 134.3644 497.5795 135.2579 499 138.0491 498.2174 140.985 495.2656 143.3668 493.6257 145.1017 486.2451 145.303 475.9331 146.0992 465.9603 148.6868 461.0927 150.7429 458.8669 152.1023 453.6216 153.3599 453.2642 152.2833 453.3637 150.9284 451.9907 148.4064 450.801 150.675 448.849 152.3308 445.5579 153.7445 433.4454 153.8372 428.5687 151.9327 423.5699 150.6275 405.3502 149.2681 400.9779 149.388 388.8043 150.7995 376.5696 151.564 371.4509 152.4371 366.3911 153.758 356.5472 153.7151 344.9097 155.2147 333.2405 155.4884 340.7139 144.9886 356.4816 134.8779 359.4447 132.7064 361.5574 129.9152 362.0572 127.8117 361.3674 126.018 357.6126 122.8536 356.8481 120.4967 355.7307 118.9721 350.2659 117.6467 344.731 116.8527 338.9089 116.8256 326.6719 115.7353 320.1667 115.6539 314.6521 113.5006 305.5027 105.8282 301.2187 103.6794 299.0178 101.9603 297.3078 99.9811 295.1545 88.7191 293.3337 83.2996 290.5583 78.588 286.333 75.0119 281.9201 73.7973 264.9535 76.8599 261.0064 76.4053 257.1612 75.3625 231.5496 68.0701 220.9865 64.0552 216.6776 62.067 213.002 59.2306 209.1929 54.5824 204.9066 50.4272 204.936 52.1078 204.2755 53.2026 182.8349 53.6957 179.4194 52.7366 177.2208 51.608 175.6669 49.9274 174.5201 46.5594 172.4776 43.732 171.8262 46.7448 170.7676 49.5247 167.8972 51.0764 164.6129 51.323 160.6365 47.6315 143.2605 46.8715 141.7224 46.2472 136.0156 42.6712 131.1457 38.1858 135.9953 36.6047 145.9997 34.5238 148.1643 33.1372 149.4197 31.3707 148.5172 28.7265 146.529 26.8265 144.4797 25.7091 142.2132 24.9943 139.2207 24.6912 100.5579 24.2162 98.3186 25.648 94.8511 28.5772 87.9862 32.3342 83.4602 36.2315 81.7637 38.2423 79.6488 39.6809 74.8898 42.0989 70.8364 45.8152 65.9123 47.4777 63.2206 46.4666 60.5583 46.4757 58.6334 47.3918 56.6158 47.8102 46.6973 48.2649 45.2158 49.2126 43.7976 51.8794 42.1894 57.0659 40.6648 58.7805 35.6909 59.4342 30.9499 60.8546 21.3074 65.7969 18.8171 66.5139 19.3577 62.8949 18.8736 59.3753 16.1571 59.2487 13.0582 59.8345 10.4751 60.8207 5.6957 63.4513 3.2687 64.1163 1 62.7705 1.4614 61.0492 17.4192 54.7022 19.2038 54.2182 22.038 54.6955 24.8134 54.4806 26.9803 52.7027 24.3565 44.3065 25.363 38.5929 29.0658 34.1777 36.4577 27.4915 40.0179 25.2929 76.4799 11.3234 80.2121 10.6086 103.9033 7.8038 107.5178 6.8312 118.5084 2.6896 130.051 1 142.2766 2.2689 Z M 335.3758 58.3711 333.4735 59.7893 331.3903 57.74 330.0648 57.5161 328.2326 56.704 324.6747 54.424 323.8151 52.0649 326.7715 51.8862 330.4923 52.3024 337.0111 53.6437 336.4411 56.3082 335.3758 58.3711 Z M 318.7869 42.9358 317.8414 43.7071 315.333 41.9813 311.7026 41.2303 309.5674 38.5432 307.5339 37.5117 307.3711 36.5233 310.7323 35.8719 313.0665 36.1569 315.6813 38.2084 317.1855 41.9745 318.7869 42.9358 Z M 290.8523 30.5632 297.2106 31.5448 299.4137 30.9567 301.5331 30.7848 303.7724 31.1942 306.8915 35.0463 304.1524 35.5258 301.9787 35.5258 300.375 34.8314 294.6727 34.6504 290.9044 33.5308 288.837 32.574 287.8236 31.4091 290.8523 30.5632 Z M 325.6292 50.2372 324.1024 50.3684 319.4904 48.4368 318.1129 46.8218 319.7324 44.6571 320.0785 42.307 320.7073 42.1509 321.4514 44.9964 324.9687 46.2065 325.1791 46.8308 327.3392 49.2443 325.6292 50.2372 Z M 108.7234 75.9868 104.4122 78.4432 95.2243 81.9062 90.2934 82.0261 85.3059 80.7255 81.8678 77.8303 79.909 74.978 80.0741 73.6073 83.191 75.8941 85.8804 77.0182 88.088 76.2695 89.6465 75.0323 84.6002 65.8082 84.8218 63.8585 88.8299 58.7986 99.7369 60.3367 101.6459 61.2279 103.1614 64.4307 105.5907 66.9437 108.4429 73.6638 108.7234 75.9868 Z M 257.5254 25.3902 257.6023 26.6048 249.5024 23.2029 246.0236 19.6585 244.6189 18.8442 246.8899 18.7741 256.0144 24.5827 257.5254 25.3902 Z"/>
</g>
</svg>