<?xml version="1.0"?>
<svg xmlns="http://www.w3.org/2000/svg" version="1.2" baseProfile="tiny" width="500" height="177" viewBox="0 0 500 177" stroke-linecap="round" stroke-linejoin="round">
<g id="ne_50m_admin_0_countries-Cyprus">
<path d="M 118.2157 4.3085 120.3565 11.6206 138.5394 20.0448 162.8389 27.5515 177.1016 27.9963 196.0074 19.8641 222.0862 11.3843 254.3928 3.7108 270.7129 8.326 292.7048 9.2713 309.2751 6.6856 320.7854 12.8856 329.8212 24.1318 332.0732 51.6007 335.4652 52.9074 349.6723 41.9949 374.9448 46.5267 392.2937 47.9169 406.6398 42.3842 415.5088 41.6891 425.5734 39.2842 436.889 33.8766 446.6755 26.356 457.1849 28.6775 474.9508 36.8375 485.9884 34.4326 491.4377 40.0348 499 56.3133 466.6378 61.1231 434.1644 62.7078 416.0927 60.6227 399.1331 61.5818 346.475 108.1095 318.1441 123.9292 284.4474 133.3681 250.139 138.9704 232.9014 139.6793 217.749 145.5874 207.1006 156.3748 206.8226 166.8842 202.263 175.5447 183.4406 173.7514 175.6003 156.7779 162.1994 149.4797 128.8641 153.2748 112.5996 152.8299 59.2464 136.6349 43.1487 130.0318 33.112 116.2 5.6152 66.2944 1 29.3864 26.6062 38.8254 50.5442 27.3847 73.5926 8.6596 101.0337 1 118.2157 4.3085 Z"/>
</g>
</svg>