<?xml version="1.0"?>
<svg xmlns="http://www.w3.org/2000/svg" version="1.2" baseProfile="tiny" width="500" height="184" viewBox="0 0 500 184" stroke-linecap="round" stroke-linejoin="round">
<g id="ne_50m_admin_0_countries-Czech Republic">
<path d="M 499 113.7845 497.1391 113.8999 492.9051 115.0251 487.4738 115.4326 481.5881 115.2126 477.0151 117.1889 472.6946 120.4095 468.2442 122.6383 465.8279 124.6326 464.4791 126.6775 449.4186 132.5019 447.3268 134.9255 445.6534 138.2326 444.9466 142.6973 443.879 146.7005 441.2896 148.8139 433.1535 150.6279 431.1266 151.6053 429.6047 153.6429 425.039 156.7841 419.6942 159.7739 409.863 163.1928 399.3178 164.2314 385.5988 163.1207 377.5925 161.7827 373.6904 163.2505 368.3456 167.7045 362.5825 175.3754 360.2094 181.1421 358.3774 179.512 355.0811 173.3954 351.352 172.6128 346.2741 172.043 342.4513 171.1414 334.1997 167.6215 329.9586 166.5612 325.1115 166.2763 320.452 168.3464 316.9393 170.7916 306.0117 170.7591 294.0383 169.6231 276.9005 161.523 272.4574 161.4509 267.7113 161.8187 260.2243 159.9037 245.7119 154.6599 238.9174 153.4301 234.6185 154.1803 230.6947 155.3416 227.8961 155.4786 226.2732 153.7764 220.8851 151.6702 215.4683 151.4286 213.8958 152.698 212.0638 164.2351 210.2317 168.3969 202.7952 168.2021 200.1409 170.1713 194.284 175.7432 193.1516 181.1132 183.003 180.071 178.1848 179.1694 173.9292 179.8546 169.2408 182.8119 156.1133 182.6388 145.7196 180.8716 141.262 174.2285 136.5015 171.5994 130.5076 169.248 128.4086 168.7251 125.0979 165.1042 118.8227 160.6178 108.6813 154.4904 100.7832 154.7934 97.862 153.1669 96.5709 150.9128 93.2746 147.0215 89.5599 144.313 85.0591 143.2636 78.6108 139.8158 69.9841 132.3 62.0788 127.1031 54.4476 127.186 49.6077 124.4631 44.6813 120.8964 41.0532 117.445 35.4199 109.0528 31.323 104.2634 28.1277 101.3025 24.5213 98.8357 23.2157 96.881 27.6228 92.4126 29.2241 90.2019 31.1211 88.5033 32.2246 86.7036 32.1886 85.3476 28.171 80.9369 22.7469 77.756 14.7911 74.5247 9.7204 70.4494 7.8523 66.7167 7.2969 64.6646 3.813 61.8877 1 57.816 1.0072 55.3636 1.6997 54.682 4.3324 54.6856 7.2824 56.3518 11.4443 59.5651 14.856 64.2499 16.9477 62.4575 20.8571 57.4698 27.8031 51.8149 34.9223 48.5943 41.3129 48.3238 46.5494 47.433 50.906 45.8209 58.5012 46.4665 63.9974 47.6314 65.779 46.9101 68.015 43.9672 69.4432 41.4319 81.6113 39.946 85.7876 35.0521 88.139 35.0773 90.8366 34.3452 93.4188 32.4915 95.9001 31.7305 97.862 32.6466 100.4442 33.2561 103.1346 32.084 107.1233 26.4796 109.3521 25.6068 120.0344 24.7304 134.5973 21.4233 141.9761 18.4805 149.2178 16.8828 156.9933 14.0409 169.349 11.2712 169.9405 10.1387 164.2062 7.2933 162.2804 5.4972 160.9893 3.6543 163.0089 1.6131 165.7065 1 169.2192 1.8511 179.5625 3.0629 182.3971 4.2386 183.4286 7.1201 186.0541 9.8033 188.1674 10.0882 187.4101 14.4593 190.7064 16.1543 195.5174 17.4779 198.7055 17.211 200.992 15.4366 201.8719 14.2068 208.2554 14.0301 214.6893 12.1692 215.2086 9.165 214.8047 3.5389 215.4899 2.7311 225.2562 4.3179 235.0513 6.8533 236.4145 12.4324 239.04 15.1842 242.1271 17.6942 245.0988 18.8375 250.22 19.0178 263.5134 22.3394 269.9112 23.0174 276.4605 25.3075 281.9784 27.6553 286.0104 28.1457 287.8785 30.7171 290.3453 32.4771 294.7164 31.1247 310.6569 29.2277 316.3983 31.7558 320.2789 34.4318 320.8126 35.2829 318.7858 37.6451 317.812 39.4736 316.1531 40.6854 310.6785 41.9765 307.5914 44.0682 305.3482 46.3547 306.8557 48.5438 311.3277 50.1847 314.4941 50.5526 315.6987 52.1539 325.8256 59.3054 333.8824 68.6461 337.02 70.1068 339.9701 70.453 343.3818 69.0789 347.32 66.0531 351.9867 63.8604 355.9394 62.7352 362.9071 60.153 363.1812 58.4688 357.3748 52.1539 354.0064 47.0363 354.8142 46.1095 362.2507 46.9173 374.8949 49.7087 394.3409 58.833 397.8175 58.833 404.6337 58.1478 412.0269 56.6583 415.5396 54.9633 416.8595 55.5944 417.992 60.6074 416.0589 63.3555 407.2015 66.0207 407.7136 67.3478 409.9856 69.0537 413.9744 70.2077 418.8142 73.4571 422.1466 77.1646 425.0678 78.8849 428.2848 79.6999 436.3344 77.72 438.6136 76.1548 439.6234 75.0476 441.1886 75.2928 444.0089 77.1141 444.86 78.1852 452.6932 80.2553 457.2013 82.8015 460.0792 83.9988 463.2673 82.8339 475.6591 84.8607 479.0708 86.563 480.1599 89.3868 479.5468 91.0999 481.451 95.5394 497.1319 106.1821 498.7836 111.617 499 113.7845 Z"/>
</g>
</svg>