<?xml version="1.0"?>
<svg xmlns="http://www.w3.org/2000/svg" version="1.2" baseProfile="tiny" width="406" height="400" viewBox="0 0 406 400" stroke-linecap="round" stroke-linejoin="round">
<g id="ne_50m_admin_0_countries-democratic republic of the congo">
<path d="M 394.1556 287.4391 390.4813 287.9983 385.1709 288.8082 379.3136 289.7008 373.2659 290.6225 367.2761 291.5379 361.5887 292.4058 356.4273 293.1928 354.8553 293.6277 355.6258 295.8501 355.2716 298.1905 354.2485 299.9986 352.6371 302.2293 351.8998 303.1116 350.2553 304.8514 348.8821 306.0733 346.0778 308.1341 344.3049 309.3085 344.2945 310.3731 347.2707 315.3583 348.6211 318.9373 349.17 322.1704 349.1451 324.0261 349.0312 327.8454 348.8966 332.3874 348.6895 334.1769 349.4972 337.4182 349.3564 339.943 347.3495 342.766 346.7923 345.5413 345.7816 349.2818 344.3794 354.4742 343.3832 357.202 343.9383 358.9769 344.4395 360.1679 344.9656 361.7689 346.0405 364.1818 347.2935 365.6046 347.9936 366.2177 352.1255 369.254 353.8343 370.7225 356.4522 373.6345 358.3804 375.5648 361.0709 376.0184 364.306 376.7516 366.0831 377.3129 367.3133 377.0416 367.7234 376.356 367.6675 374.9021 367.45 373.8271 367.7939 373.007 368.8874 372.4602 371.6918 372.3732 372.9138 371.6462 373.8789 371.4639 373.8831 374.6597 373.8872 377.723 373.8893 381.4407 373.8934 385.7073 373.8996 389.2076 373.9038 392.9274 373.9079 397.2167 373.8831 397.7055 373.4564 398.6665 372.3421 399 370.8385 398.1633 370.7515 397.2851 370.3828 395.7069 369.6807 394.9012 368.7694 394.6547 367.2264 395.0586 365.1138 396.2226 362.3964 397.2395 361.2966 397.8236 359.3829 397.7552 357.3179 397.1981 355.7915 395.8891 355.3545 393.9277 354.0207 391.9084 352.2042 388.9922 351.2909 387.795 350.0792 386.4343 348.8593 386.281 347.4903 385.8999 346.6494 383.9075 345.8686 381.3869 345.3819 380.4134 344.5637 379.1542 343.3935 378.3899 340.8398 377.3833 337.2671 375.9749 332.783 374.2082 330.6497 374.1233 328.2637 373.8251 326.7684 372.9821 325.9109 372.309 324.9271 369.8567 323.5829 366.9902 319.6477 363.5749 318.7633 359.7909 317.9742 359.242 316.6217 359.5506 315.5758 360.0208 315.1637 361.0357 314.1074 364.4469 313.5295 366.0209 313.1318 366.4559 312.2744 366.9695 310.866 367.4293 308.8653 367.6572 306.0381 367.5743 302.5027 367.0607 300.5931 366.6796 295.4338 366.1141 293.9405 365.8366 291.8321 365.0972 290.3118 364.3516 285.3058 362.7402 283.0379 362.937 281.9361 361.7999 280.9481 361.2428 279.5915 360.172 278.9826 358.6973 278.1748 355.5471 278.3695 353.8612 278.9536 351.9826 278.3053 351.4628 277.3982 351.4628 276.1016 352.111 273.7923 352.4735 269.5692 353.302 268.0738 353.77 266.4148 354.1221 265.1452 354.4432 261.9701 356.2575 260.8682 356.4522 258.9876 355.8039 258.0805 354.8325 258.9876 353.7307 259.377 352.3699 258.7287 349.7126 257.7574 348.4803 254.9427 347.5939 253.8677 347.5089 253.4141 346.0177 252.6354 344.6569 251.0302 344.3939 250.2618 344.2386 249.4603 344.6569 249.0067 345.7588 248.8762 346.6018 247.4492 347.248 244.533 347.1196 241.6396 346.5044 239.6037 346.3077 238.2512 346.4589 233.0878 348.5445 231.3812 348.822 225.8346 348.6605 222.6906 348.2256 220.4537 348.1427 218.8651 348.7972 216.8893 350.3402 215.2344 351.1707 214.4681 351.0755 213.9979 350.4293 213.3517 349.5449 213.1508 347.2273 212.3286 344.6735 212.8712 343.3418 214.5033 342.3766 215.0666 340.4111 214.5613 337.4472 214.5281 335.3637 214.9693 334.1624 214.3769 331.2441 212.749 326.6109 210.4459 322.8394 207.4655 319.9294 205.5145 317.1437 204.5928 314.4822 204.9387 308.1134 205.8376 302.4944 206.548 298.0372 206.3471 290.5666 204.3318 285.7056 203.8907 280.478 205.0257 274.8838 205.1955 271.0521 204.4416 269.0928 203.9238 268.7966 203.2755 268.6019 198.1805 268.4155 191.3829 268.167 185.4574 268.0924 179.0285 268.0137 177.9805 267.3075 177.502 266.0006 177.5248 264.7061 178.8359 260.7481 178.6515 260.425 176.365 260.338 170.1681 260.9842 166.0837 261.6242 163.4907 261.8334 158.9341 262.9104 156.1194 265.1866 155.1895 268.051 155.2661 270.4101 155.1066 272.1374 153.8225 273.9435 152.8118 276.0167 152.7745 277.1082 152.1573 282.6237 147.9549 283.3631 143.7504 283.3631 142.7729 283.2927 137.5784 281.9754 135.6543 281.9733 133.9994 282.6651 130.8223 283.3382 127.7818 283.8374 124.7206 285.4695 123.9067 285.6144 121.8769 284.7673 119.0291 284.846 116.1564 285.2561 114.8039 285.4322 113.8802 284.9413 111.2353 280.828 107.7081 275.3436 105.8006 271.9075 105.0902 271.0107 103.8641 269.8239 102.1885 267.5829 101.4947 265.4538 101.7867 263.4406 100.8029 260.7233 98.5474 257.2996 97.0603 254.0313 96.3478 250.9184 96.1697 248.2528 96.526 246.0346 96.091 244.3984 94.867 243.3442 94.198 242.0083 93.7133 241.4511 92.6943 240.1898 90.4533 238.798 87.9887 238.0648 82.5788 238.0503 75.512 238.0275 69.108 238.1331 61.9894 238.2533 54.7797 238.3713 52.839 238.5577 47.3401 238.6385 42.9327 238.2843 41.2985 238.0544 38.43 237.8867 33.8921 237.8432 31.4419 237.9819 25.5557 237.984 25.0254 238.0171 24.0955 238.4086 21.5873 237.866 19.1226 238.0482 17.7474 237.4393 14.7256 237.8204 13.2571 238.3216 10.9043 240.0842 7.3812 241.0038 6.0743 240.9251 5.2003 240.6247 3.1499 238.6944 1.5675 236.8283 1 235.7969 1.8823 235.538 4.6556 235.1403 6.7454 234.9498 7.1513 234.463 7.4744 228.7114 7.5469 222.8646 6.8055 222.0962 6.0806 221.6281 6.0433 221.2221 7.1306 220.4889 8.6322 219.6335 9.1127 219.2483 10.78 217.6991 14.0649 214.1201 16.5627 213.244 18.8927 212.3058 19.22 211.9599 19.5307 211.264 20.5745 211.3137 20.908 211.6534 21.4196 212.4073 22.335 213.4677 23.9816 214.727 25.6468 216.0877 26.4773 216.2576 27.8236 215.5699 29.3769 214.5468 31.6656 213.7991 32.2124 213.1032 32.5106 211.6119 32.6846 210.0192 32.8855 208.1365 33.3515 207.8818 34.1779 207.6995 35.694 208.2297 36.3899 208.7765 37.6326 208.7765 38.4279 208.2795 39.8798 207.3516 41.7252 206.9808 43.7011 206.0923 45.592 204.947 46.4847 204.8475 47.4312 206.3388 48.2763 207.3847 48.4254 208.0309 47.5804 209.2736 46.6359 210.916 47.4312 212.9541 47.6218 214.9341 47.5969 216.1271 48.2369 216.6117 48.676 216.8416 49.3615 216.5599 50.7119 216.6469 52.3316 217.2683 53.8995 217.1979 55.4135 216.4336 58.2302 213.4615 62.3477 208.2753 65.761 205.0215 68.4638 203.6918 70.2947 202.1405 71.2495 200.3635 72.8216 199.1539 76.0981 198.1908 78.598 197.1035 81.0917 193.539 84.4159 187.1329 85.3459 181.4124 85.9133 177.9308 85.584 165.9367 85.3666 161.9994 85.8699 159.8516 87.1126 158.3749 90.4989 155.2495 92.771 152.6896 94.5045 149.6947 97.8474 142.8536 99.3117 140.6499 99.9641 139.662 101.9752 137.8394 104.794 136.2384 108.4248 134.8631 114.0252 130.0994 118.4782 125.3068 117.8693 119.549 118.909 114.7739 121.3384 108.6971 122.1338 102.2672 121.297 95.4894 121.6512 89.95 123.9688 83.5015 124.9464 81.1103 125.2654 77.1969 125.2509 70.9637 128.2085 62.4451 131.0045 57.3448 134.132 51.6398 135.3229 48.1913 136.9156 43.5882 136.665 39.8901 136.3751 35.6422 137.16 29.7974 136.868 26.3551 135.7558 23.3654 136.3212 21.4848 138.5643 20.7133 141.3603 17.7267 146.3829 9.9226 151.7886 6.1189 155.554 4.9155 159.4788 5.045 162.0346 5.7253 163.2214 6.9556 166.1873 8.7917 170.9385 11.2326 174.4844 14.2751 176.4561 17.3425 177.9743 19.0149 179.8694 19.5886 182.9554 19.3411 186.408 20.066 190.0098 21.783 192.2197 22.4189 193.0378 21.9757 194.7734 22.2242 198.748 23.6357 201.9169 22.86 206.608 23.4431 217.5085 25.9657 218.0926 25.538 218.3494 25.4397 219.2794 24.4238 221.6446 19.3784 223.6495 16.2779 224.5836 15.1129 226.8909 13.4756 229.6124 13.0521 232.222 13.1991 234.405 13.9189 236.3996 14.7556 238.6116 14.7639 240.8691 13.9551 244.2244 12.4804 247.7578 11.5142 250.7962 10.4559 255.8022 8.598 257.7553 7.7437 260.2427 7.4082 267.2081 9.1024 271.7232 7.9808 273.5644 8.3102 277.4686 7.0985 278.1852 6.2897 280.6685 2.192 283.3175 1 287.3211 1.6027 289.5703 2.2386 297.07 3.9897 306.8065 5.8123 309.6689 6.094 310.8246 6.296 311.8436 6.0143 315.0352 3.7091 316.1226 3.3829 317.036 3.4233 323.1521 5.3039 323.9143 6.7879 325.012 8.307 328.6842 10.8856 329.8523 12.321 330.747 13.9137 331.3125 15.1553 332.4475 16.1505 334.0381 16.7833 335.3968 17.5434 336.2273 18.6608 337.4742 19.8185 339.8809 21.3999 341.0511 21.4361 342.4035 21.6588 343.5944 22.0699 344.8744 21.9529 346.9373 20.9204 349.3709 19.1889 351.2267 18.1181 355.7294 18.4982 358.2334 19.3701 360.2279 20.5952 361.7854 20.5165 365.178 18.2579 366.9757 15.8523 368.7238 15.3386 371.3707 16.3804 373.5558 18.6276 375.4716 21.8897 376.8241 23.1334 378.6778 25.0606 382.3582 29.2112 387.1468 31.2907 389.0046 32.3128 389.6114 33.3411 389.9635 34.704 390.0878 36.1921 390.6677 36.7979 391.9601 36.5877 393.0682 36.3764 394.284 36.7979 395.1269 37.8811 395.5495 38.7251 396.0092 39.6292 397.2126 40.2029 397.4487 41.3638 396.6244 42.7804 395.7814 44.0428 394.7521 46.5717 394.2156 49.1503 394.9053 50.0077 395.6447 50.7244 396.0382 51.4472 396.2681 52.2922 396.1812 53.2812 394.5449 56.8664 393.704 59.999 393.6771 61.5876 395.8291 62.7526 398.6251 62.6926 399.5095 63.4112 400.3939 64.5535 401.1747 65.1355 402.3511 65.1189 403.1734 65.5176 403.4923 66.3192 404.4451 67.187 405.2445 68.1428 404.8634 69.3689 404.793 70.2999 402.8006 72.8992 398.215 77.9725 388.3646 87.3839 388.3584 87.389 385.0342 88.524 383.3172 90.2742 382.1035 93.0164 379.2287 95.3485 377.0126 96.2878 376.7744 96.847 376.6087 99.3697 376.8345 103.0791 375.7947 104.7775 374.2932 108.0716 373.5123 110.1345 372.9158 110.5405 372.2365 111.5771 371.816 114.9396 371.5302 116.0715 370.4449 123.0306 370.7556 125.0147 369.9147 128.3245 369.8774 130.2713 369.5295 132.4771 368.933 134.3909 368.9786 137.4458 369.3162 142.4373 369.252 143.098 368.4214 143.562 366.9405 144.7985 365.5404 145.6331 364.4738 145.8485 362.703 148.0543 361.1848 150.14 360.0539 152.178 359.7598 153.1162 359.998 155.7528 360.1554 158.8761 359.8054 160.2182 359.2731 161.026 356.7939 162.714 355.1639 163.9339 354.3935 164.5697 353.9958 165.5535 354.7124 167.8629 354.7663 169.5488 355.3566 170.545 357.32 171.3548 357.3159 172.1626 357.3676 173.0387 358.3887 174.124 360.2652 176.3401 361.7751 178.4237 361.8103 180.2298 361.5182 183.2536 361.4706 184.9934 361.6218 187.3773 361.6135 191.8158 361.5079 194.9723 361.7502 196.6064 364.043 200.5209 365.0579 204.8538 365.5674 208.0268 365.5881 209.0313 364.8114 212.6827 363.9229 216.2203 363.8752 217.5603 364.2853 219.3477 365.9257 223.4424 367.1207 226.4207 367.6986 228.2102 368.5188 230.3062 369.6165 233.5082 369.8899 235.0326 369.6641 236.1635 367.4252 240.1815 367.1974 241.4449 367.7524 244.5641 368.4856 247.5714 369.5419 249.2801 372.0667 253.9982 373.9431 255.5889 377.4144 257.9479 380.4776 260.3215 381.6561 261.5517 382.7352 262.927 384.8664 266.4438 386.1671 269.3061 386.8506 271.893 388.5241 275.4243 390.0774 278.7071 392.0906 282.7148 393.5135 285.5461 394.1556 287.4391 Z"/>
</g>
</svg>