<?xml version="1.0"?>
<svg xmlns="http://www.w3.org/2000/svg" version="1.2" baseProfile="tiny" width="500" height="223" viewBox="0 0 500 223" stroke-linecap="round" stroke-linejoin="round">
<g id="ne_50m_admin_0_countries-Denmark">
<path d="M 316.6865 139.5513 316.8598 146.6567 315.0159 148.7259 312.3055 150.0881 305.2139 151.5334 299.0721 153.5506 293.5958 157.0964 291.5786 162.1637 295.8626 165.8724 303.6542 167.9035 305.6368 174.9638 299.2038 178.4472 282.6986 181.9236 280.9656 190.3149 281.4993 196.9281 281.2013 201.7355 279.8911 208.3868 266.5399 211.4196 257.9234 201.2883 257.8471 197.2331 255.2753 192.4985 254.7901 188.464 251.7399 182.0102 239.1097 180.2634 234.2087 180.0346 227.3529 181.2339 225.6546 180.7659 217.447 171.9518 218.7987 162.2261 214.4177 157.3182 213.8146 155.0965 213.9186 152.6356 210.3208 150.608 205.9536 149.5335 203.8324 144.0606 208.8512 142.7331 221.2596 143.3743 224.8851 143 228.2056 141.8597 238.2432 132.8619 237.9521 130.8793 239.0265 128.3075 249.8891 127.3543 254.7277 130.8308 253.7572 136.3972 254.3741 143.5303 260.9527 145.4713 263.5175 145.7555 266.2557 140.4871 268.1759 137.9257 270.7823 136.4977 271.6697 131.6834 270.1238 128.7442 266.8311 126.5537 279.1286 120.5921 291.8558 115.8714 299.2593 115.6253 306.7113 116.7795 313.6364 118.3738 317.3936 119.7464 319.5009 121.9508 314.8565 127.2053 313.5671 130.0821 316.6865 139.5513 Z M 115.8714 207.6624 114.8246 207.6624 110.298 207.035 107.0746 205.5412 98.763 206.6052 87.637 209.028 81.4606 208.9067 76.5526 206.3037 56.4704 202.595 53.2262 202.297 39.986 202.141 39.9582 202.134 39.3274 196.2764 37.6845 192.0444 33.047 185.7466 39.9236 184.2285 38.5926 171.9553 36.0971 165.5916 16.8883 159.0547 1.7556 152.7014 5.2494 131.3091 6.7398 125.5451 1 114.3636 1.5962 101.4942 4.0155 81.2145 8.8263 80.4207 12.3547 80.5178 25.9624 84.1571 31.6259 84.5211 35.5079 87.7722 40.0553 89.1101 43.348 85.6579 44.6305 79.7553 55.4168 72.1161 62.9727 69.2948 68.1232 67.943 73.3223 71.0243 77.3013 74.4869 78.2441 66.9101 81.4536 52.4776 71.2011 50.2108 62.8479 52.1656 54.5641 61.3125 47.1745 72.8093 35.189 73.8665 25.6227 77.1211 16.9854 73.7452 11.4189 70.7713 11.2803 66.418 12.5419 63.7907 22.6905 54.4151 36.2842 45.4103 49.982 45.497 59.9711 42.6202 65.9396 42.277 84.5731 42.9078 94.1393 40.9357 102.7073 36.8076 121.2229 19.3492 131.6695 12.0705 152.7361 9.5091 172.2014 1.1074 177.643 1 168.4858 7.2631 167.0162 9.6859 165.907 13.4015 172.4717 21.4704 171.0853 26.3818 171.5497 36.0451 165.3594 41.0812 158.3719 51.7948 155.3634 53.3718 154.7187 65.8773 155.405 68.8615 154.4137 80.2474 161.5745 84.9093 169.1443 87.3459 194.3909 87.2592 197.0112 89.3077 200.0891 92.8291 197.8362 98.8081 195.1396 103.3174 187.8263 107.1161 178.4402 109.9479 172.6034 110.0727 164.6523 104.6899 160.8744 106.4368 156.9716 109.1819 150.4347 123.9126 147.336 133.8635 145.6585 134.6711 141.9637 133.205 135.5792 133.0906 127.5103 135.451 131.6487 137.5618 136.0229 141.2289 134.276 143.0659 127.1776 145.0519 120.8832 149.069 118.2491 152.1088 110.3118 155.7065 105.3207 160.2678 107.7678 165.9209 108.8076 170.8843 110.9912 176.3675 109.0225 180.7451 99.1928 187.0256 95.5673 192.4707 103.9898 192.4014 109.175 193.6596 112.2112 195.2678 115.3445 197.5485 113.4243 200.3664 115.8714 207.6624 Z M 180.1386 151.9909 183.0986 155.6961 186.7379 163.5952 192.4985 172.4301 190.093 176.1284 191.729 180.8665 190.0861 185.809 178.6274 191.5557 165.7753 191.8157 152.4172 189.0394 133.5481 183.6947 132.03 180.6932 129.382 179.0295 124.3354 169.9207 124.4533 158.6873 133.9363 157.2801 154.6563 151.9181 159.4464 152.7604 164.4444 155.502 170.198 155.6649 178.5511 151.776 180.1386 151.9909 Z M 230.9853 202.9694 243.5462 207.3747 252.045 207.1217 257.8263 208.9483 259.2058 211.7696 259.698 218.0328 253.6255 219.8594 246.9222 219.2389 237.7996 221.6236 207.853 211.3849 208.2897 202.8481 209.489 199.4964 223.6789 198.6992 230.9853 202.9694 Z M 186.4537 212.9723 183.3065 213.3744 179.0295 207.6242 178.4749 205.8254 183.5006 202.1444 186.7518 197.9748 195.1604 191.573 200.0059 184.0725 201.8568 184.1904 199.7078 190.8694 188.665 209.4994 186.4537 212.9723 Z M 315.3001 197.7079 312.5897 198.7651 301.6925 197.9887 289.4088 202.9104 284.7505 201.3542 286.5112 198.2105 287.7937 197.0667 291.9252 195.7323 294.6841 193.7809 295.7655 190.7273 298.3235 192.3737 305.928 193.0634 309.6435 194.0374 312.7491 195.4689 315.3001 197.7079 Z M 323.5701 152.9337 316.8876 155.9526 315.418 155.7932 313.2482 151.6512 316.7697 149.1314 318.8493 146.9929 320.3259 147.0553 322.3431 149.3671 323.5701 152.9337 Z M 168.7284 206.0992 163.9661 206.8375 158.5175 205.2916 149.6513 199.4687 148.5353 197.9228 153.1936 198.9106 158.975 201.9538 163.7096 202.602 170.1841 205.1772 168.7284 206.0992 Z M 138.6917 203.3437 131.3021 204.3315 127.5242 202.6158 120.5921 201.9503 118.1035 191.0254 118.8175 190.3773 122.3043 191.1432 134.2621 196.2383 138.4422 201.8152 138.6917 203.3437 Z M 177.4559 139.6934 176.2497 140.9689 171.7508 139.6414 171.2794 135.0489 172.9847 130.9243 170.9813 127.2365 173.1857 124.8657 179.5147 130.3871 181.317 132.9832 178.8769 136.0853 177.4559 139.6934 Z M 209.0315 35.3831 206.1408 37.0468 196.3735 34.6933 200.6852 31.4041 211.4161 29.8894 217.7173 30.3885 210.7853 33.6535 209.0315 35.3831 Z M 495.4924 193.7254 492.872 194.9282 481.143 192.9387 466.8491 188.0204 468.9425 178.3813 472.6096 174.2151 498.6811 185.0188 499 189.0914 495.4924 193.7254 Z"/>
</g>
</svg>