<?xml version="1.0"?>
<svg xmlns="http://www.w3.org/2000/svg" version="1.2" baseProfile="tiny" width="500" height="537" viewBox="0 0 500 537" stroke-linecap="round" stroke-linejoin="round">
<g id="ne_50m_admin_0_countries-Djibouti">
<path d="M 449.4247 366.9174 423.2033 407.5059 389.68 459.387 351.5747 518.4222 327.7774 518.836 309.2716 515.4069 296.6191 505.3854 270.516 494.5066 241.0723 493.7675 213.0476 503.9664 165.5121 516.6337 122.5586 520.7576 88.0303 527.7933 59.3552 536.0706 33.5477 531.592 11.1693 524.1276 6.262 461.3677 1 393.2275 1.5617 339.883 9.4843 310.5428 16.4313 299.1171 56.9903 258.5286 71.0026 242.0331 117.3853 174.898 157.1165 117.3409 186.8262 74.3135 195.9313 65.8441 208.4655 57.685 217.3636 60.0204 275.0981 101.5105 285.2674 100.3724 304.5713 87.4982 322.0719 43.1553 334.3697 26.9701 339.6317 27.4284 376.6728 15.0123 410.2847 1 414.5712 15.574 465.3585 75.0822 481.9723 104.3928 499 158.0033 490.0723 187.8756 476.8877 207.3274 457.3177 224.7246 389.5027 267.2494 314.1198 294.3872 265.993 348.6629 230.1935 345.012 235.6329 365.5575 248.9653 367.8338 269.836 363.9612 311.3114 348.1751 348.1751 340.6368 387.9063 340.0752 423.9127 346.8744 449.4247 366.9174 Z"/>
</g>
</svg>