<?xml version="1.0"?>
<svg xmlns="http://www.w3.org/2000/svg" version="1.2" baseProfile="tiny" width="500" height="312" viewBox="0 0 500 312" stroke-linecap="round" stroke-linejoin="round">
<g id="ne_50m_admin_0_countries-Dominican Republic">
<path d="M 32.5675 256.0106 33.1852 233.5953 36.7915 224.5029 33.4375 214.9125 18.3877 204.7243 9.1625 191.6137 1 180.0109 2.8397 178.3173 19.2113 177.7992 24.9629 173.5353 35.9813 161.6469 38.1796 152.083 37.283 144.8503 30.1101 136.1963 27.2874 127.084 36.1407 119.1274 47.7037 107.5312 49.2977 103.0747 49.0386 98.6646 35.5363 86.4375 34.6264 81.184 40.916 67.9207 40.2983 59.1339 34.0486 31.7107 31.0798 27.6328 37.0838 25.3282 41.0355 17.159 46.2957 9.8865 53.2893 5.9679 61.206 3.5304 76.9931 3.7164 98.8041 10.0591 104.9808 9.9529 125.9284 4.1946 143.3094 1 159.6677 4.633 166.2827 9.5809 179.7917 17.418 186.5595 19.8156 207.8923 19.6363 213.7303 20.4134 231.6426 33.3578 246.7257 38.5316 255.486 38.7907 271.18 33.7829 278.964 33.929 287.8903 45.1002 289.6437 60.9404 297.1088 75.3792 308.539 84.6177 364.9129 80.739 377.492 88.3436 373.1684 94.6199 365.2117 97.9673 338.4195 96.4796 326.6905 97.2301 324.3394 103.4864 324.2862 109.2912 339.967 110.6793 355.349 113.6082 370.9966 118.2573 386.9364 121.4453 404.8554 123.5241 422.5287 126.8848 451.9908 138.2685 484.5479 164.1574 493.255 170.0485 499 178.1579 496.2637 188.1468 484.6276 204.5184 478.0458 209.7851 468.4487 212.9864 461.8602 219.6811 455.5175 231.1379 451.6322 232.1009 447.0627 231.6294 439.2456 225.1405 433.66 215.1848 417.9593 205.84 399.2831 207.0355 371.7736 201.5097 355.1165 204.1929 338.4594 204.7973 321.4171 201.9813 304.2884 201.005 287.1863 204.5184 270.6022 210.5157 264.4787 214.3214 253.8322 223.6462 248.1868 227.0931 207.8126 231.7821 196.1832 224.9413 185.4039 215.6032 169.8758 214.328 147.3674 221.5541 133.2873 224.1775 127.5556 227.2857 125.8885 230.8191 125.8354 243.8765 122.6541 251.8132 100.7169 281.7933 88.337 302.9401 83.2495 309.4755 77.365 310.9034 66.5658 298.7427 59.6718 294.3393 51.144 292.1276 47.531 285.6654 47.6771 276.48 45.4323 267.5803 40.1655 260.5933 32.5675 256.0106 Z"/>
</g>
</svg>