<?xml version="1.0"?>
<svg xmlns="http://www.w3.org/2000/svg" version="1.2" baseProfile="tiny" width="500" height="212" viewBox="0 0 500 212" stroke-linecap="round" stroke-linejoin="round">
<g id="ne_50m_admin_0_countries-East Timor">
<path d="M 246.9267 1 236.7518 27.2576 225.6968 21.6481 237.453 6.908 243.1074 2.5367 246.9267 1 Z M 158.6354 210.5986 153.354 190.7264 147.7593 182.1926 143.3731 177.3439 141.8961 171.3017 142.1348 165.0506 144.7904 162.1712 163.5736 161.3954 171.0481 151.1758 170.9884 138.8974 167.2288 134.7499 163.5587 133.0043 144.134 142.2094 138.5691 140.5534 135.2422 137.2115 136.3462 123.6053 152.3395 110.8643 165.901 87.7845 175.4194 78.5943 197.5892 69.9561 206.5555 67.5243 271.0956 54.8132 286.4922 53.9479 327.4004 54.3209 382.1237 51.546 395.6702 49.8153 413.2151 44.2058 430.193 37.2684 439.2042 31.808 448.6331 27.8544 462.7018 32.8225 486.5873 36.597 493.0324 39.8941 499 44.4743 471.2654 68.7775 440.8155 88.8885 422.0621 94.9755 402.6524 99.0932 387.8526 106.866 375.3802 119.0549 359.4317 125.9177 341.4392 128.2302 326.0875 131.8854 312.153 139.0466 292.7582 151.325 284.9107 152.5782 276.6008 152.2798 260.5329 156.9793 210.5539 174.5242 180.3427 194.0384 158.6354 210.5986 Z M 1 184.5797 25.721 171.5255 63.347 161.47 62.4071 168.84 58.543 180.4173 52.8439 185.8478 44.2356 195.6049 38.5812 197.7682 16.0086 195.6198 13.0994 197.0371 9.2204 196.0077 3.4617 189.7417 1 184.5797 Z"/>
</g>
</svg>