<?xml version="1.0"?>
<svg xmlns="http://www.w3.org/2000/svg" version="1.2" baseProfile="tiny" width="500" height="198" viewBox="0 0 500 198" stroke-linecap="round" stroke-linejoin="round">
<g id="ne_50m_admin_0_countries-Ecuador">
<path d="M 497.9416 48.4157 496.2414 49.4978 494.4834 49.6134 492.1281 49.9514 488.8566 48.9108 487.5656 48.9108 487.3906 49.9662 489.5592 51.2558 491.67 52.7203 492.4319 54.9497 493.6845 57.5941 496.7039 60.5587 498.5864 62.041 498.7035 63.0964 498.1166 65.0323 497.9683 66.648 499 74.0773 498.3078 74.5308 497.1916 74.5694 496.0072 74.5308 495.0378 73.7245 494.1899 73.2412 493.8149 74.3915 492.9419 77.7 490.9778 85.1411 489.2569 91.6662 487.0986 93.9756 483.9754 97.6428 479.6975 102.6619 473.4941 109.937 468.9064 113.3018 465.2866 115.9551 461.0606 119.0205 455.6043 122.9753 449.4824 125.2017 440.9607 128.2908 434.9321 130.4757 430.4867 132.0025 425.8575 133.5945 419.7371 135.6964 417.3729 137.6797 413.4433 142.5327 411.6126 144.8718 409.9406 146.8847 409.5967 147.8038 409.8146 148.3907 410.618 149.372 410.6936 150.3741 409.5893 151.0026 408.6347 151.1034 408.2078 150.5994 407.8936 149.4936 406.8782 148.367 405.6983 148.0409 405.0209 148.3166 404.9631 149.3453 403.4215 154.311 403.3637 156.7242 402.7115 157.6788 402.7619 159.837 401.2054 161.847 400.5251 163.6377 400.0507 165.1585 398.7952 166.2139 398.3491 167.8741 397.1884 171.3871 395.8336 174.1442 394.8805 176.504 394.7056 178.2679 395.4319 179.516 395.6839 180.521 395.0302 182.3265 394.6789 183.6842 392.9476 184.6033 389.3515 186.8 387.9522 188.3001 387.4008 190.0077 387.7521 191.4633 387.6009 192.6699 385.8948 193.1205 385.2915 194.1759 384.1368 196.0318 382.8324 196.684 379.4809 195.6997 377.0084 195.682 375.1007 194.7778 373.0225 192.1126 371.3119 189.8714 369.9112 186.969 369.4783 182.9787 367.6107 181.8077 365.7637 180.4202 363.564 180.8056 360.9448 181.0724 359.4921 180.1475 355.9168 178.4606 352.8618 176.5544 350.5539 175.5998 348.7959 176.0534 347.7419 177.2066 345.8846 179.264 343.1483 180.687 341.9135 180.6189 340.2623 179.6672 339.9614 178.5614 341.3162 176.8064 344.0777 172.9406 341.0153 172.8398 339.9614 171.6361 339.8102 170.2279 339.3077 168.7219 339.911 166.9165 341.5178 165.9619 343.9265 166.7149 345.5837 166.7653 346.688 165.0577 347.7923 164.3047 348.8966 163.7533 349.3488 162.8995 348.1851 160.1661 347.8427 158.6838 348.194 157.83 348.1436 156.1224 348.0932 154.8684 347.3906 153.7626 347.3402 152.1054 346.7384 151.2041 346.5368 150.2495 346.4864 149.1438 345.7334 148.5923 344.9345 148.0291 345.5882 147.6318 349.9372 146.0991 351.7441 144.5723 353.9809 143.179 355.9035 141.0415 357.1708 138.99 360.1725 129.4826 362.9903 123.4763 362.516 120.6095 360.1814 116.72 359.6552 110.9924 359.8716 109.2522 359.5825 107.9418 358.0261 110.3194 358.4234 118.7567 357.0493 122.5484 355.1238 123.4644 353.8742 122.7974 354.5887 116.637 353.179 117.7576 350.9304 121.9377 347.2424 125.0386 347.0408 126.0733 346.147 127.351 343.298 126.1741 341.1264 124.8993 333.9996 117.9444 329.3185 116.4917 326.4917 114.0667 325.9018 113.0439 325.5623 111.6416 328.4513 110.1831 331.4041 108.2235 331.7005 103.91 331.6234 100.5214 329.4415 94.7375 330.4613 87.1778 329.8966 84.2162 327.3959 77.9342 329.2473 74.771 335.8569 72.4645 337.9751 70.9229 339.4574 65.9394 340.9634 62.9541 343.9102 64.1577 346.2181 64.0184 343.1098 62.9096 340.5736 58.4183 340.1496 56.3608 345.0367 50.2152 347.5952 48.6144 350.7406 45.3652 353.3895 40.4647 354.0313 32.7301 352.9374 27.2011 352.1103 21.3579 353.6993 19.8459 357.7193 19.0677 360.9877 17.1837 362.6464 15.4376 366.533 15.6999 371.0199 13.0007 378.1943 11.6488 388.1938 8.5627 390.398 5.8397 389.4078 1 390.3432 1.6285 393.1284 3.9349 394.8123 6.2192 397.6657 7.6392 399.9766 8.788 406.0303 13.4246 410.0207 15.7785 414.3816 17.8982 420.6799 20.1246 424.5249 19.7466 425.4262 21.435 426.1718 23.2137 427.6081 24.2498 429.8909 25.1348 431.2486 25.4134 431.6652 25.8581 433.0289 32.2839 433.8308 33.2237 436.9777 34.2405 440.8317 34.6244 442.3985 34.4021 445.7885 36.1883 448.2876 37.0302 451.0432 37.6602 452.9139 37.8455 453.7766 37.5668 454.0894 36.9205 455.6221 37.0406 457.9137 37.8662 461.2044 38.0337 463.2485 37.2511 463.5316 35.9555 463.6709 33.6802 464.4358 32.8872 466.7778 31.5665 468.0052 31.8422 474.1582 34.6911 475.4255 35.6769 476.9834 37.6602 479.8695 40.5981 483.0001 42.4717 487.8368 43.2722 492.4927 46.3479 497.9416 48.4157 Z M 350.7955 135.4384 350.2159 136.6094 347.3313 136.5057 346.5042 136.1292 346.5279 134.7892 347.2068 130.5439 347.9999 128.7592 350.3671 127.0338 352.3385 126.2008 354.8733 126.352 357.5518 127.9232 354.3886 130.7751 352.6291 131.208 351.9546 131.5756 350.7955 135.4384 Z M 387.9033 7.1501 386.1912 7.3754 385.3997 5.9227 387.4779 4.2314 388.1894 3.9023 387.9033 7.1501 Z M 41.0502 68.6046 39.4641 68.658 34.7578 65.7171 35.075 62.8325 36.9561 60.8878 43.038 59.8946 45.5905 61.7208 45.3652 65.1805 43.2899 67.7063 41.6401 68.1688 41.0502 68.6046 Z M 68.8566 72.8381 65.2828 74.0921 64.048 73.5288 63.2787 72.9122 63.0979 72.1562 65.0753 70.2826 67.0037 69.2657 68.7276 67.1075 71.9072 65.8268 72.8351 66.1232 73.4547 66.5709 73.6993 67.2943 72.6216 69.0404 70.6947 70.2589 68.8566 72.8381 Z M 7.9268 59.1713 4.8792 59.699 2.3178 58.6584 1.2298 57.0457 1 54.6206 1.2268 53.8172 6.8892 52.9427 8.7346 54.9704 8.7168 57.9588 7.9268 59.1713 Z M 38.3465 85.8586 37.1177 85.9208 35.4441 84.6194 36.7293 82.2477 38.1019 82.8198 39.1113 83.5017 39.7057 84.4118 38.3465 85.8586 Z M 12.596 44.418 14.4815 46.3746 15.5087 51.9525 21.601 57.8372 22.3569 61.1249 21.8159 62.6547 22.1049 63.2535 25.031 65.5748 26.9402 68.0117 23.7266 73.7334 16.8799 76.1347 9.5795 76.0546 8.1373 75.438 6.1791 73.2501 5.8189 71.3172 6.9455 69.4525 10.7165 66.6213 16.4663 64.0895 17.1867 62.1537 14.8773 60.2682 13.2838 56.5239 9.6507 53.9002 7.8393 45.8914 6.6298 45.4941 4.1617 46.5984 2.9448 45.6305 2.7402 45.1176 5.4009 43.2914 5.9524 41.9885 9.8879 41.3615 11.5762 42.4065 12.596 44.418 Z M 33.7929 55.3203 32.3802 56.2393 26.6556 55.1809 24.8724 53.42 26.3117 51.0157 27.5257 50.0522 30.9513 50.9445 34.4184 53.6334 33.7929 55.3203 Z"/>
</g>
</svg>