<?xml version="1.0"?>
<svg xmlns="http://www.w3.org/2000/svg" version="1.2" baseProfile="tiny" width="500" height="397" viewBox="0 0 500 397" stroke-linecap="round" stroke-linejoin="round">
<g id="ne_50m_admin_0_countries-Egypt">
<path d="M 499 396.2782 485.571 396.2822 472.146 396.2842 458.713 396.2862 445.288 396.2881 431.859 396.2901 418.43 396.2921 405.001 396.2941 391.572 396.2961 378.147 396.2981 364.718 396.3001 351.289 396.3021 337.86 396.3041 324.435 396.3081 311.002 396.3081 297.577 396.3121 284.148 396.3141 276.4863 396.3141 277.7932 392.6791 278.6006 390.0952 277.7053 388.3067 275.0874 387.8591 273.3768 388.4246 269.3721 396.0503 267.2659 396.3541 262.4978 396.3541 246.8626 396.3521 231.2274 396.3481 215.5962 396.3441 199.957 396.3441 184.3218 396.3401 168.6906 396.3381 153.0554 396.3361 137.4162 396.3341 121.785 396.3301 106.1499 396.3281 90.5147 396.3261 74.8795 396.3241 59.2443 396.3221 43.6091 396.3181 27.9739 396.3161 12.3387 396.3141 12.3387 387.1237 12.3387 377.9332 12.3387 368.7427 12.3387 359.5522 12.3387 350.3618 12.3387 341.1713 12.3387 331.9788 12.3387 322.7884 12.3387 313.5979 12.3387 304.4074 12.3387 295.217 12.3387 286.0265 12.3387 276.836 12.3387 267.6455 12.3387 258.4551 12.3387 249.2646 12.3387 240.0741 12.3387 230.8837 12.3387 221.6932 12.3387 212.5027 12.3387 203.3123 12.3387 194.1218 12.3387 184.9293 12.3387 175.7388 12.3387 166.5484 12.3387 157.3579 12.3387 148.1674 12.3387 138.977 12.3387 129.7865 12.3387 120.596 12.3387 111.4055 12.3387 102.2151 11.987 100.4985 9.7129 94.2596 7.6585 86.3201 5.4044 76.5601 5.1126 73.3967 1.3437 63.3489 1 60.5033 1.9512 58.4769 8.1342 50.0078 9.9966 45.8952 11.5673 40.9633 12.0789 36.9505 10.2604 30.8156 8.1342 25.3001 7.4147 19.6547 7.119 14.1033 10.2804 10.3104 14.0733 6.7693 15.4881 4.5931 17.7303 2.1491 19.305 1 22.3745 5.9599 28.7892 6.8192 49.7041 2.3949 72.7892 6.8472 85.5307 8.5558 105.1507 12.3407 117.1009 19.1012 120.3782 19.9585 128.9672 19.8246 134.5985 23.8193 156.9962 25.7417 168.9504 30.1521 175.7368 33.6692 179.8015 34.7523 183.3986 34.5765 188.2666 33.2516 194.3896 30.7756 201.0641 27.3344 214.9048 18.4957 219.8007 16.9429 222.9981 17.3426 226.8909 17.2307 228.5136 14.8387 230.5599 13.194 231.8469 11.3235 233.9492 9.0774 241.1473 8.4479 255.5754 4.607 253.9648 6.4276 240.8195 10.74 246.4469 11.2776 252.2142 9.8028 258.7768 8.8656 259.9678 7.0331 260.8311 3.5959 262.0981 3.1143 266.6424 3.7577 280.1673 9.0514 283.5285 9.1533 293.0527 6.2657 295.0871 5.6482 298.1685 7.2569 305.1988 13.8475 302.7448 13.7076 295.219 8.0602 294.5515 10.8739 290.263 15.8318 295.6226 17.9761 299.9791 18.7814 302.3171 21.5452 303.7959 24.0072 308.0844 22.934 311.1659 19.5848 309.5672 17.7163 308.4801 15.7839 309.8869 15.7359 312.8725 17.3266 321.4375 23.6834 324.3231 24.9923 327.6484 24.7765 334.6027 22.988 336.5291 23.2658 345.8735 20.9237 346.9726 22.6403 348.5113 24.3469 356.0251 22.4464 367.8355 22.4684 377.4955 20.4001 388.6984 15.3682 389.5936 14.6029 390.1812 15.8438 391.5241 19.281 394.9293 28.0099 397.8948 34.8523 401.5359 44.3285 402.6749 47.9675 403.1625 50.4775 408.4382 60.8969 411.5676 69.4679 413.8618 76.4222 417.0831 86.5799 418.494 90.123 416.2118 91.9735 411.6236 98.5841 406.7436 119.5669 399.7573 135.9614 398.966 146.227 397.8429 149.93 394.5216 155.1297 390.4929 160.2315 383.3308 157.5897 371.6723 148.635 364.8739 140.126 357.5879 134.6305 350.6975 127.3505 348.823 122.1128 348.895 118.7535 345.8854 110.5482 343.6593 106.6694 335.2621 97.9446 332.8521 93.2884 331.0096 91.2421 329.1591 88.3045 326.1176 76.9817 322.7844 69.7976 318.9915 71.784 319.6629 74.8095 316.3536 78.9921 314.3553 83.8481 315.89 87.8129 322.7564 93.8479 324.1473 96.4838 325.7459 102.2031 325.4902 109.9767 326.5972 112.6166 331.737 118.3918 333.5795 121.819 334.6866 124.7766 336.3932 127.4524 341.493 132.4843 348.831 142.0604 355.7933 148.5151 360.8132 151.6306 362.9475 154.754 363.4271 162.8134 363.0594 166.6543 367.4638 173.8904 369.0944 177.5514 373.3669 180.5369 375.3173 183.9441 377.1079 189.4876 379.8096 205.8761 383.5106 209.8989 394.9612 231.4412 404.6133 245.078 409.2855 255.2537 416.4037 267.6435 430.3562 294.8453 438.6614 303.2424 441.9667 307.9565 447.9778 311.5895 454.4925 316.8372 448.2776 316.3237 446.7148 316.6414 444.5446 317.5387 443.4975 320.7221 443.0538 323.3239 443.8052 337.1066 445.5078 344.1229 450.9713 357.42 455.044 361.4087 457.0264 363.9886 459.7921 365.8731 472.7375 370.4094 480.3033 380.0115 497.2934 392.1475 498.96 395.4988 499 396.2782 Z"/>
</g>
</svg>