<?xml version="1.0"?>
<svg xmlns="http://www.w3.org/2000/svg" version="1.2" baseProfile="tiny" width="500" height="266" viewBox="0 0 500 266" stroke-linecap="round" stroke-linejoin="round">
<g id="ne_50m_admin_0_countries-El Salvador">
<path d="M 155.845 4.1431 161.1241 5.1094 195.9421 15.7491 206.2766 13.6842 219.4796 22.2387 225.7861 28.9419 231.3399 38.1575 258.8138 56.7108 263.4725 64.8177 284.0093 75.7524 292.2892 84.1238 301.0369 87.572 318.217 90.7761 332.9254 95.1906 334.6343 98.2625 336.0278 110.6924 339.1505 121.1694 346.1385 121.8509 354.6015 116.765 382.1568 102.7483 408.2372 93.4411 422.9355 99.0152 431.6323 110.6721 441.5702 115.88 462.1985 112.6861 480.8942 113.7236 495.6433 123.9157 499 129.8255 489.998 163.7281 486.7328 178.233 485.1359 190.5104 490.4354 193.7145 495.6026 198.485 494.4837 205.0967 478.4022 215.9703 473.3671 218.7574 477.0493 239.7214 465.0975 252.3751 454.1018 261.489 434.8161 263.9709 402.063 264.9576 352.8011 254.6434 316.4675 240.5758 296.8665 240.4843 303.0712 245.1328 318.5527 248.0928 338.8962 258.051 333.0373 260.8075 259.0783 240.1181 173.5438 199.5327 122.3798 193.0635 63.8514 182.4441 29.2165 156.8113 3.2276 145.6935 1 136.01 1.2441 125.2279 13.0332 110.7942 35.0042 91.3559 49.5804 81.3062 56.4057 79.3328 66.0383 80.3704 75.2743 74.7657 83.2388 61.3695 91.539 52.7438 112.5844 44.0063 117.3956 40.5479 115.758 33.0513 111.1909 18.5056 111.8825 9.5443 118.779 5.4146 127.0385 4.611 144.1271 1 151.5423 1.7222 155.845 4.1431 Z"/>
</g>
</svg>