<?xml version="1.0"?>
<svg xmlns="http://www.w3.org/2000/svg" version="1.2" baseProfile="tiny" width="415" height="400" viewBox="0 0 415 400" stroke-linecap="round" stroke-linejoin="round">
<g id="ne_50m_admin_0_countries-equatorial guinea">
<path d="M 43.8787 1 47.3929 1.5625 68.6726 1.0139 74.4509 8.5354 73.798 19.5988 51.9072 51.9072 47.8235 65.5265 39.3645 77.0483 32.0166 77.9789 6.7783 71.2145 2.514 67.1099 1 61.5747 3.4863 48.7056 5.3198 44.7677 17.432 42.3439 21.3351 40.2465 27.8079 26.3633 29.9331 13.7233 35.3641 4.1808 43.8787 1 Z M 412.6887 227.2767 412.8832 260.2101 413.0359 288.0459 413.2026 318.1735 413.3832 349.5721 413.536 376.1508 413.6332 393.3676 384.5196 393.2703 345.8634 393.1453 307.2212 393.0203 268.565 392.8884 249.1466 392.8189 227.7559 392.7564 220.8247 393.6523 216.116 397.9999 210.4349 399 203.8371 395.2844 195.8087 393.5065 193.6418 389.6728 189.6415 382.7 181.6824 381.9499 177.6821 382.7 171.9455 386.6864 165.5005 388.7769 166.7228 385.5822 153.9856 376.9981 144.8042 376.1647 136.359 373.5186 143.2069 351.1694 151.7632 331.4108 164.5698 316.4859 171.376 312.8883 173.5845 305.4849 183.7104 281.1494 196.2531 261.4047 192.3639 241.389 195.3642 207.7889 198.9756 208.7334 199.5729 211.9073 200.5035 216.616 205.2262 220.7553 220.8386 227.2281 267.3705 227.235 295.1368 227.2489 336.1959 227.2559 379.6719 227.2697 412.6887 227.2767 Z"/>
</g>
</svg>