<?xml version="1.0"?>
<svg xmlns="http://www.w3.org/2000/svg" version="1.2" baseProfile="tiny" width="500" height="421" viewBox="0 0 500 421" stroke-linecap="round" stroke-linejoin="round">
<g id="ne_50m_admin_0_countries-Eritrea">
<path d="M 8.2623 280.0196 5.8779 258.618 4.2786 244.3152 2.592 229.1582 1 214.8663 8.0733 206.0774 11.3664 197.7429 19.7918 170.6275 23.1648 165.2299 29.7874 150.709 30.7106 146.5144 37.2532 128.2097 36.6353 116.0514 35.3195 103.7586 38.8889 96.4854 42.0875 90.6625 41.8694 85.752 43.316 74.2879 44.341 71.4346 48.252 71.2565 56.2921 72.7358 62.195 71.5836 69.0138 71.5691 74.2697 71.2238 77.3884 67.7271 81.6483 54.3693 84.4253 51.6905 86.548 50.88 92.5599 48.4047 97.714 44.5155 101.9158 41.724 103.4715 41.1642 107.9132 40.8116 112.3476 39.1687 114.3976 37.2823 119.9951 35.7848 125.4764 36.628 129.1693 34.9851 131.6264 33.9201 134.4179 33.8365 136.9841 32.2881 138.0091 29.911 139.6883 28.3989 143.9701 24.9313 145.9329 22.4197 146.8125 19.8935 147.6776 17.8762 149.5604 14.485 157.0335 5.9542 163.4815 1 185.9808 44.0212 195.1186 69.45 203.166 95.9802 209.1197 135.8391 214.8045 156.132 223.9859 166.1386 230.2596 185.0866 235.639 185.8027 239.5428 191.0113 246.2089 208.7926 251.0286 215.4042 253.5512 209.7158 253.2677 206.4373 251.3848 200.9633 253.1077 193.9118 256.8515 189.6882 265.3787 195.4348 270.0458 199.7965 271.2961 208.5382 273.2516 213.3869 282.1859 223.6479 289.7171 226.6321 299.4874 227.3808 307.6584 229.6416 314.2155 233.4073 326.4938 243.8282 354.5687 252.9623 377.1407 280.9828 390.4294 300.3997 434.1193 329.8341 441.6651 343.9443 445.5979 357.7528 454.7939 357.0913 470.547 372.1937 475.1414 383.6832 488.0448 387.8451 490.2402 381.0589 496.4847 386.6347 499 395.2709 490.7345 398.7167 481.6258 401.7699 480.3318 401.6572 477.3077 405.6373 473.0041 416.5416 468.2571 419.7075 465.7564 419.9873 451.559 409.7845 449.3708 409.2102 446.2885 411.2166 444.0495 413.2994 437.4561 405.5718 432.6218 398.7421 425.8684 390.5929 419.3404 386.9327 412.3107 382.3384 405.4192 371.6522 398.3823 359.8864 387.9577 350.2615 368.4463 336.3731 350.5414 318.7808 336.8601 300.3961 328.0422 290.8257 324.2765 288.3832 306.03 282.3749 293.2792 273.9713 283.4799 267.0434 277.4607 265.1897 271.616 264.9607 259.1851 266.3347 248.8405 261.9911 244.5079 261.9911 237.58 260.7226 232.1424 259.1851 225.7597 261.0352 212.66 264.1284 207.2951 263.4523 204.3582 259.1269 202.6353 255.8229 198.0773 252.3735 194.3262 252.3735 192.2326 255.4522 178.5586 263.2342 155.6595 267.545 150.2292 267.2325 146.1728 264.1211 134.5996 250.7778 131.292 248.6079 128.6822 248.408 123.3173 246.8268 118.3013 244.268 113.9033 238.8013 109.4907 235.6935 104.7364 246.3979 96.4055 265.1025 91.942 275.1272 86.1918 288.0415 84.3744 288.4304 81.4302 287.4963 70.0025 271.4124 62.8202 265.3605 57.4553 265.9385 53.5443 268.9117 51.0726 274.2766 48.3974 277.6061 45.4969 278.8928 39.2596 278.2531 29.6711 275.6869 19.7845 276.243 9.6071 279.9178 8.2623 280.0196 Z M 272.6846 144.1228 275.1853 151.3196 267.9158 148.5717 266.7018 147.0815 269.9004 144.2318 270.5764 142.4798 272.6846 144.1228 Z M 277.5043 172.8774 280.5793 176.8393 282.7311 176.4504 284.4176 175.131 285.6099 172.3322 297.3792 177.8607 296.6959 181.5318 289.6735 181.7208 281.568 180.1724 274.0731 180.7104 265.1461 179.1074 263.0815 172.8774 268.7736 175.8943 271.7178 175.131 272.2412 174.3313 268.2066 170.115 262.5218 169.2754 262.9143 165.9605 265.4587 164.6556 267.0289 163.0417 263.7721 158.491 270.1621 159.5269 274.1967 162.2821 276.8501 165.4988 277.5043 172.8774 Z"/>
</g>
</svg>