<?xml version="1.0"?>
<svg xmlns="http://www.w3.org/2000/svg" version="1.2" baseProfile="tiny" width="500" height="169" viewBox="0 0 500 169" stroke-linecap="round" stroke-linejoin="round">
<g id="ne_50m_admin_0_countries-Estonia">
<path d="M 435.7971 167.9513 433.7889 168.1598 422.7595 167.1442 410.6024 163.9466 405.2731 161.5445 400.0364 161.5715 393.703 163.1588 370.9954 167.7235 365.4189 166.6576 352.4431 162.1817 345.878 157.3042 331.2725 147.5917 330.0753 145.2823 328.1675 143.4286 312.558 141.0265 306.7961 137.4466 301.992 136.9446 294.9634 135.1565 276.6737 127.5101 272.1322 126.7956 271.0277 128.0816 271.3444 129.889 270.209 130.9355 267.8687 130.9008 263.6362 128.0894 258.5617 125.6139 242.7668 130.2674 237.0512 131.5225 232.0463 131.7967 206.9829 137.9178 199.3597 141.2158 196.2007 140.8643 196.9499 137.7671 207.3768 122.2503 209.246 109.9387 213.0615 108.2472 214.166 106.5403 212.5363 102.6128 201.7077 100.0949 197.3361 100.4656 193.4047 104.6866 189.3266 107.7297 179.7724 109.5834 171.5544 106.3781 152.307 102.0914 147.4411 96.3836 146.2902 90.6411 136.1104 85.0878 131.8778 78.5458 133.5693 73.9811 142.8068 70.9843 145.4406 68.3737 133.801 68.7869 131.4299 68.1613 130.9201 65.8133 125.7684 57.8154 130.3254 54.6642 132.3335 51.6017 128.5953 48.995 129.5762 46.0291 132.488 43.0323 130.7038 36.0655 142.2585 32.3736 153.4887 29.7784 177.2854 28.4538 174.9296 22.0934 184.5611 21.8076 200.7731 14.1573 216.8461 15.5012 240.0944 10.2491 284.8763 10.3225 290.978 7.2909 289.9121 4.2439 290.0589 1 298.4777 1.9075 312.558 1.3437 365.3185 7.7312 378.302 7.7312 396.2595 14.2268 405.9605 15.899 434.5227 15.9106 478.5554 18.7799 487.1982 14.3813 488.0401 13.2382 492.2572 15.6982 497.5711 19.6604 499 21.9273 497.2004 23.2597 491.9019 24.3912 490.697 25.6115 488.349 27.6776 482.1624 28.0483 478.957 29.5815 475.1493 36.3011 467.8813 47.4271 457.1376 55.8922 448.5412 60.5342 444.6948 64.0909 442.3004 68.366 441.7366 72.6526 449.9855 96.206 449.8851 100.4579 447.9464 104.8256 446.5407 109.2706 447.6993 113.1247 453.129 119.7092 458.9064 129.5298 461.2235 135.8015 465.0621 138.107 468.7618 139.7946 469.5341 140.8566 469.4106 141.9611 467.5028 143.2046 450.8351 146.4949 448.6725 149.2793 446.8729 152.3842 439.5971 156.9837 437.365 161.2742 435.9825 166.198 435.7971 167.9513 Z M 61.3374 81.4962 66.9525 83.4117 72.1274 82.8054 77.3718 81.4731 88.7719 82.7243 114.7621 92.3905 117.1642 94.9741 101.6551 96.1481 98.1331 99.114 94.4025 101.1839 90.0077 101.852 82.5158 106.0112 72.3823 109.9966 70.266 112.3871 51.93 111.9469 41.9046 113.4568 33.8102 117.9173 30.489 126.533 24.565 133.2565 18.5405 135.6895 12.2611 136.0602 10.7705 133.5346 11.3652 131.0128 24.6036 121.5088 27.3532 118.4232 20.7649 117.0522 15.2425 113.7542 3.1858 109.8808 1 106.772 3.8887 106.5403 6.5302 105.6482 9.7432 103.0415 11.2493 100.0485 1.6179 91.3092 6.5302 89.9575 12.655 90.2742 18.9421 92.8153 25.8394 89.834 28.7666 89.3937 33.5939 90.4557 38.4599 84.69 50.0299 82.79 55.7686 81.0096 61.3374 81.4962 Z M 85.5666 65.2302 79.0787 69.1422 75.2169 67.5782 73.1933 65.7052 64.8208 74.5411 55.3902 76.0588 49.8909 74.3132 50.3852 71.0113 45.0173 62.3454 36.8224 59.8081 25.3142 59.5687 16.9571 56.0004 49.0954 53.5713 52.4166 49.4468 58.9508 45.1177 63.8708 44.6504 68.0493 45.6545 68.8371 49.0104 69.8875 50.3466 84.4699 52.2351 90.1468 57.8811 92.2862 64.6741 85.5666 65.2302 Z M 118.7707 87.1036 112.1902 87.9223 96.6192 82.2995 100.2262 78.4917 104.6827 76.9972 117.9211 79.3336 119.7903 85.1109 118.7707 87.1036 Z"/>
</g>
</svg>