<?xml version="1.0"?>
<svg xmlns="http://www.w3.org/2000/svg" version="1.2" baseProfile="tiny" width="500" height="591" viewBox="0 0 500 591" stroke-linecap="round" stroke-linejoin="round">
<g id="ne_50m_admin_0_countries-eSwatini">
<path d="M 437.1353 81.6516 444.7308 87.1556 479.3324 104.4748 482.4514 138.9664 479.1123 178.3749 472.1406 203.2529 474.7458 228.0208 485.8638 266.5853 496.3948 292.9677 499 412.9912 487.2582 407.4872 465.9027 402.3501 454.6012 404.7352 444.2538 458.5274 436.328 538.5553 440.9514 588.2378 359.8594 589.779 257.2653 584.3484 183.8055 562.8828 104.6583 515.5119 57.5809 441.6852 36.996 395.305 8.2286 392.6264 3.5685 384.7374 1 328.1565 1.5871 268.7135 6.9443 252.9355 60.2595 179.7692 93.3568 134.3064 113.9416 90.3112 158.744 38.7206 206.7754 5.7334 224.6083 1 236.8271 2.3576 321.4783 47.7104 408.2944 90.6782 427.1547 85.8347 437.1353 81.6516 Z"/>
</g>
</svg>