<?xml version="1.0"?>
<svg xmlns="http://www.w3.org/2000/svg" version="1.2" baseProfile="tiny" width="500" height="381" viewBox="0 0 500 381" stroke-linecap="round" stroke-linejoin="round">
<g id="ne_50m_admin_0_countries-Ethiopia">
<path d="M 76.4493 312.1818 75.9201 311.5585 72.9949 309.2257 70.2514 306.169 68.5891 302.786 66.982 300.0133 66.1639 293.8041 64.1315 289.9892 62.1445 285.3238 59.19 276.423 57.9076 273.35 55.5181 271.2933 52.9922 269.3761 50.3851 265.4347 43.5671 261.9624 40.9438 259.2449 36.4179 254.5518 35.2848 252.1834 34.9602 249.8231 33.5479 247.6088 31.0382 245.117 23.1812 239.7486 21.0157 239.1026 18.2009 238.5263 14.0776 237.9954 8.5485 236.7682 3.7207 234.6709 1.5227 233.1806 1 232.1514 1.4545 230.4226 3.2045 227.4649 6.5291 220.4634 8.8245 215.6324 10.3796 214.2737 14.6457 213.9246 19.1651 214.0691 22.4735 214.4295 27.1357 214.4782 32.7297 214.0659 34.9374 212.4507 36.7004 210.6828 37.4244 209.454 37.6646 206.3242 37.6581 203.8145 37.3075 194.193 37.0932 188.3003 36.8465 181.5683 36.8789 180.221 36.9179 178.4937 38.2815 171.3056 39.5704 167.1921 40.4405 165.0266 43.9729 158.1712 44.6287 155.9732 44.7489 153.9554 43.4469 144.7609 45.7164 140.4217 48.6254 136.1263 51.1708 134.2968 53.2941 133.0566 54.2876 133.5761 56.7226 135.5582 59.9238 137.5111 61.4173 137.0792 63.6153 135.3715 65.2483 133.568 65.0308 130.3327 66.5015 123.6949 66.2223 119.8719 67.7905 115.1139 69.5112 108.4258 70.2774 104.1954 71.2612 101.9259 75.9201 97.2556 79.92 90.6551 82.4751 85.8338 87.3452 77.9639 89.8094 75.0906 91.8158 73.8504 94.8092 73.0582 100.361 72.3455 104.348 71.6751 104.9356 70.6589 105.2733 69.0534 105.3317 65.5357 106.0979 59.479 107.8284 53.5684 109.8673 49.0913 110.9744 47.0605 112.2861 45.0849 113.76 41.7668 115.6366 34.5868 115.5327 29.72 118.2047 20.7966 118.8054 20.7511 123.3507 19.1099 127.7662 18.8615 132.0485 20.0076 134.8342 20.2933 136.1296 19.7187 137.3244 18.2317 138.4282 15.8357 140.1749 14.5078 142.571 14.2497 145.7787 16.9525 150.8825 24.1358 152.1974 24.553 153.009 24.3793 155.5771 18.6116 157.5706 14.1344 161.2913 5.7807 163.4146 1 165.3853 2.388 167.3496 4.8294 169.5898 5.9723 171.9858 6.6784 173.1514 6.7677 174.6286 7.7368 179.7973 13.6961 181.6089 15.0857 184.0342 15.2253 194.2612 13.3 200.3682 9.8244 201.3032 8.4495 202.9785 8.4495 205.0142 9.99 205.7836 11.4656 207.0953 13.3974 209.4913 13.6993 215.3418 12.3179 218.1924 11.4916 220.6209 12.1783 223.715 12.7448 225.65 12.7448 230.27 14.6847 235.8218 14.0711 238.4321 14.1734 241.1204 15.0013 245.4969 18.0953 251.1915 21.8485 259.3407 24.5319 261.0224 25.6227 264.9606 29.897 271.0709 38.1078 279.0674 45.9647 287.7815 52.1675 292.4372 56.4661 295.58 61.7208 298.6578 66.4934 301.7974 68.5453 304.7129 70.18 307.729 73.8195 309.888 76.8698 312.8328 80.321 309.5699 85.0465 305.2064 91.3678 300.1123 98.741 298.5734 100.5526 294.119 105.0103 293.356 106.2651 292.4859 109.4874 292.4242 115.346 293.0021 122.8296 293.5411 129.7223 295.9988 130.5421 298.8331 131.0339 301.9824 130.1249 305.7745 129.3522 310.4919 128.8993 315.7126 127.5081 318.7904 126.388 322.0241 126.4691 324.8909 127.6639 326.2805 128.7645 328.3129 129.1411 330.9265 129.0957 330.3745 130.3944 328.9363 132.2904 327.1701 134.193 325.6182 136.1572 322.1767 141.6603 322.0728 142.3713 322.4981 143.4492 324.3585 145.9702 326.3032 150.0302 327.3908 153.7622 328.2285 155.5674 330.5856 157.6371 333.9848 161.9 335.7867 164.7717 339.5334 166.309 340.7574 169.9599 343.5722 175.3153 346.6046 179.5976 349.5364 182.9482 352.8123 184.2371 354.1239 184.3475 360.9809 190.5519 366.2015 195.2709 367.5002 196.029 376.922 199.1198 387.7529 202.6766 396.4475 205.532 407.5316 209.1683 418.4534 212.7526 428.6869 216.1811 443.0729 220.9991 454.6667 224.8821 463.8029 227.9421 465.7541 228.908 476.6402 228.908 487.6789 228.908 499 228.908 490.8022 236.812 481.5329 245.7501 471.7897 255.146 465.5204 261.1913 455.5661 270.7917 447.2936 278.7704 438.7775 287.5006 431.07 295.3949 421.0507 306.3313 414.5639 313.4074 404.4018 324.5029 398.0091 331.4735 397.0481 331.8761 387.9055 331.3485 379.0259 330.8356 367.6755 330.1781 366.3703 330.1927 363.0652 330.8502 361.062 331.493 352.8934 333.3696 351.3902 333.8566 344.5982 336.8468 337.673 340.3678 334.027 343.0658 331.1992 346.9894 329.9947 349.7896 328.7285 351.0152 326.5662 352.0866 312.0568 354.7375 307.8426 355.0898 301.0506 357.2082 297.4338 360.7536 296.3916 362.5344 291.5281 362.4906 283.0251 363.0149 279.3856 363.5831 277.6064 363.687 274.3468 363.6707 271.6715 363.0246 269.9021 362.062 267.6943 359.8835 262.7691 355.4664 259.1978 352.7165 251.3344 355.8885 244.2631 359.0442 234.2277 363.5246 228.5103 366.7323 226.7863 369.9644 222.3709 375.8295 218.4261 379.4414 216.9489 379.8765 208.0076 379.1233 204.7772 378.3879 199.4396 377.7321 192.2905 376.4561 187.4789 375.0893 182.2777 374.9318 174.7552 374.461 170.1287 373.4692 165.434 370.2144 159.3822 366.294 153.1519 362.2617 146.7365 358.1092 139.1587 353.3317 130.8797 348.1143 128.9739 347.5867 128.1558 347.4942 119.1593 347.2572 109.8121 347.0088 103.4973 346.8433 101.5039 346.2313 100.0656 345.0446 98.1079 341.1876 95.6404 338.4344 92.897 334.9312 92.6664 330.1943 93.4359 325.0386 94.1339 323.3309 93.7411 321.6296 93.8385 319.2872 92.2963 317.1119 83.1082 314.6152 81.6245 314.8084 80.0921 315.7434 78.3421 316.4171 77.0889 315.7791 76.326 314.849 76.3 313.3246 76.4493 312.1818 Z"/>
</g>
</svg>