<?xml version="1.0"?>
<svg xmlns="http://www.w3.org/2000/svg" version="1.2" baseProfile="tiny" width="500" height="156" viewBox="0 0 500 156" stroke-linecap="round" stroke-linejoin="round">
<g id="ne_50m_admin_0_countries-Falkland Islands">
<path d="M 341.8132 1 364.4891 9.702 392.8938 6.6708 404.8373 9.0638 411.8351 16.3155 407.6727 23.045 398.6589 22.0733 390.9649 23.8717 392.495 32.7332 397.7234 36.5186 427.7453 46.2648 433.2493 46.8449 432.2703 42.755 427.0564 36.069 425.1129 28.8608 429.5799 22.8565 437.419 21.0146 471.567 17.9979 479.5873 20.8405 496.5199 37.8384 480.6388 40.1879 473.9528 47.5266 487.9267 50.7028 499 55.3874 493.1552 62.581 492.1109 66.2359 467.4916 71.3265 445.6641 74.5898 435.7583 83.0597 418.1803 89.1946 366.5703 99.9561 372.5747 108.658 373.3724 112.8495 371.1316 124.1621 300.0727 110.6015 290.4787 112.0518 309.4636 135.1266 295.3881 139.3905 281.4939 136.6204 268.847 138.5348 260.805 155.1701 240.5221 144.5392 223.2196 129.3833 223.1544 120.8988 239.8622 105.0612 234.7933 98.3462 273.7129 76.8233 280.689 70.4128 292.8283 66.729 305.3954 65.4817 310.7253 62.7116 309.8551 57.4759 304.7935 48.4983 305.2141 33.8935 336.3962 14.0675 331.8204 1.3191 341.8132 1 Z M 128.5421 29.5135 150.0287 32.3416 169.7605 21.8848 183.3646 18.549 194.5756 20.8115 202.4727 27.1495 213.923 26.1487 246.2799 19.6803 250.4931 21.8848 262.0015 14.372 271.9145 17.8818 279.7535 24.4083 275.9102 31.9791 266.9616 36.7942 261.2836 43.5092 254.6628 48.9334 243.1979 53.9661 234.438 62.0299 213.3937 80.8697 182.7264 104.9017 172.5741 107.0627 151.4065 108.513 142.2767 106.8596 134.4667 107.4108 128.2375 120.3767 118.5565 130.2099 113.988 132.2984 103.9227 133.2266 99.1584 134.7205 95.547 138.3463 69.1148 137.4036 50.4273 131.3702 28.2662 117.9402 57.8094 101.4789 83.27 102.2331 104.2563 91.1816 121.3774 85.5978 128.1795 79.9125 135.6342 75.5615 135.6849 69.8907 129.9851 67.3381 122.2911 67.5992 114.6769 70.0937 96.7798 73.27 84.539 66.758 92.6246 64.3359 101.6602 64.452 129.3252 58.3461 134.6407 55.7935 126.1055 47.1205 109.4267 41.8558 95.9314 33.0088 93.4151 29.702 94.0822 24.4518 86.6275 14.053 94.4593 13.5309 104.8944 20.2314 128.5421 29.5135 Z M 19.7528 77.6065 30.3692 79.6514 40.9566 78.8682 34.9885 94.1257 30.3257 101.4499 17.7876 100.8843 5.3437 90.906 1 85.5833 14.8652 81.7979 19.7528 77.6065 Z M 402.9083 111.0656 403.8148 124.1331 391.9148 119.9851 387.6726 113.6472 394.2571 109.3397 399.6814 109.6588 402.9083 111.0656 Z M 154.4595 19.7093 134.0968 19.7238 130.0794 14.8507 130.1592 2.5809 145.598 1.5221 160.6814 6.6418 159.6952 11.7905 154.4595 19.7093 Z M 218.1797 143.8286 208.6873 146.6857 206.0332 145.3949 203.002 139.8256 202.8425 132.6175 201.7475 129.3543 207.7011 130.4275 218.4263 136.1708 218.1797 143.8286 Z"/>
</g>
</svg>