<?xml version="1.0"?>
<svg xmlns="http://www.w3.org/2000/svg" version="1.2" baseProfile="tiny" width="500" height="463" viewBox="0 0 500 463" stroke-linecap="round" stroke-linejoin="round">
<g id="ne_50m_admin_0_countries-Faroe Islands">
<path d="M 392.6257 270.2965 383.0336 288.7392 369.6142 288.5717 323.5195 265.7038 286.8255 253.2412 274.674 242.7162 264.4838 224.6563 285.5338 222.4078 310.5307 226.4982 373.5611 242.9554 391.334 260.1303 392.6257 270.2965 Z M 355.262 447.3079 364.9498 462.1625 353.5158 460.512 320.4577 443.5763 262.8333 403.1507 242.6923 369.7578 239.9414 354.3769 254.1263 356.0992 266.0147 369.8295 320.6969 378.8475 335.097 385.641 334.8817 402.3614 353.2766 422.1675 355.262 447.3079 Z M 116.488 106.9915 160.4538 125.9844 176.0977 139.3559 150.8138 152.2969 120.1478 155.6218 83.1429 152.6318 22.3131 138.5905 1 106.5131 43.0522 107.3025 92.7589 101.155 116.488 106.9915 Z M 388.7745 63.5998 376.6469 129.3811 356.745 129.0223 321.2471 110.8188 294.5279 107.0872 286.1558 116.7989 287.5432 128.496 301.3692 135.8396 343.9476 179.9489 347.9423 192.7942 342.6559 199.0135 301.2496 186.2879 201.3817 129.1897 123.688 35.3259 228.2922 20.3038 304.2157 44.9419 388.7745 63.5998 Z M 499 48.5299 475.5819 83.8605 440.8733 78.3109 431.3529 74.5076 423.8419 65.2503 427.4778 38.9857 426.234 1 466.1811 32.2401 499 48.5299 Z"/>
</g>
</svg>