<?xml version="1.0"?>
<svg xmlns="http://www.w3.org/2000/svg" version="1.2" baseProfile="tiny" width="500" height="88" viewBox="0 0 500 88" stroke-linecap="round" stroke-linejoin="round">
<g id="ne_50m_admin_0_countries-Federated States of Micronesia">
<path d="M 498.7952 86.2436 499 87.2121 497.7301 86.742 497.5546 86.3996 498.2958 86.0583 498.7952 86.2436 Z M 2.6132 2.8502 1.1034 4.4809 1 3.9474 1.4623 2.9721 2.0982 1.8612 2.699 1.1941 3.4754 1 4.0294 1.9207 3.4091 2.7166 2.6132 2.8502 Z M 272.373 45.8855 272.2072 46.1489 270.9861 46.0474 270.8145 45.8992 270.9217 45.7831 271.505 45.6651 271.5752 45.3023 271.2768 45.2252 271.5323 45.036 272.0083 45.0019 272.2833 45.2252 272.4276 45.5529 272.373 45.8855 Z M 277.0409 44.1709 276.6976 44.2762 276.5318 44.1758 276.6118 43.6647 276.7191 43.4891 277.0487 43.4706 277.6222 43.6091 277.6632 43.7349 277.0409 44.1709 Z M 405.5461 56.5224 404.3816 56.975 402.9205 56.7702 402.4699 55.1414 401.8067 54.7054 401.9491 53.9027 402.9752 53.2453 405.1423 53.7779 405.948 54.9346 405.4369 55.7041 405.5461 56.5224 Z"/>
</g>
</svg>