<?xml version="1.0"?>
<svg xmlns="http://www.w3.org/2000/svg" version="1.2" baseProfile="tiny" width="500" height="15" viewBox="0 0 500 15" stroke-linecap="round" stroke-linejoin="round">
<g id="ne_50m_admin_0_countries-Fiji">
<path d="M 498.9989 6.1067 498.7901 6.2908 498.7148 6.3858 498.6516 6.4909 498.4731 6.6036 498.3971 6.7546 498.4026 6.9075 498.5809 6.7477 498.7801 6.6171 498.8409 6.5907 498.9037 6.5921 498.8984 6.6367 498.8699 6.6809 498.8479 6.7962 498.9003 6.9033 498.7521 6.8929 498.6054 6.9021 498.4314 6.9622 498.2605 6.9886 498.1967 6.9893 498.1354 6.9691 498.0953 6.9383 498.064 6.8669 498.0323 6.8562 497.8966 6.8594 497.6934 6.999 497.6261 7.1188 497.548 7.1241 497.4558 7.0992 497.3441 7.1907 497.2109 7.2239 497.1533 7.1462 497.116 7.0511 497.0685 6.981 496.9215 6.9635 496.944 6.878 496.9831 6.8426 497.0188 6.7919 497.0406 6.7338 497.1108 6.7707 497.1828 6.7943 497.2633 6.7508 497.347 6.747 497.4309 6.6206 497.5621 6.5414 497.7431 6.4788 497.9274 6.434 498.0228 6.425 498.1135 6.3991 498.2739 6.2804 498.3799 6.2192 498.4954 6.1824 498.6058 6.1608 498.7079 6.1799 498.7899 6.1699 499 6.0851 498.9989 6.1067 Z M 496.6209 7.7714 496.6209 7.8326 496.6614 7.8591 496.7017 7.8634 496.8018 7.9804 496.9572 8.0811 497.0517 8.1581 497.0574 8.2239 497.0286 8.2934 497.0686 8.418 497.0881 8.5473 497.157 8.7521 497.0597 8.791 496.9066 8.7956 496.8712 8.8324 496.8191 8.8121 496.692 8.8273 496.5705 8.8947 496.4549 8.9863 496.3218 8.9866 496.1717 9.0055 496.0218 8.9928 495.9163 8.9439 495.7304 8.8907 495.4826 8.8453 495.3801 8.8072 495.2946 8.7475 495.2145 8.5969 495.2026 8.5226 495.2152 8.4514 495.2876 8.4273 495.3482 8.3912 495.3569 8.3442 495.3836 8.3114 495.4185 8.2995 495.4355 8.2768 495.411 8.2005 495.4043 8.1307 495.5479 8.0033 495.7049 7.8946 495.9815 7.7943 496.1507 7.8035 496.4099 7.7262 496.4928 7.6898 496.5752 7.7121 496.6209 7.7714 Z M 1.0347 7.1529 1 7.2057 1 7.1294 1.0001 7.0615 1 7.0139 1 6.9602 1.1472 6.8424 1.1923 6.8257 1.2458 6.9323 1.1829 7.0498 1.0347 7.1529 Z M 499 7.2058 498.8975 7.2573 498.8575 7.2072 498.9045 7.0853 499 6.9605 498.9989 7.0615 499 7.2058 Z M 496.9082 9.9877 496.908 10.0472 496.7299 10.0866 496.6699 10.0376 496.6317 10.0287 496.5257 10.1155 496.495 10.1512 496.4849 10.1781 496.4576 10.1916 496.2621 10.2333 496.1762 10.1917 496.2344 10.1634 496.3052 10.1068 496.3773 10.1151 496.45 10.0622 496.5216 9.9815 496.6237 9.9641 496.6958 9.9329 496.8148 9.9555 496.9082 9.9877 Z M 2.3998 8.6079 2.3579 8.6289 2.3291 8.6241 2.2951 8.602 2.274 8.5629 2.3175 8.5301 2.3845 8.5674 2.3998 8.6079 Z M 2.7127 8.9638 2.6965 8.9894 2.6222 8.9475 2.5937 8.9197 2.6726 8.898 2.7111 8.905 2.7127 8.9638 Z M 3.4193 8.5748 3.3422 8.5894 3.2725 8.5308 3.3165 8.4684 3.3789 8.4831 3.4145 8.5434 3.4193 8.5748 Z M 2.4435 7.6343 2.4085 7.6816 2.3779 7.6649 2.4172 7.5854 2.4228 7.5511 2.3627 7.5092 2.3589 7.4801 2.3764 7.4621 2.4486 7.5087 2.4924 7.5452 2.5011 7.5654 2.4877 7.6008 2.4435 7.6343 Z M 3.0264 10.2532 3.0109 10.2656 2.973 10.2517 2.9423 10.2329 2.9385 10.2132 2.9515 10.188 2.9814 10.1747 2.9966 10.1798 2.9879 10.1878 2.9696 10.1967 2.9725 10.2216 2.996 10.2367 3.0188 10.2408 3.0264 10.2532 Z M 1.2769 9.941 1.28 9.9818 1.2594 9.9795 1.2349 9.9621 1.2222 9.9706 1.2137 9.9832 1.2095 10.0115 1.2058 10.0276 1.1867 10.0218 1.1835 9.9937 1.1898 9.974 1.1989 9.9451 1.2336 9.9187 1.2769 9.941 Z M 495.1739 7.4603 495.1029 7.4836 495.1407 7.3735 495.181 7.339 495.2062 7.3319 495.2476 7.3242 495.2315 7.402 495.1739 7.4603 Z M 498.2009 7.7643 498.1547 7.8017 498.1328 7.6112 498.1805 7.6128 498.2154 7.6326 498.2352 7.6805 498.2009 7.7643 Z M 498.0999 8.7818 498.0876 8.793 497.9674 8.6825 497.9714 8.6389 497.9926 8.5997 498.0406 8.5628 498.0841 8.6258 498.118 8.7305 498.0999 8.7818 Z M 497.3781 8.2653 497.3069 8.2899 497.2676 8.2055 497.3222 8.1207 497.383 8.113 497.4127 8.1993 497.3781 8.2653 Z M 1.0976 6.5691 1.0001 6.6206 1.0001 6.5498 1.0779 6.4842 1.137 6.4705 1.1005 6.5363 1.0976 6.5691 Z M 1.0607 6.08 1 6.1063 1 6.0894 1 6.0851 1.0424 6.048 1.0767 6.048 1.0607 6.08 Z M 499 6.6206 498.9823 6.6222 498.9788 6.5959 499 6.5498 499 6.6206 Z M 495.0181 1.0394 494.964 1.0535 494.8767 1.042 494.8586 1.0196 494.8865 1.0146 494.9435 1 495.0133 1.0074 495.0256 1.022 495.0181 1.0394 Z M 491.5711 13.7517 491.5603 13.7667 491.5203 13.7618 491.5123 13.731 491.5358 13.7136 491.5684 13.7253 491.5711 13.7517 Z M 2.7823 12.3306 2.7852 12.3344 2.7777 12.3341 2.7664 12.3293 2.7581 12.3201 2.756 12.31 2.7602 12.2994 2.7644 12.3001 2.7718 12.3093 2.7787 12.3196 2.7823 12.3306 Z"/>
</g>
</svg>