<?xml version="1.0"?>
<svg xmlns="http://www.w3.org/2000/svg" version="1.2" baseProfile="tiny" width="426" height="400" viewBox="0 0 426 400" stroke-linecap="round" stroke-linejoin="round">
<g id="ne_50m_admin_0_countries-finland">
<path d="M 138.2112 166.4149 134.0775 159.2474 131.9652 156.5093 128.5748 153.0962 122.5222 151.4294 121.339 150.487 120.535 149.0421 120.2733 147.036 119.5073 144.0685 119.8258 141.6338 120.5691 140.1832 123.1783 139.2086 126.9517 136.461 127.7405 134.4643 128.0628 131.402 129.7997 128.7284 131.73 127.3764 131.2446 126.3013 129.9135 124.7635 127.0996 122.581 122.8142 119.9188 119.6438 117.3741 118.252 114.9944 117.5353 112.8688 117.6528 110.9347 118.8398 109.6187 122.8901 107.9615 123.4324 107.258 121.8282 103.5965 119.0029 102.9309 114.198 102.5763 111.5168 102.546 111.0048 102.1459 110.8721 101.4102 111.4144 99.9084 112.9313 98.1886 114.1942 97.0926 114.3611 96.1634 112.7645 92.9836 112.2828 89.085 112.8289 86.0322 117.9183 83.7795 118.1496 82.9566 111.7557 80.5124 107.1442 77.7421 105.7107 76.1246 100.4279 75.88 97.14 71.1832 92.3844 68.8964 87.6743 66.9206 84.8907 66.001 68.5684 63.1643 62.0835 62.6239 54.4077 60.9685 48.6889 58.8903 43.7891 57.5535 39.5948 55.9057 33.747 54.3641 32.0746 53.0463 25.7603 50.6059 22.7947 48.9998 12.5098 45.9659 12.1381 44.7695 12.0623 43.6147 11.5996 43.135 1 40.9202 3.0858 39.6536 11.3721 39.5777 18.2249 40.7306 19.7304 40.2376 20.6368 39.2137 17.7167 35.1065 18.24 34.0371 21.255 32.7496 26.0333 31.7238 33.5839 31.5759 38.7301 31.7276 39.8185 31.8394 47.5056 36.3523 54.0968 40.7553 57.6009 42.6325 66.1716 47.9493 69.3761 51.0268 70.4646 53.2302 73.9497 53.2169 86.0018 54.184 96.1236 54.9974 98.9451 56.2318 105.9231 55.9834 111.3006 54.8704 120.7967 53.4634 123.3414 51.7341 126.5042 49.8891 132.0713 50.1793 138.1581 51.6374 145.0677 53.5544 151.2227 54.4419 159.4825 55.8337 163.3355 57.6331 168.732 58.147 174.3826 56.3475 177.7199 51.4668 180.6817 49.2899 184.8761 47.6934 189.681 46.988 193.3482 46.7339 196.1204 45.4919 200.0683 42.7349 200.8381 39.3957 200.0796 33.364 200.8002 31.3749 204.0237 28.1191 208.347 19.4934 210.2887 17.0075 212.6551 15.4963 215.9051 14.5975 221.8098 11.9865 230.244 6.8175 232.5308 6.3795 238.5872 6.1178 246.1226 6.3093 252.8958 7.2195 253.6277 7.1493 256.6616 6.6753 262.1908 5.0692 271.6527 1.8779 277.7167 1 283.2346 1.1233 289.3441 4.6179 297.9603 8.5108 303.4971 10.4012 318.5907 13.9452 331.8412 16.2775 339.2894 23.9836 335.6184 27.0535 333.7905 28.1115 327.3093 31.1682 320.3731 35.482 319.8422 37.7308 322.1441 39.9987 325.015 41.4986 322.4172 41.9764 314.3888 43.865 309.4891 45.1392 303.5882 46.074 305.1203 47.3122 314.9235 47.5739 316.4329 47.9266 317.5213 48.5637 317.7071 49.582 316.7135 51.2278 306.1215 60.3067 305.7877 62.22 309.2615 67.5406 314.1157 73.8151 328.7884 76.6044 339.6952 78.7831 346.6996 83.9388 358.2474 90.7385 364.3682 93.2794 364.7133 94.0682 362.893 98.7593 355.4903 103.4599 348.5655 107.4229 341.3979 112.1975 335.7928 116.2686 329.7213 121.1475 329.0235 122.7289 328.9135 124.2231 329.9564 125.8746 337.7307 131.8438 340.757 134.891 344.3749 138.1865 347.4809 141.7779 349.2822 144.9957 352.3958 148.1301 354.3299 149.7323 357.5458 151.9774 361.4254 155.3166 362.7148 157.9618 368.5739 167.143 369.1655 169.4829 368.8773 171.2141 366.3023 171.6408 360.6176 171.9157 354.455 173.0515 354.144 173.4327 358.1639 175.6 354.6143 179.3013 354.1023 184.6011 350.31 187.3828 349.9535 188.0294 350.1241 188.5698 350.7954 188.9927 357.8188 189.736 358.4256 190.4907 358.4559 192.0531 357.8302 193.4961 354.3033 194.5675 350.5148 196.1527 349.6766 197.6108 349.8056 198.9135 351.0988 201.1131 353.5903 203.6767 356.757 205.2865 368.0051 206.8111 369.4576 208.072 370.0757 209.7994 369.8406 211.487 364.6147 214.8622 364.6564 216.1611 366.8029 219.3031 369.3741 222.3028 380.3454 225.5529 384.1226 227.3353 385.1276 228.7536 385.6775 231.0404 385.6054 233.5187 384.7445 235.7202 381.3049 238.5588 373.3409 244.1582 365.3353 246.3331 364.8461 246.8052 367.3263 248.5971 381.43 255.7798 390.6227 259.1418 403.0313 263.6793 411.0331 267.265 413.6195 269.8438 417.0857 272.7108 420.9805 275.0545 423.7868 277.0891 424.8449 278.3974 424.7463 279.8044 420.9919 284.0481 418.8606 287.3284 415.1023 292.1371 411.2607 295.4934 401.5143 301.6142 387.1413 309.2331 383.804 311.5388 377.0764 315.553 365.5628 323.6099 362.582 325.3885 353.1429 331.8147 348.8423 333.8587 345.4633 335.7701 336.1152 341.8454 326.0692 346.4569 316.2091 350.7404 313.2511 352.9115 309.5725 354.5669 305.1809 356.1426 303.3303 357.0243 293.4095 362.8911 279.6508 371.0352 278.2514 371.1622 274.6677 372.4782 269.0664 372.7967 266.6317 373.8036 258.0685 370.9366 256.6464 370.7508 251.6101 371.4618 246.7787 373.5457 237.8591 374.1828 233.4296 374.8579 230.6043 375.8211 230.0241 373.5419 231.2452 370.6522 233.2096 368.7256 233.3917 367.4704 231.9506 367.6012 229.0949 370.4265 227.5666 373.7278 224.51 375.3869 217.7899 376.0657 211.2405 373.413 208.1308 373.4395 210.0839 375.3395 211.4036 377.4253 211.233 378.5933 207.7402 378.3886 203.853 379.6381 200.4437 381.466 198.7902 381.4698 196.4997 378.9157 192.2977 380.1084 188.7064 381.7107 181.4099 382.2112 177.06 384.3179 169.3616 385.74 165.1331 385.7059 155.4929 387.4181 152.2884 390.0576 149.4783 391.0285 145.4773 390.2112 133.1522 391.4987 121.3693 393.1882 116.3558 393.0915 111.3423 392.3899 106.0293 394.7374 100.3862 397.8775 94.1668 399 91.9369 398.598 93.7193 396.9502 97.834 395.2456 100.6593 392.9341 101.0461 391.0076 99.1044 390.251 96.4536 390.0197 93.1125 388.0287 89.9117 383.7111 88.1786 383.4741 87.2988 384.608 86.3166 387.9187 85.3192 388.8725 83.624 389.631 81.5875 390.3951 79.6003 390.7668 72.4745 390.7213 71.5378 389.0489 71.5378 388.3492 72.8006 386.1477 71.6971 385.7628 72.7476 384.0373 74.4276 384.1302 76.4186 383.8742 77.4159 382.9868 77.3401 381.9268 74.5717 381.6519 74.401 380.9294 76.8698 377.9107 77.2225 377.0764 76.2669 376.9038 74.7196 377.2319 64.5219 376.2857 51.9427 372.427 48.8481 372.2279 46.9444 368.7825 43.9105 369.2186 39.4886 371.2362 36.1703 369.7041 32.6055 368.6953 31.6195 367.1196 31.6688 364.7949 31.3616 362.053 30.387 358.8447 29.674 354.2844 30.3414 350.7214 33.1857 348.0839 34.2779 346.4 35.6128 342.1014 35.9124 337.0671 35.1577 335.3529 35.3474 334.2133 37.6152 334.2133 37.1222 333.2349 36.1248 332.7002 35.0212 331.5871 35.9617 330.9974 38.677 330.9557 38.897 330.5802 39.2042 330.0493 37.1032 327.1254 36.8605 325.7317 33.9442 321.5013 30.6183 317.4909 25.6124 314.5898 27.3872 309.8133 29.4085 305.4957 29.0065 303.4156 28.2329 300.8842 22.1045 298.1082 21.1943 294.1964 19.6963 289.9964 20.2614 287.4214 21.2588 285.4512 23.2725 283.4887 33.4398 277.2958 34.0617 274.0628 40.9525 273.8277 37.7555 270.9379 37.0008 269.3148 36.8415 267.4205 46.7548 266.1235 50.4561 267.1891 59.1785 265.8732 66.9225 263.2982 66.786 261.931 65.5952 260.7061 63.9531 258.3473 65.1173 257.6931 67.9426 258.1747 66.6457 257.0029 66.8808 255.7666 69.964 256.2804 74.9964 252.8313 75.1785 250.1956 83.8743 248.8171 93.9013 243.4395 98.528 241.7652 102.9992 240.5535 112.5218 235.1817 116.5985 234.9314 118.6957 231.3097 126.7924 226.4915 129.2536 225.8752 133.0384 221.5311 142.982 216.51 149.2848 210.1085 152.7624 207.835 153.8395 205.4136 157.7115 205.2088 161.2042 203.4302 168.7624 202.1901 176.2219 202.5333 179.3279 203.3771 182.1987 203.1097 181.9105 200.9329 179.8626 199.5885 181.535 198.2972 185.4791 197.3188 185.0771 195.1572 184.22 193.8564 180.9434 192.1233 182.5741 188.2418 182.9647 183.9887 184.5158 179.0757 180.3973 176.4722 164.769 172.0428 161.8527 172.1964 158.3827 171.6408 154.7572 168.2845 156.3765 165.3891 156.5624 164.3215 155.1478 164.3538 152.8572 165.7645 147.8741 167.3782 141.3967 166.14 138.2112 166.4149 Z M 54.2826 378.7811 51.4573 378.9517 47.4639 377.0271 46.9595 376.2743 48.5258 375.8382 47.4905 374.2909 47.7977 373.6064 50.8884 374.8275 52.576 376.2554 50.9263 376.5872 53.7213 378.0605 54.2826 378.7811 Z M 24.1296 265.9832 24.5467 266.7075 26.8221 266.5084 29.8864 265.1887 32.0594 265.8049 31.8129 267.6897 30.3377 267.6177 29.9319 267.3067 28.0395 268.3837 27.702 269.036 25.5138 269.4513 21.4711 267.6082 18.9303 264.5762 24.8501 264.5686 24.2851 265.2911 24.1296 265.9832 Z M 61.306 377.4575 66.2247 378.3582 68.2915 378.0359 70.6428 380.0743 66.657 381.3712 66.3802 382.9792 67.954 383.9785 68.5077 385.4253 64.5371 385.4234 62.6371 384.206 61.8104 382.6606 59.9635 381.5684 57.5023 380.736 58.7083 379.6268 59.3947 378.0359 61.306 377.4575 Z M 33.1819 371.2893 32.6396 373.0963 30.0039 372.8953 27.3227 373.2234 25.1611 371.4296 24.0044 368.4052 24.3988 367.7548 26.0826 367.0684 27.372 368.7275 33.1819 371.2893 Z M 48.029 386.398 44.1418 387.7329 42.6628 387.4144 43.042 385.1636 45.3516 384.134 49.2387 384.0183 48.029 386.398 Z M 40.0726 387.6684 36.6671 388.0534 34.5472 386.9308 35.3511 386.0946 37.729 385.1636 40.2964 385.2925 40.8425 386.3847 40.0726 387.6684 Z M 165.1141 198.0356 159.3156 199.325 154.6434 198.5191 154.5638 196.0218 157.4612 194.814 162.6984 194.3304 169.866 195.5383 170.9126 196.183 166.8055 196.6665 165.1141 198.0356 Z"/>
</g>
</svg>