<?xml version="1.0"?>
<svg xmlns="http://www.w3.org/2000/svg" version="1.2" baseProfile="tiny" width="800" height="619" viewBox="0 0 800 619" stroke-linecap="round" stroke-linejoin="round">
<g id="us-states-10">
<path d="M 276.9654 1 291.3385 31.4712 435.0706 38.3703 569.6038 46.4193 574.7781 68.8415 587.4265 68.2666 592.0259 46.9942 588.0014 27.4467 597.7752 19.3977 621.9221 28.0216 650.6685 32.0461 656.9928 77.4654 670.2161 128.634 700.6873 195.9006 747.2564 267.7665 740.3573 272.941 742.6571 306.2867 762.2046 343.657 792.6757 418.9727 799 442.5447 798.4251 466.6917 786.9265 553.5058 777.1527 555.2305 766.804 582.2522 770.2536 590.8761 750.1311 610.4237 742.0821 605.8242 722.5346 613.8732 689.1887 618.4726 679.4149 607.549 684.0144 591.4511 660.4423 544.8819 642.0446 536.2579 625.9467 542.5822 613.2982 516.7103 609.8486 495.4381 588.0014 471.866 582.827 456.343 586.2766 433.9208 574.2031 429.8962 577.0778 443.1196 566.1542 446.5692 532.8083 389.6513 519.585 375.2781 551.2061 333.3083 530.5087 335.608 516.7103 348.8314 502.9121 328.134 521.3098 270.6412 524.7593 222.9222 512.111 211.4236 508.0864 195.9006 487.9639 192.451 464.392 167.1542 445.4192 156.8055 444.2695 141.2824 431.0461 135.5331 420.1224 118.2853 379.8775 95.2882 344.8069 100.4626 346.5317 116.5605 335.0331 113.6858 291.3385 133.2334 244.7694 137.8329 245.9193 126.3343 234.9956 112.536 180.3775 81.49 141.2824 68.2666 106.2118 64.817 76.8905 67.1167 13.0734 76.8905 28.5965 61.3675 20.5476 52.7436 24.572 35.4956 1 15.3731 4.4495 1.5749 225.2218 1.5749 276.9654 1 Z" id="12"/>
</g>
</svg>