<?xml version="1.0"?>
<svg xmlns="http://www.w3.org/2000/svg" version="1.2" baseProfile="tiny" width="800" height="800" viewBox="0 0 800 543" stroke-linecap="round" stroke-linejoin="round">
<g id="FRA_adm2">
<path d="M 692.2874 114.0344 704.9338 115.2477 708.2019 114.5682 716.0881 116.7037 723.1928 119.7613 720.2089 122.9645 717.8643 127.7693 710.7596 130.6328 710.5465 132.4771 703.9391 136.748 701.4525 140.388 701.5235 144.028 699.5342 145.3384 697.4738 150.58 698.2553 154.3656 695.6266 155.7731 694.0636 160.3838 690.0139 164.4121 688.8061 167.1299 688.8771 171.2553 691.0796 175.0894 687.5272 179.7486 685.7511 191.8334 689.5166 194.5513 689.0903 196.2014 684.4722 198.3369 685.1116 200.7151 678.0069 204.3065 666.071 203.53 664.437 200.4724 655.9113 201.0063 653.7799 204.258 650.4407 207.4612 653.2826 208.4804 659.1084 207.7524 659.8189 209.8393 653.9931 212.1204 654.3483 214.8868 648.5224 219.546 642.2703 222.3124 636.3734 228.7188 629.0556 230.0292 626.2847 232.2133 627.4215 236.4842 626.9241 240.4154 615.9119 246.7733 607.9546 252.5002 609.6597 254.1989 605.2548 258.1301 605.0417 260.5568 610.5833 263.6144 608.0967 266.3323 608.0256 270.0693 602.2708 271.2341 600.2815 276.136 610.9386 275.2624 618.2564 270.5061 614.633 269.0501 613.4963 266.7205 619.7484 261.673 625.5032 260.7994 629.766 258.761 638.2917 258.7125 646.8173 260.2656 644.3307 264.3909 649.0908 267.7397 645.3253 275.1168 646.8173 276.7184 651.2933 277.0581 651.3643 279.048 659.0374 287.8326 657.0481 291.0358 649.8013 293.8992 646.32 296.5686 646.8884 299.5776 655.8403 305.1105 657.0481 311.3227 659.6768 311.9051 663.4423 315.351 666.6394 316.7099 662.945 321.806 663.7975 325.446 661.0267 327.3388 655.3429 328.1153 654.1351 329.911 648.8777 332.2892 644.0465 331.1244 636.1603 333.6481 639.2863 338.55 642.1993 338.4044 643.4781 344.4711 646.9594 346.8007 651.8616 348.3052 653.851 347.286 657.9006 349.5185 658.0427 353.741 654.2062 359.1282 653.4247 363.2535 649.304 365.7772 651.5064 371.941 651.1512 374.9501 656.8349 379.7549 657.9717 382.861 660.8136 382.4242 667.563 384.2685 672.2521 387.5202 680.6357 388.9277 684.8275 387.1805 690.8665 386.6952 696.4081 390.3837 695.6266 392.7618 691.4348 397.324 683.9749 402.9539 685.8932 407.2733 682.9092 409.0691 679.2858 408.7293 677.2965 410.6707 670.476 412.4664 668.4866 414.8445 664.1528 415.9123 663.7265 418.9699 659.6058 420.4744 656.1955 420.3288 653.2115 422.2702 652.0748 425.9587 648.3803 428.0456 641.3467 428.8222 640.8494 431.5886 633.5315 435.4712 639.3574 435.7139 638.0785 439.1598 621.5956 443.2366 621.3825 446.1001 616.4802 444.1587 611.1517 444.8382 609.4466 447.3134 601.4893 445.0809 597.5107 444.9838 591.6138 448.1385 590.7612 444.9838 584.1538 442.8969 580.5304 440.5187 578.8964 441.9262 575.0598 439.0627 564.4738 439.0627 566.6763 436.3448 565.4685 433.2387 561.8451 430.8606 558.0085 432.6563 547.2094 432.3651 543.7281 427.172 541.2415 426.8323 537.1918 428.7736 538.0443 431.7827 526.5347 431.6371 522.1298 430.715 522.1298 426.7352 517.5828 425.4734 513.8173 425.9102 500.7447 425.0366 496.1976 422.6584 494.2794 419.9406 489.8745 420.2803 483.5513 422.707 478.8622 426.2499 470.8339 429.1619 463.0187 435.6168 458.4006 434.7432 454.8483 435.3256 446.891 439.4995 438.8627 446.6339 434.6709 444.4499 432.3974 446.9737 437.726 450.371 436.0919 452.9433 437.726 455.3214 431.8291 459.5924 432.9658 461.7278 436.5182 461.1454 436.234 470.9492 437.5128 476.6276 441.9888 477.7439 443.4097 480.6073 439.6442 482.8399 436.234 480.0735 429.7687 481.0927 425.4348 480.8985 423.1613 483.1796 418.6143 483.034 416.0566 484.9268 416.2698 487.402 410.515 486.5284 405.6127 487.5476 401.7762 484.6356 392.9663 482.0633 385.9327 483.4223 385.2222 485.1209 379.3964 486.8196 374.0678 481.6265 367.8868 479.1999 363.766 479.0543 364.2634 475.026 367.1052 474.298 361.7057 471.8228 356.8034 471.8228 353.8194 470.1726 349.7698 471.1433 348.0646 473.0847 343.0913 466.387 332.3632 467.018 329.2372 463.5721 320.9957 461.6793 319.0775 462.5529 312.1859 459.738 306.9284 458.5732 303.8024 463.8633 305.1522 468.0372 296.7687 467.4062 293.5716 467.843 289.5929 467.8916 287.6036 466.2414 283.9802 469.0078 281.9909 466.6297 277.7991 465.562 267.6394 468.3769 261.6715 466.387 258.6875 463.0382 250.5171 459.6894 247.32 461.0484 242.844 462.2132 239.7179 460.466 236.0235 462.9897 234.1052 460.2233 226.8584 456.5348 225.7927 452.7006 222.5956 453.5742 215.0646 453.4286 211.5833 451.3902 204.6207 450.4195 198.2265 448.4782 192.7559 445.8089 192.3296 449.3033 187.4274 448.2841 185.7933 445.7603 188.9193 443.7219 190.6245 440.2761 190.6245 436.7817 183.875 434.5491 174.852 433.3843 171.5128 434.4035 169.2393 430.084 174.9941 428.6766 178.6886 426.8323 183.3066 420.9112 187.0721 415.2813 187.6405 411.7869 191.406 399.1197 194.7452 386.6952 198.0844 367.7186 198.0134 364.8551 201.3526 358.5458 207.3205 359.5164 209.523 356.4588 203.484 352.6732 198.0134 355.6338 199.5764 347.4316 202.9866 322.9222 203.555 312.6331 208.1731 310.6918 222.9509 320.4956 225.2954 324.2812 226.219 328.6977 230.3397 330.3964 227.8531 321.806 225.9348 317.535 221.4589 312.4875 216.6987 309.0902 198.7238 300.0145 198.3686 296.1803 203.3419 295.1126 207.5337 289.6283 207.4626 284.2411 209.0967 283.4646 206.3969 278.9024 199.1501 275.7477 200.9263 272.2533 205.1181 269.4384 205.8285 266.4779 200.2158 268.6133 195.5267 267.9824 192.0454 265.0218 186.0064 265.0704 184.0171 261.9642 177.1966 261.1877 166.6106 256.3829 164.5502 250.6074 159.5059 245.5599 148.4936 238.6197 149.2751 234.4458 153.1827 231.2426 154.8168 227.9908 157.4455 226.9716 153.4669 223.3316 142.8098 221.2932 146.5753 219.7887 146.8595 213.722 140.1811 215.5178 132.5791 212.2175 125.6875 207.9465 130.5897 203.5785 127.4637 199.2591 119.5775 199.6473 111.1939 201.5401 110.8387 198.3369 115.2436 198.2884 116.1672 195.4734 112.9701 194.0174 93.9295 197.0265 84.8355 189.6494 80.0043 188.4846 75.5994 189.8436 72.9706 187.9022 71.9049 183.874 71.1944 185.9124 63.2372 185.427 53.5037 184.0681 50.3066 180.4766 42.9177 181.4473 38.9391 180.0883 36.2393 181.3017 34.6052 184.3108 28.8504 184.5049 26.0085 182.0782 25.0849 179.1177 21.6747 174.9923 5.547 171.1097 7.8916 169.5081 24.3745 166.7902 28.211 167.955 30.2003 165.4313 27.6426 161.5971 20.3248 159.8499 14.0016 159.8014 14.57 156.5982 22.4562 157.6174 28.0689 156.404 27.9979 154.123 20.7511 154.8024 18.6907 151.6478 11.4439 154.1715 2.9183 152.2302 1 149.852 2.7051 146.94 2.0657 144.0765 6.0443 141.2131 11.1597 141.0675 13.7885 138.3496 18.6907 138.2525 27.2163 135.292 29.9161 136.7965 34.6763 134.9037 46.6122 134.0787 48.1042 136.6509 52.7222 135.6803 54.0011 133.5933 59.8269 133.4963 64.9423 135.7773 68.5657 135.6803 68.1394 130.0504 69.3472 127.9634 74.3205 126.3133 77.0913 128.5458 84.5513 126.7501 89.6667 126.3618 95.6346 124.5661 96.7003 127.3325 100.1816 127.2354 100.1106 130.2931 103.5208 130.3901 104.8707 133.4963 110.9097 136.7965 110.8387 139.9027 116.8066 142.2323 122.9167 142.1352 128.8846 139.0776 138.1207 135.4861 140.4653 135.7773 145.1544 140.4851 147.8542 138.7864 153.3248 137.3304 157.1613 142.3293 158.4402 142.0381 154.8878 137.3304 157.0903 134.9037 164.0529 133.9331 163.7687 137.2819 168.6709 139.2717 176.4861 138.5923 181.1752 137.0877 183.804 137.8643 183.946 134.9037 180.0385 130.924 179.5411 125.6824 180.7489 121.3144 178.0491 113.0637 179.0438 109.7634 172.6496 99.6685 167.0369 96.7079 164.6213 89.0396 165.2607 85.4482 163.3424 80.7404 159.7901 80.061 160.7137 76.9548 166.1132 78.9447 176.9834 80.6919 183.804 80.5463 187.7115 78.4594 195.953 78.8476 199.2212 82.8759 195.0294 85.4967 195.1715 87.6807 201.9209 93.8444 203.6261 97.2418 203.6971 97.2418 203.6971 97.1933 204.5497 97.533 208.031 95.6402 214.9225 95.349 221.3878 97.4359 234.5315 98.4551 244.6912 98.6978 251.0855 100.8818 259.0427 101.4157 268.9183 98.6007 274.7441 94.9607 283.7671 93.0679 276.2361 91.9516 271.3339 88.3116 279.0069 77.6343 285.3301 76.1297 299.2553 70.1601 310.1255 68.8983 324.2639 66.4716 334.6368 63.2684 346.3595 56.9105 348.4199 55.6486 353.3932 47.2038 353.8905 41.6225 356.6613 41.1371 354.0326 39.4385 355.3114 32.5467 354.2457 22.84 356.8745 19.103 355.3114 14.2982 363.2687 9.7846 375.3467 6.1445 384.2986 5.4651 397.016 3.2325 399.0764 3.8149 409.8045 1 411.0123 5.9989 413.7831 8.9109 412.0069 10.6582 413.641 16.5307 418.6854 16.6763 422.4509 21.287 428.4188 22.8886 431.3317 20.2192 436.9444 18.7632 442.5572 18.5206 445.6122 21.9664 449.5908 28.7126 450.0171 32.4497 454.7062 34.5366 460.1058 32.8379 467.9209 34.5851 470.7628 37.0118 470.8339 41.8166 475.9493 42.7873 480.9936 42.4961 484.9722 43.9036 491.7217 42.1078 494.3504 44.3889 501.8814 47.8348 498.7553 50.1644 498.5422 52.7366 502.4498 57.8326 498.9685 59.1916 498.4001 61.7639 502.1656 63.8993 507.9915 63.6567 515.6645 65.3553 522.6271 62.9772 527.3162 62.5889 528.3819 57.2502 535.4866 52.9308 538.3285 55.8428 535.7708 58.0268 535.1314 62.3948 539.11 67.3452 537.4049 69.3351 540.8862 73.4119 544.7228 72.6353 550.8328 75.1591 555.0246 78.605 560.3531 78.702 566.179 82.6818 569.0208 83.9436 573.3547 88.9911 581.5962 86.7586 591.4717 86.6615 592.4663 88.4087 597.0844 89.7191 599.7842 92.0487 608.0967 91.4178 610.7965 89.3794 614.562 89.0882 620.0326 91.5634 624.4375 90.5442 630.9028 93.2135 634.4551 97.2903 633.1052 98.4551 637.6522 101.4642 638.789 104.6189 642.2703 107.6765 647.5278 107.9677 648.0251 105.2498 654.0641 105.2983 659.89 107.3367 660.8846 109.8605 673.602 110.2002 680.3515 106.8999 686.8168 111.996 692.2874 114.0344 Z M 86.8248 206.7817 92.1533 208.3833 96.7003 212.6057 88.672 212.2175 86.1143 208.9657 86.8248 206.7817 Z M 789.977 514.1439 790.5454 519.4341 789.3376 525.3066 785.6432 528.4128 783.867 535.0133 781.3803 537.1973 782.0908 539.1872 779.7463 541.5653 772.9257 539.5755 773.7073 538.2165 767.4551 535.1589 763.5475 534.528 756.0166 531.0336 756.9402 526.7626 760.7057 526.1317 761.0609 523.3653 756.0166 522.6858 751.8958 519.7738 755.0929 517.0074 756.8691 512.5423 746.8515 510.5525 748.6987 505.8933 753.4589 504.1946 750.5459 500.3119 746.9225 499.6324 743.8675 497.1087 744.1517 493.129 750.5459 491.8186 744.2938 485.4121 748.4856 483.4223 749.4092 477.6953 752.8194 475.1231 756.9402 474.7833 757.2954 472.7935 761.1319 471.4831 769.0182 470.7065 774.7019 465.7076 782.0908 466.4841 783.7249 468.9108 787.0641 465.562 786.922 462.1646 785.0748 460.1262 787.5614 455.5156 786.922 450.8563 793.4583 451.5358 795.1635 462.3102 794.0267 463.7177 792.8189 469.8814 797.1528 475.0745 797.9343 481.0927 797.437 485.8489 799 490.7994 798.7158 499.5354 790.4744 509.2906 789.977 514.1439 Z M 189.4167 281.3776 194.461 284.4352 198.1554 284.6294 199.2922 288.6576 201.5657 290.4534 201.1394 293.5595 198.3686 294.6758 197.0897 290.7931 190.4113 286.7163 189.4167 281.3776 Z M 183.5198 269.6811 188.0668 272.6416 195.6688 273.6123 194.6031 276.2331 186.2906 272.8357 182.1699 272.9328 183.5198 269.6811 Z"/>
</g>
</svg>