<?xml version="1.0"?>
<svg xmlns="http://www.w3.org/2000/svg" version="1.2" baseProfile="tiny" width="500" height="91" viewBox="0 0 500 91" stroke-linecap="round" stroke-linejoin="round">
<g id="ne_50m_admin_0_countries-French Southern and Antarctic Lands">
<path d="M 462.8784 74.3371 464.9939 74.4915 466.2885 74.2496 472.105 70.7726 473.6286 70.685 473.4845 73.3462 474.9798 74.543 473.0882 74.8493 469.503 74.718 468.682 76.2391 472.3006 78.1873 474.1022 78.455 475.5743 78.4318 478.3179 77.9892 480.5235 77.2891 483.9388 75.6626 485.9772 75.0346 489.8531 75.0063 491.8709 73.4646 492.8 72.9936 495.0674 73.0606 497.1238 73.6602 498.3514 75.0577 499 76.7589 498.5084 78.4473 497.1444 80.0841 494.635 81.0853 495.2038 82.2795 494.5372 82.8869 493.2787 82.9203 492.2055 82.645 490.6278 81.2423 488.731 80.4882 484.1807 80.5397 482.1372 80.6349 481.7821 81.7081 480.7011 82.5317 479.5738 82.9847 478.0348 82.7865 477.7517 83.2446 478.5701 84.3667 480.5647 85.7874 484.0031 86.7783 486.0183 86.9816 486.2963 85.0951 488.731 84.8738 490.8903 85.4348 492.4551 86.8272 491.1812 87.2827 490.059 88.0214 489.8274 88.9762 487.6372 90.0134 486.3401 90.1241 482.2247 89.6171 479.7772 88.446 479.1929 87.6199 477.6848 87.3085 475.981 88.374 474.1588 88.6056 470.5943 87.7203 467.3025 86.2919 465.2436 85.754 462.0419 85.4091 460.2712 88.6571 457.8211 90.0289 454.6503 90.1575 453.1241 89.8873 452.2825 88.6133 452.5038 87.2518 453.0134 85.9496 454.0094 84.6164 454.6348 83.1597 454.3672 81.7853 453.2219 80.7765 453.8267 78.9697 452.7046 77.5542 453.0932 76.5119 454.9334 75.7964 454.1536 75.1736 453.1756 75.0088 452.4755 74.1827 451.9325 73.1867 452.6454 71.3105 453.7083 69.5037 453.5796 67.4628 455.3786 65.5351 456.9177 63.3809 458.0707 62.5213 459.5146 62.3952 460.1477 62.9975 460.4591 64.1736 459.8929 64.9354 461.2415 65.2829 461.5941 67.7871 460.7499 68.8114 460.6264 69.8048 458.8686 71.9127 459.3807 73.6088 462.8784 74.3371 Z M 465.4495 73.0014 463.8203 73.2098 463.3185 72.3528 463.3802 71.2178 462.4743 70.317 461.9621 69.3158 462.4125 68.3636 465.0274 68.2555 467.7246 68.5618 468.4092 70.1626 466.4712 72.3528 465.4495 73.0014 Z M 5.6198 3.9803 3.6998 4.212 1.9831 3.6689 1 2.2328 3.1773 1 4.2917 1.8442 5.1153 2.7887 5.6198 3.9803 Z"/>
</g>
</svg>