<?xml version="1.0"?>
<svg xmlns="http://www.w3.org/2000/svg" version="1.2" baseProfile="tiny" width="500" height="398" viewBox="0 0 500 398" stroke-linecap="round" stroke-linejoin="round">
<g id="ne_50m_admin_0_countries-French Polynesia">
<path d="M 2.4988 258.7281 1.8996 258.9773 1.27 258.383 1 257.469 1.2173 255.9958 2.7991 256.9673 3.4319 257.6128 2.4988 258.7281 Z M 56.5881 287.77 55.5655 288.6233 54.2026 288.0257 53.5954 287.2044 53.3765 286.3352 53.6928 285.2998 56.7479 285.4436 57.6107 285.8974 56.5881 287.77 Z M 4.357 265.9342 3.0596 265.9854 1.8804 265.4741 2.1776 262.1059 2.494 261.4156 4.3123 262.5533 5.8398 265.4932 4.357 265.9342 Z M 72.6925 292.5155 77.3997 294.0399 78.2769 296.5101 77.2655 298.1526 74.8863 297.7468 73.7087 296.8488 72.0518 293.9025 67.4517 294.5671 64.2704 293.9855 62.5064 290.1444 62.4345 288.3996 63.2063 287.3322 66.5872 286.1786 70.8055 287.0286 72.4129 289.2081 72.6925 292.5155 Z M 409.6516 30.8984 414.5553 32.5985 416.0972 32.4163 414.5393 34.094 409.6532 35.0048 408.0362 35.8229 406.0597 35.2924 405.0004 33.3526 409.6516 30.8984 Z M 408.4932 38.6254 406.0629 41.1851 406.0549 38.4593 406.9305 38.1045 407.7262 38.1045 408.4932 38.6254 Z M 421.8637 57.7353 420.6654 58.2946 420.5791 54.7985 422.1322 55.4632 422.7361 56.0225 422.4773 56.978 421.8637 57.7353 Z M 375.348 5.2182 372.1428 5.9884 370.6089 5.8478 369.4553 3.1762 369.8691 1.5241 370.3804 1 375.837 1.6519 376.294 2.8631 376.2141 4.0135 375.348 5.2182 Z M 375.249 22.088 374.5379 22.6824 373.207 20.7267 372.9992 19.9086 375.4024 18.886 376.7062 19.4292 375.249 22.088 Z M 351.2386 297.9673 351.3999 298.5905 350.2096 298.5074 349.858 298.2933 349.8852 297.13 350.7512 295.7208 351.4271 294.532 352.8076 293.4231 355.2699 292.311 356.4602 291.8509 356.8389 292.1225 356.3867 292.2887 352.3203 294.6119 351.0484 296.2353 350.4812 297.3729 350.5883 297.7244 351.2386 297.9673 Z M 392.2466 6.1929 390.1263 6.4454 389.7731 4.8284 390.4283 3.9719 391.3374 3.5693 392.9544 4.071 393.8124 4.7804 393.7613 5.3876 392.2466 6.1929 Z M 355.297 315.0895 355.738 316.2751 354.9471 315.7191 352.4209 314.5622 352.1429 313.594 355.297 315.0895 Z M 350.5675 308.8548 350.8024 309.756 349.58 309.1616 348.4216 307.4999 346.354 305.4419 345.8667 304.5951 347.4501 305.4004 348.4935 306.6019 350.5675 308.8548 Z M 499 320.471 498.3401 321.19 498.2762 320.4997 497.359 320.161 496.0872 319.4675 494.3599 318.6622 493.4252 318.5312 492.9586 318.0647 493.6074 317.8154 494.6731 318.1797 496.1703 318.9147 497.8959 319.6529 499 320.471 Z M 476.8191 313.8496 476.8319 314.4696 473.6826 311.341 474.9241 311.5871 476.8191 313.8496 Z M 426.6172 396.1564 425.6681 396.7668 426.0228 395.9391 425.291 394.124 424.572 393.862 425.291 393.3411 426.32 394.7216 426.6172 396.1564 Z M 295.529 240.3628 294.9474 240.7175 295.692 238.1194 296.5309 237.7935 295.529 240.3628 Z M 265.1369 257.4914 266.9169 259.0988 264.5489 258.0059 261.5339 257.5361 262.6827 257.2485 264.3476 257.29 265.1369 257.4914 Z M 260.8644 257.9835 259.5717 258.1688 256.4049 256.2195 257.6224 256.2195 259.4359 257.437 260.8644 257.9835 Z M 212.4265 232.5015 212.2204 233.9747 211.6068 232.5526 209.5936 230.2773 208.8474 229.2611 209.7374 229.4241 212.4265 232.5015 Z M 198.182 248.0035 198.3274 248.5596 197.6563 248.5276 196.4419 246.8691 196.0073 245.431 195.2356 243.8045 194.1746 242.6189 194.0548 241.526 194.0212 239.8035 195.2228 242.4431 196.3604 244.5618 197.1897 246.3034 198.182 248.0035 Z"/>
</g>
</svg>