<?xml version="1.0"?>
<svg xmlns="http://www.w3.org/2000/svg" version="1.2" baseProfile="tiny" width="372" height="400" viewBox="0 0 372 400" stroke-linecap="round" stroke-linejoin="round">
<g id="ne_50m_admin_0_countries-gabon">
<path d="M 294.799 10.0004 294.4865 14.4724 289.4176 25.4353 287.03 33.8732 286.4237 42.8641 287.8238 50.0988 290.2676 55.249 291.8427 60.8742 290.6239 64.7963 288.18 66.4713 289.8551 68.4433 293.5552 68.9183 299.843 67.2057 309.5059 64.2087 322.1689 59.8773 330.5004 57.5428 344.251 59.0054 351.5888 60.6492 355.3577 63.6993 359.4078 76.6092 361.4204 78.5687 364.7455 84.0595 367.5269 90.6504 368.1207 94.0005 367.8207 96.41 365.0143 99.9789 361.8704 105.2197 360.7641 108.3948 358.1328 110.7481 354.7951 113.0731 345.6135 114.0044 344.2072 115.3857 341.6321 120.9703 336.7882 125.7018 334.5818 130.1707 332.6255 136.1334 333.013 143.5275 332.0442 154.1591 331.0567 161.3594 333.4881 163.872 344.4572 165.6346 346.5948 167.0596 349.5074 171.5098 353.2451 175.6975 363.2955 178.3351 367.1956 181.5415 370.3583 185.0479 370.7708 187.923 368.4894 199.4734 366.2956 210.5614 367.1519 218.9992 367.9769 227.0557 369.1707 238.7937 368.6394 245.9565 365.8018 250.3254 365.8018 253.7568 367.1019 257.8882 364.5893 269.3137 362.9642 271.245 358.4703 273.3763 356.1077 276.4452 355.3514 281.2641 352.9263 287.8644 350.4387 290.277 350.4387 293.3459 352.8388 295.5897 352.8013 299.0211 348.3199 303.1025 345.6073 306.2339 339.6195 307.7527 332.7755 306.1401 331.1692 303.865 332.8255 300.3211 332.238 297.4835 329.8754 294.5084 326.2128 286.8331 322.9751 285.2143 321.1688 288.3519 315.5999 294.1834 305.7682 301.6587 298.8804 302.2587 286.1612 299.9774 275.4983 296.4085 270.4793 287.6331 267.3355 280.4016 262.7978 271.9888 257.6851 267.9949 252.2286 265.4448 249.7973 265.2697 242.0032 269.9512 239.6656 271.8013 239.6844 275.7327 240.4094 279.3953 241.6157 281.1704 242.6345 283.5205 242.4532 287.1831 241.0532 292.0708 240.5782 297.471 216.1334 302.7587 211.8958 300.8524 208.8269 298.4211 205.1205 298.8461 194.5201 301.6149 190.6262 299.6836 186.7573 298.2773 184.9822 299.4523 184.8197 301.7649 186.626 314.4592 186.0573 319.2969 183.6634 325.6096 182.4259 329.9035 188.9074 331.0973 191.2512 333.0974 193.5326 336.2913 196.6577 339.2727 196.8702 341.0727 193.3201 344.3916 192.1075 348.4793 193.7951 351.6794 198.2077 355.017 204.6517 358.4797 207.7956 360.7422 207.4831 362.8173 204.508 367.2488 203.3517 370.9864 201.3141 374.3678 201.7329 377.4804 204.633 380.3805 204.3205 382.9744 202.3517 384.9432 198.339 384.5307 194.9451 384.8057 191.895 384.0057 182.3634 373.9553 180.282 373.6553 166.4565 381.3868 163.0126 384.5682 160.1687 389.1246 156.3373 399 150.0559 393.2498 144.6306 382.7306 138.3116 376.2804 125.0111 365.8299 121.4735 358.1484 106.2541 341.1915 84.397 324.2471 68.6089 309.5402 66.2151 306.2776 68.8777 306.6776 84.1283 314.0092 86.2096 313.1904 87.9722 311.5466 81.3844 307.7027 75.0967 304.6775 69.1964 302.79 63.2899 302.9525 59.9773 299.8461 57.8272 295.1147 56.7397 291.0708 54.1271 286.8393 45.7455 278.1203 43.7142 274.7514 39.1327 270.1449 41.9204 269.5449 50.902 273.9388 51.702 272.1888 50.927 269.6074 41.9016 265.4323 37.0014 265.1572 35.8701 262.2259 36.5389 258.832 30.0824 246.1252 23.3821 236.6124 22.3258 232.1184 40.4078 252.8005 42.8266 253.1568 46.008 252.963 53.4958 250.6442 52.0708 247.8816 48.6956 244.919 45.4205 246.2815 41.1641 246.5628 38.9327 245.3252 37.9327 243.1939 42.1891 233.1497 40.3453 233.656 38.989 235.4498 36.6514 236.2999 33.045 236.8249 24.1384 231.4434 16.2818 216.9241 14.2005 213.949 12.1004 208.8988 10.0316 206.8175 1 186.1729 4.4626 187.7042 8.569 193.6857 16.5694 192.4294 19.6945 188.9668 22.4258 189.098 25.2197 188.3042 28.7386 185.0416 38.989 170.8285 41.7016 152.0747 40.8203 140.9336 39.3203 129.8801 42.7141 126.3549 44.0517 128.6831 44.7142 132.6083 46.3143 135.5178 49.9644 138.121 56.7584 138.8148 67.2589 142.9087 70.9965 145.515 72.0153 140.3086 84.097 135.8678 80.4469 134.274 69.7089 136.0272 54.9771 129.405 50.0894 125.183 45.5267 117.1952 40.7891 113.0106 41.1203 109.2511 51.702 105.7947 54.4959 106.1885 55.6271 110.3168 58.471 112.0106 59.5523 111.4481 60.0211 107.9198 60.0586 98.4601 56.8272 84.9002 57.8147 82.2969 60.7148 81.3563 63.2962 79.5625 65.0963 79.2249 68.6777 79.5625 70.4777 82.7001 71.4528 84.4252 75.0654 85.2252 78.0343 86.8971 80.5906 86.4471 82.7095 84.4908 85.8283 84.0876 95.4537 84.1158 104.1916 84.147 121.586 84.2064 138.9742 84.2626 156.3686 84.3189 169.4691 84.3626 169.4254 76.6155 169.3566 64.6556 169.2754 50.5269 169.2004 36.9702 169.1316 24.4447 169.0441 9.6253 169.7629 5.3752 170.6192 3.6095 170.3066 1.1594 183.7822 1 208.1519 2.0907 218.8023 1.9407 221.8274 2.1407 235.1342 1.3969 245.9159 2.3344 250.4973 3.3782 254.6162 3.9064 267.5292 4.547 284.3861 3.7376 290.1114 3.9282 293.2865 5.9908 294.799 10.0004 Z"/>
</g>
</svg>