<?xml version="1.0"?>
<svg xmlns="http://www.w3.org/2000/svg" version="1.2" baseProfile="tiny" width="500" height="188" viewBox="0 0 500 188" stroke-linecap="round" stroke-linejoin="round">
<g id="ne_50m_admin_0_countries-Georgia">
<path d="M 258.4817 184.202 258.6416 182.7999 258.0313 180.6023 255.7211 179.0367 252.4955 178.0269 246.5673 178.3937 241.0751 177.3549 237.1593 174.5833 236.2803 172.4692 238.5324 170.7511 236.876 169.3235 230.0398 165.9236 218.8518 157.4418 212.5241 155.5421 210.0105 150.2351 207.4968 149.1054 202.1644 148.5969 196.5414 149.1127 195.3209 149.7156 193.6064 150.5656 189.1821 157.2021 186.0945 159.4506 178.5027 158.3972 172.2259 156.8352 167.1041 155.9634 157.1803 155.4149 145.8762 155.2987 138.2698 160.0063 134.9861 159.3997 129.2105 157.0895 119.897 155.1752 114.9496 153.675 129.2105 139.6938 133.4532 131.3827 133.5985 126.3445 133.7656 120.0096 126.3482 106.8529 119.9841 88.1821 113.3658 68.7304 108.2078 62.904 86.5802 56.1731 81.5893 48.5305 64.851 38.6648 41.5961 34.3821 36.9902 32.5477 16.7938 20.1466 1 12.1552 4.3782 7.3168 8.9042 2.2387 13.7862 1 28.0762 3.0124 41.2184 5.2972 50.8225 3.6698 62.2502 7.6837 72.6898 12.286 83.1875 15.5298 103.6527 18.5846 111.2808 22.831 120.1948 27.0773 155.1171 29.2422 157.9286 28.5738 160.4931 27.9636 172.2041 26.4198 182.5711 26.7068 193.5047 31.8467 200.5153 31.5524 207.9836 30.7715 217.6095 33.5212 225.165 36.5797 225.8043 39.6927 232.4226 44.2006 251.6746 51.0732 267.2868 54.9562 272.1397 57.6915 284.0105 62.2066 285.2092 63.6378 284.9622 65.483 281.5768 68.8648 280.7195 71.8798 282.3178 73.6015 287.2361 75.2616 297.0146 75.6321 300.5308 73.4708 307.8248 71.927 315.0388 69.1554 324.6938 65.4431 337.8142 62.0867 343.0667 62.0976 348.1158 63.122 351.6465 64.989 357.5456 71.8943 363.4519 62.2211 364.9776 61.5092 370.3608 63.4525 379.8996 66.1405 386.4961 67.5644 390.0632 69.555 400.1468 78.3673 416.4492 77.9241 423.3436 79.2681 427.0414 80.7248 428.6978 82.4393 425.7846 91.1934 421.7598 100.3181 422.0795 102.523 428.6251 105.9593 437.5101 109.599 442.2976 112.5195 445.545 115.1457 452.5702 117.129 460.8521 118.3713 464.7897 118.5312 468.8871 120.7288 479.581 124.8734 480.9468 125.8905 479.1306 128.5603 474.8733 133.3878 471.4734 135.8506 467.7029 136.2466 463.9833 137.3545 462.6756 139.9371 462.5158 143.2899 463.1406 145.6873 464.1068 146.599 467.9136 147.3764 471.6913 154.4015 477.6049 157.9613 486.8168 162.0006 495.0116 166.5992 499 170.8346 498.2445 173.9077 495.5637 180.2935 488.7202 185.5823 483.0318 186.9481 481.0267 186.4396 477.2925 184.7832 469.7952 180.6822 461.6658 177.4529 455.4035 178.4955 451.2916 179.7269 443.1622 178.2811 433.5507 175.4769 428.5452 172.709 426.3294 170.6712 427.8115 167.0533 405.9878 160.533 395.4755 158.7277 390.7315 160.6892 374.6762 170.5259 372.78 171.5284 360.5387 172.8761 360.5097 173.6788 363.3066 175.7929 362.7763 176.4468 342.2022 176.6829 335.3732 177.9615 317.0948 176.3015 311.0794 177.0425 305.9286 178.5935 293.4258 180.3444 284.7951 182.4185 273.7743 183.4937 262.3902 183.5772 258.4817 184.202 Z"/>
</g>
</svg>