<?xml version="1.0"?>
<svg xmlns="http://www.w3.org/2000/svg" version="1.2" baseProfile="tiny" width="800" height="787" viewBox="0 0 800 787" stroke-linecap="round" stroke-linejoin="round">
<g id="us-states-11">
<path d="M 423.1438 1 387.0395 37.1045 384.2622 54.6938 440.7331 90.7983 458.3225 88.021 484.2435 125.0511 489.7981 144.4919 516.6449 179.6706 555.5267 200.9631 577.7447 232.4387 623.1067 261.1371 621.2553 280.5778 650.8794 312.0534 696.2414 337.9746 707.3504 365.7472 709.2019 401.8517 732.3456 413.8865 759.1926 459.2484 760.1184 487.9468 799 502.7588 757.3411 560.1555 749.935 589.7798 732.3456 615.7009 730.4943 642.5477 711.9792 654.5825 704.5731 726.7914 658.2854 720.3111 619.4038 706.4248 603.6659 719.3853 610.1461 750.8609 602.7402 785.1139 582.3735 786.0396 574.0418 749.9352 357.4154 736.9746 125.9767 725.8656 102.8329 676.8006 84.3178 630.5129 96.3525 586.0768 79.6889 535.1602 94.5012 506.4619 93.5754 485.1695 122.2738 463.8772 102.8329 453.6938 110.2388 437.0302 91.7239 410.1834 72.283 362.9699 30.6241 149.1208 1 3.7773 218.5522 2.8515 337.0487 3.7773 423.1438 1 Z" id="13"/>
</g>
</svg>