<?xml version="1.0"?>
<svg xmlns="http://www.w3.org/2000/svg" version="1.2" baseProfile="tiny" width="500" height="425" viewBox="250 0 500 425" stroke-linecap="round" stroke-linejoin="round">
<g id="ne_50m_admin_0_countries-Germany">
<path d="M 200.3561 410.669 190.8941 406.607 181.8037 402.7043 178.7984 402.7043 165.4018 403.4822 165.0141 403.1397 162.6831 400.9149 160.6123 400.2113 159.3645 400.5724 158.5309 401.2175 157.0919 401.1087 151.0866 397.5166 148.6281 396.9989 145.2139 397.4741 141.1838 399.4069 139.4263 401.7751 139.9625 403.1397 142.0546 403.7317 147.5237 403.3335 148.3255 403.7264 148.5113 404.4937 147.9113 405.2424 143.4617 405.8583 142.1767 406.7557 140.8758 406.976 140.0422 407.1141 135.3165 406.1716 128.2704 406.1716 122.5889 407.8442 113.5251 408.5132 101.0736 408.1866 96.5922 406.9442 93.8629 406.1928 91.9036 402.5317 92.4027 397.1078 95.3762 389.9289 96.2046 384.659 94.8824 381.3032 96.6453 376.2748 101.4878 369.5738 104.7215 362.5065 106.3356 355.0675 108.6826 350.217 113.2915 346.8187 124.2349 337.3169 125.1217 336.6027 124.8243 331.8637 121.8774 331.1947 117.5605 329.8327 106.5746 328.1495 96.3373 327.069 91.6912 325.7309 87.6186 322.1521 85.0965 322.1043 80.1584 323.384 73.9884 324.2495 69.5016 323.4928 66.6927 323.6388 65.1157 324.2999 64.3246 323.7158 63.1989 320.6468 60.852 319.845 57.2041 319.1441 54.9369 319.4468 53.3705 320.9707 50.9545 322.0459 48.735 321.6955 41.7845 314.6122 39.9951 313.0458 39.5385 311.6042 37.7969 308.9679 33.6552 306.3475 29.5295 305.5165 27.4693 305.8112 27.6923 302.551 29.3171 297.8253 30.8623 295.3589 32.9225 293.3438 35.1048 291.942 35.5933 289.4093 35.2428 287.0119 32.7207 286.6402 26.3967 284.8694 22.6693 283.0057 19.8869 280.6694 16.2603 277.4516 14.7152 274.1861 14.6355 270.9312 15.0816 269.4763 15.3417 268.4781 18.2674 263.4046 28.5631 258.8647 27.4321 254.293 27.2835 251.4921 24.7826 249.6575 19.786 248.9168 18.4639 247.6451 17.9064 246.4026 21.5754 243.6123 17.1471 241.4061 15.2409 239.1229 9.0709 236.2423 8.4178 235.2521 11.3806 226.8546 9.1187 224.4042 6.3045 223.1537 3.023 222.5404 1.5257 221.3749 1 220.0448 1.5894 219.2191 5.4443 219.4634 6.6284 218.6006 15.8143 213.6678 16.1913 212.72 14.9117 212.1837 13.2284 211.8969 12.8143 210.8615 12.8727 209.4969 17.7842 202.3898 19.2338 199.3579 19.5577 197.2154 19.2551 195.0994 16.4462 191.7728 13.701 189.1179 13.6054 187.0046 11.6143 185.8922 5.9487 180.2293 5.9593 178.0391 9.1611 176.3373 13.632 175.2514 15.1187 174.3567 17.8002 173.7939 24.8994 175.4266 28.0852 176.8444 28.9826 176.5523 31.8552 175.0098 36.8889 175.2514 49.0802 172.1558 50.8961 170.6664 52.266 169.0841 52.3775 168.3885 47.6571 165.3433 47.5138 164.2177 48.1403 162.9486 49.4731 161.9451 52.266 161.2628 55.2395 159.9274 61.8821 156.1362 64.1865 152.8468 64.8927 149.2865 65.0308 146.637 63.2201 144.529 61.3883 143.1643 58.882 143.3714 54.013 143.2626 49.4625 142.0812 46.9669 140.167 46.3509 138.4838 47.4819 137.4245 47.827 136.1236 47.0996 134.8147 47.3916 133.7156 49.4412 132.8341 63.8361 132.8634 64.914 131.8943 65.8856 126.8155 69.4857 119.0818 72.8786 114.7755 73.4468 112.9649 73.3937 102.7595 73.845 97.5904 71.3866 95.1612 66.0184 92.5036 67.16 86.9682 68.9441 82.654 74.3441 77.3495 78.6291 75.8919 97.3302 75.0265 117.9959 75.3822 126.5766 83.392 123.3907 87.5098 128.4084 89.4266 130.8244 88.7257 132.6616 85.1443 133.8881 81.1778 135.6457 79.9778 142.0334 82.9407 144.2794 84.9717 144.4175 91.5027 146.7697 82.6593 145.0175 76.4681 146.2228 70.468 148.7874 67.3485 151.145 65.3626 166.3044 67.4998 183.0409 66.398 189.3702 68.7078 203.6907 80.2885 208.4642 82.1841 214.4908 82.7814 206.1863 80.3044 188.8286 66.2255 183.6303 64.4812 175.6496 63.9529 170.6744 62.5776 167.5363 60.4511 166.6177 58.5502 166.7876 44.3863 163.7929 42.2783 159.922 41.5456 157.5114 42.5146 152.5574 42.5279 151.5166 39.3208 152.7273 36.9446 162.6831 35.3198 169.246 33.1428 169.5381 29.2959 165.3911 26.272 160.4265 20.7259 154.591 15.5117 153.9379 9.4452 153.9592 9.4505 164.1009 9.57 166.5858 9.7983 181.9683 12.6391 185.7276 14.6329 190.4587 14.7258 198.9809 12.87 205.3473 12.055 207.8164 13.1992 211.2837 13.6798 212.0854 13.6798 212.42 14.678 220.3793 16.1223 223.7245 18.4241 227.4414 21.9232 227.8024 26.9596 223.0448 30.5835 219.0944 32.8773 234.0361 32.0092 235.5229 34.088 237.7848 36.3314 245.8345 34.7331 266.0117 41.3703 278.2136 38.1393 281.3357 37.9508 284.1074 43.3137 281.0756 48.7164 270.3179 54.4802 272.702 58.0325 276.1374 58.821 286.2791 58.067 302.336 61.5768 305.6811 60.4829 318.7007 52.3935 323.9043 50.6572 341.0337 49.4147 344.1506 46.2846 351.0905 43.1358 355.5613 39.6978 366.2658 33.1534 377.3421 34.3322 383.8094 35.5853 390.9086 36.2172 397.3706 43.1943 413.7141 50.9067 428.7302 50.235 434.0613 57.5307 436.4135 66.5388 441.0277 69.3662 445.0844 71.2114 457.3181 73.1441 457.8013 73.2663 458.1943 74.4902 458.9429 78.969 459.9677 82.6832 466.2651 97.524 466.143 101.1533 466.0687 102.117 463.7642 107.1985 459.6651 111.4835 454.2544 113.8994 451.2756 116.5888 450.7181 119.5597 457.5199 124.7633 471.6758 132.2076 477.4051 138.574 474.7024 143.8705 473.8794 147.7547 474.9307 150.229 477.198 152.2149 480.6918 153.7176 482.0777 156.03 481.3715 159.1521 482.0352 161.3185 484.6423 162.861 484.4034 163.461 483.1343 165.6327 481.4034 169.5938 480.421 172.485 476.4387 176.4249 477.6493 179.7727 480.7715 183.7205 483.1397 185.7037 483.8883 187.5834 482.3804 192.0542 483.129 193.1985 492.984 196.4906 494.5929 198.0118 495.5486 201.1765 499 207.9411 496.1327 216.5111 493.6106 221.2077 487.9981 228.6626 487.7326 229.3502 487.0848 230.2555 485.4016 231.5618 483.0547 231.7582 479.5131 230.7839 477.0865 229.5361 477.644 226.3183 476.0883 226.1086 474.1555 224.1334 473.3962 222.0121 471.3094 221.1466 463.6952 220.2546 461.1093 219.628 459.1235 220.0793 457.6367 221.582 458.5872 222.9386 460.0049 224.2608 464.2262 226.3555 463.7908 227.1891 454.6951 229.2281 448.9711 231.3202 443.6401 232.4963 438.2082 234.6627 427.4877 237.0972 419.6239 237.7423 417.9832 238.3848 415.0469 242.5105 413.0663 243.3734 411.1654 242.9247 409.7212 242.2504 407.8946 242.8105 405.9937 244.1752 404.0078 244.7141 402.2768 244.6955 399.2025 248.2982 390.2449 249.392 389.1935 251.2584 387.5475 253.4248 386.236 253.9558 382.1899 253.0983 376.5987 252.623 373.3916 253.8098 369.5367 254.4655 364.8322 254.6647 359.5914 257.0355 354.4781 261.1983 351.6002 264.8701 350.0604 266.1896 347.5488 262.7408 344.4851 260.3753 342.3134 259.1488 340.3753 259.1461 339.8656 259.6479 339.8603 261.4532 341.9311 264.4506 344.4957 266.4949 344.9046 268.0055 346.2798 270.7533 350.0126 273.7534 355.8693 276.1321 359.8622 278.4738 362.8198 281.7207 362.8463 282.7189 362.0339 284.0437 360.6375 285.2942 359.4587 286.9216 356.2144 290.211 357.1755 291.65 359.8304 293.466 362.1826 295.6456 365.1986 299.1713 369.3455 305.3493 372.0163 307.89 375.6429 310.5157 379.2058 312.5201 384.8236 312.4591 390.6431 316.2848 396.9936 321.8176 401.7406 324.3557 405.0539 325.1282 407.7884 327.1221 410.215 329.9867 411.1654 331.646 413.3159 332.8434 419.1301 332.6203 426.5957 337.131 431.2152 340.4337 433.6524 343.0992 433.0099 344.1559 432.7126 347.4771 432.7869 350.9975 432.0542 352.8586 428.7143 355.3091 426.9886 355.8321 426.0647 356.3604 415.8115 353.1639 414.9991 353.7082 414.3566 354.1038 411.6115 363.3694 409.7212 365.1508 406.907 366.7889 401.0556 368.3844 396.9883 369.0349 393.8183 369.842 383.7775 373.7234 379.2536 376.0544 376.3226 378.9828 376.3067 380.6686 381.1917 385.6253 386.8254 390.7466 386.8625 395.252 384.3669 398.6211 383.7882 399.922 385.4448 400.4131 388.567 400.599 391.1794 401.1804 392.2944 403.5512 391.9599 407.6822 391.0679 411.5504 390.1334 413.1778 387.6165 413.3079 382.7687 411.6354 378.9881 409.692 377.5438 408.4973 377.4536 407.0689 378.2713 406.1663 376.9226 404.4061 372.2712 402.7786 367.2906 403.4875 363.6109 404.5839 361.2375 404.5202 358.6728 402.9538 354.7277 401.7538 349.5719 400.9627 346.3594 400.1184 345.6851 400.6175 346.0621 404.0078 345.0745 405.4866 319.5822 407.4459 311.8139 409.2805 306.159 411.6539 301.9749 412.684 300.9501 414.1469 296.8085 416.069 292.1305 416.6823 291.0049 416.0531 288.0048 416.9398 282.8915 417.7974 279.5676 417.5239 278.0065 415.9708 274.8419 413.592 273.5728 411.9433 273.7056 410.8867 266.5586 410.6743 262.0506 409.4185 252.4876 409.7132 250.1301 409.1822 249.6363 409.753 248.1973 416.4991 246.307 419.2682 243.2433 422.1302 239.3194 423.7231 236.1866 424.0125 236.3353 421.9257 237.1264 419.4115 234.8698 418.8222 231.4821 418.5328 229.8414 417.7841 230.2715 415.8726 229.4909 414.7549 228.0891 413.4221 224.6909 411.6964 217.4908 409.1424 212.5846 407.8787 210.7474 409.2247 207.2376 410.5787 201.7101 410.1353 200.3561 410.669 Z M 427.9125 37.757 429.2718 41.4155 427.8116 43.2792 421.7001 40.1783 415.5619 40.2208 411.8929 44.9969 409.1636 45.1987 399.6857 40.8606 398.1671 38.7447 397.8538 36.9845 399.2078 30.8915 398.9582 28.9746 401.937 26.8799 402.399 23.8533 407.6663 20.6622 412.3389 20.5427 413.8256 23.2454 416.0611 25.1065 423.9355 27.1932 425.1089 28.141 425.8205 29.4525 422.1567 32.0225 420.9142 33.3393 422.0771 35.4499 427.9125 37.757 Z M 455.2208 61.2661 454.504 62.9679 455.3429 65.5936 453.0862 65.3971 446.3534 66.0104 439.6896 65.1423 438.4047 61.8847 439.4666 58.7493 436.7905 56.5935 434.3267 55.3271 433.9604 53.5191 434.3586 51.6474 445.8384 56.6864 455.2208 61.2661 Z M 295.9854 35.8402 287.6385 35.9464 284.4526 33.772 281.2455 33.2198 282.9711 30.5384 285.2278 29.564 293.3093 31.3109 295.8474 34.7304 295.9854 35.8402 Z M 134.2227 15.7771 132.9695 16.8577 133.5696 9.1797 139.5218 1 142.0387 1.1832 139.4634 3.3921 138.7201 4.9399 137.674 8.0328 138.1466 9.639 151.7237 10.0797 150.1467 11.5134 136.3784 12.4798 134.2227 15.7771 Z M 149.4565 19.8152 147.3378 21.148 142.1661 20.9914 139.2617 19.7383 140.2015 18.4028 142.9466 17.3834 145.2192 17.2267 148.6706 17.8559 149.4565 19.8152 Z"/>
</g>
</svg>