<?xml version="1.0"?>
<svg xmlns="http://www.w3.org/2000/svg" version="1.2" baseProfile="tiny" width="311" height="450" viewBox="0 0 500 722" stroke-linecap="round" stroke-linejoin="round">
<g id="ne_50m_admin_0_countries-Ghana">
<path d="M 357.8628 6.762 365.0406 13.5119 366.6321 17.3971 364.0144 31.9669 358.7628 42.1685 355.4372 51.728 355.8708 56.5022 359.0865 61.271 370.007 68.7726 375.6044 73.6347 382.2335 81.0321 389.8504 88.2539 402.8671 97.6487 408.3767 99.3444 408.1243 101.962 406.3353 105.5674 405.117 140.5842 404.1293 149.6114 403.1744 154.1772 401.9781 167.2543 400.6062 169.1201 398.1258 168.9719 395.8648 169.4658 395.3051 172.0724 396.227 174.7449 404.0744 176.6327 402.3622 178.6082 396.5343 180.4027 393.8454 184.3319 395.0088 188.8318 391.804 192.4372 392.7149 194.8682 394.7893 196.6517 398.0928 195.9986 407.2682 189.9622 411.1206 189.2982 415.8729 190.5549 424.6531 199.7467 425.0263 204.2631 421.4483 219.6669 417.9582 231.5697 417.3106 247.429 421.0093 256.341 420.5045 261.225 416.4985 265.4615 407.4438 271.5857 408.1243 275.7728 412.251 283.5598 419.8898 292.2632 434.8273 303.0136 442.7075 317.0346 442.9051 322.7253 438.2955 328.4324 432.9176 333.3658 431.1615 340.5327 433.587 387.4632 421.7666 407.8444 421.6459 413.6613 422.8422 420.4057 425.9592 424.494 431.9956 425.608 436.9126 429.5591 435.2004 443.8435 432.5773 458.4462 432.1603 465.4868 430.7005 468.8453 426.047 471.5891 424.3568 476.1768 425.5202 481.8565 424.6422 486.0601 427.1665 491.5039 432.5224 498.2811 441.182 515.1008 444.4965 516.4233 445.9782 519.9574 445.0563 523.3927 448.3928 530.8284 458.0072 538.2697 468.0935 544.7671 476.2701 545.6945 478.2018 551.5115 483.5687 558.9198 487.454 562.163 493.655 564.2703 498.7585 565.3952 499 571.6457 489.8246 575.9206 483.6126 582.3686 478.8603 592.2135 472.308 603.0187 449.7318 608.6545 441.0832 608.6984 394.7563 608.9673 351.3544 630.2265 326.38 637.7995 311.0146 649.7736 290.3371 658.2794 275.921 668.6017 245.9583 673.5516 196.8053 689.8116 181.4289 696.2321 165.8769 707.5257 140.5897 720.7784 130.6625 720.5974 110.8575 708.2336 95.964 702.0216 59.5369 692.5389 32.3455 688.8787 19.2081 684.8123 15.5972 684.1154 18.6648 679.6594 26.2597 679.3795 34.2168 680.724 40.2423 677.3326 49.1268 676.8826 51.4261 673.3431 52.1615 664.3982 52.0572 657.1929 55.1687 653.9661 55.948 645.4712 51.6017 626.6376 48.5067 624.4919 32.6528 621.8139 31.4675 618.0768 28.6029 614.1367 25.5683 604.4235 22.1001 589.98 16.5466 572.0682 5.8676 542.5556 3.2335 532.1235 1.4061 521.4939 1 508.79 3.2225 504.0596 2.8823 497.5019 1.911 490.9715 9.4291 475.9408 24.1744 457.5517 27.2694 450.9006 30.0078 446.28 30.3974 439.6784 33.0095 418.2216 40.0612 392.3198 44.4952 382.5353 47.5025 377.2562 51.0969 368.6076 52.0408 364.5687 65.6282 354.422 71.8622 351.6727 73.2561 347.6777 71.1214 343.3095 72.0488 340.3352 75.303 338.848 80.3022 337.6298 83.946 333.4591 78.2114 301.51 73.5908 269.665 73.3219 266.9596 70.5671 262.5585 67.8343 249.4101 63.263 241.7109 56.8534 239.4609 56.8809 232.2117 63.3399 219.9633 65.0246 212.7689 61.924 210.6288 61.4795 205.0423 63.6856 196.0096 62.5935 190.4342 61.4302 184.5239 54.7133 170.5743 53.0779 160.7075 56.5297 154.9345 56.4254 142.2964 52.7761 122.8042 52.1834 110.5008 54.6529 105.3754 53.4621 100.4968 48.6055 95.8598 48.2543 91.3544 52.392 86.9752 51.8816 83.5454 46.7068 81.0486 42.0752 75.056 37.9759 65.5733 38.8265 50.3286 46.5531 22.2866 47.5244 19.9379 56.2717 20.0971 56.3211 21.2879 83.5729 21.0245 114.7318 20.7227 151.9656 20.355 185.7916 20.0202 187.2733 18.7581 192.8597 17.2106 227.0424 20.0696 248.4113 18.6264 257.4769 19.5648 264.0951 21.4745 278.8569 20.2891 286.7427 20.997 292.6858 27.9883 295.0894 27.917 298.4039 24.9646 304.2977 21.5897 310.3122 18.9008 314.6035 13.4296 317.2102 9.2754 321.1119 10.126 326.7148 9.8736 330.4464 6.3944 331.9171 1 357.8628 6.762 Z"/>
</g>
</svg>