<?xml version="1.0"?>
<svg xmlns="http://www.w3.org/2000/svg" version="1.2" baseProfile="tiny" width="500" height="397" viewBox="250 0 500 397" stroke-linecap="round" stroke-linejoin="round">
<g id="ne_50m_admin_0_countries-Greece">
<path d="M 477.4404 302.0438 476.1716 302.9671 473.2599 300.316 473.124 298.9339 476.0866 297.3478 477.5764 296.9824 478.0012 298.0644 477.9559 300.3755 477.4404 302.0438 Z M 57.0232 195.9255 57.7426 202.6239 61.8324 203.8814 67.2648 209.9199 66.7946 213.01 65.6674 214.0693 56.6663 211.2171 54.5081 212.4973 51.874 211.9762 50.2483 208.6397 50.4352 207.4671 48.9624 205.4704 47.7332 204.5782 44.1871 207.2321 41.9553 207.7277 41.9383 205.3004 45.2124 198.6275 46.7419 197.5002 49.4326 199.7038 51.6474 198.8852 53.3128 195.2769 53.4261 191.6798 54.1739 190.6121 57.0232 195.9255 Z M 73.0427 229.4516 79.1605 235.0992 74.238 233.7 68.9869 237.6086 62.3309 233.0429 58.343 228.4206 57.4423 226.5711 61.6172 222.249 65.5144 226.6901 70.2217 227.401 73.0427 229.4516 Z M 61.3396 182.8543 59.0851 183.3019 57.1421 182.996 55.3804 183.2594 53.681 184.3696 53.868 179.77 55.8732 174.0685 58.3204 170.7377 61.7701 169.1913 63.2486 171.8055 62.971 181.1351 61.3396 182.8543 Z M 65.5144 199.0523 62.6481 199.6811 59.0001 194.1298 57.6803 190.3005 59.1927 190.0881 60.6485 190.5327 62.1836 191.9772 62.1723 193.4557 62.7841 195.039 64.3815 196.9451 65.5144 199.0523 Z M 26.0263 135.0562 27.2839 138.3106 20.0558 136.2911 14.7764 133.3852 10.4203 126.2052 1.1416 118.034 1 115.6605 4.5291 113.862 12.1423 112.5847 15.2239 113.9102 17.2178 115.2753 17.8409 116.8416 13.5132 119.9798 12.6125 121.4016 15.9433 124.2226 15.8866 125.3527 17.2915 130.8106 18.9115 132.8697 23.1147 134.5124 26.0263 135.0562 Z M 219.6206 162.5552 222.9004 168.8514 225.9763 170.9756 232.4283 173.4851 235.4589 173.8051 246.4653 178.3368 259.273 179.2403 260.9271 180.546 262.5018 184.0383 265.1132 186.7799 265.7703 188.9127 264.4051 191.2805 266.2971 198.5199 269.526 205.3996 274.3919 208.736 280.4417 209.7443 286.2026 209.6055 287.6584 210.9707 287.0863 216.9922 284.6505 219.3374 282.6679 219.9067 280.9459 219.2921 279.3881 217.8731 277.6887 217.2018 274.3806 217.0857 271.9618 214.6612 265.827 211.3446 264.6997 209.3648 264.4958 206.3116 261.8901 204.0627 259.4939 199.7831 257.2167 198.602 255.9592 196.4608 255.8572 195.5403 246.9298 194.9172 239.5374 194.8888 233.2724 192.4616 231.3351 186.1115 227.6191 184.4036 224.8321 182.6079 222.5096 180.1183 216.641 175.5272 210.1494 171.6865 203.8729 169.1573 197.2113 167.5004 191.796 169.4575 188.6408 168.993 188.0007 167.6675 194.7302 165.0334 203.9806 160.0004 210.5006 158.3378 213.6614 158.1311 219.6206 162.5552 Z M 240.7553 153.5201 238.1666 155.4829 234.1617 154.6247 229.9755 148.0565 240.7553 153.5201 Z M 247.0317 150.9738 244.3184 151.6536 247.0374 147.0256 251.841 144.6266 250.034 148.5239 247.0317 150.9738 Z M 292.666 171.222 286.5368 172.6382 284.9111 172.4144 286.2763 170.6301 286.3839 169.8795 280.2718 166.6167 280.9912 162.3796 281.6993 161.3004 286.2479 163.5068 287.2449 167.1832 292.666 171.222 Z M 298.4382 66.4661 290.9949 68.5393 283.4326 64.6194 283.5006 62.2884 287.4942 57.5585 289.6864 56.1565 295.2434 56.5417 298.4042 59.7903 299.1406 61.3226 298.1153 63.9312 298.4382 66.4661 Z M 227.4831 222.4614 225.1889 223.8946 222.6002 223.8238 220.7705 223.2969 219.8472 222.1499 220.9914 221.6032 222.334 219.3006 223.5802 218.6774 225.4268 218.972 226.5484 219.8897 227.4831 222.4614 Z M 198.6445 323.1643 197.9704 325.6822 192.0112 323.9517 190.3515 321.3545 190.0513 315.5935 191.6147 312.7839 192.6513 311.903 195.3987 315.1404 201.1539 319.8703 198.6445 323.1643 Z M 437.7597 365.1902 435.5449 368.4502 433.296 365.7028 434.2646 362.5306 431.6476 357.5061 436.5985 350.0515 436.7118 346.4318 440.4901 344.5879 439.5554 350.7369 436.6664 355.6651 439.663 359.7578 441.0962 364.4198 437.7597 365.1902 Z M 428.6907 278.5441 422.9014 279.3456 423.9324 274.7403 421.0887 271.1064 425.6091 273.1457 428.4754 275.6069 429.8746 276.0771 429.5517 277.5612 428.6907 278.5441 Z M 424.6235 291.9975 422.8108 292.0655 424.969 289.2644 431.0925 285.4266 440.0142 282.0476 442.9542 281.6709 447.973 283.7725 438.751 287.2393 436.3039 289.0689 429.495 289.4655 424.6235 291.9975 Z M 343.2001 278.0484 338.0283 280.2463 334.4992 277.0741 332.5279 272.0835 342.0049 264.7762 344.2707 265.4304 345.6359 267.3196 345.4263 273.8877 343.2001 278.0484 Z M 327.713 272.1997 323.102 276.6719 319.2671 276.1876 317.6526 274.1398 320.0318 269.9367 325.1696 267.5518 327.5034 268.1721 327.2825 271.2848 327.713 272.1997 Z M 339.5181 311.3989 336.8217 314.4465 333.0264 313.3532 334.5729 312.1919 335.4849 310.688 335.5868 308.5184 334.5559 307.1816 335.2583 306.6944 338.6457 308.9376 339.5181 311.3989 Z M 333.6779 295.0763 332.6696 295.9854 328.2795 292.3204 326.6141 290.1792 328.6987 288.3977 335.1393 292.564 333.6779 295.0763 Z M 417.3614 229.1004 424.4932 231.0122 426.4758 230.8082 429.8462 231.5022 430.7412 235.0256 426.2775 235.5354 418.551 238.7699 415.2655 238.059 411.3342 235.2465 405.0918 234.9548 403.2451 234.1872 406.5873 230.8734 412.6598 229.1967 417.3614 229.1004 Z M 371.24 245.4598 368.521 245.6807 369.3537 243.3611 374.5481 239.3392 381.8102 239.1437 388.4265 237.1271 389.9219 237.0535 386.7611 240.2285 381.425 243.1911 371.24 245.4598 Z M 361.3836 288.324 356.2627 288.7999 354.6427 288.3637 357.7525 287.361 359.9334 286.2961 360.9814 285.0102 366.1758 282.7472 369.5803 279.7988 373.2793 281.8097 368.6513 283.1466 361.3836 288.324 Z M 396.2607 300.2169 391.678 301.6019 388.7664 304.5107 385.2033 302.4488 385.192 299.6363 389.0892 300.4973 391.8253 298.9141 391.0039 297.1325 393.9778 297.9652 396.2607 300.2169 Z M 274.1766 242.7068 270.2907 245.5249 269.6223 241.2991 272.1147 236.8552 275.5191 236.5663 276.7767 238.5206 274.1766 242.7068 Z M 278.8046 256.1886 275.5078 257.9475 276.6011 253.9256 274.9753 251.8268 276.4311 250.0425 278.5441 248.6037 279.5467 250.0906 281.4557 252.5009 278.8046 256.1886 Z M 284.6052 289.8705 284.7072 293.2777 284.3106 294.4985 272.4376 296.144 273.5365 292.2355 274.2616 291.0006 278.1928 292.8189 279.643 291.8899 280.2321 290.8165 284.6052 289.8705 Z M 308.221 247.5416 307.9321 253.5631 306.4027 253.5121 305.5133 252.5831 305.4624 250.2776 306.1138 246.6494 308.221 247.5416 Z M 311.0533 232.1054 309.3426 236.0055 304.8109 231.4738 299.8487 228.3696 297.9907 225.6619 294.9658 224.0277 294.1444 220.3853 297.8095 218.887 299.3786 218.7341 303.1285 223.1695 309.0028 223.685 308.5439 226.4182 310.4019 229.9416 311.0533 232.1054 Z M 326.3762 241.3869 324.2236 245.1284 320.6039 244.5506 314.5484 240.5259 312.4808 238.6991 311.3309 236.9034 313.8177 236.6853 316.8596 238.5801 324.6088 239.5856 326.3762 241.3869 Z M 295.3453 280.7249 294.2861 280.977 292.7679 278.5299 292.4507 276.2499 293.0568 274.913 295.0678 274.7856 297.7981 279.1133 295.3453 280.7249 Z M 374.9957 205.5129 369.4556 208.7927 363.2699 204.0485 362.2502 202.5219 366.7933 200.6073 369.0421 197.656 367.2181 194.0307 360.9134 188.6719 360.6132 184.8653 370.2657 183.2594 375.9473 186.5703 378.8419 186.7969 377.7317 189.9606 378.2188 190.9888 378.6493 200.5903 375.9643 201.9413 375.5225 204.5782 374.9957 205.5129 Z M 393.3321 141.0466 392.3237 144.4878 400.3449 150.1921 403.0809 153.8033 404.0892 157.3239 403.4151 158.3322 400.3732 156.4232 397.8864 155.8171 398.7248 158.3322 401.2795 160.4961 396.7308 161.7338 392.1708 161.6686 378.8703 158.6551 375.8 155.4545 383.7588 150.6368 385.3846 148.6966 379.7483 148.8864 373.7381 154.6105 364.1026 152.0954 361.157 149.7928 360.4999 148.5522 364.2952 143.4767 371.0757 143.6466 374.6671 142.5052 379.1025 140.8993 379.1365 138.489 389.7124 137.9395 393.3321 141.0466 Z M 351.3119 77.4073 344.7522 78.9226 337.5241 74.1445 344.5143 72.227 347.7488 73.612 350.0656 75.2434 351.3119 77.4073 Z M 336.9237 103.1191 334.7315 105.0762 333.1171 108.4551 332.2447 113.2814 328.8629 113.3975 326.8123 112.4204 326.1382 110.5964 326.0023 108.2909 324.5182 108.3815 323.3229 110.8853 322.275 112.0154 318.8705 112.2533 315.1432 110.7125 315.3188 107.3789 314.5711 103.5212 314.8996 102.1702 325.1186 101.836 328.1095 104.6853 331.7236 103.0341 333.2077 101.2497 337.5865 100.131 336.9237 103.1191 Z M 334.8958 251.8552 329.3501 252.212 329.673 247.7851 331.7292 246.6324 338.3908 248.8416 338.068 250.2351 334.8958 251.8552 Z M 283.8971 268.9114 281.7502 269.7837 278.1702 268.512 279.1218 265.3285 281.5916 263.9746 284.22 265.0113 284.6165 266.4416 283.8971 268.9114 Z M 476.4321 338.2747 472.246 339.4926 470.8015 339.334 469.0511 336.649 471.4756 330.1601 469.2324 325.9881 469.0964 324.2208 472.4669 321.7737 474.8347 318.1086 480.59 314.1434 495.4993 309.4503 499 309.0197 498.898 312.6961 493.9075 322.0002 489.4778 326.6509 490.6447 330.3839 483.5526 331.4177 476.4321 338.2747 Z M 244.9585 361.1202 248.9237 361.5422 254.2995 361.4685 255.523 361.123 258.9444 357.7327 263.1589 357.6534 264.9999 361.004 260.7231 362.5476 259.8508 363.42 260.6722 364.1252 263.884 365.5244 268.3421 364.9976 268.478 367.6345 269.475 369.7899 271.6785 371.0757 274.0633 371.3278 279.3371 370.9483 284.5372 370.0929 289.896 368.402 295.368 367.5382 311.7161 368.4049 317.5847 372.0557 328.7496 372.4947 339.1272 374.4179 344.5766 373.149 353.8893 371.9594 355.3791 373.2481 354.1782 381.5043 354.7503 383.9004 357.4353 385.0532 360.092 384.4896 363.3548 381.7847 371.1664 379.6916 379.2781 379.703 386.104 374.2111 388.1149 373.8995 386.863 376.5987 385.8321 382.9431 384.3649 386.6591 383.7135 389.5877 379.1478 391.1002 372.2483 391.3579 359.6615 390.7178 346.9727 391.7545 323.4702 394.5414 299.9224 395.9803 296.7558 395.0428 296.6822 391.3466 296.1724 388.7975 294.6486 387.0132 287.3695 385.4894 280.4247 382.878 253.2005 379.3064 246.7768 377.9044 236.3539 378.6352 232.536 378.5389 229.9076 377.2587 228.1006 375.058 227.2848 368.0735 228.5764 361.1598 230.8309 359.333 231.8675 361.4147 234.5412 362.3692 237.0223 360.2676 236.9997 357.1011 238.2686 354.1555 240.2342 355.3904 241.5427 359.9164 244.9585 361.1202 Z M 388.1546 2.5804 393.3547 3.753 396.3683 5.6648 398.2546 7.4124 401.1266 8.922 403.2621 9.2675 404.9105 14.4365 405.7886 20.8404 404.48 23.6019 400.6564 24.242 388.721 30.2946 388.4321 35.8346 388.5908 38.5168 388.8343 40.4145 390.0806 42.0119 390.0806 44.3146 388.7437 46.7843 383.5322 50.9195 379.9182 54.2078 375.8737 58.6659 373.5852 59.2097 371.8008 59.9943 370.1637 57.5358 361.1683 53.1882 340.3508 50.6533 330.4037 47.4443 326.042 48.0419 317.596 44.4505 311.8067 46.0281 299.5258 52.4093 292.8982 51.7154 285.8118 47.8805 281.2008 47.1752 275.791 49.206 267.1242 56.5502 258.3043 60.15 250.4022 58.7424 239.7697 58.7735 238.6368 62.8804 240.693 65.724 246.5049 70.5729 243.7802 74.2181 245.8025 77.8718 249.5865 78.6139 255.3021 78.4071 265.8723 83.1371 270.4946 88.1248 273.4459 93.5827 267.0109 89.6684 262.7397 85.9071 256.7806 84.5419 248.4932 81.3386 243.2874 80.8033 237.7474 83.0238 237.3169 85.5446 243.2874 90.2519 248.7481 93.1465 251.6427 95.5058 253.5744 100.7229 252.4754 102.496 250.4588 104.1472 243.9785 100.8589 234.0711 89.1671 220.2494 86.8389 217.9382 89.2747 220.6516 95.4548 222.6172 97.8623 234.6262 104.5352 233.6632 105.9514 231.9128 106.5547 218.4707 102.7395 214.5621 96.9333 213.6218 89.5948 201.2162 84.4994 189.5188 78.9538 186.9017 73.6913 189.3092 71.7399 191.0142 67.8766 184.5849 68.5875 180.5517 71.0318 174.0317 73.4053 173.7655 77.2884 174.7964 80.8854 172.6382 86.1167 170.5423 95.2282 171.8678 100.0092 185.9954 113.7176 190.8273 123.676 194.2941 127.4515 201.5221 131.615 209.0617 139.3642 212.2566 143.4031 214.5338 150.0108 208.1894 154.1007 204.4961 154.2706 202.4511 152.4551 205.3118 147.9489 204.9039 145.2044 195.1098 140.9531 190.9633 142.3863 186.1823 145.1563 188.9127 150.2969 191.9829 153.6872 193.5237 158.3633 199.3922 157.9555 191.4901 163.1896 184.0751 165.8633 176.779 166.0191 172.134 166.5034 170.531 167.8431 174.3093 168.8174 177.3965 168.9052 182.4153 171.7347 196.7015 175.1278 203.5104 179.4159 210.1947 179.8068 216.9242 187.6778 228.5651 189.7737 235.1983 197.7183 244.0182 199.2818 251.6144 202.2104 253.8406 205.0059 254.9509 210.0531 255.4437 220.7535 257.0864 228.7237 257.1431 231.2416 256.7409 235.0057 254.6733 236.8552 251.8807 236.9119 246.4143 231.0518 238.0306 224.8859 229.1938 217.5502 226.6844 216.2615 224.6281 216.1397 219.8982 218.6208 206.7562 220.5383 200.5931 223.2176 198.2763 223.8096 197.6305 225.2173 200.5195 226.6816 204.0599 230.035 204.0599 234.6205 206.9828 240.1917 210.7611 241.6305 215.6837 241.5059 218.5047 242.5369 219.2354 244.7546 222.096 247.3433 223.9824 249.2608 223.9031 250.6344 210.172 254.2825 207.3 255.9507 204.8926 256.8032 201.3239 255.067 201.1199 250.6118 196.4013 248.2213 192.0735 246.1735 186.8847 245.2955 182.472 242.2281 179.5944 244.7206 181.8942 253.3535 186.8847 259.2985 195.2344 275.2472 199.024 284.6647 199.7887 289.2219 197.9024 296.787 202.0036 302.4091 204.8133 308.1814 201.7204 307.9633 199.0354 305.9269 194.532 303.5251 185.7971 294.3172 182.7552 288.5704 179.1185 288.1201 172.8081 288.9443 165.886 301.2167 165.9086 308.2494 162.3286 306.5755 159.2583 304.3832 159.6322 296.6907 159.3263 293.459 150.9257 282.9795 147.0737 281.804 145.278 278.2608 142.1852 274.4882 138.1973 275.2104 134.9401 276.7427 134.0394 282.4441 133.7052 287.5565 131.2751 291.4056 122.325 284.1011 113.3239 271.4718 113.086 264.5439 119.6796 258.2279 118.8922 253.7075 112.6498 244.7857 103.6544 239.0474 98.6128 237.3424 96.245 231.2416 91.4188 228.0892 87.5158 226.6221 86.7455 224.4497 87.9237 222.8438 97.3836 216.5702 102.9293 206.7534 105.6823 206.2861 111.3413 208.6142 117.7026 208.0053 122.9254 202.2557 127.3495 199.1288 134.8098 199.531 151.6564 207.2151 169.7606 211.5938 178.79 215.4401 183.8995 219.2524 186.6128 220.0426 190.9009 220.5808 190.7084 217.7286 189.3262 215.2079 192.9006 213.8342 202.6041 213.9078 204.3714 212.571 206.1671 210.4071 204.1618 207.9486 200.95 206.7676 197.5172 206.439 195.257 205.6601 191.609 206.4475 185.9161 204.547 182.9761 202.9808 181.2484 201.3692 171.358 198.1545 161.9774 192.725 159.8645 195.798 156.0748 197.4634 150.6764 197.6957 135.5066 194.2374 126.1883 196.8771 121.1071 197.5682 117.2211 197.6277 112.4402 198.8116 106.9229 199.5197 102.1419 194.5065 100.131 190.6205 98.7148 189.8955 98.6412 193.5463 97.1061 196.4721 90.1046 198.1177 86.077 195.849 82.9785 188.9693 79.0586 180.226 72.159 173.165 66.5681 171.3212 66.0866 167.4409 66.5964 164.3395 73.3146 163.572 83.8168 166.8178 85.9864 166.172 88.3485 164.6766 87.8954 161.3628 86.3773 158.4171 83.4883 158.284 81.4887 158.6324 75.031 158.0235 66.7323 159.6605 62.886 158.1169 61.6058 156.2419 54.6667 151.5884 48.6678 145.3489 38.953 141.1825 32.6086 128.4966 27.2725 122.9594 21.5796 119.0055 22.8145 118.9319 24.9727 119.6031 29.1079 121.7783 33.5036 122.2485 35.9054 120.8069 37.2876 119.4842 38.1883 117.3146 38.5508 114.7825 39.2646 113.9442 42.6237 114.2302 43.6886 113.5986 43.6433 111.3271 41.4738 108.4948 39.5648 105.0054 39.5534 103.3428 41.1395 102.6687 43.7623 101.1534 45.1728 99.2813 47.9598 98.3466 52.0779 98.1767 56.672 97.3553 59.6402 95.3415 60.0764 93.3476 61.9344 87.8586 63.1466 85.1735 65.1066 82.7236 66.1715 79.4183 68.2618 76.3112 72.6462 75.0083 76.6228 73.4732 79.625 69.4712 81.3017 66.0441 81.3131 63.9453 78.8093 60.5154 76.9457 57.1789 77.4385 52.8512 85.3123 52.4886 88.071 52.0836 98.29 51.8514 102.952 49.5289 106.1751 49.7356 112.9104 51.7466 115.9126 50.1576 124.7268 47.0194 133.4276 37.9135 137.1323 36.5484 145.5726 35.9932 148.218 34.9424 151.3052 35.1435 160.7651 36.9874 166.1465 37.2706 172.5306 36.0131 179.5604 33.7897 181.3164 26.0037 182.9875 24.8877 187.3606 24.5762 190.6517 24.6385 197.0074 25.2559 204.5697 25.4627 209.4356 21.8147 217.1055 21.5428 220.6629 21.016 226.6051 21.7524 232.366 21.7099 239.7414 20.1889 246.6182 17.6965 251.9939 17.9089 254.1862 17.4586 255.438 16.9346 256.7806 13.5613 266.8919 13.3546 270.319 13.6888 275.961 13.7766 281.8295 11.9384 283.5912 12.0942 286.5538 17.0337 288.1003 18.464 291.2951 19.7839 298.4099 23.4886 299.6901 22.5143 302.6527 21.2765 311.161 22.9731 319.2727 25.8281 326.1043 30.0171 333.6892 28.8105 342.1068 26.7542 347.5845 26.1566 353.5267 25.8705 357.0671 24.9784 365.0939 26.0518 373.3926 23.803 377.3918 21.7694 378.5417 18.92 377.8676 13.8927 375.9926 8.8653 374.0043 7.0102 373.3699 5.0927 374.5028 3.2998 375.7717 2.0508 381.1758 1 388.1546 2.5804 Z"/>
</g>
</svg>