<?xml version="1.0"?>
<svg xmlns="http://www.w3.org/2000/svg" version="1.2" baseProfile="tiny" width="500" height="195" viewBox="0 0 500 195" stroke-linecap="round" stroke-linejoin="round">
<g id="ne_50m_admin_0_countries-Greenland">
<path d="M 348.7111 1.282 356.5056 1.7692 360.628 2.336 361.4938 2.3174 367.0801 2.5348 372.3848 2.8065 381.2024 3.5143 382.4382 3.7468 381.486 3.9373 379.2937 4.068 368.0252 4.3013 347.5826 4.5869 335.8856 5.1426 332.1648 5.1715 331.84 5.9981 333.4295 6.0433 336.0349 5.9316 345.1974 5.1038 348.6243 4.9675 355.021 5.0365 363.3237 5.347 366.6733 5.2377 372.6474 5.3189 379.6335 5.0816 387.8866 4.5691 390.1435 5.7134 393.1842 6.8584 395.5908 6.7317 397.652 6.7959 398.3495 7.1717 399.4764 7.331 401.8101 7.2454 408.9649 7.5742 413.8743 8.1643 415.7228 8.4392 416.6092 8.8313 417.1111 9.1458 416.3395 9.5328 413.2719 10.2216 409.3895 10.8549 404.1533 11.3417 398.117 11.647 351.7407 12.6681 350.1722 12.9109 349.2422 13.5308 349.8621 14.3368 352.029 14.4628 357.0941 14.0089 365.8542 13.5791 372.2914 13.5997 387.6803 13.9665 392.2202 14.9262 394.622 16.4012 399.9477 16.0697 401.0864 15.8166 401.9234 15.3773 402.5919 14.906 403.093 14.4034 403.6522 14.0612 404.2697 13.8798 405.597 13.7281 408.6528 13.5455 416.6659 13.3676 418.5928 13.4183 419.9767 14.1067 420.2773 14.5091 420.3776 15.0331 420.3332 15.6795 420.1454 16.4483 419.4646 17.2092 417.2469 18.5385 415.4646 19.2625 413.5412 19.7841 409.8541 20.9752 408.5767 21.2932 404.5232 22.6819 403.518 23.3255 403.459 23.7968 404.1561 23.8867 405.3312 23.4435 405.7685 23.1271 406.525 22.7959 412.4975 21.9234 413.7796 21.6802 417.6862 20.642 420.1791 20.2527 422.2288 19.8455 423.3149 19.5564 429.3187 17.5094 432.4481 16.8967 435.7348 16.8955 436.317 17.9325 440.2561 18.0929 441.9663 18.0481 444.7136 18.3004 445.918 18.5088 447.9681 18.6141 450.082 18.8613 451.9464 18.5959 452.4914 18.4295 454.292 17.6754 456.7251 17.0076 458.9812 16.1735 459.729 15.9715 460.9141 15.7877 462.1455 15.7156 465.4987 15.3255 466.3495 15.2981 468.1596 15.4213 476.1537 15.4855 480.5137 15.6867 486.5852 16.2452 490.8162 16.5509 492.7756 16.8218 495.629 17.4025 497.9298 18.0101 499 18.1887 498.9584 18.3816 498.1623 18.6478 492.4635 19.579 490.5987 20.2012 485.2045 21.3752 482.5686 21.7784 479.7041 21.9364 476.5157 21.9745 474.4473 22.1432 474.1408 22.304 475.6142 22.7912 476.2626 23.1381 476.1683 23.4467 474.6185 23.9038 474.0319 24.0075 468.4293 24.347 465.6029 24.9233 461.9134 24.9938 459.306 24.928 455.7234 25.5479 457.1251 26.0521 458.4096 26.2711 462.4021 26.7302 462.4398 26.994 460.5322 27.5271 457.9284 28.1553 454.8489 28.591 453.6911 28.6563 452.2308 28.547 450.8837 28.5704 447.9178 28.7712 445.0942 28.8033 440.0517 28.5193 437.3227 28.1906 435.8869 28.0769 434.0764 28.1086 433.3801 28.2409 430.5267 29.0251 429.1258 29.5606 428.2283 30.108 427.8449 30.7049 427.9752 31.3513 428.3229 31.7941 428.8877 32.0341 429.5646 32.1795 430.7497 32.2555 433.3571 32.1834 434.3822 32.2242 434.6943 32.3553 435.2575 32.7693 435.1569 33.1598 434.6848 33.7088 434.3188 34.3492 434.0602 35.0812 434.1996 35.4812 435.2543 35.5687 435.7495 35.5398 436.3234 35.6713 436.9757 35.9629 437.4661 36.271 437.7948 36.5962 437.6229 36.8639 436.95 37.075 435.431 37.3131 431.6928 37.7832 431.3133 37.9266 431.0195 38.2126 430.8123 38.6423 430.3612 39.0333 429.666 39.3846 429.0367 39.5941 427.8247 39.6872 426.2364 39.6995 424.4528 39.9015 420.2496 41.0798 420.187 41.2105 421.7607 41.5888 421.6941 41.9203 419.7545 43.3414 419.2238 44.0457 418.8035 45.0113 418.112 45.8257 417.1491 46.4887 416.2025 47.2543 415.2705 48.1209 415.4162 48.7868 416.6385 49.2506 418.2546 48.8759 420.2647 47.6619 422.4491 47.1375 424.8077 47.3022 426.8618 47.5423 429.4858 48.0172 431.6825 48.313 433.5797 48.7028 434.362 49.0315 435.1498 49.4946 435.1561 49.7869 433.7655 49.9445 433.3064 49.8946 429.8257 49.129 428.1316 48.9385 425.8835 49.1674 423.9237 49.5132 425.6842 50.9058 427.5648 51.5459 430.9985 51.8382 432.7915 52.1459 434.099 52.5388 435.1221 52.7305 436.4953 52.6462 438.3414 52.2592 440.9171 52.2382 442.0792 52.4303 442.9197 52.788 443.298 53.4566 443.214 54.4361 442.934 55.1736 442.4571 55.6695 441.5303 56.3337 440.7559 56.4545 439.6647 56.4184 438.6503 56.2822 437.712 56.0449 436.2897 55.86 433.4308 55.6611 430.5418 55.2286 428.9242 55.1217 425.4981 55.1767 421.8042 55.4508 421.6597 55.8105 416.3482 57.066 415.2586 57.049 413.784 56.6177 411.72 56.2046 410.5108 56.2077 408.7245 56.7306 408.2801 56.933 408.3018 57.1239 409.6176 57.5758 410.1515 57.68 410.8308 57.7671 413.1926 57.8756 414.2177 57.9941 415.1849 59.397 416.7182 60.2636 417.3741 60.4406 417.9531 60.5044 419.8302 60.4723 422.2478 60.18 423.0923 60.4141 424.8727 60.7005 425.9144 60.7718 427.1806 60.7603 428.6057 60.8688 430.5584 61.6673 429.7892 62.673 431.0127 63.4786 432.9666 64.3092 433.4292 64.613 433.6181 65.1639 433.6621 65.5275 433.8091 65.8594 434.0582 66.1593 434.3172 66.747 434.5854 67.6232 434.5137 68.3389 434.1025 68.8934 433.2882 69.2958 432.0722 69.5462 431.0808 69.4804 430.3128 69.0986 429.2308 68.6918 427.8346 68.2597 425.5123 68.2086 422.0981 69.4848 420.5732 69.5485 419.3347 69.6757 418.0133 70.2322 416.0674 70.5676 414.35 70.4346 411.3338 69.7866 412.4298 70.2195 413.9987 70.7261 414.9754 70.9891 415.6959 71.0461 416.4865 70.9851 417.6248 70.7776 420.1942 70.2017 420.8746 70.1137 421.4497 70.1545 421.9203 70.3244 422.4613 70.818 423.0729 71.6359 422.9949 72.3318 422.2269 72.9057 421.5698 73.2737 421.024 73.4357 421.0224 73.5632 422.4574 73.7109 424.4889 72.9623 425.1329 72.032 426.0629 70.959 427.7082 70.6017 429.5686 70.959 431.0709 71.9607 433.1955 73.8032 434.0915 73.9949 435.2298 74.4374 435.732 74.98 435.5978 75.6232 435.355 76.0902 435.0032 76.3809 434.5636 76.5655 433.7718 76.6835 432.3158 76.777 429.0604 76.5798 427.366 76.5754 427.5759 77.2095 424.1482 77.7553 420.2845 77.97 416.6251 77.5434 413.5883 76.8879 414.5853 75.9714 415.1536 74.9534 413.6858 74.2805 413.3638 74.2662 413.8703 75.3068 413.4442 75.7056 411.7854 76.1912 410.6142 76.4154 410.5108 76.5465 411.0851 76.6598 411.4598 76.878 411.6357 77.2008 411.438 77.5268 410.8657 77.8555 410.5544 78.1316 410.5033 78.355 411.0281 78.6271 412.1292 78.9467 413.3226 79.1048 418.9148 79.1741 421.1543 79.346 426.4669 80.1005 426.7045 80.3322 425.8047 81.684 425.3119 82.9832 424.2813 83.2208 418.691 83.2771 416.8893 83.4795 414.2541 84.0764 411.7216 84.7921 410.409 84.7972 405.2124 84.1726 403.2193 83.7552 398.9413 82.5756 395.7199 80.7802 394.2422 81.5268 393.3387 81.8829 392.4055 82.0675 391.5056 82.0964 390.6382 81.9688 389.6544 81.686 388.0047 81.0297 386.0365 80.3813 384.659 80.0732 384.6067 80.1607 385.4202 80.5421 386.6121 80.9818 389.6266 82.275 390.6857 82.6018 390.5808 82.8339 388.6776 83.0406 386.3669 83.485 385.2365 83.8122 383.4897 84.6059 382.8833 84.7291 380.2704 84.9287 379.4085 84.88 377.4764 84.4428 374.5664 84.1568 372.853 83.9025 370.4706 83.4423 371.2901 83.9461 375.8795 84.7141 376.3805 84.9616 375.4414 85.4227 374.8655 85.591 373.7727 85.6266 372.1622 85.53 370.5153 85.5498 368.8324 85.6849 368.1083 85.8579 368.344 86.0683 368.7448 86.26 369.3112 86.4327 369.8408 86.4311 371.1237 85.9071 372.0961 85.8698 374.6659 85.999 377.2645 85.5902 379.1372 85.4139 380.5425 85.3688 385.6508 84.7442 386.7111 84.0451 388.4249 83.7651 392.236 83.5504 395.9231 83.6605 397.8188 83.7504 399.3548 84.4115 401.414 84.8796 403.131 85.4135 405.1431 85.5894 406.3092 86.3 409.5709 87.0941 411.6471 87.2648 412.9281 87.6427 413.0322 89.246 413.1681 89.9384 412.616 91.8546 410.9496 92.2962 411.282 93.3063 410.8443 94.1234 409.1871 93.8132 407.4891 93.2765 403.4237 92.444 399.6407 91.9085 398.1709 91.4229 396.4392 91.0474 394.0905 89.5177 392.5604 87.6162 391.889 86.6759 390.6026 86.6232 388.9485 86.8751 387.504 87.1413 386.8121 87.5967 381.9046 88.2233 380.1231 88.6523 379.1067 88.6396 375.4414 89.2864 376.9101 89.5962 377.5953 89.6354 379.0766 89.4603 379.9662 89.2369 383.3068 88.625 385.9882 88.5204 386.961 88.2566 389.0107 87.8799 390.4018 87.7801 390.5954 87.8756 390.7448 88.0467 391.7266 90.3677 391.3155 90.9856 390.2104 91.2534 387.849 91.6926 387.2351 91.9053 387.9314 92.2784 390.1514 91.9267 391.59 91.5453 392.3564 91.6843 393.6152 92.2681 395.0339 92.5676 398.6402 93.4647 400.3485 93.959 402.7512 94.4359 405.4699 95.0977 406.1777 95.331 408.6627 95.6748 409.1922 95.7921 410.2197 96.9601 411.0772 97.09 413.5499 97.1641 413.1146 97.6172 410.6997 98.6252 409.4509 98.9468 409.1407 99.1453 409.2596 99.5002 409.332 100.0943 409.8355 101.1875 410.4019 100.1751 410.7971 99.6978 411.3263 99.5548 411.8472 99.5338 413.5357 99.0823 415.2325 99.3247 415.6729 100.4674 415.89 101.534 415.7402 102.4553 415.9272 103.8872 415.863 104.3704 416.2635 104.7894 416.6789 106.5266 417.0948 107.0479 416.2603 107.5157 413.681 107.7192 412.6607 107.4887 410.1068 107.5656 410.1036 107.154 409.9792 106.6823 409.9689 106.3528 409.7986 106.0545 409.6778 104.3403 408.9554 104.7637 408.9126 105.111 408.7205 105.4643 408.2773 107.3148 407.6202 107.7691 405.5768 107.6598 403.5647 107.7272 402.4517 107.6582 398.6882 106.813 397.2314 106.0482 395.9417 104.8995 395.1456 103.8262 394.8438 102.8288 393.9411 102.0173 392.4388 101.3914 390.664 100.8841 388.6166 100.4959 386.8192 99.9949 385.2713 99.3821 383.5674 98.9052 381.7074 98.5654 379.0608 98.4193 375.1907 98.4727 372.5777 98.0897 371.9567 98.1222 371.3475 98.3198 371.7959 98.8839 374.7958 99.1425 377.1093 99.2015 380.1749 99.1647 382.0516 99.3096 382.7404 99.636 383.2141 100.2171 383.4723 101.0524 382.8667 101.7154 380.6613 102.4518 379.498 102.7967 376.1036 103.4586 374.9522 103.6063 372.1179 103.6515 369.941 103.5877 367.0769 103.2578 365.4534 103.1908 362.0935 103.1465 361.3203 103.2621 362.1873 103.6158 363.6124 103.8163 364.6157 104.0547 364.7203 104.5066 364.3586 105.1776 363.9855 105.6461 363.3708 105.9979 361.1658 106.6641 360.2525 106.8748 356.1419 107.5727 355.856 107.707 356.8181 107.6887 359.4167 107.4408 360.1645 107.4479 364.4303 108.0535 367.8287 108.0175 374.7142 107.459 375.2802 107.4697 375.7321 107.5576 376.1892 107.7672 376.6518 108.0991 376.0969 108.4199 374.5245 108.7296 372.0759 109.0354 371.0156 109.2422 370.0024 109.5551 368.1147 110.3068 367.5629 111.0875 369.5477 111.3846 370.4397 111.0087 371.4921 110.1741 372.4391 109.6842 374.6746 109.3519 377.404 109.521 379.5127 109.3242 383.8189 108.5019 384.5893 108.4516 390.925 108.9229 396.6666 109.8466 399.6978 110.1864 403.7057 110.3868 410.9152 110.2957 411.5469 110.4411 411.3128 110.7683 410.8942 111.0455 409.6933 111.4321 408.2345 111.6876 407.3318 111.7597 406.5638 111.9423 404.8381 112.1209 404.3953 112.2658 404.993 112.8996 404.709 112.9978 403.1888 113.0081 400.629 113.4212 398.5274 113.3915 398.0885 113.4521 398.4874 113.6054 398.9116 113.9013 399.3599 114.3401 399.1132 114.6534 398.1709 114.8404 397.4564 114.9014 394.9915 114.6392 394.5927 114.6784 394.9527 114.8665 395.1575 115.1537 395.2074 115.5402 394.6018 115.8646 393.3403 116.1261 390.9919 116.8453 389.9696 117.0509 387.8126 117.2208 387.3579 117.3147 388.2348 117.8668 388.1378 118.0882 386.6794 118.6851 384.4744 119.0574 384.1734 119.2583 383.969 119.7977 383.8086 120.0124 383.2256 120.3213 381.1339 120.9103 379.6513 121.2034 378.9162 121.4434 378.0064 121.8443 376.8586 122.057 375.4731 122.0819 374.162 122.232 372.0058 122.6582 370.5042 122.8 365.7592 123.5367 363.5265 123.6544 361.5952 123.9178 357.6221 124.6212 355.7292 124.8474 354.4166 125.1163 352.9832 125.1931 350.6523 125.0185 349.3955 125.0125 348.6227 125.1183 347.9142 125.3341 346.7429 125.9259 345.7484 125.9718 342.4882 125.5025 342.5544 125.7152 343.4159 126.2229 343.3747 126.5834 341.4359 126.949 340.391 127.0424 338.8506 126.8923 336.8144 126.4978 334.1983 125.6744 330.992 124.4176 329.4493 123.9926 329.561 124.3958 329.9182 124.7899 330.5219 125.1741 330.6442 125.453 330.2866 125.6257 329.8148 125.7128 329.229 125.714 329.1296 125.8118 330.0862 126.4115 330.8403 127.0274 330.7706 127.612 329.8762 128.1657 329.1078 128.4909 328.4654 128.5868 324.6587 129.9679 323.5984 130.1418 323.1163 130.3125 322.7202 130.568 321.612 131.7114 321.1637 132.0604 320.2744 132.5147 319.9017 132.5935 319.7952 132.7785 319.956 133.0708 319.7108 133.5576 319.0601 134.2384 316.8444 136.1198 315.0573 137.8749 314.2738 138.4496 313.7007 138.6932 313.3379 138.606 312.4519 138.6516 312.0217 138.9601 311.632 139.5182 311.2074 139.9436 310.7487 140.2367 307.1646 141.499 306.2405 141.7331 305.4107 141.5849 304.4304 141.642 302.3997 140.975 302.0476 140.7298 300.7354 140.1828 300.779 140.468 300.9992 140.6252 301.1826 140.8562 301.6416 141.139 302.6591 142.6282 301.8543 142.934 301.1354 143.2829 299.3 143.8719 297.3164 144.8597 296.5825 145.1358 296.4201 144.3306 296.5033 144.0902 295.3816 143.7008 295.418 143.9812 295.3023 144.243 294.4892 145.2859 294.2626 145.4661 293.8626 145.4257 292.9892 145.6182 292.0949 145.5271 291.3368 145.0522 291.0373 144.8063 289.655 145.4824 288.9833 145.465 288.8712 146.0333 288.2204 146.551 287.3605 146.7752 286.1624 146.7578 285.4288 147.0643 283.8017 146.7356 283.4247 146.1189 284.7143 145.2736 285.0787 144.9251 284.8422 144.4961 285.1559 143.942 287.6168 142.1846 289.2859 141.2942 289.1888 141.1358 286.9236 140.9417 284.9444 140.6363 283.0159 140.5314 282.1643 140.6355 283.5229 141.1461 285.4439 141.642 284.4984 142.1157 283.6829 142.6187 282.8393 143.986 282.2998 144.546 280.2053 143.9024 279.2139 143.685 279.8441 144.3987 281.6799 145.0748 281.7976 145.2974 281.7853 146.1018 278.2701 146.8104 274.6016 146.9178 271.97 147.1194 267.5284 147.3634 265.8038 147.3638 265.6577 147.6367 270.0023 148.8827 270.6352 149.1109 270.03 149.5402 269.1325 149.8072 267.7205 150.7265 266.9841 151.0434 265.1582 151.4786 261.7963 150.9931 260.0686 151.2101 258.4149 151.0572 258.3805 151.5884 258.8748 151.9761 259.3754 152.939 260.4845 152.8641 261.8945 152.5619 262.9845 153.2907 263.7014 154.5261 264.953 155.1527 265.5091 155.6367 265.7333 156.0938 264.9526 156.5489 263.337 157.1929 261.5452 157.3121 261.6434 157.8215 260.8702 158.1879 259.2249 158.0805 258.4557 157.8251 257.658 157.7039 254.3868 157.5668 257.6802 158.5479 258.8518 159.005 259.3731 158.7341 260.5138 158.6683 262.2003 158.9182 261.9199 160.5731 262.6585 161.9146 262.7469 162.2156 260.953 163.0193 260.9233 163.7698 259.8555 163.979 258.7045 163.9306 258.6443 164.7545 257.8648 165.2682 258.003 165.5898 258.226 165.8778 257.5142 166.4014 256.8714 167.0387 255.9533 167.5968 255.4669 167.5393 254.0062 167.5754 252.2495 167.5286 250.828 166.8038 250.2386 166.5626 249.5724 166.405 249.8283 166.8711 250.2256 167.1516 251.5374 167.6748 253.9531 168.322 253.879 168.781 253.233 168.9807 251.7263 170.2311 251.1916 170.258 250.5155 170.5808 248.4278 170.4727 247.5508 170.3444 244.9763 170.4264 244.1006 170.3159 243.3496 170.3681 244.0503 170.721 245.5233 171.0391 247.1987 171.3579 249.7471 171.5992 249.6548 172.0554 249.0155 172.4297 249.3823 172.989 249.0971 173.3898 248.9751 173.8655 248.3802 174.9714 249.0726 175.7303 249.8275 176.1006 249.74 176.5882 250.0941 177.3685 248.9625 178.0648 248.0238 178.0386 246.6854 178.1951 246.2402 178.5021 248.3628 178.792 248.1703 179.3136 247.5912 179.966 246.9829 181.3792 245.7479 183.802 245.1716 186.2082 242.5186 188.1858 241.5787 188.2405 241.3427 188.3189 240.0506 188.2175 238.0227 187.7612 236.4519 187.6107 235.3915 187.6044 235.2549 187.8313 236.1342 188.1997 237.4781 188.3538 238.5523 188.597 240.478 188.8243 241.1486 189.2648 241.6068 189.7337 241.5391 189.992 241.5352 190.2969 241.8794 191.9371 240.9715 192.5043 240.2796 193.0168 237.8722 192.9455 237.4535 192.7669 235.1293 192.2271 235.2723 192.4805 236.9537 193.2145 237.5395 193.5805 237.1478 193.6561 236.4693 193.6834 235.5227 193.9306 233.8155 193.7971 233.9094 193.4256 234.2334 193.0438 233.4527 193.1087 232.5829 193.3024 232.0775 193.2311 231.6529 193.2525 231.4149 193.0616 231.0861 192.3158 231.4799 191.9407 232.8879 190.9715 233.3359 190.4514 232.9446 190.215 231.9389 190.7726 230.9004 191.6591 230.4397 192.1946 229.7898 192.2987 228.1761 192.029 223.5765 190.7877 223.7135 190.0332 223.6695 189.4085 225.0103 189.3293 225.9854 189.0576 226.858 188.7249 227.8411 188.1189 228.7421 187.1184 228.6261 187.0427 225.9819 188.3197 224.3548 188.7467 223.5662 188.8247 223.174 188.6354 221.8646 188.225 221.0134 188.0385 219.0738 187.7335 218.7316 187.5691 218.1628 187.4392 217.3897 186.1349 218.3898 184.551 219.0786 184.0915 219.5154 183.5584 219.7626 182.8526 219.5939 182.5512 219.0092 182.6546 218.7383 182.8962 218.7811 183.274 218.446 183.5366 216.1345 184.1407 213.8166 184.6298 212.7187 185.0932 212.0057 185.4553 211.4477 185.8113 210.5941 185.7793 209.4166 185.8525 208.609 186.0834 207.4302 185.9416 206.6602 185.5986 205.7322 185.5594 204.6905 185.7246 203.9705 185.7103 204.0303 185.9432 204.5083 186.5164 203.7134 186.5548 202.2043 186.5774 201.4454 186.4114 200.8509 186.1939 200.355 185.889 200.6533 185.4909 203.0805 184.7621 204.1808 184.3403 203.4631 184.1949 201.1321 184.3264 200.7444 184.2171 199.183 184.2836 199.2504 183.1988 198.8705 182.9294 198.8444 182.8019 198.3037 182.4993 197.792 182.424 197.4735 182.3151 194.838 182.0715 194.4938 181.4667 194.3096 180.8445 193.8066 180.0725 192.5451 179.8713 191.8611 179.5366 192.4029 179.1944 192.6394 178.7603 192.0544 178.5623 191.6813 178.2561 191.7359 178.0573 191.2622 177.5202 191.1212 177.1011 191.663 176.7082 193.1531 176.2638 193.6335 176.0848 193.8843 175.8911 195.5953 175.5639 194.1397 175.3326 193.2287 175.297 192.5649 175.4047 191.9514 175.8392 191.3786 176.1276 189.1459 176.2218 188.8176 176.0729 188.6623 175.4594 188.7895 174.9864 189.7163 174.3226 188.6473 173.9931 187.6674 173.8861 186.5536 173.5784 185.5246 173.2536 184.6409 172.8753 183.7806 172.4286 183.5046 172.3719 183.8155 171.9049 183.9905 171.5211 184.0175 170.6961 183.6709 170.3539 184.4413 169.6496 185.4774 168.8793 187.7723 167.7366 185.3459 168.2871 183.3497 169.4877 182.9298 169.5423 182.7829 169.3249 182.0256 168.5454 181.454 168.3327 181.1986 168.0982 180.063 167.6827 179.5699 167.3623 178.8708 166.7444 177.8762 166.0093 176.4607 164.5584 174.1792 162.8885 173.6168 161.9498 174.3234 160.7592 173.5411 159.9374 175.7105 159.5571 178.8134 159.1305 180.4211 158.776 181.3487 158.6699 183.3208 158.6049 183.9795 158.2489 182.8823 158.3388 182.1468 158.2924 182.1008 158.1265 182.373 157.8306 182.5488 157.4492 182.1729 157.5181 180.2452 158.1752 177.3958 158.6968 175.1702 158.9883 174.8098 158.9729 174.0311 159.1491 173.5835 159.1998 173.2377 159.1499 172.4499 158.6505 172.2404 158.3233 173.6524 157.4381 174.7072 156.2296 176.1042 155.4395 177.0908 155.3404 178.7405 155.3828 179.3215 155.4525 179.1366 154.9836 179.2055 154.7574 180.5431 154.4857 182.1024 154.3641 183.2134 154.45 183.9125 155.0002 184.8108 156.0158 186.0213 156.3588 185.9682 155.8708 185.34 155.2422 185.1075 154.2781 184.3102 153.8718 183.6697 153.6714 181.9004 153.7692 180.8366 153.065 180.5953 152.8063 180.5676 152.4629 179.5061 151.4545 179.1647 150.9507 178.6011 150.2793 178.3016 150.2437 178.6823 151.0885 179.1801 151.683 179.8899 152.9901 180.2409 153.5169 179.7656 153.9343 178.8661 154.3475 178.0711 154.5938 176.1929 154.8889 176.5965 154.2457 176.8552 153.6131 175.9109 153.8373 175.0328 154.296 174.7302 154.9325 174.1662 155.5108 172.4927 156.9283 171.8328 157.7161 171.2094 158.1051 170.4985 158.2124 169.8814 157.9039 169.3581 157.1794 169.113 156.613 169.0836 155.1436 169.1498 154.4584 168.8646 153.5347 167.9608 151.384 167.7695 150.6184 166.2398 150.2112 166.2176 150.0797 165.8172 149.644 165.509 149.2079 165.7641 149.0483 166.1277 148.933 168.4139 148.2902 170.1083 147.5701 172.1331 146.4409 172.9601 146.09 175.9307 145.8198 177.2493 145.783 177.237 145.5822 176.7949 145.5022 174.788 145.5549 172.1141 146.0064 171.6562 146.1692 170.4862 146.8718 169.5839 147.2556 167.0458 148.133 165.3989 148.1326 163.6981 147.0825 161.8001 147.2838 160.5184 147.2144 160.1449 147.0564 159.8629 145.6222 160.8963 143.9488 159.7817 143.9333 159.5508 143.8656 158.9626 143.4845 158.5788 143.3713 158.8636 143.1689 161.614 142.3771 165.7265 140.8237 167.4969 140.2133 168.5897 139.9499 169.4156 139.6481 170.4208 138.9946 170.7531 138.7086 171.3136 138.4781 172.4959 138.2183 173.7879 137.8253 175.8848 136.9397 176.1573 136.6125 175.7026 136.5361 174.7219 136.8379 172.7284 137.6471 171.3061 138.1026 166.4537 140.14 164.3881 140.8819 163.264 141.3552 162.3923 141.8075 161.4686 142.1296 160.4931 142.3217 158.4109 142.4658 157.3886 142.633 156.7727 142.5102 156.5017 141.5445 156.7085 140.9726 156.6103 140.4078 157.1295 139.5998 157.9003 139.0274 158.2239 138.7165 158.3621 138.5026 159.9524 137.9113 160.8289 137.6487 161.4484 137.0566 164.9783 136.8462 165.8873 136.8672 166.3709 136.788 166.7325 136.6157 166.3848 136.4826 165.3272 136.3892 162.5158 136.407 159.9179 136.3056 158.7325 136.2038 158.1605 136.2628 157.2163 136.0901 156.1849 135.7614 154.5847 134.5521 155.2252 132.9999 155.281 132.2596 157.3145 131.6104 158.4017 131.3954 159.9453 130.9066 162.0061 130.0768 164.4646 129.5702 165.7174 129.4764 166.7591 129.5488 170.6082 130.2677 172.5878 130.4083 174.3274 130.2352 176.5106 130.4883 180.3724 131.5237 181.1178 131.3692 180.9015 131.1185 176.5949 130.0253 176.6199 129.699 177.7222 129.6134 178.8989 129.2957 178.2351 129.1084 175.3746 129.2712 174.5492 129.5314 171.775 129.6665 170.3262 129.4447 169.0254 129.335 167.0735 128.8628 165.4401 129.0169 164.4095 129.2031 162.5836 129.3793 161.9245 129.5049 158.3617 130.991 156.8626 131.2999 155.7951 131.1981 156.5445 130.2309 156.7604 129.8491 156.7592 129.4332 157.0705 128.8636 158.8961 127.7791 160.0443 126.5913 160.5295 125.8546 161.4266 125.7722 162.6525 125.8807 166.3333 126.3584 169.3962 126.9276 171.6554 127.0797 173.1407 127.0955 173.7776 126.9141 174.2794 126.5984 174.4727 126.3798 174.6185 125.9322 174.7888 125.7734 175.2851 125.5781 176.301 124.8992 176.6104 124.4152 176.2777 124.1336 175.602 124.1625 174.2826 124.3479 174.1048 124.4251 174.1289 124.576 172.8524 125.325 171.4605 125.4973 168.2602 125.7488 166.8002 125.7667 164.2055 125.4185 163.813 125.2819 163.5433 125.0264 160.3596 125.0842 159.4078 125.1611 158.6509 125.1278 159.022 124.6834 160.0288 124.1899 161.4389 122.5845 162.62 122.1738 164.9664 121.7908 167.4146 121.8526 171.6499 123.0931 172.9276 123.2016 174.0992 123.1014 176.9011 122.6855 177.4152 122.5172 178.4228 122.0023 179.5996 121.1214 179.5422 120.9127 177.7372 121.405 176.7747 121.5377 175.9592 121.5377 176.7165 119.9276 177.0112 118.6938 177.294 118.3877 179.6673 118.4804 182.9089 118.3136 183.682 118.0443 183.6697 117.9247 182.3678 117.7611 181.7412 117.4177 180.6508 117.5262 179.1904 117.7551 177.3582 117.729 177.5134 117.199 178.8565 116.088 178.9948 115.5814 179.5188 114.5691 179.5715 114.0498 180.2515 113.5444 182.3702 113.1844 183.2594 112.9693 183.3081 112.734 182.0383 111.8373 182.3607 111.5897 183.3564 111.364 183.7279 111.1992 183.4745 111.0962 182.5567 110.9972 181.1471 111.1952 179.5857 111.2903 178.2038 110.9928 177.1249 110.8507 176.4416 110.8954 174.5848 111.404 173.9341 111.4206 173.1308 111.2796 167.8051 110.8384 167.1448 110.6827 165.2369 109.9203 163.6649 109.4172 161.572 108.8675 158.8588 108.4504 155.525 108.1648 153.5299 107.8959 152.5469 107.5168 150.8623 106.6831 149.5818 105.988 149.3418 105.6442 150.0943 105.2196 150.8604 104.9146 152.3021 104.6639 154.7895 104.7466 156.1259 104.8587 157.5969 105.098 158.7087 105.1431 161.0183 105.0754 163.3654 105.2279 164.7569 105.3954 166.5836 105.7456 171.6245 107.2344 173.7281 107.7517 174.6426 107.8139 178.4133 108.3668 179.0178 108.3565 180.5609 108.0971 180.7138 107.9292 180.1925 107.7636 178.5286 107.6349 176.5763 107.0245 175.3635 106.5405 175.2253 105.7392 175.3833 105.2905 175.6883 105.0865 175.901 104.3997 174.7694 103.9913 173.9788 103.8626 171.8768 103.2677 171.7013 103.1199 172.709 103.0502 173.696 103.091 175.8158 103.3924 176.9272 103.434 177.7356 103.316 177.8287 103.194 176.5403 102.8522 174.927 102.2391 171.5588 102.1492 169.3728 102.2181 167.9758 102.0078 166.4889 101.6659 165.5344 101.5788 163.5841 101.7931 162.597 101.82 161.6975 101.7448 160.8095 100.6666 161.046 100.3434 161.7419 100.2036 162.2675 99.8558 162.6362 99.4922 163.7916 99.1366 170.136 98.3448 171.737 97.7558 171.6665 97.6651 170.5868 97.7744 169.206 98.0398 168.2824 98.0945 164.5469 97.7515 163.9647 97.8295 162.4521 98.3222 160.4 98.8573 159.4545 98.8248 158.189 98.508 157.9882 98.2826 157.8975 98.0117 159.287 97.641 159.7334 97.4441 160.6325 96.9165 160.5865 96.6551 159.0521 96.7985 158.8521 96.5561 158.877 96.1402 158.7281 95.6142 158.351 95.095 157.0915 94.2976 156.5691 94.0925 156.1385 93.7978 155.1895 92.7197 155.4644 92.4499 156.3077 92.2455 156.4689 92.1513 154.454 92.3208 154.2334 92.507 154.6132 92.7814 154.8845 93.1474 155.0461 93.6049 155.3274 94.0053 156.0569 94.4438 156.6408 94.6751 157.5922 95.2855 158.0072 95.9564 157.8849 96.3101 157.1462 96.6702 155.9555 97.0587 155.5951 97.3803 155.4343 97.7008 154.5063 97.997 153.9363 97.8861 153.4856 97.8683 154.0179 98.3971 154.3605 98.9385 153.9474 99.4815 152.8447 99.8099 152.2463 99.8198 151.0699 100.086 148.0577 100.2258 147.0093 100.1604 145.0863 99.8903 142.8065 99.743 141.9022 99.3778 140.7167 98.7147 140.1183 98.1206 140.106 97.5954 140.4268 97.2132 141.0803 96.9728 141.8654 95.4364 142.9756 94.1951 145.7715 92.9157 146.5688 92.4531 146.8322 92.2044 146.8283 92.0154 146.3763 91.8954 142.9387 93.4742 140.8189 93.6421 140.186 93.2872 140.3777 92.6559 140.7552 92.5093 142.4698 92.5691 143.1368 92.2182 142.0638 91.6871 140.9219 91.548 140.6545 91.4146 141.8301 91.0106 144.5468 91.0403 145.1604 90.7579 146.1442 90.4533 147.2358 89.8885 147.6442 89.4132 147.7361 89.0052 147.5008 88.6761 147.4755 88.3461 147.6612 88.0154 147.376 87.6498 146.6207 87.2502 144.9425 86.8584 144.4486 87.3005 143.9258 87.4823 143.1918 87.5231 142.5145 87.3369 141.8079 87.27 141.1136 87.1036 140.3927 87.0509 140.1123 86.9171 139.9317 86.5424 139.9159 86.0659 140.731 85.8433 141.8662 85.6678 142.6258 85.3351 143.1249 84.8535 143.197 84.3279 142.8421 83.7579 141.92 83.2458 140.2125 83.7441 139.542 83.8665 139.3875 83.51 139.151 83.2458 138.4333 82.8877 137.4887 82.6267 136.5797 82.4536 136.5381 82.1891 136.7535 81.8912 137.156 81.5438 137.68 80.8198 138.2567 80.8844 138.7355 80.8186 138.4587 80.2205 137.9957 79.7179 137.4518 79.4323 137.4324 79.308 137.3065 79.1626 136.8866 78.8105 136.4161 78.5526 135.5954 77.8223 135.0025 77.5438 134.2424 77.3996 133.4233 77.3917 132.1091 77.5834 129.6827 77.8052 127.7617 77.9106 127.4417 77.8532 128.4026 77.5759 129.819 77.2872 131.694 77.0915 132.2406 76.6114 132.0382 76.196 132.1162 75.8022 131.6021 75.3876 132.1024 75.1578 133.8095 74.9265 134.5822 74.8909 135.3514 74.5962 133.1888 73.8864 130.9236 73.421 130.3572 73.2321 129.859 72.9208 129.4292 72.4874 128.7305 72.0537 127.7637 71.6196 126.3529 71.2002 122.7157 70.4334 121.4672 69.9046 120.3174 69.0954 119.7427 68.7504 119.1454 68.495 116.6128 67.8965 116.3051 67.6323 118.9192 66.9285 119.1751 66.6476 118.1072 65.7933 117.0129 65.1683 115.8215 64.9465 114.0502 64.8324 112.4267 64.5547 110.9501 64.1151 109.4763 63.7931 107.2689 63.4873 103.5754 62.7003 97.8822 61.8578 95.3381 61.3655 93.8247 61.1861 91.8289 61.1401 87.9691 60.6803 84.7283 60.5333 82.7273 60.6007 82.0738 60.5246 80.5944 60.0576 78.2785 59.7903 77.0816 59.8925 75.5963 60.3919 73.8028 60.8847 72.8514 60.9512 71.4331 60.5005 70.7193 60.1856 70.0373 60.0786 69.3881 60.18 68.1218 60.5931 66.9158 60.8918 65.1322 61.2467 63.7071 61.417 61.8772 61.4586 61.4174 61.5869 60.7128 61.5928 59.7641 61.476 58.8753 61.2451 58.0467 60.8993 57.3144 60.7128 56.6791 60.6854 55.2191 60.8645 53.3718 61.3904 52.5281 61.5172 51.8188 61.4621 50.9529 61.2982 49.2165 60.8787 48.2548 60.9187 47.5561 61.0657 47.7502 61.4142 49.3797 62.2404 50.8325 62.8294 49.6047 62.8991 38.8764 62.1022 37.5092 61.9097 35.5351 61.4277 33.8929 61.1322 31.0986 60.3678 28.9463 59.9539 28.2325 59.6307 28.0444 59.4081 28.7292 59.107 33.0663 58.0923 34.7231 57.8875 38.0922 57.6431 38.8887 57.4898 39.1561 57.3682 38.2708 57.1488 33.8581 57.2272 29.9266 57.0803 26.5052 56.6767 25.9099 56.5428 25.3305 56.2965 24.7672 55.9372 24.896 55.5352 25.7166 55.0904 26.1979 54.7854 26.3397 54.6198 22.0386 55.7138 20.2796 56.0968 18.8858 55.9796 17.9079 55.7982 17.4282 55.5962 17.4461 55.374 17.6033 55.2116 17.9 55.1102 15.6257 54.6571 14.6002 54.3018 14.4913 53.935 15.2977 53.5568 16.0875 53.2823 16.8603 53.1112 18.9623 52.9618 26.6454 52.6767 32.147 52.95 34.0197 52.0445 35.284 51.7558 38.9834 51.4552 44.6758 51.414 48.6976 51.5799 50.5814 51.7922 53.1472 52.2608 53.2946 52.1194 52.6751 51.6968 52.6311 51.3458 53.6677 50.7363 54.1449 50.3537 53.8206 49.9552 52.6937 49.5401 50.6994 49.0086 49.6261 48.9646 48.4327 49.0925 46.9992 49.3872 44.0199 50.1303 42.613 50.2855 40.2667 50.3251 38.9691 50.2313 37.7151 50.12 35.7553 49.7259 35.0412 49.6522 34.1757 49.8249 33.1582 50.2443 32.1775 50.5382 31.2336 50.7062 30.3516 50.779 29.1209 50.745 24.0479 50.0918 22.9009 49.8011 22.8344 49.3607 21.2774 48.9341 19.5164 48.8596 19.3013 48.7167 21.5344 48.0592 23.1984 47.7902 22.931 47.7094 20.5141 47.6952 18.8827 48.0449 17.9483 48.1039 15.7996 48.1134 13.5443 47.9384 12.5854 47.7851 11.5912 47.4334 10.4758 47.2353 7.1092 46.9351 6.3499 46.7719 5.6302 46.5002 2.8798 45.7314 1.2155 45.1662 1 44.8462 2.9206 44.1586 3.0046 43.9993 2.1811 43.7027 1.8377 43.4836 2.1221 43.1814 3.8031 42.5124 4.4269 42.3314 7.4438 41.9385 10.4644 41.3678 11.5651 41.2394 12.5454 41.2097 16.5121 41.2434 17.7423 41.1028 18.7864 40.8243 20.4995 40.5423 24.0741 40.1142 32.0242 39.4674 32.5419 39.3913 32.5882 39.2685 31.8741 38.935 31.7236 38.7742 33.3515 38.4752 37.0243 38.0039 39.5351 37.7769 41.1507 37.7603 42.4534 37.6589 44.2829 37.3626 45.3187 37.3103 51.5712 37.1939 54.337 37.3551 55.6952 37.3519 56.567 37.237 57.7216 36.9016 59.8774 36.0682 61.0122 35.5509 62.0836 34.7635 63.4695 33.5329 64.5052 32.3328 65.1916 31.1624 65.7244 30.449 66.103 30.1939 67.3998 29.8699 68.752 29.6176 71.0766 29.3938 70.8647 29.2897 69.8789 29.1154 68.9611 29.0485 68.1119 29.0885 66.5656 29.3519 64.5623 29.5301 62.6163 29.502 61.2146 29.5685 59.9289 29.8097 57.8439 30.0038 56.4529 29.9598 53.9418 29.6129 52.6747 29.5479 49.4629 29.5808 48.5234 29.4525 47.7027 29.2002 47.0484 28.8488 46.5604 28.3969 46.6277 27.9272 47.7839 27.0799 48.2279 26.849 51.3577 25.9032 53.2862 25.4604 55.2056 25.1292 56.6042 24.9348 57.9208 24.8476 59.1843 24.6421 61.5124 23.9814 63.9139 23.415 66.9019 22.363 68.348 22.0873 73.4095 21.6295 74.7851 21.6223 75.9528 21.7364 77.0586 21.9749 80.1663 23.0154 80.4091 22.9833 79.8672 22.5896 78.7336 21.4112 78.9178 20.9264 80.6962 20.4084 81.4254 20.3161 83.3028 20.3505 86.3289 20.5105 88.3525 20.686 89.8861 20.9712 91.7093 21.1486 92.6543 21.1399 93.3284 21.0037 94.2937 20.5585 95.5504 19.8039 96.0539 18.8743 95.8043 17.7693 95.4376 16.9617 94.9532 16.4531 95.2189 16.0289 96.743 15.5203 98.1396 15.1488 101.4695 14.6232 104.17 14.4838 105.7725 14.519 107.8785 14.7654 110.8015 14.9163 113.439 15.3936 117.7139 16.4899 120.5519 17.0401 122.901 17.2872 125.2165 17.7079 128.6398 18.5999 130.4309 18.9829 131.4968 19.1215 132.4339 19.1437 132.0849 18.889 130.4503 18.3563 127.9459 17.7705 122.3924 16.7173 119.3339 15.9738 116.5911 15.1258 114.575 14.6212 110.9144 14.121 110.9647 13.9217 115.381 13.2207 123.4967 12.6103 132.643 12.133 135.7043 12.1818 141.0847 11.9821 141.5913 11.6811 142.7482 11.5457 147.7591 11.1254 149.1948 11.1314 151.3998 11.3306 153.7502 11.7104 154.8378 12.0542 156.3132 12.6448 157.0376 13.4762 156.9283 16.1006 156.9667 16.5969 157.2515 16.7882 158.2698 16.5034 159.4878 15.9742 160.5826 15.5999 161.4246 15.0221 162.0144 14.2422 162.3629 13.6643 160.9319 13.0108 160.8606 11.9378 161.5759 11.3658 163.5793 11.3658 171.8661 13.3411 175.1282 13.7677 178.8387 14.8256 183.1734 14.7131 187.1727 14.8434 188.9427 14.8046 189.8169 14.6402 188.574 14.2018 182.8914 12.9965 180.3094 12.0503 178.5052 10.8703 178.064 10.2429 179.4463 10.1301 185.7931 10.1435 195.3319 10.6869 207.53 12.5671 213.5334 13.189 224.2918 15.3643 227.5373 15.693 228.8471 15.7615 229.8357 15.493 230.4457 15.2011 230.4904 14.8125 229.9704 14.3269 229.6725 13.7657 229.5965 13.1284 230.3269 11.8661 232.0617 11.4546 232.8269 10.9892 232.1156 10.1491 230.0821 9.574 222.1716 8.0926 222.1383 7.916 223.7357 7.7219 226.1058 7.6082 245.7095 7.9611 249.0983 8.0906 250.5448 8.2178 251.1781 8.3853 251.9901 8.457 256.2016 8.257 256.1014 7.8918 255.5758 7.6597 232.8242 7.0256 228.5837 6.8085 226.4263 6.7919 224.1951 6.9582 219.5685 7.041 217.4313 7.0089 214.6623 6.254 217.1698 5.3458 219.2802 5.3664 223.2897 5.7205 225.665 5.2258 229.4357 4.817 233.164 4.6729 241.2979 3.7944 242.801 3.7175 244.6971 3.7646 248.8829 3.9821 250.5452 4.1995 252.45 4.6653 253.5554 4.8091 254.8657 4.8356 256.6651 5.0464 259.2669 4.3643 261.6188 3.6316 264.3169 3.1693 268.1336 3.4391 270.5501 3.7908 272.7598 4.2098 275.8821 4.4415 281.1769 5.873 282.1675 5.875 282.6353 5.7538 283.1347 5.4884 283.3142 5.0947 283.9641 4.56 283.4936 4.3623 279.0583 3.7698 278.2198 3.5417 277.369 3.1662 277.3547 2.8556 278.1766 2.6109 279.0428 2.4992 281.9105 2.6006 282.8583 2.521 283.7526 2.3138 284.83 1.9252 285.6792 1.8262 287.597 1.8151 290.549 2.0643 293.1326 2.0853 294.0646 1.9708 294.2064 1.7276 294.431 1.5731 294.7387 1.5082 304.1048 1.4947 306.4275 1.4369 308.2435 1.2527 310.4651 1.2309 312.4075 1.341 314.8117 1.5755 317.2013 1.5648 320.7624 1.1814 324.12 1 342.6269 1.0503 348.7111 1.282 Z M 163.9397 111.7648 166.6402 112.4243 169.5031 112.8802 169.7831 113.0885 170.0053 113.4038 170.0568 113.5682 169.9915 113.7207 169.8101 113.8613 170.0192 114.0423 170.6189 114.2637 170.6803 114.5223 169.9645 114.9667 168.9573 115.4606 163.6209 116.4762 161.7336 116.6489 157.067 117.3464 155.6399 117.3179 155.325 117.285 154.4417 116.9784 153.2321 116.6932 152.6653 116.4722 152.1651 116.155 152.3643 115.9581 153.263 115.8809 154.5427 115.886 156.419 115.6551 155.9001 115.4476 155.407 115.3212 155.0667 115.0451 154.2841 115.099 153.6979 114.941 152.5667 114.8416 149.6159 114.7461 147.6921 114.4756 147.1245 114.3136 146.6243 114.0336 146.1914 113.6395 146.8231 112.1122 147.256 111.7232 148.2561 111.5949 150.7019 111.9343 151.0303 111.7878 148.3548 111.2257 147.3717 110.8903 147.0821 110.6261 146.9083 110.2379 146.9106 110.0098 147.0315 109.78 147.2695 109.5499 147.9207 109.2386 150.6326 108.7427 153.5886 108.9118 158.7158 109.5214 159.3519 109.6505 160.924 110.1737 163.9397 111.7648 Z M 177.8715 114.9465 176.6001 115.2333 176.3434 115.1695 176.0844 114.9517 175.4281 113.9603 175.2336 113.4901 175.3952 112.9059 175.1409 112.4944 176.288 112.0147 177.2152 111.9316 178.4672 112.0571 180.5862 112.5451 180.433 112.7031 179.9747 112.9578 178.6985 113.2901 178.2482 114.0399 178.1618 114.4166 178.2224 114.699 177.8715 114.9465 Z M 157.4175 102.8736 156.6582 102.9267 154.4782 102.5139 154.1245 102.3587 153.9894 102.1686 154.0734 101.9432 154.7677 101.5237 156.0728 100.909 157.0178 100.795 157.6028 101.1799 158.1784 101.6972 158.2536 101.9602 158.2148 102.27 158.0643 102.5322 157.8021 102.748 157.4175 102.8736 Z M 145.3984 88.6757 144.2522 89.2258 143.3162 89.5419 141.2879 90.4822 140.9393 90.5151 140.3916 90.3927 139.9666 90.1455 139.2001 90.0861 138.9332 89.9301 138.8258 89.8029 138.486 89.7221 137.9454 89.6714 137.0775 89.7681 136.281 89.6706 135.6814 89.2591 136.7904 88.983 137.476 88.7474 140.1293 88.6547 140.8775 88.7628 141.3477 88.76 142.0642 88.6959 143.6319 88.4024 143.866 88.2657 145.2677 88.4372 145.3984 88.6757 Z M 10.3344 51.8956 7.445 51.9673 4.5988 51.6512 3.6213 51.4068 3.6648 51.0329 4.0958 50.9038 5.6341 50.7743 6.9135 50.7454 7.7758 50.8032 9.8025 51.0329 11.2688 51.2631 12.2317 51.3351 11.9588 51.6655 10.3344 51.8956 Z M 227.7515 13.2971 226.1058 13.4401 222.6718 12.5818 217.2348 11.7231 212.4418 11.1512 207.9348 9.6488 207.5803 9.1149 208.2208 8.6467 212.1555 8.5754 215.3031 8.3612 223.3158 9.2908 227.3222 10.0778 228.6815 10.7218 228.4669 12.0095 227.7515 13.2971 Z M 385.3806 103.8428 385.6654 104.3205 385.6943 104.5458 385.6318 104.7356 385.4741 104.871 385.0931 104.9918 385.804 105.3091 386.035 105.5222 386.0781 105.6925 385.6246 106.022 382.3934 106.4581 381.4951 106.668 380.3726 107.1865 379.0085 107.6333 378.5542 107.6309 378.0246 107.1679 375.8707 106.8277 371.8141 107.0051 367.0667 107.4337 365.3797 107.6337 364.5278 107.5271 364.2664 107.3675 364.2537 107.1441 364.8157 106.4914 365.0427 106.3254 366.1319 106.1084 366.8706 105.5345 366.629 104.9102 366.9134 104.0392 367.6572 103.9042 369.5208 104.2135 370.7264 104.2789 372.8621 104.3185 375.7321 104.2135 378.0385 103.8598 382.2449 102.8506 382.9919 102.8637 383.527 103.2213 383.9207 103.3968 385.1703 103.6709 385.3806 103.8428 Z M 440.2774 15.2209 439.4425 15.4819 437.3029 15.3773 434.5624 14.6466 432.7357 14.0465 432.6054 13.3419 433.5449 13.029 435.0064 12.9763 437.0153 13.5768 439.0773 14.3856 440.2774 15.2209 Z M 448.813 31.6115 445.379 32.5415 440.2996 32.4702 437.295 32.0409 436.4363 31.3968 437.5809 30.6819 441.2296 30.1092 445.8083 29.7515 449.9577 29.9662 450.53 30.6819 448.813 31.6115 Z M 437.5809 46.6352 436.5075 46.9212 435.7926 46.0629 435.1486 44.9182 435.0052 43.6306 436.6509 42.9866 437.5096 42.8436 438.082 42.9866 437.939 43.5593 437.939 44.7036 438.5113 45.4906 437.5809 46.6352 Z M 440.9437 62.3026 440.0137 62.5173 436.8656 59.155 436.8656 57.939 437.0803 57.0086 438.5113 56.9369 439.7269 57.438 440.2996 59.3696 440.9437 62.3026 Z M 445.6653 67.4537 446.309 68.312 446.5953 69.0994 447.597 69.5996 449.743 69.5287 450.6017 70.4583 449.0277 70.8164 442.8037 70.673 440.2283 70.7443 438.4396 70.1724 438.5113 69.1707 438.7256 68.169 440.5143 67.597 442.0166 68.0973 443.8049 67.7396 445.6653 67.4537 Z M 446.0452 49.3238 444.4692 49.3238 443.885 49.1127 444.2581 48.7396 446.4508 47.5371 447.1819 47.4397 448.2537 47.5696 448.5789 48.1871 447.864 48.8042 446.0452 49.3238 Z M 291.2932 147.5598 290.0313 147.565 289.6126 146.9281 289.7386 146.2337 291.1613 146.0163 291.9273 146.4944 291.6529 147.2061 291.2932 147.5598 Z M 216.3777 186.0953 215.4461 187.0776 214.5149 186.8637 214.0543 186.4249 213.137 186.2209 212.1483 186.2819 212.1329 186.108 215.3459 185.0619 216.8764 184.7803 216.7678 185.2212 216.4767 185.6074 216.3777 186.0953 Z M 172.5058 104.3791 171.4225 104.4009 168.9022 104.2539 168.701 104.1597 168.6697 103.9802 169.0048 103.4641 170.1154 103.3956 171.4368 103.678 172.8611 104.0796 173.0591 104.2686 172.5058 104.3791 Z"/>
</g>
</svg>