<?xml version="1.0"?>
<svg xmlns="http://www.w3.org/2000/svg" version="1.2" baseProfile="tiny" width="393" height="400" viewBox="0 0 393 400" stroke-linecap="round" stroke-linejoin="round">
<g id="ne_50m_admin_0_countries-guatemala">
<path d="M 1 320.0916 3.5484 317.5957 5.6918 311.8321 8.3402 305.8875 6.7255 299.0284 5.7585 293.4649 8.7546 285.3721 8.4736 279.299 9.8692 275.555 14.3086 273.1353 16.6426 268.5054 4.0056 252.5579 4.0152 248.9188 5.6823 244.4413 15.9281 227.4031 28.1125 207.1449 41.5545 184.7909 49.6378 171.3489 79.1558 171.3203 98.6852 171.3013 123.4828 171.287 150.4429 171.2632 168.1242 171.2489 175.4215 171.1012 174.1831 162.3559 175.131 152.6959 178.3652 143.922 178.3652 140.0495 173.0875 135.3148 162.8751 132.5568 157.1877 128.3699 157.1591 123.0636 154.6632 116.6475 149.7141 109.1168 139.4398 101.4098 123.8496 93.5361 110.5791 82.9664 99.6236 69.6912 90.3542 61.1506 83.2188 57.5782 81.5326 55.6824 102.4196 55.8538 122.1777 56.0158 122.311 36.9913 122.4253 20.0864 122.5492 1 158.3642 1.0286 201.1337 1.0667 245.4988 1.1048 280.3516 1.1381 300.8432 1.1524 299.9049 24.8164 298.8236 52.2338 298.0234 72.3824 296.9612 99.2758 295.8704 126.7694 294.389 164.2612 293.4268 188.4919 293.8841 189.054 305.516 187.8822 322.7257 188.9397 326.9317 188.8635 332.2046 190.9736 336.2677 191.6071 345.0178 197.0658 355.2874 201.2003 361.8369 192.8646 358.3883 187.8441 355.8114 185.2815 356.2068 183.0427 391.8741 204.6299 387.6682 207.9594 378.5846 215.6521 362.1227 228.8035 347.3757 240.5783 333.1859 251.2576 320.4012 260.8746 318.896 261.8273 302.6866 268.6912 299.9811 271.854 296.4896 285.4436 294.9034 288.8112 297.8424 296.3562 300.7718 308.012 299.8382 314.0947 288.6254 321.5968 283.4859 328.3511 281.2233 332.7143 279.2085 331.5806 275.736 331.2424 267.7337 332.9334 263.866 333.3097 260.6365 335.2436 260.3126 339.44 262.4513 346.2515 263.2182 349.7621 260.9651 351.3816 251.1099 355.4732 247.2231 359.5125 243.4934 365.7857 239.1684 368.4103 234.6576 367.9244 231.4614 368.8485 224.6356 373.5546 214.347 382.6572 208.8263 389.4163 208.712 394.4654 209.7552 399 172.3063 382.9621 159.8361 380.2232 107.2448 380.5566 84.6812 374.2548 58.969 362.0846 41.5878 351.0338 1 320.0916 Z"/>
</g>
</svg>