<?xml version="1.0"?>
<svg xmlns="http://www.w3.org/2000/svg" version="1.2" baseProfile="tiny" width="500" height="287" viewBox="0 0 500 287" stroke-linecap="round" stroke-linejoin="round">
<g id="ne_50m_admin_0_countries-Guinea-Bissau">
<path d="M 1 54.2863 9.9958 52.7256 32.221 55.3027 49.4362 52.1814 61.5693 46.9632 78.0882 39.7842 94.0389 37.4712 143.9717 40.6726 187.3658 32.069 219.6353 15.9102 249.4398 1 288.0399 1.1601 329.4172 1.3201 388.2497 1.5762 434.8612 1.7603 489.8682 1.9844 489.316 15.278 499 34.0138 497.5514 47.9636 493.3656 61.1931 489.7321 66.4193 484.8661 69.4446 470.164 69.3405 463.9294 71.9816 454.1253 77.1678 453.8692 83.2424 461.6884 89.0288 468.1231 97.1522 475.5982 103.5148 488.4356 110.8619 489.6361 119.0253 489.9802 139.6339 489.2919 155.7126 453.1569 167.4215 425.4413 169.4944 401.9595 168.1898 391.7552 173.1279 371.3307 185.1889 346.3602 192.496 333.5469 193.0082 327.4323 197.362 317.7563 209.8872 290.689 264.5261 281.7413 277.6355 274.5302 286.1671 266.2148 274.5463 272.6335 253.0893 265.7186 253.4014 251.9048 270.7447 245.174 271.2889 246.0624 250.7443 238.4112 249.984 229.5435 251.4406 217.1463 240.7481 215.9218 232.7208 216.9142 221.5321 224.4693 214.3851 223.4449 211.3919 216.1539 210.5515 207.9905 212.4723 202.9884 209.1029 211.2478 194.5849 240.1799 182.3878 254.738 181.1312 269.6722 178.3701 261.5168 167.9177 243.8214 163.788 229.6715 166.6692 222.6286 174.2564 213.8889 175.5129 199.3148 157.7215 199.5869 148.7737 205.0052 138.2093 213.4407 133.4633 247.0228 133.5994 259.7641 127.6369 264.9102 126.5484 269.7843 121.1302 268.7518 117.5287 263.3016 117.3206 250.7523 124.3635 210.3194 121.6984 197.418 125.9562 174.9286 142.219 147.2771 151.2147 127.2207 147.4212 133.6154 125.612 130.7502 122.6428 124.4276 119.0653 94.9833 126.0042 72.71 116.032 63.8983 103.987 65.4109 88.8847 75.9193 78.6724 77.584 73.5823 66.4834 72.6139 46.0748 78.9846 1 54.2863 Z M 98.9049 266.6149 85.7874 269.048 79.8089 260.9086 78.9205 257.7632 85.7714 255.0261 88.8447 254.9141 94.0629 249.0076 100.4976 245.0459 103.3387 243.7734 106.6361 244.0295 109.0211 257.091 105.8358 262.5733 98.9049 266.6149 Z M 134.7359 262.8374 133.2152 267.3833 123.5792 266.687 125.7641 262.077 123.6592 260.7325 126.4444 246.8947 127.885 244.7578 132.567 249.912 133.1992 252.0409 134.7359 262.8374 Z M 162.7235 241.0363 162.7235 247.7511 155.7846 246.4785 153.7678 244.4697 157.8815 232.3126 163.9801 226.8943 171.4472 227.7587 173.6721 229.3994 172.2235 234.0894 168.9582 237.947 162.7235 241.0363 Z M 190.8713 188.3342 189.3347 192.1438 180.0188 188.9105 193.6325 175.1207 202.5002 172.7117 202.18 183.3322 195.3292 185.5731 190.8713 188.3342 Z M 133.7675 200.0031 126.0762 205.1493 118.1289 202.7323 113.8711 198.1463 114.5034 189.9269 123.4832 178.29 131.5505 179.7947 133.7675 200.0031 Z M 119.8977 131.7826 111.3901 151.831 100.8817 149.6221 93.5186 137.6891 92.6863 132.639 114.0872 131.0223 119.8977 131.7826 Z"/>
</g>
</svg>