<?xml version="1.0"?>
<svg xmlns="http://www.w3.org/2000/svg" version="1.2" baseProfile="tiny" width="500" height="371" viewBox="0 0 500 371" stroke-linecap="round" stroke-linejoin="round">
<g id="ne_50m_admin_0_countries-Guinea">
<path d="M 323.18 284.0396 317.9868 283.3401 315.664 284.3233 308.7716 292.354 304.6309 295.4917 301.5031 295.2343 298.217 294.5052 295.8975 295.0859 294.1983 294.1686 294.8714 292.2121 296.5475 289.7541 299.8502 281.0108 308.3196 272.2047 308.4945 270.3637 305.0335 265.2134 301.3943 258.1989 301.3844 250.683 300.6948 245.2522 293.2019 243.7312 291.8393 242.814 291.6413 240.9828 293.5814 236.1097 295.8513 231.606 296.1846 229.699 295.6567 228.0163 291.0573 223.2124 283.8812 214.3536 277.2396 204.5446 271.5383 196.118 266.9291 192.2776 262.5244 186.7247 260.8483 183.1845 256.2556 181.9142 242.8569 181.9868 226.7659 182.0726 213.1824 182.1518 212.3938 186.8996 197.5565 190.1 188.4074 186.4245 178.2552 188.5625 173.2897 190.9941 171.7423 196.0586 169.4789 201.6148 167.3178 203.9012 166.3874 206.3956 165.1337 208.6655 163.1408 211.2819 160.927 216.5345 156.1 224.0076 151.0157 228.828 142.3878 231.4576 139.6955 239.3232 137.7093 242.2531 134.3802 244.5461 130.8268 246.0375 127.5506 245.1367 123.7761 244.5132 119.8267 245.9253 119.1537 243.9556 121.3939 237.7264 119.609 234.4864 112.8387 228.013 112.1986 224.8819 110.1233 220.8501 101.2051 212.5324 92.8874 213.0471 95.2003 206.0656 95.0947 196.7911 92.2704 191.7299 92.993 186.5598 91.4489 186.8864 88.6741 190.4464 84.187 189.3015 75.0972 183.7949 70.554 178.4466 70.0096 173.9001 68.9901 172.1349 66.2021 173.0818 60.5173 172.9895 43.1857 164.8994 30.8428 144.5258 30.5689 139.9331 32.3407 132.0212 31.9283 129.8733 26.2633 135.1259 25.1811 131.6088 20.8556 123.4296 19.6018 118.728 15.4446 116.6395 12.1156 116.2667 9.5421 117.8306 6.1503 127.3922 3.623 127.3295 1 125.2872 1.5543 118.154 4.527 114.6368 8.2157 109.2325 19.3742 86.7077 23.3631 81.5442 25.8838 79.7493 31.1661 79.5382 41.4601 76.5258 49.8801 71.5537 54.0868 69.518 63.7672 70.0558 75.1929 69.2012 90.0895 64.3743 90.3733 57.7458 90.2314 49.25 89.7365 45.8846 84.4443 42.8558 81.3627 40.2328 78.71 36.8839 75.4865 34.4985 75.5921 31.9943 79.6338 29.8563 82.204 28.7675 88.265 28.8104 90.271 27.5632 91.7689 25.4087 93.4945 19.9549 94.0917 14.2041 90.0994 6.4803 90.3271 1 112.1854 1.7885 114.429 2.3725 124.1918 3.3195 130.2461 3.3096 134.0008 3.7286 135.5647 4.979 135.2513 7.2754 134.2087 10.3009 135.4624 13.4287 138.7981 14.2635 140.5732 13.3165 142.269 11.7823 144.285 10.5715 147.1587 11.3996 153.2988 16.0022 158.9935 17.2692 165.226 19.7668 171.0758 21.1459 176.269 20.9711 180.2085 23.5578 187.4968 24.3727 196.9066 21.0899 204.3104 19.6414 214.7034 19.2851 220.1407 20.3673 235.981 17.7311 243.883 18.3217 248.4328 19.2125 246.4961 21.0173 244.5033 24.9666 242.6787 29.8365 240.8113 33.116 241.4711 35.2573 246.727 39.5102 254.1242 45.4953 257.1299 46.264 260.5778 44.8585 266.0118 40.1173 270.2977 34.9967 274.4384 32.5156 279.2588 32.6739 283.1125 36.2768 287.8207 44.2217 292.1098 51.4539 292.6575 52.1831 294.393 53.3808 296.5475 53.3346 298.8207 51.5694 300.4902 50.5103 302.483 47.1945 310.8403 37.1677 317.1289 34.4061 319.3494 33.6802 323.7442 32.1691 331.0259 34.548 341.5971 38.6689 354.4316 43.6674 358.9385 44.5154 361.5912 43.6674 365.4053 36.8674 370.1729 34.2081 376.9927 31.0869 382.5224 29.4801 385.6898 29.2789 386.9007 27.4312 387.4847 24.6631 386.8578 21.8058 383.2879 16.6555 383.1724 15.1411 385.2114 14.1513 389.6161 13.4089 395.324 13.9104 401.7478 16.1342 406.9773 19.3511 409.96 23.1652 413.2098 31.2948 415.7075 39.2034 422.1643 51.774 422.0455 59.5704 421.9136 68.6172 424.7708 70.3065 427.9217 71.0324 429.3866 72.3653 432.5276 79.3105 435.4872 81.3297 439.0274 81.8048 445.6525 86.2557 449.9252 88.0076 450.529 89.3406 450.3838 91.175 448.7209 93.5176 446.1375 95.1409 442.3004 98.1664 439.1264 102.1487 432.5969 111.6872 432.4089 113.4689 433.7946 114.7523 436.4968 114.9899 439.3804 114.3333 445.382 110.8393 450.1265 112.0864 454.6598 114.7424 456.326 117.504 456.7582 121.13 455.7222 125.8019 455.5572 131.0347 457.0815 139.9496 459.4406 148.8414 461.8161 152.0847 476.9668 159.9306 478.4251 162.867 479.184 166.1697 478.0919 170.6997 476.5445 173.2138 472.1992 177.1467 468.2268 180.1887 466.973 183.4913 467.6032 189.6711 467.59 203.6538 468.2037 215.7559 471.4668 220.1506 475.3633 222.381 479.9791 221.962 484.4729 221.1503 484.2155 228.3924 482.9948 236.5122 488.31 239.0065 490.9858 241.4777 492.4607 243.7873 484.0737 248.0963 481.6354 250.617 480.5004 257.3972 480.771 263.6561 492.0515 268.13 496.4067 273.3727 498.3401 278.8134 499 289.0942 497.9937 291.4434 495.0968 291.4665 491.8239 288.309 489.379 285.2208 486.3271 285.2307 480.6258 284.5411 474.1393 283.3533 466.1218 283.6668 463.2711 284.1683 461.4466 286.0324 460.9616 289.2592 460.1532 299.6786 462.7861 301.9782 467.9562 304.5616 471.3414 305.6636 474.1756 305.3535 476.3267 307.0296 476.792 311.5167 475.3138 314.8128 472.4698 317.8746 468.8867 325.7601 469.4971 328.713 469.6587 332.989 463.5417 344.5104 461.7897 346.7738 453.6898 344.4873 448.4042 343.7251 444.5901 346.655 442.1684 344.8271 439.321 342.1546 438.3444 338.6441 436.4209 337.9084 432.8774 337.8787 429.5978 339.8715 428.1692 343.4942 427.9547 347.6646 427.44 350.898 425.4868 352.8512 421.5143 357.9091 419.6502 362.581 417.3439 366.6426 414.0479 366.4083 412.5236 365.8375 411.4711 366.8999 406.3504 369.1567 401.9425 369.8033 400.7778 367.4608 398.2076 365.5802 395.3471 361.8717 392.0972 358.8692 385.8779 356.7774 383.4231 357.7079 380.4867 357.4703 378.5467 356.2924 378.8205 354.491 382.0836 349.9346 383.9411 345.751 384.9573 341.178 384.9441 336.8361 383.2021 330.6992 380.4042 325.8294 379.7245 323.0051 380.0512 318.9898 379.4045 315.2516 378.4972 313.3017 378.0518 309.5932 377.1741 306.2146 375.5278 304.9114 374.6006 299.253 374.8679 293.4362 372.4593 291.2388 368.6585 289.6353 366.4248 287.3587 365.049 284.8248 363.6764 284.0891 362.5084 284.2408 361.4461 285.8146 360.1824 286.1479 357.9751 280.7006 357.048 280.4895 355.5105 281.7399 337.9677 287.7745 337.2023 285.4286 335.7176 282.6406 332.3555 281.7036 326.5684 283.7921 323.18 284.0396 Z"/>
</g>
</svg>