<?xml version="1.0"?>
<svg xmlns="http://www.w3.org/2000/svg" version="1.2" baseProfile="tiny" width="268" height="400" viewBox="0 0 268 400" stroke-linecap="round" stroke-linejoin="round">
<g id="ne_50m_admin_0_countries-guyana">
<path d="M 36.135 182.3003 24.6596 169.5528 13.1128 156.7259 1.759 144.1186 1 142.3969 5.7499 136.3987 9.9841 132.0825 13.5306 129.6335 15.1968 127.4728 13.9194 118.2216 13.9882 114.8945 12.3326 111.2739 11.1398 107.2116 12.568 103.8237 14.2817 101.462 16.4927 100.5496 21.7848 99.7244 25.5271 99.3912 26.8494 98.0345 29.0287 96.4582 31.8717 96.3736 37.4468 97.4659 39.9857 95.4268 44.5875 92.6578 54.9362 87.8761 57.2609 84.7607 58.8874 79.9314 58.7023 77.6596 57.6418 76.7921 55.0791 76.004 51.149 75.8956 47.9939 77.1333 44.7435 76.4563 42.0301 73.4836 41.874 71.0187 43.4794 67.5383 42.5484 65.2374 37.3754 57.9063 37.4071 55.8883 41.1547 52.601 43.2863 49.8002 46.1981 43.1012 48.5122 40.8717 55.7164 40.0888 57.5492 38.6607 61.2254 35.1168 66.6814 31.0757 74.5759 27.8518 76.8345 21.9779 78.2362 20.3752 84.5068 17.2835 85.599 15.6332 85.4509 14.1812 75.3825 1 77.3819 1.9045 85.1865 10.5051 89.5079 12.3643 90.4177 12.4066 90.4521 10.1719 94.4165 11.1134 104.6648 16.9952 119.6497 26.7119 140.7016 45.0741 146.6866 52.0588 150.7198 55.3488 156.9772 63.357 158.8073 67.2712 158.6301 82.8512 153.0868 93.3851 151.7327 101.3113 151.4312 111.861 148.2099 117.9148 152.4864 114.6247 153.8141 105.1064 157.4532 99.3251 162.1819 92.9778 168.4949 91.4544 175.2971 94.1573 180.7716 94.6334 185.6035 96.5138 195.8782 106.6615 205.9149 114.6856 209.5672 121.1228 220.2096 124.3414 226.4987 129.4166 228.5192 133.8095 229.7649 145.3087 227.7047 162.6633 228.2733 163.5387 225.3958 166.9609 224.8748 169.1322 223.013 172.9882 221.5689 175.0802 223.6768 179.8777 226.0782 180.0893 226.9906 180.7029 227.5936 181.6417 227.4587 182.6599 226.5357 183.575 224.2375 184.7387 222.0556 187.5103 222.2619 190.5597 220.8945 192.1518 216.499 192.9955 207.9011 193.0008 203.6801 193.2071 200.3081 193.7281 198.0918 195.709 195.2699 197.0869 193.059 197.4121 191.0992 199.7104 189.1527 202.9713 189.8112 205.1982 191.8159 208.1761 193.0008 211.2175 191.4457 216.1499 189.7372 219.9583 188.7375 222.8649 187.3808 228.4531 184.0775 234.5994 181.7079 238.0957 181.7184 241.9015 182.9138 247.302 189.6579 255.17 191.8873 258.9308 193.7228 264.9581 199.8056 269.708 203.6457 273.5481 203.2861 278.6207 203.7938 280.2022 206.1767 281.4796 209.0542 282.4608 212.2516 282.3814 215.1053 281.9504 215.7717 281.2363 222.3756 281.1464 223.1187 282.4185 223.4996 289.7179 223.7693 292.672 225.3377 293.8648 226.2765 295.6738 226.3347 297.3161 226.6362 301.4049 227.6148 303.555 227.4587 307.9188 228.1331 309.5188 229.9606 310.6032 232.2615 313.7292 233.129 314.1233 233.5759 315.2288 235.5489 319.6798 236.5512 321.0101 237.2547 321.2058 237.5509 322.7503 238.9791 326.9105 239.9444 327.9366 241.7904 330.9912 242.5336 334.3209 244.9746 338.0791 247.4607 340.7238 248.582 343.4584 251.761 349.5122 254.8368 353.7596 259.0154 354.8677 262.5091 355.4601 264.6936 357.0998 266.8358 358.8691 264.5244 359.6758 262.4615 360.7601 259.5973 359.9244 255.6223 360.3766 251.4833 361.5747 247.667 362.1671 240.4733 360.2629 238.2782 360.0011 236.7866 359.1759 233.8034 355.4204 232.3832 354.9788 228.5536 356.7322 223.8963 357.9435 221.6271 357.7134 218.956 358.9776 216.4699 360.6676 211.7174 367.9855 209.2631 370.572 206.6263 371.7621 201.3554 371.7251 195.7275 371.9843 191.5144 373.7562 187.5659 374.6607 185.5903 374.7771 184.9238 378.7918 184.022 380.6536 182.7816 381.7195 179.7137 382.0395 176.9553 381.8967 175.2838 380.2252 172.179 379.3895 169.4311 378.7918 167.6406 377.837 166.2072 378.075 165.0144 379.7465 164.057 381.1799 163.2213 383.8061 159.0427 384.6445 157.2496 386.1388 158.2889 391.0632 157.8102 392.9859 156.9348 394.4802 151.8861 394.779 147.5778 394.6759 145.1024 396.4928 142.0213 398.6059 140.1489 399 137.9432 398.8704 135.0128 396.4188 132.2015 393.4011 125.0581 391.2854 117.9729 389.5319 113.3262 384.7344 112.2286 382.3727 110.0388 381.336 104.5272 375.6446 101.4805 371.9843 98.1799 371.0084 94.3901 369.4771 94.5434 366.8271 94.2869 364.2749 92.6604 363.2382 90.3754 362.5506 89.537 361.1172 89.7777 357.7716 90.2246 349.1472 89.5899 340.8878 84.5041 338.0209 82.309 336.077 78.4557 323.8664 76.6388 318.3627 76.5541 314.2767 77.8315 302.0872 79.2755 296.8136 83.2082 286.2374 85.4774 282.6565 85.6043 279.9827 85.3742 276.5393 84.2185 269.7503 90.8673 265.4685 93.7183 263.6675 94.1943 260.8006 97.7568 257.1747 99.3304 253.7207 100.6448 251.0072 100.2851 249.5738 98.7327 248.7407 96.9025 246.1542 93.0571 238.7199 91.666 237.2151 90.4918 235.1257 91.0921 231.8278 92.5969 228.2601 92.4039 226.7658 90.1003 224.8405 85.3584 221.6298 81.4177 221.3917 78.371 220.2334 73.8935 220.0773 70.3126 219.7203 68.2815 218.5249 68.6993 216.5546 69.5853 215.0365 72.5976 211.2995 74.6103 207.2981 74.8827 203.3892 75.4936 198.2532 76.3663 193.7942 76.8371 188.756 72.1031 185.4448 70.5929 182.7234 68.6385 180.3088 66.4883 180.3088 63.2433 179.2721 58.176 182.4484 54.1904 181.8612 51.4426 183.0567 45.1111 182.8186 41.0515 181.2662 36.135 182.3003 Z"/>
</g>
</svg>