<?xml version="1.0"?>
<svg xmlns="http://www.w3.org/2000/svg" version="1.2" baseProfile="tiny" width="500" height="363" viewBox="0 0 500 363" stroke-linecap="round" stroke-linejoin="round">
<g id="ne_50m_admin_0_countries-Haiti">
<path d="M 475.4545 67.0097 479.2915 72.2802 487.3689 107.7229 488.1672 119.0793 480.0383 136.2212 481.2143 143.011 498.6652 158.8139 499 164.5135 496.9399 170.2733 481.9954 185.2607 470.5532 195.5441 474.2013 207.3212 483.4718 218.5059 484.6307 227.8537 481.7894 240.2144 467.5488 255.5795 460.1152 261.0903 438.956 261.7599 436.5783 263.9487 447.1279 278.9447 459.0508 295.8892 478.5018 309.0568 482.8366 321.4519 478.1756 333.2032 477.3773 362.1736 462.5015 348.1133 446.1236 336.3448 436.2865 331.7868 426.1232 328.8769 348.1219 330.3962 339.3921 332.422 332.5937 336.1989 325.3146 338.0788 303.8722 341.6067 282.5327 342.3793 232.7121 332.9113 212.9865 328.0013 193.1407 324.9026 170.342 325.9241 147.6291 328.7911 129.4743 335.6152 115.8689 347.6498 113.3281 358.8259 105.2765 361.6929 86.9071 343.89 70.0398 331.2375 50.8378 321.7351 11.3864 308.1984 4.1932 299.9579 1 289.9492 16.9316 259.2362 35.0435 253.6138 45.0179 252.558 67.4132 256.352 89.2762 263.3307 109.225 267.8973 140.0754 269.6742 156.8482 277.2279 275.391 288.9449 297.8807 292.6188 306.6533 291.3312 314.293 286.7474 320.6622 278.464 327.9928 272.2321 363.1436 270.8416 370.5343 268.069 375.6932 259.4079 375.5301 250.4034 354.8602 238.3431 322.5334 211.8706 294.0608 180.6769 306.3443 170.1703 301.6404 150.9597 306.2413 133.1654 313.0225 115.723 284.859 100.7785 251.5794 85.8942 205.3812 81.2246 191.175 77.4648 183.7843 66.3144 190.4367 51.3185 205.4155 43.0265 222.5661 37.9105 240.1458 34.374 282.5585 30.1078 324.6622 34.889 361.0663 50.2884 398.0026 62.3573 444.6815 66.3917 465.7033 70.778 475.4545 67.0097 Z M 295.2025 232.343 292.1037 244.7467 247.1416 230.0168 210.7032 211.4156 212.2569 201.3382 230.858 199.012 248.6953 205.2095 275.0476 217.6132 295.2025 232.343 Z M 319.9068 10.8714 327.04 14.9745 324.336 19.9531 306.5933 16.8629 288.2324 11.2319 282.2237 12.6397 278.5498 11.9358 267.82 6.5194 277.2451 2.3734 286.962 1 297.5888 1.309 319.9068 10.8714 Z"/>
</g>
</svg>