<?xml version="1.0"?>
<svg xmlns="http://www.w3.org/2000/svg" version="1.2" baseProfile="tiny" width="800" height="530" viewBox="0 0 800 530" stroke-linecap="round" stroke-linejoin="round">
<g id="us-states-12">
<path d="M 665.853 529.1791 626.1735 515.0708 620.0011 500.9626 625.2918 464.81 597.0752 403.0862 619.1193 382.8057 634.9911 354.5889 623.5282 336.0719 627.0553 316.673 672.0255 339.5989 722.2862 356.3525 753.148 381.0421 753.148 402.2044 799 436.5934 770.7834 464.81 720.5226 478.0365 685.252 499.199 665.853 529.1791 Z M 512.4254 194.1072 530.9425 216.1515 554.7504 206.4521 606.7746 232.0233 598.8387 254.9492 545.9326 266.4121 535.3514 262.0034 532.7061 233.7869 505.3713 227.6144 494.7901 211.7426 512.4254 194.1072 Z M 448.9382 165.0089 433.0663 181.7625 396.032 181.7625 407.4949 163.2453 448.9382 165.0089 Z M 292.8652 86.5316 310.5005 124.4476 301.6829 146.4918 267.2939 150.0188 244.3679 105.0486 264.6486 104.1668 292.8652 86.5316 Z M 48.6155 1 67.1325 2.7636 75.9503 19.5172 70.6596 43.325 52.1425 58.3151 1 39.7979 7.1724 13.3449 48.6155 1 Z" id="15"/>
</g>
</svg>