<?xml version="1.0"?>
<svg xmlns="http://www.w3.org/2000/svg" version="1.2" baseProfile="tiny" width="500" height="286" viewBox="0 0 500 286" stroke-linecap="round" stroke-linejoin="round">
<g id="ne_50m_admin_0_countries-Honduras">
<path d="M 499 123.0625 478.3323 121.8594 468.5823 124.3518 464.3109 129.9243 460.639 132.4245 457.5784 131.8524 451.3749 134.043 442.0364 139.0002 433.611 140.8773 426.1026 139.6743 423.9238 140.893 423.336 142.5193 422.2034 144.0947 419.2839 144.945 415.9451 144.4944 412.187 142.7427 410.2002 143.4912 409.9847 146.732 407.9547 147.5981 404.1143 146.0737 399.7919 147.2454 394.9835 151.1015 388.2354 151.9283 379.5435 149.7064 372.8149 145.5093 368.0497 139.3294 362.3282 137.7737 352.3196 142.3743 348.1305 147.7431 347.2252 151.0192 348.1971 153.9935 346.3631 155.9764 341.7154 156.9679 338.1806 160.6163 335.7588 166.9177 335.2729 171.7848 336.7229 175.2099 334.4068 177.7375 328.321 179.3559 321.13 184.7952 312.8417 194.0397 304.5966 200.4978 296.3985 204.1619 292.4444 208.2335 292.7227 212.7088 292.225 214.1039 290.6614 214.6368 287.9888 215.2482 272.1725 205.5178 267.6306 198.7383 263.7079 199.7768 258.735 203.1979 251.7517 210.8317 244.2472 221.2165 240.6184 222.3725 221.8944 220.8324 211.9916 221.7455 209.9578 223.1367 209.0251 226.9418 209.5933 232.0363 212.3169 250.337 213.8335 257.8689 212.3404 260.1967 207.2969 260.5651 200.7643 261.631 197.1786 265.0756 196.3282 268.6221 195.9795 273.5872 193.9143 278.7091 189.8661 282.3927 185.8651 283.7055 163.5475 284.6852 163.9277 276.2206 157.4852 272.7917 153.8211 265.73 150.6155 260.9569 151.6775 258.0923 151.3601 254.6947 142.2803 252.073 133.7647 254.1226 128.8662 252.7902 125.2688 250.9836 131.4644 246.7944 131.8955 244.2472 129.9047 242.4093 127.863 241.1749 128.4783 236.4449 129.7362 230.8567 133.2043 217.7954 131.9111 215.5186 126.2289 211.5919 119.0262 211.1922 111.0788 212.4227 107.2502 210.4163 103.8996 205.9254 98.237 203.7779 88.1892 207.3636 77.5732 212.7636 74.3127 214.723 71.6205 214.4605 70.4175 210.4241 69.8806 205.6354 69.2222 204.4519 63.5557 202.7511 56.9368 201.5167 53.5667 200.1882 50.3768 196.9631 42.4647 192.7504 40.6699 189.6271 30.0853 182.4792 27.9456 178.9288 25.516 176.3463 20.4294 173.0506 16.4479 173.8461 3.0339 169.7471 1 169.3748 2.8614 165.7852 7.0898 160.2283 16.3146 154.0562 17.0827 149.0519 14.6727 139.4627 12.2548 133.2553 13.5597 130.4847 16.4322 119.3044 18.6581 116.7023 31.9937 111.0553 33.2321 110.2716 43.7501 102.3595 55.4242 93.5736 67.5568 83.8864 81.1001 73.0666 88.5732 66.7377 92.0335 63.9985 99.8358 66.244 105.9766 61.1221 109.5231 59.4096 117.8192 53.2767 120.3938 51.9325 134.2859 49.4206 141.0027 49.4833 146.877 55.7024 151.5364 59.0882 160.3185 56.1766 167.6701 55.5378 198.0603 61.322 210.1145 58.763 232.2831 58.2144 242.2486 59.6486 256.3288 51.4662 265.3695 49.8203 275.9855 45.9877 274.5708 42.0689 272.0236 40.3094 288.2082 42.0219 312.3088 50.3141 337.9925 48.8171 347.2566 44.3379 353.2366 43.0604 379.5317 51.5916 386.468 58.1399 391.8759 58.7865 396.069 57.2895 397.1976 55.9336 392.0288 54.5072 389.6814 52.4616 410.404 56.4862 449.4038 87.4446 450.2228 89.9644 433.5679 80.8023 424.7428 81.5037 422.4503 82.985 422.9441 87.9854 423.7553 90.3288 427.5369 90.5953 430.3271 89.2473 437.2085 90.8814 441.7661 94.1967 447.3033 99.2911 450.6108 104.8205 454.1847 104.9107 457.6959 101.5797 464.3187 101.1761 468.6294 104.8989 471.6782 104.6795 467.4145 98.911 457.3785 93.1778 459.7651 92.9388 482.012 103.2452 488.2978 116.1733 493.5372 119.1124 499 123.0625 Z M 237.1699 11.8825 224.3006 18.1525 220.276 18.0311 226.1737 13.1874 235.6964 9.0335 243.7574 6.9997 250.3644 7.8814 237.1699 11.8825 Z M 281.2288 5.2088 275.1077 9.8565 274.0026 7.7638 276.9534 3.461 280.6449 1 284.211 1.2469 283.3568 3.1044 281.2288 5.2088 Z"/>
</g>
</svg>