<?xml version="1.0"?>
<svg xmlns="http://www.w3.org/2000/svg" version="1.2" baseProfile="tiny" width="500" height="373" viewBox="0 0 500 373" stroke-linecap="round" stroke-linejoin="round">
<g id="ne_50m_admin_0_countries-Hong Kong">
<path d="M 178.1363 54.2487 180.9776 51.7014 213.2109 23.0931 260.8261 14.7653 285.9073 1 351.4517 1 391.6209 12.071 429.5367 25.1015 433.1617 29.3144 454.7159 66.7403 448.1517 108.722 488.9087 129.0026 499 170.2984 454.1281 192.8324 451.4828 241.4763 431.4962 271.3093 302.171 218.2565 195.5756 190.7259 99.7574 201.65 64.8788 170.4454 58.8044 138.2611 169.4167 82.2201 178.1363 54.2487 Z M 395.4419 356.5953 370.5566 372.0262 301.877 298.5949 297.5662 274.6404 350.6679 270.2316 410.3339 303.3956 407.0028 333.5225 395.4419 356.5953 Z M 160.4031 356.6443 39.6016 356.6933 13.7366 346.651 1 325.3417 43.8145 286.6421 206.7446 233.3445 165.9876 289.3854 160.4031 356.6443 Z"/>
</g>
</svg>