<?xml version="1.0"?>
<svg xmlns="http://www.w3.org/2000/svg" version="1.2" baseProfile="tiny" width="500" height="208" viewBox="0 0 500 208" stroke-linecap="round" stroke-linejoin="round">
<g id="ne_50m_admin_0_countries-Hungary">
<path d="M 444.3207 11.8756 451.3178 11.2806 451.6117 11.3738 453.2678 11.7251 454.422 15.1376 454.6228 15.3491 456.3075 17.6038 457.8919 20.5898 460.3509 22.8337 465.7565 23.7693 472.8253 26.5545 477.3993 31.7916 484.296 33.9675 484.7907 34.0248 486.1457 33.7739 491.1067 33.5839 492.0674 34.6414 496.032 37.2044 497.5733 39.4627 496.7847 41.8464 497.4873 44.5456 499 45.5027 497.1719 47.3165 484.3247 56.3855 479.3063 58.7872 475.9654 59.2819 470.7176 58.3284 465.2905 59.056 460.4441 60.9953 455.9777 61.6118 452.6011 63.9203 448.2279 68.8635 442.8581 73.0503 437.4311 75.6491 434.6208 77.9683 434.2981 85.9942 431.2871 88.3027 427.2437 90.6291 425.0499 92.6831 418.8916 104.9029 414.2173 108.8173 409.7867 111.8212 409.0555 114.5634 409.1415 117.7035 404.1159 123.973 397.5274 130.479 396.2513 133.1495 397.721 136.752 391.4049 140.8958 387.7558 142.8853 384.7376 143.8352 382.8521 146.4304 379.7478 152.7501 380.558 155.5855 380.6512 158.1879 375.3101 159.7113 373.7401 162.5647 372.3851 166.1134 370.1626 167.7229 364.1549 170.673 349.2645 169.3897 343.6295 170.3791 341.9519 172.4904 341.6078 174.1823 339.751 175.7703 336.3456 177.7633 332.8686 178.6559 325.1187 176.2004 308.4432 178.6917 305.5683 180.484 303.2455 179.2043 299.6681 178.0393 282.9782 176.6019 276.3969 177.7454 267.5932 177.3045 259.4418 176.0356 253.3695 177.0643 247.9926 182.0433 245.3329 183.7245 243.2466 184.7999 238.6512 186.3628 234.8228 188.2447 229.704 189.5996 225.1444 189.4097 220.8143 187.2697 219.2657 187.7572 217.9036 189.7287 215.5593 191.4135 209.107 193.4925 207.4581 193.4674 207.0853 193.4674 202.1457 195.0016 193.98 195.844 189.8864 195.249 182.4448 202.1636 180.165 203.4218 173.0962 205.5367 167.2963 206.587 162.3281 205.7482 160.3709 205.673 138.34 205.3217 126.8335 203.8412 119.442 201.1384 114.5383 198.1202 112.1438 194.7866 106.43 192.7648 97.4111 192.0479 90.3854 188.7393 85.3598 182.8319 78.5634 178.1541 69.9819 174.7057 63.1711 169.8342 58.1455 163.5468 49.0837 157.8868 36.0071 152.8504 32.0641 151.7571 31.2898 150.1297 24.8877 143.8782 22.1563 141.5697 22.4 138.4762 21.1239 136.7162 18.7939 135.4795 17.5465 131.0095 16.8152 127.6723 14.9871 125.5215 1 125.0806 12.7073 117.1049 18.5286 114.8824 25.2892 115.266 27.4543 114.5455 28.0278 113.3948 29.1821 110.796 29.7556 108.3441 30.3363 106.0393 29.6122 104.7381 26.3502 104.333 24.773 98.6407 26.4506 96.4899 28.1282 94.9915 26.0563 88.0697 26.68 85.7146 31.9565 85.3454 36.3369 83.8686 39.9071 82.1874 40.9037 80.0546 43.8359 75.6921 41.1331 70.3439 25.8914 66.8633 25.0956 65.5298 28.6444 64.0171 32.4225 61.8592 34.6163 60.178 37.5485 59.945 41.6994 60.791 49.0479 64.6623 51.8653 65.2215 54.5896 64.096 57.5003 63.8558 65.6302 63.9992 72.4696 63.0994 70.9282 58.9736 70.9497 55.9805 69.7883 53.5895 70.5124 50.9584 73.2869 48.9081 74.1185 44.3019 78.3985 41.194 80.3987 40.7459 87.9335 41.3123 89.7186 42.1188 90.8729 42.2981 102.8669 49.8831 114.2157 55.5861 123.5141 58.504 137.1714 58.7442 151.6818 58.9987 175.9567 58.0022 194.1592 57.2566 195.3637 55.8371 198.1095 52.4317 195.93 49.5103 196.0591 46.0762 199.1275 41.6098 208.1033 37.8998 233.8693 36.2688 248.688 33.5051 250.9248 29.7305 255.8285 26.0061 260.3165 25.2533 266.4676 26.9632 273.8734 30.2503 280.3758 31.9888 284.1755 30.8668 297.2592 25.3322 312.3217 19.9338 322.6883 5.2836 323.7924 2.95 335.0337 1.276 351.4367 1.5735 359.8462 3.4805 366.1694 4.4914 375.6471 4.1473 389.3044 1 394.3658 1.0896 398.2802 3.3192 402.5745 5.2406 405.4709 7.5921 407.6646 10.9078 408.8475 12.1588 410.7545 13.8543 414.1958 16.1879 417.5366 16.8116 442.8151 12.7539 444.3207 11.8756 Z"/>
</g>
</svg>