<?xml version="1.0"?>
<svg xmlns="http://www.w3.org/2000/svg" version="1.2" baseProfile="tiny" width="500" height="144" viewBox="0 0 500 144" stroke-linecap="round" stroke-linejoin="round">
<g id="ne_50m_admin_0_countries-Iceland">
<path d="M 408.38 14.5705 413.6087 14.7397 422.1621 13.1743 425.7429 12.1454 434.519 8.5869 439.712 7.596 447.7131 7.8387 451.5812 7.5915 451.6703 7.9367 446.7556 9.3819 442.8073 9.8763 437.1533 12.0274 431.7821 16.8798 427.7961 19.2625 427.8406 20.3203 432.6796 22.1975 437.9817 23.2642 442.8563 22.2977 444.9874 22.6741 446.9137 24.0703 448.0004 25.4532 448.2453 26.8227 447.368 29.6909 444.4352 32.5725 440.478 34.9842 441.0348 35.7435 444.208 36.1354 459.3173 34.5722 460.885 34.688 461.7535 35.4652 461.9227 36.9082 462.7534 38.2131 464.2454 39.3822 463.7799 40.578 457.1662 44.3592 464.9691 41.9787 471.1419 41.3062 481.6995 42.502 486.0196 43.876 488.5493 46.2899 492.2036 45.4905 493.7914 45.5373 496.183 46.9135 496.2676 48.381 494.5151 50.472 493.9072 52.4027 492.0722 53.1954 488.6406 53.77 487.6586 54.418 489.1706 55.8899 491.3953 57.3285 494.5596 57.3953 495.123 58.0567 495.1943 58.8561 494.7667 59.7914 493.7335 60.435 492.099 60.7868 489.9344 61.8178 497.8732 64.0759 498.8864 64.9132 499 66.1446 498.3809 67.4919 497.0292 68.9594 494.6331 69.8301 488.9145 69.9726 485.4139 70.9235 486.6075 72.5135 486.5162 74.5199 485.4629 76.8848 480.9602 80.4656 476.7291 82.3696 472.5916 83.6055 465.2118 83.169 461.1923 82.2181 461.6399 85.309 457.5314 87.213 458.3085 88.803 459.7382 89.6113 459.0278 91.6534 457.0749 93.6753 453.8058 95.8666 450.1048 97.2339 442.7472 98.8818 436.4608 101.6252 432.1652 102.7097 421.4807 102.663 410.5757 104.4289 395.1636 108.1477 384.7864 111.1317 376.7786 114.5076 366.1966 120.0191 358.3402 122.3395 353.8085 122.9653 344.9902 123.4596 337.5992 124.9561 313.0481 127.7619 304.7352 129.294 303.6618 130.6903 300.2146 132.788 299.9986 133.5473 301.5129 134.133 301.7913 134.8946 298.7516 137.3775 292.6812 139.1746 289.813 139.1457 286.3413 137.6002 284.8292 137.6537 284.2347 137.8897 284.199 138.3752 286.1943 140.2301 282.52 141.0942 266.5222 143.2631 239.3144 141.6531 228.5342 139.9874 215.2309 137.3397 207.3099 136.6338 196.0821 136.4623 186.8562 132.7546 182.5873 130.4631 182.2444 129.5122 182.7254 128.4278 183.6851 127.6884 185.1215 127.2876 188.1656 127.2475 188.562 126.9246 186.2394 125.0897 184.0169 125.6843 178.0757 128.2741 175.4324 128.1806 171.9607 126.8868 171.8293 125.6286 165.0418 125.1476 159.1429 123.5754 153.284 121.3152 152.4089 120.4534 155.2236 119.1952 154.6803 118.948 152.5625 118.7342 148.2825 119.1484 141.8357 122.0055 139.0521 122.6624 96.9154 123.3305 86.2287 123.6267 84.1622 124.0609 82.3005 122.2015 80.6415 118.0528 80.0225 115.3205 80.4478 113.9977 81.9286 112.4099 84.2201 112.6794 86.4024 113.942 88.3754 115.7324 90.6446 116.5942 105.3508 114.4163 111.3232 112.9511 113.8619 111.5593 116.8503 109.1921 120.0214 107.9807 121.5334 106.8361 124.5063 103.213 126.5594 101.5295 129.0179 100.2869 131.875 99.4852 138.3818 98.9129 134.1018 98.06 130.02 98.06 116.131 101.888 111.4724 101.888 111.6684 101.2912 113.6325 100.2112 118.4091 98.3451 115.1289 98.2048 113.8752 97.3608 113.7327 95.5815 116.1711 92.7178 127.4791 88.941 131.3895 88.3843 132.5764 87.6383 131.0933 87.0282 128.7306 86.6652 117.3536 90.5488 109.0719 91.8939 106.6112 91.6311 102.3267 90.1235 100.9461 89.4532 99.0978 87.7274 99.3071 86.6875 103.2531 83.6433 102.6162 83.0532 99.9039 82.7526 92.6065 79.949 81.0557 80.2296 52.4762 78.6084 46.5705 79.2965 36.8347 81.7015 30.9491 82.4943 28.2323 81.971 25.7605 80.6994 23.5158 78.9847 21.5005 76.8269 22.3734 75.3215 26.1413 74.4642 28.9048 74.0567 36.6855 74.5778 46.1675 73.068 52.2156 72.7517 53.9526 72.5135 57.5133 70.9057 59.2703 70.5004 62.0116 71.0638 63.3366 72.1549 72.8831 70.4603 76.1588 69.6096 76.5285 69.0886 77.9648 68.4784 82.7125 69.3959 86.5561 69.4248 91.355 68.7946 99.8393 68.5163 118.8255 68.3737 121.6692 66.9909 123.0076 65.7683 124.6822 62.6752 123.9406 62.0383 112.0826 64.8865 109.377 64.8419 95.6506 63.3321 90.6891 61.6241 92.3147 60.2524 99.5877 57.2995 107.0966 54.9302 118.1486 52.3693 120.7362 51.3739 121.0034 50.1959 113.6436 48.0937 99.7012 48.6749 96.1338 46.1808 84.5541 44.7044 76.8447 45.633 72.7473 44.1254 62.7331 46.2098 40.7295 49.2272 31.9757 51.3182 27.2592 52.0107 21.8278 50.3027 12.4795 48.3787 1.9531 47.7797 1 46.6462 7.1395 43.179 11.3416 42.551 15.5748 42.8695 23.6516 45.2878 29.2277 46.045 22.2376 42.4954 22.4202 41.1303 21.8924 39.0883 19.7279 38.2109 17.5901 35.9506 18.4697 35.1868 21.2155 34.9196 26.8405 35.6834 40.2106 39.6049 46.7754 38.9101 50.3785 37.4649 55.2865 36.3938 53.8924 35.8348 42.3373 35.768 36.1599 34.9708 33.0356 33.824 30.3278 31.8688 31.2809 30.9713 34.492 30.2565 44.3592 30.4636 37.859 27.0766 33.3407 25.1303 32.8486 24.1905 33.1581 23.0103 33.7705 22.2198 34.6813 21.8256 46.0049 23.8031 48.4856 23.8877 46.1964 22.6095 41.2305 20.7322 41.0034 20.0285 43.0966 19.4473 44.1299 18.3784 44.2234 17.4944 47.6617 16.7372 51.1267 16.7038 54.6184 17.3942 65.4476 21.0596 66.9998 22.0884 67.5119 23.4445 66.9819 25.1258 67.434 25.8073 71.665 25.2283 75.0387 25.9364 76.7222 25.7449 80.9177 23.213 83.8126 23.8098 85.5584 24.9944 86.0996 26.0656 86.3579 27.5375 85.6208 30.6039 85.8123 31.0359 88.7518 29.3057 93.7622 29.1743 94.408 28.3036 94.5594 25.0791 94.1519 22.3623 93.5974 21.7989 77.1275 18.0333 74.2638 17.1448 70.6763 15.2898 71.4023 14.3567 74.6112 13.5239 79.4501 13.1921 90.6758 13.2366 91.8137 12.8469 89.638 11.8693 84.4405 11.2391 83.2247 10.6757 82.6101 9.5912 76.4483 10.1836 69.5762 10.2081 62.9669 9.5445 62.8311 8.7005 65.441 7.4624 70.8389 5.407 73.353 4.897 80.8998 5.2555 88.3977 4.6788 94.4726 5.3758 99.2915 7.4111 106.1436 10.9853 115.4118 13.2722 116.2602 13.9893 121.1927 15.8621 130.9953 20.9015 140.9561 23.8253 141.4171 24.5691 139.7781 25.4443 135.9501 26.4709 136.8253 27.0409 141.8268 27.7847 145.4299 29.7666 145.6726 30.6262 142.4147 36.7634 140.6844 38.0661 138.6869 38.7542 129.4833 37.5985 131.6768 39.5514 138.2482 41.6313 139.7358 42.7938 138.756 43.9339 139.473 44.1967 141.8802 43.5798 142.8779 44.2279 142.4615 46.1363 141.4371 47.7196 139.8026 48.9778 140.2725 49.5211 142.8445 49.3541 145.2584 49.6792 149.024 51.4162 152.0793 56.7228 153.598 58.4397 154.6914 56.9165 156.0654 53.0418 157.3547 51.0621 158.5617 50.9753 159.6038 50.325 160.4768 49.1091 162.2605 44.8224 168.4356 41.5734 171.384 40.578 174.1542 40.3576 175.5014 40.7629 180.1199 44.17 182.9302 44.7423 184.3755 44.5552 186.3507 42.2437 188.8537 37.8056 189.426 32.8486 188.0654 27.3772 188.8559 23.4757 191.7954 21.1442 195.6545 20.4272 200.4356 21.3223 203.9295 22.7453 210.8306 28.1789 216.4 31.0226 221.1788 34.0778 223.6551 35.0688 228.3916 35.5698 229.6632 35.3739 230.5094 34.6679 230.9369 33.4543 229.917 25.6803 231.2487 23.2597 233.2596 21.5406 241.8174 20.5274 246.4738 19.4496 251.0099 17.6792 254.7688 16.7306 257.7528 16.6036 260.8704 17.294 264.1239 18.8015 269.1989 21.7388 275.5833 26.6089 283.7002 30.2498 287.9558 36.0286 288.8643 37.0061 289.8575 37.1197 290.9309 36.3693 291.619 35.3026 291.8149 32.7328 289.5413 29.3235 281.9499 20.7434 281.8185 19.1178 282.7783 17.8128 288.1272 17.6703 300.5732 18.4564 304.5481 19.788 313.008 25.0301 315.384 26.2972 316.8337 26.6156 317.3548 25.9809 320.6372 25.0078 322.9086 23.8276 326.692 20.9393 334.9582 15.7418 336.6751 15.5882 339.089 15.9979 343.3267 17.3585 345.3376 18.4497 349.3236 19.2803 353.4099 18.9886 359.0506 17.167 365.4239 16.0558 367.6084 13.4749 368.0204 12.2969 362.8852 4.6187 365.0431 3.0487 376.1729 1.1447 385.9065 1 388.2091 1.5211 394.3419 5.2511 398.4995 7.1283 400.5972 8.6381 401.0982 11.9606 403.6257 13.1898 408.38 14.5705 Z"/>
</g>
</svg>