<?xml version="1.0"?>
<svg xmlns="http://www.w3.org/2000/svg" version="1.2" baseProfile="tiny" width="800" height="904" viewBox="0 0 800 904" stroke-linecap="round" stroke-linejoin="round">
<g id="us-states-13">
<path d="M 154.8143 1 154.8143 132.9417 196.4429 168.9257 197.1485 204.2043 221.8434 219.7267 247.9496 225.3713 250.7719 234.5437 298.7507 269.1166 304.3952 283.2281 338.2625 296.6339 339.6737 305.1007 377.0689 304.3952 358.7241 352.3739 355.1963 382.7135 368.6021 402.4695 345.3183 416.5809 354.4907 429.9867 348.1406 444.098 375.6578 457.5039 407.4085 439.8647 420.1088 425.7533 443.3926 438.4535 439.8647 449.0371 452.565 473.7321 473.7321 499.8382 489.2546 509.0106 488.5491 533.7055 503.3661 544.2891 530.1776 545.7002 547.1114 587.3288 561.9284 594.3846 575.3341 582.3899 615.5517 583.0955 645.1857 571.8064 662.8249 578.1564 693.1643 572.5119 699.5145 579.5676 725.6207 574.6285 755.2546 547.817 775.7161 570.3952 799 583.8011 799 902.7188 655.0636 903.4244 413.053 903.4244 28.5173 902.7188 28.5173 667.0583 45.4509 624.7241 34.8674 614.1405 10.1724 612.0238 1 594.3846 27.1061 548.5225 40.512 544.2891 53.9177 525.2387 51.8011 513.244 66.618 497.7214 74.3793 475.1432 101.1909 437.0424 90.6074 419.4032 60.2679 410.2307 42.6286 388.358 41.9231 365.7798 24.9894 343.2016 27.1061 332.618 26.4005 160.4588 27.8117 1 154.8143 1 Z" id="16"/>
</g>
</svg>