<?xml version="1.0"?>
<svg xmlns="http://www.w3.org/2000/svg" version="1.2" baseProfile="tiny" width="800" height="1102" viewBox="0 0 800 1102" stroke-linecap="round" stroke-linejoin="round">
<g id="us-states-14">
<path d="M 173.2458 1 541.7213 4.2705 737.9507 4.2705 731.4099 42.4263 761.9344 87.1231 793.5491 160.1641 792.4589 630.0247 770.6558 666.0001 795.7295 708.5166 799 743.4018 773.9262 771.746 767.3853 797.91 731.4099 840.4263 708.5164 843.6968 713.9673 868.7707 698.705 878.582 686.7131 925.4592 693.2541 938.5411 667.0901 966.8853 685.6229 1001.7705 603.8607 1020.3033 596.2295 1041.0165 614.7623 1067.1805 589.6886 1083.5329 516.6476 1053.0084 493.7541 1055.1887 463.2294 1090.074 473.041 1100.9755 441.4263 1098.7952 396.7295 1042.1066 413.0819 1029.0247 396.7295 990.869 396.7295 960.3444 332.4099 917.828 310.6066 922.1887 288.8033 896.0247 229.9344 855.6885 231.0245 824.0738 264.8196 772.8362 259.3689 754.3034 278.9919 730.3197 250.6475 716.1476 207.0409 707.4264 184.1476 725.9592 168.8853 713.9673 155.8032 648.5575 89.3033 606.0411 28.254 554.8034 3.1804 493.7541 1 453.418 18.4426 425.0738 21.7131 389.0984 77.3115 367.2951 82.7622 336.7706 108.9262 317.1476 112.1967 282.2624 79.4917 253.918 92.5738 219.0328 169.9755 209.2214 232.1147 184.1476 238.6558 153.623 264.8196 140.5411 272.4508 102.3854 266.9999 77.3115 222.3033 57.6885 216.8524 36.9754 173.2458 1 Z" id="17"/>
</g>
</svg>