<?xml version="1.0"?>
<svg xmlns="http://www.w3.org/2000/svg" version="1.2" baseProfile="tiny" width="800" height="974" viewBox="0 0 800 974" stroke-linecap="round" stroke-linejoin="round">
<g id="us-states-15">
<path d="M 797.6588 17.094 799 309.4705 794.9764 651.4705 776.2 662.2 796.3176 729.2588 753.4 730.6 707.8 753.4 644.7648 742.6705 647.4469 790.9529 605.8705 811.0705 589.7764 841.9176 546.8588 853.9881 524.0588 915.6821 495.894 931.7764 440.906 908.9764 431.5176 880.8117 377.8705 911.6588 381.894 938.4821 326.906 947.8705 310.8117 923.7293 249.1176 947.8705 229 973.3529 167.306 937.1409 135.1176 945.1881 113.6588 927.7529 93.5412 945.1881 31.8471 947.8705 9.0471 970.6705 1 954.5764 15.7531 896.9057 34.5295 884.8352 27.8236 853.9881 55.9883 849.9645 100.2471 797.6588 108.294 765.4705 139.1412 730.6 135.1176 687.6824 104.2707 635.3764 131.094 591.1176 132.4352 13.0707 156.5764 29.1648 231.6824 29.1648 304.106 1 507.9648 1 797.6588 1 797.6588 17.094 Z" id="18"/>
</g>
</svg>