<?xml version="1.0"?>
<svg xmlns="http://www.w3.org/2000/svg" version="1.2" baseProfile="tiny" width="406" height="400" viewBox="0 0 406 400" stroke-linecap="round" stroke-linejoin="round">
<g id="ne_50m_admin_0_countries-india">
<path d="M 1 162.1339 1.9572 161.5357 2.6265 161.1558 3.9934 160.8387 5.4806 160.6122 6.8367 160.621 8.7404 160.6474 8.7958 156.4811 8.9554 156.116 9.2231 155.9051 9.53 155.8152 9.7909 155.8794 10.183 156.5034 10.6697 156.4689 11.1862 156.11 12.3463 156.3777 13.2738 156.1945 14.2148 156.4392 15.8142 156.4446 18.6995 156.3459 20.3016 156.3777 21.34 157.0408 22.4757 157.7689 23.7074 157.871 25.488 157.7858 26.6967 157.5066 27.3065 156.8279 27.7648 156.1782 30.4067 155.2257 33.1784 154.4524 33.9747 154.3672 34.2276 154.8174 34.1005 155.5746 34.425 156.2952 35.535 156.7515 36.3219 156.8637 37.0276 156.761 37.5509 156.5318 38.6744 155.3995 39.2544 155.1419 40.0116 155.1602 40.8593 154.6193 40.8769 154.2056 40.336 154.0069 39.8791 153.4106 39.9629 152.9253 39.8317 152.2411 39.9223 151.5921 40.282 151.1054 40.912 150.6369 40.5362 149.6689 39.5694 147.8146 38.5568 145.4417 37.4873 143.4637 36.1312 141.7304 35.4322 140.4588 35.5039 137.65 35.3822 137.0801 34.9171 136.7347 34.2898 136.54 33.4082 136.8259 32.6146 136.8807 30.907 136.8198 30.0687 136.5319 27.7919 133.7142 27.4931 132.6069 27.4809 131.4725 28.2408 129.4952 28.4706 127.6571 28.5761 125.9421 28.449 125.4573 27.992 124.8814 27.2267 124.4562 25.1784 124.3541 22.7488 123.7876 20.8749 122.7898 19.5783 122.1868 19.2227 121.7947 19.0672 121.3316 19.4066 119.259 19.9947 116.922 20.4233 116.2067 21.1656 115.4665 21.7159 114.9622 22.5947 114.295 24.9688 112.0668 27.0942 109.0058 28.4057 106.8696 29.0898 106.2348 29.7875 105.6913 30.8137 105.0335 31.994 104.4326 33.1689 104.4589 34.2857 105.0038 35.1145 105.6453 35.3917 107.0589 35.9798 107.9776 36.6139 108.5312 37.4522 108.7996 38.5176 108.7327 42.8076 107.1103 44.2664 106.7831 47.7668 106.5809 50.1721 105.9549 52.2988 105.2985 52.5557 104.1223 53.3751 102.3247 55.8736 99.9844 56.5753 98.9399 57.3325 96.9457 58.1369 95.1258 58.8278 94.3694 62.7555 92.3724 66.6006 90.5364 67.2293 89.7049 69.7157 85.8962 71.1394 83.3111 71.5085 82.4796 72.3319 80.2325 73.2229 77.9983 74.4113 77.4818 77.0492 76.63 79.1421 75.7972 80.2129 74.8467 80.8619 74.0152 80.7402 73.1905 80.1602 72.2143 80.2832 71.6343 80.39 71.0624 81.9084 69.8949 84.7693 66.4431 86.4823 64.7186 87.0501 64.7206 88.8416 63.8033 90.5451 62.7649 90.4478 62.2931 90.2342 61.6826 89.2567 61.4082 88.9511 60.6754 89.1904 59.6262 90.007 56.8018 89.8394 55.9912 88.8443 53.3744 89.066 52.6517 89.4757 51.9122 90.5857 50.9265 92.0216 50.1085 96.6185 48.163 97.55 47.9493 99.1468 47.4572 100.1243 46.4195 100.246 45.5346 99.8187 44.985 98.8642 44.2482 97.0701 43.5803 95.453 43.0009 92.7057 43.0617 91.278 42.5635 90.8913 42.2154 90.6912 40.9864 90.967 38.9103 90.5397 38.7271 89.9286 38.9718 88.4765 38.7258 86.6932 38.7576 86.0131 38.1796 86.3525 37.4819 86.2524 36.5524 85.9874 35.6688 85.7103 35.4843 84.8585 35.274 83.5322 34.5108 82.464 33.5698 81.8367 32.9323 81.6434 32.4929 81.7042 32.2022 82.4816 31.3842 83.4145 30.237 83.7579 29.2507 83.8607 28.5362 83.6011 28.0089 82.7493 27.3633 81.8394 26.7995 81.473 26.3094 81.4581 25.5691 81.7975 24.643 82.8697 23.944 84.7693 23.2808 85.2573 22.4568 85.1965 21.8463 84.6773 21.6631 83.3429 21.6591 81.0904 21.4502 80.7091 21.1142 80.4563 20.6626 80.4536 20.2151 80.9295 19.7061 81.5 19.0618 81.4013 18.4345 80.7402 17.7253 79.1529 17.2061 78.9393 16.474 79.1827 15.8629 79.7086 14.9915 80.1656 14.3858 81.2472 12.6633 82.5573 12.2868 84.1649 11.7297 85.9428 11.1139 88.678 11.5756 90.0097 11.8007 92.7043 12.3273 94.9622 12.7688 97.2688 12.8938 98.2247 12.8634 99.2847 13.3846 101.8941 14.2797 104.0128 14.7502 105.4473 14.7454 107.5645 13.9538 108.6191 13.2298 110.0415 12.4355 111.8613 12.4659 115.7971 11.2423 116.5339 11.4532 117.7034 11.5229 119.1136 10.8158 119.8437 9.9761 119.9613 9.557 120.3129 9.2474 121.819 8.714 123.3306 7.9765 123.743 7.0024 123.9917 6.3439 125.652 5.4908 127.3745 4.6045 129.1808 3.6763 131.2319 2.6218 132.9679 1.7287 134.3862 1 134.4294 1.0433 134.5457 1.1575 135.1082 1.4861 135.7085 1.649 136.4142 1.336 137.2944 1.0784 137.7541 1.2231 137.8203 1.6436 137.2903 3.6162 137.3323 4.3902 138.2124 5.9978 139.3576 8.6065 140.4325 11.0524 141.0679 12.6572 141.6899 13.315 144.3033 13.9856 146.4504 14.5366 147.728 15.4397 149.1369 16.3064 150.1279 16.8377 150.5943 17.5205 150.689 18.137 150.6011 18.5507 150.063 19.0943 147.5888 20.4963 147.294 20.9411 147.2237 21.5252 147.7091 23.2666 148.0147 24.3577 148.0998 26.5514 148.2648 28.6369 149.1396 29.5867 149.8548 30.2005 150.2942 30.7576 151.1825 31.5201 151.9288 32.0886 152.5656 32.4226 152.8793 33.175 152.6927 34.0586 152.4318 34.8279 152.5115 35.2416 153.0226 35.535 153.8081 36.3023 153.9095 37.4265 153.8541 38.1992 154.1637 38.8948 154.2462 39.6661 154.0055 41.5914 154.0407 42.3729 154.0447 42.4628 153.3606 42.5162 152.7711 42.813 151.9356 44.0257 150.9756 44.3448 149.8859 44.4408 148.7637 43.6965 147.8416 42.9198 147.5955 42.4878 147.363 41.6692 146.8668 41.1344 145.9068 41.3846 144.4507 41.4974 142.8742 41.6786 142.5863 41.8584 142.5579 42.2025 142.9432 42.9387 143.2731 43.8987 143.4664 45.2419 143.8937 46.1295 144.0289 46.4128 146.5464 49.081 147.2089 49.6245 147.3454 49.9821 147.1277 50.9556 146.6748 52.0927 146.764 52.9945 147.6009 53.9916 148.2797 54.6879 147.6172 55.6262 147.2251 56.7126 147.6658 57.2006 147.4576 58.7622 147.655 59.057 148.1228 59.1793 148.8556 59.0705 149.6168 58.6574 150.2604 58.5763 150.6471 58.6953 151.1622 57.5116 151.6138 57.3439 152.4912 57.6705 154.2286 59.8979 155.6983 61.7813 156.1255 62.1383 156.3865 62.3559 157.8358 63.3321 158.8363 63.95 160.2046 63.7262 162.0096 63.6843 163.079 64.2887 163.6983 64.7098 163.7253 64.7693 163.8078 64.7849 165.9805 66.264 166.9215 66.1545 167.5434 66.5783 167.7205 67.6235 167.4312 68.7091 167.5002 69.2202 168.4655 69.3182 170.5233 70.0362 172.3431 70.6723 173.2828 70.8751 174.2968 71.3463 175.1919 72.1 176.9468 73.0667 178.4963 73.807 178.8397 74.8122 178.2285 74.5972 177.4187 74.7095 176.5953 75.155 176.2046 75.4375 174.3239 77.1681 173.3382 77.7008 172.454 78.4769 170.4165 80.824 169.2402 83.0143 168.3817 85.0735 168.3966 86.5316 168.0788 88.2399 167.2 89.2134 166.6592 89.5446 166.0237 91.015 165.5681 92.73 165.8318 93.2857 166.9242 94.0347 167.9896 94.7648 169.3497 95.5531 170.6477 96.3062 171.486 96.4049 171.7172 95.9769 172.0227 95.57 172.98 95.7856 174.1468 96.5245 174.9066 97.1106 175.2473 97.3073 177.2591 98.2923 178.9276 99.1089 181.0367 100.1412 181.5532 100.7726 182.0061 101.4446 183.0012 102.3376 185.4268 103.9181 187.4967 105.0498 189.1814 105.9725 190.5023 106.6195 191.1148 106.5174 191.784 106.174 192.3722 105.9732 193.0549 106.1557 194.092 106.6492 196.5256 108.15 198.7916 109.3229 201.2631 109.1119 201.9202 109.3006 202.384 110.3633 202.6963 111.4388 205.4571 112.1493 207.2743 112.4697 209.3483 113.0545 210.3988 113.4878 211.5021 112.9443 211.7035 112.4657 212.5783 112.1817 214.025 112.3061 216.729 113.1424 217.862 113.3932 218.8085 112.6002 220.5756 112.2324 221.4923 111.8214 223.4135 112.7009 226.8896 113.8035 228.6797 114.489 229.1028 115.165 229.2975 115.8045 229.284 117.3546 229.7207 118.0563 233.2076 119.6362 234.3555 120.3061 235.2857 120.5218 235.813 120.5488 236.1753 120.7475 236.4877 121.6487 236.7324 121.8562 237.403 122.0806 238.1331 122.2098 240.3964 121.4317 241.9472 120.8415 243.0545 120.9916 243.767 121.6473 243.8711 122.6025 244.2848 123.6118 245.0771 124.1046 245.9235 124.1594 248.0232 123.4786 249.7132 123.9999 251.2667 124.1898 252.9906 124.5163 253.6598 124.7671 255.4486 125.602 257.6321 126.4457 258.4785 126.3504 261.9938 124.7793 262.2912 124.9706 263.0064 126.4714 264.0759 127.0108 265.7456 127.4807 267.4925 126.6133 268.8702 126.8621 270.5359 126.9432 272.134 126.5255 273.5239 126.42 275.5438 127.1751 275.9846 127 276.3713 126.5153 277.1555 124.35 277.8477 122.4342 277.7882 121.2917 277.1487 119.6145 275.5168 117.4324 275.3951 116.7699 275.9454 112.9632 276.5511 110.7689 277.073 109.7298 277.6462 108.2514 277.7476 107.5666 277.6922 106.9487 277.1311 106.5708 276.981 106.101 277.1203 105.7068 277.5651 105.4865 279.4215 105.2107 281.509 104.6178 282.3419 104.3021 282.9719 103.985 283.6128 103.4868 284.2104 103.5078 286.0816 104.2298 286.7387 104.6834 287.0834 106.0631 287.3633 106.5978 287.101 107.9999 285.9815 111.3989 286.2006 112.6725 287.1375 113.6007 287.9528 114.2483 287.8176 114.5059 286.1384 115.6044 285.8396 116.1932 286.2114 116.7658 286.8752 117.2532 287.174 117.7163 287.485 119.1575 288.3368 119.5625 290.0228 120.4927 291.5086 121.1694 294.0545 120.7198 294.7752 121.0254 296.0271 121.3458 297.0033 121.4452 297.5712 121.6845 297.8902 121.9164 297.8483 122.2084 297.9011 122.5086 299.2991 122.585 300.0319 122.756 302.5142 122.4464 305.0033 122.0218 306.1539 120.7354 306.6568 120.6434 308.09 120.1425 309.4988 120.6901 311.0523 121.4405 311.8892 121.6669 313.5414 121.7852 315.1489 121.7014 318.9995 121.3458 321.1128 121.5324 323.0543 120.4643 323.4572 120.467 324.3117 121.2917 326.4438 121.3654 327.5809 120.9672 328.8045 120.6597 329.5873 120.5616 330.2119 120.5508 330.9677 120.6319 331.6789 120.3568 332.0074 119.8031 331.9344 118.9676 331.418 118.059 330.9718 117.5263 330.8839 117.241 331.0259 116.584 331.422 115.6571 332.1453 114.6005 331.6126 113.575 330.8636 112.3913 330.312 112.2791 328.9316 112.5515 327.4335 112.4974 326.2572 111.7903 325.3798 110.9034 325.1662 110.1591 325.4203 109.2512 325.8111 108.4163 325.8949 108.1027 327.0117 108.1047 328.5638 108.2899 329.736 108.5218 330.6811 108.5123 332.3928 107.4429 333.1729 107.3786 334.0679 107.1752 334.4587 106.9737 334.7304 107.1299 335.712 107.261 336.7341 107.2076 337.6454 106.9122 338.5594 106.4518 340.1886 105.4865 340.5131 104.9321 340.509 104.4231 340.2062 104.0891 339.8993 103.9276 340.025 103.4868 340.7078 102.7425 343.1996 101.621 345.3196 100.2433 346.4864 99.2097 347.0204 97.9577 347.6951 96.5996 348.3238 96.0641 349.8272 95.7241 354.0415 95.2232 355.3679 94.6756 357.327 93.6589 358.3153 92.8619 358.8642 92.2149 358.9251 91.495 360.2244 91.2685 361.3587 90.1051 362.7405 88.9322 365.1606 87.9411 367.3063 86.6094 368.054 86.8223 368.8341 87.451 369.2451 88.148 369.333 88.4995 372.0749 88.9403 372.5089 88.8693 374.5289 89.4939 376.3893 90.2484 377.4141 90.4377 377.9144 90.4167 378.343 90.1828 378.8459 89.5183 379.361 89.0376 379.6828 88.8416 379.6666 88.0777 382.3599 86.5898 384.7786 85.5223 386.8594 84.7436 387.4719 85.0627 388.1493 85.6542 389.0659 87.1624 389.623 87.5315 391.0386 87.3212 391.2968 87.4862 391.0737 88.0297 390.1151 88.7023 388.8739 89.3053 388.0641 89.7982 388.3277 91.4402 388.2682 92.006 388.6157 92.1845 391.1724 90.5546 392.4028 90.2328 392.8368 90.6263 392.976 91.4977 393.9846 93.2938 394.4119 94.2065 391.8471 96.3819 390.902 97.5054 390.9372 97.9009 390.8858 98.2923 390.2314 98.8514 390.2665 99.0745 390.7979 99.428 391.4428 99.6944 391.7565 99.6856 392.2919 99.1583 394.7134 98.412 395.4083 98.5526 397.1105 99.6977 397.9028 99.762 399.9498 100.104 401.2586 99.6714 402.2239 100.0675 404.2222 101.5007 404.6792 101.7616 404.5102 102.6303 404.4061 103.5889 404.9104 104.3521 404.9713 105.0241 404.855 105.6413 404.4534 106.0658 403.3448 106.3017 402.3997 107.0379 400.903 108.102 399.6997 108.9565 398.8263 109.7102 398.5099 110.5012 398.6032 111.4963 398.8574 112.538 401.6507 116.3629 401.6277 117.0261 400.7421 117.2113 399.5699 116.7786 398.5572 116.1621 397.4161 114.5235 396.4994 114.0347 395.5868 113.9272 390.1665 114.7702 389.0119 115.0068 387.2204 115.6186 385.9671 116.851 385.0585 117.9786 384.1175 118.4329 382.7479 119.3103 378.9473 122.0016 376.7489 123.1616 375.3144 123.5888 374.3071 124.2 373.7636 125.1937 373.3526 125.9069 373.2296 127.6612 373.4797 129.8231 374.0259 131.2035 374.3153 131.4942 374.3585 131.8978 373.8123 132.6448 373.089 133.2816 372.7361 133.6743 372.4143 135.6469 371.7734 136.6191 370.6026 138.0455 369.5602 139.1237 367.9255 139.9606 367.3036 140.6373 366.7087 141.8859 366.3558 142.9432 366.3369 143.3272 366.5235 143.6625 367.2036 144.035 368.0297 144.3953 368.4231 144.9591 368.4772 145.6391 367.8634 147.269 366.7669 149.5364 365.5081 151.3305 364.2102 153.0415 363.9032 153.5999 362.7378 155.7023 361.7224 158.5916 361.0383 160.5372 360.4475 161.8689 359.716 161.9298 358.8304 161.5025 356.6793 160.9354 355.3003 160.4784 354.2971 160.068 353.6035 160.0843 352.6449 160.3513 351.6714 160.5345 351.0954 160.333 349.7583 159.1324 349.3527 159.2697 349.0904 159.8558 349.9935 163.2852 350.5803 164.5602 350.4857 166.693 350.2531 169.3078 349.9029 172.1687 349.6731 172.8272 349.0998 173.583 348.3454 173.7891 347.6586 173.491 347.1083 173.56 346.9258 174.0406 347.0853 175.2777 346.4174 176.6933 345.9253 177.9047 346.0564 179.081 346.2903 180.2735 347.0786 182.8613 347.084 183.807 346.9285 184.6554 346.5175 185.0076 345.813 184.9488 345.4304 185.301 345.1397 185.831 344.3447 187.7962 343.5822 188.0017 342.8183 187.7077 341.6704 186.3975 340.9728 186.0149 340.5293 186.0352 340.3319 186.3806 340.0263 187.1655 339.7181 187.6914 338.9501 188.1518 338.7608 187.1831 338.3539 182.1677 338.0456 180.5703 337.7941 178.359 337.421 177.6803 336.9505 176.4702 336.434 175.4292 335.9973 174.9864 335.7147 173.0367 335.612 170.6477 335.6174 169.5201 334.9968 167.1851 334.3978 164.5392 333.5812 164.6508 333.0999 164.0092 332.7497 164.0214 331.6005 164.6197 330.6933 164.4229 330.0159 164.5061 330.0145 165.7209 330.1308 167.0161 329.8712 167.4819 328.0838 169.005 327.5876 170.0258 327.639 171.0986 327.8594 172.5345 327.543 173.2625 326.767 173.9365 325.7232 174.2847 324.8092 174.1204 324.2238 173.537 323.6722 172.0477 323.1854 171.2358 322.6757 171.0425 322.2769 171.2622 322.2241 172.1971 322.2498 172.9712 322.1214 173.057 321.8374 172.9374 321.5103 172.5581 320.6598 168.8306 319.4376 165.9588 319.3673 164.8569 319.8107 163.4414 320.3583 161.2599 321.8036 159.8984 321.9943 159.321 322.2282 158.8641 322.5824 158.7728 324.4333 158.9019 325.0566 158.6829 325.6069 158.0427 326.4046 157.5269 327.205 157.3194 327.8405 157.2423 328.8613 157.7317 329.2871 157.4546 329.5927 156.5494 330.0362 155.6516 330.3215 155.2197 331.0056 155.0236 331.879 154.9756 332.1683 154.812 332.4022 154.5092 332.6172 153.32 333.7326 150.6647 334.1288 149.4843 334.1829 149.2734 334.1518 147.9565 334.4695 147.7666 336.3204 148.4074 337.1262 148.3986 337.567 148.1343 337.7117 147.6523 337.4751 147.0872 336.1609 146.1042 333.8246 144.7779 331.6789 143.9674 327.7161 144.0897 323.7871 144.3459 322.6378 144.2148 321.2047 143.8497 317.6759 143.9038 313.4102 144.1059 311.7891 143.9917 310.9887 144.0072 309.3839 144.1303 306.7677 143.7531 304.9573 143.2684 303.3538 142.737 301.4501 142.255 300.9932 142.2604 300.7268 142.086 300.5443 141.6601 300.4807 141.1105 300.8769 138.5585 300.5267 134.6897 300.8498 133.2802 299.2842 130.0982 298.7447 129.5087 298.0268 129.483 297.5657 129.8934 297.3859 130.637 297.6442 131.4665 297.0696 132.396 295.9203 132.6968 294.5751 132.3845 293.461 131.9485 292.0373 131.002 290.9557 129.6689 290.8678 128.1999 290.381 127.2508 289.7145 126.7891 289.2264 126.6607 288.7911 126.7634 288.4057 127.2758 288.7397 127.7896 289.2007 128.5075 289.0466 128.9956 288.6356 129.072 288.0231 128.8624 287.0753 128.9774 286.16 128.6008 285.6097 128.567 285.0649 128.4305 285.0351 127.5821 284.1968 126.5065 282.7867 125.3005 281.4008 124.5562 280.7329 124.659 280.4003 125.4803 280.4774 125.7879 280.9587 125.9407 281.6577 126.4173 281.8119 126.9169 281.7091 127.3536 280.8452 128.1492 280.2354 128.9037 278.8671 130.0036 277.699 131.2623 277.3975 132.2168 276.9594 133.0733 276.7823 134.0164 277.0879 134.6687 277.653 135.0798 279.1132 135.3792 280.6383 136.6474 281.8741 138.3612 282.5676 138.879 283.8277 139.4563 286.26 139.5232 286.6237 139.9971 286.9685 141.2531 287.4458 141.6959 288.6829 142.2881 288.787 142.7242 288.4841 143.2264 287.9352 143.6226 286.9266 143.8741 285.9612 143.9748 284.9918 143.8153 283.556 143.7125 281.9281 143.7051 280.7748 146.8465 279.9501 147.9498 279.481 147.9484 278.2263 147.413 277.6855 147.4955 276.2361 150.2868 276.0306 150.9594 275.9359 151.4664 276.7066 152.5453 277.626 153.4329 278.7265 153.7811 279.5864 153.5168 280.2841 153.8751 281.1074 154.7694 282.5136 155.3596 284.5038 155.6455 285.6286 156.3527 285.7679 156.9617 285.6706 157.5803 285.4934 159.1946 285.3001 160.1235 284.2306 162.5625 283.4667 164.6663 283.8629 165.6661 284.1455 166.0738 284.4132 166.3888 285.2704 167.1777 285.868 167.9585 285.3582 169.9494 285.6408 170.4733 286.7927 170.8235 288.0312 171.0905 288.4612 171.4197 287.3876 173.4424 287.6148 174.8498 288.0677 176.1701 288.3963 178.3293 288.4449 178.5564 288.3584 179.0979 289.0615 180.7744 290.1485 184.0463 290.2296 185.2699 290.1688 186.5584 289.8429 188.7176 288.7545 188.7075 289.728 190.1515 290.0376 191.1891 290.1715 192.6372 289.0006 192.8136 288.1745 192.6514 287.4836 191.3832 287.1632 192.5364 285.9261 193.6025 285.4826 193.082 285.2298 192.5222 285.1811 191.538 285.8598 187.7732 285.7219 187.3487 285.4177 187.0708 284.7431 186.9214 284.4943 186.1596 283.4586 190.1724 283.9156 191.8111 283.7061 192.5594 281.7862 193.1888 279.8406 191.6786 279.5918 191.1959 279.4769 192.045 279.124 193.0773 277.3015 192.8907 276.3983 192.0828 276.9878 190.7065 278.1181 187.3926 278.329 185.9162 276.8174 184.8339 275.5344 184.1701 274.8002 182.6659 275.0801 184.3174 275.7602 184.9042 276.7607 185.3186 277.8166 186.163 277.0527 187.1925 276.3145 187.8334 274.8976 190.265 273.171 191.6231 271.1565 192.6453 264.545 194.1494 263.1606 194.7599 261.1312 196.6351 259.8224 198.4158 259.5831 200.2207 260.324 202.1697 260.927 205.2226 261.4273 205.8445 260.7215 206.9572 259.4952 208.1403 258.4785 209.735 258.5718 210.6104 258.3108 211.2013 254.8266 213.1617 254.0938 214.3069 253.1352 215.4446 251.9874 214.7936 251.3168 214.8037 252.2402 215.7069 252.1158 216.3038 251.7913 216.6533 250.9152 216.9805 245.8856 218.4211 242.0377 219.7894 240.9561 219.7339 241.1535 219.3189 241.8268 218.9511 241.7619 217.3807 241.0562 217.0927 240.4451 216.9792 237.5193 218.893 236.3308 220.7865 236.5796 221.1468 237.2407 221.0576 239.212 219.9834 240.126 220.2883 240.1909 220.7081 237.2002 222.3447 230.9065 227.6467 230.6131 228.6891 229.7964 229.8715 228.6688 230.9842 226.6394 233.6781 222.7483 237.6815 221.6734 239.1755 215.446 242.2602 214.3103 243.1775 211.759 246.1811 209.1333 248.6411 206.0669 250.6786 200.7548 253.2799 197.5207 255.7406 196.5094 257.3759 196.4458 257.9573 196.796 258.7536 197.3882 259.4925 197.5234 260.0793 197.2314 261.1352 197.0718 261.7193 196.1254 263.166 194.5016 264.1976 189.2463 266.3554 188.5513 266.2865 184.2613 265.8606 182.6592 266.2506 182.0007 267.2626 180.527 271.4465 179.1141 272.5585 178.6071 273.5651 178.403 274.2628 177.5593 274.2445 176.8251 273.9322 176.2884 274.158 175.6773 272.7539 174.6524 272.4666 173.8047 272.3706 170.1812 273.7862 168.9157 274.9219 166.2522 280.2814 165.5924 283.7372 166.2184 287.5553 167.1432 290.6068 167.3271 291.9846 167.2081 293.7692 166.739 294.6393 166.3996 295.6688 166.8417 297.7909 167.9599 300.57 168.233 301.7429 168.256 302.9563 169.0969 305.7361 168.5304 305.2345 168.0842 304.065 167.0161 302.5696 165.7128 304.0582 166.4348 305.1317 168.8725 306.4053 169.5931 307.4491 168.0248 316.7389 166.8336 320.0386 165.3721 322.2011 164.6001 323.0367 162.8938 326.4519 161.6878 330.5851 161.4485 332.1764 161.992 333.9571 161.3768 335.0103 160.6048 335.8141 162.0704 335.4524 162.572 336.4191 162.7572 337.4156 162.7789 343.3415 162.6126 349.5203 161.4877 349.7725 160.2479 349.8367 159.1568 349.6616 158.3685 349.4223 156.4148 349.7502 155.363 350.4323 154.5193 351.5659 154.5774 353.4987 150.9567 358.3734 150.1766 359.9979 149.8886 361.5609 150.3591 362.3788 151.2839 363.2157 152.4899 363.5537 154.8222 363.8904 155.9416 364.34 156.7042 365.1674 153.9555 364.2866 150.7255 364.1128 142.9986 366.3768 140.9638 367.9668 139.8281 369.3418 139.0466 372.4914 138.9128 374.5965 137.9961 376.3514 133.9833 379.0474 131.4482 379.8775 130.4842 380.5914 127.4922 379.6639 124.2311 377.3019 122.8601 376.0371 118.0198 369.9482 117.1356 369.1769 116.1594 366.5742 116.0053 365.6041 115.7362 365.2174 115.2752 364.9538 115.0548 364.5522 113.9678 361.5717 113.5216 358.4654 112.8294 354.9954 113.4148 355.234 114.2233 356.3765 114.6276 358.0375 114.6735 360.3562 115.2819 360.6252 115.8255 360.4069 114.2706 355.0643 112.9172 353.7373 112.5576 353.6501 112.1817 352.7936 112.1412 351.7187 112.2629 351.2083 111.1812 349.4588 110.804 348.4171 108.4015 343.1306 107.3225 339.3442 105.6501 335.1327 104.5738 333.6562 102.8906 330.4066 101.4804 328.8964 99.985 326.8717 98.8101 325.9733 98.3518 325.5001 94.8744 318.4803 93.8049 314.6034 92.9004 312.7721 92.4515 311.3808 91.2306 305.4332 91.2212 304.3699 91.0724 303.2085 90.2085 300.6883 88.6861 297.9653 88.2453 296.2691 88.2494 295.6094 87.2827 292.9661 87.0758 291.7574 86.4228 290.64 85.6657 289.6144 84.872 288.7924 83.013 286.1161 82.3464 285.463 81.0809 283.727 80.1818 280.5193 79.0258 279.266 80.8416 279.266 79.7343 278.0823 79.207 277.3055 78.6243 276.8283 79.4693 275.6331 78.0848 275.6669 77.352 274.9476 76.3529 272.7019 74.5303 270.1661 74.2207 268.8114 72.6131 264.5505 71.2503 254.3237 70.0024 249.77 70.0997 248.4619 68.5922 244.5187 67.8553 241.8748 67.5525 239.6379 67.1523 238.1655 66.7926 235.2512 66.2153 234.3278 66.1518 233.7707 66.5371 232.443 67.6187 230.3907 68.0162 229.0907 67.5525 227.26 66.5641 229.1819 65.6502 229.7207 65.2121 228.2849 65.2081 226.3542 65.0945 225.8924 65.3311 225.2441 67.762 225.5416 65.0025 224.3572 64.6713 223.6623 64.5672 223.1451 65.1621 222.1858 64.1535 221.3767 63.7506 218.9004 63.4531 218.3353 63.3395 217.8783 63.9101 214.4576 66.2937 207.7407 66.4681 206.2237 66.2626 204.0673 65.7313 202.3508 65.5068 200.5357 65.3622 200.0706 64.4996 199.905 63.6803 199.2337 62.7311 196.5432 63.5991 195.6603 64.267 195.1749 63.3477 195.3811 62.5851 195.2993 64.0291 194.0609 65.3162 193.1104 68.2501 192.0071 69.4967 191.3034 67.6498 191.9368 65.7205 192.1782 61.613 192.049 62.2971 189.543 63.011 188.7068 63.7884 188.237 62.6432 188.3783 61.325 188.1775 61.7509 185.6336 62.7879 185.0847 63.9074 184.9799 65.2973 184.6183 63.8128 184.1985 62.2647 183.9977 60.407 184.4134 58.6994 184.1072 56.6253 184.1139 57.4528 184.454 58.337 185.2287 57.8936 186.6057 57.4771 187.4656 56.3333 188.0585 55.4018 188.9563 55.1408 189.7452 54.6095 190.2981 55.5194 190.6923 56.4604 190.9728 57.0066 191.611 57.6475 192.5385 57.611 194.3414 55.1543 198.5908 54.3053 199.5373 48.1562 202.1007 45.7388 203.496 40.5902 205.3084 38.5838 205.6458 36.3638 205.2868 33.1202 203.9057 28.1678 200.3823 26.8806 199.2175 22.9219 194.6916 20.0637 192.2985 17.8964 190.0697 15.2139 187.9659 12.6816 185.1239 12.1435 183.8293 12.3314 182.5125 13.2751 181.7939 14.3784 182.0852 15.2491 183.1952 15.867 183.6921 16.3888 183.8956 20.1637 182.1941 21.6307 182.2617 22.6325 181.4079 23.8994 181.5938 26.4858 180.2654 27.5702 180.1849 28.8586 179.9186 30.9421 176.5541 32.5024 174.4145 33.5137 173.969 33.4569 173.4478 33.1784 172.7643 32.4212 172.936 31.8913 173.5863 31.4992 174.3705 31.1044 174.8377 29.8821 174.4064 29.0587 174.4787 28.042 174.7369 24.3253 175.9909 22.8002 177.1158 21.7618 177.3389 15.8264 176.1004 10.0275 173.2598 7.5858 171.3737 6.0417 168.9631 4.495 166.0913 4.998 165.2882 7.3978 163.5624 9.4691 162.2063 7.6087 162.81 5.5942 163.6475 4.5978 164.235 3.4688 165.4633 1.9681 165.7385 1.3732 163.9119 1 162.1339 Z M 357.158 397.8596 356.3102 399 354.6553 395.5111 353.9455 395.2981 353.9225 393.6345 354.3079 392.9787 356.2223 392.2446 356.728 392.6569 357.7055 395.8876 357.158 397.8596 Z M 354.992 390.5849 353.6751 391.8951 353.1046 391.1075 353.3398 390.5626 353.8996 390.2605 354.4228 389.8359 354.992 390.5849 Z M 346.7838 378.2213 347.1975 378.7398 346.4309 378.6506 345.7252 377.8691 345.909 377.1363 346.1781 376.8388 346.7838 378.2213 Z M 350.9629 383.3671 349.8894 383.3847 349.5703 382.7925 349.1188 382.1739 349.4662 381.5797 350.0341 381.4276 350.8399 382.3903 351.0292 383.0724 350.9629 383.3671 Z M 352.269 380.8915 351.62 381.4067 351.4564 381.337 351.3672 380.9463 351.3388 380.6698 351.2212 380.1723 351.1549 379.2961 351.6755 378.5654 352.196 378.7161 351.9188 379.4638 352.269 380.8915 Z M 341.8935 365.9387 341.2851 366.0178 340.9119 365.5453 340.866 364.9943 341.2161 364.6374 341.542 364.4542 341.8692 364.5008 342.195 365.4304 341.8935 365.9387 Z M 337.9523 346.3038 337.5345 346.7764 336.1068 346.4073 336.2123 344.9788 335.8756 343.5869 336.123 343.0001 337.1911 342.003 338.0564 341.5609 338.6608 342.9129 338.942 344.2359 337.9523 346.3038 Z M 340.5874 334.8643 339.9141 335.1387 339.2381 334.7913 339.7668 334.2329 339.8546 333.0924 340.5442 333.7252 340.505 334.4479 340.5874 334.8643 Z M 340.9971 332.7193 340.6929 333.0451 340.244 332.6828 338.9596 330.1977 338.7392 328.6023 338.3823 328.0494 338.8339 327.2584 339.4017 326.9955 339.7384 326.1045 339.86 324.743 340.3562 323.6329 340.6091 323.324 341.6407 323.3118 341.9043 323.1705 341.7569 322.1079 341.1539 321.6455 340.9444 321.3494 340.9687 318.8028 341.1255 317.7732 341.5014 317.033 341.2364 315.5025 341.4176 314.9313 342.1639 314.1282 342.4938 312.4151 342.191 311.9034 342.8994 309.2595 342.8602 307.4937 343.7918 305.7253 345.2425 304.9222 345.6981 304.8999 345.759 306.4087 345.8969 306.9042 345.0573 307.7973 345.8577 308.9614 345.7509 309.3839 345.4304 310.3073 344.9004 311.2145 344.1622 311.5863 343.589 312.795 343.2604 313.2507 344.3515 314.5216 344.7003 318.8407 343.9026 320.0237 342.9481 320.2596 343.1671 323.1408 342.9968 323.7844 342.0503 325.1993 341.8759 325.8165 341.3419 326.3965 341.5677 327.1212 342.0219 327.4382 342.0328 328.0318 341.6096 329.5548 341.5771 331.2922 340.9971 332.7193 Z M 345.0762 325.7867 345.6954 327.689 344.5827 326.8575 344.2176 326.2626 344.7774 325.8564 345.0762 325.7867 Z M 340.9254 314.3222 340.4847 315.2213 340.4009 313.2926 340.605 313.0499 340.8295 312.9837 341.1093 313.1642 340.9254 314.3222 Z M 64.8984 337.3378 64.797 337.4264 64.7889 337.1749 64.9187 336.7727 65.0688 336.5036 65.1134 336.5354 65.0715 336.797 65.0025 337.1519 64.8984 337.3378 Z M 68.8721 377.9502 68.6774 378.1219 68.4773 378.1875 68.334 378.1658 68.2636 377.9941 68.3001 377.8643 68.4786 378.009 68.7125 377.8745 68.9802 377.4344 69.0397 377.2938 69.0965 377.3695 69.0438 377.6183 68.8721 377.9502 Z"/>
</g>
</svg>