<?xml version="1.0"?>
<svg xmlns="http://www.w3.org/2000/svg" version="1.2" baseProfile="tiny" width="800" height="296" viewBox="0 0 500 185" stroke-linecap="round" stroke-linejoin="round">
<g id="ne_50m_admin_0_countries-Indonesia">
<path d="M 25.7523 49.331 28.1112 52.3922 29.0696 52.804 30.3404 54.1927 30.6528 54.6752 30.3277 55.6511 30.0493 58.4355 29.4394 59.1305 27.955 58.7862 27.9391 58.2969 27.0837 56.1989 25.5313 55.029 24.9235 54.9684 24.5261 53.772 23.743 52.3529 21.3746 49.7619 23.1703 49.7821 24.0426 49.1509 24.2424 48.6473 24.3859 48.5187 25.7523 49.331 Z M 44.057 84.617 43.055 84.6776 40.9065 83.3738 40.3997 82.7894 40.2754 82.0095 38.2151 78.9961 37.9409 78.3054 38.7495 75.8318 40.8491 75.2346 41.5409 75.6522 41.7821 76.7647 42.9817 78.7719 43.378 79.8535 43.6766 80.3328 43.802 80.7057 43.6957 80.966 44.5628 82.2379 45.1823 82.9828 45.2279 84.1877 44.057 84.617 Z M 234.2168 158.9961 232.8397 161.2498 233.3306 161.6132 233.626 161.9585 231.3489 162.425 230.3979 162.1763 229.8486 162.2412 227.5354 161.8172 225.8799 161.2997 225.6918 160.8896 225.8225 160.3987 226.3134 160.5644 227.5885 160.6431 228.0762 160.4221 228.09 158.9685 227.9094 157.0761 229.6361 155.529 230.5552 154.9063 231.6135 154.5387 234.2837 155.393 234.7247 155.6257 235.0668 155.9731 235.2315 156.5267 234.2168 158.9961 Z M 221.2365 154.0053 222.3416 154.5833 223.8812 156.2728 224.0268 156.7467 223.5604 157.194 222.4564 157.9112 219.9955 159.0163 219.5736 159.538 219.053 160.5591 218.9329 160.9948 218.7597 161.2338 218.4771 161.407 217.9405 161.5547 217.3593 161.3412 217.8842 160.6834 217.9044 159.8993 217.5133 159.1661 216.9629 158.552 215.8419 157.7178 214.6455 156.9794 213.4405 156.6032 212.1548 156.4332 211.6948 156.0751 210.9425 155.155 210.6938 154.6534 210.5706 154.1264 210.6545 153.6164 210.9701 153.5856 212.2292 153.7067 214.5467 154.3038 215.6942 154.3527 216.3435 154.2146 218.0393 153.032 218.442 153.0511 220.0656 153.5728 221.2365 154.0053 Z M 118.9355 83.4365 119.3095 84.1856 119.8217 84.8593 120.1978 85.586 120.71 89.0861 122.4196 92.091 127.3435 93.2715 126.5371 93.7571 126.1269 94.1928 125.8241 94.6932 125.0973 96.7769 125.1685 97.2189 125.5935 97.9266 125.6976 98.6948 125.0814 98.6906 124.3875 98.5184 123.836 98.2294 123.3207 97.8512 122.7618 97.5505 122.1551 97.356 121.1594 96.761 119.8079 96.3402 118.4244 96.0087 117.755 95.1236 117.4373 94.0323 117.7752 92.4024 117.4331 91.9508 116.9411 91.5534 116.3365 90.3782 116.108 89.0064 115.2314 88.4762 114.0754 88.1553 113.5717 87.8929 111.2883 88.3944 110.7411 88.2764 110.2523 87.8971 109.0091 87.4965 109.0558 86.7357 109.636 86.129 110.9982 85.5159 111.6357 85.0006 111.7632 84.3216 111.521 83.8243 111.6177 83.3047 112.048 82.8011 112.558 82.4058 113.9277 81.8841 114.5259 82.7947 114.8213 83.5555 115.1836 84.107 115.767 83.3196 115.3961 81.9617 116.4374 81.6588 117.4596 81.6471 118.231 82.019 118.7358 82.6066 118.9355 83.4365 Z M 305.3646 114.7915 305.6175 117.1313 305.5378 117.7454 304.9258 116.8455 304.7058 116.6659 304.5379 116.8455 304.3212 116.9443 304.0088 116.9358 303.604 117.8443 303.5678 118.6986 303.2618 119.2734 303.1003 121.1818 303.2023 121.696 303.6762 121.4421 303.9684 121.3773 305.0395 122.1126 305.6058 122.6492 305.4464 123.2984 304.7218 123.9529 303.8802 124.2377 303.2533 123.9572 303.0684 124.09 302.6976 124.4268 302.416 124.8699 302.4968 125.3257 301.7785 126.6167 301.3641 126.9791 300.5045 126.5838 299.9743 126.9238 299.546 126.893 298.8926 125.6009 298.9085 124.9942 299.5152 124.3131 299.5195 123.8222 299.8191 123.275 300.4864 122.5248 300.8679 121.9617 300.8796 121.6036 301.1633 120.2456 301.2738 119.6761 301.4661 119.0705 301.77 117.839 301.8125 115.5226 302.8304 113.611 303.825 113.0893 304.2202 113.0043 304.1586 113.5122 305.3646 114.7915 Z M 299.5471 122.6067 299.2666 123.3292 298.6631 123.8913 298.1828 123.9317 297.6813 123.8169 296.793 123.3249 296.5677 123.8435 295.8685 123.8201 295.6082 123.1517 296.1076 121.1733 296.8397 120.4348 296.7717 119.6591 296.1671 118.0058 296.5422 117.1419 298.2338 116.4884 299.7086 115.6915 300.1655 115.5258 300.5767 116.1389 300.7956 118.9557 299.2092 121.1839 299.5471 122.6067 Z M 143.6379 25.1265 142.1535 25.5244 141.2917 24.9644 142.2247 24.2743 142.5541 24.2286 142.7687 24.0937 142.8463 23.8131 141.1621 23.3589 140.684 22.9578 140.2249 21.9361 140.2377 21.2864 142.3968 19.5682 142.9015 19.387 142.9802 20.0984 144.4741 21.9 144.5389 23.0991 144.4815 23.5321 143.6379 25.1265 Z M 142.4542 97.8884 142.2863 99.0349 142.0196 99.4673 141.109 100.0347 140.8008 100.3822 139.9508 100.3269 139.8435 99.7266 139.5587 99.3207 138.6566 98.8532 138.4218 98.9658 138.2603 99.6628 136.4954 100.1505 136.0045 100.192 136.2467 99.2718 135.7919 98.5493 135.7558 97.6588 135.6719 97.2689 135.4498 97.0447 135.9003 96.4241 135.827 95.7345 136.2998 94.9929 136.5687 93.195 138.4345 92.8029 138.8362 93.1228 141.0091 93.5287 142.5403 94.6167 143.3616 96.0639 142.4542 97.8884 Z M 438.143 72.3593 440.4573 72.7843 441.3009 72.761 442.1255 73.2423 443.1285 73.0149 443.6981 73.169 445.6043 74.8223 446.5394 75.9168 447.9313 76.8561 448.9397 77.1759 448.1789 78.0366 446.6488 78.4892 446.057 78.5115 444.8839 77.9994 443.9318 78.0939 443.102 77.4522 442.9585 76.4608 442.1042 74.2273 441.0013 74.868 439.6752 73.8384 439.3193 73.814 439.2353 73.9882 438.6722 73.6376 438.194 72.9416 438.143 72.3593 Z M 439.1354 82.5918 443.4324 83.1379 444.597 83.0678 447.0494 83.2792 449.0959 84.0039 452.6746 84.1388 453.7424 84.3545 454.568 84.8539 452.5662 85.2673 451.6226 85.6519 449.8705 85.8411 448.4041 85.6455 447.3384 85.8761 446.9516 85.501 445.3918 85.1196 443.3952 84.3365 439.281 83.4248 439.0866 82.8574 439.1354 82.5918 Z M 388.4216 65.3167 390.3066 65.7789 390.7338 65.7066 393.4656 66.902 393.9013 67.4949 393.7472 67.8955 394.1499 68.431 393.2552 69.2513 392.8238 69.3427 392.3871 69.0367 391.5169 68.8635 390.5117 69.1971 389.871 68.9453 389.3291 68.193 388.3685 67.7361 387.0095 66.1497 386.3422 66.2071 386.5175 66.8276 387.0945 67.2367 387.8564 68.4427 388.2941 68.5596 388.7468 68.5182 389.3567 69.0197 389.3248 69.7985 387.7352 70.1014 387.187 69.5329 387.0658 68.499 386.1722 68.8476 385.8279 69.2088 385.5655 69.2588 384.9726 68.1813 383.2778 68.1261 382.1472 67.5534 382.703 66.9551 382.7816 66.376 383.5169 66.0647 384.2617 66.3436 385.0087 65.9261 385.5389 66.0328 385.9299 65.7661 387.4324 65.5967 388.4216 65.3167 Z M 362.7502 42.9477 361.031 43.1331 360.64 42.613 360.1831 40.2743 361.4061 38.4042 362.9479 37.3034 363.9987 37.025 364.3632 37.0085 365.3025 38.3569 364.5927 41.0691 363.7692 42.4547 362.7502 42.9477 Z M 359.4765 83.3398 358.8103 83.7818 358.4777 83.904 356.8732 83.6076 354.9935 83.6692 353.0416 84.0793 351.91 83.7329 351.1981 83.1687 351.2289 82.5705 351.9004 81.0893 353.37 79.9694 353.9671 79.7696 355.0148 80.0724 356.7786 80.9299 358.1685 81.9372 359.4297 82.7214 359.4765 83.3398 Z M 336.6495 91.9433 336.4625 92.141 335.8101 91.5534 335.3713 89.8926 334.9973 89.4506 334.5584 87.8727 334.6711 87.4243 335.2098 86.7591 335.6454 86.7697 335.9706 87.1618 335.7889 88.8619 336.7654 91.0136 336.6495 91.9433 Z M 336.3138 84.7456 339.6598 85.1058 339.1848 85.4979 335.5764 86.1258 334.297 86.0121 330.3836 86.3808 329.8768 86.3596 329.8045 85.7518 329.3827 85.3257 330.0085 84.9549 330.8373 84.8667 333.0071 85.007 336.3138 84.7456 Z M 324.8381 83.8286 325.855 84.2153 326.2131 84.2132 326.5489 83.7616 326.7561 83.6883 327.214 83.9093 327.3203 84.6425 327.9791 84.5405 328.4923 84.7913 328.6538 84.9666 328.5868 85.6966 326.636 85.8251 325.243 86.4138 323.3686 85.8846 321.2435 86.7963 319.9536 87.1087 318.8347 87.0896 317.8762 85.4979 318.433 83.6331 318.8326 83.326 319.5445 83.1634 321.5134 83.072 324.8381 83.8286 Z M 393.9958 152.3115 393.8173 152.4348 392.4657 152.2935 391.6911 152.2882 391.7963 151.4668 391.3979 150.8484 391.9419 149.942 391.9525 148.888 392.521 148.7467 392.6007 148.1463 393.2828 146.5557 393.6834 146.2029 394.253 146.0648 394.9256 145.1371 395.3081 144.8673 395.7044 144.1638 396.2771 143.8366 396.2293 143.233 396.5545 142.9132 397.4545 142.6635 398.0782 142.9621 398.4628 143.5805 397.4587 144.3402 397.973 146.2114 397.2473 148.2494 396.767 148.8593 395.8766 149.3863 395.6056 149.8868 394.5558 150.893 394.237 151.7516 394.1903 152.115 393.9958 152.3115 Z M 344.7654 148.7031 344.912 149.2322 344.8929 149.4649 343.5891 149.635 342.3321 150.2236 341.6882 150.9015 341.1867 151.7771 339.4547 151.4211 337.9119 151.3627 337.2297 151.0545 336.4859 151.0747 335.5232 151.3478 334.1589 152.0916 333.855 152.149 333.9655 151.0184 334.3438 150.3224 335.7814 148.6542 336.9789 149.024 338.3751 149.126 339.9605 148.7998 341.0868 148.0496 342.6827 147.6575 343.9536 148.6415 344.7654 148.7031 Z M 320.5518 153.8491 320.8132 154.5121 321.6536 154.1455 322.4739 154.0531 324.344 154.1232 325.7169 154.2709 326.5255 154.545 326.603 155.869 326.2226 156.1559 319.1226 157.1547 318.4309 156.8338 318.1578 156.5161 318.9239 155.5353 318.5712 155.0699 318.9749 154.3102 319.8229 153.7906 320.5518 153.8491 Z M 390.4734 79.5858 390.0899 79.8897 388.768 79.6049 388.0848 78.9323 387.6173 78.0302 387.3208 77.2885 387.2369 76.6988 386.8406 75.9784 386.8947 75.7149 389.3344 74.9562 389.7945 75.2314 390.8124 75.2559 391.2576 75.8073 390.9558 78.2002 390.4734 79.5858 Z M 14.9918 8.3736 16.3263 8.473 18.801 7.8827 20.1622 7.9406 21.4458 8.3673 22.5848 8.6132 25.4218 8.3008 25.9553 8.3848 26.4663 8.6292 26.9052 9.0154 28.2026 10.4323 30.3967 12.1749 31.03 13.2901 31.3913 14.5439 31.6187 14.8382 34.0966 17.2391 34.3675 18.2427 34.0179 19.633 34.7373 20.7392 37.1419 21.7762 38.5604 22.5317 38.8632 22.995 39.0725 23.5475 39.8578 24.3673 40.8449 24.9012 43.9189 26.3059 47.9481 29.2444 50.2422 30.6385 52.1388 32.7588 52.822 33.7736 53.3863 34.8691 54.5391 36.4645 56.4974 38.4339 56.9926 39.0338 57.5196 39.9024 58.1274 40.7099 58.8542 41.4527 59.7223 42.0206 60.6106 42.2044 62.0419 43.6277 62.8154 44.074 62.6932 42.9604 62.0429 41.9855 62.0525 41.3974 62.1662 40.8715 62.6975 40.4284 63.3382 40.304 64.5378 40.7094 66.4855 42.3983 67.3079 43.3823 67.9263 44.7402 68.4427 46.1502 69.2216 46.8505 70.2916 47.0954 71.4806 47.1969 72.574 47.6304 75.1326 49.5807 75.9826 50.4972 76.6266 51.5746 77.0696 52.8497 77.3459 54.188 77.517 54.4966 79.1586 56.1107 80.0214 56.7928 81.0787 57.1243 84.158 57.4872 85.245 58.0451 86.1428 58.9732 86.52 59.9189 85.8782 60.753 83.4716 62.0323 80.9002 62.9169 83.3982 62.6119 84.6637 62.2406 85.8272 61.6599 86.9791 60.9219 88.8056 59.8913 89.4846 59.6825 90.2826 59.7563 91.0072 60.0474 92.0932 61.0606 93.1153 62.1285 93.8783 63.3743 94.3564 64.761 93.483 65.4851 92.21 66.0201 90.4589 67.3589 90.2751 67.8881 90.6321 68.2281 90.205 69.2131 91.1868 69.8209 91.3366 70.3373 90.4876 71.0779 90.5684 71.5348 91.5927 73.4835 92.0804 73.9298 93.6424 74.9201 96.0246 75.9253 97.3422 76.3854 98.8372 76.7434 99.479 76.7339 100.6 76.5702 100.8253 76.9602 101.3087 78.8802 101.5393 80.0958 101.8814 82.6821 102.3192 83.7553 102.2905 85.0686 102.8654 86.1821 104.0363 86.8941 105.2838 87.4774 105.8735 88.0448 105.866 88.9023 105.6652 89.5813 105.2434 90.1094 103.9502 91.2282 103.7197 91.7106 103.538 92.9453 103.7579 93.5095 104.2754 93.5414 104.6824 93.245 106.2347 91.5906 106.6545 91.3005 107.2399 91.0688 107.8392 90.9233 110.6752 90.9095 111.8769 91.1698 112.9469 91.7085 113.8905 92.3864 117.3406 96.693 118.9206 99.0699 119.045 99.6618 119.0736 100.277 118.8048 100.753 117.3661 102.3755 117.1876 102.8239 116.7381 104.591 116.8231 105.8629 117.3013 106.3973 117.6817 106.9775 117.6519 107.5034 116.7041 110.1195 116.6043 110.5668 117.2035 114.8213 117.2471 115.9731 117.1249 117.4299 117.211 119.7792 116.4374 127.0365 116.2919 127.47 115.7 128.5782 114.919 128.5708 114.2879 128.3753 113.8459 127.9513 113.6025 127.4254 113.2444 126.995 111.3595 125.6541 110.8654 125.8772 108.9517 127.5401 108.4427 127.7866 107.8041 127.5837 106.799 127.0864 103.6357 125.3374 103.4413 125.8963 103.403 126.655 104.0321 128.5559 104.1192 129.3879 103.5433 129.5537 103.2224 129.5175 101.9091 128.4135 100.6978 127.1905 99.3207 125.5383 98.3144 124.752 97.4038 123.8743 94.8431 120.541 94.1779 120.0321 90.2103 117.6774 89.4102 117.1207 88.3955 116.1463 87.3053 115.2814 84.9145 113.916 80.7663 110.4499 78.9631 108.4597 76.9581 105.2529 76.3035 104.4337 72.9342 102.027 71.097 100.5692 70.3309 99.7308 68.5426 96.813 68.0198 95.8302 67.361 94.9621 66.2794 94.2576 65.3252 93.4288 63.4306 90.7894 62.8335 89.7375 62.3819 88.5995 62.4605 86.3171 58.4483 79.4073 57.441 77.2545 56.5081 74.2666 56.2998 73.9638 54.1109 71.2883 53.3363 70.4318 52.4002 69.6264 51.632 68.6861 50.1221 65.6307 49.5621 64.7817 48.7769 64.1574 45.9144 63.0024 44.8465 62.3585 44.006 61.4447 43.4896 60.2786 42.9222 57.8039 41.5727 54.044 40.0586 49.0096 39.0375 46.7538 37.8708 44.9841 37.5329 44.5755 32.3349 41.3884 31.4487 40.9193 30.5073 40.6361 29.1631 40.4331 28.1377 39.6097 27.7159 38.1327 27.4832 36.151 27.2239 34.9684 26.9413 34.2995 24.7705 32.8991 23.9205 31.7919 23.2107 30.5737 22.5625 29.6301 20.1749 26.3723 19.3589 25.5175 18.3473 24.9209 15.3488 24.2892 14.4711 23.7483 13.0144 21.8984 12.1356 20.958 9.5015 18.885 5.0473 14.5471 4.1345 13.4654 3.4513 12.3375 2.8999 11.1283 1 7.7786 1.153 7.1017 1.4399 6.3994 1.3953 5.8171 1.187 5.2428 1.2306 4.7237 1.7937 4.4183 3.0614 4.0272 4.3768 4.0729 5.5945 4.2419 6.7739 4.5659 7.9056 5.271 9.9297 7.0481 11.0826 7.667 12.3619 7.964 14.9918 8.3736 Z M 301.0464 158.9727 299.5078 159.3595 298.5536 159.7261 297.6441 160.2106 297.0682 160.3105 296.0258 160.3498 294.5488 160.2627 293.5522 160.4199 290.7725 161.678 289.6802 161.7874 288.7345 162.0956 288.4072 161.6068 288.0077 161.2455 287.0833 161.1542 286.1589 161.1828 285.2196 162.2932 283.7235 162.0605 283.1433 162.1583 282.5844 162.392 282.0308 162.4951 281.4496 162.4175 279.2639 161.5526 276.7563 161.0415 274.2433 161.2423 272.0821 160.7706 270.8984 161.1318 269.7806 161.6482 269.4512 161.1042 269.0411 160.625 268.6766 159.9078 268.667 159.0949 268.7882 158.5243 269.1091 158.0058 269.3099 157.465 269.4044 156.8848 269.8773 157.16 270.3724 157.0559 271.8462 156.4247 273.2817 155.4705 274.6195 155.122 275.3898 155.0253 276.0497 155.2123 276.7202 155.1443 277.4066 154.9329 278.4872 155.666 278.942 155.8148 280.4083 155.8711 281.7418 156.294 282.9329 156.9252 284.6575 157.517 285.6945 158.3107 286.484 158.604 287.0705 158.6837 287.6093 158.5764 288.2882 158.0419 289.083 157.8209 289.7758 157.8294 291.036 157.6913 291.5673 157.5627 292.1634 157.2694 292.7467 157.4511 293.2578 157.721 295.3904 159.1162 296.0449 159.1534 297.2445 158.8537 297.6048 158.4797 297.7896 157.9049 298.118 157.4267 298.5759 157.0123 299.0945 156.6957 300.6883 156.1591 301.7817 155.6289 302.5287 154.731 300.7818 154.34 301.1494 153.6939 301.7296 153.3316 302.5053 153.4655 303.1726 153.9702 303.4733 155.8977 302.9239 156.1697 302.5775 156.4619 302.3438 156.8465 301.3535 157.5521 301.7413 158.434 301.4502 158.7985 301.0464 158.9727 Z M 270.9027 167.2745 271.3936 167.7643 273.1723 168.7068 273.4655 169.1042 273.5771 169.7598 273.9341 170.2465 274.7353 170.3209 275.5939 170.222 276.2473 170.5312 276.8115 171.0211 277.6499 171.9721 278.3873 173.024 279.3022 173.6105 279.826 174.4861 279.5168 175.2586 278.3618 176.3264 277.7349 176.5581 276.8785 176.642 275.545 177.2774 275.0594 176.9448 273.5463 176.7143 272.3424 176.2552 271.3319 175.4148 270.7496 174.5105 270.0122 173.7136 268.7297 173.1802 266.4261 171.614 265.0033 171.4727 264.4179 171.5874 263.8313 171.5949 260.8158 170.8893 260.3472 170.477 259.9774 169.949 259.6395 169.4304 259.4376 168.8481 259.8223 168.3339 260.2282 167.9875 261.906 167.3808 263.1056 167.1927 264.4986 167.2214 266.5749 167.0322 268.5374 167.3372 269.1431 167.1098 270.1365 166.4776 270.4819 166.6965 270.9027 167.2745 Z M 251.6427 155.7744 252.1867 156.2037 252.6819 156.1633 253.719 155.5077 254.3437 155.2708 255.0132 155.2591 255.6634 155.3706 256.302 155.8361 256.5326 156.5979 256.7727 156.8317 257.1478 155.92 257.6472 155.6448 258.2072 155.5056 259.0828 155.5555 259.7532 155.9912 260.3631 157.2864 260.344 158.4202 260.5661 158.8431 260.9858 159.1523 261.2971 159.5869 261.0198 160.0417 260.7446 160.2648 259.954 160.4731 259.5758 160.3817 259.2262 160.0757 258.8341 159.963 257.9405 160.065 257.1213 160.319 257.2339 160.7344 257.9065 160.9215 258.1094 161.118 258.0648 161.3847 257.8002 161.4379 256.9258 161.0787 256.335 161.151 254.213 161.6355 253.651 161.6249 253.3343 161.1669 253.3566 159.9737 253.1282 159.657 251.5513 161.1063 251.0721 161.4623 250.4367 161.6302 249.7747 161.5717 247.4955 162.4515 246.7794 162.3283 246.0855 162.3262 243.6512 163.2793 242.3453 163.5449 241.6759 163.564 241.0086 163.4822 240.4125 163.5683 239.8791 163.9508 238.7921 164.2749 237.6701 164.0284 236.7223 163.7 235.8233 163.2665 235.6002 162.7129 235.6448 162.0478 236.0242 161.1403 235.7649 159.5486 235.9625 158.8229 236.3302 158.1099 236.887 157.8475 237.6148 157.7943 238.8176 157.1526 239.9184 156.3121 240.5581 156.3918 242.0053 156.9794 242.8532 157.0495 244.2951 156.956 244.8902 157.3173 245.125 158.1439 245.4459 158.4457 245.873 158.6561 246.8952 160.0544 247.843 159.9811 248.6739 160.2382 250.1381 159.3924 251.2464 159.4126 251.5609 158.757 250.8989 158.0568 250.0988 157.4873 249.6695 157.3683 249.1999 157.4023 248.7781 157.3098 246.9908 156.039 246.4638 155.3526 246.1589 154.5429 246.3427 153.9436 247.5721 153.4145 248.1458 153.2859 250.2837 153.6472 250.645 153.9489 251.2124 155.2251 251.6427 155.7744 Z M 323.9605 54.4425 321.8853 56.2892 321.2509 57.1817 320.6984 58.1423 319.8824 59.2102 318.9409 60.1516 318.4713 60.4305 317.3142 60.9368 316.6479 61.1334 315.392 61.1966 311.6103 61.9478 310.3682 62.0355 309.1314 62.0041 306.7863 61.8166 306.2965 61.7183 305.3614 60.7509 304.3063 59.9858 303.3744 59.9024 302.4245 59.9842 295.5827 60.0379 293.1909 60.1797 290.8086 60.5219 289.5112 60.3662 288.2255 59.9826 287.2586 59.8487 286.28 59.8881 281.7886 60.4661 280.6591 60.4108 278.3873 59.6718 277.0666 59.5236 275.7713 59.7196 274.5642 60.3843 274.1073 60.83 272.8588 62.3505 272.1522 63.4599 271.6188 64.8396 271.1587 66.2507 270.9112 67.4067 270.8984 68.6138 271.112 69.9728 271.4509 71.3169 271.8271 72.3434 273.3848 74.7193 273.7025 75.0561 275.3952 75.7244 276.3982 76.5819 277.3503 78.9652 278.0282 80.1797 278.6944 80.1946 279.4382 80.1096 280.7313 80.2637 282.0138 80.5761 283.2634 79.8461 283.9604 78.4648 284.6596 77.4383 286.3406 75.4843 287.2979 74.5811 287.91 74.2868 288.5316 74.4154 289.0586 74.9328 289.6738 75.344 290.9298 75.5651 292.1974 75.4269 293.5468 74.7926 294.0303 74.4037 294.4309 73.9085 295.5742 73.509 298.2912 73.5048 299.6959 73.6482 302.1982 73.4888 302.1631 73.1286 301.6797 72.7471 301.5532 72.4411 302.0186 72.2435 303.6305 71.7983 305.2743 71.4816 306.4707 71.708 307.5397 72.3285 307.9498 72.9692 308.1326 73.7396 307.7203 75.7351 307.5206 76.1973 306.6684 76.4364 305.8651 76.1718 305.0703 75.1411 303.9461 74.7639 302.3512 75.0752 301.804 75.3706 301.3131 75.7829 300.412 76.8518 299.6619 78.0589 298.0404 79.9375 296.1639 81.5696 295.2554 82.1944 294.2428 82.6151 290.9893 83.6958 290.1328 84.498 289.4677 85.5404 288.7303 85.8953 287.8781 86.0079 287.2384 85.8124 285.9421 85.2248 285.515 85.7082 285.4427 86.4457 286.0813 86.7081 287.1088 87.5231 287.9036 88.6749 288.4136 88.9225 289.5463 89.2965 290.0223 89.6546 290.8766 90.6406 292.2218 92.9347 292.6798 94.1758 293.4268 95.1884 295.7017 96.9087 295.8282 97.3943 295.6879 97.9595 295.8632 98.4749 296.6761 99.4631 296.8695 100.0995 295.9801 100.9071 295.9312 102.078 295.3861 103.6527 295.2629 104.184 295.2799 104.6643 295.6624 105.1127 296.1087 105.4676 296.7207 105.6546 297.2562 105.9638 298.2859 107.1911 298.8235 107.5141 299.1646 107.9614 299.1295 108.6276 299.5992 109.0176 300.0316 109.7136 300.6925 109.8825 301.0018 109.6828 301.2132 109.3842 301.754 109.4968 302.0739 109.9813 302.2588 110.604 302.3183 111.2904 302.2917 112.5931 302.0186 113.0596 301.4236 113.0372 300.3589 112.5017 300.3079 112.8885 300.3802 113.2636 299.8383 113.3879 299.2167 113.3358 297.6568 113.3868 294.7815 114.1954 293.771 114.6725 293.1176 115.5417 293.0719 116.142 293.3248 117.4086 292.9422 117.8517 291.6247 118.0206 289.7864 117.6806 288.6729 117.3427 288.0524 117.059 287.2437 116.2069 286.9409 115.1167 287.5359 111.8727 287.7049 111.4562 287.995 111.0853 288.301 110.4956 288.3722 109.8028 287.4945 108.956 286.1716 108.6234 285.0496 107.9178 280.7143 103.9609 280.4699 103.5784 280.4604 102.9228 280.6346 102.3097 282.0595 100.1463 282.238 99.7319 282.4123 98.0244 282.374 96.6186 282.2147 95.2118 281.5399 94.3267 280.335 94.0578 279.0907 94.0143 277.8784 94.2969 276.6851 95.0046 274.4814 96.4953 273.6069 97.3624 273.5314 98.4887 274.0361 99.5927 274.6886 100.6 275.036 101.7019 275.5173 105.61 275.5014 106.0509 274.934 107.1879 274.7109 109.7274 274.951 113.3114 275.3378 115.5119 275.1731 116.7073 274.1413 119.2745 273.8289 120.6834 273.8056 121.2646 275.0201 123.9465 275.2995 125.007 275.4493 126.1057 274.1573 125.568 273.5569 125.5956 272.9513 125.7614 271.605 125.9367 270.2396 125.9601 269.7615 126.163 268.7914 126.876 268.2038 127.164 267.6905 127.2192 265.9511 126.3235 264.9247 125.3512 263.979 124.2972 263.8069 123.0933 264.1363 121.8575 264.6038 120.5368 265.5389 118.3405 265.4953 116.8667 265.8151 115.6586 266.3496 114.4866 266.5419 113.4028 266.6715 109.1685 266.5387 108.7923 265.2573 106.2762 265.1096 105.8544 265.1011 105.1754 265.2392 104.5272 265.2668 103.9428 264.9725 103.4955 264.454 103.0864 263.826 102.9079 262.4978 103.0853 259.8276 103.7632 259.0392 103.1661 258.4463 102.2448 258.0669 100.9623 257.8459 99.6182 257.9479 98.3559 258.3421 97.1361 258.0244 96.2828 257.5325 95.3541 257.5282 94.876 257.8077 94.4573 258.2901 94.1078 258.8798 93.9038 259.4313 93.534 260.8891 92.2876 261.3588 91.1932 261.3896 89.8458 261.7604 88.557 262.5063 87.3701 263.3882 86.2682 263.6751 85.1323 263.2405 83.3302 263.4127 82.5099 263.2629 81.5462 263.248 80.5941 263.7941 78.8016 265.4156 75.1379 266.9967 73.1924 267.6257 72.6791 268.446 73.5844 269.0729 74.6502 269.0825 73.6854 268.9157 72.7397 268.2824 70.5338 267.7405 66.2347 267.8924 65.8272 268.4439 65.8921 269.007 65.5127 269.3046 64.8359 268.718 63.2383 268.6915 62.6752 269.8231 60.4294 270.7454 59.6118 271.1492 59.1071 271.3808 57.7369 271.8611 57.2189 272.4699 56.8486 273.2668 55.9013 273.6993 54.7092 273.9639 54.6183 274.2752 54.5747 274.7544 55.615 275.2931 56.0379 276.3876 56.3768 277.3226 55.9757 277.583 55.4535 277.9357 55.0045 278.5031 54.5365 278.9802 54.0036 279.5104 52.7673 280.2107 51.6405 280.6909 51.2473 281.2711 50.9987 281.915 50.8468 282.5366 50.8266 283.9147 51.5353 284.7127 51.6734 285.5288 51.6219 286.0441 51.7409 286.4351 52.0586 286.7911 52.6993 287.2321 53.2519 287.639 53.5244 288.0864 53.6519 291.0849 53.4282 293.7052 54.0525 297.2785 54.1949 298.5047 54.5604 299.681 55.038 301.1218 55.8833 301.6489 56.0703 302.2386 56.0235 302.9739 55.2293 303.5476 55.0555 304.1321 55.0247 306.4346 55.174 312.6208 56.1521 313.5357 56.0188 317.2663 54.1492 318.7592 52.3774 320.0959 51.8838 320.5496 51.0832 320.8195 50.1216 321.2934 49.8634 322.4134 49.5887 322.8596 49.3039 323.6534 48.1239 324.5937 47.0779 325.0528 46.7639 326.3767 46.9307 326.9632 47.3881 327.7134 48.9262 327.5817 49.1828 326.7029 49.9478 326.4479 50.2687 325.4746 52.4305 324.8084 53.4925 323.9605 54.4425 Z M 133.3874 130.6385 134.4839 131.8807 135.4445 132.5437 136.574 132.9039 137.763 132.9379 138.935 133.0941 140.2951 133.5691 141.6966 133.7837 142.3479 133.7008 142.9685 133.4564 143.4094 133.4394 143.7919 133.6679 144.7599 134.7209 145.8129 135.6825 146.0531 136.1723 146.7671 138.4898 147.5747 139.1571 148.6829 139.3505 149.9856 139.3515 151.2798 139.4482 154.2815 139.9891 155.4727 139.9147 156.5267 139.3706 157.466 139.7234 160.013 140.3748 161.2668 140.5203 162.6906 140.3344 164.1198 140.2951 164.7998 140.4831 165.4543 140.7658 166.0164 140.8678 166.5987 140.8625 167.6283 140.3184 168.3105 139.3218 168.862 138.0648 169.2944 136.7557 169.5856 136.1925 169.9787 135.6953 170.493 135.3722 171.0434 135.1714 172.5395 135.2957 172.8487 135.6124 174.5211 137.8352 174.8165 138.0276 176.5634 138.1668 177.0468 138.0945 178.1126 137.6482 178.7204 137.6089 179.8435 138.1583 180.328 138.6258 180.8667 138.9711 183.6113 139.325 184.6718 140.2759 185.2094 140.4034 187.1199 140.2876 188.4396 140.3811 189.5893 140.6361 190.1078 141.9867 190.5328 143.3733 190.7804 143.844 191.9035 144.32 192.3647 144.7493 192.2404 146.1328 192.3668 147.4471 194.7501 148.5926 197.3056 149.2503 200.0172 149.3119 202.7353 149.0856 204.1368 148.8051 205.8889 148.3142 206.2523 148.3238 209.6472 149.8262 209.9362 150.0589 210.3166 151.181 210.306 152.3668 209.6716 155.1815 209.6323 155.954 209.6929 156.7254 210.3666 158.4021 210.7246 158.8867 211.9572 159.7675 212.0029 160.2297 211.835 160.6909 210.4792 160.3742 209.6525 159.9917 209.1744 159.3606 208.4965 159.0046 207.2203 159.1332 204.8338 158.5009 202.1381 157.5181 197.3587 155.4365 196.0571 155.4535 194.8086 155.7192 193.4899 156.2494 192.1182 156.6266 191.1077 156.769 190.0983 156.6648 187.5471 156.1644 184.9746 155.8414 178.3899 155.6363 176.5251 155.1645 173.4437 154.9233 170.9934 154.5142 168.5676 153.9426 162.3814 151.1257 160.3572 150.4499 154.1445 149.1058 153.186 148.9974 150.9355 149.0973 149.516 148.7031 148.2643 148.6946 146.4069 149.1313 145.8352 149.4448 145.1148 150.1078 143.8504 150.0759 142.5987 149.9484 139.3016 149.3151 138.0711 148.9262 136.8896 148.3514 135.8238 147.6023 135.2692 147.3324 132.4194 146.5684 130.0934 146.3049 125.3087 145.9574 124.2632 145.7258 123.3919 145.4474 122.9137 144.8279 122.9743 144.0406 123.3175 143.3595 123.7861 142.6752 124.0932 142.0207 120.5952 140.651 117.8326 139.9019 116.6404 139.7585 115.4439 139.7617 114.0966 139.9168 112.7631 139.8445 112.1362 139.6214 111.4955 139.5449 110.8537 139.7064 110.3373 139.6437 110.2034 139.0211 110.5328 138.4919 111.2096 137.8905 111.5932 137.7842 111.7686 138.7246 111.9609 138.9116 112.5602 139.1178 112.8205 139.0593 113.8777 137.8565 114.1731 137.2657 114.6853 135.6644 115.2399 135.9736 115.7988 135.7824 116.1197 135.5274 117.0048 131.8222 117.7433 130.7405 118.7517 129.8406 119.2543 129.6217 120.2425 130.1721 122.2433 130.3825 123.4333 130.7469 124.6266 130.7937 125.7922 130.9732 127.4169 131.6246 127.9906 131.5566 128.575 131.3547 129.4453 130.6481 129.8225 129.5133 131.0827 130.0892 132.9294 130.3176 133.3874 130.6385 Z M 157.9229 43.2112 156.9443 44.6403 157.0527 45.161 157.2907 45.6184 157.9984 45.9409 158.196 47.701 159.0854 48.7014 159.9811 49.6152 160.6388 50.0626 161.3614 50.7134 161.8703 51.3169 162.4048 51.8264 163.2091 52.3226 165.3906 54.435 166.3023 55.0545 166.9812 55.6745 167.4636 55.8934 168.6494 55.7175 172.1676 54.2028 172.7987 54.1046 173.9442 53.8416 175.9609 53.9213 178.0988 54.4377 178.7894 54.4531 179.4504 54.1455 180.3631 54.2368 181.2163 54.3973 181.6435 54.2645 182.8856 53.1589 184.5761 52.8316 185.1212 51.7409 185.5431 50.7118 185.7428 49.6142 186.4494 49.1727 187.4387 48.7907 188.9029 48.3083 193.9819 48.2222 194.4749 48.4337 194.5812 48.9921 194.4749 49.4176 194.6736 49.6705 195.3494 49.6933 195.9763 49.951 198.5084 50.8319 199.588 51.1039 200.1862 51.0359 201.3731 51.8243 202.0191 51.556 202.8755 51.0035 203.6905 50.2581 204.4205 49.6662 205.483 49.4378 206.8537 49.4697 208.472 49.2678 209.695 48.9506 211.0593 49.4734 211.4227 49.3087 211.6576 48.7971 212.362 47.6777 212.6744 46.9243 212.9486 45.4798 213.1377 45.1344 213.6552 44.9363 214.1875 44.6648 214.3257 44.2313 214.5201 43.7281 214.3597 43.3047 214.0568 42.9493 213.7381 41.7438 213.8433 41.1939 214.0398 40.7854 214.5828 40.5798 216.0279 39.6936 217.3051 38.6565 218.0042 38.1476 218.3124 37.8182 218.3315 37.3427 217.7768 36.8475 217.2424 36.6101 217.202 36.0357 217.2222 35.6394 217.3826 35.2654 217.3051 34.902 217.3029 34.359 217.643 33.7741 218.4303 32.9081 219.0509 32.3481 219.7383 32.6961 220.5437 32.5351 221.3077 32.2568 221.7296 31.2362 221.7944 30.7463 221.6924 30.3601 221.9591 28.9049 222.0207 28.6951 222.5233 27.7802 222.5732 27.165 222.2885 25.7353 222.467 24.6541 222.5488 22.4159 222.8495 22.0158 223.1916 20.8576 223.7495 19.6495 224.8769 18.9886 225.4687 18.1231 225.729 17.9627 226.1147 17.9558 227.4791 18.5869 228.7074 17.8851 229.8146 17.8049 230.7294 17.9011 231.2448 18.1879 231.7548 18.3962 232.845 17.7151 233.2626 17.8341 233.6536 18.0673 234.1934 18.0599 234.8373 17.8872 236.4226 18.0488 239.2193 18.0822 241.1446 18.4929 243.0307 19.6511 243.971 19.8849 244.3748 19.8934 244.2856 19.9837 243.5375 20.2982 243.1879 20.9219 244.2112 21.8766 244.2834 22.512 245.0782 23.0773 246.0483 23.9614 246.0866 24.2493 246.416 24.6451 246.5817 25.1307 245.8985 25.6142 244.9783 25.7066 244.2983 25.2502 243.6703 24.6834 243.5099 25.3884 243.0254 25.7916 241.2573 25.6742 239.9918 25.6779 238.7337 25.8554 239.3638 25.9643 239.9354 26.189 241.8927 27.9885 242.3103 28.6547 241.627 29.9802 241.9596 30.5221 242.7172 30.8329 243.6395 31.4922 244.2962 31.5587 244.769 31.93 244.7881 32.5771 245.0655 33.1652 244.3174 33.3995 245.058 33.5557 245.7158 33.8564 245.3556 34.1614 245.0761 34.5312 245.38 34.7309 246.2821 35.072 246.6763 35.3855 246.8825 36.2323 247.7623 37.6163 249.3773 39.4019 249.7301 40.0528 249.7269 40.652 249.4581 41.1668 248.5379 41.7704 247.8005 42.5641 247.7112 42.851 246.7124 43.2186 247.1693 43.4891 247.5327 43.8546 248.2266 44.9602 249.8799 46.7548 250.7119 47.4243 254.1376 49.8602 255.9578 50.9206 258.2816 53.3485 259.4886 53.9096 259.7224 54.5859 258.7151 55.6224 257.2467 56.141 254.824 56.4204 252.395 56.0554 251.1391 55.7584 250.0446 55.1623 249.1829 53.9654 248.0438 53.3177 248.4827 54.0435 248.7589 54.7851 248.6165 55.5932 248.1681 56.2265 247.401 56.6908 246.5786 57.068 246.2322 57.3331 244.1453 61.5616 243.8063 62.7054 243.1709 67.4535 243.1614 68.7944 244.0975 71.3042 244.1836 72.6196 244.3684 73.1881 244.2452 73.6599 243.8021 73.9404 242.0106 74.7076 240.7441 75.344 239.7187 76.2504 238.8888 77.3788 238.1599 78.1949 237.1887 78.5859 236.4864 78.5275 235.9168 78.1524 235.5195 77.4277 235.2942 76.634 235.1454 77.2205 235.1731 77.7932 235.5056 78.4063 235.6331 79.0534 235.4419 79.7143 235.0264 80.2414 233.899 80.8162 233.2775 81.3092 233.1754 82.171 232.8758 82.6598 232.4444 83.038 230.858 83.9051 230.5042 84.2515 230.2417 84.6924 231.0875 84.6244 231.8611 84.6924 231.9184 85.5552 232.1618 86.197 231.8526 87.6049 230.6604 88.5548 231.2554 88.7546 231.7941 89.0649 232.9906 89.2954 233.3965 90.2942 233.2201 91.5034 233.0033 92.5883 232.1448 92.8901 231.6103 92.6893 231.0801 92.7084 230.6912 93.0378 230.5871 93.5977 231.3298 93.3225 231.2883 94.7241 231.0875 96.0937 230.8421 96.8492 230.3873 97.4655 229.7009 97.6631 229.0538 97.2019 228.921 97.7375 229.1186 98.1891 230.043 99.2888 229.4756 99.53 229.0623 99.9051 228.8763 100.4512 227.8701 101.7029 227.4259 102.6231 227.2379 103.6081 226.7672 104.388 219.173 107.7808 213.0293 110.6412 212.5831 110.4467 212.2866 110.01 212.0762 105.5664 211.3165 103.2936 211.2017 102.0121 210.3357 103.1565 209.8045 103.0407 209.2296 102.7496 208.7972 102.3755 208.7653 101.8825 209.2296 100.4725 208.6675 101.246 208.0544 101.8432 207.419 101.7699 206.8718 101.4745 206.6689 101.0165 206.3777 100.9485 205.0346 102.2045 203.2612 102.8781 202.2741 102.8675 201.4963 102.4829 201.5367 101.5266 201.4581 100.5915 201.2402 100.0432 200.7642 99.8477 200.3254 99.9168 199.0524 100.4045 198.5977 100.3471 198.3363 100.5957 194.9722 97.1902 194.2922 99.9497 191.9694 101.4192 190.2534 102.2714 188.5522 101.9516 186.8224 101.4065 185.1 102.0642 183.2309 103.6772 182.7145 103.9258 182.1779 103.9184 181.7859 103.708 181.9197 102.485 181.9367 101.262 181.7965 98.5365 181.6477 98.001 181.1122 97.2519 180.4003 96.711 180.0039 97.1063 179.6469 97.6471 178.2263 97.6238 176.8407 97.1924 175.6613 97.44 173.3236 98.5206 172.0804 98.6874 171.4132 98.4441 170.9881 97.8607 171.2315 97.3284 171.7457 96.9193 170.7863 97.2444 169.967 97.7906 169.6111 98.1412 169.2307 97.9659 168.2064 96.7323 166.0685 97.1934 165.7795 97.3348 165.2524 97.7545 164.7467 97.5451 164.4917 97.0989 164.4013 94.5264 163.3143 89.5781 163.0115 87.0481 162.7767 86.4499 161.5239 85.5404 161.5664 84.2355 162.2157 83.1443 162.3538 81.8724 162.17 80.4921 161.7789 79.1427 161.287 78.1237 160.5836 77.2524 159.6474 76.2759 158.4978 75.5459 156.0177 74.7246 154.7087 74.7968 154.2231 74.4749 153.8958 74.0573 154.0286 73.237 154.4717 72.6728 155.0657 72.5336 155.1358 72.2159 153.8767 71.555 152.8269 70.6571 152.4975 70.1184 152.3976 69.5255 152.405 68.1558 152.7079 67.2909 152.8726 66.8223 153.1977 65.3746 153.882 64.9331 153.7704 64.6653 153.4761 64.4688 153.0468 63.9938 152.6962 63.4476 151.894 62.5211 150.4765 61.4022 150.2396 59.4747 150.0557 56.6334 150.1747 55.3419 150.6295 52.9267 151.4158 52.1665 152.0427 51.955 152.5113 51.6293 152.1256 51.5826 151.792 51.7021 151.1916 51.7839 151.6836 49.6206 151.9056 48.9958 152.8938 47.7861 154.052 46.7155 154.5419 45.4575 155.1985 44.3519 157.9229 43.2112 Z M 354.9032 56.0437 355.6938 56.2855 356.5173 56.218 356.9263 55.7319 357.04 55.1018 357.4555 53.9282 358.4129 53.1334 359.0844 53.0091 359.5604 52.6744 359.4775 51.8031 359.5243 50.9466 360.232 50.0323 362.4261 48.7604 363.6789 48.3067 365.3014 48.1617 365.4842 48.6494 365.2982 49.3459 365.6117 50.3952 365.4566 53.2338 365.0879 53.636 363.4101 54.6172 361.5761 55.4019 361.0629 55.7319 360.6102 56.5134 360.6474 57.288 362.1414 58.3213 364.462 59.2882 364.9412 59.742 365.2515 60.5012 365.3365 61.3512 365.8986 61.755 366.6838 61.9494 367.2045 62.3521 367.5997 62.919 363.6917 61.5956 362.6695 61.0117 361.4327 60.9421 360.2118 60.7647 358.9654 60.2573 357.6276 60.1378 356.989 60.5054 356.7383 61.2216 356.5863 62.0259 356.8828 63.0274 356.8562 63.6341 356.6033 64.7333 357.5703 67.9741 358.7848 70.5519 360.5699 73.2327 361.4518 74.154 362.441 74.9849 360.8376 74.7384 360.351 73.8426 358.3162 72.9543 357.9294 72.4241 356.6033 69.8804 356.2155 69.4054 354.9914 68.5405 354.4559 67.904 354.2731 67.0444 354.4102 66.1418 354.3443 64.8927 354.389 63.6506 354.6418 62.1375 354.2062 61.6078 353.6356 61.1058 352.9736 59.9444 352.7749 58.6252 352.8259 57.866 353.1001 57.1929 353.4667 56.6106 353.5463 56.0427 352.5932 55.2181 351.5934 52.8683 351.5041 51.65 352.7749 49.305 352.7484 48.167 353.0013 47.4907 353.1404 46.7734 353.8045 45.2115 354.8894 43.8796 356.7223 42.0164 357.4226 41.6099 358.2078 41.3454 358.2769 41.8017 358.1515 42.2066 356.7967 44.1022 356.6161 44.5304 356.5799 45.3284 357.2292 45.7996 357.9305 46.7617 358.0697 48.0427 358.093 49.407 357.939 50.7819 357.6776 51.2404 356.564 52.6202 354.0341 54.2406 353.8184 54.6396 353.8332 55.0864 354.3018 55.6256 354.9032 56.0437 Z M 376.9035 96.4539 379.4026 97.6599 380.6979 97.8373 382.8762 97.6801 383.6975 97.798 385.7737 99.3377 386.3794 100.3949 386.5547 101.3077 386.8746 102.1736 387.3856 102.3893 387.9881 102.4701 388.7734 103.7165 388.9295 104.1192 388.3324 107.2463 385.8874 106.0616 383.5232 104.7164 382.5074 104.2169 379.7852 103.0789 379.3676 102.689 379.0626 102.1747 377.8768 101.4734 375.5105 101.365 374.6222 101.3831 374.2599 101.4883 374.3544 101.8655 374.3682 102.6327 373.7806 102.8452 372.3133 102.3607 370.9999 102.1864 369.863 101.7136 368.3382 101.4617 368.1703 101.2237 368.301 100.8699 368.233 100.5373 367.8803 100.4087 367.196 100.4704 366.5351 100.804 365.9857 101.1833 365.1771 102.2289 364.7638 102.6295 363.4324 102.8006 362.8809 102.6996 362.373 102.4404 360.8578 100.5309 360.3467 100.1187 359.7772 99.7818 359.248 99.6267 358.7051 99.9168 358.4182 100.5097 358.2896 101.2142 358.1387 101.619 357.4852 102.7485 356.9455 103.42 356.7489 103.3138 357.0262 102.2363 357.0273 101.6286 356.6926 100.9857 356.4833 100.3301 359.0451 97.2019 359.9716 96.455 364.0115 96.1968 366.4129 96.354 367.7209 96.2775 368.5954 96.048 369.32 96.1564 369.5007 96.7727 369.9576 97.2285 370.5898 97.1902 371.7342 96.7068 372.7298 95.9609 373.3418 95.6368 373.9602 95.5826 374.5999 95.6325 375.2257 95.8047 376.9035 96.4539 Z M 345.4199 98.8702 347.2082 99.7202 347.6151 100.2749 347.936 100.9336 348.2877 101.296 348.7096 101.5924 349.4045 102.1683 349.5883 103.0396 349.4289 104.8014 348.6193 104.9565 347.8563 105.2136 346.288 106.2326 345.5155 106.4324 344.691 106.5004 344.1055 106.7671 343.5179 106.8755 341.9985 106.3102 340.5236 105.6461 338.3847 104.4985 337.9905 104.218 337.6462 103.6017 336.6655 102.4945 336.42 101.7858 336.3382 99.7691 336.5953 99.3079 337.0108 99.0614 338.4399 99.5258 339.3824 99.037 342.0898 98.6236 344.845 98.6661 345.4199 98.8702 Z M 324.3239 162.5716 324.2452 163.5407 324.4822 163.7787 324.8785 163.8966 326.262 163.241 326.5234 163.3653 326.7911 163.6607 326.7954 164.5352 326.263 165.2631 324.9253 165.3183 324.7361 165.5234 324.7191 165.9686 324.8243 166.3989 325.1367 166.7443 325.5352 167.3521 325.9113 168.7674 325.1473 169.3486 324.768 170.4399 323.4483 171.4642 321.9969 173.1441 320.8376 174.0016 319.8186 175.0152 318.9409 175.6953 317.8444 175.9258 316.2038 176.0725 313.9745 177.2859 312.7398 177.8161 311.5391 177.8555 310.4171 177.4612 309.9889 177.0171 310.0898 176.4178 310.4617 175.9035 310.9176 175.4796 311.2034 174.9334 309.9304 174.2428 309.8199 173.7168 310.3257 172.3163 310.653 170.8713 311.1269 169.8873 312.9481 168.1277 314.0404 167.2554 314.6843 166.9143 314.8596 167.2819 315.2698 167.7282 315.5461 167.8015 315.7533 167.7006 317.3609 167.8536 317.7636 167.6995 318.3767 167.0046 318.7826 166.6178 319.0578 165.7933 319.1248 165.2684 320.5507 164.888 321.3168 164.4672 321.9947 163.8701 323.97 162.8543 324.3239 162.5716 Z M 431.2226 127.368 431.1365 127.7877 431.1291 128.5623 431.3097 129.2795 430.8443 130.0084 431.2789 131.1007 431.3437 131.6437 431.3193 132.4119 431.1949 132.7573 430.8656 133.7667 430.5362 134.1259 430.2886 134.2257 430.0325 134.5307 427.8946 134.1992 426.9702 133.4989 426.1467 132.7403 425.9725 132.4236 425.0034 131.5385 424.7803 131.2399 424.7612 130.7682 425.5443 130.6481 426.3805 130.6619 426.3444 130.2369 426.8278 128.7387 425.5559 127.7749 425.3296 127.3701 425.7855 127.0949 426.8087 127.4317 428.0604 125.7412 428.4302 125.3884 428.6055 124.4459 429.3057 124.3248 429.803 124.447 430.1249 125.0325 430.2525 125.5425 430.1186 126.0005 430.72 126.2364 431.2226 127.368 Z M 428.9359 135.368 428.7574 136.1341 428.5821 136.9905 427.5833 137.9511 426.9681 139.4216 426.6068 139.7904 425.2712 140.4438 424.0832 139.6278 423.739 138.9265 424.2596 135.6868 424.7728 135.7941 425.1054 135.7707 425.2127 135.5582 424.4509 135.1958 424.3053 133.3342 424.3425 132.6319 424.9237 132.4736 425.6431 133.0187 426.5526 133.9952 427.6109 134.7634 428.9359 135.368 Z M 472.4424 155.2941 469.8413 156.7254 466.4305 156.4725 465.2234 156.4481 463.2194 156.7966 462.8135 156.5182 463.1918 155.1698 464.7952 151.5794 466.6993 148.4173 467.5079 147.597 468.6342 146.8256 469.8328 146.2071 472.5349 145.5664 474.9936 145.6844 475.3432 145.9479 476.4036 147.003 477.0911 147.8339 477.3791 149.0102 476.3335 151.0343 475.1689 152.9597 473.2733 154.4749 472.4424 155.2941 Z M 498.9702 93.6679 498.9702 93.7093 498.9702 94.4435 498.9713 95.7749 498.9724 97.9861 498.9734 100.1984 498.9745 102.4106 498.9756 104.6228 498.9766 106.834 498.9766 109.0463 498.9787 111.2585 498.9787 113.4708 498.9798 115.682 498.9809 117.8942 498.9819 120.1065 498.983 122.3187 498.983 124.5299 498.9841 126.7421 498.9851 128.9544 498.9862 131.1666 498.9872 133.3778 498.9872 134.3214 498.6504 135.4764 497.8949 137.2094 497.7611 138.6077 498.3837 139.6958 498.9894 140.4066 498.9894 142.2257 498.9904 144.438 498.9915 146.6502 498.9926 148.8625 498.9936 151.0737 498.9936 153.2859 498.9947 155.4982 498.9957 157.7104 498.9968 159.9216 498.9979 162.1338 498.9979 164.3461 499 164.4895 498.439 164.1229 496.9365 162.9116 495.5764 161.5303 494.7009 160.2414 493.7074 159.0673 489.4848 155.5874 488.4105 154.4441 488.197 154.1285 488.2979 153.8331 488.7856 153.2307 489.6516 151.487 488.7463 152.5644 487.6689 153.4177 486.1027 153.474 484.5641 153.6812 483.1402 154.1965 481.6941 154.374 480.9705 154.1211 480.5349 153.4804 480.3085 152.8237 480.2055 152.1256 479.5977 153.254 478.4034 153.8714 476.7745 155.172 476.308 154.9042 476.0264 154.409 475.9329 153.8958 476.2474 153.3475 476.4695 152.7653 476.801 151.3712 477.531 150.5498 477.9953 148.9592 478.2992 148.3918 478.4554 147.8254 478.0304 147.1847 477.3132 146.9658 476.8223 146.5769 476.2527 145.4974 475.9 145.1318 475.2529 144.6887 474.7556 144.1723 475.3049 143.7834 476.0275 143.6273 476.6204 143.6517 477.6936 143.894 478.1781 143.9078 479.4224 143.5082 478.7232 143.6315 478.0315 143.6188 475.8192 142.9196 474.4517 142.196 473.1607 140.7456 473.1479 140.4651 474.0575 140.2016 476.0243 139.8955 475.4144 139.156 474.524 138.511 474.2137 137.3635 473.6048 136.6537 472.2926 135.4934 471.3905 134.2916 470.6254 131.8456 469.8413 130.001 470.0325 129.3316 470.6934 128.8545 469.6946 128.7992 468.7893 128.456 469.2675 127.5571 470.313 127.0269 469.361 127.1629 468.4291 127.4222 468.0041 127.471 467.5653 127.3914 467.3347 127.0301 467.3039 126.5179 467.4399 125.6137 467.2794 124.7371 466.4538 124.328 465.7717 123.7022 465.386 123.4705 464.8802 123.4886 464.3893 123.0699 463.9961 122.4621 459.0733 119.8312 458.7811 119.0811 458.3253 119.4105 457.8684 119.5709 457.3009 119.1395 456.708 118.8526 456.0599 118.8994 455.4606 118.6667 454.8337 118.5339 454.1791 118.5126 451.5897 117.7029 449.1405 116.4247 447.1482 115.8743 445.9167 115.1571 444.6352 114.5705 441.7727 113.9999 438.8741 113.6153 437.8264 113.6015 436.9476 113.7247 436.104 113.6982 431.3012 110.9206 430.4905 109.6551 430.5691 108.9156 430.7827 108.3025 432.741 108.125 431.3618 107.9476 430.7944 108.0315 429.6606 108.5341 429.0454 108.5692 428.1783 108.2355 427.3495 107.8148 425.9916 108.2047 425.2967 107.5651 425.0587 106.8914 424.6953 106.5833 424.1831 106.6151 423.4967 106.8574 422.8103 106.8138 422.3683 106.3527 422.0506 105.7492 421.5798 105.3167 421.0114 104.9862 420.0816 104.2021 419.595 103.131 419.6502 101.2779 419.8001 100.6138 420.7192 99.5343 421.3705 98.5099 420.564 98.3963 419.8351 98.8659 419.5259 99.3483 419.4037 99.9327 419.3209 101.8783 418.7364 102.4414 417.8524 102.3957 418.1148 103.5327 417.7546 104.6112 416.7314 105.8799 416.6453 106.4568 416.809 107.0816 416.5763 107.6958 414.9208 109.4724 414.3693 109.5574 413.141 109.5457 411.8723 109.8273 411.2837 109.4139 410.8013 108.8752 410.4421 108.2387 409.9395 106.9243 409.5368 105.5696 410.797 103.9088 410.3624 102.4074 409.5092 101.1196 407.3564 99.3356 405.1229 97.6429 404.1082 97.2986 402.4442 97.1477 401.9204 96.9841 401.4029 96.3476 401.0204 95.6134 402.0617 95.2978 403.8436 94.4361 404.852 94.4775 407.5955 94.9451 408.4381 95.3701 409.2223 95.6187 411.0966 94.1949 412.5821 92.3365 413.5076 91.9327 414.2928 91.7967 415.0972 91.9763 416.691 92.6255 417.9438 92.9273 418.8374 92.9868 419.3038 93.568 419.8319 93.8294 419.9499 92.9528 420.411 91.937 421.2961 91.6214 421.7637 91.5491 422.0601 91.2867 421.9953 90.3463 420.8212 90.2284 421.4598 89.4229 422.0336 89.0309 422.2301 88.6377 422.2418 88.1436 419.9435 89.0914 417.5219 89.4878 416.0907 89.3804 414.6615 89.3666 411.8096 89.9989 410.7269 89.9734 408.2001 89.7173 406.8028 89.4102 405.7222 89.6493 404.6809 89.6695 403.5907 88.9459 402.6631 88.0384 402.203 87.3945 401.5889 86.9281 401.3169 86.299 400.6389 83.9316 400.5763 82.2422 399.4818 82.2082 398.4118 82.0414 393.6494 80.4337 393.0735 80.8279 392.4031 81.0309 391.7347 81.1063 391.0706 81.0234 390.4086 80.7737 390.4639 80.3306 390.9558 79.2436 391.4382 78.843 392.1055 78.5338 392.5295 77.9569 393.218 76.2281 393.2712 75.6373 393.1957 75.0338 393.252 74.5801 393.6781 74.3421 395.4749 73.7789 399.2045 72.9299 400.147 72.422 400.9248 71.6091 401.8343 71.1151 402.253 70.6157 402.7311 70.2129 405.6181 69.1398 406.8613 69.0526 408.1353 69.177 410.6525 69.8134 413.0539 70.8409 415.1354 72.1893 417.3572 73.1732 420.088 73.339 421.4662 73.2306 422.8177 73.3709 423.366 73.6471 424.3085 74.4855 424.0386 75.0359 423.8782 76.1728 424.3595 77.2673 425.1437 78.3628 425.7844 79.5316 425.9193 80.1022 425.676 81.3114 425.4561 81.9096 424.6772 82.9073 424.2469 83.9975 424.5231 85.3417 424.6772 86.6932 424.6485 87.9354 424.7888 89.1573 425.2149 90.3962 427.035 93.7901 428.0997 96.0894 428.4397 94.8048 428.3537 93.3767 428.7309 92.8614 429.2632 92.5872 429.922 92.8731 430.1101 93.4511 430.1568 94.7134 430.7349 97.1913 431.4712 97.305 432.2713 96.9257 432.402 97.6833 432.3733 99.0848 432.7442 100.1973 433.0746 100.6329 434.3826 101.5382 434.9787 101.7061 436.7128 101.9239 438.0187 101.993 439.2704 101.6689 440.0769 100.838 440.8058 99.938 443.3241 97.8628 444.053 96.8704 444.7553 95.3488 444.9976 95.0226 447.5031 93.3778 447.7889 92.7944 448.1481 91.6649 448.691 90.5716 449.0991 90.0074 451.5185 89.4739 454.0315 89.1839 456.521 88.1766 457.5985 87.3106 457.6495 86.741 457.1022 85.7412 457.0799 85.3023 457.6569 84.8805 459.8777 83.6129 462.4459 82.3091 464.5093 81.4102 465.6505 81.4166 466.7025 82.2082 467.8245 82.8542 473.6877 84.7604 474.627 85.3523 475.4463 86.1386 476.6183 86.6837 477.9273 86.9472 479.1174 87.4561 480.2469 88.1128 482.7407 89.3379 486.0888 90.8223 486.9463 90.9116 490.0607 90.8415 490.5983 91.1209 491.1094 91.5162 491.5844 91.6076 495.1525 91.8838 495.7018 92.1697 496.2182 92.5617 496.5115 93.6392 498.9702 93.6679 Z M 476.3569 156.5458 475.8171 156.6882 473.0831 156.3588 472.7888 155.9104 472.7474 155.6799 473.3743 155.2378 473.9799 154.4845 474.916 154.204 475.2805 154.2061 476.3845 155.9891 476.3569 156.5458 Z M 71.7398 42.6576 72.3296 43.5486 72.4518 44.1261 72.0225 44.7886 71.8631 45.8049 70.5933 46.604 69.484 46.4138 69.1249 46.129 68.4247 44.5846 68.4927 43.275 68.9347 42.7729 69.9622 42.8499 71.0067 42.1322 71.7398 42.6576 Z M 79.5635 54.4988 79.0598 54.8292 78.4552 54.3149 77.9579 53.568 77.6955 52.7902 77.4638 51.5194 77.4033 50.6066 77.705 50.0711 77.9239 50.0907 78.8175 50.6305 79.4083 51.5539 79.7345 51.8429 79.7994 52.6914 79.5826 53.6593 79.5635 54.4988 Z M 80.2679 49.3953 80.3498 50.791 79.5422 50.426 78.9079 49.8708 77.8995 49.4612 76.6712 49.3273 75.7723 48.9666 75.1432 48.3179 75.1156 48.0193 75.1772 47.7765 75.3749 47.5868 80.0246 48.8417 80.2679 49.3953 Z M 86.0961 57.1483 85.8921 57.5674 85.4862 57.2582 83.3621 56.7896 82.647 56.7376 80.8088 56.2238 80.252 55.9513 79.8546 55.5937 79.9906 54.9318 80.2626 54.5344 80.4284 53.4256 80.8917 52.9745 81.8055 53.7996 82.817 54.5089 83.4036 54.8335 85.1886 55.5587 85.823 55.9226 86.0961 57.1483 Z M 87.607 55.8041 87.2893 56.1144 86.74 56.0437 86.1598 55.675 85.4043 55.0152 84.5596 54.4265 83.4896 54.0546 82.8202 53.9425 82.5524 53.807 82.8106 52.6632 83.513 52.5909 85.7901 53.654 86.5317 54.231 87.607 55.8041 Z M 88.8917 59.3754 87.6697 59.4381 87.3148 59.2978 87.4646 58.2746 87.8355 57.6583 88.388 57.6705 89.0075 58.5917 88.8917 59.3754 Z M 90.6948 58.0424 90.4717 58.1901 89.5441 56.8082 89.7757 56.0113 89.9978 55.8105 90.5089 56.2956 90.9137 56.8056 91.2091 57.4086 90.6948 58.0424 Z M 96.9469 52.4268 97.6355 52.9007 98.1986 52.5899 98.1763 52.9963 98.0626 53.3863 97.3964 54.5051 96.2807 54.2475 96.0225 53.8857 95.9396 53.6147 96.1001 53.4447 96.1914 52.8959 96.6749 52.898 96.9469 52.4268 Z M 103.046 52.04 103.1076 52.8566 103.7292 53.2534 103.8897 53.8527 103.7802 54.8154 103.1958 55.9258 102.9355 56.2201 102.1641 55.9948 101.9069 55.6235 101.8039 55.3329 101.9112 55.1257 101.3406 54.8648 101.7082 54.4398 101.4564 53.8426 99.8753 54.2161 99.4184 54.2294 99.3345 53.5494 99.3993 53.2747 100.6138 52.4167 101.3385 52.2584 102.1184 52.4305 103.046 52.04 Z M 105.1488 67.1868 105.4633 67.3664 105.8512 66.8021 106.5673 67.5757 107.0104 67.9624 107.6161 68.3492 107.02 68.3673 106.7798 68.7211 106.6247 68.7902 104.3179 67.5427 102.842 67.9444 101.8294 67.5799 101.5414 67.3302 102.0855 66.647 102.5817 65.0792 103.5932 65.4729 103.8408 65.9558 103.7792 66.0993 104.4401 66.393 105.1488 67.1868 Z M 101.8368 68.9134 102.8547 69.9707 103.0981 70.349 102.5955 70.9355 102.1885 71.7643 101.9579 71.9407 101.1802 71.623 100.6287 72.4379 100.2653 71.1374 99.4748 70.3128 99.9667 69.4692 100.1452 69.4086 100.3843 69.4352 100.6329 69.6551 101.8368 68.9134 Z M 93.8103 69.0579 92.3939 69.4383 90.816 69.1631 91.0083 68.5086 91.7691 67.7478 92.4438 67.7808 93.6732 68.2823 94.112 68.7296 93.8103 69.0579 Z M 158.808 78.1184 156.6383 79.2298 156.1251 79.1724 155.7383 78.7772 155.9795 76.6329 156.2589 75.9933 157.7678 75.9253 158.6911 76.2323 159.1682 76.5809 159.3552 77.297 159.249 77.7305 158.808 78.1184 Z M 203.7914 142.5828 203.5853 142.7411 201.7386 142.6518 200.5475 143.5401 199.724 143.8132 196.7616 143.8121 196.4088 143.6921 196.1463 143.6953 195.9838 143.8748 195.0423 143.7409 192.0321 142.9557 191.6198 142.2279 192.0863 141.4501 193.1669 140.3471 195.3356 140.1304 205.2078 140.0549 206.2842 141.0027 206.3862 141.3204 204.2356 141.9697 203.7914 142.5828 Z M 433.5985 77.415 433.0767 77.6137 432.4711 77.3948 431.8962 76.5617 432.1034 75.9221 432.7707 75.4832 433.3317 75.9231 433.5049 76.4852 433.9353 76.5235 433.5985 77.415 Z M 349.6499 70.6613 348.9688 70.9429 348.2272 70.9355 348.0667 69.7752 348.3069 68.3035 348.9943 68.0549 350.0867 68.3662 349.6839 68.7392 349.9836 69.5265 349.6499 70.6613 Z M 353.1001 68.7424 354.356 70.3681 353.5134 71.9109 354.0967 72.7737 355.6821 72.8279 356.0476 73.1509 356.3239 73.5398 356.5077 74.0711 356.0954 74.4961 355.2124 74.8871 354.1945 74.325 353.9257 73.8023 353.7185 73.6068 352.3478 74.0031 351.9653 74.0413 351.6996 73.3135 352.0301 72.2679 351.0716 71.7962 350.195 70.7155 350.1632 70.2799 350.5159 69.5255 350.4681 68.9262 350.9696 68.8805 351.8834 69.6934 352.2808 68.9273 352.6687 68.6085 353.1001 68.7424 Z M 411.4122 129.4899 410.5282 130.425 411.3623 128.2191 411.5365 127.1023 412.3101 126.4361 413.4619 123.0551 413.7212 123.1337 414.0952 123.4631 413.5161 125.942 411.8999 127.6814 411.4122 129.4899 Z M 410.1159 128.9321 409.4539 129.9797 409.0034 129.61 408.7484 129.6047 408.5943 128.9894 408.7473 127.7144 408.1905 126.2799 408.9269 126.3012 409.1298 126.7294 409.3615 126.875 410.0851 128.2584 410.1159 128.9321 Z M 360.81 105.254 360.5305 105.6514 359.8983 105.9139 359.3692 105.8862 359.5413 105.5048 359.4095 105.2816 359.0175 105.3826 358.3799 105.6886 357.5724 106.3028 357.0974 105.9989 356.9954 105.5228 357.023 105.3061 357.9878 104.4518 359.1078 104.3062 360.6878 103.488 361.3923 103.5273 361.2244 104.0469 360.9779 104.4167 360.8302 104.8035 360.81 105.254 Z M 344.9354 21.3852 344.4965 21.6126 343.7889 21.5292 343.7156 20.9772 344.4296 19.9847 344.9024 18.9371 344.3988 18.6751 343.9068 18.0047 343.8898 17.2253 344.2904 15.7882 344.8907 15.9045 345.4635 16.5288 345.6983 17.6965 346.0723 18.5832 345.2733 19.7914 344.9354 21.3852 Z M 332.3302 27.8859 332.0593 28.219 330.7353 27.6128 330.8012 26.6502 330.6227 26.1757 330.2678 25.6763 330.1233 25.186 330.271 24.652 331.0828 25.3358 331.5418 26.4164 332.1719 27.4455 332.3302 27.8859 Z M 388.954 155.785 388.0072 156.124 388.6405 155.2633 390.6721 153.3103 391.4042 153.6716 392.3722 153.7396 390.9293 154.6237 389.4534 154.9903 388.954 155.785 Z M 377.8194 151.8228 377.1766 152.8226 376.4551 152.7599 375.1322 151.4179 375.2066 150.4818 375.3182 150.1779 375.8239 150.0844 377.5379 150.3554 377.8704 151.113 377.8194 151.8228 Z M 355.8903 153.3922 357.7945 153.8299 358.8868 153.7842 359.1088 154.1742 358.0675 155.0954 355.8627 154.3867 355.4855 153.6259 355.8903 153.3922 Z M 383.417 83.666 383.5487 84.311 384.1969 84.9071 383.9716 85.8347 383.7134 85.9739 383.8526 86.3978 384.13 86.7209 383.6274 86.9451 383.2608 86.8356 382.6647 87.1353 382.2716 87.5528 381.0252 87.7282 380.5885 87.3414 378.338 86.8856 376.9003 85.8846 376.7186 85.585 379.5036 84.4098 380.7234 84.1006 381.7445 84.1197 383.0323 83.6819 383.417 83.666 Z M 78.9111 124.8837 78.027 124.9358 76.3907 123.598 76.1208 123.1847 76.5862 122.7894 77.075 122.8181 78.961 123.6618 79.3276 124.0794 78.9111 124.8837 Z M 57.7799 99.904 58.2156 101.4883 56.9203 100.4077 56.9458 99.6416 56.7673 99.1443 55.9832 98.5333 55.3775 97.7704 55.1055 95.9577 55.3148 95.5805 55.827 95.555 58.1008 97.9351 58.256 98.3378 58.206 99.1857 57.8756 99.4514 57.7799 99.904 Z M 55.3754 95.0959 54.5986 95.9704 53.3172 95.9524 53.0664 95.4094 53.1206 94.0982 52.8082 93.6679 52.821 93.4979 53.0229 92.7498 53.2843 92.5851 55.352 94.4287 55.3754 95.0959 Z M 51.4471 90.766 51.4992 91.0561 49.7289 90.0987 48.8789 89.8352 48.1213 88.7907 48.3551 88.2892 48.3869 87.59 48.4996 87.3138 49.0425 87.2139 49.7428 87.7229 50.2687 88.9671 51.1496 90.1274 51.4471 90.766 Z M 36.3906 71.0439 35.7425 71.5486 34.7628 71.0587 35.0922 70.3628 35.2537 69.399 35.8413 68.634 36.0411 67.7361 34.9073 65.2805 35.4683 65.195 35.9136 65.4628 36.6637 67.0965 37.314 68.0751 37.0526 69.4033 36.3906 71.0439 Z M 14.6773 39.5937 13.9951 39.6952 13.3384 39.4625 12.7923 38.8367 9.8713 37.0287 8.9628 36.9995 8.3242 36.5373 7.5496 36.3774 6.7272 35.1708 6.5551 34.5237 7.1533 34.2081 7.5241 33.544 8.4985 33.8373 9.6089 35.0088 10.7373 35.446 11.0444 35.667 11.5905 36.3152 14.1725 37.9053 14.4531 38.4446 14.6305 38.9865 14.6773 39.5937 Z M 292.9954 124.4406 292.3058 124.7318 290.9978 123.4865 290.4442 122.4621 290.577 121.8831 290.968 121.3751 291.154 121.2487 291.0732 120.7195 291.5885 120.4613 292.1549 120.4975 292.5268 121.2073 292.9741 121.4028 293.2004 122.0828 292.9954 124.4406 Z M 305.7185 78.0164 305.9575 78.6954 305.5633 79.2829 305.9958 80.3891 307.0923 78.9164 308.139 78.7294 308.7329 78.9737 309.141 79.2649 309.363 79.8238 308.9784 81.0202 308.2909 81.5802 307.4015 81.6705 306.984 80.9735 306.3996 80.9097 305.9915 82.4302 305.8077 82.6629 305.2902 82.8553 304.827 82.4356 304.7462 82.2029 305.3986 81.5143 305.0448 79.4657 304.5528 79.8504 303.2384 81.7088 302.2163 82.5418 301.8688 82.1179 301.3503 80.8545 301.583 79.2319 302.4075 78.1354 303.1088 78.2108 305.1309 77.8666 305.7185 78.0164 Z M 291.052 69.6987 291.5142 70.1821 291.2358 70.741 290.8618 70.6018 289.8736 70.6125 289.5006 70.655 289.0565 70.9844 288.777 70.9971 288.963 70.4818 289.8003 69.7008 290.323 69.8166 291.052 69.6987 Z M 276.5151 133.8028 276.0688 135.6134 275.8584 134.9748 275.7798 133.3194 275.5057 132.5161 275.6799 131.5885 275.6247 129.2094 275.9604 128.1107 276.5788 129.509 276.7425 130.2209 276.5151 133.8028 Z M 220.4662 141.1185 219.5821 141.3034 218.7608 140.9199 218.781 140.4045 218.9807 139.9264 220.2122 139.6788 220.8731 139.6926 221.5776 140.0241 222.0675 140.3684 222.3055 140.769 220.9783 140.7902 220.4662 141.1185 Z M 230.5446 107.36 228.26 109.3831 227.8839 108.8699 228.0815 106.8085 227.444 105.5292 227.4886 104.5772 227.936 102.8962 228.5214 101.6084 229.8486 100.7466 230.179 100.6457 230.0962 102.2098 230.3618 102.7974 230.4553 103.3 230.3129 103.7324 230.5647 105.7322 230.7114 106.2156 230.3915 106.8457 230.5446 107.36 Z M 302.8527 183.9715 301.8401 183.9758 301.5171 183.861 301.4332 182.9026 301.7296 182.3671 304.0768 181.6775 304.9948 181.041 306.2965 179.716 307.104 179.3685 307.3091 179.2187 307.4462 179.2453 307.5769 180.2536 307.9009 180.8529 307.9583 181.1643 306.7895 181.6775 305.7461 182.8495 303.4658 183.6135 302.8527 183.9715 Z M 317.4077 155.9019 316.7457 156.5745 316.2952 157.7433 315.885 158.0993 315.0042 158.3192 314.4771 157.1462 313.5028 157.2014 313.9788 156.1697 314.4389 155.784 315.0371 155.7744 315.3314 156.192 315.4919 156.2802 316.8955 154.5302 317.1792 154.5121 317.413 154.5875 317.6021 154.8064 317.4077 155.9019 Z M 313.4709 155.2814 311.9376 155.5768 311.0015 156.9347 310.2545 156.9135 309.8454 157.517 309.7477 157.7752 309.8051 158.0164 309.7211 158.2459 309.4257 158.4839 308.7255 158.1089 308.1283 158.5849 307.8776 158.6996 306.9988 158.145 306.1647 158.1769 305.9118 158.0908 306.9446 157.0941 308.3547 156.1654 308.5863 155.8233 308.0348 155.7266 307.7054 155.5874 307.6651 155.3685 308.5576 155.223 309.175 155.2028 309.6446 155.4886 309.9432 155.4865 311.8515 154.3888 312.6081 154.6385 313.1585 154.9201 313.4709 155.2814 Z M 306.8628 156.1771 306.6429 156.6542 303.6805 156.6202 303.7633 155.9922 304.5868 155.3069 304.861 155.0784 305.7705 154.8787 307.0647 155.2442 306.8628 156.1771 Z M 430.8868 136.5336 430.2854 136.6367 429.99 135.7484 430.4841 135.5178 431.0217 136.0597 430.8868 136.5336 Z M 90.409 53.8655 90.4717 54.4637 89.7492 54.3171 89.2285 53.6158 89.6588 53.1158 89.9308 52.9373 90.2018 53.602 90.409 53.8655 Z M 94.8122 56.5564 94.8707 56.8699 93.874 56.2414 93.8485 55.7861 93.9781 55.5735 94.5732 56.0634 94.8122 56.5564 Z M 99.2814 56.1978 98.6003 56.5144 97.7449 55.5204 97.7768 55.2893 97.8554 55.1145 98.0127 55.0008 98.5323 55.5151 99.1475 55.6984 99.2814 56.1978 Z M 104.1766 64.6244 104.2733 64.8948 103.759 64.5899 103.4487 64.4055 103.2436 64.2361 102.1088 62.7469 102.5944 62.8425 103.8567 64.1505 104.1766 64.6244 Z M 121.542 30.9206 121.525 31.6702 120.7727 31.2314 120.625 30.401 120.8726 30.1322 121.389 30.2767 121.542 30.9206 Z M 115.8307 34.1205 115.3759 34.1625 115.241 33.8394 115.2601 33.2821 115.2197 32.838 115.0891 32.507 115.0891 31.9502 115.5077 32.2281 115.8307 32.4884 116.2026 32.6743 116.5033 32.8003 116.6616 32.8858 116.3641 33.6753 115.8307 34.1205 Z M 149.856 33.6593 149.3268 34.2294 148.7573 33.8745 149.6339 32.7184 149.8368 32.6414 149.856 33.6593 Z M 150.57 82.8946 149.3162 83.3515 148.9443 82.3304 149.7444 82.0265 150.6104 82.29 150.57 82.8946 Z M 134.4691 96.8205 134.0281 97.101 133.772 96.8322 133.6976 96.5315 133.8815 96.1521 134.4807 96.1149 134.7559 96.2276 134.4691 96.8205 Z M 128.0831 97.9712 127.9014 98.1891 127.2978 98.0711 126.8633 97.7704 126.5902 97.4835 126.5211 97.1828 127.1087 96.8141 128.3466 97.1956 128.0831 97.9712 Z M 209.9724 142.8888 209.8098 143.3202 209.2573 143.2129 208.7345 142.4978 208.9884 142.3107 209.2796 142.2353 209.6568 142.3139 209.9724 142.8888 Z M 191.5497 128.4996 191.3159 128.8853 190.2736 128.8545 190.0983 128.4188 190.7783 127.6272 191.2299 127.5762 191.6358 127.8653 191.5497 128.4996 Z M 110.3086 137.5239 109.6296 137.7641 109.1111 137.5526 108.8784 137.2466 109.6498 136.4922 110.0132 136.3126 110.3925 136.2563 110.5764 136.6643 110.3086 137.5239 Z M 24.1489 42.6879 24.0851 42.9312 22.962 41.7863 21.6912 41.1509 22.2172 40.9841 23.2638 41.1605 23.6835 41.3257 24.0894 41.8947 24.1489 42.6879 Z M 2.6916 2.0296 2.4791 2.3372 1.833 2.1805 1.1201 1.1907 1.3846 1 1.8256 1.1009 2.6597 1.3294 2.7341 1.7002 2.6916 2.0296 Z M 309.9102 83.8158 309.1601 83.887 308.6586 83.5672 308.7032 81.9723 309.159 81.6238 309.3768 81.6822 309.516 82.1572 309.7413 82.5822 310.1153 82.9796 309.9102 83.8158 Z M 306.0457 110.0238 304.981 111.3329 304.2372 111.266 303.3511 110.4053 303.0918 109.4617 303.0716 109.1207 303.6794 108.5873 305.7142 108.7679 306.0957 109.2397 306.0457 110.0238 Z M 312.6378 86.5487 312.8312 86.9865 312.1512 86.9716 311.8654 86.1481 311.9334 85.7093 312.6378 86.5487 Z M 305.0682 85.0367 304.2659 85.9335 304.1799 85.4543 304.3424 85.0186 304.5666 84.7126 304.9045 84.5596 305.0682 85.0367 Z M 264.9353 160.3796 264.5092 160.4826 264.081 160.3254 264.2563 159.3574 264.0088 158.6986 264.455 158.1822 264.5666 157.2673 264.7441 156.9868 265.0055 157.2748 265.1276 157.4628 265.3497 157.551 265.8374 157.568 265.949 157.9622 265.9299 158.3384 265.7216 158.7294 265.1393 159.1523 264.7175 159.6262 264.9353 160.3796 Z M 260.6893 154.9159 260.2123 154.9286 260.1134 154.4919 260.2845 154.034 260.7425 153.8427 260.9497 153.831 261.2822 154.2443 261.3534 154.4611 261.0474 154.748 260.6893 154.9159 Z M 223.0004 160.693 222.6954 161.067 221.8135 160.3997 221.5914 160.1012 222.246 159.6655 222.4723 159.606 223.0365 160.0767 223.0004 160.693 Z M 245.1866 19.9109 246.2354 19.9332 247.7516 19.7244 248.1118 20.7647 248.166 21.1589 246.1418 21.7061 244.9263 20.4278 245.1866 19.9109 Z M 245.2886 29.578 245.1515 29.9345 244.2218 29.059 243.9732 28.4262 244.0858 27.93 245.0527 27.8854 245.533 28.1962 245.2886 29.578 Z M 314.8469 130.2698 314.747 130.7905 314.3507 130.1933 313.9873 129.8958 314.0255 129.2519 314.5388 129.491 314.8469 130.2698 Z M 310.228 122.63 310.1844 123.734 309.7477 123.6724 309.3938 123.2856 309.294 122.9212 309.3142 122.6247 309.5086 122.3931 310.228 122.63 Z M 279.1927 142.7305 278.0824 142.7931 277.7392 142.6964 277.6584 141.635 278.8782 142.0908 279.2724 142.1227 279.1927 142.7305 Z M 244.1782 156.3131 243.9307 156.3206 243.461 156.1113 243.63 155.6575 243.3707 154.9201 243.4621 154.3123 244.0667 153.9702 245.3609 153.9298 245.4066 154.3761 244.1782 156.3131 Z M 231.8589 102.9674 231.4637 104.8417 230.7974 103.7792 231.5455 102.52 231.8897 102.265 231.8589 102.9674 Z M 350.9856 56.6621 350.6126 57.0197 350.2609 56.9001 350.0473 56.4379 350.1164 56.1054 350.4107 55.8928 350.7805 56.0512 350.9856 56.6621 Z M 427.1668 88.3774 426.8512 88.5431 426.7407 88.0692 426.9118 87.4349 427.1158 87.334 427.3495 87.368 427.6545 87.5964 427.1668 88.3774 Z M 418.4251 111.47 418.9808 112.0512 417.6866 111.5954 415.8378 110.6401 415.706 110.0026 417.2669 110.9684 418.4251 111.47 Z M 389.4226 73.7311 389.1452 74.2857 388.6299 74.6608 383.9515 75.3249 384.3499 74.9275 384.5486 74.5333 384.8419 74.3304 385.3062 74.3824 385.5368 74.2624 385.7695 74.2145 386.033 74.2666 386.4867 74.103 387.442 74.2209 388.4238 74.1274 388.3536 73.5961 389.4226 73.7311 Z M 386.3911 71.0247 385.7652 71.0386 384.6368 70.5657 385.2945 70.1545 385.7111 70.0695 386.0734 69.823 386.2742 69.8124 386.7205 70.0217 387.018 70.3766 386.3911 71.0247 Z M 374.6647 67.3068 374.194 67.3377 373.7976 66.7023 372.7192 65.9946 372.0519 64.778 374.5893 66.7873 374.6647 67.3068 Z M 351.8643 65.3358 351.8122 65.6705 351.4775 65.203 351.248 65.0914 351.4956 63.9183 351.6242 63.7207 351.8207 64.5214 351.8643 65.3358 Z M 351.4977 58.2857 351.1088 58.4063 350.9962 58.3644 350.8793 57.926 351.094 57.1817 351.553 57.1727 351.7464 57.2917 351.7825 57.8373 351.4977 58.2857 Z M 350.1993 73.7693 350.076 73.9935 348.9391 73.7077 348.6331 73.5515 349.2058 72.0108 349.7403 72.0554 350.2088 73.5239 350.1993 73.7693 Z M 365.6723 103.8642 365.6468 104.3243 365.5724 104.4698 364.9795 104.3094 364.5523 104.3179 364.1783 103.487 364.2846 103.2978 365.0634 103.5358 365.3577 103.6209 365.6723 103.8642 Z M 363.9329 104.2839 362.0723 104.8545 362.4718 103.7941 362.7247 103.5146 363.647 103.8036 363.9329 104.2839 Z M 343.8771 23.1134 343.9036 23.5719 343.2448 22.5285 342.9866 21.2933 343.5094 21.7342 344.0981 22.6449 343.8771 23.1134 Z M 345.319 24.269 345.1415 24.3944 344.7505 24.1011 344.5103 23.7797 344.5252 23.4561 344.8036 23.2957 345.3753 23.7908 345.3838 24.065 345.319 24.269 Z M 329.6026 36.4209 329.4921 36.6611 329.0873 35.3849 329.422 34.7479 329.9055 34.9817 330.0277 35.2091 329.5644 35.8179 329.6026 36.4209 Z M 401.1383 143.6347 401.0023 144.1713 400.538 143.8844 400.0768 143.2585 399.4064 143.1682 398.9133 143.0025 398.6222 142.7071 400.4881 142.5732 401.1383 143.6347 Z M 365.1027 143.4307 364.6118 143.7059 363.7979 143.1374 363.5758 142.9005 364.0933 142.3416 364.6416 142.1843 364.9742 142.4276 365.1367 142.6699 365.0677 142.9377 365.1027 143.4307 Z M 351.4945 148.2154 350.7964 148.4704 351.0111 147.665 350.9643 147.0158 352.1013 147.2144 352.0885 147.7309 351.9791 147.9306 351.4945 148.2154 Z M 307.9371 177.3709 306.9553 177.7503 306.951 176.9523 307.7097 175.9428 308.4003 175.6007 308.7829 176.0034 308.8137 176.1883 307.8159 176.5496 307.9371 177.3709 Z M 291.2549 180.5012 290.7119 180.6298 289.5484 180.3142 289.3147 180.124 290.3114 179.5991 291.0806 178.8532 291.9785 178.7894 292.5098 178.9414 292.3249 179.8276 291.2549 180.5012 Z M 432.0121 135.2798 431.7464 135.369 431.7485 134.8325 432.0492 134.3596 432.3638 134.0876 432.7335 134.0759 432.0121 135.2798 Z M 430.4331 138.714 430.2482 138.8829 429.9656 138.5302 429.9401 138.3113 430.3141 137.712 430.686 137.3635 431.1004 137.338 430.9952 137.831 430.4331 138.714 Z M 357.6797 97.2232 357.1335 98.1317 356.1751 98.0913 356.0083 97.9617 357.141 97.3953 357.6797 97.2232 Z M 353.5272 101.3427 353.778 101.8219 352.709 101.5191 352.2373 101.0495 352.7027 100.7594 352.9641 100.6808 353.5272 101.3427 Z M 303.1619 158.2491 302.8155 158.8888 302.1876 158.7071 302.3586 158.0908 302.6774 157.7253 303.5232 157.1951 304.3818 157.1026 304.9088 157.2886 305.0745 157.4936 303.7357 157.7008 303.1619 158.2491 Z"/>
</g>
</svg>