<?xml version="1.0"?>
<svg xmlns="http://www.w3.org/2000/svg" version="1.2" baseProfile="tiny" width="800" height="386" viewBox="0 0 800 386" stroke-linecap="round" stroke-linejoin="round">
<g id="us-states-16">
<path d="M 667.0102 1 668.3569 19.1822 686.5392 31.3038 671.724 46.119 675.7646 73.7292 685.1924 93.2583 728.9645 107.4001 737.7189 122.8886 764.6557 145.1114 768.0228 157.9063 795.6329 170.0279 799 185.5165 794.286 209.0861 778.1241 217.1671 774.0835 236.0228 735.6988 251.5114 687.8861 257.5721 679.805 279.1215 700.0076 296.6304 697.9873 318.1798 681.8253 330.3013 678.4583 349.157 644.114 362.6253 642.0937 384.8481 628.6253 380.8076 603.7088 355.8912 590.9139 356.5646 415.8253 359.9316 246.7975 361.2785 107.3999 359.2582 93.2581 343.0963 99.9924 311.4456 87.8709 283.8355 88.5443 252.8583 66.9949 242.0836 63.6278 225.2481 71.0353 210.4329 62.9544 188.8835 46.119 180.8025 23.8962 125.5823 1 98.6455 11.7747 80.4633 15.8151 56.2202 25.2429 47.4658 9.7544 35.3443 13.7948 13.795 7.0607 3.6937 23.2228 1 648.1544 1 667.0102 1 Z" id="19"/>
</g>
</svg>