<?xml version="1.0"?>
<svg xmlns="http://www.w3.org/2000/svg" version="1.2" baseProfile="tiny" width="500" height="381" viewBox="0 0 500 381" stroke-linecap="round" stroke-linejoin="round">
<g id="ne_50m_admin_0_countries-Iran">
<path d="M 315.1824 332.8138 312.7787 335.9123 309.1468 338.4963 307.5931 337.6917 306.3925 337.7295 303.7997 338.7195 301.9232 338.891 298.5283 340.6553 295.4437 341.5444 293.2922 341.4763 292.5457 341.2984 292.1194 340.0954 292.1572 339.6212 293.4612 339.8696 298.2332 338.2668 304.1957 335.6336 304.7632 334.4658 303.8047 332.5603 304.0671 332.129 307.9285 333.1064 312.2415 331.2071 315.8533 330.6926 317.5431 332.0142 315.1824 332.8138 Z M 256.4556 63.6312 263.6211 63.9174 266.4157 63.3714 270.5193 61.9779 273.6241 61.1342 275.193 61.0182 276.7365 60.3611 277.9194 59.5414 280.5905 53.84 281.9196 52.4124 286.452 49.1954 290.3034 47.1587 294.3364 45.3566 299.4388 44.1005 306.2286 44.233 311.6261 44.6743 314.7486 44.6529 316.2366 44.7815 317.354 44.5999 317.9971 44.2279 318.6983 41.741 319.803 40.9301 321.7073 40.2353 324.3783 40.2302 327.6294 40.0486 330.3332 40.2189 333.7432 41.1748 338.1949 41.2542 341.1534 41.0878 342.8736 42.0386 344.112 43.3098 344.7148 44.3704 344.851 45.827 344.8257 46.9368 345.2898 47.3655 347.1008 48.0276 349.6103 48.5245 354.5059 49.1235 359.0938 50.2711 361.4798 51.0555 364.7914 52.28 368.7387 55.3079 370.199 55.7884 371.9696 56.0948 373.2357 56.0129 376.1993 54.7303 378.7745 55.6762 380.081 55.5551 383.042 54.8514 386.1872 55.7253 394.0287 59.0546 394.8888 58.9777 395.6026 59.3157 396.2533 60.0774 396.7123 61.0182 397.2975 63.8846 399.5599 65.9743 402.3293 67.8836 405.5577 68.9278 412.3096 71.4298 415.2581 73.4627 418.2418 76.9093 421.9192 81.4517 422.4514 81.8629 431.9197 81.7254 442.5533 81.7355 443.8522 83.5515 443.605 87.1557 443.9859 90.8494 444.9393 93.4107 444.9493 95.7715 444.1801 96.967 443.5823 98.3341 443.4133 98.9318 444.7804 99.7856 445.9759 101.7504 446.1449 104.4832 445.5471 105.936 445.6329 107.1315 446.2306 108.1568 446.7426 109.8655 446.6569 110.8896 445.8044 111.9148 445.2924 113.1961 444.6088 114.8191 444.3516 116.1004 443.0703 116.6982 442.0463 117.1257 442.2178 118.7487 442.7298 120.1157 443.3276 121.7375 442.6441 122.8485 442.2178 124.1298 441.277 126.1804 441.5318 127.8879 440.5078 129.3407 439.2265 130.6219 438.374 131.6472 438.2025 133.0987 437.2617 133.612 435.4684 134.8075 434.3586 135.6613 432.7343 135.9173 432.3939 136.6008 432.6486 137.2843 433.3321 137.7118 434.399 139.1898 436.6084 141.736 430.2349 142.0525 428.3634 144.3137 426.1817 147.5383 427.2486 154.067 426.1867 157.4266 426.8299 159.3119 428.4567 160.6184 430.5426 161.3398 434.4646 161.3839 437.0599 161.8934 437.3197 162.7648 435.8291 164.0297 433.4431 166.417 432.182 167.4574 428.1137 172.2533 428.149 174.295 428.5273 175.9458 430.2828 181.1239 431.9853 186.1443 435.0548 195.199 435.0018 197.3025 434.0383 201.9736 433.9753 204.8123 434.4091 208.4985 434.0812 210.4066 434.8328 214.6792 435.6954 214.9869 442.3237 215.8167 448.4123 216.5784 456.5136 217.591 458.9652 220.0994 460.4936 225.594 460.4054 229.7077 459.7168 231.8087 453.9132 237.8153 448.0289 243.9013 442.1522 249.9786 435.418 256.9449 440.3463 261.988 443.3931 265.1054 447.6859 269.4991 448.2307 270.5534 448.1904 272.2786 452.5992 278.9662 454.1528 282.4569 455.5552 284.5049 459.0409 287.7056 462.4458 290.8344 466.1434 292.2682 468.663 292.5835 474.4086 294.2381 476.497 295.5521 479.8717 298.8764 483.8239 298.4211 484.6462 298.4186 484.8681 298.6595 484.9842 299.7314 484.3965 304.8969 485.4962 310.1014 486.2629 317.9404 485.9754 319.2961 485.0296 321.5635 484.9842 323.0239 484.7319 323.9167 484.9968 324.3152 486.2528 324.8512 488.9339 325.1362 495.426 324.256 496.1827 324.4767 497.7364 325.4073 498.9067 326.8652 499 327.56 497.3707 328.7707 497.0957 330.825 497.585 333.8958 497.3581 334.2703 495.9254 334.9715 495.4588 339.4144 495.194 339.823 493.5193 340.2732 485.6071 339.9743 484.7017 340.0966 481.728 341.272 476.6357 342.1144 475.2359 342.5898 473.3568 343.9266 471.9974 345.5635 471.7376 347.068 471.4728 347.3832 468.5445 347.0743 467.5911 348.3846 461.9288 350.343 461.22 350.7693 460.3827 352.3356 459.6285 356.7116 458.9475 360.65 458.5162 361.2251 456.733 362.5706 456.5565 363.0284 456.8037 364.5493 455.9966 367.3326 455.3584 375.0416 454.6472 377.2057 453.2322 377.3822 452.1275 378.463 450.1098 379.7947 445.7388 378.7644 442.2682 377.6824 430.7822 375.1425 429.5236 373.913 428.8098 371.7514 426.8223 371.1436 423.9722 374.3846 414.2744 372.5106 410.9779 373.0869 408.945 372.0781 403.719 372.0163 399.5877 369.996 393.6781 371.3845 388.9995 371.6543 382.5881 368.1081 375.6924 367.1308 370.0981 367.4297 367.2228 367.1522 362.5593 365.881 360.3448 364.5682 356.7154 365.5658 355.0734 363.7094 344.7955 361.988 342.8937 358.7003 341.4636 355.6434 341.3552 352.502 338.8481 347.0112 338.0133 339.0398 337.0851 335.9249 335.6954 333.2186 333.8416 330.9171 331.3219 328.4529 329.1326 327.4793 319.5256 325.6053 317.6718 325.8538 313.3765 327.0808 308.8063 329.8061 301.2952 331.3572 299.7793 332.53 297.8927 335.1695 295.4512 336.703 292.0967 336.3058 288.4925 337.8695 281.8087 342.2266 278.2826 343.5596 275.3292 343.46 272.1562 341.388 265.0537 338.6123 260.4633 337.6892 254.0897 338.326 251.0732 337.8645 245.943 334.6058 244.5962 332.2425 241.6704 330.6611 232.3938 327.1111 224.8802 322.4249 223.5005 320.653 222.5825 318.035 219.3087 314.8545 211.9741 312.2516 207.8125 309.4847 202.9371 308.8693 198.3997 308.9538 196.4046 308.4569 194.5836 307.274 188.3941 301.5575 188.321 299.2976 184.5074 293.7109 183.6145 291.7234 182.7923 286.196 181.738 284.7508 177.7555 282.4758 177.135 280.9864 177.9825 279.009 177.9825 277.5033 175.9092 276.0896 172.8019 275.3367 172.0503 273.6418 172.6152 270.3453 172.1411 268.2733 169.402 264.9692 165.3564 261.5844 161.3082 256.5779 159.7268 255.3294 158.6927 252.0531 157.2122 248.1676 154.9271 247.8877 143.8673 252.5474 140.6414 249.9256 130.9385 245.368 130.2625 244.6832 129.5866 243.6378 130.8023 243.035 132.0205 242.789 134.4519 243.5999 135.9223 242.6415 135.3347 241.0966 132.9033 240.1382 129.5866 240.2126 130.4946 241.6604 127.3872 243.035 126.7264 244.8333 127.1779 247.0591 127.4478 250.1728 126.1816 251.6836 125.2081 252.3784 121.0363 252.5638 119.0892 253.9397 117.8231 254.2676 116.0676 253.1969 114.9326 252.3242 114.0045 250.4641 113.7195 249.1664 114.0751 248.4312 113.5908 247.3504 112.2591 245.9229 110.9122 245.1385 109.5503 244.996 108.4203 244.1258 107.5199 242.5293 105.4164 241.475 104.0948 241.2694 104.0569 236.341 104.0191 232.023 103.9838 227.7315 99.4817 227.56 95.431 227.4062 95.431 223.8133 95.431 217.1219 97.3529 211.9363 99.3177 206.9499 96.3365 203.2826 93.1585 199.3682 91.1029 197.7451 88.6816 192.8571 87.471 190.6969 86.399 189.8759 85.2464 189.3979 81.0167 189.5896 77.0694 186.9602 72.4336 183.8718 66.7738 180.1024 61.7925 177.6407 59.7571 177.0985 54.9674 176.9068 54.4579 176.4364 54.1326 175.0845 54.1401 173.5787 55.6989 171.3088 55.8224 169.8824 52.5688 165.0764 51.565 163.6715 48.7805 163.1066 49.3354 161.7206 49.3354 160.7937 48.9394 160.0648 48.2962 159.7142 47.479 159.6764 45.2948 160.2439 43.6276 158.0786 38.4496 151.9105 36.79 151.1615 36.4823 150.739 37.7484 148.8486 39.8796 146.0464 40.2454 144.4196 39.8342 142.6339 37.529 139.2643 38.0914 137.838 39.0826 136.1973 39.1608 134.9652 40.712 135.148 42.6919 135.1657 43.3124 134.1619 43.2745 130.6472 43.7411 129.3646 50.0113 123.4223 53.1338 122.0881 55.5097 120.8623 56.0494 119.0779 55.5601 118.1598 55.0961 116.8167 54.9498 115.8507 52.3292 113.1873 51.4187 111.8442 51.3077 110.6209 51.9257 108.4531 53.0203 106.7733 56.7279 105.7859 58.834 104.9397 59.1164 104.1881 56.3799 102.9661 50.541 102.5827 46.2785 102.9333 44.9114 102.5499 42.8861 100.1816 40.7322 98.9205 38.722 98.1108 36.7572 98.2597 35.5667 97.9356 35.2893 96.9204 32.4543 89.1381 31.5614 88.0738 30.2373 87.8102 29.1301 87.761 28.391 87.225 27.5991 86.1506 27.0291 84.7445 26.9862 82.8982 27.1047 81.3143 26.7239 80.2941 25.7478 79.2789 24.3631 78.55 23.1499 77.6874 21.0212 70.8547 20.1687 69.0173 20.1611 68.8256 20.2015 68.4662 19.9846 66.8974 20.9783 65.5367 20.9102 65.0045 18.8698 63.2806 16.002 61.5604 15.2252 61.259 15.2025 59.4254 15.3059 58.0357 15.0486 56.7847 14.5038 56.0696 14.4837 55.5059 15.6363 54.1578 14.8948 53.2725 10.6726 51.087 9.0836 49.9886 6.1579 49.7717 5.8577 49.0516 6.3117 47.5244 7.3206 45.6744 8.9071 43.8546 9.4115 42.8937 10.0269 41.2606 10.2363 40.1016 12.0119 38.4697 12.0195 38.0448 11.5276 37.4621 10.1051 37.1317 8.6549 36.9993 8.1101 36.7004 7.9108 35.8265 8.0924 32.2702 7.6359 30.1301 7.0381 28.5815 7.4165 25.0844 6.4025 24.382 4.811 22.5446 4.1326 20.9947 4.5008 20.4171 4.8388 19.3969 5.0633 18.0589 4.9977 17.1093 3.5323 16.1849 2.4427 15.2113 2.3191 14.1356 1.8853 12.8215 1.2724 11.7836 1 11.1014 1.5347 10.7004 3.6029 10.3838 6.6094 10.602 9.0635 10.6209 10.4557 9.9475 12.1758 3.6294 13.7447 1.9635 15.5632 1 19.1245 3.2422 20.6 4.0342 21.5055 4.0506 22.0477 4.6017 26.232 9.9109 28.0783 11.4772 29.1477 12.8026 29.8741 14.2819 31.1503 15.2807 32.8377 15.8217 34.8933 17.2556 36.2805 18.3729 38.616 20.6883 41.0777 21.5521 50.0365 23.2281 55.0103 24.0062 56.448 24.2319 60.2615 23.1058 64.7258 23.2596 66.3829 23.3189 72.2823 18.5923 74.0731 17.0159 77.594 16.1962 79.5714 14.3185 82.7469 12.0434 86.6235 9.9021 90.1798 7.9789 92.9088 6.8162 97.8422 4.0985 100.9269 3.1565 103.6029 3.1855 107.6107 6.3723 110.9854 9.2703 112.0296 10.5427 110.3523 11.6815 107.2223 12.7824 106.6245 13.5895 106.4051 14.6224 106.5287 15.6111 106.9499 16.4169 110.7887 18.2897 111.225 19.3187 111.2527 20.3629 110.8139 21.0149 109.9589 21.3932 107.2879 21.9178 105.0027 22.5282 104.2083 23.1272 103.5197 23.8385 103.6181 24.6267 104.3091 25.5233 108.9954 27.9749 109.525 28.8766 110.4583 30.0885 111.6008 30.8325 113.5555 31.0356 114.4887 31.5362 119.0161 36.0598 120.1233 36.3788 125.4124 35.3838 126.1463 35.4292 126.1968 36.539 126.9887 42.9668 127.6016 46.286 128.502 49.5144 129.9321 52.4604 131.627 55.2625 133.9576 56.9927 139.1558 59.0748 141.678 59.6764 148.3114 60.0938 154.864 61.0144 158.7331 61.9892 159.916 62.6765 160.8921 63.7333 164.0902 68.6516 169.1346 72.1511 179.3167 77.4061 184.2527 79.1528 200.8714 82.4606 211.9287 82.274 242.5078 75.8941 252.6723 74.3038 256.4883 74.3038 254.2159 75.5725 250.3947 76.2976 252.7 77.193 256.2513 77.3418 257.9008 77.1968 259.0913 76.3872 259.288 75.0529 259.1165 73.7313 257.4317 67.8104 256.4556 63.6312 Z"/>
</g>
</svg>