<?xml version="1.0"?>
<svg xmlns="http://www.w3.org/2000/svg" version="1.2" baseProfile="tiny" width="500" height="425" viewBox="0 0 500 425" stroke-linecap="round" stroke-linejoin="round">
<g id="ne_50m_admin_0_countries-Iraq">
<path d="M 183.7037 14.416 188.6401 13.3909 197.7915 7.2477 203.1758 1.5076 204.8827 1 209.6997 2.8835 213.1383 3.401 221.0804 1.2289 225.8029 2.3759 229.774 3.8215 231.9984 3.9161 242.6525 7.4891 245.3099 7.9319 250.8037 8.3699 258.9896 8.559 264.2694 6.2276 267.9967 3.9733 270.6192 4.0281 273.1571 4.568 275.2869 5.5309 277.0983 7.2178 277.9442 9.6239 277.6009 17.3097 278.407 19.345 279.8452 20.8006 281.6864 21.0693 283.9158 19.4022 287.8072 16.9688 292.5993 14.3165 296.1673 11.8856 298.2026 10.9799 301.4322 11.1043 304.5722 11.5273 306.3139 12.6917 306.3289 13.0699 308.0108 16.6951 312.2108 30.1759 314.6044 31.8777 317.3364 33.3159 319.2622 35.3188 320.0136 37.3317 319.7797 40.4568 319.8643 44.0995 320.9889 46.8737 322.5515 48.9936 324.0095 50.0511 326.1941 50.1481 328.8067 50.6681 330.5683 52.7681 336.1616 68.1224 336.709 70.1253 339.0578 70.7648 342.9343 70.4712 346.9004 72.0686 351.1501 74.5567 355.1461 79.2294 357.8432 79.9858 366.2531 79.2941 377.7731 80.0505 383.1724 82.4615 382.615 83.9444 378.4599 85.614 371.1448 87.5622 368.9851 90.8764 367.7659 95.1535 367.9848 97.567 369.7813 100.2168 374.9516 105.4718 375.2402 107.3777 376.1559 110.0275 377.1212 111.8389 376.0563 115.3596 371.3687 117.7781 365.2081 120.4105 352.8371 132.1346 351.9165 134.665 351.9911 141.5995 350.7669 143.58 346.8606 143.5452 343.8002 143.1844 343.6459 145.6153 341.6902 148.8524 340.5805 151.6665 345.1288 158.3148 345.94 161.838 345.2184 165.0476 341.0134 170.5763 338.5154 174.306 339.1225 175.1395 342.3969 176.6175 352.6131 188.7869 355.9024 193.0591 360.2119 191.9394 361.8242 192.014 363.0932 192.7057 363.8744 194.1439 363.8744 195.9727 362.7796 198.7071 368.2734 199.8218 370.254 202.5936 376.6734 212.0759 376.4295 214.8899 373.3542 219.3686 373.3393 222.3394 373.9812 225.0067 374.9864 225.9348 384.4364 226.313 388.4522 227.3829 398.2803 232.2397 409.4471 239.6767 418.5935 245.7702 426.3813 250.9579 434.7265 250.5797 437.0007 251.5227 439.1156 253.1425 441.5042 257.4047 446.2814 267.0487 450.3371 270.2509 456.6072 277.9741 462.4891 285.2096 458.6126 295.0477 454.8207 305.2789 454.8207 318.4809 454.8207 325.5696 462.8126 325.8732 471.6952 326.2115 471.7649 334.6787 471.8395 343.198 471.9142 352.9217 474.5217 353.3272 478.6719 355.4073 480.4485 358.5573 482.6778 360.2741 485.365 360.5553 488.0224 362.1029 490.6498 364.9194 491.6053 367.0518 490.9036 368.5024 491.4659 371.0626 493.2972 374.7326 495.5365 376.4544 499 378.5669 494.2974 379.7836 489.2216 378.853 478.3734 374.5634 474.8601 374.4465 470.2621 376.0713 470.068 377.5243 458.6126 372.7446 454.4773 371.7767 452.9994 371.6897 446.4307 371.732 437.0803 372.5879 431.5716 374.5336 427.7498 376.5987 426.023 378.6191 425.396 379.7064 422.4202 385.668 418.9717 393.319 415.3987 400.2161 408.4419 409.8999 404.5902 414.3736 396.3197 422.7014 387.4022 424.361 366.6761 422.7213 343.7056 420.9025 320.8446 419.0911 303.8358 417.74 302.527 417.2947 285.7072 405.4263 272.4007 396.046 255.7949 384.3319 238.8308 372.3689 221.6228 360.2293 209.1175 351.4138 193.9349 340.0729 180.1158 329.7472 169.2028 321.5961 155.2046 314.4626 144.2667 308.8892 128.3377 300.7729 115.5985 294.2838 104.6905 288.7253 87.9006 280.1686 82.3172 277.8447 64.9152 274.9883 48.4189 272.5674 31.3254 270.0593 19.9496 268.3898 27.4588 262.3088 25.1498 256.8498 19.6759 257.8575 14.6499 259.1588 11.6044 250.6544 15.4859 249.6044 11.898 238.5198 8.2007 227.1067 4.6426 216.0892 1 204.8105 15.4312 197.585 26.2147 192.1832 41.3028 184.6243 55.8534 177.3365 69.7123 170.3922 84.9745 162.7436 98.6294 155.9013 111.1447 153.122 113.7921 150.9573 119.4999 141.6194 124.3766 133.635 124.6055 131.7838 124.6254 120.4677 125.4813 107.1786 127.1086 100.08 129.9102 93.8049 132.4979 89.2292 132.7666 84.9397 132.4232 80.5904 129.751 74.0168 126.9692 67.1669 127.2827 60.5609 127.7953 57.0228 129.537 51.3723 132.5029 47.242 135.6926 44.6817 147.5859 42.0443 154.6373 40.4767 164.0872 33.1566 169.6905 28.8148 177.5032 21.9302 183.2508 16.8619 183.7086 15.1077 183.7037 14.416 Z"/>
</g>
</svg>