<?xml version="1.0"?>
<svg xmlns="http://www.w3.org/2000/svg" version="1.2" baseProfile="tiny" width="350" height="312" viewBox="0 0 500 446" stroke-linecap="round" stroke-linejoin="round">
<g id="ne_50m_admin_0_countries-Ireland">
<path d="M 51.4571 166.8179 50.9722 170.0784 42.5172 165.9708 38.4095 161.5008 15.2125 159.4497 24.877 154.9798 29.5922 156.3063 45.956 156.4902 50.5486 158.3629 51.4571 166.8179 Z M 363.0227 32.2563 344.9589 39.5967 342.161 42.3778 337.0724 53.5862 336.4704 56.7854 330.6573 62.6822 325.1562 69.2422 318.7578 71.7838 309.2215 73.8014 303.7984 75.8078 296.9765 74.799 288.3375 74.9607 284.0403 77.1901 284.2521 78.9012 286.8326 80.8742 294.4015 83.8839 302.7952 86.6093 301.87 88.9948 297.3722 91.698 268.7744 98.4085 260.2581 102.4604 257.3041 105.1357 260.3361 109.6168 283.143 123.049 287.0221 124.5093 290.3941 132.329 310.5034 135.595 318.7466 140.483 325.8362 141.6535 341.247 141.2299 347.4391 143.0636 350.9393 141.6702 352.9681 139.0952 365.9432 132.4627 370.2349 129.5645 367.6543 125.5237 364.8564 122.4527 372.7429 116.3385 382.3071 110.3024 387.1003 110.4807 395.2711 114.176 401.9928 119.3371 402.9069 123.3389 404.1498 126.2371 410.5147 132.4349 414.6224 134.5751 425.7026 135.818 428.2887 138.248 426.3101 147.227 427.9543 150.2088 439.5584 150.3649 451.8703 149.6403 456.173 149.9803 460.6151 148.102 467.465 146.0733 477.241 146.7755 482.0676 150.794 484.2134 154.9352 475.7974 156.4902 467.0135 155.643 462.7275 158.3629 462.4488 163.602 465.4195 170.3515 471.294 175.1392 475.9869 185.9295 479.8828 197.8959 485.9357 205.1248 487.1786 214.0981 486.2868 218.5068 487.3903 226.4324 484.8154 229.2247 486.7494 236.6653 493.8779 252.065 496.988 260.6426 499 279.3697 493.9671 286.3868 487.212 293.0471 482.7978 300.9392 479.3868 309.4611 477.3301 323.1999 462.6996 339.3074 456.474 343.3092 449.2563 345.7727 465.0294 357.0368 452.1378 362.0585 438.0814 363.6414 422.5312 360.8212 412.8389 361.1667 403.9937 364.8118 400.5102 367.0189 397.7235 365.9544 391.888 356.7135 387.6075 366.2554 378.6453 369.2929 363.3014 368.6464 337.6576 371.1879 327.7925 373.9078 323.6959 378.1604 320.6528 383.0763 316.651 385.9801 312.1253 387.5072 292.3281 391.13 288.4267 392.5791 279.2582 400.5158 267.2361 405.1028 257.2818 406.4795 248.4422 401.859 244.8083 399.0834 240.7061 397.6733 227.129 397.8907 231.4151 399.3175 234.1851 402.578 235.5283 408.8259 233.9845 414.9512 227.2851 418.0613 219.2927 418.6353 206.6854 424.9892 189.9982 426.7225 180.9858 432.5747 125.847 442.4677 122.7202 442.5848 115.1068 440.0656 106.8524 438.9508 98.637 439.7367 75.5292 445.2656 64.3375 444.1677 78.6058 430.4289 97.7787 423.4955 99.774 421.5949 93.5038 420.6641 57.0697 425.4796 44.4122 429.5818 31.7603 430.7745 37.6181 424.5098 53.9429 415.9322 62.6989 411.8914 68.0439 410.2918 74.1358 405.2533 91.3357 399.5293 35.9293 411.334 21.3768 409.8961 17.9491 406.6021 6.6125 408.146 2.3154 400.1758 19.1084 388.1036 28.8955 382.9091 40.5163 380.1056 51.7024 376.0815 55.8546 371.1601 50.5876 369.5939 17.0629 370.8424 1 369.7946 1.8695 365.8931 4.829 361.5736 21.466 354.1831 30.4672 352.9959 38.4931 353.6982 46.3295 355.5932 52.7 358.0679 71.5552 356.6466 63.6854 351.9258 62.2976 342.3338 56.2671 339.1123 63.9808 334.6646 72.8093 331.9615 87.5234 322.7652 92.7625 321.3662 121.8786 319.1312 153.2798 314.2934 184.408 307.6163 168.4454 303.8876 160.7985 298.9662 148.5145 308.9149 139.6693 312.7217 114.6888 314.756 106.7855 313.6357 95.6496 310.548 92.1884 311.724 88.9725 314.1095 72.4414 318.9919 55.0632 320.1623 75.2672 311.2057 100.9054 296.029 106.6239 291.2301 114.7556 282.8922 112.2364 279.1802 106.9583 277.0678 125.5348 259.9125 132.0782 256.7969 143.9832 256.2953 152.7113 253.5754 156.5571 253.5643 160.0127 252.5499 167.6651 247.4111 155.8604 244.1394 143.6711 242.4562 105.955 244.2398 100.9946 243.8552 96.3184 242.2779 93.2864 240.0039 91.0013 234.174 88.2368 232.8698 79.7205 232.8698 71.3323 234.6533 65.4745 234.4805 59.7227 231.9278 68.8967 225.9642 57.0697 224.5596 45.0977 225.7301 35.1267 223.9243 34.8146 220.1844 39.3347 216.4502 33.4156 212.911 32.1894 208.4354 38.4987 206.2339 45.3876 206.964 59.4384 203.6534 77.4297 202.0482 61.9967 198.7821 55.8491 195.9842 55.5537 191.7037 56.7743 188.0419 74.643 181.8442 93.6877 179.1131 92.2832 175.0333 93.6153 170.6191 74.3643 169.3427 55.353 172.4583 57.3873 164.0256 61.9409 156.4122 62.8383 151.3904 61.9298 146.0175 53.0233 148.3138 51.981 140.7394 48.1576 135.5449 34.9651 139.1231 35.305 132.2677 39.1062 127.4744 46.0062 125.3955 52.8561 126.2984 65.5693 126.2092 77.831 122.6087 95.5047 121.6835 123.6733 122.815 143.0357 132.9755 148.0352 131.1585 155.7768 124.7378 159.4107 124.03 188.5937 126.8279 206.7132 130.5231 211.5622 129.3694 208.9482 122.2465 202.7059 117.3083 210.5478 110.8375 220.073 106.4567 226.4379 104.2718 241.1297 101.5575 247.5393 98.9993 251.8086 90.6836 258.6027 83.7557 221.7227 87.3562 186.6374 79.1464 192.1998 73.3443 199.607 70.0504 212.3926 67.5312 213.6021 64.5047 220.073 61.9855 230.7686 55.3753 226.8392 46.7419 228.946 40.4271 236.6486 36.3139 239.0564 30.4059 242.4897 26.0586 258.1178 24.5036 273.1385 20.4627 278.5615 20.8529 296.3021 19.9221 302.3103 21.5496 300.9392 14.4099 311.8355 13.4791 316.0936 14.9059 317.9663 19.9667 322.9156 23.1938 324.4428 28.8063 321.1265 33.1425 315.5809 36.4811 320.6528 39.8976 312.7885 46.0731 321.277 43.4424 333.3716 37.3951 332.7418 32.4514 330.6851 26.2369 327.3187 20.63 328.8682 14.4545 335.6679 10.592 353.5366 8.6524 346.2074 1.641 352.734 1 359.8235 2.4603 370.2516 7.9223 381.1032 12.2084 392.3562 15.6026 381.5435 22.4023 368.2507 27.1175 363.0227 32.2563 Z"/>
</g>
</svg>