<?xml version="1.0"?>
<svg xmlns="http://www.w3.org/2000/svg" version="1.2" baseProfile="tiny" width="170" height="400" viewBox="0 0 170 400" stroke-linecap="round" stroke-linejoin="round">
<g id="ne_50m_admin_0_countries-israel">
<path d="M 164.4343 1 162.6651 7.1676 161.2104 11.1876 161.2006 16.451 163.3924 19.3357 166.3804 25.0807 168.2086 30.7962 164.3262 35.5386 164.6997 40.4924 165.7317 44.645 168.8966 49.5251 163.1958 58.3072 157.6229 66.3619 156.1977 71.1338 150.8803 71.7383 138.4763 76.4512 136.7955 77.8666 134.6135 80.599 134.2302 82.7122 132.461 105.294 125.7086 104.6748 117.4818 99.7456 115.8797 95.4799 113.4028 94.0252 107.535 93.4748 96.4087 91.3125 83.5034 98.7578 78.0189 111.0636 76.9083 116.8134 72.5246 128.9029 74.0776 136.3336 74.8246 145.9462 75.9254 153.8289 74.7754 158.5468 72.3084 161.0777 73.0455 162.8813 75.2472 163.5398 82.3142 161.4119 89.7546 163.5448 96.8904 167.6139 97.4604 170.2628 92.3986 171.8256 80.4467 177.9883 72.0233 185.1289 69.8315 191.7438 64.1504 205.8039 64.9269 208.6936 67.679 210.3891 87.1401 208.8902 104.8026 203.1944 118.0912 197.1447 122.3078 197.5084 119.5164 212.9987 119.5852 213.0527 117.2852 222.5474 118.1895 224.1643 121.1676 232.4205 115.5062 247.5324 109.1764 259.8184 106.9354 265.6519 100.7728 278.6112 94.4725 293.6641 91.111 304.0336 91.8678 307.7145 90.305 326.7382 91.2093 332.1343 83.818 348.6222 82.3338 356.7703 79.3655 367.8278 74.284 391.1811 67.3251 399 63.8556 390.2867 55.9335 365.3067 50.2917 348.2045 42.5957 327.1265 29.6216 301.5026 28.4225 295.3301 25.6213 286.3809 16.6672 263.0767 9.3742 246.2497 1 224.7835 11.3694 216.2668 11.5562 209.2391 29.2088 192.8446 29.0614 191.2327 24.3534 186.8834 25.0217 186.1364 44.591 155.5981 57.2112 125.34 69.0943 83.297 77.5472 61.9045 84.7124 47.7559 87.8871 36.0301 99.436 35.1946 108.0461 36.4478 118.3468 36.836 126.5932 32.4278 130.5542 19.2424 135.2622 17.1292 137.6408 20.2351 140.0882 16.7704 150.8803 10.9763 156.2173 7.2364 161.5741 2.6168 164.4343 1 Z"/>
</g>
</svg>