<?xml version="1.0"?>
<svg xmlns="http://www.w3.org/2000/svg" version="1.2" baseProfile="tiny" width="600" height="527" viewBox="300 0 600 527" stroke-linecap="round" stroke-linejoin="round">
<g id="ne_50m_admin_0_countries-Italy">
<path d="M 17.5198 49.5627 18.9757 50.4854 22.0516 51.4677 30.4058 50.1266 35.598 48.7793 39.2522 47.3623 41.5201 47.6125 49.7226 49.7288 52.4294 48.6522 58.3434 45.7772 59.2293 44.2659 63.8883 39.6869 63.9744 38.5673 62.055 35.6944 62.6497 35.0628 68.3709 32.116 71.1679 29.5035 74.1987 27.7523 76.3765 27.7134 76.9753 28.308 77.2337 29.5302 77.045 34.5665 77.8816 36.1188 82.3766 39.7341 85.5797 41.7929 93.007 43.2058 93.3515 43.8825 91.305 46.6057 95.804 49.86 96.6079 52.2428 98.6831 53.5839 101.6237 52.9257 102.5875 51.6707 101.4309 49.4642 100.582 47.1552 100.7542 45.8203 101.5662 44.2844 103.6087 42.1435 109.1699 37.2385 111.1713 34.4025 111.5363 30.0141 111.5527 26.4891 113.4106 25.634 117.397 26.2595 118.5864 26.1898 119.1318 28.3532 120.8297 31.7982 122.8311 33.5863 124.9679 34.0108 127.4819 34.019 133.7117 31.913 137.7719 31.0005 140.0727 31.2507 141.4343 32.684 144.3462 36.4469 146.0072 36.8714 148.0127 36.4408 148.7222 35.7989 148.0783 34.3512 147.2293 31.2076 146.0646 28.7756 144.5389 27.6354 144.2313 26.1528 145.1951 23.4829 146.2779 21.2519 148.3982 20.6449 150.8343 20.3619 154.0579 22.7242 157.872 23.4706 160.7101 23.3455 161.2063 21.9675 161.03 20.4562 159.3362 18.5164 159.6766 15.584 161.6411 10.1211 162.7566 10.5333 166.9727 10.5928 171.5701 10.9004 174.5312 13.1294 177.4349 13.8881 181.5689 14.1301 184.3373 13.8143 185.6743 12.9756 187.286 10.3652 190.243 7.1293 194.8856 5.4703 202.8133 5.1607 206.7751 4.5578 210.8886 4.5927 213.9933 5.093 217.1963 5.0336 225.3373 2.782 233.7325 1 234.8972 1.2994 235.0695 1.892 233.5684 3.2659 232.1084 5.0889 233.0886 7.1682 237.8706 11.3413 240.479 14.5361 242.9233 16.9374 246.7416 18.2026 251.7574 18.9757 256.0063 19.2546 260.4479 20.1609 275.7004 22.3961 283.3779 23.0154 289.1934 23.1138 298.011 24.5964 297.158 27.0059 295.3699 27.6088 292.2693 29.0134 288.7095 30.941 285.3916 33.1106 284.4975 35.4585 285.3957 36.9985 286.2938 37.5297 287.5037 37.058 289.2672 37.3492 291.4901 38.1899 295.1771 39.0102 295.2796 39.8202 294.5086 40.8557 291.6295 42.7034 289.0417 44.7847 288.7833 46.0582 289.095 46.9871 289.9972 47.5469 293.836 47.2947 294.3979 48.0555 292.5359 53.4117 293.1142 54.3262 296.4772 55.1813 298.9215 56.4712 303.519 59.867 305.3481 62.621 304.0891 63.5438 301.2018 64.001 298.8436 63.7652 301.5094 62.1001 295.0007 56.0652 292.0561 56.0754 288.1476 58.6264 277.2793 56.0467 275.1959 57.0884 273.6579 59.1329 269.8848 61.6695 264.5409 62.7912 258.5859 65.5841 252.3069 67.5609 247.5126 69.0538 244.7648 68.7913 249.1326 65.5575 247.2706 65.5 241.4756 67.7803 238.1372 69.7099 237.0668 72.952 236.0948 78.3 238.6416 79.719 243.0997 86.7711 248.5994 89.7875 247.529 92.6666 246.0854 94.9428 242.7634 96.9114 240.0156 95.4513 238.33 95.4882 237.0463 100.096 239.425 112.4037 243.2596 121.0368 247.0615 124.8018 255.6412 130.6604 264.7091 133.7486 281.0155 143.6223 289.9562 146.7474 292.3062 148.4433 297.7281 156.0613 302.4076 164.8605 307.4562 178.6694 311.0489 185.4733 318.2834 193.1631 333.3185 204.1729 346.9838 212.2256 359.6935 217.2025 369.6144 218.076 393.0939 216.9748 397.187 217.4506 401.5179 218.7917 402.5473 222.2429 400.956 224.5744 396.0181 226.9983 390.9818 230.3551 390.424 234.9239 395.1323 238.1433 417.7793 246.6842 440.943 253.8182 448.1571 257.4601 456.5154 263.1239 476.7057 270.9101 480.1138 274.6997 492.3806 282.8508 497.9419 289.1421 499 294.0226 496.3424 298.9769 495.1202 302.4732 493.0327 305.9264 487.8077 304.6181 481.8692 301.0726 472.9285 286.6588 456.5974 285.1988 453.2221 284.1366 447.4229 281.6656 447.0743 280.0354 445.643 277.997 444.1584 277.3101 437.9122 276.861 433.5854 279.1885 428.4958 284.7149 422.7253 292.663 416.8606 304.3187 416.5202 309.0269 419.7068 313.5896 429.2217 316.1344 436.567 320.1966 441.4105 324.4373 441.7632 334.6863 443.9328 340.5018 440.7379 343.8095 434.5615 342.9503 426.3303 345.0542 420.5025 348.815 418.0786 352.3995 418.7184 361.6908 417.5168 365.2384 406.464 371.9378 400.6566 378.7909 399.213 381.6351 396.9901 384.8607 383.0336 384.9756 379.728 380.981 379.6132 375.0526 382.0124 371.4025 387.1431 369.6944 390.6045 362.1133 389.5177 356.6361 391.5355 354.2081 393.4426 352.4918 397.3551 351.4911 402.8672 350.5334 403.4208 342.8949 399.1146 339.4212 397.6053 334.5653 395.5957 325.5713 388.4883 314.1104 384.6782 303.882 381.7007 298.8374 377.1812 296.2065 369.0238 296.2352 364.9759 295.4847 350.5437 288.3875 349.5389 287.3068 349.6291 285.4244 352.0242 282.572 350.4084 278.7148 348.6981 275.0729 345.8683 271.9682 342.7678 270.3544 336.2796 271.3469 333.9993 272.1179 329.9022 271.8534 326.6827 273.2335 324.8864 273.2765 329.9514 267.8219 328.5898 266.5362 323.5822 264.2969 316.7906 263.9585 314.9081 263.6879 313.7967 265.0823 312.472 264.3133 312.6114 261.8751 304.7207 250.9699 299.4137 246.5324 296.7397 245.7409 291.9125 246.678 283.8126 244.732 278.9813 244.2972 276.3155 244.7668 272.3373 246.1879 270.3359 245.2487 269.6305 243.7907 262.2811 239.263 253.1108 236.7038 235.254 222.3003 229.7789 216.9154 218.5128 210.9871 211.3849 202.356 205.5529 199.1899 197.0634 196.6553 195.1071 196.9732 192.552 197.9226 190.5506 198.0579 188.9552 196.9362 190.5752 195.7817 192.3798 195.2568 191.6662 191.9573 182.0078 183.4083 176.3522 180.6544 174.7568 178.9585 173.5797 176.6372 172.374 175.1095 169.6959 174.2339 167.4115 174.3836 164.2453 173.7992 164.3479 169.7 164.9795 166.5502 164.4955 163.8762 161.4196 156.8467 156.0839 150.8876 152.9465 136.6502 150.5226 132.6433 144.6251 129.6002 131.3207 126.19 112.779 117.032 108.8582 116.8741 97.7029 113.3142 90.7923 112.7031 81.8106 115.9021 70.9096 124.7054 62.0591 133.8429 58.8396 135.6147 47.43 138.7295 37.3451 140.2183 37.2344 137.8744 36.8776 136.113 38.5837 134.1731 41.3971 131.8907 43.9932 129.026 45.0718 126.9467 44.5633 125.5666 43.3944 123.516 41.8072 123.3684 32.2104 125.0889 30.0121 124.6439 22.9088 121.9678 15.26 118.6786 12.4424 116.3389 11.3761 113.9745 12.1759 112.4571 11.5361 110.9827 10.0391 108.9915 11.3925 106.7297 13.7753 103.9122 14.9688 102.001 16.9661 101.5047 17.9217 100.34 16.3263 95.6953 15.4937 94.951 14.1075 94.3747 11.9872 94.3091 8.2797 93.3494 5.6385 91.7438 5.0725 89.5763 3.674 87.4929 1.2953 85.5797 1 83.488 3.7109 82.3827 7.4102 82.3397 10.0104 82.7457 15.8465 79.3889 17.9955 79.0936 19.9231 78.3656 21.539 73.7845 22.7816 72.4106 23.0769 71.6047 21.9286 70.6491 17.2081 67.4235 15.0549 64.0605 11.655 60.2894 8.497 58.6243 7.8532 57.3283 7.7793 55.6817 8.4232 54.234 14.1485 51.9742 17.5198 49.5627 Z M 245.0601 218.6994 245.0273 218.3713 244.6992 218.4021 244.572 218.601 244.6992 218.7343 245.0601 218.6994 Z M 246.9958 134.5791 248.2303 132.4136 247.771 130.8695 245.1421 131.1771 243.2842 133.1867 244.5228 134.8867 246.9958 134.5791 Z M 159.2172 178.3925 160.6117 180.0289 160.7757 180.9784 159.8406 182.0529 160.2343 184.4808 156.7196 182.4671 151.4003 183.4842 148.1357 183.2689 147.2334 181.4623 147.9799 180.4021 153.049 180.1725 154.6239 179.6557 157.6998 179.8977 159.2172 178.3925 Z M 308.018 268.7918 306.1438 269.1548 305.0529 268.6606 304.4582 268.0167 305.2005 266.4316 309.0187 267.3728 308.9654 268.2648 308.018 268.7918 Z M 228.77 434.6189 226.7563 435.0823 224.1233 433.6387 223.9469 431.6127 224.435 431.0057 227.6339 431.9346 228.6346 433.8069 228.77 434.6189 Z M 376.8203 373.1661 373.9781 377.9399 372.5837 379.7752 362.4537 391.4555 361.293 394.1541 360.5794 397.0865 359.5295 399.6559 358.1105 402.0777 356.7858 405.1557 357.0441 408.6458 357.5199 410.3581 358.7379 411.4798 360.7393 412.5358 362.2773 414.1538 359.9191 415.6302 362.5193 418.5892 364.7298 420.3446 365.0251 422.0978 364.9759 423.8573 360.3825 427.1526 358.5862 428.9674 357.4707 431.1657 356.9867 433.4336 357.4912 435.4822 357.3353 437.5246 352.7091 437.2703 347.9722 436.0256 343.1984 436.5772 336.4109 434.217 333.9378 433.7905 331.6862 432.8697 326.0347 425.5552 321.4906 422.4649 316.6142 420.0616 311.6312 419.916 306.64 420.1887 302.2353 418.7082 293.27 413.7416 283.7716 409.7695 279.7401 407.1817 277.8986 405.4407 275.7496 404.2862 270.3072 403.142 265.4268 400.4557 263.2039 400.2588 258.4219 400.5869 255.9734 400.4003 253.5045 399.455 248.7389 396.297 245.6999 391.9189 244.9083 389.9873 247.0615 384.992 249.6165 380.1956 251.8845 378.8504 254.5175 377.8866 256.1129 376.4676 257.4581 374.7307 262.3427 379.7424 264.5286 380.9543 266.7433 380.6836 270.6722 378.8873 271.0003 376.9208 275.3312 374.4252 280.8392 374.378 283.382 374.8373 284.719 377.093 286.8188 377.7882 289.2467 378.0876 297.2359 382.3877 299.4752 383.089 301.7432 383.2079 307.9483 381.4034 312.7099 380.7164 322.6922 381.711 328.0895 380.6303 331.8585 380.5073 337.35 378.8463 341.5702 376.0862 343.7726 375.4053 346.1349 375.2085 351.8479 375.3807 357.5937 376.0041 360.0011 375.3602 362.0148 373.5557 364.3484 372.7436 366.9158 373.2912 373.5516 370.2029 376.4758 369.9917 379.2605 371.1811 376.8203 373.1661 Z M 127.1702 261.383 129.2701 264.0672 133.9865 275.0667 134.4458 277.4454 133.5025 279.8836 132.3009 281.6143 127.6296 287.153 128.3227 291.7382 130.0575 294.5701 130.3077 297.7096 129.4382 301.6017 126.5386 325.5385 125.136 329.773 124.2502 333.4498 121.0512 334.5612 116.9254 333.3862 111.7209 331.3171 109.3176 331.4422 106.8978 332.1497 104.9005 331.5488 102.9935 330.3779 101.5786 338.605 99.2244 341.9455 95.6441 344.0802 92.277 344.2155 88.8073 343.4998 85.8667 343.506 83.6357 341.9209 81.868 339.1484 79.0505 335.7813 76.1919 331.7826 75.8802 328.1674 75.3922 320.1966 76.2124 318.4557 77.4059 316.7865 77.9924 313.2205 77.5782 310.1138 78.4148 309.0044 80.0799 310.1138 81.3308 309.6975 81.2529 308.098 81.6343 305.1779 79.4565 302.7316 75.7572 301.9011 75.4004 299.3419 75.79 296.8442 77.7422 295.1668 78.4025 292.9358 78.423 286.1339 75.8146 283.628 74.8139 279.8344 73.4646 277.4044 71.0408 274.9642 68.3012 272.9771 66.6074 271.0598 66.226 266.044 67.1897 261.8587 68.0469 260.0685 68.9287 260.333 71.656 262.4124 73.8871 262.882 78.3041 263.3864 82.6473 262.72 87.983 260.8272 93.1177 258.5326 100.5491 251.7943 105.1302 250.4265 107.4761 248.6527 108.2759 246.2576 110.2198 245.6322 112.5124 247.9596 115.3587 248.2016 119.7429 250.123 121.6336 251.9624 123.2536 254.1751 124.8038 255.147 126.4689 255.7028 126.715 256.2236 125.3944 256.7445 123.881 259.279 124.7341 260.0091 127.1702 261.383 Z M 78.7429 337.5859 76.3314 341.7384 73.7886 338.7978 73.6902 336.2735 74.0347 335.5537 77.1352 336.6159 78.7429 337.5859 Z M 70.643 254.7554 69.2445 256.6748 67.2677 256.5353 68.0387 255.1142 69.8596 252.2659 72.0784 251.3103 73.0668 252.1613 72.0251 253.7936 70.643 254.7554 Z"/>
</g>
</svg>