<?xml version="1.0"?>
<svg xmlns="http://www.w3.org/2000/svg" version="1.2" baseProfile="tiny" width="383" height="400" viewBox="0 0 383 400" stroke-linecap="round" stroke-linejoin="round">
<g id="ne_50m_admin_0_countries-ivory coast">
<path d="M 345.5456 350.4736 343.841 352.9498 335.5738 351.3641 337.5408 349.2935 345.5456 350.4736 Z M 39.2801 36.0721 41.1342 36.0111 45.9341 34.6205 50.2979 31.446 54.3659 24.8439 59.858 19.5256 66.0424 19.9129 67.8721 18.9401 70.0494 18.7541 72.6354 22.2427 75.2427 24.9049 77.0998 24.9781 78.466 30.0219 89.7613 32.1261 94.5977 33.5105 98.6657 37.179 100.0807 37.2736 101.8067 36.499 103.1363 35.2152 103.4077 33.8094 101.6634 30.4915 102.4288 27.5122 104.2493 24.8408 107.1555 24.6701 111.5376 23.926 116.5601 23.9169 120.3049 24.3956 121.7991 21.7273 120.3841 14.2439 120.7501 10.121 121.36 6.6385 122.7475 5.2235 128.3402 9.5965 133.4603 11.17 137.1258 11.3011 138.1504 10.4747 136.583 5.7053 137.0038 4.266 138.3608 3.4335 140.7669 2.9517 147.2928 1 147.9728 1.3842 149.1956 8.9043 148.6284 11.3652 150.0007 16.4761 151.6932 21.2211 151.5712 23.1484 150.1745 26.0881 148.5309 28.7838 148.7138 29.8816 151.3059 31.7235 156.2826 33.6112 161.4424 34.0533 164.3089 31.2874 167.3065 29.04 169.3741 27.0334 170.0846 24.0663 173.3536 21.892 182.6942 19.1658 191.2937 18.7449 193.3582 19.614 197.2463 23.7644 202.1804 26.6095 209.673 26.2558 215.1071 27.9452 219.8186 31.1319 222.9748 38.2067 226.4268 43.3177 227.9332 50.5876 233.3796 54.4056 237.6428 56.1407 243.4307 61.4255 249.4229 64.109 255.6195 63.49 258.5134 66.2528 263.1395 68.2045 267.7595 68.3478 271.8214 62.2549 277.1946 59.8519 290.7892 54.988 296.1501 52.7832 301.5843 51.3927 314.6666 50.9475 326.8371 52.4478 332.8689 53.5761 337.001 52.7497 340.9257 55.6406 344.9784 61.703 348.2993 63.6516 351.6934 65.7466 354.2001 70.5312 357.152 75.2854 358.759 77.3895 362.4062 82.0796 365.538 82.1497 368.6241 80.1249 369.9567 78.6123 370.5636 81.7106 369.3377 86.7301 369.5847 89.8344 371.3077 91.0237 370.3715 95.0216 366.7822 101.828 366.767 105.8564 370.3288 107.1067 372.869 111.3851 374.3876 118.6917 375.9185 121.1374 376.0679 122.6408 378.6356 140.3369 381.8223 158.091 379.7974 160.4086 377.0193 161.0856 375.211 161.912 374.6956 163.5648 375.8819 165.9922 375.1073 168.2122 371.6431 169.74 364.0926 175.3785 363.5681 177.6229 361.5707 182.4289 359.8996 185.3625 357.4356 190.7997 353.517 205.1933 352.0654 217.1167 351.8489 220.7853 350.3272 223.3529 348.6073 227.0489 340.4134 237.2677 336.2356 245.6202 336.7753 249.2491 336.9644 252.8933 335.7294 255.5219 335.955 262.5815 336.9705 268.4883 338.4343 274.2854 344.3685 290.6855 347.4546 300.639 349.3819 308.6652 351.0683 314.0628 352.6601 316.2523 353.3188 318.329 362.1287 319.8172 363.8486 321.0095 366.2638 331.4753 365.8308 336.1959 364.1017 337.989 364.1597 341.993 363.751 346.9637 362.4733 348.9306 357.5362 349.1806 354.1879 351.0652 349.7661 350.3181 349.3453 349.0861 346.9667 348.6378 340.4256 345.8079 341.5051 336.7357 338.4739 336.3484 336.1227 337.5408 331.4753 348.4457 329.2553 350.3272 296.5893 344.704 289.4962 340.1786 281.0034 339.1448 266.1951 339.6632 253.9819 341.008 250.4811 343.7556 281.3144 342.1485 284.6323 342.4596 286.1844 344.1154 247.1938 347.7108 232.3184 349.8485 227.9211 349.2599 224.5758 345.7713 208.4196 345.3566 205.1048 346.4971 203.1013 349.0708 209.4564 348.5128 219.5045 348.3603 222.1941 350.3272 190.7845 352.901 168.9868 357.8046 159.7468 361.4334 129.3496 373.3661 110.8179 379.0046 105.9631 381.0751 97.5283 386.921 86.6965 390.5895 74.5382 397.457 67.1128 399 65.4508 396.8074 65.2587 385.198 64.2249 369.6335 64.6091 363.687 65.5911 358.0851 65.6185 353.4499 69.3114 351.7117 70.2873 349.757 70.8453 343.7221 74.3034 338.2208 74.3614 328.6424 75.389 326.6419 76.1728 324.1017 74.6846 317.8106 72.7695 305.9451 71.8303 305.1705 70.9947 305.6828 69.0522 305.8993 61.4194 301.7978 55.5339 301.0903 51.4018 297.5895 51.1274 293.6038 49.1086 291.2649 47.7181 286.6571 45.6505 281.3663 39.8443 278.1643 34.3888 277.3989 30.5129 278.0759 25.9631 277.8777 20.7637 276.109 17.1562 274.0963 13.756 270.2296 10.5967 267.1496 8.0717 267.5308 4.9979 266.8019 1.9789 265.3992 1 264.3197 13.6371 251.9967 17.9246 245.974 18.3912 242.2994 18.4278 238.5759 19.8123 234.7702 20.169 228.9579 13.1674 207.8616 11.3926 201.3296 9.5111 199.4175 8.3157 198.7009 11.8409 195.993 16.7262 196.6974 24.2127 198.8107 25.8319 196.7188 31.4857 186.07 31.3362 182.1178 30.7721 179.3886 34.0838 172.1003 36.7125 169.2704 38.0786 166.2239 37.6487 162.0767 35.6604 160.5275 33.0409 160.8142 29.9121 159.7956 25.1336 157.4079 22.7001 155.2824 23.4472 145.6521 23.8955 142.6698 25.5819 140.9468 28.2166 140.4833 35.6269 140.1936 41.6221 141.2914 46.8916 141.9287 49.7124 141.9196 51.9721 144.7739 54.9972 147.6922 57.6746 147.6709 58.6047 145.4997 57.9948 135.9975 56.2078 130.9689 52.1825 126.1233 41.7563 121.9882 41.5063 116.2033 42.5553 109.9366 44.8088 107.6068 52.5606 103.6242 51.1975 101.4896 48.7244 99.2055 43.8117 96.9001 44.94 89.3953 45.1778 82.7017 41.0244 83.4519 36.7582 83.8392 33.1568 81.7777 30.1408 77.7158 29.5736 66.5303 29.5858 53.6066 29.0034 47.8949 30.1622 44.8424 33.8338 42.0308 37.8499 38.3958 39.2801 36.0721 Z"/>
</g>
</svg>