<?xml version="1.0"?>
<svg xmlns="http://www.w3.org/2000/svg" version="1.2" baseProfile="tiny" width="500" height="191" viewBox="0 0 500 191" stroke-linecap="round" stroke-linejoin="round">
<g id="ne_50m_admin_0_countries-Jamaica">
<path d="M 253.1985 16.1584 281.7219 24.5658 311.1477 28.9066 323.873 29.1579 335.8443 31.8309 362.7342 51.9811 384.381 63.0044 466.4671 87.644 493.8596 130.1149 499 143.3999 477.7874 151.2819 451.1031 154.0006 425.584 154.4689 402.0067 146.3357 391.7146 140.0987 367.1664 137.1058 373.2549 131.3829 362.3687 128.7099 348.7067 129.3153 338.643 145.6046 327.437 158.5469 305.9616 157.3018 297.6913 146.2671 286.4167 151.2247 277.3126 159.4151 266.4149 189.8576 248.892 174.7448 229.8154 162.0767 205.8498 156.8449 157.4503 155.9882 134.6613 151.853 115.6533 126.094 108.1941 118.7147 89.0833 112.0436 70.0182 82.5036 63.1986 78.4484 11.6235 72.1543 1 55.9792 4.1642 41.3463 21.3673 23.4463 29.729 18.3402 58.3095 19.1056 85.5307 13.7253 97.5363 6.0376 110.0332 1 208.717 13.9081 231.4946 14.0451 253.1985 16.1584 Z"/>
</g>
</svg>