<?xml version="1.0"?>
<svg xmlns="http://www.w3.org/2000/svg" version="1.2" baseProfile="tiny" width="500" height="480" viewBox="0 0 500 480" stroke-linecap="round" stroke-linejoin="round">
<g id="ne_50m_admin_0_countries-Japan">
<path d="M 218.8455 210.1895 217.8159 211.0292 215.895 210.7537 214.7864 209.5429 215.1508 208.1764 217.1639 207.1259 219.087 209.2334 218.8455 210.1895 Z M 330.6496 173.8113 328.5136 173.8683 327.9779 173.6477 329.2731 173.0901 329.3873 172.1549 330.16 170.4975 330.1469 170.0189 328.4499 169.9344 328.5355 168.0486 329.8022 166.1903 333.2861 163.2607 334.2367 162.7108 334.3816 163.9906 333.319 167.0179 333.1127 168.1112 335.8458 168.3395 334.0874 171.9727 330.6496 173.8113 Z M 253.9658 253.2545 251.529 255.1699 249.4215 255.036 248.3612 254.1798 248.01 253.1195 250.0187 251.4555 251.7507 249.1065 253.3204 248.0627 254.5937 247.482 255.5815 247.5018 253.3511 250.7782 253.9658 253.2545 Z M 157.0765 343.739 154.5015 344.2242 153.0943 343.7006 151.8013 340.9246 154.2534 339.186 157.5441 340.9071 158.2115 341.4032 157.0765 343.739 Z M 164.6525 340.7282 162.6833 340.9664 162.6416 339.6645 164.2069 336.7229 164.3737 334.5627 165.8314 331.8405 166.4526 331.2423 166.9137 331.0272 167.4142 331.8724 166.8478 335.2081 165.3901 337.7371 164.6525 340.7282 Z M 144.9322 299.528 143.1562 300.3304 142.9279 299.562 142.1815 299.2119 143.4657 298.1307 143.4218 297.6401 142.6118 296.909 143.5557 294.1517 143.2967 292.9652 146.8487 292.525 147.4985 293.6402 147.5621 297.0352 144.9322 299.528 Z M 126.8803 256.958 125.4182 257.8701 124.7882 256.4717 125.427 252.5235 128.1755 253.3303 128.1294 254.5432 126.8803 256.958 Z M 129.2666 251.7815 128.81 252.8638 127.2842 252.0976 126.5927 251.4039 128.0021 248.0001 127.8374 246.7093 127.9231 246.0803 130.7374 244.2977 131.2182 244.6402 131.3916 245.1319 131.1435 245.8948 131.284 247.583 129.1722 250.3699 129.2666 251.7815 Z M 113.0741 287.0697 113.9456 287.6767 115.2255 287.3288 116.2375 287.2475 116.9685 287.5417 117.8862 289.1059 118.2264 290.0312 116.58 290.1618 115.8863 290.378 114.9884 291.5152 113.6954 291.097 112.8941 290.5646 112.7097 289.8094 113.0741 287.0697 Z M 151.6432 295.166 149.6543 295.2647 148.8332 295.0024 148.5105 294.2878 151.2919 292.84 153.4499 293.098 152.4862 294.402 151.6432 295.166 Z M 391.9904 4.9713 391.1189 6.3993 389.9532 4.2765 389.7183 1.9901 390.3923 2.0043 391.6304 2.3479 391.9268 3.462 391.9904 4.9713 Z M 396.9957 9.7713 395.4349 9.9315 393.6216 8.9942 393.3976 7.8186 394.7104 6.8823 396.0166 7.228 397.325 8.4398 397.7553 9.071 396.9957 9.7713 Z M 356.2138 78.0723 355.7001 78.1931 355.1644 78.0032 354.6463 76.304 355.092 75.4073 356.5409 74.7805 357.948 74.606 356.7494 77.7266 356.2138 78.0723 Z M 240.906 248.8595 240.4867 249.3063 240.085 249.1899 238.658 250.2217 238.3485 249.2327 237.2289 248.5742 237.0906 248.0594 240.3242 247.7191 241.3648 247.9891 240.906 248.8595 Z M 355.6562 243.3999 355.4147 244.4558 354.216 244.2231 353.6431 243.5349 353.7133 242.3 354.9756 242.2901 355.6562 243.3999 Z M 122.3273 285.8019 121.7653 286.0445 121.0386 284.0183 120.5359 283.2938 121.3833 282.9063 123.0649 279.2314 123.3766 280.6902 124.0308 282.1369 124.6872 282.3663 124.0484 283.4211 123.1066 283.8108 122.3273 285.8019 Z M 131.6529 277.1975 130.0701 278.2589 128.9241 278.2545 129.9713 277.0164 130.1096 276.4258 130.9811 274.7651 132.6912 274.1691 133.4091 274.0955 132.0195 275.8199 131.6529 277.1975 Z M 138.4846 265.378 136.9303 266.311 135.7668 265.5833 136.3332 263.5779 136.7218 262.9149 138.0499 263.5713 138.4846 265.378 Z M 201.0395 257.1424 200.3875 258.0436 198.3985 257.7702 199.1932 256.9898 199.8057 256.0436 200.2536 255.8505 200.629 256.879 201.0395 257.1424 Z M 194.0167 260.9644 195.1078 261.7865 197.7136 261.4506 198.0385 261.6833 197.2767 262.4308 196.1286 263.1707 194.0453 262.6207 192.7303 262.59 192.5459 261.3552 192.7127 260.9051 194.0167 260.9644 Z M 136.7372 312.399 136.0369 312.792 136.4869 311.0248 138.2958 309.4771 138.4385 310.4803 136.7372 312.399 Z M 417.0651 425.7112 416.6546 425.7299 415.243 423.3502 415.6513 423.2393 416.4702 423.6103 417.379 424.9857 417.0651 425.7112 Z M 453.845 32.3038 456.6594 32.4179 457.9173 32.3115 460.0731 32.6506 468.6259 36.0676 471.2076 36.5023 473.8727 36.5528 475.7453 36.2773 477.3939 35.3399 482.5573 31.1984 487.9796 27.428 488.5811 27.574 488.5833 28.6102 488.186 29.7682 485.7865 33.2214 483.1149 37.8699 482.5463 40.2266 483.4134 42.5207 485.0862 44.4152 486.41 47.0079 487.9357 50.6125 490.0783 51.0691 491.2418 51.1251 493.3866 50.045 495.4173 48.6719 497.1625 48.505 499 48.7377 496.5852 49.6927 494.3065 50.865 492.3548 53.0822 491.6282 53.4971 489.3736 53.361 488.085 53.4412 485.4463 54.3676 483.1324 55.4158 480.9218 56.7023 478.5069 57.3927 475.9384 57.5551 471.9737 58.6067 469.3987 58.6813 464.5734 57.7637 462.2288 58.0063 457.105 60.0797 452.4466 63.0752 448.3744 66.434 444.9695 70.4766 443.6018 72.5841 442.7807 74.9397 442.6688 76.4983 442.3658 77.9977 441.5799 79.0427 440.6316 79.8889 437.826 79.3939 433.2093 77.2326 424.2591 74.0945 414.8105 69.289 409.4935 66.8763 399.4962 67.5986 390.0432 72.2021 389.1958 71.8103 385.5802 68.6534 383.8305 67.4032 381.7406 67.0498 380.1864 67.0904 378.676 67.3187 376.54 68.9421 375.7563 70.1122 375.1482 71.4393 374.9616 72.3789 375.2184 73.2987 377.2403 75.3809 379.7341 76.9308 380.8625 77.2261 383.2576 77.1174 384.3706 77.2776 388.3836 80.3928 392.7764 83.3092 393.7489 84.2751 392.1244 85.2927 390.344 85.7965 388.276 85.6648 386.2278 85.2795 382.7087 84.0391 381.205 85.0962 378.8714 87.2629 377.5783 89.6185 376.529 90.6997 373.9473 92.1222 371.2164 92.8587 369.7895 92.6151 368.6984 91.7227 368.0815 90.6536 367.7698 89.4154 368.3537 86.7328 369.7675 84.3169 370.3119 81.8504 369.1528 78.3797 368.4174 77.6552 365.5174 75.6213 364.1761 73.6422 363.849 71.1802 364.0202 69.8191 364.7315 66.816 365.4274 65.299 366.7643 64.7996 368.2132 64.4999 370.4524 63.4166 372.9134 62.0105 375.2623 60.4068 377.5915 58.4453 378.8099 56.2917 376.81 53.6519 376.4017 52.0834 376.6958 50.5994 378.8209 49.8112 381.0162 50.4062 385.4243 52.5806 386.2893 52.7946 389.3166 52.8956 393.4613 53.3687 395.8629 53.2535 397.0155 52.9253 398.7651 51.1273 399.6235 48.8376 399.3096 45.8926 399.2942 42.9674 400.3984 40.5844 403.8582 36.7547 404.8483 34.4969 405.2105 29.0075 406.4574 26.5894 407.4607 24.0868 407.9393 18.8302 406.5189 13.7788 405.0963 11.3025 403.4609 8.9481 403.7023 6.7001 405.0239 4.6167 405.0568 3.9889 405.3708 3.4335 407.847 3.0372 409.0018 2.5905 410.1082 1.5894 411.4342 1 412.4045 1.585 413.2036 2.6091 416.6919 5.1337 422.1867 9.644 428.6628 16.5185 432.7241 19.8696 437.0027 22.909 441.8016 26.0176 446.8223 28.6947 450.0296 29.9581 452.3786 31.9745 453.845 32.3038 Z M 169.4821 268.6655 172.5073 269.3361 173.7849 269.3779 174.9704 269.0738 176.7705 268.1935 178.6629 267.5459 180.013 267.8741 181.2094 268.66 181.8373 269.762 181.5321 270.9189 179.3939 273.4029 177.6377 276.0504 181.677 276.5444 185.7119 276.4884 184.7702 278.1283 184.6165 279.5574 185.8502 280.238 186.8974 281.1534 186.6252 281.9832 186.0237 282.8032 188.2299 284.0314 188.0851 284.8558 187.5121 285.7196 182.0151 291.3648 180.4015 294.2242 179.2775 297.3744 178.2501 299.6773 177.4972 302.0669 176.9242 304.6474 175.9034 307.3103 176.2415 309.6725 175.8968 312.0917 173.1373 318.0738 171.1703 317.963 168.6984 317.2385 167.1485 317.3505 166.3473 318.6808 167.7698 321.4129 163.3595 324.652 158.4925 326.8309 158.4574 325.8386 158.914 325.056 159.6165 324.427 160.1258 323.6685 160.8305 321.122 160.4814 318.5568 159.015 315.3451 158.9074 314.1904 159.9238 313.7239 160.6066 313.591 160.9776 313.1421 160.9908 312.0807 160.5275 311.2937 159.1401 311.0379 157.8032 311.0215 156.868 312.2124 155.5772 314.5131 154.9493 316.8379 155.2259 318.1101 155.7989 319.2494 157.5661 321.1582 157.048 322.2811 156.3126 323.1581 150.0604 321.1714 148.7103 321.0298 147.5885 320.6094 146.3877 317.9882 148.9342 317.3571 149.6894 317.0399 149.9704 316.2056 150.315 313.6503 149.123 311.5176 148.1176 310.7591 147.3009 309.8876 147.819 308.0864 147.4787 305.8186 147.448 302.6508 147.8892 302.1053 150.2514 301.4653 151.9549 299.7684 153.4631 297.8365 155.6738 294.4393 157.4761 290.771 155.7396 290.6107 154.2688 289.9236 155.8779 288.1882 155.3796 285.9973 152.9779 283.3048 151.6586 280.1304 149.5357 278.732 148.4161 278.2183 147.0528 278.9625 145.9288 279.8549 146.9694 281.9196 146.8487 283.7449 147.0111 285.5539 148.0715 285.6548 149.3733 285.2048 150.416 285.5242 151.0241 286.4748 151.1888 287.6998 150.73 288.9138 149.7684 289.5175 148.5961 289.4692 147.4151 288.8139 146.4952 287.8798 144.2934 287.3639 141.9707 288.467 139.7623 290.715 137.8743 291.8555 138.7634 290.1859 139.1827 288.3858 138.2651 287.1202 136.1093 285.016 135.6088 283.7987 135.4858 282.3257 135.8634 280.8636 138.0807 282.5364 139.2178 284.6242 140.8467 285.5407 142.8906 285.5484 141.3209 282.4816 140.7567 281.7088 138.5527 280.3324 135.5473 278.0163 133.6374 276.9 134.3136 274.4863 135.4332 274.0066 136.3815 274.123 139.5735 274.978 139.8742 273.7761 139.4044 273.134 139.1586 272.3876 141.2595 271.3426 144.6973 270.4821 145.402 270.0792 146.0123 269.2143 146.8531 268.7621 149.2613 268.7752 151.2832 267.9487 152.956 265.7062 153.3555 264.4758 153.9526 263.4495 158.1281 261.6318 159.1643 261.3552 161.9523 261.5802 164.5032 262.6087 165.7611 264.771 166.8632 267.086 169.4821 268.6655 Z M 241.0311 253.9691 244.1397 254.9043 247.3272 254.6376 247.2767 258.7439 247.729 260.1225 248.6268 261.3563 248.1658 263.1531 249.6059 263.7667 245.3317 265.8171 241.4724 268.5349 239.8874 270.369 238.4517 272.3327 237.6196 274.4117 237.0796 276.6541 235.7866 275.7651 232.0677 272.1329 229.7144 271.1363 225.9297 270.605 224.7245 270.7247 216.9444 274.1197 215.9104 276.6004 213.7897 280.3422 212.7843 281.5771 211.6669 281.9316 210.8766 282.5738 210.0051 285.7635 207.5924 287.7283 206.1172 287.7865 203.597 287.2486 202.4642 287.5516 203.9746 284.4035 201.5685 284.0205 199.1669 284.0863 199.1098 282.0392 197.6543 280.8768 198.7322 279.3686 198.763 278.1393 199.3952 277.462 199.6147 276.4708 199.5335 275.6235 198.0495 275.3644 197.145 274.7651 197.3163 272.5347 196.4645 272.4535 194.3548 272.842 189.9664 274.5653 188.77 274.5686 190.6096 273.3415 194.5085 271.6566 196.2625 270.6917 200.0867 267.9838 202.4928 266.7018 203.7485 264.4319 204.137 263.0532 204.9493 261.8414 205.6672 259.9019 206.9075 259.2543 209.0589 257.5891 210.2948 257.7505 211.6691 259.7965 213.5219 261.3661 214.8567 261.2333 217.2342 260.4287 218.3801 260.2476 221.1286 260.3431 223.6005 259.3465 224.6059 258.172 224.9813 256.7044 224.0637 254.2501 225.2536 254.4971 226.3929 254.3961 229.0756 252.8341 231.835 251.9077 234.7021 251.675 237.9248 252.5597 241.0311 253.9691 Z M 395.5095 93.9959 396.3964 94.4196 400.5938 93.2747 399.7947 96.7268 399.3469 100.2075 399.6542 105.9844 400.0318 108.5924 400.7584 111.1148 402.5454 112.9226 404.8834 114.2058 408.2729 118.3077 410.0906 123.3415 411.3749 125.7859 412.3364 128.35 412.6284 129.5234 412.6525 130.7001 412.365 132.3082 412.6811 133.6078 412.3167 137.6932 410.7997 142.4164 410.6043 144.8301 409.285 145.3087 408.4859 146.4239 407.8031 146.9409 407.0458 147.3415 405.9459 147.4414 405.16 147.898 404.8483 149.1779 404.3434 150.3644 403.3862 151.4577 402.6354 152.664 402.0164 155.6046 401.7924 158.6209 400.8638 160.7273 398.6312 161.2761 396.0715 161.2388 392.7917 162.2157 392.0936 162.7865 389.5032 166.4658 388.759 168.6238 388.7348 170.9453 389.4549 173.8003 390.4318 176.5916 391.1716 181.789 390.3923 189.7151 389.6437 192.2462 387.9972 193.9619 386.7503 194.7576 385.6746 195.7346 384.2828 198.3195 381.9777 203.4697 381.7867 204.7616 381.7955 206.104 381.1742 207.8526 380.7681 209.5715 381.1479 211.5703 381.857 213.4407 384.9501 218.2407 386.1619 219.6611 387.523 220.9552 382.2455 222.3865 381.2928 223.044 378.1579 225.7815 377.1569 228.3775 377.2381 231.25 376.709 232.2807 375.8485 233.1731 374.9506 233.7669 371.4469 235.083 369.2055 236.3914 366.9707 238.4363 366.086 239.5087 364.3671 239.1651 363.3616 238.2201 364.3517 237.0302 364.0466 235.6296 364.5361 232.0293 363.9741 230.5826 365.7655 229.4905 366.6194 227.743 368.4854 226.3446 369.8158 225.1032 370.0529 224.0977 368.8565 223.0144 367.5942 222.2306 365.8467 222.2273 364.1607 222.459 363.0719 223.4918 362.7074 224.8979 362.7931 225.5543 362.6547 226.1284 360.0072 228.0548 360.3563 230.07 361.1312 231.093 362.1213 231.5782 361.8249 232.2719 360.5692 233.8964 359.6911 234.0567 358.0754 231.7835 356.0601 230.5409 353.5662 230.5508 351.0021 231.0019 349.0527 232.5145 348.4095 233.7702 347.999 235.0687 348.1373 238.2299 347.3294 240.8676 345.7466 243.1858 345.0046 244.0321 343.0727 245.605 341.7424 245.8114 340.7896 245.0968 340.0235 244.0134 341.0004 240.0454 340.9609 237.8183 343.2286 236.6845 341.3692 235.1005 339.0927 234.4628 335.8897 235.308 334.9875 236.2597 334.3706 237.5406 332.6517 239.1585 330.7528 240.6755 328.608 243.2615 327.1656 246.3262 322.4436 245.324 319.8641 245.1001 317.2627 245.178 312.6504 244.8004 307.5858 245.4261 301.8232 246.6302 302.1678 245.762 306.9053 243.9168 307.0765 243.3757 306.6221 242.3659 305.441 242.3165 302.6069 242.6688 301.1602 242.5141 300.5697 241.4307 299.6103 240.9631 298.9693 241.4065 299.18 243.5118 298.4776 243.7928 297.5424 243.2517 297.8409 241.6162 297.2021 239.2189 297.1296 237.7305 298.1219 236.4528 297.1055 235.9139 296.0342 236.1214 294.6709 236.7349 293.4679 237.6087 290.9257 241.9828 289.9379 244.4821 291.7995 246.4897 296.875 249.2964 297.7443 249.9846 297.7641 251.1789 297.1472 252.4467 295.7642 253.0043 290.1947 253.9384 285.3717 255.7561 283.9776 257.599 279.5871 264.7172 276.0724 269.5842 271.1066 271.2647 265.6557 269.7719 264.3386 268.0771 263.2716 265.9817 261.2454 264.0872 259.4189 262.0236 258.352 259.5748 258.5188 255.6265 257.7263 253.249 258.442 252.6157 261.4474 251.1712 262.4287 250.3622 264.1256 248.482 264.7337 247.4359 264.8259 245.8509 263.4604 245.0233 259.9326 245.054 256.4135 245.5468 253.8999 244.8542 250.6421 242.9377 249.6323 242.5294 246.1198 242.4087 243.6128 242.7643 241.1497 243.4635 238.5461 243.6841 237.6789 244.0486 234.6714 246.3986 232.2829 247.8782 230.2171 248.6126 225.7563 248.8091 223.5237 249.2854 221.1813 250.0626 220.5271 249.9945 218.0618 251.0691 215.232 251.9988 213.7173 252.9329 210.9424 252.3226 205.4498 253.9943 202.7957 254.1996 200.0516 253.2787 197.5073 251.7881 195.0639 252.4269 193.3889 254.6288 192.5766 259.0117 191.6195 260.9852 191.3297 263.3562 190.0652 262.9808 182.7132 258.7142 182.2039 258.5616 176.2612 259.296 174.7267 259.6505 172.8124 260.5144 170.7861 260.9007 168.9377 260.2795 167.1727 259.2674 165.4757 259.5682 163.7327 260.2773 163.0675 253.8462 163.4056 252.9977 164.4747 251.8704 165.6514 250.9067 168.5294 250.5741 171.4425 250.8869 173.5237 250.4434 175.2799 249.1702 177.1349 247.3646 179.2249 245.8959 182.059 244.7357 184.8009 243.4042 187.2069 241.5371 189.4922 239.4999 191.5931 238.0049 193.8718 236.7503 197.3448 233.7384 201.9527 230.3543 203.7199 227.8484 204.8198 227.158 208.7845 225.7585 214.0444 224.6894 216.5229 224.741 218.9794 226.9374 220.3032 226.6366 221.6423 226.0691 224.3513 225.7552 227.1371 226.1185 229.8549 226.1273 232.5749 225.8496 237.8084 225.1295 240.5613 224.2602 243.2484 223.1362 252.8286 222.3426 259.3948 220.4579 260.4331 220.5919 261.443 221.0265 261.5176 222.4227 260.6922 223.9463 261.4957 224.8683 262.826 225.438 269.0057 225.6136 270.7686 225.9418 273.348 224.899 275.7782 223.6093 278.3204 221.909 280.0986 219.9958 278.4565 217.6019 278.0965 214.984 279.4729 212.1455 281.4684 209.7515 283.8415 208.3048 286.0259 206.6397 290.4516 201.9143 293.6501 198.0912 294.8004 193.3933 294.1243 187.8326 296.9167 183.7022 299.5884 182.9931 304.901 181.1095 307.689 180.5563 308.1061 181.3795 308.0227 182.4585 303.8538 185.9271 301.4653 187.3529 300.0362 187.7953 298.7278 188.4264 298.1856 189.647 300.3106 191.6908 300.8529 193.2001 300.7211 194.6501 300.8112 195.9519 303.2172 197.3711 305.9723 197.8409 307.127 197.8278 308.1368 197.4546 311.2849 193.9838 311.9918 193.3812 320.9639 190.8401 325.3787 188.8962 327.8176 188.3946 330.1073 187.3826 335.2421 183.4771 337.1411 181.6781 338.8622 179.6892 340.2386 177.3786 341.3231 174.8771 342.8115 173.3206 350.9516 169.6084 353.575 167.5865 354.4092 166.6074 355.4169 163.7711 356.1128 160.825 357.1029 158.5156 358.4376 156.3499 360.2268 154.1436 362.2354 152.0954 363.4231 149.9945 365.1464 144.9739 365.9038 142.1947 366.4943 141.1925 367.3615 140.3495 368.1188 139.2837 368.6962 138.0906 368.9574 136.9084 369.3306 133.296 369.1045 130.4894 367.7566 128.1108 366.6436 127.4357 365.4296 127.3962 363.6119 127.6014 362.0642 126.6322 362.3781 125.7761 363.9566 125.6169 365.0344 125.1745 365.8072 124.3645 367.2561 121.774 368.1254 119.0003 368.2001 117.7742 367.0673 115.5394 366.165 112.8513 366.1409 111.4002 367.1266 109.7296 368.5337 108.3718 369.7938 108.0524 371.1593 107.958 372.3997 107.4333 373.5478 106.6715 374.1976 105.8329 375.2096 103.5498 375.5982 102.2458 374.9616 98.7564 375.618 97.8025 376.551 97.2076 377.7957 97.6598 379.0711 97.7499 380.5574 97.6115 381.9843 97.9804 382.2543 98.8749 383.1478 104.7726 383.6659 105.5695 384.7043 106.1875 385.8766 106.0975 386.8886 105.1798 387.5713 103.957 388.917 103.7046 393.02 105.0196 394.4733 104.0811 395.4217 102.6322 396.2471 100.0648 395.8454 97.7509 394.8597 96.897 393.8411 97.0517 392.941 97.6862 391.9378 98.033 385.8722 99.2525 385.9007 96.6709 387.1981 92.8093 387.916 91.5877 388.9368 91.0081 391.4833 91.6788 392.7347 92.1255 395.5095 93.9959 Z M 14.7886 472.932 13.4649 476.4807 12.3716 476.9977 11.2498 476.7156 10.1039 474.7321 10.9052 473.9726 12.0248 474.3721 12.9314 474.2195 14.9862 471.3316 15.4823 471.7981 14.7886 472.932 Z M 5.6957 478.2325 4.2776 478.5487 2.574 478.1612 1.0198 478.0547 1 477.3862 2.6311 476.6958 2.6618 475.7332 3.0614 475.2129 6.7341 476.3918 6.5826 477.2545 5.6957 478.2325 Z M 40.6624 467.8235 38.7568 468.4097 36.724 468.0628 37.0533 464.9291 37.758 465.3681 38.1992 466.4405 39.7118 467.0662 40.6624 467.8235 Z M 103.9351 424.8957 101.7705 425.9264 100.9714 427.1557 98.9693 427.575 97.0221 429.3082 95.1298 429.6233 95.1781 431.0151 95.9772 432.1939 94.7171 432.4003 93.3999 433.836 93.2967 434.8788 93.7665 435.7207 93.7028 436.1411 92.0344 437.3858 90.3199 437.4407 90.243 436.0972 90.3594 435.0928 91.9817 432.6484 92.0234 429.8153 93.5294 429.4871 94.0804 429.0931 96.4535 427.0778 96.8926 426.2184 95.6632 425.3841 95.7532 424.3974 96.032 423.9781 97.9902 424.2964 98.7849 425.0285 99.1691 425.1086 100.3129 424.5587 100.8507 423.5774 102.9845 421.6565 103.8473 419.7455 105.5728 421.3141 105.1074 423.3689 103.9351 424.8957 Z M 120.5557 400.8869 119.6139 401.2985 118.3494 400.7299 117.963 398.1526 118.5206 396.9035 119.5107 396.628 120.3669 398.8562 120.9662 399.7761 120.5557 400.8869 Z M 130.7703 389.9126 128.8341 391.7391 126.7771 390.0948 124.2986 388.9961 125.4775 388.6997 126.169 388.2595 126.2371 387.5614 127.8462 386.5264 131.0404 385.7251 132.0546 385.6746 133.1983 384.9205 133.5715 384.2411 134.0413 383.9129 136.0983 382.9777 136.6625 384.0534 136.5681 384.8964 135.0226 385.3651 133.5145 386.4912 132.1226 387.8951 130.8647 388.489 130.4674 388.883 130.7703 389.9126 Z M 127.8813 392.2517 128.0284 392.7764 125.8222 392.3373 124.9243 390.2836 126.3842 390.6502 126.832 391.3571 127.8813 392.2517 Z M 364.3034 280.9514 363.9148 281.1896 362.8326 280.4531 362.6811 279.8022 362.8721 279.3983 363.579 279.3061 365.0344 280.1095 364.3034 280.9514 Z"/>
</g>
</svg>