<?xml version="1.0"?>
<svg xmlns="http://www.w3.org/2000/svg" version="1.2" baseProfile="tiny" width="415" height="400" viewBox="0 0 415 400" stroke-linecap="round" stroke-linejoin="round">
<g id="ne_50m_admin_0_countries-jordan">
<path d="M 80.6167 61.6559 90.8407 63.6682 96.7148 68.1482 106.5205 80.798 121.7728 84.4786 127.9165 88.0616 136.2722 94.7769 146.4683 97.2121 178.7481 101.4039 204.5032 87.2948 226.2616 75.3746 250.9943 61.8325 267.8081 52.6217 296.5188 36.914 315.4145 26.9828 340.2866 13.9054 364.8334 1 371.637 22.066 378.2825 42.644 385.1884 63.961 391.8897 84.6645 384.64 86.6256 390.3282 102.5099 399.7157 100.0794 409.9396 98.1973 414.2523 108.3934 400.2269 119.7512 386.1085 130.8907 382.7997 132.0851 364.4616 136.6951 326.949 146.1198 301.8167 152.4307 269.6856 160.503 242.9917 167.209 216.5582 173.8499 192.095 179.9982 206.0554 192.9734 227.3956 212.8032 241.6254 226.0386 258.4206 243.0568 273.4126 258.2533 289.3155 274.3653 278.1621 279.8259 259.7776 288.8183 257.8908 290.4541 256.3386 292.1364 248.7264 308.1927 242.7408 320.8379 240.696 322.4226 215.0153 327.0652 189.0929 331.7496 172.7439 334.7053 167.855 337.9769 157.1849 353.7311 146.1709 370.0058 127.777 383.3062 107.3756 398.0427 102.3287 399 87.569 396.7368 62.3437 392.8703 37.9642 389.1385 21.2713 386.5825 1 383.4828 3.9928 371.0189 3.1563 364.3036 7.9616 342.2199 10.7685 331.7636 12.172 324.0584 19.1615 308.4669 18.3064 303.3642 19.7842 285.3747 19.0685 281.8939 22.2472 272.0882 28.205 257.8536 34.0327 245.5988 36.1518 240.0826 42.1375 228.4644 47.4911 214.1741 44.6749 206.3667 43.8198 204.8378 45.9947 195.8593 45.9296 195.8082 48.5693 181.16 49.982 173.2551 53.2165 162.7848 58.8862 153.9178 56.2651 133.0377 56.5811 121.796 60.1316 108.9603 58.1705 93.959 59.8435 72.6049 60.206 70.6065 62.2694 68.0227 63.8587 66.6843 75.5884 62.2276 80.6167 61.6559 Z"/>
</g>
</svg>