<?xml version="1.0"?>
<svg xmlns="http://www.w3.org/2000/svg" version="1.2" baseProfile="tiny" width="700" height="256" viewBox="0 0 500 183" stroke-linecap="round" stroke-linejoin="round">
<g id="ne_50m_admin_0_countries-Kazakhstan">
<path d="M 44.7321 129.8611 44.2949 130.2058 43.6416 130.155 42.416 128.8542 42.7576 127.536 43.202 127.2661 43.8195 127.0809 43.902 127.3706 43.03 127.9607 42.9511 128.7055 43.6762 129.5321 44.7321 129.8611 Z M 46.2886 128.4248 45.8669 128.5896 45.6089 127.809 46.0831 127.1544 46.7532 127.0678 46.5227 128.1022 46.2886 128.4248 Z M 75.2865 123.0459 75.0714 123.1743 74.258 122.8458 73.7193 122.2856 74.387 121.6244 75.0069 121.7463 75.4155 122.4474 75.2865 123.0459 Z M 298.6917 161.7366 297.6346 162.2437 296.4628 162.4031 295.8596 162.7155 295.2145 163.4639 294.6125 164.1089 294.2577 164.3376 293.7178 164.2958 293.0931 163.7965 292.1996 163.8174 291.1341 164.4362 289.8739 165.439 288.2804 166.9739 286.6212 167.7868 284.5189 168.4808 282.9995 168.789 281.7918 169.3158 279.7839 170.3819 279.3849 171.0096 277.9288 171.3805 276.7582 171.8087 275.6736 172.5218 275.4108 173.7796 274.7192 174.5023 273.0588 175.4955 271.6636 176.4977 270.7546 177.4808 269.7918 178.5236 269.4884 179.0982 269.455 179.883 269.9089 180.5417 269.9949 181.1695 269.652 181.6258 268.7108 181.7972 267.7241 181.6652 266.2178 181.2166 264.6076 180.4133 264.0211 180.0185 263.2304 179.3431 263.345 178.7153 263.7524 177.4963 264.0307 176.6602 263.3737 176.2606 262.8887 175.833 262.5423 175.4197 261.8615 174.6056 261.005 174.8051 260.2632 175.0052 259.4068 174.7197 256.8744 174.8433 254.9608 174.9365 253.1678 175.0243 250.8887 175.1348 248.1437 175.2686 247.3554 175.0888 246.8644 174.8189 246.3627 173.6984 246.0772 172.7458 245.5433 170.9636 245.1873 169.5857 244.7633 167.9433 244.4838 166.1312 244.2831 164.8411 242.2058 164.7987 240.5467 164.7647 238.301 164.7187 238.3213 163.6926 238.3452 162.3996 238.3739 160.9279 238.7931 158.9958 238.9508 157.376 239.1443 155.4009 239.2709 154.0953 239.4107 152.6589 238.2532 153.1021 236.9739 153.5924 235.7746 154.0517 234.9504 152.8877 234.1501 151.7565 232.9329 150.037 232.0215 148.7481 230.4352 147.9962 229.2609 147.4395 228.0426 146.5018 226.9902 145.5295 225.9904 144.6074 224.7959 143.8046 223.6503 144.0585 222.3567 144.5596 221.1096 145.0428 219.7885 145.5546 219.1411 145.8048 217.6121 145.7099 216.2743 145.6269 213.8829 145.4787 211.8629 145.3527 209.8024 145.2243 206.9296 145.0457 204.021 144.8654 202.0716 145.1037 199.6073 145.4047 197.0176 145.7212 194.8758 145.9828 192.1667 146.3137 190.1372 146.561 189.1374 146.5269 187.882 145.4859 185.8716 143.8184 184.6532 142.8078 183.4575 141.817 181.7351 140.3889 180.3458 139.3085 178.9913 138.2526 178.2124 137.2784 177.8242 136.0535 177.1219 135.498 175.5475 134.7485 173.8585 133.944 172.1682 133.1395 170.478 132.3344 168.789 131.5299 167.0987 130.7254 165.4085 129.9209 163.7195 129.1158 162.0293 128.3119 160.3402 127.5074 158.6512 126.7029 156.9598 125.8984 155.2707 125.0933 153.5817 124.2888 151.8903 123.4843 150.2012 122.6792 148.5122 121.8747 147.1218 121.29 145.8269 121.4423 143.8906 121.852 141.8612 122.2808 139.8532 122.7049 136.253 123.4663 133.9368 123.9555 132.1259 124.3688 130.198 124.8084 127.6704 125.3847 125.5526 125.8685 123.068 126.4347 120.8713 126.9358 119.021 127.3575 117.0954 127.797 115.5689 128.1452 115.5701 130.9529 115.5724 133.7606 115.5736 136.5683 115.5748 139.376 115.576 142.1837 115.5772 144.992 115.5784 147.7997 115.5796 150.6068 115.5808 153.4145 115.582 156.2222 115.5832 159.0298 115.5844 161.8375 115.5856 164.6452 115.5868 167.4529 115.5892 170.2612 115.5904 173.0689 115.0707 173.0456 113.8977 173.2087 111.9352 173.5999 110.3035 173.7964 109.5915 173.6799 108.9477 173.386 108.3851 172.7667 107.5453 172.0147 106.6877 171.4067 105.6198 170.1573 104.8804 169.1975 103.0516 167.1023 102.7984 166.4418 102.4567 165.7681 101.8463 165.2043 99.695 163.8216 97.1866 162.5745 94.7283 161.3538 94.0319 161.0575 92.8828 160.6783 91.4661 160.6699 90.5021 160.7446 87.5541 161.1471 85.2964 161.6195 82.2301 162.2604 79.8543 162.9711 79.3239 163.1796 77.5871 164.0372 75.4632 165.4587 72.9799 167.4649 72.6585 166.1742 72.5486 164.1871 72.5917 163.5475 73.2654 161.8776 73.951 160.7314 74.5029 159.5405 74.7489 157.9817 74.2365 155.4804 73.6667 154.9261 72.9811 154.7451 72.2512 154.6938 70.9074 154.7953 70.2791 154.9954 69.1861 154.1521 67.8638 154.0171 67.1662 154.2524 66.459 154.3742 65.6946 154.1413 65.0328 153.642 64.6279 153.1039 64.3113 152.4935 63.2745 151.2739 62.2424 150.6086 60.9954 150.461 58.9623 150.4993 58.3209 150.4168 58.2838 149.7246 58.5407 148.1963 58.5466 147.3989 58.3985 146.6464 58.0605 146.0282 57.6304 145.4925 56.4156 144.6109 55.5006 143.371 53.9717 140.822 52.6374 137.9569 52.0485 137.5257 50.854 137.0724 48.2464 136.7093 46.5263 136.3336 45.8466 135.9711 45.5647 135.3427 45.5695 134.6696 45.7116 133.8741 46.1142 133.2016 47.4843 132.682 50.4562 132.5679 52.9993 132.624 55.3047 133.8263 56.062 134.1034 56.8743 134.1823 58.5084 133.8024 59.3147 133.6949 61.3561 133.8197 60.7469 133.2506 59.98 132.9519 59.1881 132.9776 58.5024 132.7465 57.376 131.6428 55.4158 130.3879 54.9607 129.8689 54.8221 129.0393 55.2008 128.3238 56.5876 127.591 57.7642 126.5948 58.3041 125.2724 58.7855 124.6632 59.7925 123.7058 61.3083 123.8892 63.6687 123.197 67.5353 123.3326 72.1592 123.1337 73.435 123.2071 76.3818 123.8814 78.0792 124.1723 80.1362 124.3216 81.6221 124.0224 80.2198 123.1002 77.1833 122.0073 76.4045 121.0773 77.7949 118.548 79.6799 116.2444 80.8254 113.5071 80.5041 110.7866 79.9534 110.0377 80.1314 109.1549 80.7908 108.4102 81.253 107.6678 80.8529 106.7749 80.0203 105.3803 79.5939 104.9294 78.1437 104.1774 75.2279 104.144 72.8497 103.7337 72.0804 104.064 71.6468 104.5722 71.1021 104.9067 69.2482 105.5828 68.6307 105.716 67.9856 105.5816 67.0754 104.8195 66.2679 104.9055 63.8144 104.4301 62.6593 103.3986 62.2329 103.2535 58.2647 102.4293 56.8851 102.2722 53.7292 103.1221 51.4381 104.2109 50.7919 104.3692 49.6057 105.0596 48.9392 105.1695 48.2524 105.0518 47.6049 105.0936 46.2217 106.1281 43.718 107.3327 42.4733 108.093 41.0853 108.5655 39.5468 108.8611 37.9688 108.9089 37.3919 109.1824 35.5918 109.2798 34.494 109.5014 34.4546 109.9123 34.6732 110.8338 33.7403 110.5083 32.7596 111.1337 33.0845 111.7273 32.498 111.5846 29.7423 110.4432 27.4834 109.6381 25.4755 108.9226 25.1804 108.7924 24.6321 108.4436 24.2404 107.9013 24.1567 107.3058 24.355 106.8693 24.8424 106.5903 25.4157 106.4828 25.927 106.5712 26.4956 106.8388 27.5085 107.1625 28.8201 107.2228 29.6359 106.9738 29.747 106.3765 28.187 104.1709 26.75 102.3904 25.3596 100.4111 24.7707 99.6932 23.065 98.0359 21.3843 96.4036 20.0548 94.9499 19.3572 94.5019 17.2131 94.315 13.1219 93.9566 11.6753 93.7864 10.5178 94.2176 9.3568 94.5569 8.2519 93.9262 7.3799 92.8953 6.9212 92.0275 7.1445 91.1418 7.2365 89.8344 6.5712 88.5443 5.833 87.9082 3.9839 87.4298 1.6331 86.3452 1 84.3683 2.1431 81.5343 3.9815 79.5276 5.3181 78.6872 5.9548 77.9532 6.1639 77.3177 6.0026 76.7109 5.2106 76.0665 3.9815 75.4394 3.3592 74.6659 3.6172 73.0127 4.4294 70.6309 5.6825 68.7256 7.3655 67.6697 8.8181 66.9136 9.3914 66.2088 9.4213 65.209 9.3854 64.2641 9.7737 63.5785 10.3841 63.0332 11.0303 62.5458 11.9405 61.9982 13.1147 61.8656 14.4131 62.301 16.1726 63.471 18.7552 65.7794 20.2304 67.291 20.7619 67.7569 22.1093 68.6581 23.3242 69.0219 25.3512 68.4569 27.2959 67.8011 27.923 67.3842 28.3268 66.7636 28.0174 65.7029 27.6113 65.0107 27.1788 64.1298 26.5804 62.5972 26.1587 60.1927 25.6582 59.43 26.0261 59.3422 26.9997 59.501 27.9003 59.5691 29.1892 59.04 30.9618 58.0431 34.2002 56.5064 34.8858 55.4917 35.4377 54.3623 36.3359 53.67 38.3941 53.4413 40.3017 53.0794 41.6479 52.2808 43.7586 51.5785 45.4954 51.1514 46.2587 50.759 46.8022 50.1701 48.7911 48.508 50.3523 47.4861 51.7248 46.4343 52.1871 45.7732 53.2693 45.8956 54.9261 46.3549 56.7071 46.773 58.0091 47.421 58.2635 48.0851 58.3901 48.6083 58.9217 48.8783 59.5512 48.9278 60.4985 48.7965 62.1576 48.7726 64.1919 47.9131 67.0264 46.4642 69.6197 46.0156 70.9886 46.3591 72.1138 47.424 73.0085 48.4279 73.9259 48.8012 74.4957 48.812 74.7083 48.8269 75.8455 48.5994 75.9303 48.6023 76.9755 48.643 77.9801 48.981 79.6404 49.0204 81.9518 48.7606 82.1955 48.6549 83.3064 48.7923 84.6586 49.2551 85.7109 49.8052 87.5875 51.6125 88.6685 52.0784 90.8748 52.721 91.9104 53.2836 93.1121 54.1938 93.7404 54.7451 95.046 55.7437 96.5583 57.3796 96.8258 58.681 97.1699 59.7835 97.7313 60.3049 98.1947 60.3706 98.6952 60.1885 99.1838 59.688 99.3534 58.8494 99.2053 57.3706 98.8183 56.1618 98.3214 55.7778 98.0825 55.3525 98.4109 54.812 99.2507 54.551 100.2971 54.7158 102.0196 55.4098 103.8161 56.2854 106.0224 57.815 108.0518 58.7867 110.2676 59.5632 112.0283 59.7949 113.3913 59.5602 115.0003 58.9277 116.4743 58.1966 117.1444 57.4292 117.627 56.593 119.8488 55.4743 121.8771 54.4536 122.8004 54.6376 123.4526 54.9267 125.5334 54.3061 126.2585 54.1353 128.2414 53.8952 130.2876 54.2518 131.9205 55.3465 133.5068 56.0519 134.9211 55.9701 136.0953 55.6081 136.8681 54.9255 137.4534 54.1192 138.237 53.6037 138.3589 53.5715 140.8817 53.8504 142.4668 53.8086 142.6352 53.6927 144.7232 53.9119 147.0262 55.0467 148.4584 56.3033 150.2872 57.907 151.1389 58.4302 152.3764 58.6541 153.3488 58.7509 154.652 58.9993 158.0945 59.3356 158.6177 59.5327 158.9701 59.7955 158.6512 60.6728 158.9594 60.8956 161.7497 60.2709 162.4987 59.805 163.4209 58.4821 164.2451 57.1479 164.8578 56.6533 165.5101 56.5237 166.1646 56.7208 167.0772 57.5086 168.3171 58.3113 169.9895 58.6171 171.0131 58.7389 172.5971 58.8058 176.3192 58.417 179.8 57.4471 181.7888 56.3923 182.7134 54.812 183.2903 53.0166 184.1814 51.8831 183.8099 50.722 182.0564 49.6195 181.4663 49.2874 177.2067 48.6698 176.9439 48.2255 176.7014 48.1233 172.5039 47.1462 170.478 46.7276 169.9106 46.0825 169.5332 45.2374 168.2228 44.4837 165.6188 43.7986 165.1636 43.2772 165.5949 42.7487 167.6518 42.161 169.9978 40.9246 170.9009 40.6708 172.9924 40.6159 174.9264 39.6059 176.2618 39.029 176.9582 38.3403 176.7743 37.632 174.8392 35.4908 174.2658 34.1948 174.6074 33.3515 175.7195 32.4377 176.349 31.9396 177.1051 31.0443 177.6056 30.5659 179.5563 30.3628 181.9274 30.278 183.5519 30.4918 185.8239 30.6035 187.8939 30.7683 188.9415 30.9171 189.7108 30.6435 190.2686 30.1627 190.2483 29.5266 189.436 28.9097 186.3972 28.1016 185.0964 27.4345 184.0727 27.5079 182.3681 27.3007 180.8284 26.8629 179.4619 26.7166 179.0164 26.1098 179.2995 25.2605 179.825 24.7749 180.8368 24.5324 181.9298 24.6537 183.1231 24.3007 183.4659 24.094 183.5686 23.8282 183.3751 23.4466 182.8244 23.1312 182.0397 23.0482 181.1366 23.3158 180.058 23.4896 178.2304 23.0966 176.7743 22.6242 176.8483 22.1876 177.9246 21.539 178.4095 21.0128 178.4095 20.2847 178.4095 19.4348 178.7834 18.4398 179.8513 17.7589 181.1067 17.3946 184.3415 18.0594 188.3849 18.6518 189.0813 18.5551 189.2855 18.2427 189.749 17.965 195.3608 17.836 196.4526 17.4538 196.9961 17.1498 202.3929 16.7102 203.0367 16.2939 203.8287 15.9051 205.0686 15.9122 206.5486 15.7564 208.6079 15.2827 210.0676 15.0223 210.3101 15.0002 211.8498 15.1048 213.7682 14.7303 214.1779 14.5756 214.4897 14.2919 216.1596 13.7478 219.3621 13.2981 220.1433 13.5674 221.6699 13.6887 223.6193 13.4892 225.0563 13.1458 225.896 13.4868 227.0332 13.8362 227.8825 13.5399 228.303 12.6017 228.856 11.6849 229.8164 11.2507 230.5773 11.093 231.2653 10.74 231.7861 10.3733 234.61 10.4294 237.1351 9.5168 237.6297 9.9301 240.9074 9.834 244.9771 9.2463 247.4127 8.9716 251.6186 8.3564 253.5632 7.8595 256.344 7.5453 258.8967 7.3261 260.5666 6.4559 261.9128 6.3317 263.5505 6.26 264.5539 6.0504 265.2085 5.7285 265.6325 5.124 265.4032 4.356 265.1703 3.7969 266.3409 3.484 268.0108 3.3872 269.0667 3.26 271.3674 1.992 272.9584 1.3822 274.6009 1 277.9001 1.209 280.9127 1.4002 283.9336 2.0058 285.5235 2.7607 286.8876 3.3305 288.1801 3.6034 289.3423 3.7784 290.6993 3.5198 291.6549 3.1692 292.2139 2.6687 293.0596 2.3116 296.1391 2.0327 296.7781 2.5714 298.2438 4.2001 299.2424 6.3711 300.8872 9.2511 301.6123 10.6666 301.2898 11.4089 301.297 12.4267 301.2038 13.5441 299.9878 14.8109 300.4823 15.4016 303.4578 16.0604 307.6255 15.8197 310.1972 15.2881 311.6295 15.4816 312.3772 15.1639 312.8634 14.2244 313.85 14.0142 314.8666 14.6688 315.6048 15.7779 316.3119 16.4922 316.2594 17.3409 316.5198 18.4321 317.0394 18.7086 318.0607 18.2935 318.7416 18.0468 318.904 17.7153 318.6149 17.3062 318.4764 16.8911 318.7021 16.5101 319.1859 16.3542 320.6384 16.4743 322.7551 16.6845 325.266 18.2326 326.6181 18.5133 327.1891 18.5402 328.4625 18.4518 329.9914 18.0056 331.0223 17.4472 331.3651 17.173 331.9576 17.2208 332.5202 17.4788 332.5584 18.0438 332.1105 18.8603 330.5851 19.608 328.6918 20.3033 327.5451 21.5784 327.3014 22.9097 327.8043 23.5852 328.2331 24.0373 328.355 24.671 328.7838 24.7546 329.5542 24.4936 331.6709 23.1802 332.7496 22.8559 334.3132 22.6487 336.8778 22.7502 338.6062 23.1778 339.4304 23.7739 340.3383 24.2642 340.9642 24.0588 341.2891 23.4926 341.3034 22.8446 341.5662 22.3118 344.3733 21.0014 346.2415 20.1295 346.8854 20.0273 348.1348 20.2083 348.9077 20.1169 350.9634 19.2963 352.8818 18.3628 353.0693 17.7315 353.1398 17.1593 353.6176 16.9007 356.3041 16.7006 356.7448 16.5931 359.0419 15.9427 362.2205 14.8348 363.7626 14.1814 366.5744 13.8911 367.0964 13.703 368.0305 13.2622 369.7901 12.6536 370.7433 12.5861 370.152 14.0602 369.1008 15.7653 368.5083 16.2204 365.6594 16.144 365.6642 16.6086 366.111 17.3212 366.4311 17.7213 366.7775 18.0803 367.5432 18.7002 370.5402 20.1665 374.3531 22.0323 378.4729 24.1281 381.3493 25.5913 382.5116 26.3463 383.2522 26.9364 385.3748 29.0674 387.3875 31.0891 390.7811 34.6517 393.7901 38.0937 397.1001 41.8808 399.0161 44.074 402.9317 48.6609 403.9769 50.0692 405.9598 52.7353 407.7121 55.2372 409.2602 57.4501 410.2349 57.6501 410.3102 57.0499 410.4846 56.6497 410.9851 56.4252 412.1222 55.7718 412.7362 55.6147 413.6512 55.6822 414.6104 55.3495 414.9604 54.7218 414.7322 53.5596 414.5841 53.0244 414.909 52.4499 415.4346 52.2247 416.1644 52.0431 416.8346 51.95 417.3852 51.3001 418.4221 51.1036 419.3741 51.2249 420.1601 51.25 420.8541 51.723 421.2399 52.371 421.9877 52.4212 423.2168 52.3555 423.3852 52.8996 423.0353 53.8074 422.6088 54.5098 422.5348 55.0748 423.1846 55.3495 425.564 55.1035 426.4097 55.2247 426.6773 55.7963 427.0142 56.2699 427.1838 56.8492 426.9377 57.4919 427.3594 57.8747 429.4139 57.8837 430.8593 57.5743 433.0811 57.5504 435.0914 58.2295 436.4842 58.1244 437.8842 57.8496 439.934 58.0246 441.3745 57.4877 442.3684 56.817 442.6813 56.289 443.1986 55.9969 445.1337 55.9999 446.3592 55.9492 447.2587 55.1745 448.0841 54.8245 449.4721 54.7588 450.4946 54.7588 453.236 55.4785 454.9035 56.0728 456.6404 56.9185 457.6844 57.4489 458.3843 58.6452 459.5705 59.5273 460.5082 60.557 460.7351 61.5735 461.5092 63.3987 462.3095 63.999 463.2603 63.999 464.4596 64.2486 465.7843 64.4487 468.6177 65.8074 469.6581 65.8481 470.4584 66.173 470.5838 66.7983 470.284 67.5228 470.597 68.2192 471.5227 69.1061 472.2574 69.9733 473.158 71.0239 473.4327 71.6235 474.1578 71.8236 475.1325 71.5244 476.6842 71.7513 481.3571 72.3486 482.0069 72.4232 482.5062 73.0486 483.1811 72.9984 483.9564 72.9733 485.0314 73.0486 485.7816 72.4734 486.3956 71.9699 487.9317 71.3464 489.2074 70.4989 490.2825 69.7481 491.0816 69.6484 491.7326 69.9984 491.7565 70.6482 490.9574 71.1236 490.3326 71.6982 490.482 72.2733 491.557 72.3235 492.7527 73.1883 494.4752 75.2166 495.0629 75.6418 495.9146 76.042 496.8618 76.223 497.9094 76.512 498.6823 77.35 499 78.1067 497.864 77.8612 495.6446 77.8117 494.2924 77.9628 493.6558 78.0482 492.7061 78.5481 492.0312 79.048 491.7314 79.8979 492.0886 80.8594 491.6012 82.8602 490.9383 83.614 489.5395 84.922 488.7308 85.2063 487.3762 85.4404 486.0683 85.828 483.506 86.2049 480.7384 86.3966 479.7541 86.6779 479.0541 87.5738 478.5572 88.3233 478.249 88.8925 477.4654 90.7535 477.0211 92.4199 477.457 94.4888 477.7831 96.7882 477.7628 97.5814 478.4377 98.7585 478.7806 99.4806 478.6193 100.5049 477.6482 101.3142 477.0664 102.3869 476.517 102.8426 474.9342 103.048 473.4435 103.1746 471.9396 104.0938 470.7367 104.7299 468.853 105.538 467.9715 105.6903 467.4805 105.2788 467.1568 104.3614 466.5094 103.9576 465.6004 103.926 464.8681 103.9158 462.5006 103.6668 460.9872 103.6841 459.8488 103.8812 458.5516 103.9803 456.3083 103.6459 454.857 103.3622 453.8798 103.091 451.5494 102.2907 448.4854 101.3375 447.2288 101.0586 446.4846 101.3453 446.37 101.8894 446.1741 103.2099 445.8169 104.0353 443.6775 108.2131 442.3588 111.1217 440.6817 113.9103 440.1514 115.7803 439.148 118.152 438.1506 119.8691 437.748 120.8062 437.711 121.1878 437.8878 121.7236 439.4167 122.3101 441.0174 122.6696 441.3733 122.8936 441.5465 123.5034 441.4892 124.4978 441.1942 125.4415 440.7295 126.1821 440.2708 126.5482 439.7476 126.5715 438.7442 126.0961 437.8484 125.5651 437.1531 125.4032 435.3936 125.6995 433.7607 126.1032 433.2184 126.1158 432.2712 125.856 431.3192 125.3184 430.9429 124.281 430.1247 123.8098 429.0245 124.281 425.7551 125.0718 422.1537 126.0142 419.8662 126.5016 418.9703 126.4251 417.1929 126.5356 415.6568 126.799 414.5041 127.1645 412.2202 127.6674 410.1525 128.0043 408.8194 128.767 407.8614 129.5046 407.9032 129.7853 408.5984 130.2213 409.394 130.5635 410.9922 130.4835 412.5487 130.4303 413.8423 130.8926 414.9998 131.1888 415.3187 131.5735 414.9998 131.9474 414.3285 132.0352 414.0944 132.2979 414.2114 132.6479 413.7718 133.5629 413.5425 134.9527 413.7695 136.321 413.8973 137.5836 413.8196 138.2197 413.7742 139.1252 414.27 139.7379 414.7071 140.905 415.4955 141.6348 416.6876 144.1666 417.3888 145.646 418.0374 147.3231 417.568 148.2291 417.5967 148.7541 418.3552 149.1919 418.6884 150.0471 419.0396 150.5703 418.9417 151.0917 418.6168 151.293 416.9755 150.9777 415.6305 151.4973 414.2019 152.0193 414.0096 152.297 413.9701 152.6004 414.1183 152.8674 414.9413 153.335 416.0796 153.6265 416.0211 154.0941 414.6152 154.3109 412.4901 155.0264 411.9024 155.7945 411.4473 156.6378 411.4091 157.127 411.6217 158.438 411.9454 159.8929 412.5487 161.4248 412.5976 161.8991 412.2787 162.2365 411.9896 162.4539 410.3006 161.0725 408.4634 159.725 407.0241 159.4151 404.5168 159.1929 403.1921 159.1815 402.4348 158.8644 401.6954 158.085 400.8114 157.3802 399.6802 156.6319 399.2132 155.4941 398.7461 155.2898 397.9291 155.4356 396.5602 155.4003 395.7921 155.3 394.6466 155.1053 392.8214 154.6418 391.3772 154.2022 389.5639 154.1186 388.5128 154.2058 385.2482 154.2894 382.539 153.8284 380.3471 153.7424 378.9985 153.7692 378.3511 153.7119 377.2414 153.7155 375.6145 153.6151 373.4345 152.9056 372.5876 152.8698 372.0489 152.8954 368.4092 153.4174 366.7297 153.5387 363.1701 153.4796 359.6726 153.421 358.5485 153.3111 357.9274 153.3673 356.6087 154.6203 356.0448 154.8144 352.7492 154.5409 348.8527 153.7161 346.0385 152.8136 343.6494 151.8592 340.4888 150.3517 338.5955 149.6064 338.3231 150.0358 337.8226 150.1726 337.0928 150.2395 335.4169 150.1612 334.644 150.9251 332.5955 151.4716 331.2923 151.9607 330.6102 152.5126 329.313 156.1791 328.9665 157.5188 329.8361 159.7752 328.8411 159.6438 327.6717 159.0663 327.2668 158.6124 326.1403 158.334 322.0336 157.9148 321.2667 157.397 320.7842 156.9759 319.7222 156.7006 318.2184 156.4885 314.9478 155.5108 313.5538 155.4738 309.3336 154.7218 308.6456 154.7302 308.3302 154.7619 306.6914 155.254 305.633 155.3973 304.5054 155.1991 302.4819 155.8059 301.3901 156.6145 300.4871 157.6042 299.6211 158.2289 299.3666 159.163 298.7598 159.6486 298.0324 160.6197 298.0324 161.1859 298.6917 161.7366 Z"/>
</g>
</svg>