<?xml version="1.0"?>
<svg xmlns="http://www.w3.org/2000/svg" version="1.2" baseProfile="tiny" width="800" height="281" viewBox="0 0 800 281" stroke-linecap="round" stroke-linejoin="round">
<g id="us-states-18">
<path d="M 732.1088 73.7589 729.175 106.0308 742.0838 126.5676 759.1 142.4103 764.3808 154.7324 784.9176 167.0544 799 168.8147 757.9265 197.5662 718.6132 213.4089 718.6132 221.6236 702.7706 228.6647 701.5971 238.0529 681.0603 242.1603 674.0192 253.8956 616.5161 269.1515 614.7559 270.9118 523.2206 269.7383 443.4206 266.2176 422.297 267.3912 303.7706 263.2838 168.8147 265.6309 145.3441 260.9368 147.1044 280.3 13.9089 279.1265 1 280.3 6.8676 266.8044 22.7103 271.4986 31.5118 228.0779 26.2308 222.2103 42.6603 203.4339 54.9824 202.2603 94.2956 218.6897 107.7912 209.8883 97.8162 195.8059 101.9236 184.6573 145.9309 174.6823 135.9559 155.9059 150.0382 140.65 160.0133 130.675 187.0044 129.5015 195.8059 121.8736 205.1941 129.5015 219.2765 125.9808 246.2676 141.8236 255.0691 130.675 282.0602 120.1132 289.1015 130.675 313.1588 126.5676 311.3985 114.8324 334.8691 101.3368 338.9765 113.6589 363.0338 123.6339 375.3559 116.5926 385.3309 89.6015 404.1073 84.3206 411.1485 70.825 429.3382 62.0236 428.1647 40.9 455.7427 45.5942 475.6927 35.6192 494.4691 35.0324 485.6677 5.6942 493.8824 1 534.9559 1 556.6662 23.2971 558.4264 32.6853 591.8721 36.7926 615.9295 51.4618 632.9456 43.8339 673.4324 52.0485 685.1676 41.4868 700.4235 37.9661 705.1176 56.1559 717.4397 59.0897 732.1088 73.7589 Z" id="21"/>
</g>
</svg>