<?xml version="1.0"?>
<svg xmlns="http://www.w3.org/2000/svg" version="1.2" baseProfile="tiny" width="314" height="400" viewBox="0 0 314 400" stroke-linecap="round" stroke-linejoin="round">
<g id="ne_50m_admin_0_countries-kenya">
<path d="M 278.2387 299.9761 276.7886 300.3234 277.5366 298.0756 281.8184 295.2134 283.5624 295.8583 283.8982 296.5147 283.8028 297.1101 283.0739 297.6978 278.2387 299.9761 Z M 1.1259 254.7879 1 248.1286 1.9541 231.1768 1.8396 216.2935 2.6868 208.8384 6.3618 204.1196 8.0562 200.6831 9.2736 195.8899 11.197 191.9802 15.559 188.805 16.3413 187.0534 20.9628 181.7374 23.7334 174.9044 25.8247 172.5822 28.4312 170.4375 30.2744 169.3098 33.3083 168.1782 35.6859 167.5352 36.1171 166.9952 36.3193 165.8885 35.5294 161.6563 36.5445 160.2672 38.1626 157.4412 40.0135 154.8042 41.6888 153.1327 42.6276 151.4097 43.0665 148.4292 43.1352 146.3188 43.1084 142.8689 42.5818 135.0342 40.6241 128.4778 39.4143 121.1411 40.3035 118.7273 38.7579 114.4283 37.9947 114.1917 36.7353 113.251 35.1325 109.202 33.9227 105.5021 33.1709 104.571 27.9312 101.3348 25.3286 93.7061 22.4091 92.006 20.8216 84.4231 20.5163 82.2669 22.1725 74.7031 22.0122 72.9706 20.2606 71.3716 15.3453 69.7439 11.3573 66.6241 11.8725 65.5346 12.1663 64.405 10.0674 63.6475 3.9729 50.7104 11.8191 42.9386 19.7645 35.0619 29.9119 25.1034 39.2311 15.9559 47.2872 8.0505 54.4732 1 54.2977 2.3433 54.3282 4.135 55.225 5.2284 56.6981 5.9783 58.7551 5.1864 60.5563 4.0873 62.3003 3.8603 73.1003 6.795 74.913 9.3519 74.7985 12.1053 75.2603 14.105 74.4398 16.1123 73.5354 22.1725 73.8063 27.7404 77.031 31.8582 79.9314 35.0943 82.2326 39.628 83.9232 41.0229 86.2664 41.7422 93.689 41.9369 104.6759 42.2288 115.2507 42.5074 116.2124 42.6162 118.4526 43.2363 128.184 49.369 137.0911 54.9846 144.632 59.8656 151.9554 64.6054 159.0689 69.2135 164.5872 73.0393 170.0253 74.2051 178.8675 74.7585 184.9812 74.9436 190.6368 76.5502 199.0402 78.05 205.3141 78.8209 209.1113 79.6852 219.6212 80.5706 221.3576 80.0592 225.9944 75.8137 231.1844 68.9196 233.2109 65.1205 239.9313 61.3501 251.7273 56.0837 260.0391 52.3743 269.282 48.6458 273.4799 51.8782 279.2691 57.0702 281.8642 59.6309 283.944 60.7624 287.0886 61.5218 290.9201 61.5409 293.0114 61.4188 297.2894 60.7509 307.2842 60.1346 313.0009 60.1861 308.1925 67.0687 302.4299 75.3195 291.8131 90.5138 283.7303 98.5089 277.6243 104.5519 277.0672 105.6376 277.0901 112.3714 277.1549 128.8385 277.2847 161.7727 277.4106 194.7069 277.5404 227.6392 277.6052 244.1063 277.6243 249.6398 282.9823 256.5625 288.2182 263.3249 295.1409 272.274 298.8503 277.071 299.4647 278.67 299.2739 281.8794 293.5762 288.5884 288.909 291.6376 282.6312 293.0954 280.7498 292.8168 278.2807 291.8551 277.3114 293.4656 276.5863 295.9728 275.1972 295.4462 274.1477 294.7058 274.7774 299.1594 275.4224 301.3576 274.4797 304.3342 271.4267 306.9293 271.1558 309.1198 264.5499 314.8671 255.1848 315.5006 250.2619 318.3513 248.0713 320.6868 246.4036 325.793 246.9875 333.6163 244.3848 339.6383 243.8887 342.657 239.0535 346.5686 236.9088 350.1559 235.3251 353.8042 233.9436 355.4032 232.3102 363.5814 230.0548 368.5464 229.4442 370.1912 228.8909 371.6795 227.143 374.5951 226.0134 376.5986 225.1968 377.9152 219.4838 390.6386 215.0303 396.3859 211.5346 395.7257 209.2143 397.9505 208.9663 399 207.7298 398.4085 204.8104 396.3095 198.8112 391.9896 192.8121 387.6696 186.813 383.3496 180.8138 379.0334 174.8147 374.7134 168.8156 370.3934 162.8164 366.0734 156.8173 361.7534 153.2987 359.2195 151.7417 357.7235 150.5205 354.7392 149.929 353.9988 148.33 353.06 146.4524 352.854 145.9105 352.2892 145.9295 350.8504 146.5821 348.7782 148.7879 344.8131 149.0283 342.4852 148.5933 339.8368 147.9025 335.6007 147.3034 334.639 143.3307 332.418 134.9998 327.7698 126.6689 323.1178 118.3381 318.4696 110.0072 313.8176 101.6802 309.1656 93.3455 304.5174 85.0184 299.8692 76.6914 295.2172 68.3605 290.5652 60.0297 285.917 51.7026 281.265 43.3718 276.613 35.0409 271.9648 26.71 267.3128 18.3792 262.6646 10.0521 258.0126 6.9228 256.2648 4.1026 254.7879 1.1259 254.7879 Z"/>
</g>
</svg>