<?xml version="1.0"?>
<svg xmlns="http://www.w3.org/2000/svg" version="1.2" baseProfile="tiny" width="500" height="24" viewBox="0 0 500 24" stroke-linecap="round" stroke-linejoin="round">
<g id="ne_50m_admin_0_countries-Kiribati">
<path d="M 496.4206 2.1324 496.3303 2.1799 496.303 2.1722 496.4105 2.1045 496.4101 2.1129 496.4206 2.1324 Z M 496.2419 2.2436 496.1365 2.2987 496.1082 2.2695 496.1465 2.2683 496.2172 2.2153 496.303 2.2112 496.2933 2.2403 496.2419 2.2436 Z M 496.4907 3.9622 496.4976 3.9952 496.4163 3.9056 496.368 3.8478 496.3709 3.8225 496.3928 3.8384 496.4199 3.8667 496.4376 3.8891 496.4907 3.9622 Z M 496.5058 4.1452 496.4543 4.1513 496.493 4.1307 496.5036 4.1025 496.4976 4.0141 496.5177 4.0211 496.5248 4.0577 496.5284 4.1107 496.5058 4.1452 Z M 496.5107 5.1491 496.5873 5.2057 496.5773 5.2445 496.5515 5.2887 496.4513 5.4025 496.4211 5.392 496.5189 5.2894 496.5567 5.2211 496.5004 5.1692 496.4781 5.1808 496.4692 5.1808 496.4497 5.1321 496.4692 5.1321 496.5107 5.1491 Z M 498.6148 7.7365 498.5687 7.7754 498.5511 7.74 498.5734 7.6964 498.535 7.516 498.471 7.4913 498.4328 7.4372 498.4513 7.4372 498.5151 7.4867 498.5665 7.509 498.5958 7.6281 498.6148 7.7365 Z M 498.9919 8.3212 499 8.3946 498.9673 8.3847 498.9566 8.3562 498.946 8.2823 498.9115 8.2097 498.9504 8.2292 498.9825 8.2859 498.9919 8.3212 Z M 496.5187 4.6802 496.4801 4.6855 496.5047 4.6564 496.6683 4.6242 496.6825 4.6154 496.709 4.6331 496.7084 4.6498 496.6964 4.6582 496.6156 4.6588 496.5519 4.6741 496.5187 4.6802 Z M 491.5471 7.8391 491.5337 7.8423 491.507 7.8276 491.5107 7.809 491.5294 7.8008 491.553 7.8146 491.5471 7.8391 Z M 4.3164 13.0247 4.3253 13.0344 4.3458 13.0317 4.3643 13.03 4.3531 13.0397 4.3154 13.0436 4.2968 13.0189 4.3197 13.0002 4.3402 12.997 4.3423 13.0023 4.3411 13.0081 4.3316 13.0081 4.3161 13.0126 4.3164 13.0247 Z M 5.9265 11.0635 5.9199 11.0746 5.91 11.0656 5.9171 11.0487 5.9229 11.0344 5.9324 11.042 5.9265 11.0635 Z M 5.7154 12.9568 5.7014 12.9633 5.685 12.9611 5.6747 12.9515 5.6744 12.9364 5.6881 12.9256 5.7066 12.9292 5.7173 12.9428 5.7154 12.9568 Z M 1.0397 13.2585 1.0566 13.2774 1.0567 13.2864 1.0486 13.2849 1.0242 13.2792 1.0165 13.2678 1.0343 13.2752 1.0418 13.2735 1.0253 13.2569 1.011 13.2445 1.0002 13.2394 1 13.2331 1.0134 13.2362 1.0397 13.2585 Z M 28.9203 12.4215 28.9163 12.4298 28.8992 12.4184 28.8656 12.3974 28.8371 12.3743 28.8365 12.3645 28.8765 12.351 28.9275 12.3403 28.9387 12.3553 28.9292 12.3758 28.9203 12.4215 Z M 33.4447 22.9041 33.433 22.9267 33.4104 22.9188 33.3972 22.8901 33.3927 22.8589 33.401 22.834 33.416 22.8352 33.4326 22.8661 33.4447 22.9041 Z M 27.6265 14.615 27.5933 14.6224 27.5544 14.6221 27.5351 14.6035 27.5341 14.5879 27.5472 14.5877 27.5595 14.5905 27.6144 14.5932 27.6285 14.6043 27.6265 14.615 Z M 25.5189 3.9482 25.7561 4.1131 25.6558 4.1247 25.4078 4.0451 25.1813 3.8819 25.249 3.8465 25.2822 3.9052 25.3853 3.96 25.4461 3.8453 25.4861 3.8191 25.305 3.7005 25.3767 3.7065 25.5478 3.7871 25.5189 3.9482 Z M 22.6721 1 22.7857 1.1202 22.7637 1.181 22.6817 1.1754 22.644 1.1543 22.7082 1.1438 22.7188 1.1214 22.6895 1.086 22.6505 1.0613 22.6234 1.0613 22.6169 1.1096 22.5723 1.0717 22.5981 1.0342 22.6293 1.0093 22.6721 1 Z M 5.0534 10.5374 5.0999 10.5647 5.136 10.6013 5.1531 10.6522 5.152 10.6649 5.125 10.6645 5.0919 10.6486 5.0681 10.6277 5.0555 10.6219 5.0524 10.617 5.0808 10.6202 5.1136 10.6421 5.1376 10.6518 5.1359 10.6269 5.1067 10.5832 5.0889 10.5681 5.067 10.5555 5.0415 10.547 5.0241 10.5548 5.0146 10.5587 5.0106 10.5484 5.0141 10.5395 5.023 10.5303 5.0534 10.5374 Z"/>
</g>
</svg>