<?xml version="1.0"?>
<svg xmlns="http://www.w3.org/2000/svg" version="1.2" baseProfile="tiny" width="305.62" height="250" viewBox="0 0 500 409" stroke-linecap="round" stroke-linejoin="round">
<g id="ne_50m_admin_0_countries-Kosovo">
<path d="M 91.9764 126.1631 127.955 117.5001 133.1472 111.3908 124.9356 98.2409 129.761 90.0152 172.7942 66.5657 179.877 55.9414 182.5014 47.5887 176.7166 38.7705 168.6461 24.887 172.5402 19.0457 194.9175 11.0317 213.062 1.7196 223.8132 1 230.5292 7.6878 230.5292 14.6154 236.4833 26.3261 249.8589 32.6188 272.0951 42.9186 297.915 49.945 318.1477 64.0119 345.7736 89.0981 349.9499 101.5143 374.8104 112.6465 397.8931 125.1191 394.3094 148.2723 472.8697 168.4768 490.5909 168.3357 499 171.8489 498.7743 177.1398 492.5662 193.3373 460.3124 243.1006 457.6599 253.4427 434.5772 264.2644 431.3885 270.5007 437.9352 284.2573 443.9739 293.8798 443.4942 293.8374 393.999 301.8797 377.2936 311.3188 367.4172 327.8125 364.2567 336.3909 355.509 336.6449 340.9764 328.137 322.6062 314.832 298.7051 315.9043 217.323 344.8706 209.3089 360.0945 207.5029 393.0537 201.9721 401.9425 193.2808 407.6426 159.6444 404.0589 156.0888 401.9002 160.4909 389.2583 158.7414 361.6183 143.5598 315.8479 132.7522 300.8497 110.4595 285.9504 93.1052 276.1727 61.9802 267.4531 46.1496 242.3387 22.3896 213.7957 10.9611 207.2631 12.7953 204.4271 18.2697 182.9105 11.4691 167.221 1 153.8737 8.1675 145.775 30.0368 145.8596 48.1249 147.3411 54.6434 134.5722 91.9764 126.1631 Z"/>
</g>
</svg>

