<?xml version="1.0"?>
<svg xmlns="http://www.w3.org/2000/svg" version="1.2" baseProfile="tiny" width="500" height="410" viewBox="0 0 500 410" stroke-linecap="round" stroke-linejoin="round">
<g id="ne_50m_admin_0_countries-Kuwait">
<path d="M 455.4578 124.2594 440.5704 130.0871 430.5183 127.6186 420.8479 113.5838 404.9172 78.7576 413.5951 65.7662 413.2643 60.1803 414.9948 55.9813 419.8809 53.3092 425.0215 36.895 431.8416 31.8689 443.0389 42.9517 474.4423 82.9948 474.2132 99.3327 472.3555 105.9111 455.4578 124.2594 Z M 499 406.0624 453.7273 406.6859 396.621 407.4748 350.3304 408.0092 298.0339 408.6072 275.054 383.8968 267.2667 356.9088 258.9451 329.2082 235.9906 289.6741 159.2637 280.1309 118.4699 275.054 51.3879 267.5085 1 261.8717 43.2953 219.2838 62.9923 196.4056 98.5692 146.883 116.8412 111.6115 134.4769 72.4846 149.6951 41.9974 152.9016 36.4369 161.7322 26.1049 181.2766 15.5438 209.448 5.5934 257.2655 1.2163 290.8574 1 298.4156 1.4453 319.5632 6.3951 378.1455 30.8383 376.8222 40.4578 385.1692 69.1509 403.8484 100.4778 419.1683 125.8754 421.077 137.7725 407.004 136.042 396.2902 131.245 375.7788 126.2444 336.1302 159.9381 312.1069 178.2991 311.4197 184.534 343.383 191.6468 366.8464 191.4178 383.2097 186.4808 397.1046 194.3443 406.1896 215.1611 409.8542 232.0334 431.5872 292.3207 449.6046 312.6794 472.101 348.638 480.4481 367.2536 485.2324 382.9552 499 406.0624 Z"/>
</g>
</svg>