<?xml version="1.0"?>
<svg xmlns="http://www.w3.org/2000/svg" version="1.2" baseProfile="tiny" width="500" height="184" viewBox="0 0 500 184" stroke-linecap="round" stroke-linejoin="round">
<g id="ne_50m_admin_0_countries-Kyrgyzstan">
<path d="M 79.1509 136.6759 80.6253 135.952 85.3221 135.2126 94.8217 134.5041 98.0529 135.0338 101.7256 136.5347 104.5729 138.0267 107.2877 137.9693 109.5213 137.6581 110.4704 138.0708 111.1899 139.3995 112.3509 140.587 115.975 138.9736 119.2637 136.8812 121.8549 136.581 124.2474 135.7842 124.9449 134.3871 126.821 132.0718 132.1844 127.6465 134.9698 126.9313 136.7752 126.9335 136.8591 127.6465 137.7331 128.2976 142.4211 129.3173 143.847 128.1541 144.6018 126.5407 142.9641 123.9804 142.9332 122.9077 143.5468 121.9277 144.4252 121.3428 151.9031 123.7707 153.5584 123.7221 156.9707 122.3581 160.1004 119.9589 161.2305 118.074 176.557 111.9426 177.6429 110.8302 177.4266 110.0223 171.0038 108.5943 168.108 109.3933 165.4241 109.3977 163.8129 108.5016 156.0084 108.1507 154.2956 107.5238 149.1221 103.0985 145.5685 101.4144 142.7081 100.3064 139.5827 100.4654 135.8836 101.6263 134.7182 101.0988 134.418 99.2492 134.4312 96.9163 133.6764 94.4178 131.4692 93.8373 128.622 94.8239 124.3755 93.8152 120.7646 93.4554 119.8331 88.1958 118.3764 85.9511 116.8711 83.5961 115.2996 82.9229 112.7217 81.7487 112.5672 78.9655 112.0198 78.1775 111.106 77.8067 109.8656 78.1246 108.2721 79.5217 109.0578 82.5874 108.4531 85.662 107.5172 87.207 105.7118 88.3459 103.6503 88.3724 100.0747 86.8163 99.5097 96.1217 98.8166 96.6933 94.5568 95.3779 91.149 95.9451 86.0549 95.3713 82.2232 93.8373 79.3584 93.4113 74.741 92.1047 71.214 90.4052 69.0421 84.1655 66.9851 81.9385 65.0428 81.4618 57.1544 83.6182 54.2807 81.9496 48.957 79.813 44.9268 79.0162 43.8453 77.8619 44.0262 76.4405 56.4128 69.4968 61.2906 64.7161 64.363 62.6966 68.7419 61.3524 72.1586 60.5644 73.9023 56.181 74.5688 55.6756 76.9967 55.3512 82.5058 53.5523 91.3785 49.7053 91.5507 48.648 90.6634 47.7365 86.9245 45.7677 82.6779 44.2006 80.1 45.0195 78.6432 45.8273 76.2065 43.7923 76.2065 41.6999 78.8949 38.1111 81.1373 36.3167 82.0776 32.8647 85.2779 30.556 88.6152 26.8987 92.6498 23.9103 100.1277 21.6678 104.2948 22.4006 108.2059 21.8708 114.2623 20.0521 115.4277 19.9352 117.9703 19.9043 133.566 22.6831 138.7175 22.8199 150.8039 26.433 156.3615 27.2166 160.2858 28.2341 162.0692 29.7901 164.9032 31.7037 180.0796 33.2531 184.2423 34.2817 185.7387 35.9591 190.0603 38.0934 193.7375 38.579 190.5238 30.2404 191.804 25.2897 196.5979 11.74 199.1185 9.7006 203.9345 7.8929 211.505 5.8734 214.3611 3.0504 220.5544 3.3396 223.2515 3.0924 225.1011 2.5869 226.1076 1 233.1042 3.7545 244.7845 9.3254 253.6131 12.8524 264.0132 16.1874 278.4127 19.2355 290.5918 20.2464 292.6753 19.5291 297.5487 14.8984 299.8441 14.691 303.998 15.0971 316.9231 15.3134 330.0777 15.5319 336.2842 15.0838 349.7346 13.1548 351.7255 13.0599 354.8552 13.1923 362.9113 15.8144 368.9236 16.1852 373.0245 16.172 375.4171 16.3839 380.4008 16.2845 388.5011 16.6024 398.5127 18.3063 410.577 17.9973 414.4616 17.675 421.1625 17.984 426.4994 19.6085 433.2445 21.3213 437.4778 22.0408 440.3162 22.4116 445.375 22.5418 448.3944 22.0033 450.1204 22.7581 451.8464 26.9627 456.0267 29.7283 459.2933 32.3327 462.0258 35.2131 464.8244 36.3851 469.7199 36.427 478.9855 37.2481 484.3048 38.3936 491.094 43.3729 497.3358 48.4781 498.2319 51.1995 499 54.3646 498.5012 55.1039 497.6448 55.6028 483.7883 56.3907 480.6586 57.2603 477.2993 61.6393 465.4469 65.1597 458.6886 66.9652 455.9384 66.8857 449.3788 69.7639 431.0329 76.9548 422.0189 81.4971 417.4854 83.3974 413.848 85.4722 413.2344 87.5712 413.1197 89.5488 403.0462 98.8519 395.4978 99.9798 389.1147 99.7569 384.7798 101.1717 378.5601 102.5975 365.1008 101.6219 360.4923 101.7852 351.6593 100.5007 348.0925 101.1783 344.3095 103.0698 339.0829 110.4925 336.9464 112.2317 335.9841 113.9224 335.1851 117.5333 333.1854 121.3517 330.6074 124.3644 328.7667 127.1543 324.9792 129.8536 321.461 131.5509 318.7374 128.0018 316.3757 129.0127 314.1421 130.4562 309.8779 129.9551 307.2558 130.6835 301.2744 133.7669 292.4678 133.6499 291.5099 132.5905 289.7663 124.1216 288.2345 120.1112 286.972 119.2129 285.4005 119.107 272.7535 125.7638 266.8913 126.9468 262.0621 127.1543 255.7849 125.1656 254.4077 125.6578 253.3218 126.7349 252.8759 128.1033 254.7079 131.8798 254.1958 132.6236 251.3618 132.5618 247.3889 133.4336 244.3696 135.1706 235.2761 141.2712 227.6261 143.3128 220.5058 144.114 217.5835 144.7894 216.2769 145.5244 213.8888 148.4312 211.4388 152.9912 210.1587 155.2182 209.214 156.5072 209.4127 158.1935 211.3461 160.3763 212.7984 165.2608 212.4585 166.5255 210.9047 168.5693 208.6534 170.5734 203.8065 171.7807 200.0058 172.3855 197.472 171.9904 192.7178 171.8557 188.9656 172.6636 186.6481 174.0364 182.0749 175.7447 176.3936 176.3164 169.1674 176.5349 165.689 176.3848 155.1785 175.2283 151.7177 175.6256 148.4114 176.5217 142.4211 177.4487 139.234 180.3025 137.5433 182.9268 136.6472 183.2954 132.9127 180.8896 130.0567 178.6339 128.185 176.7578 125.8454 176.813 117.4803 180.2186 116.2443 180.1105 113.8517 178.8171 114.2888 175.6013 114.1475 173.5552 111.4548 172.4671 105.7427 172.1956 103.8004 171.0325 103.9151 169.3021 104.436 167.6401 103.7871 166.3599 102.3083 165.3888 99.3243 165.6514 95.8988 166.9691 93.3826 168.4788 90.2131 169.1785 86.3859 169.461 83.989 170.3725 81.2698 174.0585 71.9776 174.8332 68.9847 173.9945 66.5216 171.3724 63.3212 167.1633 61.5201 166.6446 58.5008 166.126 53.57 166.3732 46.9132 168.1477 45.3064 166.6844 43.5804 166.2694 42.031 167.4723 40.4418 167.3355 33.8557 167.6754 25.5435 167.5099 20.7938 166.6888 17.7126 166.7396 11.5855 168.6245 8.341 168.6068 4.0988 168.9533 3.3131 162.5769 1 158.2729 1.7063 155.2888 3.2469 151.1902 4.5314 148.8947 7.1624 149.8659 10.1685 151.5521 12.1726 151.1019 12.6979 149.7136 11.9342 147.8971 11.8327 146.5353 12.9584 144.7453 14.6137 143.0745 25.2345 140.331 34.3457 138.3313 39.0778 139.6644 48.2507 142.7346 52.974 144.3149 56.2495 145.2485 59.132 149.7379 61.0169 149.5304 62.9327 148.6254 64.0584 147.5197 64.9721 143.7013 69.2319 141.5449 78.6256 138.9934 79.2833 137.4992 79.1509 136.6759 Z M 90.3676 152.3291 90.7958 151.6868 89.1537 148.3849 91.3873 145.2971 86.9377 144.7762 84.682 143.8624 82.1394 140.7305 81.2962 140.5892 79.9764 141.45 79.2701 143.496 79.8925 145.7164 81.7024 147.2129 82.903 147.7029 83.0752 147.811 83.0222 148.5438 81.5788 152.2143 83.9536 152.6756 88.1119 152.7418 90.3676 152.3291 Z M 116.2929 149.7224 116.7564 147.6852 115.644 147.7779 114.3417 148.3341 111.8432 148.8903 111.287 149.91 112.9556 151.2056 115.0833 151.6713 116.2929 149.7224 Z M 67.5633 155.3705 67.4088 154.4413 65.8682 154.0065 61.4804 153.5033 58.3463 152.7881 57.6709 152.7749 57.9622 153.6644 59.2909 155.2403 61.1405 156.9243 63.5154 157.112 67.5633 155.3705 Z"/>
</g>
</svg>