<?xml version="1.0"?>
<svg xmlns="http://www.w3.org/2000/svg" version="1.2" baseProfile="tiny" width="352" height="400" viewBox="0 0 352 400" stroke-linecap="round" stroke-linejoin="round">
<g id="ne_50m_admin_0_countries-laos">
<path d="M 94.4183 6.3876 96.9976 10.8051 102.4917 15.719 109.0511 22.7294 111.1318 25.9502 115.5425 28.4321 116.8028 30.8709 117.8046 34.6039 118.2488 37.385 119.2325 39.0282 120.7783 39.6742 122.7865 38.9398 124.296 37.4666 125.5562 33.3687 126.3767 32.9312 127.7366 36.3016 129.1736 36.8818 131.1002 37.3147 132.5825 38.7812 133.0267 41.3401 132.5372 43.9603 130.7239 46.9045 129.6994 49.987 128.9923 54.7423 128.0131 58.065 129.5272 61.0047 139.772 75.4382 144.704 77.8067 156.4402 80.6286 160.6696 82.5778 164.4004 84.4704 168.0858 83.5479 171.6171 79.2505 175.8646 76.8411 183.7567 73.1376 186.046 72.9381 190.4068 74.4023 197.5691 78.7133 202.7595 82.7682 205.9599 84.8919 208.4123 86.8095 208.0406 88.9649 206.0687 91.0706 203.5574 92.2446 200.2709 94.28 198.4123 96.338 199.5456 97.1109 204.3733 97.6254 210.0669 99.4432 211.8121 101.5783 212.066 103.412 212.7641 106.397 213.775 107.2968 219.0651 106.7619 220.697 107.4306 222.5919 108.9786 224.4731 112.9836 224.4142 115.9868 220.6018 119.2801 219.1784 121.2837 218.5574 124.4342 215.8375 128.2126 208.6299 134.5249 206.6988 134.9057 193.4032 131.4266 187.2427 131.6419 184.2554 131.7552 182.8275 131.9071 181.9662 133.2375 183.7341 137.0589 184.2599 140.8464 182.6189 143.7294 178.1856 146.2543 176.531 147.4647 176.3088 149.0898 177.5509 150.7829 181.6353 152.5282 186.3814 154.1692 202.0342 163.9969 205.3842 166.3065 209.8085 169.7154 214.6 172.3718 227.4423 175.8578 233.1041 178.1538 234.5593 179.448 234.5094 181.0346 233.0271 183.0654 231.7986 186.6307 231.7442 188.7726 233.0769 190.8533 235.339 193.9426 240.4432 198.7409 243.2402 200.8624 246.3272 201.3452 249.029 202.5034 251.8304 206.071 255.0761 210.4227 255.5022 213.4599 256.8758 217.3516 259.854 221.8348 263.9429 226.1708 269.6637 231.5448 272.9502 235.3367 274.4687 236.8077 286.69 246.0212 289.6547 249.4143 293.952 255.9669 295.7789 256.9279 297.4924 258.2153 298.5939 261.8123 298.9521 264.3917 299.5323 272.2974 301.7354 274.6478 303.7708 277.5331 304.6502 279.6365 306.4906 281.1981 308.5079 281.4973 310.924 279.743 312.8188 278.0748 313.6847 278.5689 315.6203 284.0971 317.3791 286.112 320.6883 288.0295 323.8343 289.5141 330.6883 296.1755 334.3602 298.603 336.8488 299.3759 338.9975 300.5069 339.6367 302.6035 338.7935 304.7476 337.3384 306.137 329.3647 309.9947 328.2994 311.672 329.3964 314.2354 331.3955 317.4471 333.5669 320.2033 336.323 322.905 341.9304 327.2998 346.7899 330.745 349.4554 334.5392 350.9151 337.0755 350.013 340.1104 347.9685 343.4241 346.3729 346.2754 343.6349 347.9277 342.896 349.8566 344.0247 352.8258 344.945 354.8725 344.4463 357.3997 344.7092 362.6127 342.1888 364.4736 339.8498 369.213 338.2314 369.5643 334.1834 367.844 332.7736 368.7846 330.1897 372.2297 325.6747 375.999 323.4943 376.0421 321.9984 375.582 320.235 377.1912 317.7237 380.1468 316.5677 380.0516 312.2386 380.7338 310.5477 379.7864 308.4444 377.3431 305.0672 374.8567 301.9938 373.0888 300.3437 371.8966 298.8342 369.8385 297.4561 368.5013 294.9267 371.4342 290.6565 374.2311 286.6175 373.7007 284.641 373.2361 283.0318 377.3249 281.8486 378.057 274.5685 378.7619 273.1995 379.4192 274.369 383.1387 278.6664 389.4419 279.9674 393.0616 277.2793 399 269.7453 398.8459 266.3545 396.4275 263.2266 393.0639 262.0979 391.398 252.4333 388.0933 245.9872 390.3712 244.0153 390.2556 240.9827 387.8463 239.1649 386.033 237.3698 383.3019 236.3725 380.5299 236.2683 379.2697 239.0697 378.2656 243.6436 375.999 247.3789 373.4491 249.8358 370.7338 250.8467 367.9233 250.9782 364.6481 252.0389 356.1961 253.1359 352.0574 252.5194 346.9917 250.5249 343.0003 250.5249 337.012 251.2411 334.0859 251.5811 332.1707 254.3916 329.7409 256.3363 326.2572 257.4152 321.7241 257.5149 318.4467 256.6355 316.4317 253.8658 314.5142 249.2057 312.6964 246.2774 310.4004 245.0851 307.6239 245.1939 305.1873 246.6173 303.0863 243.1087 300.7449 234.6635 298.161 229.9491 295.0649 228.9564 291.4566 225.4341 286.724 219.3734 280.8695 216.1821 272.4447 215.8557 261.4519 216.5719 252.5036 219.2192 242.1454 215.6744 234.6545 211.7849 230.7061 206.3724 227.8027 201.2137 223.639 196.318 218.2152 190.4476 210.2052 183.6026 199.6068 179.0015 194.8583 176.6443 195.9576 171.6987 194.9739 164.1511 191.9073 157.5735 190.255 151.957 190.0147 148.3033 190.7083 146.6079 192.3288 146.4765 193.9313 147.8999 195.5088 147.1383 196.7396 144.1918 197.6213 141.8164 199.3733 139.1555 203.2491 137.306 208.3421 134.5227 210.3049 130.2162 210.7378 125.9823 212.1929 121.8118 214.668 119.8445 216.547 120.0711 217.8298 119.169 218.1154 117.1337 217.4015 116.1727 215.7174 116.2724 213.0655 114.1509 211.2863 109.7991 210.3797 104.8354 207.5329 99.2551 202.7505 95.3838 200.2029 93.2125 199.8878 90.1073 201.7826 86.0638 205.8828 82.7229 207.5102 80.0846 206.6648 78.0492 208.1154 76.6258 211.862 73.9966 214.7995 68.2486 217.9976 67.8497 218.3761 61.2858 222.7211 55.9957 227.0728 49.8578 232.9206 46.9657 233.8249 44.205 232.4128 40.0346 230.9668 37.836 228.9813 42.0382 219.081 47.342 208.1086 48.7653 203.0451 48.9875 199.3529 48.4662 196.3497 46.39 193.2083 44.4317 190.7717 44.264 189.1489 44.8895 187.4308 47.0201 184.8991 49.7672 180.9644 52.3193 172.866 55.3746 164.3074 55.0754 159.1193 52.6004 153.428 51.254 148.0245 52.3329 140.6582 51.9204 137.7933 49.264 136.3608 40.5287 134.8944 37.7227 135.146 35.5015 136.0889 33.1171 138.0902 30.1977 139.3527 24.6991 140.044 19.5041 137.5553 15.166 133.3305 14.1233 128.1491 17.3056 121.9841 19.5495 116.9977 20.8731 112.7116 20.7281 110.6831 19.7807 108.5684 18.4842 108.2828 15.6963 105.6536 12.9855 101.0275 10.4243 98.9151 8.0127 99.314 5.787 101.0638 3.7471 104.1667 2.1514 105.436 1 104.8671 1.349 102.1291 1.6845 99.5497 4.2004 89.4817 7.2376 82.9291 10.8006 79.8919 14.5767 78.6136 18.5658 79.0896 21.8976 78.5275 24.5812 76.9273 24.3364 76.0139 21.1633 75.7827 19.9076 74.0329 20.5513 70.7623 21.9656 68.6362 24.1506 67.6548 26.263 64.357 28.3029 58.7405 30.787 55.8959 33.7064 55.8234 38.72 53.4095 45.8143 48.6543 48.5296 44.0668 51.2132 46.1747 50.225 51.492 51.6257 52.6162 52.2921 54.5133 51.9159 57.4938 52.5006 60.0233 53.5886 61.2495 55.148 61.8615 62.6729 59.6947 67.2604 59.5337 69.187 60.9594 70.9413 61.8479 73.1172 62.5347 74.799 63.439 75.8824 63.1489 78.4527 60.9322 79.246 60.5401 79.314 59.4544 77.5052 57.4621 75.6421 55.7894 75.7011 52.0723 76.5941 45.6284 76.7709 42.2898 76.6168 34.2957 76.2722 32.0427 74.5587 29.4452 70.071 24.4679 68.8107 21.4239 68.09 18.3777 68.1625 16.4511 67.0247 14.248 66.4309 12.2149 68.4436 11.161 70.8597 8.7901 72.0791 5.1705 73.2532 2.5299 74.9259 1.4034 76.3765 1 77.3602 1.2289 81.1589 5.957 85.9686 3.5929 89.6358 3.602 92.7501 4.8531 94.4183 6.3876 Z"/>
</g>
</svg>