<?xml version="1.0"?>
<svg xmlns="http://www.w3.org/2000/svg" version="1.2" baseProfile="tiny" width="300" height="100" viewBox="0 0 500 168" stroke-linecap="round" stroke-linejoin="round">
<g id="ne_50m_admin_0_countries-Latvia">
<path d="M 387.5461 167.0135 384.0342 166.6752 374.209 164.4997 365.9063 161.2686 360.9396 156.9955 352.3459 151.122 346.7093 148.1244 337.8517 144.3689 323.0801 136.7124 317.7141 134.9564 291.4662 131.6137 281.9725 130.0912 273.2368 121.4163 270.4083 116.3853 266.1114 115.4853 261.4154 116.5443 256.3065 117.5559 244.4919 123.4463 240.6552 124.2921 233.3269 124.3666 216.2005 125.6658 208.4053 123.5174 194.8584 121.1626 187.5165 120.7904 181.0002 120.8445 152.1201 118.5371 146.8489 121.0644 141.5235 121.5212 136.347 117.6168 129.9254 116.5071 122.8339 117.8334 109.9231 117.9856 94.6101 116.7541 75.1154 115.7932 72.226 116.206 50.5862 121.3892 45.2473 122.1809 21.7669 130.9404 3.1586 139.1213 1 126.0346 2.1436 99.8678 4.9044 86.8995 17.8016 79.3445 24.2706 73.4609 28.0329 65.6082 29.1697 58.3442 31.7816 52.3421 50.4576 35.1209 65.2631 33.2601 85.2924 28.4828 107.6834 24.5007 112.0073 29.5655 114.1997 33.4327 141.1648 47.5175 148.0263 52.2474 158.4537 68.4671 183.4295 76.692 203.0664 74.097 211.5991 70.1046 227.3249 62.7459 234.3487 57.3596 235.7765 52.1662 232.9886 29.9715 228.7323 20.3527 230.1872 14.3608 232.9548 14.6687 239.6335 11.7793 261.5913 6.4167 265.9761 6.1765 270.9835 5.0769 284.8213 1 289.267 3.1687 292.9751 5.6318 295.0254 5.6622 296.0201 4.7454 295.7427 3.162 296.7103 2.0353 300.6891 2.6612 316.7126 9.3602 322.8703 10.9267 327.0792 11.3665 332.1271 14.5029 345.8025 16.6073 347.4739 18.2313 348.5227 20.2546 361.3185 28.7637 367.0702 33.0368 378.4382 36.9581 383.3237 37.8919 403.2178 33.8928 408.7664 32.5022 413.3542 32.4786 418.0232 34.583 428.674 37.3844 438.3368 38.2742 440.0961 38.0915 448.2567 38.3757 451.1258 39.4753 453.034 44.9056 462.3246 49.1787 470.9251 52.7244 473.1242 54.362 473.7941 57.522 473.2393 61.2098 472.1498 63.1214 468.5635 65.324 465.417 70.8997 464.9839 76.2048 460.0172 85.3804 461.1405 85.5496 471.5611 83.8951 474.5114 84.8425 476.7918 86.8691 477.5226 92.6275 480.9398 95.2158 484.4178 99.2622 485.5208 102.4121 492.1454 106.1642 492.6799 108.5901 496.7264 117.1702 498.2827 122.1099 499 125.9331 497.0106 130.7882 495.2513 134.0734 493.1671 133.8738 487.2192 134.7399 477.8135 138.6984 463.8133 148.0263 460.2134 150.0935 456.5527 157.1985 455.673 157.9191 447.5259 157.5909 445.3065 157.4218 437.1323 157.5639 419.3495 155.7166 412.4543 156.938 403.4072 164.1242 399.9021 165.1798 389.3934 166.1745 387.5461 167.0135 Z"/>
</g>
</svg>