<?xml version="1.0"?>
<svg xmlns="http://www.w3.org/2000/svg" version="1.2" baseProfile="tiny" width="800" height="1077" viewBox="0 0 800 1077" stroke-linecap="round" stroke-linejoin="round">
<g id="lb-all">
<path d="M 644.4333 123.4644 650.5764 126.635 662.367 122.5726 692.884 121.9781 700.3151 124.3561 709.8269 143.4788 726.4726 152.8915 734.5972 162.3042 742.5237 163.1959 754.4135 174.6893 751.441 197.1808 747.6759 209.0705 752.2337 219.1768 770.3655 241.2719 781.7599 243.0554 783.9397 256.5304 775.2205 272.3834 782.0571 293.785 795.5322 306.2692 799 313.1058 784.336 330.445 772.5453 351.8465 749.0631 373.3472 738.9568 387.1194 732.6156 410.2054 716.4654 415.5557 698.5317 411.2953 687.2364 417.4383 669.9963 440.9205 649.0901 460.4395 633.8316 483.03 623.0318 506.9086 631.2555 519.1947 647.6039 531.0844 669.0055 534.0569 678.6163 539.5063 680.1026 552.7832 673.7614 561.6014 663.4569 563.6821 642.848 559.4217 614.5108 546.6402 604.999 545.154 596.8743 548.5227 580.9223 560.4125 569.627 561.007 554.3685 547.9282 535.2458 560.5115 507.404 571.6086 495.3161 592.9111 477.7787 608.7641 467.5734 627.5895 457.8634 637.0022 453.4048 648.3966 453.9993 666.4294 442.4068 674.1577 440.7224 688.1281 448.0544 692.3886 460.1423 694.2712 473.0228 701.0087 490.9565 707.6471 500.2702 714.1865 505.2242 721.3203 503.8371 733.4082 495.8115 743.5145 474.6081 756.296 461.8267 756.4942 449.1443 761.0519 443.1994 769.771 450.9277 782.8498 442.8031 803.7559 426.3556 818.519 403.0715 833.2821 390.191 841.4068 382.0663 851.6121 371.7619 873.7072 363.1418 883.8135 349.2704 891.6409 324.7974 897.784 304.5848 920.0772 293.9831 929.0936 277.5356 933.0569 272.8788 938.11 274.4641 952.774 264.0606 945.1448 250.4865 926.0221 244.1453 926.9138 232.9491 951.0896 228.9858 965.5555 228.4904 997.6578 225.9143 1014.2044 211.7457 1043.7306 209.2687 1053.6387 192.524 1055.4222 166.6638 1067.3119 135.9486 1076.031 128.7157 1075.1393 113.9526 1054.5304 104.5399 1048.3874 94.929 1047.2975 74.9146 1054.4313 59.9533 1052.1525 48.0636 1059.4845 4.2697 1057.1065 1 1049.18 9.0256 1034.4169 14.7723 1028.5711 26.7611 1023.3198 37.3628 1003.7018 41.1279 1003.6027 56.7827 967.7353 58.7643 948.3154 47.0728 932.0661 58.5662 923.1487 66.4927 910.8627 76.2026 882.2282 77.3916 856.1699 79.1751 847.0544 92.0556 823.8694 89.6777 815.7447 117.5195 793.4515 131.3909 778.1929 138.0293 750.4502 145.4604 728.7514 157.5483 693.5776 153.9814 689.218 162.3042 681.6879 168.0509 654.8369 177.0673 648.6938 176.4728 640.9655 196.6854 588.0561 198.4688 575.1756 198.7661 548.2255 196.8835 535.8403 191.4341 524.3469 194.2083 519.1947 207.188 518.1048 216.7989 523.4552 233.4445 520.6809 246.3251 517.9066 257.1249 495.0189 257.5212 485.5071 267.4294 463.3129 279.9136 461.5294 281.697 452.9094 274.365 445.7755 273.8696 429.9225 281.9943 401.189 283.7778 380.9764 281.8952 373.3472 273.8696 359.2776 271.888 350.1622 271.3926 327.968 280.7062 316.97 283.8768 273.1761 290.0199 255.7378 302.405 244.4425 311.8177 251.7745 320.2396 238.0022 327.8689 217.0961 334.7055 203.522 364.1326 186.3809 373.149 173.4013 362.9436 157.9446 372.9508 156.2602 415.3576 143.9742 443.2985 115.736 457.1699 103.2518 459.845 94.0372 459.4487 63.5202 453.8011 38.3536 454.6928 30.7244 463.412 33.5977 473.0228 40.9297 484.8135 44.0012 511.2682 41.5242 548.2255 43.0104 560.1152 37.2637 572.6985 43.9022 604.999 41.0288 615.0062 33.0032 618.2759 9.1247 629.1748 1 637.2995 5.9541 650.7745 28.5446 661.8716 37.8582 674.7522 41.8215 688.1281 41.1279 700.9096 36.4711 699.5225 56.9809 695.8565 60.1515 681.886 53.7112 674.1577 58.9625 674.2568 76.3017 672.1761 86.6062 661.9707 95.2262 647.5048 103.6481 638.7857 113.5562 644.4333 123.4644 Z"/>
</g>
</svg>