<?xml version="1.0"?>
<svg xmlns="http://www.w3.org/2000/svg" version="1.2" baseProfile="tiny" width="500" height="441" viewBox="0 0 500 441" stroke-linecap="round" stroke-linejoin="round">
<g id="ne_50m_admin_0_countries-Lesotho">
<path d="M 359.7945 324.6761 340.6239 329.9158 337.9625 330.3732 325.6741 329.1673 309.2689 330.4148 296.3776 333.305 286.3764 334.3862 270.0543 349.4815 240.4043 390.2347 232.5032 398.7596 230.2992 414.7698 223.4169 427.4324 214.9959 437.3296 206.7621 439.7207 181.9983 435.7909 150.3314 430.7176 131.9093 418.4293 115.5248 402.2735 106.8752 390.5258 97.8304 384.0801 94.7324 380.4622 81.8411 375.0354 76.9756 372.2284 72.6924 370.2323 67.4943 362.4144 64.4378 355.636 65.6437 336.7357 56.5574 325.4662 41.0255 306.2332 31.1906 290.4725 17.7587 268.9523 9.5249 250.5302 1 231.4427 2.102 223.2505 10.2526 217.6573 34.1432 208.0512 52.69 200.6283 65.9556 186.9885 80.448 166.7158 87.4966 154.5107 94.5244 148.9383 102.2177 140.3302 115.6496 121.2427 130.5993 100.0552 146.5887 77.2875 166.7782 70.6963 194.349 63.0863 220.8594 43.2087 252.4223 26.45 303.3638 8.2566 327.1088 3.6406 336.1327 1 341.8507 4.4308 347.922 14.8478 356.5717 23.5598 376.678 38.7175 385.2029 42.377 405.9538 64.812 428.1601 80.1984 453.714 97.9136 471.1173 106.7296 479.9749 109.1831 487.3354 124.9022 494.7791 136.5668 499 147.4828 498.1475 158.1286 490.08 184.1607 478.3115 210.7542 468.8717 221.8158 457.3527 228.8021 446.0832 239.3023 441.7792 260.6353 436.685 285.7318 421.9848 296.0657 410.5489 302.844 394.7466 311.161 359.7945 324.6761 Z"/>
</g>
</svg>