<?xml version="1.0"?>
<svg xmlns="http://www.w3.org/2000/svg" version="1.2" baseProfile="tiny" width="393" height="400" viewBox="0 0 393 400" stroke-linecap="round" stroke-linejoin="round">
<g id="ne_50m_admin_0_countries-liberia">
<path d="M 1 156.0741 6.0367 151.8266 13.4408 138.1881 23.802 125.0741 33.4576 117.2986 41.131 109.2956 49.2268 103.168 60.8414 96.0192 78.5974 77.1769 82.766 74.9951 85.607 61.9647 90.0495 45.3553 95.1929 40.2072 107.2856 37.1341 110.1126 34.2514 114.4066 22.5672 117.1547 8.9473 117.3961 5.9949 122.1635 5.6467 130.3058 2.7083 135.0361 4.0267 137.125 7.9492 138.202 11.2498 162.8841 2.7594 165.0473 1 166.3517 1.2971 169.4573 8.9612 171.2352 8.4924 172.73 6.2781 174.3733 6.0645 176.3044 7.0997 178.2401 10.6649 181.3828 13.8679 186.7305 16.124 190.1193 19.2156 189.7433 27.3996 191.0477 35.3608 193.3641 37.1945 194.5989 41.948 195.2256 47.1657 196.5022 49.9092 197.412 55.1687 196.9525 60.8181 197.9087 64.7918 201.8452 71.6435 204.2963 80.2778 204.3148 86.3868 202.8851 92.8208 200.2716 98.707 195.6805 105.1177 195.2952 107.6523 198.0248 109.3096 202.1563 109.6438 205.61 108.3347 214.3603 111.2778 218.9328 115.5021 222.9575 120.7198 226.5737 123.3658 228.2124 126.6617 234.4142 125.7519 241.6188 122.5767 243.0996 121.0819 245.2443 121.885 249.8817 122.2146 253.1265 116.5002 255.7493 109.927 261.3384 102.8106 264.0866 100.0625 264.8107 95.5132 265.1125 89.6456 267.1225 84.5486 271.7367 81.7447 276.7224 81.7865 279.4287 82.8217 280.8028 87.7609 284.8089 91.521 288.2162 94.0927 290.0359 95.1836 292.9001 98.0942 295.6018 108.0376 306.2601 140.1517 305.7169 148.9995 303.6094 154.7929 303.5537 160.4609 302.8435 166.0546 296.3167 175.2228 277.0798 193.9815 278.5699 195.6248 283.1656 197.7602 287.8448 198.8696 291.6885 198.2894 296.4977 202.9779 301.6737 208.8641 307.1653 211.9279 315.0801 214.6203 322.0061 214.922 327.9062 213.8915 336.2109 215.0567 345.0495 219.9309 348.1968 227.9849 350.3136 234.9991 353.3867 238.5596 353.8045 244.6269 360.0945 249.956 369.0538 251.033 380.673 257.2766 383.63 256.947 384.9019 256.1671 386.3317 257.3462 389.2469 275.4086 391.5123 284.9853 390.3193 288.8522 388.7549 291.8974 388.6667 306.4782 383.4025 314.8526 382.553 324.0393 381.0676 327.0149 375.446 329.6609 375.4042 336.7169 373.9094 345.2444 373.3245 354.2965 374.8982 377.9898 375.1907 395.6623 377.7206 399 366.7838 397.5285 334.628 384.0385 309.8345 376.3094 226.8244 332.1351 203.7624 314.4116 177.1771 288.0166 118.046 234.8784 104.5653 226.3509 87.5567 222.2055 77.0469 217.6841 69.6335 212.7727 63.6034 198.0434 48.8183 189.2698 21.5274 176.8289 1 156.0741 Z"/>
</g>
</svg>