<?xml version="1.0"?>
<svg xmlns="http://www.w3.org/2000/svg" version="1.2" baseProfile="tiny" width="500" height="432" viewBox="0 0 500 432" stroke-linecap="round" stroke-linejoin="round">
<g id="ne_50m_admin_0_countries-Libya">
<path d="M 7.5549 93.8247 11.3036 92.1606 16.6304 90.277 19.3844 88.8601 20.5634 87.6643 24.5638 82.7995 26.6454 80.0993 29.4885 76.4135 30.735 73.8438 30.7657 71.4582 30.3358 68.5876 28.113 61.7072 26.2985 55.0172 27.7108 52.4383 28.8468 51.2025 31.3183 48.0632 32.3069 47.4384 37.6429 46.4575 39.7767 44.3667 41.407 41.7509 41.8276 40.3739 44.1579 38.9324 46.9426 37.4925 48.665 35.6227 54.2865 32.7291 59.4138 30.0871 65.3792 27.3055 69.9999 25.1533 70.9731 23.2774 70.9056 21.6548 68.3941 17.9568 68.3941 13.5832 68.5599 9.9466 68.8117 7.7974 69.92 1.829 69.9876 1 74.7832 2.9818 79.6986 3.7739 94.362 11.167 98.9888 12.0927 109.2525 12.9738 121.3429 9.9466 125.9145 9.4032 133.8632 12.2446 137.3664 13.0444 143.2642 13.2655 153.3345 15.8445 155.8951 16.741 161.7653 20.8581 164.5807 22.0908 185.4305 25.861 188.2704 28.3602 191.1687 33.1389 191.2946 39.0644 192.8972 43.3704 195.4854 48.949 198.6109 52.9003 202.0741 56.1916 206.0438 58.2486 215.1869 61.2835 225.4967 62.4517 235.8893 62.8463 253.7364 67.0356 268.8664 71.8742 272.6029 74.2536 280.1832 76.5993 295.2549 87.9682 303.6365 91.9058 309.5252 92.6703 314.8059 91.9795 324.1793 88.0281 328.06 85.6825 337.4886 75.8639 340.5803 70.7382 341.8207 67.1261 341.5106 63.4511 340.3378 60.1491 337.7036 56.6874 335.8553 52.1174 334.7592 43.8954 336.2391 38.1879 338.0474 34.7677 340.8935 31.2815 348.7256 24.616 356.6007 19.9186 370.4719 13.7767 378.5343 13.7091 381.8654 13.0337 388.5063 8.6909 391.1927 8.5281 394.9046 9.592 405.8438 9.2896 410.6609 10.4962 416.4083 13.1979 423.6602 14.8773 428.7782 16.5552 434.2401 18.7059 435.4682 24.0695 434.8634 25.6645 434.7313 27.7384 440.3928 31.4365 456.4684 33.1696 459.6369 34.1598 464.0549 36.9951 466.9071 37.8686 477.9138 38.2677 484.3305 37.6567 490.4495 38.653 492.7184 39.614 495.0548 41.8261 497.8855 47.2036 499 49.0058 497.7903 49.8885 496.068 51.7659 494.9811 53.4376 492.0675 56.1578 489.6389 59.0714 489.8661 63.336 490.4188 67.6726 492.0521 71.9095 493.4491 76.6223 493.0561 79.7048 491.8495 83.4934 490.4188 86.6527 485.6692 93.1584 484.9384 94.715 485.2025 96.901 488.0977 104.6195 488.3218 107.0496 490.0534 114.547 491.6315 120.646 493.3784 125.4386 493.6486 126.7573 493.6486 133.8172 493.6486 140.8771 493.6486 147.9371 493.6486 154.997 493.6486 162.057 493.6486 169.1169 493.6486 176.1769 493.6486 183.2368 493.6486 190.2967 493.6486 197.3582 493.6486 204.4182 493.6486 211.4781 493.6486 218.538 493.6486 225.598 493.6486 232.6579 493.6486 239.7179 493.6486 246.7778 493.6486 253.8378 493.6486 260.8977 493.6486 267.9576 493.6486 275.0176 493.6486 282.0775 493.6486 289.1375 493.6486 296.1974 493.6486 303.2574 493.6486 310.3188 493.6486 317.3788 493.6486 324.4387 493.6486 331.4987 493.6486 338.5586 493.6486 345.6186 493.6486 352.6785 493.6425 368.3442 493.6363 384.0115 493.6302 399.6772 493.6241 415.3445 493.5258 415.4013 493.4276 415.4566 493.3324 415.5118 493.2311 415.5686 485.4788 415.5656 477.7204 415.561 469.965 415.5564 462.2097 415.5533 462.2097 419.4785 462.2097 423.4023 462.2097 427.326 462.2097 431.2513 447.1503 423.8137 432.0879 416.3761 417.0254 408.9385 401.9661 401.5009 386.9036 394.0634 371.8412 386.6243 356.7788 379.1882 341.7163 371.7491 326.6539 364.3115 311.5914 356.8739 296.5321 349.4364 281.4696 341.9988 266.4072 334.5612 251.3478 327.1236 236.2854 319.686 221.2229 312.2485 210.818 307.112 199.5964 312.1257 190.8033 316.0571 179.2194 321.2288 179.2164 321.2258 165.9101 327.9464 155.6955 333.1044 155.2165 333.066 154.7499 332.9386 144.1239 324.187 135.822 317.3512 132.1316 315.4446 116.4859 311.9522 100.9291 308.4813 84.5526 304.8278 81.5715 299.2646 78.2372 293.0474 73.7486 285.2782 71.0038 280.5271 70.0827 279.7872 57.5256 276.0246 44.2562 272.3358 36.4855 274.5724 35.1315 274.4035 32.9271 273.0005 30.7288 271.0893 29.5591 268.4105 26.4428 264.826 23.5691 256.627 23.2836 250.1029 22.7064 247.791 15.8015 238.6049 9.5198 230.2463 5.3382 224.6815 4.5246 222.1686 5.0128 219.0738 6.6952 216.2999 12.7804 213.0147 18.2638 209.4395 19.0129 206.9603 19.366 200.1337 17.5638 197.9999 16.2528 193.9457 14.905 188.4577 14.7484 184.9515 17.1923 177.9683 20.0445 170.652 18.2269 162.5528 16.8883 146.3022 17.7357 133.5132 17.048 128.8665 16.5629 126.9123 14.6962 120.8763 12.3935 114.6499 11.3712 112.467 8.4176 107.4518 3.5391 101.2361 1 97.4137 4.4816 95.3997 7.5549 93.8247 Z"/>
</g>
</svg>