<?xml version="1.0"?>
<svg xmlns="http://www.w3.org/2000/svg" version="1.2" baseProfile="tiny" width="500" height="215" viewBox="0 0 500 215" stroke-linecap="round" stroke-linejoin="round">
<g id="ne_50m_admin_0_countries-Lithuania">
<path d="M 5.9164 96.9641 1 96.3061 10.6837 86.5354 14.3751 80.1913 16.9409 71.1822 19.2253 68.3515 19.2998 72.4485 18.2983 79.2644 12.1818 90.8972 5.9164 96.9641 Z M 159.184 175.1167 155.6333 170.9783 151.8675 163.5707 152.2565 157.6446 154.3918 151.7392 164.6963 134.2919 164.1418 131.5109 156.6679 126.6318 147.4229 123.0853 142.3244 115.5907 123.6026 115.1562 105.9318 115.57 100.3782 115.2059 83.56 112.0649 67.3542 107.0119 56.5035 104.0489 47.3826 100.7341 42.4828 97.2496 34.7109 98.189 29.4718 98.218 29.5215 97.6179 26.5336 91.4642 29.6539 82.037 23.9926 68.2481 14.7393 51.6616 14.0523 33.904 13.3985 29.9105 36.1594 19.904 64.8795 9.1898 71.4098 8.2214 97.8786 1.8815 101.4128 1.3766 125.2579 2.5519 143.9881 4.0582 159.78 3.872 168.4539 2.2498 176.3085 3.6072 182.6402 8.3828 189.1539 7.8241 195.6015 4.7328 230.9264 7.5551 238.8968 7.4889 247.877 7.9441 264.447 10.8244 273.9817 13.4523 294.93 11.8632 303.8936 11.7721 308.5865 10.7375 323.0376 3.5327 329.2865 2.2953 335.0305 1 340.2862 2.1008 343.7459 8.2545 354.4311 18.8652 366.0433 20.7275 398.1486 24.8162 404.712 26.964 422.78 36.329 433.6142 40.9226 440.5087 44.5892 451.02 51.7733 457.0951 57.0001 467.2506 60.9522 479.2684 63.6131 483.564 64.027 483.3322 67.8301 481.2796 74.2859 477.2654 82.6206 473.0526 89.0805 472.0428 91.5759 475.2376 93.6492 490.9964 94.63 497.684 95.7391 499 97.4565 495.499 99.6871 490.4667 101.5411 488.2155 103.2957 484.2096 109.5694 457.989 108.7707 454.5128 110.0495 452.8575 112.9629 451.5498 116.3315 448.1066 120.325 441.1377 123.7971 430.2456 125.08 421.3316 127.443 414.6854 134.7347 409.7359 144.5136 409.8601 151.4495 410.5139 155.3188 409.9346 157.5328 406.5742 159.9455 401.0785 166.3351 396.6091 173.3993 394.8958 177.2314 395.7566 179.0233 400.7888 179.0729 408.0475 180.5255 411.9127 183.3478 413.3446 186.6089 413.3611 190.1182 412.0037 192.0508 406.1852 193.4495 397.0726 193.4992 391.759 191.8273 390.6582 190.503 393.1991 187.122 391.3617 182.9009 387.5875 180.542 379.915 184.0638 372.5488 184.0596 363.7175 187.1965 357.9487 192.2246 352.4116 194.0786 337.4473 193.0523 333.7311 195.2704 330.6439 205.5045 328.8561 207.5033 316.3583 207.0647 304.3075 211.1327 290.7006 214.4268 283.8061 212.1383 279.9657 209.556 272.5581 210.0153 264.4718 211.1492 259.0423 210.5285 252.9506 210.8057 241.1812 212.7922 226.3825 212.1507 220.0756 210.4581 219.4797 208.8359 219.9349 204.8507 219.7942 198.6597 217.4437 193.1971 210.3671 188.3635 202.9263 184.9866 193.433 181.5021 186.4143 179.9751 182.574 179.5737 181.7049 177.5666 180.3144 175.8326 177.0286 174.3056 170.01 172.2571 164.059 171.8101 159.184 175.1167 Z"/>
</g>
</svg>