<?xml version="1.0"?>
<svg xmlns="http://www.w3.org/2000/svg" version="1.2" baseProfile="tiny" width="800" height="637" viewBox="0 0 800 637" stroke-linecap="round" stroke-linejoin="round">
<g id="us-states-19">
<path d="M 456.3805 3.6022 471.1262 21.8173 459.8501 28.7565 458.1153 60.85 481.5348 80.7999 485.0044 127.6391 465.9217 164.0696 428.624 186.6217 419.0827 222.1848 403.4697 218.7152 400.8675 276.8304 381.7848 278.5652 393.0609 309.7913 381.7848 321.0674 681.0349 321.0674 665.4219 373.1108 691.4436 407.8065 697.5152 433.8282 716.5979 450.3087 669.7587 471.9934 666.2893 487.6064 704.4544 498.0153 720.9349 472.8608 753.8958 498.0153 751.2936 517.9652 732.2109 526.6392 696.648 518.8326 700.9848 533.5782 688.8414 556.1305 719.2001 576.0804 767.774 582.1522 785.1217 605.5717 799 609.0413 773.8457 635.9304 746.0892 630.7262 722.6697 602.9695 664.5545 588.224 664.5545 561.3347 635.9306 570.0087 637.6654 592.5608 624.6543 613.3783 603.837 616.8479 588.224 593.4282 551.7935 592.5608 538.7826 616.8479 514.4957 623.7869 488.474 609.0413 467.6565 607.3065 447.7066 568.2739 412.1435 550.9261 398.2653 553.5283 384.387 520.5674 342.7523 524.9044 341.8849 504.9543 301.1175 524.037 306.3217 538.7826 275.0958 552.6609 226.5218 545.7217 170.1414 524.037 130.2413 514.4957 44.3696 522.3022 33.0935 528.374 19.2153 512.7609 56.5132 456.3805 44.3696 426.0218 55.6458 409.5413 50.4414 387.8565 66.0544 371.376 82.5349 330.6087 79.9327 296.7805 36.5631 232.5935 35.6957 197.8978 1 163.2022 1 1 69.524 1 456.3805 3.6022 Z" id="22"/>
</g>
</svg>