<?xml version="1.0"?>
<svg xmlns="http://www.w3.org/2000/svg" version="1.2" baseProfile="tiny" width="426" height="400" viewBox="0 0 426 400" stroke-linecap="round" stroke-linejoin="round">
<g id="ne_50m_admin_0_countries-luxembourg">
<path d="M 216.8964 26.4724 212.3727 41.2281 213.1805 74.24 228.8517 107.3595 265.6332 139.9944 293.8522 163.6897 331.6569 182.592 395.7958 200.552 421.3759 204.3217 424.9302 228.6363 419.9757 254.3241 397.8422 268.5413 376.9472 288.9785 361.276 313.9932 344.797 361.9223 342.5352 394.988 305.5921 381.3093 286.2051 372.0466 252.4931 369.5155 218.7812 377.0819 193.5242 393.9378 158.9506 399 130.3009 393.9378 113.4449 381.3093 98.2584 374.5777 55.2837 366.1228 36.7045 347.8128 50.8678 339.2502 63.0924 325.7331 73.5399 306.6961 86.68 289.0862 44.4055 240.8878 35.7351 226.1591 1 198.9095 1.4308 185.0962 9.7242 171.9561 6.6546 161.7779 11.5013 137.5172 35.789 114.5758 51.9449 86.1953 79.2483 47.5289 139.5636 1 182.8613 8.1086 201.7637 7.947 213.3421 24.9376 216.8964 26.4724 Z"/>
</g>
</svg>