<?xml version="1.0"?>
<svg xmlns="http://www.w3.org/2000/svg" version="1.2" baseProfile="tiny" width="215" height="400" viewBox="0 0 215 400" stroke-linecap="round" stroke-linejoin="round">
<g id="ne_50m_admin_0_countries-madagascar">
<path d="M 186.3023 11.4004 187.6564 14.4859 189.2381 17.4476 194.1703 24.6039 196.2792 27.3582 198.0798 30.2853 198.9556 36.125 202.0902 45.203 205.0518 58.8416 205.9593 72.8317 206.8668 79.2505 209.1716 85.292 212.9428 91.561 214.1644 98.533 211.8596 105.7153 208.5234 112.4828 207.662 113.7533 206.089 115.4905 205.3802 115.4127 202.7096 113.6668 200.5258 110.8089 197.7571 104.076 196.7546 100.6592 195.5964 100.1204 192.3639 100.4172 190.0217 102.5433 189.5953 103.883 190.0995 107.6801 190.9868 111.0941 191.3815 114.5599 191.4507 118.9218 192.3207 120.2413 193.6085 121.3504 194.9395 124.2055 195.1758 131.0104 194.3576 134.4474 192.0758 137.3975 192.2112 139.0311 193.0554 140.7049 192.2458 141.7162 189.2121 142.9982 187.982 144.1275 186.3398 147.1295 183.6778 153.2574 183.3176 156.3861 184.9857 165.9107 184.519 172.6666 181.1281 185.5821 179.1805 191.71 176.4205 199.0334 172.1941 208.6905 168.0052 220.8108 164.4472 233.2826 161.8168 240.779 158.8292 248.1601 154.744 261.2138 151.2695 274.4606 146.1097 289.0355 138.9879 305.2872 138.2186 307.4076 136.7407 315.7106 135.1417 322.916 133.2345 330.0522 129.2415 341.8441 128.7863 345.4799 127.8816 348.9687 124.0355 356.3614 122.4106 359.1127 121.2611 362.0369 120.6158 365.7419 119.4692 369.3172 116.6515 375.8916 112.4511 381.5498 109.596 383.6069 103.4105 386.5916 100.276 387.1966 93.3271 387.2657 86.5999 388.9655 79.5847 392.2383 72.8375 395.9894 70.2532 397.7669 67.4039 398.7839 58.4873 399 55.8166 398.1904 46.897 392.028 43.4427 391.011 36.8942 390.1669 34.915 389.6425 33.1201 388.8388 30.4725 385.6178 25.2205 382.8953 23.9586 382.0425 23.1606 380.1641 22.6161 378.1416 21.2562 375.8772 20.2479 371.5672 18.5366 368.5508 13.6965 363.2268 13.1808 361.527 12.7919 355.8774 12.9475 352.0543 12.475 345.0535 13.0252 341.7605 14.7222 338.7931 14.0278 335.5837 12.2243 332.21 11.5473 328.7183 10.2163 325.5405 5.1515 319.8131 3.9617 316.9955 3.1377 314.0771 1.2276 304.9818 1 301.8185 1.2795 295.1202 1.9853 291.6745 3.2155 289.2746 3.5237 287.4827 4.3218 285.9442 5.526 284.7112 6.3298 283.2419 8.2198 274.6796 10.6167 272.7781 14.1719 271.6862 17.0212 269.4506 18.6576 266.4313 20.294 260.2055 24.7768 254.0229 26.3729 250.7731 29.9856 245.8639 33.1864 238.9553 34.1573 235.6998 34.8545 232.3636 35.6669 225.0516 36.2777 221.413 36.1567 217.8088 34.3186 214.1039 29.9597 207.3797 29.8185 206.1235 30.1643 201.125 29.7926 197.5094 28.1879 193.9081 26.1251 190.5143 24.0969 184.1704 23.1116 173.6836 23.319 169.8922 22.7255 166.5243 21.2505 163.312 22.3078 157.7114 35.3472 137.386 35.7707 134.9919 35.2463 128.792 35.5142 125.185 35.9694 123.8483 36.9634 123.0675 39.1962 122.6901 49.7377 121.8056 51.0918 121.1805 53.7221 119.4634 57.3377 116.1503 58.9914 115.1966 60.4204 115.5452 61.3366 116.9656 62.512 117.7406 66.7643 116.2396 68.4007 116.1935 70.066 116.4384 70.8467 115.0584 71.3134 113.2088 71.9328 111.9037 73.0737 111.1633 78.5533 110.7599 82.0451 110.2298 86.5654 108.9363 87.5392 109.1898 91.1836 113.8426 92.2899 114.243 93.7073 114.4332 94.9462 113.5862 91.9874 111.1517 91.5408 109.7746 91.6964 108.2102 93.281 104.8597 95.9344 102.3042 101.8231 98.4206 107.9394 93.9292 109.717 93.618 111.2209 94.3296 112.3733 99.6249 112.2292 100.4978 113.2059 100.6188 114.3468 99.9649 115.3551 97.8272 115.407 96.0525 114.5859 94.3498 114.1854 92.9093 114.1508 91.5841 117.2508 88.4553 119.6939 85.4648 120.8232 81.8982 121.8028 80.256 124.3726 78.4035 125.1303 78.6974 125.7295 80.2042 126.0637 81.7973 125.404 83.379 124.4619 84.9434 124.0816 87.0292 125.5308 87.4326 126.8992 86.9255 128.9015 83.1514 131.1861 79.5819 132.5431 77.7265 134.2544 76.4387 137.0979 76.698 139.8637 77.496 135.3607 73.7277 134.2342 68.5678 139.5986 59.6397 139.6505 57.7814 140.4255 57.2081 140.7885 56.4878 138.0112 53.4715 137.4869 51.9762 137.8527 49.7089 139.1809 47.6951 140.3851 46.2863 142.0964 45.7446 143.4563 46.5196 146.441 48.9973 148.4519 49.3747 150.8835 46.995 152.8713 44.0247 155.8618 41.9821 159.2527 40.7202 164.4183 36.0444 167.7776 26.2605 168.0455 23.4055 167.3022 19.9425 166.1095 16.6524 164.1187 12.5441 164.6373 11.6337 167.4607 12.1782 168.4085 11.6049 171.4768 7.9691 176.53 1 178.1952 1.0173 179.63 2.308 180.1629 4.2181 181.1598 5.624 184.5766 8.9314 186.3023 11.4004 Z M 151.016 38.8879 151.0563 39.9654 147.1727 39.5188 146.562 35.8225 148.4634 35.7073 148.8783 34.189 150.0336 34.0017 151.2782 37.2861 151.016 38.8879 Z M 198.0481 143.2949 194.7321 148.7112 195.6656 144.188 199.5088 137.6741 200.6036 137.1699 198.0481 143.2949 Z"/>
</g>
</svg>