<?xml version="1.0"?>
<svg xmlns="http://www.w3.org/2000/svg" version="1.2" baseProfile="tiny" width="800" height="859" viewBox="0 0 800 859" stroke-linecap="round" stroke-linejoin="round">
<g id="us-states-20">
<path d="M 74.514 857.598 51.0749 843.7476 54.271 824.57 23.3739 802.1961 10.5889 546.4953 1 420.7757 85.1683 394.1401 71.3177 380.2897 103.2805 350.458 136.3085 336.6074 129.9159 324.8878 160.813 306.7757 151.2244 272.6822 170.4019 221.5421 200.2336 204.4954 211.9534 150.1589 362.1776 1 397.3364 7.3926 399.4673 43.6169 425.0375 56.4019 487.8972 35.0934 527.3178 35.0934 555.0186 21.243 609.3551 52.1402 641.3178 77.7103 643.4485 296.1215 639.187 348.3271 706.3084 362.1776 696.7195 384.5514 713.7662 405.8597 699.9158 425.0373 727.6168 454.8692 763.8411 448.4766 799 517.7289 758.514 548.626 735.0747 536.9065 715.8971 558.2149 688.1962 552.8877 684.9999 570.9999 648.7756 568.869 591.2429 610.4205 577.3925 581.6542 557.1495 579.5233 566.7384 610.4205 521.9906 625.3363 511.3365 600.8318 490.028 613.6168 439.9533 613.6168 438.8879 584.8503 409.0562 591.2429 414.3831 611.4859 386.6823 654.1028 392.0093 665.8224 355.7852 689.2617 319.5609 680.7382 298.2524 705.243 268.4205 708.4393 243.916 728.6821 214.0841 724.4205 205.5608 703.1121 161.8785 737.2055 173.5982 758.514 141.6357 765.9718 139.5048 784.084 103.2805 806.4578 74.514 857.598 Z" id="23"/>
</g>
</svg>