<?xml version="1.0"?>
<svg xmlns="http://www.w3.org/2000/svg" version="1.2" baseProfile="tiny" width="500" height="167" viewBox="0 0 500 167" stroke-linecap="round" stroke-linejoin="round">
<g id="ne_50m_admin_0_countries-Malaysia">
<path d="M 13.002 24.0894 13.4804 22.9046 14.0704 19.0229 14.4645 18.2557 15.4758 17.8802 16.6135 17.9793 18.7453 21.3504 24.2902 23.4412 25.9559 23.937 28.1421 23.1078 29.1287 23.6308 30.1251 24.491 30.7027 26.8904 32.1602 29.0791 35.0752 28.768 36.1063 29.0816 36.7186 29.151 37.2887 31.0931 37.5564 34.453 37.2788 36.4124 35.1768 39.2122 34.8942 41.1196 35.9997 42.3007 37.4349 43.5599 38.2529 44.5278 39.1081 44.3679 40.1987 43.716 41.1927 42.0677 41.8842 40.6548 45.6197 39.0734 49.4741 37.6493 49.9996 37.7956 50.6243 38.4264 51.8587 40.4862 52.58 40.9225 53.6235 41.1307 55.4305 40.9089 57.535 39.7426 58.6405 37.5576 59.1214 35.8324 62.1429 32.8542 62.4776 30.6209 63.3079 29.1597 67.6978 30.145 69.3759 30.9419 74.3061 38.797 80.8004 44.3208 83.5493 46.3807 85.6785 47.366 88.5886 50.3231 91.1243 54.0362 96.6791 64.4903 97.6458 69.0797 98.0226 76.0908 96.7981 86.6601 95.3134 91.9324 95.6009 94.421 97.6359 98.2407 97.0262 101.8461 97.4203 104.8404 97.279 113.1528 98.439 115.603 99.7627 117.1721 106.7403 122.1035 107.2509 123.9303 110.6889 130.2065 117.0543 143.8718 118.8291 150.019 118.6234 151.6711 117.855 152.3565 115.9835 152.9576 114.4244 151.7554 113.8989 150.894 114.06 149.8244 113.4403 148.7722 111.9134 147.5155 111.036 146.3902 111.2838 148.2579 111.2913 150.6759 109.3529 150.8816 106.8568 150.1231 103.7534 150.806 100.08 153.7718 98.3151 153.8561 96.9716 151.3092 96.2776 149.5828 95.182 148.357 83.5071 142.1081 79.1991 140.5032 74.6581 135.7613 64.4382 130.53 57.9489 125.43 55.1901 122.2783 48.552 119.4847 45.6866 116.1893 44.2787 115.5423 42.8609 114.3686 44.3531 111.1723 43.7408 107.8384 42.9724 105.0263 38.2901 99.4739 35.9898 95.5984 31.5851 91.7403 29.8227 89.5131 28.1372 86.9303 29.1931 86.0268 30.1697 85.479 29.2749 83.6051 26.7565 80.343 25.5766 76.594 25.5766 69.5172 21.9949 59.5663 18.9287 45.7734 19.4715 40.9436 18.6907 35.7097 16.6606 30.6754 13.9985 27.0788 13.002 24.0894 Z M 456.0559 81.7423 455.114 81.7225 452.9203 81.1771 448.5206 78.4753 444.0291 77.5173 437.5051 77.4392 433.8068 77.0624 432.3047 77.4652 431.0455 77.4826 430.1333 76.9385 429.1592 76.6609 426.616 78.2497 425.4262 77.7639 424.224 77.0947 422.0898 76.8703 419.507 77.0575 416.6416 78.6947 413.4589 77.2223 412.5591 77.2384 411.9518 77.6127 410.5712 79.6316 407.9412 81.1734 406.6399 83.9917 405.8417 86.6936 405.1403 87.6268 404.9494 92.8483 404.533 95.3704 405.1973 98.7055 405.0808 100.1407 403.9083 102.2749 403.7646 102.7644 403.1424 106.1591 403.3804 107.0601 403.2291 108.2028 402.2451 110.5836 400.4629 111.233 398.584 111.6086 396.9803 110.7968 395.5327 112.1031 393.6959 114.1232 392.9027 115.4878 392.9077 116.7544 393.0886 117.6021 392.7144 118.4746 392.6673 119.3992 392.7615 120.739 394.0083 121.293 395.3022 122.4481 395.2575 123.5573 394.5387 124.3257 392.9077 125.513 389.9283 127.9323 386.5572 129.9995 385.2905 130.4792 384.832 131.4322 384.5866 132.715 385.3302 135.5271 386.0366 136.3562 386.4109 137.344 385.9573 138.5177 385.6351 139.529 384.3932 140.1623 383.1861 140.6246 382.7449 141.4302 382.1054 144.8 381.3766 146.5575 379.7332 149.1688 379.1854 150.3623 378.3377 150.7465 375.155 149.527 372.302 150.2669 368.5269 150.7379 365.3293 150.6635 362.8506 151.1964 361.1477 152.5771 359.2465 154.3159 357.2486 155.6048 355.7416 156.2307 352.9728 154.3915 351.5773 154.5501 349.0589 153.9156 343.1521 151.8607 341.6896 151.2596 340.1131 151.2063 339.6496 150.6164 339.8975 149.6237 339.6496 148.3211 338.4995 147.8278 326.6511 148.0286 323.2354 149.1539 320.9277 150.045 319.2794 151.075 318.8134 153.6355 317.8293 156.0361 316.5577 158.5806 312.6141 159.344 309.7164 161.9231 308.72 162.233 306.7295 161.8587 304.6003 161.6455 303.0585 162.3631 301.4474 162.3272 296.4602 161.1225 291.7555 160.9366 289.0834 161.5501 287.6111 161.7794 279.404 165.3128 276.6377 165.723 275.5124 165.2124 273.9285 163.7661 271.8017 162.321 266.7129 157.3933 264.8365 156.2357 263.5897 155.0471 262.4023 153.6392 260.7168 152.121 259.1825 151.0774 257.0929 148.9457 255.0182 146.612 254.5572 142.506 252.9063 141.7537 252.3511 140.6866 252.0982 139.472 254.3812 136.1381 256.0419 139.6604 256.6839 140.4461 260.3698 142.8158 263.4087 144.0044 266.6955 144.4877 270.0418 144.5856 271.3729 144.422 272.6643 143.9511 273.9409 144.4555 280.9383 148.3087 283.6501 148.999 286.5155 148.7041 287.6582 149.0883 291.6812 152.0441 292.8685 152.3974 294.849 152.1718 292.3157 150.8221 290.655 149.8666 289.9113 148.0608 290.3649 146.1361 291.9786 144.8558 293.0965 143.4677 293.4981 139.3171 294.2095 137.2151 295.5505 135.216 295.9892 133.29 294.4846 131.8202 294.145 129.2943 294.4772 127.201 295.3299 125.777 296.6932 126.7152 298.1011 127.5865 299.4916 127.4997 300.4484 127.1527 300.6244 126.0732 300.3617 124.1943 300.4336 120.7365 302.191 117.9777 305.0019 116.0752 307.6541 115.1655 317.5814 113.62 333.2793 109.6665 337.9294 108.1371 339.6397 107.3451 341.0823 106.2458 343.5065 102.7359 348.0724 97.2034 351.2699 92.6574 358.022 86.0367 363.3984 79.8993 364.1246 78.7443 365.0195 75.3942 365.0864 73.8178 364.9302 72.219 365.6466 71.4717 366.6901 71.0242 366.9504 71.0292 367.7436 71.7257 369.615 72.6974 371.018 73.9429 371.955 75.5578 372.6292 77.0686 372.6812 78.3514 373.5265 79.4024 375.9036 79.5784 376.6769 80.9057 378.3303 83.1899 379.8423 84.8271 380.7693 85.4641 381.9319 85.1171 383.7314 83.6224 385.0303 81.7881 385.9003 79.3082 385.2162 78.9463 386.4233 77.0748 386.6563 76.092 386.0986 75.1898 385.3847 74.2974 385.1096 72.0356 384.6188 69.1553 384.2817 67.8465 385.2335 66.9133 387.2735 65.7222 389.3086 64.3391 391.3907 63.2361 391.4428 65.2302 391.3907 68.5244 392.0203 71.2833 393.4282 76.1627 395.0419 76.8282 396.9728 77.2595 398.0883 77.1232 398.8145 76.8009 399.0054 76.4081 397.8007 74.4895 397.481 69.9807 396.4969 67.0211 394.9874 64.0739 394.266 63.2348 400.2274 62.397 401.5659 61.4724 403.9058 59.4486 404.7858 58.3158 405.4848 55.7627 402.5624 54.2407 401.4147 52.3011 401.3478 50.2029 404.8354 46.3063 406.04 45.3743 406.563 46.7587 408.0999 47.1082 409.5152 47.1615 410.938 47.0821 412.9755 45.1177 414.024 42.2895 417.6108 38.2938 418.8873 35.2251 419.6061 32.0201 428.651 22.0668 429.7566 20.5176 435.1255 10.5072 435.7948 10.1738 437.2374 11.143 437.6637 14.3244 437.4654 15.7113 436.5954 17.7674 436.0972 19.9239 436.7144 19.878 439.2749 18.5643 441.947 15.0693 443.454 12.0366 444.738 10.7154 447.311 11.4491 447.8835 11.9758 447.7026 14.1546 447.948 15.4225 448.9395 18.1268 451.1307 19.7677 454.1473 20.8026 456.9508 22.296 457.8654 23.2851 458.4727 24.4761 459.0849 26.4244 459.132 28.3962 457.1094 30.3197 457.9695 33.4404 457.8357 35.2611 457.1416 36.8128 454.1969 38.2355 462.2305 36.8202 464.2134 36.0121 466.9549 33.9548 468.4248 35.7283 469.798 38.7982 468.6925 39.5703 465.2025 40.7019 465.0314 41.1666 466.189 42.7642 467.649 42.6155 470.5293 41.5471 473.1815 39.8628 474.468 39.8839 475.8214 40.2309 478.4414 41.3129 479.9088 42.1891 481.1506 43.3157 481.9562 45.6618 484.9728 46.5133 491.1573 49.8013 492.3049 50.0851 493.5096 50.1508 496.7691 49.753 497.9118 50.2165 498.7273 51.4026 499 52.87 498.9108 54.4489 498.5786 55.6462 497.8152 56.6339 495.5967 58.1398 490.0195 60.1091 483.9169 61.6026 480.8532 61.4997 476.5501 60.2207 474.9811 60.3855 473.4715 60.973 471.5629 65.0431 475.0877 69.0995 481.1358 73.327 481.9637 74.3804 481.7406 75.6743 480.7763 76.4465 479.4998 76.8753 476.099 77.5507 472.6634 78.0515 469.8352 78.7728 467.0665 79.7209 464.2085 79.3986 460.2847 77.5049 459.1543 77.371 457.9695 78.3439 456.802 80.9962 456.0559 81.7423 Z M 117.1312 118.264 115.9067 118.5279 115.2349 118.3532 114.7838 117.3629 115.8174 115.0887 116.1967 114.7107 117.1733 117.1857 117.1312 118.264 Z M 17.3125 53.2096 16.673 53.9135 14.8264 53.5107 15.1536 49.3477 16.2095 48.8173 17.8504 49.5745 18.5792 50.2822 17.3125 53.2096 Z M 6.1211 23.4871 7.9132 26.2062 7.0184 27.4183 6.5722 27.7679 5.4915 27.37 4.4603 28.4148 3.4738 28.6255 2.4823 26.7404 1.2627 25.9894 1 24.6893 2.631 24.4612 3.6126 24.9111 5.4518 24.0126 6.1211 23.4871 Z M 445.0702 5.6563 443.5235 6.9998 443.0029 5.3861 443.107 3.3089 445.204 1.3718 448.1785 1 448.6024 2.5492 448.2479 4.3215 447.5514 5.2362 445.0702 5.6563 Z M 43.4458 111.7474 42.1643 112.2059 42.0974 111.5441 42.3205 110.622 43.2599 109.7445 43.6962 110.2465 43.4458 111.7474 Z M 299.0628 126.2951 298.287 126.6284 297.0898 125.7299 296.8072 118.0248 297.6475 117.3357 298.1953 117.4336 298.7852 118.8328 298.7332 122.2089 298.8397 125.1883 299.0628 126.2951 Z M 463.9333 81.3482 460.3962 81.8352 457.9497 81.7832 458.4008 80.8946 458.2818 79.7221 459.4468 79.4123 460.8027 79.6676 463.9333 81.3482 Z"/>
</g>
</svg>