<?xml version="1.0"?>
<svg xmlns="http://www.w3.org/2000/svg" version="1.2" baseProfile="tiny" width="168" height="400" viewBox="0 0 168 400" stroke-linecap="round" stroke-linejoin="round">
<g id="ne_50m_admin_0_countries-malawi">
<path d="M 106.4122 140.7122 104.6035 141.1242 103.468 140.2048 103.7444 137.4666 104.3824 135.477 106.1861 135.1605 107.4221 135.6931 108.2963 136.6025 108.3113 138.0595 107.7838 139.5667 106.4122 140.7122 Z M 102.413 135.7232 101.393 138.4463 99.2678 138.4061 97.2682 135.9795 97.9063 134.1054 99.8305 133.5327 101.5187 134.2361 102.413 135.7232 Z M 28.3365 238.6032 25.5732 234.8753 23.2872 235.8148 20.1371 238.4324 18.4339 239.1358 17.5496 239.0554 16.9919 238.3973 16.2886 236.7242 13.8569 231.9412 11.1237 228.5197 8.2348 227.1933 5.8734 225.6208 6.9135 224.0985 8.0137 223.0082 7.5365 221.8878 6.2151 220.2449 1.0854 217.8685 1 216.8435 5.5268 214.7786 8.3906 212.3318 10.3349 209.9805 12.7968 204.8358 14.7964 199.7111 16.2886 198.0431 16.8061 194.6417 16.4694 190.8032 17.4642 185.9248 17.9566 181.3025 16.4393 179.5089 15.1581 176.404 16.6804 171.1035 19.0669 167.4559 30.4819 163.6526 38.4301 160.2211 40.1132 158.7088 42.8162 155.7747 44.3134 152.9109 43.2382 152.0518 36.9932 151.9815 35.4558 150.8812 30.9391 140.8127 33.4411 129.2672 33.6521 124.7303 33.5918 119.1133 32.7879 115.0136 30.8185 113.2903 29.6026 111.0897 29.9292 105.0607 31.763 104.3523 35.7321 96.389 37.4956 91.6964 35.3804 87.9534 33.0442 82.6026 31.9891 79.2013 31.4013 78.0859 33.0191 75.9758 35.702 73.9359 38.6964 73.3732 41.8666 72.4136 51.8647 62.5059 51.9903 60.5817 50.1716 57.2607 46.4437 52.2566 45.6147 50.2118 45.1675 44.1978 43.6854 42.3992 38.204 38.3447 33.9837 34.0792 35.3 29.7584 36.0135 25.0356 33.9284 22.4432 30.8185 19.7552 28.8992 15.8163 28.025 12.8922 25.5732 11.7266 23.3325 11.6814 21.6845 13.5102 19.9009 13.3494 17.7506 12.7214 17.0372 10.1892 16.9216 7.446 15.4395 5.5871 14.0126 3.0046 13.8368 1.6381 14.7311 1.2412 16.6202 1 24.6689 6.19 29.5474 6.4261 34.9785 7.3857 39.6108 11.9577 42.0224 12.5606 45.0972 11.9326 53.8493 11.4503 57.3763 12.1084 61.903 14.7863 63.6866 15.1531 66.5203 15.2586 67.0227 14.5401 67.3141 12.9525 66.8117 9.7622 67.4548 8.0338 69.178 6.1649 73.9611 8.3453 85.9136 18.3133 86.2703 19.5995 93.892 29.4921 96.3739 33.6772 96.3739 35.8879 98.7252 44.5294 99.2427 48.5789 98.7152 51.6587 98.8106 54.1256 99.7351 57.6526 99.4286 59.1397 102.1517 64.3096 103.453 68.6555 103.7243 72.8959 102.9656 77.0308 100.5641 83.0699 100.1521 85.5016 100.6796 87.7122 102.2321 90.1138 104.8246 92.7012 106.779 95.8263 108.1003 99.4939 109.2157 101.1519 110.6074 101.1117 113.1647 101.6794 115.2246 103.8197 117.6111 107.417 118.4149 111.5469 118.7666 113.3154 111.9287 113.1898 103.3374 113.858 101.2272 115.4808 100.5942 119.0731 97.9012 126.4838 96.404 129.2069 93.2187 134.1858 88.7472 141.2046 87.8127 143.4956 87.9685 145.852 90.6061 155.3878 93.3694 165.4111 94.2487 169.3249 96.2232 182.649 97.3184 192.0593 97.4792 197.5959 98.4037 204.9965 100.8655 208.9958 103.4429 211.5079 113.1597 213.0151 116.0586 214.8489 121.5651 219.5717 133.5829 232.6094 140.1847 240.9345 145.9826 248.2597 156.3726 261.8652 164.4364 272.431 165.4412 282.3537 166.7827 283.7957 164.0646 291.1461 162.286 303.0282 163.5672 310.9162 163.0346 324.3659 161.5575 338.6848 159.7086 343.8094 157.3222 345.7387 151.685 347.2862 139.2954 349.0698 137.4415 350.7478 135.8488 353.5262 133.3418 360.1229 130.3825 366.785 129.4531 369.6337 130.0258 370.3069 132.6736 373.6983 135.3163 382.37 135.7936 397.2466 134.8741 398.3519 131.2115 399 127.2625 398.8041 125.6397 397.965 124.1777 396.302 123.1126 393.1267 125.7 390.9111 126.6194 387.0374 124.9614 383.7114 121.6405 382.9729 117.4252 379.9282 108.442 369.9854 100.9258 363.0118 96.5749 357.229 92.1084 354.9279 90.8272 353.5061 89.752 351.0593 89.7319 347.5424 90.1389 344.9399 88.7472 342.0309 84.2355 337.5242 82.1756 335.0222 82.065 332.0328 83.9642 329.1539 87.8228 325.6471 90.7418 318.5228 91.7818 313.9106 97.228 304.6561 97.9816 296.6124 98.0922 290.1814 97.7606 285.3683 96.3689 275.5108 95.3992 268.688 88.697 259.7701 86.5114 258.9361 80.1458 259.7148 74.6443 261.0312 71.9464 262.8801 67.8517 262.9755 57.1301 264.528 53.7689 265.1962 51.8245 266.809 50.6991 267.1456 43.9517 260.2474 38.0181 252.8066 30.4869 240.1306 28.3365 238.6032 Z"/>
</g>
</svg>