<?xml version="1.0"?>
<svg xmlns="http://www.w3.org/2000/svg" version="1.2" baseProfile="tiny" width="500" height="450" viewBox="0 0 500 450" stroke-linecap="round" stroke-linejoin="round">
<g id="ne_50m_admin_0_countries-Mali">
<path d="M 27.8735 380.674 28.084 378.4168 26.0831 376.8282 26.0286 376.0508 26.2244 373.9438 27.1211 369.484 27.0283 367.7835 27.844 364.4633 26.5307 362.9674 26.223 361.8631 24.755 360.0919 23.0677 357.58 22.679 355.5688 22.0856 353.9683 20.469 351.561 19.2778 351.1841 16.7513 350.8175 16.3302 351.645 15.3908 352.8449 14.5369 353.1909 13.147 351.7215 12.6213 350.4627 12.6405 349.3127 10.7558 347.3089 7.8273 343.625 8.1306 340.5846 9.9387 338.9503 10.4761 337.7179 10.641 336.3207 9.8209 334.6481 8.855 333.3244 9.1245 330.3944 8.883 326.3337 7.4003 324.2915 6.0575 322.8118 4.1773 321.2025 2.574 318.7319 3.2247 315.3381 3.8372 313.0162 1 308.1648 6.3049 310.0847 7.0028 309.4516 8.8109 308.2884 11.2432 305.8163 13.2957 302.5521 14.2188 298.5046 14.6252 295.0225 15.5395 292.0719 16.6939 289.5748 19.2352 286.9658 21.6218 285.1209 24.4576 283.2039 25.8887 283.5484 28.5905 286.2207 34.5094 291.5919 39.3917 295.6851 41.1762 297.8494 42.7634 297.8686 45.1913 293.9109 47.6973 290.4979 48.7648 289.6616 52.082 289.2935 54.8986 289.1448 57.3516 289.2008 61.8658 289.8619 63.9271 290.4641 65.8633 290.8366 71.5362 291.1355 77.1548 290.3006 82.4994 289.2214 86.4468 288.5898 86.6456 286.9775 86.4233 285.0723 87.0608 283.6191 88.3035 282.2748 89.3518 281.9803 89.8082 286.555 91.0671 287.244 94.5919 287.4472 100.3135 287.4472 106.4635 287.4472 112.6136 287.4457 118.7636 287.4457 124.9136 287.4457 131.0637 287.4457 137.2122 287.4457 143.3637 287.4457 149.5123 287.4443 155.6624 287.4443 161.8124 287.4443 167.9624 287.4443 174.1125 287.4443 180.261 287.4443 186.4111 287.4428 192.5611 287.4413 198.7112 287.4413 205.085 287.4413 206.8003 278.6028 208.3698 270.5063 209.6861 263.7231 205.1719 258.9232 201.5822 255.1054 200.7504 247.8408 199.8905 240.3421 199.0336 232.8448 198.1737 225.3461 197.3154 217.8474 196.457 210.3487 195.5986 202.8514 194.7402 195.3527 193.8803 187.8555 193.0234 180.3582 192.1636 172.8595 191.3052 165.3608 190.4468 157.8635 189.5884 150.3648 188.73 142.8661 187.8702 135.3688 187.0133 127.8701 186.1534 120.3714 185.295 112.8727 184.4366 105.3754 183.5783 97.8767 182.7199 90.378 181.86 82.8808 181.0031 75.382 180.1432 67.8848 179.2849 60.3876 178.4265 52.8888 177.5681 45.3901 176.7097 37.8914 175.8499 30.3942 174.9929 22.8954 174.1331 15.3967 173.2762 7.8995 172.4708 1.0294 181.7246 1.0236 191.5967 1.0191 201.2171 1.0133 215.3252 1.0059 225.8879 1 235.1034 6.7628 243.4458 12.2194 253.3224 18.6742 263.196 25.1305 273.0711 31.5868 282.9462 38.0431 292.8198 44.4993 302.6964 50.9571 312.5715 57.4119 322.4466 63.8697 332.3203 70.326 342.1954 76.7808 352.0705 83.2385 361.9441 89.6948 371.8207 96.1497 381.6943 102.6074 391.5679 109.0637 401.4445 115.52 405.8498 118.3999 406.2621 119.5984 406.6714 122.0263 406.4093 124.7605 406.4594 126.9882 407.7609 128.5003 410.2139 130.1199 419.8755 134.8844 420.6411 135.8253 420.9827 137.8012 422.1311 140.2276 424.1748 141.6381 426.5629 142.685 429.4694 143.4138 438.2299 144.1647 440.0851 145.2955 443.8631 149.7111 445.9156 150.5812 451.752 151.8504 455.9777 152.5586 457.721 152.965 461.5432 154.1517 465.6982 156.1541 467.9126 157.9784 467.9038 158.5496 467.8832 160.131 467.8508 164.8926 468.6164 167.5104 469.4851 169.3995 469.4409 170.5553 468.3926 171.3754 467.5711 172.381 467.1146 173.7046 465.9279 175.3934 464.9679 177.2648 465.3802 178.6797 467.0233 179.5926 469.4881 181.3903 471.5229 182.1412 472.5182 182.1942 473.858 182.1398 475.0006 181.9071 482.38 180.5364 489.2147 179.2657 498.788 177.4856 498.8056 182.7537 498.8292 190.7059 498.8587 199.5636 498.8852 207.7396 498.9175 217.0553 498.9411 224.5437 498.9706 233.4014 499 242.2075 498.043 243.2235 497.6896 248.1838 497.4157 254.7093 495.5812 261.466 492.3714 266.4411 491.2053 271.1806 490.3278 273.8912 489.1264 275.3636 488.8466 277.1378 488.2135 279.6319 487.1887 281.2471 486.3907 282.0819 483.1663 283.0566 477.4653 287.8389 476.9765 291.6611 470.4863 290.6128 463.5839 289.5247 462.6563 289.5954 462.088 290.0945 461.8024 292.1249 452.4117 292.4591 444.3049 292.7448 434.2752 293.0775 427.3757 293.3087 418.624 293.768 410.5142 294.1965 405.1195 298.6033 400.2578 302.801 399.8779 302.9453 392.9785 303.7668 384.3652 303.0395 379.9393 303.0041 378.2048 303.5018 377.8662 305.0758 371.5292 302.8643 364.1953 300.6145 359.0833 302.0294 358.2735 301.5465 357.6036 300.6071 355.13 300.058 351.2121 300.3024 348.3778 300.9664 343.9298 304.2939 340.5758 307.1901 339.66 307.8482 334.9735 309.5974 326.2689 313.6817 321.3335 316.675 320.1954 317.2271 318.0031 317.9044 314.6255 318.0413 311.8133 318.7937 309.2779 326.6914 307.5861 327.4806 297.2134 324.2944 295.1123 324.7715 293.3087 325.6976 287.5149 330.337 284.6483 334.0459 283.0817 338.99 283.304 340.5095 283.3467 342.2248 282.3293 343.1612 280.9306 343.5028 279.6805 343.4425 274.863 342.4251 273.3494 342.8623 272.7001 345.302 272.8031 350.629 271.7475 354.2481 268.8837 355.3656 266.6767 356.7923 264.9363 357.2046 263.4846 356.8586 255.1113 351.4506 252.2814 350.5863 249.1497 351.1826 246.1387 353.481 244.7768 354.9902 242.8922 356.7643 240.7808 359.1245 241.3374 361.1314 242.8333 363.4577 243.9008 366.3479 243.8448 368.9349 236.2003 372.5981 236.8261 373.8599 237.9701 375.3308 237.9804 378.0002 237.7654 382.6881 236.2224 384.3711 234.2274 386.0392 232.995 388.1933 231.7788 389.2431 229.6056 390.5712 226.6315 391.8992 221.4738 393.0697 217.3453 393.8471 215.789 394.6054 213.5982 396.1764 211.8505 398.0566 211.4323 400.0914 211.7783 402.4177 212.3879 404.3303 213.1579 405.6304 213.6217 407.2677 212.993 411.6907 211.4971 416.8115 210.063 419.0937 207.747 420.3466 205.749 421.7439 206.4101 425.1009 206.7561 429.9155 206.1951 433.7584 206.095 436.1362 205.2499 438.598 204.7522 440.3295 203.7554 439.9099 199.6034 440.113 195.0936 441.4293 193.5152 442.4791 193.1721 443.9117 192.1739 444.8805 190.7266 445.9657 189.3425 447.3011 186.8513 447.0876 184.4484 446.1762 183.1969 445.2869 183.1086 444.7569 183.9022 443.4553 184.5765 442.0359 184.6354 441.1054 183.8183 438.8144 183.1557 436.3468 183.4296 435.1586 182.8391 431.5277 182.5108 431.3422 179.36 432.2845 178.1983 432.5172 177.5431 432.9191 177.3399 433.6141 178.0967 435.9168 177.602 436.3158 175.8322 436.2525 173.3601 435.4928 170.6598 433.3814 169.9899 434.0646 169.6954 435.746 169.5187 437.7367 170.2019 441.3498 169.4804 442.6381 167.6724 442.407 165.2474 442.4114 163.1316 442.7707 161.7285 442.8531 160.8495 444.1429 160.4799 445.5814 161.3221 447.1833 161.1911 447.8621 160.5491 448.4819 159.7158 448.8559 159.0326 448.8103 157.0685 447.039 154.7333 446.3706 149.2797 445.3546 148.6201 442.9194 147.7234 442.884 146.4645 441.5987 145.216 439.9143 144.1647 440.0041 143.2813 440.4738 140.2954 440.2868 137.6436 442.8546 135.6795 446.0422 133.5726 447.575 131.2551 448.2464 130.3599 448.2758 130.8472 446.2543 130.5086 444.7804 129.8578 443.47 123.0967 439.9688 122.0366 438.5214 120.9839 434.5534 120.3037 430.5751 120.3773 428.24 120.8396 426.1551 120.6467 424.537 119.9032 423.3046 117.8802 422.1194 115.7629 421.5628 113.0847 423.122 111.7979 423.415 110.592 423.309 109.9736 422.7363 110.0575 421.9412 112.9713 417.6846 114.3877 415.9075 116.1001 414.5573 117.253 413.8329 117.995 412.7876 118.0598 411.9689 117.7904 411.3741 115.8837 410.5923 112.9272 408.6061 111.3473 408.394 110.0266 407.493 108.6249 404.3936 107.9712 403.7988 106.5651 403.4749 105.29 402.7211 105.3489 398.6838 105.4019 395.2047 102.5205 389.595 101.406 386.0657 99.9557 382.4378 98.6247 380.7358 96.291 379.3003 93.4243 378.3079 90.8771 378.0841 88.9115 378.4154 88.0016 378.8571 88.0532 379.5329 89.6462 381.8312 89.926 383.1063 89.6654 384.3416 89.125 385.1661 87.7116 385.2559 85.2439 385.973 82.2005 387.3658 80.073 388.5526 78.3709 391.5871 77.1872 391.9655 75.1759 391.5871 69.4484 389.3565 64.731 387.5175 61.4815 386.4559 59.5203 387.1303 58.5294 387.4542 55.7231 388.6865 51.9936 393.161 51.1043 394.6408 50.3593 395.1134 49.3449 395.9011 48.3834 395.9217 47.609 395.3872 47.3645 395.0618 45.4505 391.8344 43.3494 388.289 41.6297 386.6812 39.4786 386.6105 37.6308 387.7177 35.7182 390.0028 33.2932 392.1186 31.7546 392.7458 30.4133 392.4028 27.1123 389.7319 24.7668 387.834 24.4723 386.8785 25.3057 385.415 26.1199 383.2418 27.0092 381.4793 27.8735 380.674 Z"/>
</g>
</svg>