<?xml version="1.0"?>
<svg xmlns="http://www.w3.org/2000/svg" version="1.2" baseProfile="tiny" width="500" height="546" viewBox="0 0 500 546" stroke-linecap="round" stroke-linejoin="round">
<g id="ne_50m_admin_0_countries-Marshall Islands">
<path d="M 283.8897 542.2359 281.8997 545.3051 279.3751 545.0922 281.573 542.8101 283.0878 539.6271 285.5134 530.573 290.5132 527.3355 293.9784 523.5733 293.1468 527.4741 287.6916 531.5779 283.8897 542.2359 Z M 202.2989 392.3013 200.794 393.8656 191.0419 392.9349 186.5669 390.9894 186.9926 389.539 194.7151 390.935 202.2989 392.3013 Z M 480.8027 418.7359 484.5946 420.9288 492.0597 420.7605 499 426.3494 496.3268 425.998 492.5646 423.6119 489.1192 422.607 484.5352 422.8991 482.367 421.9783 480.8027 418.7359 Z M 432.6066 409.6125 445.2794 414.8103 462.1896 412.3797 459.4768 413.939 453.1602 415.3994 448.9624 416.6567 446.1308 416.6567 442.7844 416.1716 431.9532 412.548 425.894 407.8007 427.3791 406.2116 432.6066 409.6125 Z M 5.6236 2.5791 2.9999 3.2722 1 2.5494 2.4356 1.2376 5.3959 1 6.5443 1.3663 5.6236 2.5791 Z"/>
</g>
</svg>