<?xml version="1.0"?>
<svg xmlns="http://www.w3.org/2000/svg" version="1.2" baseProfile="tiny" width="800" height="328" viewBox="0 0 800 328" stroke-linecap="round" stroke-linejoin="round">
<g id="us-states-21">
<path d="M 2.968 1 666.164 1 682.8915 227.3131 799 229.2811 763.577 305.0467 736.0258 307.9987 686.8272 318.8225 648.4525 326.6941 649.4365 297.1751 634.677 285.3675 655.3402 272.5757 627.7891 243.0566 618.9333 255.8482 581.5425 252.8965 568.751 220.4254 580.5585 220.4254 581.5425 178.1146 593.3501 161.3871 577.6066 104.3169 597.286 70.8619 627.7891 64.958 632.709 30.5191 610.0776 34.455 609.0936 52.1665 561.8631 74.7977 548.0875 95.4611 545.1356 147.6116 527.4241 172.2107 535.296 213.5376 558.9111 242.0727 555.9592 263.7201 570.7187 285.3675 562.8471 300.127 521.5202 271.5917 462.4821 257.8162 444.7706 230.2651 411.3156 246.0086 398.524 224.3612 425.0912 196.8101 440.8347 168.275 464.45 149.5795 441.8187 131.868 427.0591 142.6917 403.4439 125.9642 366.053 117.1085 366.053 90.5412 346.3736 75.7817 318.8225 72.8299 298.159 22.6474 267.656 22.6474 237.1529 5.9199 220.4254 19.6955 190.9062 18.7115 184.0185 38.3909 130.8841 25.5992 95.4611 52.1665 71.8459 46.2626 36.423 76.7656 1 93.4931 2.968 1 Z" id="24"/>
</g>
</svg>