<?xml version="1.0"?>
<svg xmlns="http://www.w3.org/2000/svg" version="1.2" baseProfile="tiny" width="800" height="313" viewBox="0 0 800 313" stroke-linecap="round" stroke-linejoin="round">
<g id="us-states-22">
<path d="M 601.9479 4.6718 610.5153 43.8374 600.724 75.6597 565.23 105.0338 564.006 139.3039 612.9632 144.1994 642.3375 179.6934 637.4417 207.8436 661.9203 215.1872 664.368 240.8897 726.7882 262.9204 799 242.1137 783.089 272.7117 676.6074 299.6382 637.4417 300.8621 614.1871 280.0554 577.4694 286.1748 576.2454 302.086 534.6319 311.8773 517.497 271.4878 511.3773 264.1444 488.1227 248.2331 475.8835 195.6044 442.8373 195.6044 382.865 198.0523 382.865 194.3805 102.5859 190.7086 5.8958 188.2608 1 179.6934 54.8527 32.8222 235.9937 36.494 495.4663 43.8374 519.9449 23.0307 579.9172 1 601.9479 4.6718 Z" id="25"/>
</g>
</svg>