<?xml version="1.0"?>
<svg xmlns="http://www.w3.org/2000/svg" version="1.2" baseProfile="tiny" width="391" height="400" viewBox="0 0 391 400" stroke-linecap="round" stroke-linejoin="round">
<g id="ne_50m_admin_0_countries-mauritania">
<path d="M 22.9184 241.5502 20.8806 244.634 19.9787 243.4563 19.6284 241.4262 21.4322 238.5191 22.2861 237.0174 23.8605 236.4797 22.9184 241.5502 Z M 152.8091 396.9792 152.1133 396.7267 148.7443 394.4409 147.1203 391.7228 144.4642 389.6804 140.7806 388.3136 138.3802 386.7531 137.2676 384.9942 135.907 383.8242 134.4689 383.2214 134.3372 382.5907 134.6781 381.726 134.3356 380.1143 132.1723 376.5408 130.1577 374.8951 128.4376 375.157 127.4613 374.7184 126.8709 373.9312 126.6369 372.7721 125.4592 371.771 123.426 371.3402 121.7896 368.6903 120.5514 363.8197 118.9475 360.023 116.9763 357.3034 115.5662 356.2899 114.5232 356.1024 114.1684 355.6809 113.8879 354.8906 112.3475 354.6101 110.1888 355.4267 108.2487 355.154 107.2879 353.8244 105.9645 353.7066 104.2769 354.8007 102.4158 354.4799 100.3795 352.7427 99.2514 351.018 99.0329 349.3071 95.5229 345.8886 88.7168 340.7654 81.3017 338.3635 73.2729 338.6827 68.7696 338.4409 67.7887 337.6351 66.8015 337.6987 65.8082 338.6331 64.7513 338.8392 63.6294 338.3185 62.9289 338.7137 62.65 340.0247 59.8219 340.691 54.4446 340.7112 50.1055 341.517 46.8017 343.1039 42.1233 343.7857 36.0687 343.5626 32.4177 342.9814 31.1718 342.0393 29.4238 341.8192 27.1815 342.3197 25.1731 344.8581 23.4018 349.4327 21.9343 352.0438 20.7705 352.69 19.5308 356.0962 18.8335 361.8051 17.7797 364.3109 17.7642 350.0789 19.4921 344.7651 20.053 340.0913 23.7645 329.7799 28.1825 321.3327 32.2628 310.121 33.8047 299.2641 33.284 288.6257 32.0706 279.1666 30.0034 272.9152 28.0043 263.8652 25.0584 259.0892 19.6548 254.9237 18.4398 252.483 19.6982 251.5734 22.9834 250.9504 25.0786 247.7008 20.6481 248.9544 25.7728 238.9886 27.3659 232.2027 27.1133 227.7505 28.088 224.9998 24.1751 219.0352 21.1269 211.5302 19.5587 210.3416 17.9331 209.7156 17.7905 211.4775 16.9088 213.0597 15.0105 212.1067 11.6508 206.6488 6.9631 197.7631 5.3173 196.8534 3.9459 198.0699 3.0858 199.2368 1.5052 206.6488 1 203.7076 1.6849 200.2425 2.8425 195.9763 4.1551 190.0473 8.2245 190.0427 15.5017 190.0349 22.7789 190.0256 30.0561 190.0163 37.3333 190.0086 44.612 189.9993 51.8876 189.99 59.1664 189.9822 66.4436 189.9729 73.7208 189.9636 80.9995 189.9559 88.2767 189.9466 95.5539 189.9373 102.8311 189.9296 110.1098 189.9203 117.387 189.911 124.6642 189.9032 129.4635 189.8986 129.1814 185.6819 128.9552 182.3409 128.653 177.8422 128.3524 173.3684 128.0533 168.8945 127.7697 164.6918 127.4877 160.4938 127.2242 156.5964 126.984 153.0183 126.5718 150.9634 125.0284 146.8832 124.6936 144.8547 125.1136 142.7192 126.141 140.7016 128.9784 137.015 133.2787 134.1806 138.2423 130.9062 142.025 128.4113 143.9621 127.7929 149.8802 126.9298 154.5369 125.0423 159.0697 123.2029 160.9711 122.1832 161.1974 118.7275 161.1974 114.8735 161.1974 110.553 161.1974 106.231 161.1974 101.9106 161.1974 97.5901 161.1974 93.2681 161.1974 88.9477 161.1974 84.6257 161.1974 80.3053 161.1974 75.9848 161.1974 71.6644 161.1974 67.3424 161.1974 63.0219 161.1974 58.6999 161.1974 54.3795 161.1974 50.059 161.1974 45.7371 161.1974 41.9574 165.9471 41.9574 171.859 41.9574 177.7725 41.9574 183.686 41.9574 189.5995 41.9559 195.5114 41.9559 201.4249 41.9559 207.3384 41.9559 213.2519 41.9559 219.1654 41.9559 225.0773 41.9559 230.9908 41.9559 236.9043 41.9543 242.8178 41.9543 248.7313 41.9543 254.6432 41.9543 260.5552 41.9543 267.0111 41.9543 267.0141 38.3374 267.0141 33.1414 267.008 26.0161 266.9987 18.8613 266.9909 12.5713 266.9832 6.289 266.9754 1 272.9431 4.51 278.9109 8.0199 284.8786 11.5299 290.8479 15.0399 296.8156 18.5499 302.7833 22.0598 308.7526 25.5698 314.7219 29.0798 320.6896 32.5898 326.6574 36.0997 332.6266 39.6082 338.5944 43.1197 344.5621 46.6297 350.5314 50.1396 356.4991 53.6496 362.4668 57.1596 367.4676 60.0993 375.1461 64.8366 382.3024 69.25 389.5037 73.6882 378.3865 73.6944 363.5376 73.7022 353.4122 73.7084 343.0217 73.713 333.2821 73.7192 334.1298 80.9499 335.0317 88.8408 335.9367 96.7332 336.8386 104.6256 337.7436 112.5164 338.6471 120.4088 339.5505 128.3012 340.454 136.1936 341.3574 144.0845 342.2624 151.9753 343.1643 159.8678 344.0693 167.7586 344.9728 175.651 345.8762 183.5434 346.7797 191.4343 347.6831 199.3267 348.5881 207.2191 349.49 215.1115 350.395 223.0023 351.2985 230.8947 352.2019 238.7871 353.1054 246.678 354.0088 254.5704 354.9138 262.4628 355.8157 270.3537 356.7207 278.2445 357.6242 286.1369 358.5276 294.0278 359.4311 301.9202 360.3345 309.8126 361.2395 317.705 362.1414 325.5958 363.0464 333.4882 363.922 341.1343 367.7 345.1525 372.4513 350.2044 371.0659 357.3437 369.4139 365.8652 367.6086 375.1678 360.9001 375.1678 354.4272 375.1678 347.9543 375.1694 341.4814 375.1709 335.01 375.1709 328.5371 375.1709 322.0642 375.1709 315.5913 375.1709 309.1183 375.1709 302.647 375.1725 296.1725 375.1725 289.7011 375.1725 283.2282 375.1725 276.7553 375.1725 270.2824 375.1725 263.8095 375.174 257.3365 375.174 251.3146 375.174 247.6047 374.9602 246.2797 374.2349 245.7993 369.4201 244.696 369.7301 243.3881 371.1449 242.7171 372.6744 242.9511 374.6797 242.7419 376.3766 238.5872 377.0414 232.962 378.1773 227.0485 379.0559 221.0777 378.7413 219.0399 378.3493 216.8703 377.7155 212.1191 377.0197 209.5374 376.9608 206.5729 377.1173 203.0815 377.5047 201.958 378.3849 199.3205 381.977 196.7651 386.1425 195.0946 386.1223 193.2164 383.8444 188.0777 379.5363 181.8481 373.8832 179.0045 371.0705 177.4982 370.7079 174.5136 372.7256 172.0016 374.6673 169.3269 377.4133 168.1119 380.0415 167.1496 383.147 166.7219 386.8119 165.7503 391.072 163.59 394.5075 161.03 397.1094 159.127 398.3336 158.3925 399 152.8091 396.9792 Z"/>
</g>
</svg>