<?xml version="1.0"?>
<svg xmlns="http://www.w3.org/2000/svg" version="1.2" baseProfile="tiny" width="500" height="287" viewBox="0 0 500 287" stroke-linecap="round" stroke-linejoin="round">
<g id="ne_50m_admin_0_countries-Mexico">
<path d="M 20.9968 3.8584 25.492 3.5218 29.9863 3.1851 34.4807 2.8491 38.9751 2.5124 43.4702 2.1757 47.9646 1.8398 52.4597 1.5031 56.9541 1.1664 58.7495 1 57.7563 3.3645 57.0031 4.2519 64.4518 6.5765 71.9013 8.9012 79.3507 11.2258 86.7994 13.5512 94.2481 15.8759 101.6975 18.2013 109.147 20.5252 116.5956 22.8506 122.1476 22.8406 127.6989 22.8299 133.2509 22.8199 138.8021 22.8099 144.3541 22.8 149.9053 22.7892 155.4573 22.7785 161.0085 22.7685 161.0185 21.0022 161.0285 19.2352 161.0392 17.4689 161.05 15.7018 164.502 15.7202 167.9549 15.7378 171.4085 15.7562 174.8613 15.7739 178.3141 15.7915 181.767 15.8099 185.2198 15.8276 188.6726 15.846 188.7954 15.8736 188.9426 15.9357 190.3415 17.2779 191.775 19.3878 193.4661 20.8603 195.4134 21.6955 198.7336 24.1575 203.4251 28.2454 207.1663 30.9703 209.9572 32.3325 211.8317 33.5044 212.7888 34.4876 214.0765 36.619 216.504 41.5398 216.504 43.7992 217.4327 45.939 219.2895 48.7131 220.9132 50.346 222.3021 50.8376 223.8207 51.8201 225.4689 53.2926 227.3671 54.282 229.5161 54.7859 232.4843 56.1081 236.27 58.2471 238.8653 59.3401 240.2696 59.3861 241.4998 58.6996 242.5544 57.2808 243.5913 56.3673 244.6098 55.9585 245.0232 55.3051 244.8322 54.4047 245.521 52.3845 247.0886 49.2431 248.9615 47.5404 251.1397 47.2774 252.5632 46.6876 253.232 45.7711 254.3962 45.6737 256.059 46.3954 258.7632 46.8594 262.5106 47.0672 264.721 46.9967 265.3951 46.6469 265.7456 46.6653 265.7732 47.0504 266.3285 47.2137 267.4107 47.1554 268.3533 47.6938 269.5605 49.398 273.7158 52.1261 273.7212 52.1276 274.0717 53.0641 275.5197 54.4147 278.1826 56.4908 279.6896 58.2809 280.0401 59.7849 281.4007 62.164 283.7691 65.4174 284.8244 67.1714 284.5667 67.4245 284.7531 68.3403 285.3851 69.9179 286.5593 71.254 288.2765 72.3484 290.0129 74.3133 291.7684 77.1495 293.8952 79.307 296.3916 80.7842 297.8051 82.1593 298.1357 83.4309 298.1112 84.52 297.7308 85.4265 297.8918 86.2878 298.5936 87.1016 298.8275 88.1001 298.5529 89.4891 298.5713 89.8818 298.5721 89.8826 298.7753 90.1962 300.9918 92.583 302.1308 94.5119 303.035 97.5905 303.0396 97.6181 304.0497 99.4595 305.5023 100.2127 307.7342 100.4911 309.4299 101.1323 310.5895 102.137 312.0521 102.7436 313.8177 102.9523 315.5103 103.6149 317.1294 104.7331 320.1489 105.4671 324.5689 105.8191 327.9327 106.728 330.2413 108.1944 331.2567 108.4927 331.5313 108.5135 331.6632 108.2895 331.8373 107.8746 332.7308 107.3968 334.8599 107.0846 334.5738 110.3288 333.6243 112.9909 330.4959 118.5253 329.1921 121.9582 326.6695 131.7683 325.8942 138.1985 325.7124 141.2249 325.4915 141.6536 325.7316 142.1 325.1272 148.7925 325.4516 154.5063 325.2453 155.3914 324.3288 157.1147 323.683 159.4992 323.9376 160.5583 323.9238 161.2931 324.868 164.9215 325.1678 167.6458 327.9718 172.3158 329.5464 173.9448 331.4998 175.3568 332.2169 176.1536 331.8657 178.1377 331.0696 179.1425 330.7298 180.7347 330.3379 179.4163 330.4905 177.7067 331.1125 176.7879 331.134 176.1145 329.9851 175.3966 327.8836 173.0467 325.3166 168.8898 327.1428 175.5339 327.7701 176.5985 328.2579 177.041 329.0747 177.5081 329.2864 178.2298 329.2941 178.7636 331.5474 183.3822 334.0944 188.1557 334.2302 189.4603 335.2495 191.0633 341.7326 197.7657 345.7008 202.7685 347.0782 207.5206 347.9112 209.0031 348.3161 211.031 350.9169 213.3034 351.7114 214.7706 353.105 215.5859 354.2301 218.0455 356.3492 219.4851 355.843 219.5112 353.9916 218.7849 354.1151 219.2642 355.6743 220.2843 358.726 221.2905 359.4876 221.2928 358.2842 220.7705 357.265 220.0688 357.6216 219.966 359.753 220.8419 365.7153 221.131 368.3406 223.1749 371.742 224.0546 373.572 226.6638 375.6995 229.3911 377.057 229.52 378.117 229.5307 381.3098 229.0705 386.2712 227.3556 387.9793 226.5158 391.3101 225.3761 396.4058 225.1667 397.9857 225.4865 401.796 224.7763 403.6129 223.9051 404.2433 223.1136 404.5394 222.5299 408.0704 221.6955 408.7661 221.5306 412.3447 221.3803 414.0719 221.0735 416.1051 220.8932 417.5723 222.1196 417.5707 222.7186 416.5936 223.2877 417.0507 223.8361 418.7879 224.7457 421.9807 225.1138 423.013 224.9665 424.4818 223.6267 427.0771 222.329 427.0219 220.8181 426.5579 219.9913 425.804 219.9399 425.6238 219.4759 426.1507 218.3654 426.0118 217.9918 424.402 219.0564 424.0308 219.0533 424.2087 218.5563 424.5416 218.1613 429.2653 215.8413 430.4748 214.888 432.1068 214.0482 435.496 210.8975 436.22 204.9659 436.8965 203.9282 439.1429 202.1074 439.3845 201.559 439.5302 200.3189 439.4681 197.2043 439.5946 194.7546 439.5034 191.9844 439.9068 189.5125 440.2726 188.8245 441.5611 184.8678 444.2347 183.1168 448.8725 181.0476 449.9386 180.7024 464.7201 178.5112 466.794 177.9767 469.3349 176.5547 471.1917 176.0723 474.5793 176.1114 475.6201 175.922 475.8249 175.7257 475.8303 175.5362 476.4546 175.3422 478.4149 175.5278 482.0763 176.3845 483.4101 176.5992 486.6827 177.5947 490.2889 177.9951 490.8066 177.8218 491.2829 177.5188 491.6487 176.939 491.2721 176.4328 490.9217 176.4719 490.3112 176.7442 489.5841 176.7703 488.156 176.3538 488.4413 176.0041 489.8985 176.037 490.8296 175.8675 492.2117 175.254 493.6835 175.7134 495.6162 177.7458 496.9929 178.3924 497.1026 181.3367 497.3104 181.8736 497.8143 182.6513 497.1271 184.9337 496.3548 186.8212 495.3884 188.3697 493.2938 190.8079 490.7545 192.7552 487.6107 197.0885 486.8913 199.1186 486.9128 200.7461 487.445 202.3176 487.2909 202.8982 486.9066 203.4849 486.2678 203.4327 485.0284 204.1866 483.4277 206.4231 483.3901 207.1049 484.0934 207.73 485.0046 207.4301 486.1926 207.4033 486.8568 207.2184 487.5578 207.2675 487.4013 208.5499 486.6482 209.4602 486.1734 209.7455 485.3236 209.9005 484.3726 210.4189 483.8833 210.896 483.9293 212.38 484.4585 212.4958 485.5783 211.3891 486.2271 211.4436 486.359 211.9099 484.9064 215.7017 483.9723 219.5948 482.7075 221.8489 482.2635 225.1299 481.5993 226.5288 480.8277 227.9124 480.376 227.8357 479.1558 225.2127 477.9087 224.5371 477.6357 223.8997 478.3474 220.7207 478.0237 218.9605 477.3634 219.0303 476.5313 219.9951 475.4314 220.8334 475.4544 222.0437 474.1913 224.0554 473.8783 224.7173 472.6727 224.5616 471.2768 224.649 470.3074 225.1337 469.315 227.5742 466.8423 231.0125 465.8568 232.6791 465.0553 233.2558 464.4202 233.4798 463.7162 233.0855 462.0227 232.1422 460.7174 232.5962 460.2649 233.6776 460.2787 235.0459 456.9792 235.0436 451.3674 235.0382 444.224 235.0321 437.3375 235.0259 431.5707 235.0213 431.5508 238.0945 431.5324 240.8165 431.5109 243.8797 428.3296 243.8536 424.9665 243.826 425.238 244.1313 426.3869 244.7065 427.8794 246.0816 429.6434 248.2191 431.7801 249.921 434.2904 251.1888 435.9447 252.4297 436.7416 253.6423 437.1434 254.6754 437.1481 255.5298 438.0638 256.2039 439.7082 256.648 440.5579 257.4103 440.5579 258.0339 440.0372 259.4466 439.8845 261.002 440.084 262.4101 438.909 262.4339 436.062 262.4362 431.7211 262.44 427.7283 262.4423 424.5838 262.4454 419.8309 262.45 418.5294 264.6144 416.3651 268.2137 414.4032 271.4755 412.7535 274.2189 412.485 274.9399 412.4835 275.5258 414.5182 278.0936 414.1424 278.8391 413.4276 279.2287 413.2029 279.8315 413.2482 280.8094 412.7657 282.1125 412.9214 283.0083 413.1814 284.1127 412.755 285.0698 412.4099 285.9979 411.9996 286.3997 411.5378 286.0485 407.3533 281.7781 402.9871 277.0828 401.2675 275.5504 399.6025 274.3861 397.3645 272.2218 391.4858 267.4728 388.4509 265.3038 385.5971 262.7108 383.0385 261.2704 380.5106 260.3309 379.3893 259.7925 378.4015 259.0792 377.8539 259.0386 377.5809 259.998 378.4644 260.4828 379.522 260.8923 380.3595 260.9207 381.2408 261.2651 383.8339 262.5773 384.2588 263.2545 376.8845 260.6216 373.888 260.3808 373.562 259.9674 375.0568 258.5914 374.5897 258.0929 374.0567 258.0262 372.4538 258.978 371.8571 259.0416 371.7528 258.415 371.8241 257.8253 370.791 256.9594 370.1353 256.9946 369.5968 257.5975 368.2018 258.7418 368.2439 259.1912 370.9896 259.679 371.9361 259.9536 371.7221 260.2588 369.3675 260.2534 366.4608 260.7727 361.2769 263.9494 356.4489 265.3146 349.5095 268.3732 346.4455 268.5297 344.8403 269.0197 340.1733 267.8494 334.2563 264.9771 325.3013 264.0729 319.2669 260.3117 313.277 258.764 309.4775 255.1524 307.1881 254.9983 305.7163 254.4192 300.2755 253.1108 294.8938 252.2487 289.6501 249.0935 286.218 248.0933 283.2514 246.8386 276.7185 244.6957 274.2972 243.5077 272.0055 241.6701 268.2727 239.768 266.6775 238.1797 264.8989 237.6106 262.3526 234.6195 261.0227 233.3586 259.8976 232.7696 258.6911 232.5663 255.2184 232.8064 250.0291 231.4872 247.6324 231.1505 242.6226 229.2024 235.977 227.0266 233.7988 224.5294 231.9351 222.1955 228.5812 219.1246 226.489 217.8155 222.8551 216.2578 220.8419 214.9977 217.7349 214.029 212.4652 211.5709 210.7886 209.4679 209.8077 207.5996 207.0006 205.3332 203.9266 201.0989 203.1359 199.5389 202.5392 197.1444 201.8244 195.7547 200.9838 194.6664 201.4126 193.8749 202.9764 192.9016 205.5764 192.6831 207.4125 191.6277 207.6556 190.7618 207.5359 190.2227 206.3617 188.8958 204.8999 188.5438 203.7648 188.5246 203.4749 188.02 204.3308 187.4693 205.3102 186.1762 206.7559 184.5986 207.7752 183.1437 207.9647 181.0936 207.835 179.0404 208.2208 177.3064 204.722 175.3046 204.314 174.4533 203.2141 172.1601 201.3029 169.4957 201.3596 164.1738 199.0618 159.4524 196.6812 157.104 195.4502 156.2864 192.1071 152.6441 189.4734 150.5288 186.8933 146.5414 184.3447 144.009 181.0974 139.7592 178.7513 137.6409 168.0691 130.4814 168.6712 130.4814 171.8027 132.2385 172.3296 132.092 172.4047 131.2345 172.0435 130.2106 171.4629 129.9652 170.6285 130.1953 169.5026 129.9844 168.9396 129.6469 167.2562 129.4276 165.144 128.2357 164.239 127.0002 164.14 125.589 161.1151 122.5825 159.967 120.9059 160.5553 121.0294 161.3606 121.7051 162.1766 121.8976 163.1261 121.903 163.8164 121.6315 163.5686 121.1337 162.919 120.718 158.5075 119.1343 157.0533 118.0222 153.4387 116.1723 152.5812 115.5234 152.0114 113.7357 151.1263 113.6528 150.3478 114.1513 148.2172 114.6399 147.6727 114.0708 147.5945 113.5232 149.0977 112.9434 150.4782 111.2538 150.4514 110.6663 149.6883 111.3443 148.5386 112.1028 147.349 112.5262 145.5835 112.8797 144.6808 112.6243 143.8901 112.2416 142.6231 110.7652 141.9842 105.9679 143.107 104.3044 144.4185 102.6608 145.5329 101.6852 146.1756 102.4215 146.8367 102.5097 146.3712 101.6776 145.2767 100.8991 144.8902 100.123 144.8488 99.412 144.3303 98.0936 141.0853 95.3218 138.0505 95.5343 136.8141 95.4384 135.6583 94.3831 134.6759 92.6037 134.1919 91.1151 134.1306 90.322 133.8422 89.5259 128.6092 88.2244 127.0362 87.1077 125.4578 85.7042 124.8044 84.5583 124.1563 83.7017 123.6532 82.2222 123.295 80.5011 123.8794 78.2747 124.6395 77.1979 121.0401 76.3972 119.6328 76.3596 118.4992 76.8106 117.4738 76.2277 115.3486 75.5834 112.8191 73.2549 109.8464 69.0336 106.5731 67.6738 105.5185 66.2066 104.1802 64.8844 103.0082 63.2454 102.8265 62.5321 102.4775 62.1348 100.8431 60.9928 99.007 59.0609 98.5315 57.5047 98.0376 55.1249 96.8135 54.2858 95.6071 53.8962 95.3717 52.7649 95.443 52.1307 95.0365 50.9319 92.5493 48.0558 91.2892 45.6913 90.5974 44.9566 89.95 43.879 89.6226 41.6763 88.5925 38.936 86.5984 35.6396 84.9349 33.4246 84.1058 31.1897 84.474 28.9157 84.1917 27.516 83.9778 27.1877 84.145 26.7291 84.6972 26.9868 85.1665 26.5765 85.1067 25.1277 84.5269 24.689 82.9163 24.2357 82.2053 23.9228 78.2885 23.3315 76.0474 22.5101 75.8979 20.598 74.8464 19.7229 73.9122 19.1822 70.9541 18.0579 70.487 18.6331 70.0912 19.6946 68.8626 19.9269 67.7881 19.9737 65.9857 19.2344 61.5151 16.4212 60.571 15.9702 59.1759 15.7317 58.4895 15.2754 55.4692 13.7951 56.0744 14.582 56.9472 15.4004 57.7264 17.7787 56.8114 19.4936 56.2814 25.4866 56.8659 26.6792 58.1797 28.5912 59.0854 31.6315 59.3669 33.8932 60.186 35.6887 59.9275 39.91 60.2389 41.1954 61.4868 43.3007 63.7968 45.2764 64.2808 46.3171 67.3187 47.8234 69.1609 49.7838 72.8201 52.4551 73.9743 53.5856 77.2753 57.7517 77.3827 58.9903 77.9917 60.5089 79.8431 60.1952 80.6745 61.3518 80.5786 61.8856 80.8033 62.2928 81.7743 62.2031 82.6118 62.5183 84.3697 67.0265 85.313 67.6416 86.5218 67.9047 87.8693 68.4016 87.9575 69.5574 87.9069 70.4786 89.0496 71.8115 88.8556 73.6169 89.7782 75.1455 89.6387 76.6257 90.0183 77.7984 92.8675 80.4452 96.3771 82.5505 97.1088 85.3146 98.5407 87.8401 100.0064 88.4798 101.4858 89.5298 101.3033 90.6196 101.4053 91.2892 103.3833 93.2825 103.7054 95.8219 105.4119 97.4839 105.8928 97.6142 106.2693 97.3542 105.0269 95.6846 104.4248 94.6009 104.3473 92.8913 104.7638 92.662 108.3071 95.3648 108.6807 97.3819 109.8702 98.5215 109.9592 100.0639 110.6816 100.9827 110.9002 102.3164 112.0384 104.5092 112.066 107.5578 112.675 109.7812 114.906 113.1927 116.7145 113.9098 117.0412 115.5848 118.921 119.9212 121.0931 122.2719 122.1752 124.2652 122.3248 125.5084 121.5118 127.3461 121.4252 128.6292 122.6063 132.5307 124.371 134.5301 126.3421 135.0133 126.6849 135.3002 126.5285 135.837 127.1911 136.3156 127.9366 135.7036 128.3002 134.8331 127.922 133.823 127.8561 133.0883 128.1912 132.5621 128.8332 132.4824 132.6043 135.1514 133.2371 136.176 134.6406 137.3755 135.926 138.8519 136.4813 140.0162 137.509 140.9756 138.0428 143.2098 140.665 144.2099 142.0594 146.0598 142.1514 147.2309 141.4749 150.2282 140.8836 151.091 138.7668 152.3657 137.2283 153.8866 135.7419 154.8238 134.1651 155.3937 132.8643 155.2656 131.6111 153.5154 130.1255 148.2372 129.1285 147.1259 128.4267 145.47 127.2655 144.0995 123.0672 142.0202 120.9481 139.826 118.8957 138.3611 116.6869 136.2405 110.6686 132.7263 108.1729 130.9354 106.5286 129.1637 105.4686 129.1898 104.6503 129.3724 104.3397 128.8876 104.2937 127.9704 103.9317 127.3691 100.4083 124.6993 99.6781 123.2229 99.5293 121.5095 100.3231 117.098 100.6721 114.518 100.4504 113.1888 100.0815 113.0078 99.7479 112.2853 99.6666 110.1624 98.8176 107.8523 95.6225 103.1195 93.2848 102.1838 91.2063 101.5042 85.5147 97.3182 83.9678 95.2252 83.5912 94.0364 83.3933 91.6166 82.6087 93.0186 81.5641 94.0556 79.1513 93.9796 76.4393 95.15 74.8257 94.0494 73.9559 92.8008 72.6314 91.2984 71.1397 91.0038 70.1887 90.9655 68.4047 89.1079 66.9628 88.5181 64.8967 88.2904 63.1396 87.3455 62.5989 86.3177 62.3066 84.8628 61.6532 84.0008 58.8929 82.2974 56.645 80.4183 54.5282 79.2111 53.9046 78.2241 53.8533 77.5491 57.1979 77.7363 61.18 78.4587 63.0889 78.2555 64.2793 77.5591 65.412 77.0598 65.5931 77.6005 65.386 78.5876 66.4789 79.4926 67.9783 80.2258 69.0444 80.1591 68.012 79.3591 67.3785 77.7263 67.6623 77.1388 67.6454 76.3266 66.1652 76.5099 65.9574 76.0942 67.2236 74.8563 68.677 71.5883 69.3718 68.371 67.8479 65.5555 65.2763 63.5997 59.7036 57.8721 56.375 54.9301 55.4109 53.8348 54.5282 53.3195 51.8131 52.6468 49.5384 51.0025 45.5471 48.6763 43.8422 47.4768 42.6664 44.6597 41.73 44.2755 42.0245 42.3282 41.6149 38.8815 40.9461 37.9987 38.7849 37.1405 38.2702 34.7982 38.1636 32.5695 37.7426 31.0194 34.065 28.4064 33.8556 27.1425 33.8549 25.9429 33.4814 24.758 31.5172 22.2731 29.1442 20.1041 28.3182 19.0703 28.2193 16.9696 27.3772 16.4051 27.697 16.2624 28.4762 16.3146 28.9195 16.0369 28.9678 14.5751 25.3992 12.2773 24.3676 9.1175 22.4656 7.4447 22.02 6.8388 20.9968 3.8584 Z M 495.1775 195.9587 494.3645 196.4481 493.9243 194.7178 494.5754 193.0297 495.3631 192.0603 496.9223 191.946 497.9477 191.6277 498.0774 192.0565 497.2329 193.3649 495.1775 195.9587 Z M 187.9026 175.4212 187.4455 176.7143 186.2567 176.1966 185.8303 175.3851 185.749 174.0545 186.4086 173.8297 187.3658 174.3919 187.5636 174.7693 187.9026 175.4212 Z M 118.5989 220.4914 117.651 220.8227 116.2551 219.8602 116.6279 219.0986 117.4217 218.5801 118.1648 219.5449 118.5989 220.4914 Z M 124.0505 122.1323 124.4984 123.8902 123.6923 123.6309 122.6362 122.6761 121.9137 121.4543 121.9789 120.9075 122.1208 120.807 123.6133 121.5249 124.0505 122.1323 Z M 83.3964 58.5371 83.2837 58.8116 81.6823 57.8384 78.0446 54.5259 76.7208 52.8669 76.5045 52.09 76.6173 50.3567 77.862 50.563 79.3078 51.7249 79.9374 52.8002 79.9689 54.0343 82.6655 54.6164 83.0459 57.2854 83.3964 58.5371 Z M 51.7464 73.9751 51.5317 74.4798 48.8826 73.4321 50.336 71.6006 50.1228 69.6809 50.7578 69.279 51.3323 69.9148 52.0931 72.3614 51.7464 73.9751 Z M 98.3582 59.2741 97.1748 62.9808 95.9676 62.921 93.4734 61.7514 93.2073 61.0228 94.1683 56.7232 94.8954 56.1587 97.0705 55.5812 97.4102 56.1096 97.6411 57.379 98.3582 59.2741 Z M 3.4911 60.2696 2.82 60.8694 1.0199 57.5937 1 56.8014 1.5269 56.4111 2.3989 56.4854 2.4028 57.3076 3.1337 58.0002 3.419 58.6766 3.4911 60.2696 Z M 498.7216 181.2569 499 182.0155 498.7277 181.925 498.3703 181.3513 498.1111 180.6365 498.3281 180.6181 498.5191 180.8643 498.7216 181.2569 Z M 420.6616 221.4984 418.8953 221.8619 418.5816 221.5214 422.1472 219.9169 422.7569 219.9852 422.9701 220.1999 421.124 220.9623 420.6616 221.4984 Z M 136.0242 135.521 135.6836 135.5763 134.8799 134.7426 134.5255 132.6964 134.6851 132.4778 136.2013 135.0133 136.173 135.3247 136.0242 135.521 Z M 59.2304 16.8599 58.7104 16.9266 57.7371 16.2034 57.81 15.5377 58.0217 15.4702 58.9957 16.0546 59.3278 16.5677 59.2304 16.8599 Z M 115.6799 106.1558 115.877 106.7226 115.7719 106.8867 115.1308 106.4925 114.0432 108.8402 113.7265 109.0572 114.3822 105.8414 115.0679 105.3827 115.8279 105.2907 115.6799 106.1558 Z M 106.2778 131.7116 106.0669 132.4532 101.3393 129.5158 102.4767 129.2374 103.7967 129.4437 106.2778 131.7116 Z M 100.6483 129.3225 100.3331 129.4974 98.9894 127.6797 98.7915 126.4342 98.2416 125.9073 96.8864 125.4908 98.056 122.9545 99.0438 117.7001 99.4795 118.6626 98.4318 123.986 98.4847 124.6832 98.9756 125.3336 99.5025 126.4342 99.5646 127.6214 100.488 128.7266 100.6483 129.3225 Z"/>
</g>
</svg>