<?xml version="1.0"?>
<svg xmlns="http://www.w3.org/2000/svg" version="1.2" baseProfile="tiny" width="800" height="648" viewBox="0 0 800 648" stroke-linecap="round" stroke-linejoin="round">
<g id="us-states-23">
<path d="M 695.2217 643.3327 560.3101 647.156 560.3101 640.6016 442.3306 640.6016 359.308 640.6016 379.5175 627.4927 393.1725 605.0985 405.7351 591.4435 415.0205 572.3265 420.4825 545.0164 418.2977 515.5216 388.8029 457.6242 398.0883 435.7761 391.5338 409.5585 414.4743 382.7946 419.3901 360.4004 416.113 348.384 432.499 343.4681 434.6838 327.0821 460.3552 322.7125 480.0185 304.6879 478.3799 340.7372 488.7577 342.3758 501.8665 324.3512 502.4127 293.7639 510.6057 286.1171 537.9158 281.2012 529.1765 259.8994 547.2012 241.8748 569.5955 240.7824 594.7207 252.2525 619.2997 253.8911 631.3162 268.0924 649.887 269.1848 681.0205 282.2936 691.9445 281.7474 708.8768 303.0493 695.2217 314.5195 708.3306 329.2669 713.2464 346.1991 707.2382 383.3408 687.0287 392.6263 682.113 411.7433 658.08 418.2977 644.9713 441.2382 649.887 449.9774 673.9199 458.1704 692.4907 445.6078 714.3388 419.9363 748.7494 410.1047 765.6817 417.7515 776.0595 431.9528 786.4373 473.464 788.076 494.2197 799 519.3449 788.6222 555.3942 772.2361 560.8563 771.6899 547.7474 760.7659 551.5708 748.2032 581.6118 727.9939 593.0821 721.9856 616.0226 696.8604 635.1396 695.2217 643.3327 Z M 490.3962 244.6057 492.0349 256.6222 478.9261 258.807 484.3881 241.8748 490.3962 244.6057 Z M 282.8398 307.965 267.5462 297.5872 276.8316 283.386 253.3449 281.2012 262.6303 267.5462 263.7228 250.0678 242.9671 238.0513 231.4969 225.4887 188.8932 215.657 175.7844 218.9343 133.1806 204.1869 30.4949 183.9774 19.5708 167.0452 1 161.0369 39.7803 150.6592 57.2587 138.6427 100.9548 133.7268 129.3573 118.9795 142.4661 118.4332 153.3901 108.0554 184.5236 93.308 200.3634 80.7453 223.8501 72.5523 246.2443 79.6529 206.9178 110.2402 197.6324 120.6181 198.1786 139.1889 217.2956 124.9876 251.7064 127.1725 278.4703 137.0041 302.5031 164.3141 315.6119 169.23 340.7372 164.8604 346.7453 170.8685 371.8706 174.1458 425.3984 151.2053 453.2547 149.0205 490.3962 150.113 515.5216 142.4661 534.6386 141.9199 538.462 169.7761 558.1252 173.5996 577.7885 169.23 585.9815 175.7844 599.0904 167.5914 628.039 164.8604 628.5852 199.8172 641.694 214.5647 661.3573 218.3881 663.5421 208.5564 682.6591 208.5564 693.0369 218.9343 684.2977 226.5811 629.6776 220.0267 603.4599 224.3962 575.0575 212.3799 566.8644 223.3039 570.6879 232.5893 558.1252 230.4045 539.5544 216.7494 507.3286 208.5564 490.9424 208.0102 475.1026 221.1191 448.885 224.3962 420.4825 221.6653 409.0123 227.1273 406.2813 238.0513 375.1478 247.3367 376.7864 234.2279 363.1314 231.4969 357.6694 245.1519 334.7289 245.6981 324.3512 251.7064 309.0575 275.193 280.655 305.2341 282.8398 307.965 Z M 161.5831 20.6633 136.4579 33.2258 123.3491 34.8644 124.4414 24.4866 187.2547 1 175.2382 17.386 161.5831 20.6633 Z" id="26"/>
</g>
</svg>