<?xml version="1.0"?>
<svg xmlns="http://www.w3.org/2000/svg" version="1.2" baseProfile="tiny" width="800" height="619" viewBox="0 0 800 619" stroke-linecap="round" stroke-linejoin="round">
<g id="us-states-24">
<path d="M 547.5439 281.7353 539.5065 277.1424 518.2647 285.7539 518.2647 347.7568 511.9497 354.0719 482.0964 362.6834 457.9842 385.0734 456.2619 400.0001 468.318 401.1482 481.5223 414.3525 469.4662 430.4273 471.7626 448.2245 464.2993 486.6893 491.8561 505.6346 513.672 507.3568 524.5799 518.8388 556.7295 530.3209 561.8964 544.0993 591.7497 561.8964 608.3986 565.9151 628.4921 588.8792 625.6216 605.528 631.3626 617.5842 615.2878 617.5842 82.5224 617.5842 82.5224 429.2792 58.4101 417.2231 40.0389 397.1295 68.7439 374.7396 71.0403 362.6834 67.0216 320.7741 54.3914 309.8662 45.7798 286.9021 47.5021 258.7712 43.4835 254.1785 40.0389 187.0087 19.3712 151.4144 11.3338 131.3209 7.8892 88.8374 14.7785 74.4849 1 41.1871 218.5841 41.1871 218.5841 1 239.2518 2.1482 253.0302 10.1856 266.8086 64.7251 277.7165 71.0403 312.1626 72.7626 316.1813 77.9295 356.3683 80.2259 360.9612 91.708 395.4072 88.8374 395.4072 84.2446 422.3899 78.5036 445.9281 80.8 472.9108 89.4115 480.3741 100.3195 495.8749 99.1712 510.2273 122.7093 517.1165 112.9496 543.5252 108.3569 548.118 118.1166 579.1194 125.0057 579.1194 134.1914 594.6201 141.6546 626.1957 137.636 645.141 127.3022 670.9755 120.9871 680.1612 136.4878 697.9583 133.0431 719.2 136.4878 743.8864 134.1914 772.0173 147.3957 799 145.0993 796.7036 150.8402 761.6835 164.0446 712.8849 174.3784 681.3093 185.2863 635.9554 212.2691 616.436 228.918 586.5827 247.8633 539.5065 273.1238 547.5439 281.7353 Z" id="27"/>
</g>
</svg>