<?xml version="1.0"?>
<svg xmlns="http://www.w3.org/2000/svg" version="1.2" baseProfile="tiny" width="800" height="558" viewBox="0 0 800 558" stroke-linecap="round" stroke-linejoin="round">
<g id="us-states-26">
<path d="M 524.2139 29.3352 513.6706 46.4681 514.9885 70.8496 530.1445 107.7514 567.0463 138.7225 607.2427 164.4219 615.1503 203.9595 624.3758 211.2081 638.2138 200.0058 664.5722 205.2774 681.7053 213.8438 669.844 228.341 673.1387 239.5433 652.711 270.5144 652.052 289.6242 687.6358 314.0057 700.815 329.8208 713.9943 327.1849 752.8728 352.8844 752.8728 371.3352 762.7572 394.3988 752.8728 402.3063 779.8902 436.5722 799 437.8901 789.1156 486.6532 771.3236 481.3814 764.7341 496.5375 756.8266 496.5375 750.2369 496.5375 750.8959 526.1907 727.1734 556.5028 649.4161 556.5028 668.526 534.0982 686.9769 519.6011 676.4335 496.5375 156.5145 495.8786 139.3816 495.8786 139.3816 435.9132 140.0405 176.2832 114.3411 170.3525 95.2313 142.0173 80.0752 130.156 107.0926 95.2312 68.2139 86.0057 56.3526 74.8034 26.6995 43.1734 1 4.2947 137.4047 6.2716 302.8035 4.9537 474.1329 1.659 486.6532 1 511.0347 25.3814 524.2139 29.3352 Z" id="29"/>
</g>
</svg>