<?xml version="1.0"?>
<svg xmlns="http://www.w3.org/2000/svg" version="1.2" baseProfile="tiny" width="800" height="1088" viewBox="0 0 800 1088" stroke-linecap="round" stroke-linejoin="round">
<g id="us-states-25">
<path d="M 775.5294 1 799 24.4706 766.8822 271.5294 715 700.1765 732.2941 1044.8235 707.5882 1054.7059 653.2353 1049.7647 631 1034.941 576.6469 1044.8235 501.2941 1070.7647 477.8235 1086.8235 450.6469 1063.3528 442 1026.2941 404.9412 976.8822 427.1765 902.7647 1 902.7647 17.0588 886.7059 1 842.2353 28.1765 839.7647 31.8825 757 54.1178 761.9412 67.7059 711.2941 120.8235 679.1765 148 627.2941 143.0588 560.5882 109.7059 532.1765 112.1765 486.4706 128.2353 476.5882 107.2353 450.6472 124.5294 419.7647 112.1765 372.8235 131.9412 354.2941 92.4118 324.6472 128.2353 255.4706 169 219.6472 155.4118 194.9412 202.3528 157.8825 201.1178 143.059 241.8825 130.7059 238.1765 86.2353 261.6472 76.3531 277.7059 38.059 313.5294 20.7647 299.9412 1 715 1 775.5294 1 Z" id="28"/>
</g>
</svg>