<?xml version="1.0"?>
<svg xmlns="http://www.w3.org/2000/svg" version="1.2" baseProfile="tiny" width="500" height="431" viewBox="250 0 500 431" stroke-linecap="round" stroke-linejoin="round">
<g id="ne_50m_admin_0_countries-Moldova">
<path d="M 1 31.8931 4.0464 27.0327 33.347 13.8433 40.9353 16.0034 56.2364 16.5227 87.4341 16.0727 102.8045 7.3836 112.2898 9.8068 120.0304 5.9157 132.9082 1 134.7499 2.0385 136.3839 2.8209 156.3377 5.0018 171.3065 9.7168 181.318 16.952 191.6341 21.4454 202.2826 23.1832 208.1815 26.7973 209.3724 32.2946 219.3423 34.9948 238.0914 34.9117 246.0536 38.5328 243.1872 45.851 245.1119 48.2604 251.7724 45.7541 256.8128 47.9142 259.4992 53.3285 262.4902 55.9041 272.0447 47.4296 282.1393 48.2674 306.5519 51.7845 319.5959 69.3566 327.7242 75.6709 334.8417 78.2396 343.8562 75.4978 351.8045 72.223 356.4017 73.7669 366.2471 85.4124 368.5596 100.6443 368.5042 106.8063 365.0008 117.1502 360.0158 128.1725 356.0556 135.3315 357.7449 141.0988 361.2759 145.9246 367.0641 147.5101 385.9516 157.2585 392.986 164.0229 403.2329 169.0425 411.0289 169.3125 415.0722 172.1096 416.5123 175.5368 415.4461 184.2259 411.0704 192.3819 411.652 197.6161 418.5202 203.7989 419.2541 210.9994 419.7249 215.6382 423.3805 219.2108 440.6757 227.1383 463.0943 234.7958 468.7993 241.3871 472.2611 249.7023 471.1672 263.7087 469.6855 275.9219 499 292.3378 495.6628 295.3911 491.1486 298.7559 463.122 301.2553 457.4308 302.6262 445.2452 290.2538 438.8478 288.7029 432.852 293.2378 425.8177 295.7788 417.3293 294.5118 408.2456 290.6969 403.676 287.9897 399.9927 287.6782 394.3292 290.3784 386.7686 289.2221 381.8529 286.1688 374.7216 296.6581 370.3597 298.8805 367.6318 298.5413 367.0918 280.7269 365.0285 278.0336 359.365 277.6182 345.6979 281.8554 332.7231 287.3182 328.3335 292.1924 328.7766 300.9645 330.646 311.433 339.5082 327.3088 334.634 334.2324 331.2137 345.2478 317.2835 355.3563 301.5807 361.2413 300.2376 373.3161 291.4862 381.5621 276.5589 389.7942 266.5335 399.7226 269.0676 406.5216 269.6768 412.9605 267.9736 417.3363 267.5859 420.715 263.6672 422.2105 240.8332 423.429 234.3804 425.513 226.9583 430.2557 219.8685 421.2758 212.6957 413.4244 207.4199 409.1941 209.6355 407.2417 215.382 405.04 219.4808 402.3675 218.9823 393.0137 215.9636 382.2683 213.208 377.0687 212.9311 368.9127 210.9648 356.2148 213.7204 332.6677 225.1305 303.0485 231.4725 288.3428 228.3984 280.2907 230.7801 261.4655 225.8505 252.1671 218.0961 240.0162 207.0045 213.5958 193.1712 204.4082 176.0976 194.2997 168.8001 186.6699 163.9259 178.2647 153.7482 169.9218 142.1028 162.2504 128.1725 143.0928 120.9443 134.4384 118.7287 132.1051 102.8045 119.8227 94.4408 108.7311 90.2174 99.6196 87.7664 91.1798 76.5918 74.5147 66.4279 61.983 56.7626 53.0723 52.3038 46.758 40.9907 38.8028 24.8725 32.4677 14.4456 31.3807 1 31.8931 Z"/>
</g>
</svg>