<?xml version="1.0"?>
<svg xmlns="http://www.w3.org/2000/svg" version="1.2" baseProfile="tiny" width="500" height="165" viewBox="0 0 500 165" stroke-linecap="round" stroke-linejoin="round">
<g id="ne_50m_admin_0_countries-Mongolia">
<path d="M 2.1011 46.7657 2.1631 46.7687 3.9675 46.7309 4.7933 46.3845 5.4194 45.8756 6.7701 45.3099 7.0574 44.6573 7.0771 43.3709 7.9604 42.2835 10.2094 41.9606 11.07 41.801 11.985 41.9583 13.4083 41.8055 14.7846 41.7503 15.5514 42.0846 16.5602 42.3682 17.8579 42.3341 18.3026 41.8214 18.357 41.1075 18.9197 40.9207 19.6199 41.4168 20.0102 41.7874 20.5955 41.9568 22.1609 41.5144 23.2529 41.0364 23.6083 40.0533 24.2435 39.5678 25.0996 39.8144 26.5924 39.8083 27.822 39.0491 29.4358 38.4426 30.5959 38.1673 30.8349 37.6561 30.2889 36.5285 30.4371 35.2936 31.9919 34.5956 34.064 34.5117 35.6022 34.0345 36.0302 32.7186 36.7849 32.3398 37.5593 32.1915 39.4302 31.9843 40.7748 31.4504 41.6036 31.2069 43.9585 30.4878 46.0987 30.3479 47.0167 29.7739 47.7351 29.0532 48.933 28.7779 50.1581 28.1518 51.7749 27.357 52.4132 27.2465 55.0615 26.7852 56.096 26.6151 56.7192 26.5115 57.8687 26.5433 58.3557 25.7046 59.5203 25.0875 60.6849 24.878 61.2626 24.2647 62.3803 23.4843 63.8973 23.0495 66.2553 22.9874 68.5391 23.0744 69.9079 22.9413 71.0377 21.7858 71.2494 21.2126 71.5096 20.6303 72.4231 20.4079 73.5317 21.354 74.4619 21.9423 75.8942 22.5564 76.6338 23.1319 77.4808 23.2105 78.3686 22.781 78.9978 21.7321 80.1926 21.5703 81.507 21.7389 81.8518 22.2547 81.9622 22.7568 82.5687 23.6544 84.0131 24.4387 85.8629 24.3978 86.6055 24.2579 88.4068 24.3676 90.1764 24.5385 92.1048 24.723 92.6689 24.7517 94.735 24.8455 97.7463 24.9816 99.0773 24.9196 101.7921 25.1745 102.3487 25.8717 102.8493 27.5211 103.2759 29.0925 103.3968 30.3562 104.1017 31.0096 105.0046 31.2251 105.599 31.7348 106.6486 32.4298 107.4245 33.4242 108.3653 33.3569 109.0247 33.1217 110.4676 33.0453 112.3113 33.1142 113.5909 33.6639 114.0779 34.3869 115.1169 34.7915 115.9654 34.6614 118.4943 34.6569 119.3639 34.7022 120.2336 35.1 121.4859 35.1666 122.1756 34.6614 124.3536 34.3181 125.6165 33.5981 126.5859 33.5913 127.321 33.9377 127.8836 34.4111 128.717 34.2009 129.1662 33.8106 129.8937 33.8114 130.6091 34.0632 132.4362 34.5026 133.7581 35.3231 134.782 35.4018 136.1024 35.162 136.7119 35.0509 137.2927 35.4562 138.1472 35.6748 138.7946 35.3738 139.9017 35.1613 144.1457 35.6067 145.1272 36.4264 145.8789 36.8114 146.487 37.4821 147.5971 37.9608 149.9384 37.796 150.8459 37.3067 152.7425 36.2215 153.4942 35.1628 154.4486 34.8202 155.5285 34.6493 156.5327 34.6508 157.5915 34.616 158.8725 33.8416 159.9146 33.5709 161.4558 32.5863 161.7432 32.1409 162.4888 30.9952 162.9516 30.2654 163.7306 29.1076 164.1495 27.2405 164.387 26.2498 164.1828 25.5329 163.2693 25.1624 162.1001 24.9862 161.0762 24.4402 160.3154 23.808 159.8723 22.9186 159.2642 21.8796 159.299 21.1279 159.1281 20.5471 158.6124 20.0518 157.6263 19.1813 157.1483 18.5325 157.3101 17.504 158.4732 15.7458 158.5821 14.9298 158.7288 14.4209 158.6653 13.9603 159.0313 12.9076 159.6862 12.4645 160.4364 11.3354 161.4513 10.8151 162.7142 10.7811 163.2602 10.4733 163.5324 9.3458 164.1419 8.4761 164.5488 7.8613 165.3171 7.1898 169.7744 5.8958 171.6271 4.2866 172.2835 3.4751 172.9974 1.7313 173.6871 1 174.6929 1.2412 175.8726 2.2682 176.7574 2.2765 178.0702 2.8339 181.6457 4.0007 183.5862 4.3667 184.834 4.4809 186.481 4.8046 187.5443 5.4875 189.6164 6.6029 191.3648 6.888 194.3973 7.0007 198.0922 7.0589 199.1343 7.254 201.8371 8.0579 204.8242 8.9457 207.6389 9.739 209.7745 10.3546 211.0329 10.9513 212.2217 11.2938 213.5088 11.0019 215.1589 11.0685 219.0353 11.7831 221.4825 12.3843 223.5319 12.8297 224.2155 13.4446 224.2836 14.2643 224.0098 14.9578 224.158 16.6389 224.8175 17.5191 225.061 18.7019 225.3075 19.8302 225.1351 20.9456 225.4451 21.5378 226.0879 21.8864 226.7081 22.6645 226.5024 23.4843 226.2301 23.9622 226.2709 24.7298 227.0151 25.3628 228.1056 25.4876 229.0751 25.6501 230.2654 26.6469 232.3874 27.7956 233.6593 28.1147 235.1189 28.6305 237.9033 29.1356 239.7969 29.2891 240.9131 29.699 242.0066 30.6897 243.8155 30.8946 244.9786 31.2372 247.0946 31.6455 248.4936 31.4088 249.7232 31.0648 250.552 31.1306 252.1371 31.3559 253.999 31.4028 255.5628 31.1676 256.8061 30.4704 258.2611 29.5281 260.0019 29.0502 262.0165 28.8793 263.3944 28.4974 267.9106 27.8614 269.7346 27.7525 271.1473 27.1384 272.3981 26.6597 274.2085 26.4548 276.6557 26.9577 278.9939 27.3774 281.8222 27.5135 283.7007 28.0935 285.0332 28.641 287.1295 29.0744 289.4617 28.8732 292.6515 28.6993 294.7689 28.9503 296.9771 29.9463 298.3338 30.7456 299.8659 32.4524 301.4586 33.2805 302.8561 33.9558 304.6181 33.9982 309.0148 34.0534 311.4287 34.4111 313.4388 34.6001 313.9228 34.9578 313.7216 36.13 313.7821 37.8073 313.7504 38.5772 314.195 39.158 314.8787 39.2608 315.2538 40.0798 316.249 40.5653 318.0306 41.1514 321.0329 43.1403 322.8221 43.9903 324.2348 44.2799 326.083 44.081 328.9779 44.0856 333.8843 44.0924 337.245 44.6898 338.4066 45.0997 341.8398 45.5731 345.621 46.0949 348.8017 46.6401 350.6832 45.9361 352.3318 45.8725 353.9078 46.3822 355.4793 47.1483 356.6983 47.0651 358.5284 46.7059 364.3559 44.5665 366.4068 43.7679 367.8421 43.9729 369.1217 43.6893 370.0957 43.4496 372.5852 43.1191 374.1007 43.0284 375.6661 42.8363 377.9151 42.7092 382.4919 41.3094 384.3461 41.0349 387.4815 41.4229 389.1709 41.1703 390.8497 40.4632 393.0292 39.735 393.5949 38.5537 394.7111 36.9331 397.1098 35.7383 399.0685 34.6962 401.0619 33.6828 403.5121 32.8389 405.8156 32.2256 408.7513 30.6209 411.091 29.8071 412.2572 29.5417 413.6395 29.8351 416.2364 30.0522 418.1089 29.9864 419.1661 30.1724 421.279 30.9566 423.1953 31.6455 424.6624 32.8714 427.3954 34.5835 428.7975 35.1582 429.7912 35.3949 432.2504 35.5568 434.2605 35.6407 435.4599 35.249 437.4851 34.5328 440.7157 33.6246 441.9892 33.6481 444.0703 34.1313 447.1679 35.0259 448.4126 35.6959 449.2142 36.521 447.7653 38.6732 444.8598 42.9883 442.4006 46.6409 441.1044 48.6993 440.153 50.2685 439.1639 51.7568 439.0263 52.6514 437.9161 54.0905 435.8516 55.8268 435.4054 57.7091 435.481 59.403 435.3101 60.9223 433.0475 61.8827 431.2764 62.7403 431.78 65.6185 432.6905 66.706 434.1667 67.8812 435.7155 68.8212 437.0555 69.616 438.5362 69.2378 439.7901 68.0264 442.2115 66.9631 443.544 66.9374 444.4893 67.1824 446.584 67.252 448.7287 66.8655 450.4106 66.7839 452.5885 67.0425 453.3705 67.2981 455.199 67.7655 457.1713 68.7894 458.5476 69.9343 459.5519 70.1536 460.0661 69.7891 461.1672 68.7728 462.7205 67.7919 464.599 66.1872 466.0192 64.9545 467.1354 64.7693 469.2846 64.7731 470.2556 64.4736 471.8845 64.3193 473.3184 64.7746 477.3264 65.015 478.4002 65.6457 480.3014 67.5197 481.3768 68.5209 483.2401 69.0246 484.3684 69.3679 485.3666 69.6402 486.3634 70.1234 486.6008 70.7102 486.9986 71.6049 487.6096 72.1206 488.7379 72.6258 489.5985 72.9343 489.8738 73.5839 490.143 73.9023 490.928 74.356 493.2557 76.2912 494.39 76.8092 496.1082 77.9315 496.8221 78.8601 496.8629 79.8364 497.306 80.5828 498.4555 81.7013 499 82.4568 498.7883 83.4845 498.9698 84.392 498.5251 85.332 496.6708 86.0285 496.0386 86.3567 494.7001 86.3884 492.4359 86.0368 490.2338 86.2357 487.6051 85.8508 485.536 85.0219 484.4304 84.361 482.6775 83.9685 481.8471 84.1719 480.8035 85.0265 479.6541 84.8752 478.5969 85.0265 475.8699 84.8518 474.3877 84.637 472.0358 85.2329 470.7109 85.4182 468.2198 86.1502 466.718 87.4146 465.5987 87.7171 464.5128 87.6566 463.7293 87.1931 462.5889 86.6312 460.9041 86.6629 460.4004 86.9004 460.1932 87.4162 459.6381 88.9793 459.6472 89.6818 459.2827 90.1356 458.286 90.2868 456.5345 90.2429 453.7909 90.1393 451.9367 89.734 450.8205 89.9087 449.3004 90.7557 448.2236 90.8933 447.3448 91.254 446.634 92.5041 445.5208 93.283 444.1701 94.2464 442.7288 96.3147 441.9302 97.4937 442.1797 98.1312 442.3582 98.9018 441.6927 99.779 440.333 100.5943 439.2441 100.7455 437.6121 101.532 435.3661 102.9469 433.6918 104.1327 431.4987 104.4231 429.95 104.7255 426.5121 105.0938 425.6621 105.1861 421.8931 105.3714 419.098 104.7308 417.6355 104.8292 416.3317 105.1899 415.6662 105.5831 415.4348 106.331 415.2034 107.0215 414.1477 108.0923 412.0091 109.5125 410.2486 110.4578 408.8995 111.6768 408.1251 112.1192 406.5854 112.5881 405.752 112.8377 403.8176 113.9259 402.2764 114.8931 401.26 115.1684 400.0349 114.9105 399.2258 114.8318 396.83 114.4567 395.2056 114.4076 392.9339 114.1671 387.6267 113.035 385.9236 112.5049 384.4142 111.0605 383.0515 110.3285 381.2048 110.2536 378.4294 110.2551 377.1861 109.9655 375.102 110.2377 372.8257 111.7018 371.7473 112.7915 370.8156 113.907 369.6722 116.2959 369.1655 117.8923 368.7738 118.7945 367.5578 120.2253 367.4232 121.0292 367.8467 121.7249 368.7239 122.5106 369.2427 123.7455 370.5268 125.0584 371.7836 126.0808 374.1552 127.7294 374.8267 128.593 375.6238 129.5837 375.7962 130.5516 375.6464 131.1869 374.7934 131.6709 373.1358 131.9121 372.3402 132.5851 371.1181 133.4828 369.6707 134.5188 368.9916 134.5733 368.1794 134.8501 364.0867 136.1341 362.5334 136.4941 361.3053 136.9176 359.8503 138.2266 358.7084 139.1991 357.2987 140.4893 356.6801 141.061 355.4248 142.3519 353.7732 143.8273 352.8566 144.6191 352.359 145.0925 351.9068 145.7103 350.1796 146.1898 348.7548 146.6964 346.6041 147.4617 343.5187 148.3034 341.0292 149.1156 339.4411 149.7856 337.0816 150.6311 335.4814 150.9033 332.2569 150.8693 328.2746 151.0879 325.3752 151.2482 323.1942 151.044 319.9031 150.9283 317.3818 150.765 315.6954 151.0765 311.7252 151.407 310.8389 151.4826 303.7711 152.2835 300.6479 152.713 297.7878 152.9089 295.681 153.2212 294.4906 153.6107 292.7241 154.1718 291.7894 154.416 288.6677 155.5156 281.7043 157.7858 277.0398 159.6272 276.276 159.9426 273.1362 161.241 271.3197 161.75 270.0553 162.9078 269.051 163.6413 267.9892 163.9574 266.1047 163.2103 264.7617 163.2503 260.4965 162.9789 260.4965 159.5977 257.5064 160.0757 252.7376 160.8372 248.306 161.5443 244.2572 159.9252 241.1309 158.6751 238.4206 157.6005 234.3006 156.8874 230.7131 156.2665 224.2306 155.2441 221.3857 154.3495 219.9443 153.1652 217.3731 150.4783 216.5382 149.9482 215.2859 149.5845 213.9882 149.3485 211.1766 149.3621 207.7418 149.1542 202.7945 148.5893 198.8681 148.1401 192.1664 147.3044 190.5783 147.2023 187.0724 147.9442 182.588 148.8925 174.519 148.1492 170.948 147.8005 163.6988 147.0912 155.5012 146.2896 147.5517 145.4607 141.7802 145.9183 138.5632 146.1724 134.8485 146.5361 134.3358 146.127 134.1831 144.5389 133.5176 143.3093 131.4878 141.9806 130.1221 140.7161 127.5237 139.0071 126.7039 137.9309 126.4317 136.2627 124.0359 131.9204 122.5477 128.9847 122.1756 128.3865 121.5313 127.4307 120.6904 126.9315 118.9117 126.6253 118.4338 126.108 118.4338 125.0931 118.7136 123.6911 119.072 122.6672 118.8164 122.4108 114.1626 122.6997 111.3161 122.0198 108.931 121.284 105.5597 119.3995 103.5526 118.672 100.9905 116.7254 97.2517 116.2641 95.8618 115.5011 94.1133 113.8329 92.5827 112.7635 90.4108 112.0897 86.9745 111.4908 81.1152 110.9176 79.1309 110.6763 75.8942 111.0597 73.4924 111.0915 69.6023 110.6839 67.3896 110.1689 64.649 110.1561 62.8673 110.1621 60.4913 110.0449 59.3403 109.7084 58.271 109.2977 56.2745 109.4006 54.8755 108.9915 53.5733 108.2261 52.2151 107.8624 50.7223 107.8858 50.1082 108.2261 49.5395 108.1929 49.1674 107.1583 47.773 105.4893 47.5627 104.7414 46.7082 103.8786 46.203 103.0951 46.3407 102.0122 46.9441 99.9114 48.2796 98.011 49.1553 97.5171 49.6923 96.956 50.8175 95.9737 51.4679 95.1879 51.3908 94.1164 50.6285 92.9964 50.0704 91.5505 50.1747 90.7201 50.999 89.7332 51.9655 87.5492 51.8884 86.9753 51.5072 86.5155 51.4074 85.5036 51.2199 84.1417 50.0553 82.0628 49.4261 80.9594 48.328 80.4845 47.0349 80.1949 45.9172 78.7013 44.5166 76.9401 43.6379 75.8382 43.3324 75.1622 43.1932 73.9333 42.5383 72.4473 41.8486 71.6336 41.3344 71.0089 41.0743 70.1075 40.805 69.7823 38.9114 69.3808 37.5517 68.71 36.9845 67.8093 36.7879 67.0826 36.3856 66.6614 35.3133 66.5275 34.5661 67.1779 33.341 67.5038 32.5167 67.4463 31.703 67.0516 31.2009 66.6387 30.3539 66.1751 29.153 64.7057 27.8871 64.317 25.5745 64.3821 23.5055 65.0627 22.2562 64.9576 21.2035 64.7277 20.0177 63.9934 19.1919 63.3884 17.9608 63.1918 15.5378 62.1255 13.8983 61.3572 13.7561 59.8507 12.9863 58.8124 11.3891 58.519 9.7783 57.4557 7.428 56.8825 5.9473 56.4371 4.6632 56.1694 4.4726 55.7678 4.5482 55.423 5.1426 54.8483 5.7552 54.3121 5.9079 53.8145 5.4103 53.3744 4.0824 52.9146 2.3733 52.5062 2.0224 51.8233 1 51.1125 1.1785 50.5408 1.9861 50.1233 2.8074 49.8133 2.998 49.2771 2.4172 48.7848 2.1328 48.0361 2.2705 47.478 2.1011 46.7657 Z"/>
</g>
</svg>