<?xml version="1.0"?>
<svg xmlns="http://www.w3.org/2000/svg" version="1.2" baseProfile="tiny" width="500" height="438" viewBox="0 0 500 438" stroke-linecap="round" stroke-linejoin="round">
<g id="ne_50m_admin_0_countries-Montenegro">
<path d="M 198.5003 3.3536 197.7879 6.5469 199.0601 15.9359 204.8614 25.0705 225.5733 34.4468 255.9031 52.9831 291.5763 87.0025 307.9626 97.1166 322.695 99.5848 351.3964 113.7065 371.4212 117.1542 393.8378 121.0345 452.1567 150.512 478.3645 159.1249 496.9899 170.2187 499 180.6637 498.1349 187.1393 464.4718 194.7218 458.5941 206.2354 442.2842 204.8996 422.5647 204.8233 416.1018 212.1258 425.5417 224.1611 431.6738 238.3082 426.7376 257.7097 425.0837 260.2669 420.3256 259.5799 392.5402 270.8391 371.8792 276.1442 353.2538 278.7905 344.45 273.3835 340.099 266.03 340.8624 244.7203 337.5037 237.5322 331.1426 234.0336 318.3948 239.0843 303.5353 255.5342 289.7443 274.6812 269.0579 294.6297 251.9847 313.7767 233.5883 337.9108 220.9933 357.8975 234.0717 369.1694 242.0359 384.8559 239.6186 396.5986 241.9595 403.4431 237.8884 424.0023 237.0742 436.9663 196.4393 416.2417 179.7223 387.095 120.3093 337.8599 52.2198 304.3495 48.6067 299.057 52.347 292.6068 55.6039 287.5052 41.4568 287.1235 31.5334 291.2074 22.1444 290.0624 11.5086 277.5055 1.458 266.6025 1 257.0227 5.58 255.7759 12.3991 251.9465 26.699 241.2853 29.5487 235.6875 28.8617 227.2017 8.7351 200.345 5.8853 182.9283 2.9592 150.5247 7.2085 142.8532 14.5874 139.1383 49.8026 135.0926 49.3446 109.8389 51.4565 102.2692 58.4537 91.7733 62.9828 82.168 82.5242 68.428 109.0628 52.0671 120.6655 51.5837 130.8433 53.861 142.3188 67.9445 154.8121 66.1125 157.4329 49.2046 141.0466 27.0425 132.2937 12.8826 135.0162 5.0838 141.1484 1 155.2446 3.5572 168.7302 7.412 177.2541 4.804 190.6888 2.7938 198.5003 3.3536 Z"/>
</g>
</svg>