<?xml version="1.0"?>
<svg xmlns="http://www.w3.org/2000/svg" version="1.2" baseProfile="tiny" width="800" height="308" viewBox="0 0 800 308" stroke-linecap="round" stroke-linejoin="round">
<g id="us-states-27">
<path d="M 798.6359 1 799 76.7226 798.6359 204.1405 799 267.1213 797.9078 267.1213 674.4946 266.7573 464.073 266.7573 333.0146 266.7573 333.3787 301.7062 321.3649 294.7892 310.8075 283.1396 295.5174 296.9735 282.0475 299.5219 278.771 295.8814 263.1168 298.7938 254.0155 295.5174 238.7254 301.3422 217.9744 300.9781 211.0575 307.167 203.4124 303.5264 194.6752 282.0475 180.8413 281.3193 173.1962 275.8586 173.5602 263.1168 165.5511 258.3841 154.6296 244.9142 148.0767 232.1724 149.8969 226.7117 137.8832 220.1588 131.3303 227.4398 114.948 236.541 100.75 229.6241 104.0265 222.3431 99.2938 215.4261 111.3075 208.1451 104.3905 197.9517 106.2108 182.2974 115.6761 157.542 96.3814 157.906 95.6533 153.5374 78.1788 146.6204 75.2664 139.3394 50.511 121.5009 49.0547 116.7682 35.5848 113.8558 22.843 105.8467 22.479 87.6442 1 69.0776 1 1 303.1624 1.3641 439.3175 1 798.6359 1 Z" id="30"/>
</g>
</svg>