<?xml version="1.0"?>
<svg xmlns="http://www.w3.org/2000/svg" version="1.2" baseProfile="tiny" width="439" height="400" viewBox="0 0 439 400" stroke-linecap="round" stroke-linejoin="round">
<g id="ne_50m_admin_0_countries-morocco">
<path d="M 406.5234 23.6493 407.315 25.6905 408.933 27.3072 414.7179 31.0186 418.1548 33.313 418.2485 34.1006 417.1449 35.9811 416.672 37.279 417.5788 38.6572 419.6951 40.3301 419.8638 41.1271 419.3549 42.0539 418.2592 43.8461 420.5871 49.1086 420.9782 54.205 420.3741 57.8281 420.3902 59.9229 420.6956 61.7056 422.6632 65.8229 421.3479 72.6284 422.8319 76.3399 424.8718 79.3509 425.9889 84.7259 427.635 87.2721 430.3192 89.5062 431.8488 90.2656 434.8156 92.1087 436.9331 93.6503 438.1815 95.9541 435.5187 97.8507 433.3864 99.5397 432.789 101.3626 433.7815 104.2865 433.7815 105.8589 432.4261 106.3585 426.893 106.1978 422.556 106.0692 417.5681 105.9259 410.551 105.6446 406.2046 105.4719 400.2483 105.2348 398.195 105.3526 392.7263 106.1737 388.8634 106.751 388.2111 106.9117 387.0137 107.6336 386.1833 109.7887 385.4399 112.2506 384.6403 113.3462 373.0531 116.905 368.5327 117.3925 365.9088 117.0269 364.0457 117.3162 362.4384 118.0743 361.8919 119.2275 361.8129 120.6941 362.1544 122.1768 363.2702 124.2409 363.4697 126.3062 362.7572 127.7595 362.5857 129.2234 362.2562 130.8053 362.8483 131.6611 363.968 131.7924 365.0877 132.517 366.6696 133.176 367.9862 134.427 367.9206 136.2057 366.8263 137.2183 365.8606 137.7541 361.5249 138.2269 358.088 138.6032 353.6051 141.4548 348.8301 144.4913 343.1711 146.503 340.6892 147.0723 336.3308 148.5094 331.1259 150.8963 328.5569 154.7082 325.3143 159.1041 322.2001 162.0535 317.9449 164.8434 313.9803 165.9123 308.9963 167.2544 302.7065 168.291 298.257 168.6286 296.9324 168.8549 293.0146 168.9206 291.0939 168.7063 289.6648 168.5897 289.0848 168.8978 288.892 169.5929 288.8156 171.1775 288.545 172.9923 287.3074 174.5286 286.4275 175.2117 285.3961 175.4903 282.1106 175.0778 279.3554 174.5902 272.7897 173.9433 271.4865 174.0973 270.9989 174.2875 268.9496 175.3229 265.7994 177.5222 263.6617 179.4349 262.0691 180.3336 258.2599 180.801 256.599 181.5056 249.5029 186.2993 247.992 187.4605 240.6883 191.6274 238.6229 193.0083 237.009 194.3799 232.6465 197.4605 229.8606 198.812 229.3529 199.6129 229.2177 201.4961 229.2177 205.6523 229.2177 209.645 229.2177 215.4513 229.2177 221.2563 229.2177 227.9479 225.529 227.9479 225.5303 227.9627 225.6361 229.1159 226.4411 231.3929 226.721 233.3216 226.3205 234.5284 225.9442 236.054 226.1049 237.5005 226.721 239.081 227.2836 240.7151 227.2836 241.8134 226.1585 242.6438 223.5748 243.0992 220.4794 243.4742 218.2158 243.4742 214.8138 243.2064 212.6975 243.2599 210.8491 243.2599 209.2017 243.5278 207.1645 244.5725 204.9009 246.2066 202.0613 248.4032 200.3603 249.7694 198.0967 250.0641 195.8345 250.0641 193.6245 248.9658 192.2034 248.4032 191.2671 248.4568 189.7255 249.2337 187.9039 249.7694 186.2028 249.7694 183.3647 248.6711 179.9626 247.037 177.9789 246.2066 175.1541 245.9387 172.3146 245.403 170.331 245.6709 167.7874 245.6709 164.3854 246.7692 161.5458 247.5728 158.4384 248.4032 154.9011 249.1533 155.7596 251.6178 156.9785 252.9572 156.9785 254.618 156.4012 256.011 154.7002 257.3772 152.758 259.1184 151.6343 260.4846 150.4958 262.3866 149.6506 263.4849 148.1907 265.2797 146.8928 267.5299 146.4896 268.9228 145.9686 270.5301 144.9627 271.0123 141.5071 271.4409 139.3118 272.0035 137.3951 272.5392 136.6812 273.4862 136.566 273.6375 136.0155 275.5663 136.0155 276.9325 135.4677 278.0308 134.6493 280.7631 133.5524 283.2544 132.7219 286.5493 131.9036 289.2817 130.8066 293.6763 129.7083 297.7735 128.3408 301.631 127.2425 304.0955 126.412 305.4617 124.4967 307.1225 122.8492 308.194 120.9352 309.587 118.7373 310.9532 115.725 312.5873 113.2457 313.9803 112.2385 314.6071 111.0505 315.3464 109.1338 317.2484 107.4863 320.0076 106.388 322.2042 104.4727 325.767 103.1065 327.6957 102.2774 328.7672 100.0794 329.8655 97.6149 330.696 94.8692 331.7943 92.6739 332.8926 89.6602 333.9909 87.7449 335.0892 86.364 336.7233 85.267 338.652 83.9008 341.4112 82.8012 344.4114 82.2534 346.3402 80.6046 352.93 80.0554 356.7607 79.5076 359.2252 78.6892 362.2522 78.1414 366.9133 78.1414 370.744 77.5909 372.9406 77.3096 374.6015 75.9434 376.5034 74.8451 377.8696 72.9311 379.7984 71.2823 380.8967 70.7345 381.995 69.0857 383.3598 67.4396 385.5578 66.0721 386.924 66.3399 388.0223 66.6226 389.951 65.7908 391.8798 64.9751 394.0764 62.7771 396.8087 60.3126 398.1749 56.7378 398.4428 51.8075 398.4428 47.9647 398.1749 43.3023 398.1749 39.1916 397.6392 35.3476 397.0766 30.6865 396.8087 27.3902 396.8087 23.2796 397.3445 12.5778 397.3445 8.4645 397.6392 2.4251 398.7375 1.0027 398.9987 1 399 2.981 385.8525 6.7554 378.7282 9.753 375.5833 14.4047 373.9613 18.6747 366.8008 20.1682 360.2096 22.9782 357.1772 23.8595 354.8025 22.7478 352.993 25.3972 349.4368 28.605 344.0069 30.0891 340.5191 33.8381 335.1187 34.2961 333.9293 33.9559 332.5751 32.488 333.7243 30.9142 335.7201 29.0444 337.2912 29.8092 335.3571 31.2771 332.5149 34.6109 329.5387 39.8627 326.2518 50.7721 315.1134 54.88 313.1927 58.5714 308.5034 59.8948 304.3393 60.2551 294.7786 61.5717 289.7304 63.9826 285.7926 66.8556 278.6375 69.0375 275.4363 70.4693 268.9135 72.0244 266.4262 74.8063 265.2462 78.7589 261.9901 84.6911 259.9783 91.7189 255.7498 95.0138 253.2211 97.2091 249.448 99.5664 241.9326 103.7815 234.0328 105.942 228.0738 105.9808 227.968 109.691 224.8378 112.209 220.8786 116.4683 219.1159 125.3767 218.2654 138.6207 214.9772 150.5092 210.0174 153.8697 208.0444 157.466 204.0932 163.4491 198.9446 174.617 192.7605 179.7563 189.3116 187.5985 180.6591 192.8128 173.4986 197.1431 168.8951 200.138 164.8086 202.2328 160.6645 203.4195 153.9889 202.6212 151.3851 199.3236 147.1178 197.1082 145.9807 196.5162 143.9689 197.6976 140.4208 197.6721 134.3212 198.3485 124.5837 202.0171 116.7282 211.0005 106.4309 212.6707 102.201 213.698 95.4732 213.7878 93.0971 225.024 83.5512 231.6058 76.2354 233.8949 74.4447 239.7012 71.1002 259.9676 63.8058 271.4248 58.5929 278.1098 54.7876 282.0932 50.2926 293.1379 32.65 303.9883 7.8229 304.8871 4.9526 309.7384 4.1248 313.1699 3.7699 315.9291 2.8618 319.3553 1 322.6341 1.7447 320.9934 3.0118 320.9934 6.0656 323.3239 9.6445 327.3649 13.6761 334.7209 18.7912 340.4508 20.8459 348.6345 22.0781 358.1684 19.8306 363.5019 19.7891 366.1003 18.8274 368.9157 20.2445 374.2894 20.6972 379.4662 19.9485 383.3866 17.8055 385.8792 15.3356 386.2703 16.5478 386.3895 17.863 387.1477 18.6319 388.696 21.7714 389.5077 23.001 392.4852 22.7987 395.0796 23.4162 400.9247 23.1202 406.5234 23.6493 Z"/>
</g>
</svg>