<?xml version="1.0"?>
<svg xmlns="http://www.w3.org/2000/svg" version="1.2" baseProfile="tiny" width="260" height="400" viewBox="0 0 260 400" stroke-linecap="round" stroke-linejoin="round">
<g id="ne_50m_admin_0_countries-mozambique">
<path d="M 26.8771 290.7558 30.3141 288.2503 33.7605 284.7233 37.7949 280.5941 41.3931 276.9082 44.5575 273.668 48.8881 269.2354 53.1689 264.8527 54.1716 264.2933 54.5935 263.9353 52.7446 260.0385 55.7194 255.5135 55.8806 252.5719 55.755 249.7583 56.1129 248.4665 57.0089 247.3334 60.4862 244.9797 63.1149 241.2274 65.2696 237.7241 68.2586 232.085 68.5525 230.7576 68.5975 229.3899 67.7703 227.4865 65.7744 224.3956 64.3262 221.729 63.0367 217.6164 64.3309 214.0396 64.7931 211.8802 64.7884 210.714 64.2147 209.607 62.7594 208.7703 61.5529 208.2251 61.1452 206.746 61.1333 204.9872 61.6856 204.0154 64.9021 202.4438 65.6322 201.5905 66.0138 200.6329 66.047 199.2699 67.0378 195.8661 68.2657 192.6353 68.3463 191.4952 67.9125 190.4973 67.5759 188.6721 67.3555 185.9201 67.3341 178.2142 67.967 170.2545 67.6897 165.7414 65.6275 160.5527 65.4307 156.8099 66.9264 154.1978 67.1729 152.6523 66.0778 152.4556 63.8284 152.2968 62.1668 151.8109 59.5949 149.6705 55.1316 147.8808 50.0662 146.2548 42.7015 145.7712 36.5789 140.5612 31.7789 139.7245 30.2335 139.0608 25.6232 135.9367 18.4031 135.6475 10.9128 135.3441 6.2432 135.2493 5.5534 134.8345 5.2808 130.5275 5.2311 126.6994 4.8376 123.3691 4.1265 119.5789 3.0361 118.1022 1.7372 115.5375 1.0782 112.7144 1 111.3467 1.2441 110.856 6.4447 108.846 8.6681 107.8504 11.9605 106.7008 17.8295 105.1032 23.0655 103.6786 27.8631 102.2967 32.9451 100.8271 35.0121 99.8458 37.5815 98.8597 43.7279 96.8781 45.4843 96.2002 49.0137 95.0909 50.7844 94.6595 57.5896 92.391 65.3881 89.7908 68.1211 88.8806 73.3311 87.1431 74.3456 87.8637 77.8988 93.8441 80.6981 97.3546 83.8815 100.609 84.4125 100.4502 85.3298 99.6893 86.9155 99.3741 91.9739 98.6416 93.9057 98.5966 95.1786 97.7243 97.7741 97.1033 100.7773 96.7359 101.8084 97.1294 104.9705 101.3367 105.4279 104.5557 106.0845 109.2063 106.241 111.4771 106.1888 114.5111 105.8333 118.306 103.2638 122.6722 102.7732 124.8482 101.396 128.2093 99.5756 129.8638 98.6796 131.2221 98.7317 132.6324 99.7036 133.8128 101.8321 135.939 102.4887 137.3115 102.2967 138.5393 102.3062 140.1985 102.8135 141.3529 103.4179 142.0237 105.5251 143.1093 107.5779 145.8376 111.1239 149.1276 115.3621 153.8186 117.3508 155.255 118.9176 155.6034 119.6998 157.1726 119.266 159.0001 118.0453 160.0455 118.5478 161.5435 119.2376 162.3281 120.0032 162.7239 121.8663 162.8164 123.5943 162.5106 124.0281 161.9891 123.8029 154.9705 122.5561 150.8793 121.3069 149.2793 121.0367 148.9617 121.4752 147.6177 122.8713 144.4747 124.0541 141.3624 124.8055 140.0516 125.6802 139.2599 131.5255 138.4184 134.185 137.6884 135.3109 136.7781 136.1832 134.3604 136.8801 127.6049 137.1313 121.2595 136.5269 117.538 137.366 111.9322 138.6483 108.4644 138.0155 107.7841 137.5414 103.1026 133.737 98.1178 128.8351 91.6989 126.0997 88.2429 122.9851 84.3153 117.3152 78.1642 114.7173 75.9361 113.3496 75.0709 108.7654 74.3598 107.5494 73.1747 106.3879 71.2879 105.9518 67.7963 105.8759 65.1842 105.3592 60.7446 104.4277 54.4584 104.0129 52.6119 102.7092 47.8831 101.4647 43.3842 101.3912 42.2725 101.8321 41.1916 103.9417 37.8802 105.4445 35.5312 106.1509 34.2465 107.4214 30.7502 107.7201 29.0554 108.7156 28.2898 112.7689 27.9745 115.9949 28.0338 121.4112 27.9532 127.1308 28.1571 127.9344 28.3111 129.2215 28.6809 130.6769 28.6216 132.2934 28.1286 134.0831 26.9174 136.0433 24.995 139.0987 25.0377 143.2468 27.043 145.5105 28.7899 145.8945 30.2809 148.6702 31.1461 153.8399 31.3855 157.6064 30.6104 159.9672 28.816 162.4324 27.8679 165.0113 27.7636 166.9598 28.3751 168.2871 29.7096 170.8234 30.6649 174.5733 31.2456 178.6716 30.3875 183.116 28.0954 185.6523 25.699 186.2781 23.203 187.0129 21.6884 187.8591 21.155 190.2152 20.8493 194.0812 20.7663 197.4448 21.5533 201.7327 24.0326 204.4397 22.3829 209.0855 19.5574 213.7646 18.0617 218.2185 18.0523 221.8735 16.9761 224.7274 14.8404 227.7449 13.4799 230.9235 12.9039 233.9007 11.8751 238.0654 9.6518 242.3747 6.4162 246.774 3.1167 249.5924 1 250.8818 3.5007 253.1882 5.7857 251.8134 7.1131 250.1518 8.3007 252.835 9.8912 250.8676 12.2923 250.6282 13.9634 251.1284 14.6176 251.5574 15.5942 250.2679 18.3438 248.5589 20.4487 248.118 22.0605 249.6303 24.9097 248.8528 29.9561 250.3201 34.4977 250.7301 36.8278 251.2421 38.3851 250.5121 41.1726 250.6993 45.8683 251.0383 47.8072 250.1636 50.2202 251.6498 51.0546 252.4392 53.6999 252.2258 56.6818 251.7707 58.2889 249.206 60.2349 248.9026 60.9911 248.9429 62.136 252.1452 62.1739 252.2543 63.9469 252.0409 65.343 252.1642 67.9694 251.7375 69.676 252.4889 71.6244 251.5716 73.7815 251.8892 75.4454 251.9295 77.6025 252.6738 83.0566 252.7994 89.8003 252.9654 90.8811 254.1055 91.6444 255.7102 92.0236 255.6486 93.8725 253.8732 96.2855 253.7666 97.786 254.0225 99.8932 255.9781 97.0298 257.1514 97.044 258.1991 98.1676 258.0521 99.8173 258.4124 100.6304 258.2584 102.2304 258.8391 104.2617 258.6115 106.03 257.1751 107.2673 255.3476 109.3864 255.0252 111.3728 255.1935 112.6741 253.9277 113.0913 253.3351 113.8948 254.1932 115.7674 254.1411 117.4243 251.9082 122.5821 245.9586 129.6339 243.3892 132.137 240.9809 134.8605 240.9833 135.977 240.7486 136.9488 237.9421 140.8362 234.9365 141.4738 233.2654 142.512 234.5691 145.9372 232.6254 146.7265 229.2477 149.4263 219.9488 154.6008 218.4792 155.8002 216.116 158.9764 213.0013 159.7468 211.271 160.6452 208.1848 160.9746 207.1087 160.7447 206.0562 160.8561 205.1674 161.5364 199.0376 163.7645 193.3133 165.5281 191.9053 166.334 190.9666 167.4362 185.8988 169.1784 177.9582 173.4877 171.4587 177.5955 166.7512 181.7057 165.5115 182.3291 164.0513 183.7489 163.563 185.8514 163.0866 187.0389 159.6046 191.3672 154.3614 196.4848 153.3397 197.8833 151.2562 200.7277 151.05 202.5908 149.194 203.1597 147.632 201.3748 146.9706 204.8142 145.6978 205.0583 144.285 204.3543 140.7674 206.0562 137.7002 208.0189 132.7865 212.1575 125.8461 220.1693 115.7129 227.9061 114.3286 228.1265 113.3947 228.0957 110.2066 225.403 108.4691 225.2039 110.024 226.8015 111.0504 228.1313 110.7897 230.741 110.9106 234.6568 109.6519 242.268 109.8202 243.9344 111.2685 246.0914 113.9944 248.7343 116.5496 252.022 119.8325 261.4631 120.0862 266.3199 123.4758 272.5255 123.6038 275.2134 124.9714 281.9049 124.8814 287.3164 124.642 290.6302 126.2751 292.031 126.8772 290.7676 126.7089 288.6723 127.1451 285.3087 128.0553 283.8107 128.9631 284.024 129.2333 285.6121 129.8449 287.0201 130.0914 288.3428 130.1341 290.1371 128.8778 296.9614 129.2547 299.737 130.9447 304.3734 128.9797 309.7636 126.1282 322.4497 125.9694 324.6446 126.6591 325.6022 128.1951 325.927 128.7593 324.3104 129.66 324.3223 130.1341 325.2799 128.8636 331.1323 127.612 333.697 123.1652 339.9855 120.7641 342.683 116.7866 345.333 107.4475 349.4764 88.7265 355.4639 81.3002 358.3983 76.8677 360.1477 67.4906 365.718 63.3899 369.4536 61.6998 373.7392 60.0809 375.7019 58.4927 378.186 59.877 380.3193 61.2376 381.9335 62.8423 383.0144 63.6743 383.9459 64.7647 384.593 65.8621 381.239 66.4049 380.196 67.3389 380.1155 66.8221 384.2114 65.7436 398.2439 65.6701 398.7013 63.0106 398.7416 58.4524 398.8578 55.7574 398.9241 52.7423 399 49.0066 398.3173 46.9017 398.4619 46.7334 390.7085 46.0532 389.0043 45.3349 386.513 45.1667 384.913 45.617 383.3059 45.8327 380.7602 45.6312 378.5321 43.396 377.4133 42.9053 377.0577 42.4218 375.3037 42.2274 372.5991 43.7871 369.1526 43.6615 362.5393 43.8464 360.2093 43.8156 355.6061 43.7824 350.0287 43.7539 345.0343 43.8179 340.7227 43.351 338.6794 42.9622 337.5583 41.9288 335.2756 40.7223 330.5183 39.2977 326.9249 37.463 324.5546 36.8799 323.3054 36.2873 321.6343 34.5522 318.6903 33.1324 316.9766 32.746 315.6041 32.7958 312.0534 31.2172 305.6748 30.0675 301.0241 28.3372 295.9871 27.1757 292.6141 27.0051 292.0334 26.8771 290.7558 Z M 108.2795 38.6055 107.8576 37.9039 107.0611 37.5721 106.1533 37.8423 105.8522 38.7264 106.7956 39.8713 107.7983 39.8903 108.2795 38.6055 Z M 110.1663 40.9593 110.8134 40.4188 111.0623 39.7077 111.0551 39.0203 110.6427 38.5913 110.0596 38.3401 109.2086 38.4894 108.9076 39.428 108.7772 40.7199 109.3129 41.1537 110.1663 40.9593 Z"/>
</g>
</svg>