<?xml version="1.0"?>
<svg xmlns="http://www.w3.org/2000/svg" version="1.2" baseProfile="tiny" width="193" height="400" viewBox="0 0 193 400" stroke-linecap="round" stroke-linejoin="round">
<g id="ne_50m_admin_0_countries-myanmar">
<path d="M 170.5806 176.0787 168.0432 174.7349 166.9903 173.9697 165.6247 173.7779 164.234 174.6307 163.1269 175.5522 161.9906 175.891 160.2517 175.9974 157.9666 175.5199 156.4133 175.0883 156.1798 175.3229 157.0242 177.2744 157.3265 178.8308 156.9908 179.6398 156.2569 180.3132 155.1394 180.8439 153.83 181.1545 152.6729 181.1222 150.8193 180.381 149.4078 180.3497 148.2006 180.7177 147.4646 181.2671 147.058 181.9468 146.3471 185.7988 145.7195 187.0039 144.8376 187.6878 143.964 187.7586 142.763 187.5689 141.5058 187.7263 135.8097 189.216 134.9798 189.363 133.193 189.4756 131.5355 189.5163 130.37 189.4433 127.6366 187.9171 126.3126 187.7555 125.5871 188.1871 125.0783 190.2325 123.4813 191.5314 121.3546 194.369 120.8584 198.5129 121.0794 201.4037 119.1633 204.2643 118.9903 205.6456 120.014 212.2851 119.8409 212.9815 119.4531 213.3266 118.2543 213.557 116.2423 214.2513 114.9141 214.9122 114.2699 214.9872 112.3934 214.49 111.8993 214.4806 112.0431 214.9862 113.5402 217.8603 115.0997 219.2218 116.7114 219.0707 117.414 219.3407 117.2055 220.0308 117.8268 221.8301 119.2821 224.7407 119.7137 226.9205 118.8297 229.0931 118.9986 229.8708 119.4823 230.3253 120.8459 232.3446 123.7565 235.5033 126.6129 238.9195 128.9939 241.7676 130.7432 243.7368 134.6358 247.4085 135.326 249.1306 135.474 252.6063 136.4352 254.6141 137.3233 256.0496 137.9405 257.2484 139.3729 261.1849 139.9817 261.7186 143.1029 259.324 143.8264 259.8234 144.2308 260.7262 144.235 261.875 143.745 263.1781 142.7297 264.379 137.9134 267.1572 137.5214 269.5497 137.1837 273.1797 137.1044 277.6384 137.3338 280.9733 137.1566 281.7395 136.7375 282.1023 134.9194 281.9595 132.2986 283.642 131.3749 283.7911 130.224 284.4364 129.3442 285.2318 129.0648 286.4421 129.5819 290.1033 130.518 293.5446 132.357 296.0695 133.8102 298.0658 135.8347 300.843 137.4359 303.2553 140.6635 305.9063 145.1983 309.875 146.9288 312.0674 148.4571 314.7236 149.5371 316.9879 149.9478 319.9965 150.2814 321.6801 150.3773 327.3137 149.5433 328.5959 148.9095 330.0794 149.2619 331.6327 150.321 333.1151 150.321 334.8102 151.3093 337.8459 152.9648 339.7005 154.5577 340.9525 155.2645 341.9418 155.033 343.5274 155.5042 345.21 155.8483 347.0416 156.4988 349.578 157.781 351.7255 159.7409 358.3109 159.6929 358.9843 158.8464 360.3187 157.6163 361.5248 156.8199 361.9126 156.0672 363.1532 154.2762 366.6747 150.6755 372.742 147.1581 376.6982 144.2058 379.5087 142.0666 381.2142 141.4328 382.2285 141.4328 383.026 141.8206 384.4469 141.6705 387.1407 141.2118 388.8493 140.6051 390.6601 140.2652 392.2749 139.3145 392.5168 137.2775 395.5932 136.3955 394.0503 135.8743 392.4428 136.4331 388.8004 135.1925 381.9106 135.9619 380.9901 136.702 380.5262 138.051 377.8845 139.6898 375.2689 139.8399 372.1477 141.1659 369.8574 140.8532 367.9444 140.922 365.6969 141.2014 363.86 141.095 362.3567 142.148 360.7899 143.9681 359.6234 143.205 359.2064 142.4482 358.3526 140.0755 359.6525 138.8516 359.2251 138.6077 357.8782 138.91 356.4334 139.0351 355.5545 139.9858 354.5631 139.9191 352.6335 139.4396 350.9343 140.1318 348.8305 138.7286 348.8253 138.0823 348.4021 138.4847 347.2345 139.7565 346.1993 138.5973 344.2301 139.4563 342.1117 139.425 339.4972 138.837 337.1891 138.8683 335.5295 137.9718 332.5876 137.5631 328.8326 135.6658 326.0325 134.2605 321.9605 130.5055 316.6293 130.5701 314.3473 130.3679 312.3384 129.5443 311.3627 128.4581 318.463 127.6283 317.0692 127.3635 313.1099 126.8172 311.2282 127.4052 307.4909 125.2326 303.7807 124.7656 301.0869 123.3395 297.0046 123.7565 296.0893 125.6663 297.0066 123.9108 294.6298 122.4721 295.1677 121.2587 292.6011 120.9918 285.6415 119.795 283.0395 120.4456 280.3884 119.082 270.8966 116.3903 267.8213 116.9241 265.1682 117.5933 262.8195 117.4453 258.4682 118.1062 257.1275 119.4156 256.1007 118.1875 256.4624 117.1451 256.7699 114.6994 257.0243 111.941 257.0744 110.984 253.8969 109.6267 252.3738 108.4362 249.1828 107.7231 245.5653 108.1901 244.8523 106.0551 243.3761 105.5068 242.4713 103.278 240.1142 100.7447 238.3274 101.3056 239.5836 101.9894 240.3811 100.7322 242.5567 101.9644 246.2284 100.8844 248.5719 99.8732 251.6211 98.9079 253.0733 95.8555 256.1997 93.3827 257.2578 91.771 257.459 90.3449 257.1265 88.5915 255.5148 88.162 254.1669 87.8805 251.8995 87.2696 251.5742 86.6024 251.8359 87.6407 254.7621 87.6199 256.1246 89.4901 258.7507 88.8229 259.4846 85.4494 260.9263 84.2943 260.6949 83.4812 260.9816 83.2519 262.1627 82.8286 262.8226 77.512 264.6303 76.4048 266.6725 75.7231 268.7356 73.0793 271.7014 69.5328 274.1586 68.655 274.0189 67.6522 273.4455 67.7877 270.7924 69.0032 268.55 68.6196 266.1554 68.3256 267.5294 66.0384 270.8695 64.9938 271.961 62.888 271.6733 59.9899 272.1195 58.8932 268.6855 58.9141 267.4241 58.7014 266.3618 59.035 265.2328 58.9349 264.3363 58.2302 266.0522 57.9654 267.5377 56.9062 268.8565 53.9894 270.2805 53.8768 268.4791 53.7725 266.8549 54.4001 265.3934 54.3105 263.0718 55.2362 259.7264 55.1653 258.5787 54.8817 257.31 54.3626 259.1531 54.0686 261.0629 53.4807 261.6404 52.409 262.0731 50.4491 264.2654 49.294 266.2242 46.25 268.0767 44.6446 267.888 44.4402 265.5362 45.6579 257.1953 46.8546 256.0235 47.4113 254.5766 48.4058 249.704 49.5255 247.8609 49.9675 243.9975 50.4199 243.3334 51.9169 240.3019 52.4403 234.734 51.8231 231.9662 50.4199 229.2839 49.0626 221.2338 45.5411 214.7099 45.2492 212.5332 43.5104 209.902 45.1116 209.7154 41.8153 207.4084 41.3608 206.465 40.6977 201.068 40.8249 198.0532 40.3454 198.4503 39.8992 200.3081 38.6065 201.0701 39.184 204.2945 39.0402 205.0774 38.3542 206.3315 35.5979 205.0305 33.5776 203.6148 31.2862 200.1652 29.0428 196.3008 29.8434 195.7013 30.8692 195.6242 34.0592 198.4993 36.1275 199.0977 37.4348 198.3836 39.0548 197.1577 39.8262 194.7766 39.0277 193.9051 37.4723 193.4308 36.4402 192.7855 34.9537 191.1749 34.7639 190.3534 34.3052 189.3026 32.7936 188.5614 31.576 187.62 32.6039 185.9531 33.6109 184.7146 30.938 184.7699 27.8898 182.638 27.2601 182.0208 26.251 181.5945 23.8533 181.3422 21.8601 181.9687 22.7649 185.0096 22.5856 186.0156 21.2805 185.8707 18.5575 181.241 19.3769 180.0683 20.5549 178.9674 19.9753 178.811 18.839 178.884 19.9419 174.7766 19.2705 174.1678 18.9161 175.4511 18.3177 176.6906 15.9992 179.5908 14.8504 179.0477 14.0581 178.3252 15.1757 176.8053 15.7761 176.3966 16.1911 175.5731 15.3279 173.9822 13.9664 172.8251 12.8718 170.8256 12.3026 170.7985 12.8072 173.1597 12.5987 176.528 10.1467 172.8074 5.2429 167.5189 4.0857 165.9332 3.8251 164.3831 3.2768 162.9497 2.8973 161.3891 2.8118 160.1766 1.7506 159.0831 1.2648 157.1712 1 155.2311 1.6109 153.8488 3.1371 152.3601 4.2234 152.0995 5.122 152.7563 7.2403 153.7393 8.6768 154.6609 9.3044 155.867 9.9716 155.7211 10.6513 154.9517 10.5158 154.001 9.8361 151.5115 9.6401 148.4862 9.6088 141.413 9.4399 140.6072 10.6242 139.8972 11.0996 139.0862 11.5708 137.8759 11.8752 137.3432 12.559 137.3119 13.6349 137.9019 15.405 139.9223 16.583 140.3757 17.7589 140.0588 18.9849 137.0283 19.4332 136.211 20.0232 135.6679 21.1095 135.7586 21.7433 135.2154 21.9831 133.9071 21.9747 132.4487 20.7592 128.4581 20.3985 126.6191 20.1963 124.8052 20.9552 122.9371 21.9852 120.7541 21.7391 118.8464 22.0206 118.1052 22.8692 117.9989 23.9284 118.4586 25.0918 118.1406 25.9758 116.9751 26.3302 115.9598 26.8702 111.548 27.2289 107.5156 27.3748 104.2266 26.4699 102.2605 25.0772 96.972 25.4817 96.0681 26.1071 95.8565 28.1692 97.708 29.0574 98.0186 30.5585 97.7361 32.0368 97.3243 33.1064 97.2993 34.6534 97.9321 36.7801 98.6368 40.0973 99.5115 41.4629 100.1703 42.5909 100.0765 43.502 98.0228 44.557 95.0225 46.1228 90.567 47.9201 87.3248 48.3933 86.4638 50.3949 83.8252 52.336 81.0585 54.0269 77.562 54.9735 75.0486 54.8901 73.9998 54.2834 73.1304 53.0095 72.5748 51.9607 72.0004 51.673 71.4833 51.7022 70.8912 52.2464 69.2607 53.1637 67.3352 54.1228 66.2917 56.6435 65.0011 58.2511 63.3384 60.0566 61.1387 61.0449 59.6396 61.5411 56.5977 62.0853 55.992 63.2008 55.01 64.0431 53.858 63.9764 53.2357 63.5302 52.7874 62.6879 50.6587 62.3021 47.3248 62.4919 44.6196 63.1257 43.5197 63.9639 41.9873 65.5172 41.0449 67.7293 40.386 71.1195 38.5971 76.9803 34.447 79.0924 33.0939 80.5435 32.3933 81.9446 30.6545 83.8774 28.754 86.6399 27.8106 88.4205 27.4457 96.7791 26.1457 98.1865 26.3115 99.6001 27.0652 101.3598 29.5922 102.9214 30.5429 104.7291 31.2101 106.0947 30.9245 106.1302 29.9018 101.8226 24.0034 101.4307 22.397 101.2868 20.8624 101.7747 19.6427 103.1216 18.4803 104.9772 17.1626 107.2853 15.5218 108.7426 14.3865 110.4523 14.0227 111.0716 13.368 111.2509 12.4162 111.157 11.38 110.3793 10.203 110.5399 8.7248 110.8005 7.3852 111.5261 6.6054 113.1273 4.4829 114.1156 2.9515 114.6368 2.2958 115.3999 1.1459 116.7093 1 117.9832 1.3638 118.7463 2.0185 119.5032 3.3466 120.3351 4.435 121.3483 4.4308 122.3825 4.2765 122.8662 4.4277 123.8586 5.3388 125.7414 7.5228 126.5816 8.0701 127.3781 9.0011 127.793 10.8598 128.0515 12.7311 130.4117 19.2299 131.1206 20.5987 131.646 21.6443 132.7489 21.9007 133.6434 20.8551 133.9957 19.7365 134.9277 19.3571 136.0369 19.5614 138.0719 20.6039 139.1685 21.1668 139.7148 24.3808 139.8357 28.1515 139.6731 29.319 140.5634 32.4298 140.8407 36.0066 141.0325 37.9633 141.0513 39.8335 140.8907 42.2833 140.4133 45.5651 139.6106 48.3652 139.9024 50.6962 139.425 51.7616 137.4776 52.3037 137.3088 53.1929 137.8842 54.6597 139.2436 56.4945 139.277 57.6516 138.6181 58.4387 137.1878 58.5127 135.205 59.2466 133.8415 61.6141 132.3924 63.5615 131.598 63.944 128.9501 63.3957 128.3163 63.8961 127.3927 67.2133 126.6337 68.6383 125.4953 69.8435 124.4549 70.5523 123.5146 71.0475 121.413 70.7118 120.2996 72.7145 119.18 75.3561 119.0903 76.7218 119.6699 78.8672 119.3697 79.4624 118.2355 79.9295 116.3695 80.8969 115.2185 83.9628 115.2623 86.9412 115.942 87.9628 117.2305 88.409 118.1479 89.3264 118.2355 90.7619 119.0361 92.555 118.6608 94.6462 116.0484 97.685 115.9691 99.3384 117.3598 99.8482 118.5628 99.6147 120.0494 98.8933 121.8008 97.7319 125.6267 96.0421 129.8029 95.0767 133.1075 94.8974 135.9285 94.9694 137.3108 95.329 137.7216 95.9483 141.585 94.961 142.3961 94.9047 143.0945 94.8516 143.0716 95.5052 140.2444 98.2063 139.7148 99.4656 139.8024 100.8167 140.9595 102.0697 142.0833 103.0361 143.0341 105.4588 142.3002 107.6783 142.7672 108.4872 143.6033 109.3932 144.1099 110.6692 144.1725 112.2245 143.7075 114.7056 147.792 116.0015 151.3197 116.5832 153.8926 116.7416 155.5418 117.3108 156.5342 117.8018 157.2327 118.6911 157.4433 119.6616 156.5822 120.3413 154.8391 122.5232 153.8384 125.4359 153.9426 127.6168 153.8258 129.5058 151.8055 132.2319 151.0007 134.1062 150.296 136.0296 150.3189 136.8657 150.7359 137.4495 151.5991 137.7873 153.0878 137.9905 154.9142 137.7737 159.2697 138.2355 164.2382 139.0778 166.2085 139.5407 166.8527 140.3882 166.6942 142.2397 166.3773 143.965 166.7005 145.29 167.5011 146.5097 168.8459 146.9121 170.0052 147.3843 170.2241 148.3153 169.8717 149.5777 170.4597 150.5754 171.1185 151.2301 172.5509 151.6043 175.4511 150.7922 177.4819 151.154 179.3104 151.7086 180.8741 151.4167 182.4232 150.7088 185.7967 147.5011 189.7289 145.7675 191.0195 145.3515 191.8931 145.56 192.11 145.7852 192.0516 146.4346 192.4602 149.0711 192.2809 149.3734 191.032 151.4834 187.7691 153.6705 185.4631 154.7808 184.1204 154.8141 182.9778 156.1224 182.0396 158.7057 181.068 160.2225 180.063 160.6739 179.4125 161.6518 179.1165 163.1561 179.694 163.9609 181.1535 164.0672 181.2661 164.4873 180.0318 165.2233 178.4993 165.4818 176.6646 165.2629 174.9278 165.8509 173.289 167.2478 171.8921 170.2616 170.7349 174.8923 170.5806 176.0787 Z M 129.7445 375.9987 131.5313 379.6932 131.3374 380.2603 131.0622 380.5428 130.641 380.4459 129.9238 378.4537 128.5832 377.1683 126.984 377.4102 128.31 375.7766 128.8375 375.4097 129.7445 375.9987 Z M 129.1649 397.7605 128.1349 399 127.7867 398.9468 128.26 396.8806 129.978 395.3742 131.4938 395.2439 131.3166 396.177 130.2032 397.3226 129.1649 397.7605 Z M 129.9989 364.7795 129.8821 365.259 129.7362 365.2423 129.265 364.9035 129.5589 362.8801 130.37 361.2246 131.204 358.7977 131.6627 358.2723 131.8316 359.5556 131.3249 362.3057 130.8871 363.81 129.9989 364.7795 Z M 136.283 355.6671 135.3927 355.787 134.9694 352.3312 135.2196 351.8402 136.481 353.529 138.2803 354.5652 137.5735 355.2387 136.283 355.6671 Z M 137.0898 359.0865 136.5477 363.4889 135.1904 362.8801 134.5483 362.8822 133.7393 360.3958 133.7956 359.7276 133.3035 358.0909 136.4435 357.8042 137.0898 359.0865 Z M 134.1042 340.8733 134.5837 341.4591 135.2634 341.4414 135.0758 343.5253 133.3974 346.0888 132.407 346.462 131.9671 346.4662 132.3424 342.7205 131.7252 340.5824 131.9295 339.1605 133.731 339.8235 134.1042 340.8733 Z M 128.1849 350.4276 127.9368 350.5465 127.5824 350.4777 126.8756 350.1284 126.0625 348.6762 126.4899 347.6598 126.7901 347.4096 127.5052 347.4951 127.8805 347.689 128.0077 348.0622 127.7951 348.8701 127.8305 349.5551 128.1849 350.4276 Z M 50.0446 269.3934 48.6602 271.4762 48.1473 268.3644 50.4074 266.6308 51.5229 264.9764 52.703 263.8515 53.0741 265.2224 51.9524 267.8276 50.0446 269.3934 Z M 116.1922 262.833 115.3853 263.1124 114.1719 261.7124 113.9321 258.3962 114.9412 257.631 115.4875 257.4559 116.2777 257.8625 116.5821 258.4014 116.7176 259.0686 116.4987 259.7556 116.1922 262.833 Z M 33.2648 210.9299 32.9062 211.1134 30.6836 209.3224 28.9239 207.0175 31.7157 206.5629 34.4157 207.0602 34.4324 208.2872 33.8528 210.2585 33.2648 210.9299 Z M 29.0157 185.1326 29.4744 188.0745 28.0086 186.9716 27.4728 185.4527 27.331 183.8994 29.0157 185.1326 Z M 33.7777 192.2705 36.2255 194.0417 37.1908 193.9187 38.7066 195.0383 38.7441 195.4751 38.4564 196.3873 37.7725 197.1003 35.9211 197.8124 34.6534 197.2359 34.1509 195.301 32.6539 194.3909 32.2661 193.6195 33.2127 192.5655 33.7777 192.2705 Z M 136.8313 375.811 136.3455 375.8569 135.8993 375.7526 135.4594 375.4222 136.5081 373.1329 136.8313 375.811 Z M 126.8777 360.2071 127.0507 361.3935 125.7163 360.1321 125.487 356.6231 126.5378 358.8342 126.9903 359.3356 126.8777 360.2071 Z M 126.6775 345.3174 126.5545 346.0919 125.316 347.6828 124.236 346.7581 123.9566 346.2504 125.0575 345.2319 126.2292 345.3768 126.5441 345.1454 126.6775 345.3174 Z M 132.0004 330.1743 131.867 333.6833 130.8016 331.9903 130.6202 330.0606 130.7015 328.2634 130.9308 327.9715 130.9996 328.2467 131.6418 329.0515 132.0004 330.1743 Z M 57.0501 272.0965 56.6123 272.6407 55.7366 272.2508 55.526 272.0173 57.5442 269.6696 57.7611 270.5432 57.0501 272.0965 Z M 18.7326 184.4634 19.012 186.4931 17.9862 185.657 16.6518 182.8433 16.6935 180.9929 17.6526 181.853 18.7326 184.4634 Z"/>
</g>
</svg>