<?xml version="1.0"?>
<svg xmlns="http://www.w3.org/2000/svg" version="1.2" baseProfile="tiny" width="500" height="442" viewBox="0 0 500 442" stroke-linecap="round" stroke-linejoin="round">
<g id="ne_50m_admin_0_countries-Namibia">
<path d="M 429.908 25.7563 437.79 24.2402 445.3057 22.796 454.0499 21.3518 461.0482 20.1986 462.805 19.8861 479.6541 21.2369 486.9937 22.1817 489.5444 23.105 492.8711 25.5264 499 31.3822 497.4265 31.1631 486.1351 32.4061 481.8348 33.9976 472.2103 40.9169 470.1626 40.0259 467.8561 38.5889 465.8982 38.1758 461.6662 39.8391 457.4485 41.8294 452.789 44.646 448.9521 47.4086 447.6983 48.8924 441.6736 54.5866 439.7121 55.5098 437.9661 55.8978 437.2619 55.6392 436.5111 53.1926 432.8179 47.4769 426.8902 39.9828 425.1586 39.2535 423.9731 38.9661 419.5794 39.329 406.8078 41.4486 396.041 43.2341 379.5368 46.2842 361.8147 48.7487 350.8825 50.2647 341.3766 50.7066 341.3838 58.1252 341.409 73.1349 341.4305 88.141 341.4521 103.1471 341.4772 118.1568 341.4988 133.1629 341.5239 148.169 341.5455 163.1751 341.567 178.1848 341.5742 184.7269 341.2617 186.1351 335.8082 186.1351 323.4749 186.1351 313.096 186.1351 304.7074 186.1351 304.7182 195.0519 304.729 205.5996 304.7398 216.1438 304.7505 226.6879 304.7649 237.2321 304.7793 247.7762 304.7901 258.3204 304.8008 268.8645 304.8116 279.4122 304.8224 287.3662 304.8224 288.2787 304.8224 303.7303 304.8224 320.0943 304.8224 336.4548 304.8224 352.8189 304.8224 369.183 304.8224 385.5435 304.8224 401.9076 304.8224 418.2717 304.8224 423.4557 301.0466 423.3875 293.4555 425.3921 288.6128 427.9931 286.5183 431.1941 283.7341 433.1377 280.2565 433.831 278.7225 435.4657 279.1356 438.0487 277.7956 440.0246 274.7024 441.3898 269.7124 440.991 262.8218 438.8283 254.0524 438.3182 243.4005 439.457 235.7447 438.9217 231.0852 436.7015 226.1382 435.4369 220.9039 435.1208 217.8682 434.1903 211.6567 432.5377 210.4711 429.7032 209.7418 427.5549 207.9743 425.2915 207.7803 423.4701 209.167 422.0834 209.3682 419.8488 208.3731 416.7664 206.6558 415.2647 204.2201 415.3474 202.704 414.169 202.1112 411.7296 200.6742 409.8795 197.2469 407.997 192.7239 409.416 190.5899 411.5608 189.3361 414.9091 188.1937 416.5868 187.6189 419.3926 187.3602 421.3757 186.1926 423.4881 184.9891 424.3467 183.7533 423.9587 181.4253 424.803 176.3095 427.9285 174.8545 429.5739 170.7159 426.5921 158.6521 415.3797 154.377 412.4661 148.0541 405.5972 134.1652 384.2861 132.1822 380.1834 129.538 369.8872 126.488 362.253 126.1538 357.8485 127.6088 355.3589 126.7179 351.9675 125.1551 348.9426 120.4165 344.98 119.0729 331.7414 115.9079 323.1875 116.5869 316.121 115.0744 309.6831 114.9271 305.5553 115.6097 297.7127 113.0662 288.6918 107.9144 279.8649 103.2657 267.1329 102.5975 261.5573 103.0932 246.5655 102.1951 240.451 102.2454 233.2587 100.406 225.8077 99.6516 221.741 100.9449 218.522 101.7101 219.5387 103.0501 220.0237 103.9411 215.7486 104.1638 211.9728 101.8394 202.6501 96.6554 193.1155 83.83 177.5777 80.6972 171.6571 78.9046 166.7497 64.6026 146.2757 58.4881 131.8265 54.2201 119.346 49.5749 113.5907 28.0951 73.0702 23.3313 66.6072 14.7595 58.8761 12.7548 56.293 9.4497 48.9283 2.9939 39.0416 1.4347 29.8159 1 19.3615 1.7868 11.3573 7.6534 10.5239 11.7525 8.3899 15.4457 8.2426 19.0885 9.9131 22.9541 10.0389 24.4558 9.7622 31.4038 10.0137 35.3915 8.0953 40.1229 6.1697 42.8497 4.492 46.6722 2.7568 51.7484 1 54.6297 1.1473 58.1683 1.8047 62.8782 2.4765 65.5367 3.6621 68.6909 7.384 73.5696 10.7789 77.1622 12.798 81.29 15.46 82.533 16.4911 84.3509 17.0587 85.4574 17.2312 93.1239 16.8216 100.0719 16.4516 107.548 16.4624 121.6236 16.4839 135.6993 16.5055 149.7749 16.5234 163.8505 16.545 177.9262 16.5665 192.0018 16.5881 206.0774 16.6097 220.1495 16.6312 225.9083 16.6384 235.9675 16.7569 246.5476 16.8827 247.7187 17.0946 248.9007 17.8096 249.8671 18.4778 253.6033 23.1589 258.3814 28.0591 262.3512 30.3799 267.1077 31.7487 271.5661 32.2696 275.7227 31.9319 282.6276 32.557 292.2736 34.1449 302.2968 34.6119 312.6901 33.9617 319.9973 34.8347 324.215 37.2309 328.5368 38.8548 332.9665 39.7026 338.9553 39.1996 346.5032 37.3495 352.9195 37.6153 355.8942 38.9589 357.6653 39.002 368.7591 37.0549 377.6758 35.4885 391.0437 32.9989 402.0729 30.9439 418.4154 27.8975 429.908 25.7563 Z"/>
</g>
</svg>