<?xml version="1.0"?>
<svg xmlns="http://www.w3.org/2000/svg" version="1.2" baseProfile="tiny" width="800" height="276" viewBox="0 0 800 276" stroke-linecap="round" stroke-linejoin="round">
<g id="us-states-28">
<path d="M 695.0652 47.9705 711.5548 88.9448 724.047 94.9411 730.0432 110.931 724.5467 121.9242 727.0451 134.4164 743.0351 142.4114 742.5354 165.397 751.5298 185.8842 746.5329 209.3694 757.0263 221.3619 776.5141 250.8434 799 274.8284 196.8773 274.8284 183.3858 274.8284 183.3858 183.3857 1 183.3857 1 1 67.4584 1 222.3613 1.4997 507.6826 1.4997 510.6807 5.9968 557.6512 22.4865 568.6444 13.4921 581.6362 15.4909 624.6093 15.4909 672.5792 32.4803 678.5755 45.4721 695.0652 47.9705 Z" id="31"/>
</g>
</svg>