<?xml version="1.0"?>
<svg xmlns="http://www.w3.org/2000/svg" version="1.2" baseProfile="tiny" width="500" height="249" viewBox="0 0 500 249" stroke-linecap="round" stroke-linejoin="round">
<g id="ne_50m_admin_0_countries-Nepal">
<path d="M 495.8217 155.5542 498.3104 157.2303 498.5562 159.9708 498.1065 163.0082 495.5639 169.5656 493.2491 174.1741 490.5626 183.9068 488.1219 200.7907 488.6616 203.7291 495.8997 213.4078 498.7361 220.8468 499 225.9141 495.9297 234.4115 492.4516 244.0152 490.7365 246.1651 488.7815 246.9417 479.8224 243.5925 473.6577 244.0602 466.5696 245.9132 459.1816 245.5534 453.0709 244.45 445.3231 248.2969 437.9171 246.2131 433.1737 243.8204 430.0014 237.164 428.6821 236.3154 413.0906 243.2836 409.3366 243.7064 399.6519 239.9644 391.7182 236.2614 388.7498 235.1491 381.1039 233.7008 374.2137 232.8583 366.7177 230.5465 357.4048 233.5659 353.6508 233.323 350.1367 231.1372 348.3017 226.6607 347.84 222.424 344.6797 219.5155 339.7683 218.8499 332.8901 221.4675 322.8515 224.9186 319.6133 224.3459 316.6389 223.3504 315.5535 222.4299 314.1682 218.4331 312.5611 217.5516 310.2223 217.4317 306.0966 216.4752 301.0053 213.5038 285.5397 206.4966 283.6028 203.3843 283.6627 196.509 282.7992 193.6725 280.9222 190.6742 272.9825 187.6338 257.5649 182.7435 249.0435 178.8426 244.9777 180.6656 237.14 182.2967 232.9422 185.8138 227.917 184.7014 215.9235 180.9924 209.507 180.4407 205.6271 181.7 204.7335 183.8229 199.8402 186.2336 195.1807 184.3116 185.9817 181.718 177.9221 180.2968 165.6767 177.1455 164.2915 172.3751 162.2346 167.6616 159.3202 166.8251 148.3581 167.7606 138.3076 162.5584 127.5134 155.902 122.9139 153.7132 119.8855 152.9036 117.277 153.7942 114.3086 155.3173 111.592 155.7701 105.7332 152.9006 98.2613 148.8079 89.0802 143.7886 78.3221 136.7784 73.9085 132.8175 71.8996 129.8371 69.6088 127.0367 60.2539 122.4581 52.8539 118.8361 43.9307 114.4675 42.4195 113.595 39.0494 110.9954 33.8742 107.7181 29.6285 106.7617 28.2732 108.5667 27.2478 110.4647 23.5298 110.0269 17.7729 106.6867 11.7402 103.1906 7.0147 99.9524 2.1694 96.6302 1 94.1655 3.0209 86.5586 5.8394 80.0371 8.2381 78.5679 12.136 74.2503 13.5452 66.6734 13.4792 60.2059 17.2872 51.0729 22.5043 41.3581 31.5414 30.9478 35.4633 27.5056 39.8349 25.1429 48.1764 17.4671 49.9095 16.2138 53.5615 14.2378 57.1536 13.7401 59.8641 14.6936 62.6466 18.7174 66.0108 22.5343 70.1125 22.3454 74.8979 19.0652 84.8525 4.0643 98.6511 1 111.73 2.5412 123.3037 4.73 126.7158 9.7463 128.9526 15.0324 130.4038 17.7219 134.1938 20.8732 150.5169 28.3872 159.9918 35.1605 173.1007 44.2366 182.9054 48.2484 191.5947 48.5812 196.488 52.1463 203.858 59.2344 210.0886 67.39 217.8784 74.9279 223.2575 74.6821 230.5855 72.2354 239.5207 69.0391 244.8038 70.6133 249.6792 72.6941 251.3043 76.604 254.2367 83.968 257.4989 91.6199 262.6202 94.3004 268.6769 98.2433 272.0351 101.3736 283.4049 107.1065 285.012 109.4422 287.3148 111.0373 290.0853 112.0388 292.388 113.2082 295.9621 113.6129 309.107 110.1708 312.621 110.6026 314.63 111.2412 314.6959 112.4916 312.3212 117.8706 310.3003 124.7489 312.3812 128.206 317.8862 129.6393 330.0776 130.6587 346.5147 130.5718 351.498 134.0589 356.4573 139.297 361.4586 148.2412 363.4495 152.0161 365.9321 153.1105 370.2078 151.6173 370.9034 147.9413 371.1013 142.4753 374.6814 140.5863 376.9662 141.9776 379.6527 146.2532 386.447 150.0942 391.3644 151.9891 396.0478 151.3205 398.0088 149.8483 400.3175 142.3764 403.9995 141.2819 408.671 141.7797 410.458 143.2699 412.347 146.2532 417.9959 147.6595 423.6089 149.5455 428.91 151.9891 436.358 157.5361 445.527 158.5436 456.1772 158.4266 461.7722 158.5496 465.9039 158.9574 469.5979 158.5766 480.53 154.6037 484.9916 154.3129 490.5146 154.7686 495.8217 155.5542 Z"/>
</g>
</svg>