<?xml version="1.0"?>
<svg xmlns="http://www.w3.org/2000/svg" version="1.2" baseProfile="tiny" width="616" height="450" viewBox="350 0 616 450" stroke-linecap="round" stroke-linejoin="round">
<g id="combined">
<path d="M 606.5048 45.1189 598.7638 43.3867 595.4191 39.6471 592.3059 40.3698 591.7379 37.9493 588.9823 35.8845 584.3545 33.9917 585.6166 32.1448 588.4143 32.1677 593.0211 35.3568 595.2298 33.8884 587.5098 31.2271 599.9838 29.644 611.0905 33.6246 616.118 31.6286 626.1098 29.2884 628.2765 29.6784 646.7035 27.235 653.8555 27.1203 667.2972 25.0211 682.6741 21.0864 697.6723 19.3886 701.3956 19.251 708.2321 20.249 711.9133 21.6026 715.4052 19.7786 725.5864 22.3138 729.8776 24.4131 728.1947 28.2675 728.0896 31.273 730.8031 33.7164 730.9925 36.8825 733.8743 43.7997 735.1154 43.8112 746.3904 49.7189 750.7027 50.3269 756.2139 52.2656 764.2284 53.6766 769.5083 53.5619 771.5488 57.118 770.476 60.8232 775.3141 63.4961 777.8173 63.3469 783.6441 64.735 787.6619 64.7923 793.4887 66.3639 796.8965 66.6048 798.8738 71.0901 799 75.1854 793.4466 82.16 793.3415 84.9476 791.0907 86.955 791.869 90.3162 796.1181 92.0598 795.2347 98.7362 798.0113 113.2704 797.2961 115.4958 791.5535 127.6784 775.6086 143.7384 772.0536 146.7209 773.1895 148.9693 768.9824 154.8541 767.3627 172.8642 765.5116 189.1995 762.6718 191.574 756.5926 190.7481 749.0198 188.7865 747.4632 189.7042 741.3209 190.5416 737.3662 190.1286 732.8646 187.6508 727.6899 187.2149 723.0621 188.2703 720.3485 187.4902 717.1932 188.385 710.5671 187.3755 700.7435 188.9356 697.6092 191.3217 694.2015 192.5835 697.7986 195.2219 695.8002 200.602 704.8454 205.42 702.9312 206.808 697.1465 206.1771 695.2322 208.9532 687.954 207.9437 693.2339 214.6889 691.509 221.9158 702.9312 226.5159 707.4749 227.3074 723.9035 227.3188 725.376 229.0051 741.994 232.3777 746.3063 230.3932 749.5036 226.1602 751.3758 225.254 755.1411 230.3243 756.235 233.6855 758.633 234.8326 761.5149 239.1573 764.8174 239.7538 767.1944 241.6466 768.8773 245.3977 769.0035 249.6651 765.8692 252.4068 762.9453 257.5803 759.4534 261.9968 759.6427 264.9679 762.798 269.4762 767.531 272.5161 766.8789 273.8123 762.2721 275.4183 758.023 275.9116 754.7204 275.1316 750.1137 276.7376 749.7561 278.5959 744.0765 285.0199 735.8937 285.8458 730.0038 289.8608 727.732 294.8509 724.3242 297.409 717.3615 297.8793 704.6771 297.9137 702.6577 304.7736 699.271 306.9646 695.0219 307.2858 691.3617 308.5477 689.4685 311.5073 689.4054 314.0998 694.8326 314.1687 702.8891 316.4859 706.7386 318.7687 715.0476 322.7722 718.3291 323.7358 719.4019 328.2096 718.7288 329.873 712.3761 330.9169 711.9764 334.0715 710.3988 337.0311 706.402 339.7728 703.0574 340.4725 696.6416 343.9369 691.6352 341.092 691.0672 339.7843 686.8601 339.7269 679.2663 342.2506 668.391 344.3728 662.6063 346.9195 659.6193 346.3229 655.6646 348.5254 651.1209 349.7758 650.8054 350.8885 645.0627 352.6896 640.6032 350.2347 636.6696 351.508 632.8201 349.2367 627.393 350.3035 631.8315 352.9534 627.8558 356.8193 622.1552 356.3948 621.3137 353.9743 618.6212 353.2058 610.5015 353.699 609.0922 349.7873 605.2006 348.4566 601.288 349.7299 594.9774 349.3055 591.6748 349.8447 585.1118 346.6327 586.9418 345.7264 582.4823 342.9045 579.1798 341.9523 570.1345 344.1204 575.5196 346.0132 576.9711 348.9958 581.1361 351.6342 581.662 355.3509 575.6879 354.0088 569.4404 353.7908 566.0957 353.0222 560.4372 350.2003 558.5861 352.9763 554.0635 354.9953 546.2173 357.3699 539.6332 356.2227 535.994 358.9988 538.371 361.6143 542.8306 364.2298 541.6315 365.939 545.1445 370.757 537.5927 374.6228 537.8872 376.4812 545.9648 376.5156 554.0004 379.5326 556.6719 381.0353 552.7593 382.5037 553.6217 384.7406 553.2641 389.0194 554.7576 390.1321 562.2042 391.8528 571.7332 393.585 569.2931 396.9117 566.2009 403.9552 572.4274 406.605 574.1733 409.0255 579.8108 412.0539 583.8707 417.8355 588.6036 420.0954 591.2331 423.0894 591.1489 427.5518 593.4628 430.9129 592.7687 436.8551 591.5276 439.4476 589.6133 446.686 591.6538 448.5559 593.9256 454.7045 586.5001 458.8801 582.2509 460.3943 579.1798 465.5794 574.0682 470.1909 572.8481 472.4163 565.065 477.9455 562.3725 479.0468 564.9809 483.1536 561.7204 483.3142 562.4776 491.5047 564.2236 493.7416 567.7575 494.1317 572.5326 491.7456 581.4516 489.0154 584.6911 490.7132 576.0665 493.4434 583.4079 496.4718 580.4209 498.3072 573.3109 499.1905 572.4064 500.1083 566.1799 501.3701 565.2543 503.412 559.6168 505.236 559.0068 506.5437 554.8418 509.3083 548.9098 510.7537 546.8273 511.8664 541.1477 517.2236 540.5377 520.0111 534.3112 522.0301 529.2627 515.3767 524.0249 518.451 519.6074 518.6116 521.9213 522.5233 522.1948 525.5059 527.7482 528.6835 527.4116 531.8496 525.9181 534.4421 530.63 533.7194 533.596 532.2511 538.0345 531.7119 540.3694 533.3982 550.9713 532.5149 552.7382 533.0885 550.3192 536.9773 551.1396 542.7474 557.5974 543.711 558.4388 545.3858 564.3288 545.4202 562.7721 551.3624 565.3595 555.6527 563.256 558.0617 562.6249 561.0328 555.5991 560.0577 551.1816 560.9639 550.5506 563.5679 552.2544 567.6632 548.1104 570.2443 544.0296 568.363 541.9471 570.9555 553.0327 576.0373 550.9502 578.2513 551.4972 580.1097 542.4098 580.0638 538.6235 578.3775 533.0491 579.4673 529.8096 580.9356 524.5508 579.6164 523.6883 576.8174 518.9974 578.1022 515.19 577.7121 512.245 579.1919 507.2596 579.5361 501.1383 574.1331 498.8034 574.1216 494.975 576.7141 493.1869 579.4902 488.496 578.9281 484.0996 580.0294 481.7647 578.5381 485.3197 574.0757 483.2793 571.2882 485.0462 569.8084 483.5948 568.1221 475.6855 566.4358 476.2745 565.5066 472.4881 560.6657 473.6871 555.8362 483.7 551.2132 484.31 548.4257 489.0219 548.2536 490.4944 545.6496 493.7549 542.5065 495.8584 537.4935 492.3245 538.4112 489.3795 537.4705 492.6611 533.7653 495.017 533.0196 499.161 529.1308 499.182 526.5268 500.9701 524.6799 497.1626 522.248 499.8341 518.7263 500.1497 516.5009 503.9781 517.063 506.0606 516.1452 506.6707 513.1742 504.9247 510.7537 507.8907 509.2739 512.6237 509.1018 511.7612 507.0599 507.6383 505.7407 510.6043 502.5861 514.1593 502.0469 517.4408 499.2594 513.3179 497.3895 510.9829 494.602 501.2014 497.9057 499.75 495.3017 500.949 492.3307 494.7646 490.0823 487.6546 491.7341 483.2162 490.977 480.2502 491.5277 476.4007 490.9541 473.7712 487.788 457.5109 483.4862 456.3329 483.3027 455.1549 478.0947 455.4704 473.9994 449.5595 470.8333 447.1825 468.2293 440.6615 467.1051 436.5175 470.4547 431.7635 470.8218 426.715 474.9056 411.9061 472.1181 411.3171 474.355 401.5356 475.1006 395.0146 473.9879 389.6926 475.1121 387.3156 473.6323 390.2396 466.0038 381.9306 462.4821 373.9371 465.0976 368.2996 463.9964 367.6685 457.4921 364.6394 454.498 355.1314 447.8561 361.9048 440.0326 356.7932 431.6815 349.9567 431.8765 347.2431 428.3548 342.8047 431.5323 341.3743 437.3025 332.7918 441.7878 325.7029 447.3973 321.8113 444.9883 316.7418 442.9693 312.8923 444.105 307.2338 443.3823 296.8423 444.5524 293.5607 443.6347 292.6141 440.48 296.7792 440.4571 303.9312 441.7304 303.8681 436.5224 306.5186 433.7234 307.6545 429.8116 303.4895 429.2725 302.2694 426.8635 297.1999 426.1408 293.6028 424.6725 289.1433 425.8196 287.9863 428.0565 284.4314 428.9972 281.8019 432.1747 279.1304 432.5648 276.7955 435.7423 271.4525 437.2566 272.1046 440.9733 263.7956 441.2142 252.4575 439.6082 244.464 441.7189 243.1809 436.3389 246.9462 431.2914 244.8216 429.4446 234.1356 430.454 229.9917 431.7847 225.2377 432.3812 214.5937 435.8226 215.3089 440.6406 212.953 442.1548 214.4886 444.7359 222.9658 451.7334 220.9254 453.6148 213.2475 455.909 204.034 455.2437 202.7508 451.1713 191.4758 451.4581 184.0503 451.7105 184.0082 449.6686 181.5681 447.4661 173.4905 445.1259 166.1281 447.6152 154.769 445.883 146.3758 443.5658 143.3257 440.9962 134.8905 437.3713 128.5378 433.5398 123.2158 434.9164 117.347 437.2107 118.2935 439.4361 116.8631 440.7553 112.9085 447.5005 106.9555 447.0187 104.326 448.3494 94.8601 449.4048 90.0009 446.5025 82.7437 443.4396 78.9152 444.2312 76.7906 443.3364 75.823 440.9389 68.5237 436.7633 68.713 433.9758 63.37 434.4231 62.8442 435.9144 59.3312 437.4516 52.8103 438.1169 51.2957 437.5778 45.6792 438.4037 42.0191 436.2356 36.5919 434.4575 29.7344 427.1273 19.7215 422.6535 16.6293 420.2789 17.1131 417.2964 29.3978 411.8933 42.9236 407.0295 47.0886 406.215 53.9672 406.6739 57.8798 407.5457 61.4348 406.9262 67.9137 404.7926 76.3699 406.9033 79.6304 406.0544 87.0559 405.63 88.2129 404.6893 99.551 403.9781 106.7661 405.9282 112.3826 412.7308 107.6496 414.2794 105.0412 416.7343 99.8875 414.1991 97.5105 414.2335 93.3876 415.9657 84.0899 414.417 79.0835 416.1607 74.6871 418.455 71.9735 417.1931 69.1758 414.2564 61.6031 411.2051 59.6678 407.5113 56.9963 408.1078 57.1225 411.0903 59.2681 412.9143 65.9574 415.9772 68.8182 420.7722 71.8684 423.1238 74.2454 422.1717 78.2421 417.847 82.6595 415.9198 85.3731 416.9981 90.7582 417.2964 96.3536 415.5527 99.3617 415.8854 102.3908 417.6979 109.5428 417.044 112.5298 417.3767 115.4748 416.4131 118.4618 416.7457 121.5751 420.6116 124.8145 419.4645 137.1203 422.1029 142.5684 425.3837 144.672 425.3607 145.7237 430.9244 152.7496 436.9813 155.1266 437.3254 161.1637 440.0556 164.7187 440.0097 170.9032 437.5319 179.8642 438.5528 178.7073 428.3433 177.7817 427.4256 169.6831 425.269 170.209 422.665 167.4744 421.0246 157.9453 420.9328 149.5943 420.4739 146.8597 418.6385 146.1865 416.6081 143.7675 414.9562 139.2659 414.0844 139.8128 412.7766 134.9746 410.4135 130.1575 409.1746 131.5879 406.7312 138.4034 405.7217 144.6089 403.2325 149.3629 402.4409 154.769 403.1177 157.1881 404.7696 164.9501 404.4943 166.3805 402.4409 159.8175 402.5098 157.9664 400.3073 154.3272 398.6668 154.2641 396.2464 158.3871 393.975 161.9841 394.3077 166.1281 392.587 174.8999 396.9576 182.704 398.185 188.0681 397.7606 199.0696 395.6155 202.6666 395.9481 211.5646 392.8967 214.762 388.595 221.5565 385.0044 223.9545 384.9815 229.0661 386.8054 234.7877 387.8723 241.0563 387.8264 258.0529 385.1077 266.0885 381.7007 266.6564 380.5879 261.5658 379.6932 258.8943 381.0124 253.5093 381.976 249.0498 383.4902 243.0757 384.0982 234.6615 382.1136 228.3719 381.2303 224.4804 381.2648 219.0532 380.1979 205.7799 375.4717 195.2411 372.7759 184.9969 370.8373 181.3367 368.0841 181.2947 366.2258 177.6345 363.8397 171.3028 362.7844 165.8126 359.125 160.133 359.7445 156.7673 358.104 153.1703 357.7714 148.8791 355.0297 147.3224 353.0108 140.2125 346.3918 139.8759 344.912 142.7788 341.7229 145.7448 339.8301 142.3791 338.1897 132.198 339.7957 130.9779 338.878 137.0571 331.5593 134.8695 328.6111 136.5944 326.3627 139.5814 325.0206 142.295 325.3647 143.4519 323.4949 153.7382 325.6056 159.9858 322.3822 165.5391 317.6904 177.7607 308.9607 191.623 298.6364 196.3771 295.9865 200.5421 292.7975 211.207 283.781 225.7004 267.8587 235.7343 254.5748 247.8297 236.083 249.8491 230.68 247.9559 226.9747 254.0352 226.9403 258.8943 225.7932 257.6533 224.3133 250.6695 225.6555 255.9915 217.2584 258.8733 207.9437 262.2811 192.6753 263.6484 184.5306 264.8053 180.5844 265.8991 171.7974 268.5286 164.3869 273.3036 156.7354 280.3926 139.5972 281.1709 129.5598 282.3278 125.8316 286.598 123.0211 294.5915 122.7916 294.6335 125.0286 299.2613 125.3727 297.1368 128.7338 299.9765 132.9897 302.4587 134.4695 312.6399 138.1403 315.711 138.6795 321.2434 137.5438 327.6592 135.284 333.7594 130.0645 346.0441 128.3438 350.3774 131.3034 364.0084 147.6272 361.9679 162.322 365.3126 163.0332 365.0391 165.2816 370.887 169.1704 377.0083 169.3425 380.3739 166.1879 388.0308 166.727 393.8577 166.532 398.7589 168.9525 400 174.5276 403.9757 176.1909 396.3398 180.2862 391.4386 180.6647 389.314 186.4234 383.2137 189.0389 381.4047 190.7137 377.1135 191.2758 373.7688 193.1456 366.743 194.2698 365.5229 191.6773 362.4518 191.8723 357.5505 189.6468 353.3013 191.5167 351.1347 189.6698 346.57 190.9775 343.8354 193.2144 344.4875 199.1681 347.2852 203.8025 351.5975 209.5497 354.0797 214.1956 357.1298 216.226 358.0554 218.2679 356.2463 220.5048 352.9017 221.4455 353.2382 225.7243 350.5247 228.5119 350.5457 231.4944 358.1605 232.4007 354.2269 236.8745 351.1978 236.8745 346.9697 239.49 345.7707 241.9104 336.0733 245.8451 331.8452 246.7972 335.1898 248.4491 338.829 247.692 347.6639 251.2023 347.9794 253.4277 351.913 252.4871 359.8013 252.2806 363.4615 254.1275 368.9307 255.2402 373.8109 259.129 390.471 257.9933 398.0647 259.8402 400.7993 261.1365 403.8284 265.0367 406.5631 265.9659 415.6504 266.8951 419.8995 269.6827 423.8331 271.3575 426.2522 271.7246 430.5014 270.2447 444.1323 267.6522 449.5805 267.8358 452.3151 265.0597 456.6063 256.6971 466.9347 250.9614 467.5868 248.5065 469.9849 248.5409 473.645 246.3155 475.4541 247.0611 480.9443 244.1015 485.1935 243.5623 493.1238 240.2356 508.1011 232.481 515.779 223.3956 519.5233 215.0445 517.4618 208.3452 513.2547 203.4928 514.4958 201.6459 512.3713 200.3382 512.3923 198.2848 515.169 196.0708 524.0459 194.0633 525.855 194.6254 530.7352 195.7611 538.0976 193.9371 545.1234 193.0424 551.5813 189.7271 548.8677 187.6738 543.3775 186.1595 543.9875 186.9052 539.9697 190.2319 523.4569 193.6848 512.7289 195.6923 477.5997 195.5775 475.4751 195.2105 467.8813 187.7541 463.0011 185.3336 463.3377 177.1545 463.4008 164.6966 463.7163 163.9624 476.9686 151.1604 480.0398 150.2426 488.0333 149.1414 481.5964 147.6386 476.3796 147.8107 476.3796 145.7688 473.624 144.4611 468.4072 146.4915 461.3393 146.6636 459.1727 149.4511 453.0303 150.1853 441.6922 146.8242 434.3298 145.5279 428.482 147.0077 422.6552 145.1494 417.7329 142.1783 415.2717 141.7997 413.4416 139.2072 416.8073 136.6032 424.5063 134.1827 425.1163 131.7623 423.2652 128.2405 426.0419 123.2161 422.3607 115.037 424.5063 113.1786 418.3429 104.2654 422.0451 102.9576 418.6584 95.9027 418.6584 93.2987 424.2118 90.5112 426.3784 81.4029 425.1373 79.5445 427.304 77.8697 432.8784 70.2527 440.3249 65.8018 449.6436 62.2801 456.4801 56.7165 461.76 53.3783 469.8376 51.3479 475.7486 49.3175 481.344 48.5833 489.1061 46.3693 498.7613 42.8705 505.9344 41.2187 515.9052 37.7314 519.965 36.8136 522.1527 35.3338 533.3436 35.3912 538.6445 34.1064 548.9308 32.4889 560.4372 31.4336 564.7915 32.0186 566.6637 31.2844 575.9824 32.0874 580.0422 31.1812 579.3691 34.1523 581.1571 38.2476 580.8205 40.1059 582.6086 44.3962 584.8173 41.6202 587.9095 42.5723 592.2638 42.4117 596.2605 45.0386 599.6893 43.5818 606.5048 45.1189 Z M 648.2812 1.608 649.7747 4.407 646.6404 4.9347 644.6841 8.0778 640.456 3.214 643.3168 1 648.2812 1.608 Z M 374.6102 115.645 401.0728 101.6614 401.6828 101.8564 374.9047 115.8285 352.8175 127.4031 352.502 127.2196 374.6102 115.645 Z M 416.4918 99.803 420.194 101.2828 422.0451 104.0703 418.0274 103.7033 415.8817 101.0993 416.4918 99.803 Z M 373.3481 54.5025 365.6071 56.9344 364.366 55.4546 369.9404 53.7683 373.3481 54.5025 Z M 359.6961 54.3419 353.1962 54.9155 350.735 56.4182 337.7351 59.6073 334.6429 60.7429 335.5895 62.9684 330.9617 65.2053 326.3339 66.5245 326.965 68.5664 321.7482 71.1934 314.3017 71.4113 313.3971 73.0861 309.3583 71.6178 310.2629 69.5644 314.8907 67.8781 327.2174 62.4407 330.3096 60.3759 346.9907 53.4471 353.1751 51.9444 360.6217 52.6671 359.6961 54.3419 Z M 454.7342 24.3787 453.1776 25.8585 445.71 26.9712 439.778 29.0016 438.8524 31.2386 434.4981 31.9727 424.5483 31.9727 418.3219 32.9019 414.5986 35.1274 407.7621 37.3643 405.2799 36.9972 401.2411 39.0391 397.8123 38.3049 393.458 38.4885 390.6813 39.7962 386.0114 40.1748 383.8448 41.8496 378.5859 44.0865 371.7284 41.8725 372.3594 40.5648 381.3205 33.8655 397.4968 31.2386 415.8397 28.6231 432.3315 25.652 446.341 22.8759 451.9365 23.2545 454.7342 24.3787 Z M 483.4055 18.8609 482.7744 20.3407 491.5883 20.5472 502.716 20.2146 525.7708 18.9986 536.6672 18.6774 541.0215 19.251 538.4973 21.2929 527.9164 21.052 523.8566 22.3368 507.0283 25.0555 503.4733 25.044 491.462 23.8969 485.8456 26.6729 478.6725 28.6919 469.9849 26.26 467.5027 24.2066 468.1338 21.6141 472.1936 19.0215 478.7356 18.2874 483.4055 18.8609 Z M 621.8607 11.0489 614.9821 11.7372 602.1505 15.1672 600.2362 16.6355 593.3787 16.9567 587.4467 17.8515 579.9581 18.1727 578.3594 20.7652 574.5941 22.4171 572.764 20.1687 575.9824 13.8709 579.7688 12.2305 586.6263 11.3357 605.3478 10.7277 617.2329 9.3397 623.1438 9.1906 621.8607 11.0489 Z M 206.7055 376.768 203.1715 379.0278 195.9774 378.351 188.9936 375.0702 188.0681 373.2233 198.5858 374.7949 206.7055 376.768 Z M 124.3938 368.3365 119.0088 368.7724 120.1236 366.157 124.3938 368.3365 Z M 100.2451 372.363 104.3891 370.4473 105.7564 366.524 103.8632 363.7594 104.0736 361.339 106.4296 359.8248 113.8761 358.6088 127.2757 354.915 135.3743 355.0068 140.8856 358.8497 153.002 362.7958 157.2512 364.6083 167.5375 368.0383 172.9646 369.0936 178.4549 372.5695 184.2186 375.2996 187.8998 378.7984 195.4305 380.955 201.7832 383.8802 213.4578 383.9605 210.8074 385.8418 207.3155 390.5222 199.5955 392.6329 189.7719 393.8374 181.9678 392.61 179.1911 389.8568 172.565 388.0558 168.3789 387.9182 165.6233 385.1536 156.578 382.8363 147.8904 382.7446 143.9778 382.0448 143.9357 380.7485 140.528 376.5156 138.4034 375.6094 137.3937 371.9041 137.562 367.8088 133.8598 364.5051 131.1252 363.2318 123.0265 363.1515 120.0605 364.2986 113.5185 365.4916 111.4781 367.3844 106.682 367.6253 104.4102 371.0093 106.8923 373.946 101.1707 372.7186 97.9313 374.2557 97.6999 376.4812 103.9895 376.5844 111.1415 375.3799 114.2127 377.571 118.4198 377.8922 121.9747 377.2842 127.3809 377.4104 129.8841 380.7256 135.0588 383.8229 136.6575 387.1496 139.6655 388.0443 142.6526 387.6428 149.3208 390.3501 152.9179 391.0613 155.379 393.0803 153.9276 394.9501 148.3532 398.3571 143.8726 398.598 135.6057 401.4773 126.9601 402.1427 120.2498 397.7606 115.8114 399.1142 110.6998 398.4374 110.9311 396.212 108.0703 391.2219 104.1157 389.0424 97.3002 387.8608 95.3018 384.8897 90.8213 385.3142 90.8844 386.8054 82.8909 389.5127 76.6644 390.9007 71.2794 390.4304 67.1985 385.4633 67.1144 383.2378 69.6807 380.0373 74.9185 376.9974 79.1466 376.9286 86.5932 375.5176 95.2808 375.965 100.2451 372.363 Z M 164.9081 457.6756 161.3531 458.0771 158.8499 453.8327 162.1524 454.5439 164.9081 457.6756 Z M 164.9081 457.6756 166.9275 455.9779 165.0763 453.0182 170.7138 452.5938 174.5423 451.4352 177.2348 452.525 182.115 457.3085 168.1685 468.4128 147.3855 477.9455 142.0846 479.3106 137.9196 478.4273 130.8727 480.7446 129.1478 482.6259 126.2029 482.8438 125.067 484.5301 110.0687 487.6962 110.5104 483.0388 104.6836 485.5281 91.9572 485.7002 90.1481 484.6104 89.9168 478.4847 91.3261 476.2248 83.2275 473.552 70.4379 472.0607 62.9073 469.1929 59.3733 469.6173 48.8556 466.0612 46.8362 467.5869 33.2894 469.8468 36.003 478.1635 24.4755 479.0927 15.2831 478.6912 14.5889 476.4772 8.2783 474.3435 5.1019 469.5714 2.3463 467.5754 4.6812 466.6004 1 464.0652 6.4692 460.0617 4.2605 457.125 4.4708 455.0716 2.8722 452.6856 5.775 450.9649 14.8623 448.3953 17.8494 448.7165 28.7668 446.491 31.0807 445.1489 39.4107 445.3898 44.2278 446.8008 48.498 449.3359 59.5626 451.5843 68.8182 452.3758 70.0593 453.8442 77.2955 457.0906 83.543 457.3774 90.064 456.907 91.873 457.9968 99.6562 459.5684 106.1771 459.6716 107.902 457.6068 116.4004 454.521 124.0783 453.1215 126.9601 449.7374 126.287 447.707 128.0119 445.2636 137.2465 446.2731 143.9988 453.4427 151.4454 453.913 157.4405 456.2646 161.0586 458.4557 164.9081 457.6756 Z M 272.9881 119.2011 274.5657 121.5986 272.7567 123.6635 269.0545 122.9408 269.6224 119.9582 272.9881 119.2011 Z M 315.3745 83.1121 318.1722 84.2134 321.3065 87.5516 320.0654 88.2972 319.266 99.4474 314.0492 102.2579 314.0913 104.1162 310.0735 106.5826 308.58 108.6015 303.0267 109.5651 297.5575 113.8554 297.5785 115.1632 293.5818 116.2988 288.0495 116.7003 286.8294 118.0081 282.2226 118.5816 282.1806 115.9891 280.2874 112.6509 280.5398 108.7507 282.8958 102.4185 288.0495 95.8798 308.2014 77.3879 310.6625 77.3764 314.1123 79.9575 315.3745 83.1121 Z M 490.4103 201.1985 498.3196 202.5177 508.08 202.7357 516.2628 208.1616 517.1673 209.7447 517.7143 214.8495 516.1366 219.6789 509.3632 227.8351 505.3665 231.5403 494.6805 236.8974 489.8213 236.3239 477.3262 240.1897 470.0059 243.5164 466.6613 246.6711 461.1921 247.4052 456.9429 246.4761 451.4527 250.5599 452.3572 252.6018 454.7973 253.7145 454.4818 255.9514 449.896 265.6103 434.1405 268.7535 425.0532 270.2333 420.194 267.8243 405.953 259.6452 401.9984 257.7868 390.1554 254.2766 382.8772 252.9803 378.628 252.9918 371.9598 254.4831 368.2996 252.4526 367.6685 246.8775 365.8385 244.8356 367.0375 243.1608 372.8012 241.096 373.7057 239.7997 383.4662 236.2895 386.4532 236.06 388.5778 234.3852 393.7314 232.3318 419.8995 221.1702 422.0241 220.9752 431.1745 215.9622 430.2489 213.5532 434.5191 209.4579 434.8347 207.9781 441.8395 207.9781 444.0272 207.3931 455.5966 200.0055 458.9623 199.0763 472.7195 196.6903 475.7486 198.9272 490.4103 201.1985 Z M 424.2118 189.1765 413.4627 182.3166 403.0712 179.5406 401.8511 179.7241 403.0712 179.357 414.6827 182.6952 422.9497 187.8917 424.2118 189.1765 Z"/>
</g>
</svg>