<?xml version="1.0"?>
<svg xmlns="http://www.w3.org/2000/svg" version="1.2" baseProfile="tiny" width="400" height="425" viewBox="0 0 800 849" stroke-linecap="round" stroke-linejoin="round">
<g id="nz_region">
<path d="M 529.5694 120.4749 509.8411 129.3388 500.5364 131.3064 496.7987 120.8303 477.3468 98.3712 435.6332 52.2289 442.5032 49.8271 441.016 37.6137 422.4591 15.4704 411.8975 6.2841 423.4462 1.1184 432.8694 1.6186 431.0006 8.561 439.9763 27.5851 457.7107 36.5872 467.4037 38.9495 469.0883 34.488 481.8939 40.338 490.942 40.5749 495.4562 47.4713 503.0369 47.287 503.1356 57.6183 516.9415 57.7499 521.9031 68.4498 528.7666 71.9572 533.8204 88.461 528.148 99.8254 531.4317 107.4588 538.4464 113.1904 546.9484 122.357 549.8043 131.109 543.4937 136.1101 548.9357 156.3517 560.4713 164.3732 567.3478 163.5309 576.2512 166.7225 582.8448 172.8357 585.2599 184.2331 589.9452 186.1941 599.5329 181.6141 595.986 168.769 590.5506 161.8792 596.2295 155.5949 591.9325 151.5216 587.9052 136.2878 602.0664 146.7244 606.449 154.009 612.9834 155.7989 620.0047 166.1763 622.1302 173.836 621.4788 184.4437 625.5389 195.8147 625.1901 206.5869 632.7577 214.9046 645.9318 216.0036 677.9194 229.1382 705.8403 236.2385 721.5413 235.8437 731.2673 230.9807 743.1647 216.0167 752.4366 214.2532 760.0436 207.8767 766.7031 206.9489 779.2718 207.7451 785.0231 212.7792 797.3088 216.7932 788.4581 227.7168 783.2858 237.6862 781.6473 252.9529 783.7596 264.6003 780.3707 271.7335 764.3802 283.2625 757.1285 284.0719 754.4437 301.01 752.5946 308.6368 737.0383 306.2218 712.3418 309.4923 698.3189 315.6253 688.7048 326.9963 686.8886 332.1554 693.9494 344.4609 695.6209 357.8719 687.9283 370.3484 686.6649 377.3171 674.6884 385.5427 670.4506 396.8348 651.3804 414.5955 644.2538 428.3223 639.6737 431.0664 633.5934 443.0955 616.9053 458.27 585.0888 474.3527 579.2322 474.3 577.9358 462.8764 566.5253 459.0399 558.6879 463.0804 550.8835 456.6183 544.2701 457.9739 538.2293 453.2623 544.869 448.8994 553.5618 437.7587 559.6487 434.4948 562.7942 426.6377 572.6583 414.7534 577.8437 399.9737 577.4291 382.9895 573.1255 374.119 560.2344 362.8335 549.4687 359.3261 534.6495 356.6545 521.0806 346.2376 511.1309 341.5655 492.0015 336.742 483.3745 328.3256 481.5122 321.245 484.3682 315.5331 511.0914 302.109 523.5351 302.1287 534.7153 293.3833 538.3477 283.5586 540.0192 264.0015 544.9677 257.2302 543.3291 244.7997 549.9952 237.5414 547.6722 228.1051 553.3907 224.1568 548.4553 208.1662 541.2497 190.5109 542.2105 180.7125 554.3119 174.619 542.7237 166.9001 530.6157 174.6848 525.7988 159.6879 515.8754 145.6781 517.5864 140.0716 527.1215 144.6055 526.2068 133.807 514.816 130.5167 529.5694 120.4749 Z M 589.8267 108.7222 595.5057 116.5991 592.4852 125.6867 585.8719 119.0536 589.8267 108.7222 Z M 106.4717 648.9061 119.1786 642.2928 128.4505 632.1194 156.707 629.7438 182.6275 613.4177 196.4859 607.311 207.7846 605.5014 221.0705 593.8211 233.4155 589.6293 252.1632 577.4423 251.5842 573.902 262.3235 568.4665 282.078 561.4978 291.7579 554.4238 311.2361 534.1231 320.4356 518.0931 321.5872 510.361 330.8788 483.8154 343.5396 483.3021 358.5036 474.0039 370.434 459.7506 373.6057 436.1728 372.4805 428.9672 380.5942 419.6361 408.548 402.1057 414.1875 419.1557 421.5444 423.4923 429.1712 421.8932 436.2452 428.2697 432.8826 433.9552 438.93 453.5716 445.1552 456.2301 453.2162 447.9255 471.148 437.8377 484.8683 432.6457 491.021 439.825 499.8783 439.8316 508.1302 434.2842 512.2825 441.9307 508.2816 451.5711 501.0562 460.3429 501.7801 470.819 507.7683 471.2862 510.9203 482.065 515.9676 483.3613 501.0825 498.1806 490.7973 512.73 465.5678 533.5506 456.3091 552.8445 447.9716 562.985 437.3639 569.4207 420.0178 574.8562 412.9043 589.3266 414.4902 606.1265 422.4131 605.8107 434.7054 609.1996 440.6278 616.2802 431.9153 624.4795 421.3141 624.6374 414.2006 620.5509 387.0957 623.1436 368.1045 629.145 340.914 640.5621 329.3521 646.5832 316.5728 657.0067 317.448 661.2182 310.9334 673.2012 311.9205 686.3029 309.9463 693.7718 294.1729 709.1701 289.3692 717.8036 291.4486 721.2255 282.3742 736.9067 272.6153 744.8493 283.6903 750.5875 278.3338 757.1482 254.2295 761.0241 245.7473 773.6652 221.3667 786.8393 221.3009 793.2026 207.5148 800.7241 187.2206 804.4552 172.5857 807.706 158.793 806.8373 155.2922 801.7375 136.9722 801.29 120.521 795.9993 115.5593 788.8595 107.8273 785.7798 88.8295 789.103 84.1179 780.4562 72.3323 774.1851 63.7645 773.5073 60.9546 779.0875 51.5314 780.7721 38.4626 778.4492 14.7005 776.8107 11.6472 763.4786 1 762.3534 1.0658 751.5877 26.5585 747.9422 16.4509 731.4713 26.9994 715.8492 37.7387 718.3695 37.39 705.9588 55.0914 689.172 70.1804 681.1175 86.6843 670.1018 106.4717 648.9061 Z M 94.4689 808.5219 101.4969 811.1278 109.5974 823.2819 117.1716 828.9345 113.3351 836.1533 98.7528 838.3314 91.5735 841.8981 84.006 839.8647 72.4704 848.1956 75.3461 834.9162 87.1844 825.1639 83.5717 813.1414 94.4689 808.5219 Z M 16.1022 737.2028 19.0502 743.7043 10.5483 747.4091 6.7579 739.4402 16.1022 737.2028 Z"/>
</g>
</svg>