<?xml version="1.0"?>
<svg xmlns="http://www.w3.org/2000/svg" version="1.2" baseProfile="tiny" width="800" height="1140" viewBox="0 0 800 1140" stroke-linecap="round" stroke-linejoin="round">
<g id="us-states-31">
<path d="M 741.0593 314.406 662.0495 346.0098 619.9109 419.7522 751.594 456.6234 762.1288 511.9305 704.1881 770.0294 554.0695 962.287 456.6239 1017.594 369.713 1138.7424 324.9407 1059.7326 185.3565 1020.2277 14.1685 914.881 3.6337 843.7723 1 833.2375 27.3369 806.9006 72.1092 748.9603 201.1587 709.4554 209.0593 672.5837 356.5446 593.574 380.2478 551.4354 243.2973 453.9897 238.0299 393.4158 177.4554 377.6136 172.1881 322.3066 245.9309 238.0294 206.426 187.9897 327.5744 87.9109 353.9109 35.2375 417.119 1 638.3467 106.3462 799 174.8217 741.0593 314.406 Z" id="34"/>
</g>
</svg>