<?xml version="1.0"?>
<svg xmlns="http://www.w3.org/2000/svg" version="1.2" baseProfile="tiny" width="800" height="468" viewBox="0 0 800 468" stroke-linecap="round" stroke-linejoin="round">
<g id="us-states-33">
<path d="M 669.5176 1.5703 670.6584 23.2458 664.9542 42.6397 674.6512 61.4631 671.7992 81.4274 659.8206 102.5325 668.9471 131.0529 663.2431 139.609 679.7849 156.7212 676.3624 228.5926 677.5032 237.7191 652.4053 306.168 654.687 310.1608 647.842 388.877 655.2573 397.4331 629.589 408.8413 637.0043 420.8199 681.4961 429.376 690.6226 423.1014 728.8399 423.1014 748.2338 419.6791 780.1766 403.1372 782.4582 415.1158 799 420.2495 760.7827 435.6504 680.3553 458.4668 646.7012 463.03 624.4554 461.8892 607.9135 467.0229 598.787 449.9107 611.336 419.6791 576.5412 404.8484 528.6269 382.0322 524.0636 374.6168 508.0922 374.0465 489.2688 356.3638 491.5505 340.9628 479.0015 328.9842 471.0158 329.5546 459.6076 315.2945 1 315.2945 1 289.0557 1 287.3445 64.8856 257.6833 75.1529 243.4231 95.6876 233.7262 87.7019 216.0436 79.1458 212.6211 72.8713 184.1007 133.9049 172.1222 188.0936 172.6926 209.7691 175.5446 233.1559 186.9528 247.9864 182.3896 293.0486 182.96 320.4282 175.5446 349.5189 156.7212 368.3424 156.1508 368.9128 127.6304 378.6097 111.0886 355.223 99.6804 360.3567 86.5611 401.9964 68.8784 417.3974 53.4774 467.5933 18.6826 514.9371 1 585.6677 3.852 669.5176 1.5703 Z" id="36"/>
</g>
</svg>