<?xml version="1.0"?>
<svg xmlns="http://www.w3.org/2000/svg" version="1.2" baseProfile="tiny" width="500" height="217" viewBox="0 0 500 217" stroke-linecap="round" stroke-linejoin="round">
<g id="ne_50m_admin_0_countries-New Caledonia">
<path d="M 260.232 69.6239 267.0731 73.4324 274.3998 71.8154 283.6278 77.8154 307.1362 96.0049 315.3988 99.8549 320.2438 101.3297 323.9161 104.309 327.2093 108.4965 331.693 111.458 333.6298 114.2182 334.1155 117.9437 335.7325 120.2359 343.9358 126.2655 348.8105 131.5548 355.5923 134.2557 358.5183 137.4126 362.309 138.9526 366.2004 142.1807 372.769 144.6979 387.6594 153.997 399.1619 162.8282 404.8954 168.2892 411.0908 173.152 419.0039 177.0316 426.4195 181.4679 430.1747 191.8628 428.1135 195.5824 423.849 197.4304 419.9042 197.5607 416.2142 198.8164 403.8707 192.1056 400.9329 191.1165 397.6456 191.5311 395.8095 190.0444 394.5183 187.9003 386.9901 185.4067 379.9773 181.4087 377.9457 178.696 376.767 175.3198 375.0908 173.3712 365.1994 170.4215 358.5538 167.1343 353.7266 162.4965 346.228 159.2744 334.5479 152.6525 328.542 150.5321 323.2883 147.2211 309.227 135.1737 304.2103 132.9289 299.8332 127.5745 287.7266 114.8697 281.8924 109.6397 275.537 104.9842 270.6742 99.535 266.9368 93.0731 258.2537 83.8213 257.1876 79.8648 257.5489 75.8016 255.458 73.1895 251.9042 71.5962 250.2221 68.8657 250.4176 65.1816 251.5785 63.2804 260.232 69.6239 Z M 462.9348 213.8016 461.0099 216.0997 458.6288 215.6259 456.8282 214.767 455.5133 213.5173 456.8105 208.8381 462.0286 211.1303 462.9348 213.8016 Z M 2.4274 12.9526 1.4975 14.2498 1 4.619 2.9191 1 3.843 8.4985 2.4274 12.9526 Z M 491.229 141.4284 494.078 142.5479 499 142.3524 497.8865 152.6999 490.9566 154.3583 488.5518 154.2636 487.0059 152.0898 483.0375 150.6565 483.233 147.1086 479.3712 139.1658 486.076 137.9635 489.8667 135.843 489.6535 137.7739 490.2399 140.0306 491.229 141.4284 Z M 402.4255 97.077 399.1974 97.6752 403.0948 92.1254 403.2073 88.7315 404.771 82.0207 404.5933 79.77 407.152 80.0661 409.9477 82.003 406.7374 83.6614 405.6713 86.5637 405.7838 90.2004 407.0217 90.8638 404.9783 94.844 402.4255 97.077 Z M 454.228 125.0928 450.9112 125.5844 446.4867 121.2192 438.0346 119.0276 434.3208 115.1836 431.8983 110.6525 436.69 109.5331 441.4047 103.4324 438.1885 101.1639 432.6446 100.7611 433.2962 98.3801 442.2873 95.5489 446.2261 97.1895 447.9852 99.1264 447.7127 108.769 451.7996 111.8371 456.0286 118.7019 456.0109 120.6269 454.228 125.0928 Z"/>
</g>
</svg>