<?xml version="1.0"?>
<svg xmlns="http://www.w3.org/2000/svg" version="1.2" baseProfile="tiny" width="422" height="400" viewBox="0 0 422 400" stroke-linecap="round" stroke-linejoin="round">
<g id="ne_50m_admin_0_countries-nicaragua">
<path d="M 421.3504 2.3963 418.7579 5.8121 415.9106 8.0499 409.9523 19.1887 407.8919 20.1848 407.4871 11.9478 403.944 10.8698 399.7869 13.7989 397.4854 18.0198 401.1059 23.5369 404.2851 23.6142 408.1512 25.1288 418.535 63.2209 416.3018 70.0161 409.8659 80.5909 403.7393 89.592 397.6173 95.2274 390.0307 119.2288 383.1764 158.2124 388.1022 193.2708 385.6098 225.6548 387.7748 233.3096 388.4297 242.8383 383.372 244.553 380.5157 244.2664 377.6002 238.4128 377.9277 233.2686 380.9523 227.233 382.1758 219.0552 380.7522 214.7752 377.773 224.1083 372.5288 228.2791 369.1085 229.7209 365.7655 234.4421 369.3086 243.3113 373.8615 249.8017 375.3579 254.4592 373.6841 260.0036 372.6425 278.9337 371.0324 278.4061 369.3678 275.8499 364.5602 275.6771 363.9871 283.3046 364.3601 287.5664 360.2757 290.8502 358.8111 294.1432 362.1587 296.4583 365.8474 297.8456 370.3911 297.5408 374.1435 306.9194 375.3124 314.5424 366.6297 321.5786 363.6824 327.405 358.7656 334.464 356.0003 341.4047 355.1816 346.3988 358.5382 362.1905 364.492 373.393 369.5087 380.5111 376.2221 382.0575 374.6438 389.5441 369.6134 394.2925 360.4622 398.2632 350.3922 399 333.9137 395.2431 327.1913 394.8065 324.5623 392.8188 323.78 389.1302 319.068 383.5949 310.4307 376.2221 305.4412 376.7269 297.3089 375.1259 283.8004 370.1 277.5601 369.486 268.5999 373.7978 258.1843 379.4423 233.0549 370.6276 215.412 364.4328 199.5429 358.8566 195.3084 356.7007 191.8426 357.1646 188.8362 360.0892 185.4022 365.2697 184.2742 366.7525 182.4458 368.1761 180.39 368.5627 180.3081 366.0975 172.5487 355.8365 160.1955 343.4833 112.8976 305.5777 95.5139 282.918 86.1899 266.6077 77.307 258.1206 51.7637 240.7597 45.8736 233.8463 20.5623 210.6317 1.2456 197.0322 1 191.2468 8.9277 184.015 12.8165 184.3515 17.0419 189.523 23.8962 195.3948 27.13 195.4403 31.8876 192.7113 32.0104 189.9823 57.913 188.8453 62.5568 187.3216 67.2553 183.0462 69.6522 177.1015 70.057 171.3388 71.044 167.2226 75.2057 163.2246 82.7877 161.9875 88.6414 161.5599 90.3743 158.8582 88.6141 150.1164 85.453 128.8758 84.7935 122.963 85.876 118.5466 88.2366 116.9319 99.7302 115.8722 121.462 117.6596 125.6738 116.3179 134.3838 104.2649 142.4889 95.4048 148.2607 91.4341 152.8135 90.2288 158.085 98.0974 176.442 109.3908 179.544 108.6813 181.3587 108.0627 181.9364 106.4435 181.6135 101.2493 186.2027 96.5236 195.7178 92.271 205.2874 84.7753 214.9071 74.0459 223.2532 67.7328 230.3168 65.8544 233.0048 62.9207 231.3219 58.9455 231.8859 53.2965 234.6968 45.9828 238.7994 41.7483 244.1937 40.5976 246.3223 38.2962 245.1943 34.844 246.245 31.0416 251.1071 24.8104 262.7235 19.4707 269.364 21.2764 274.8948 28.4491 282.7042 33.3203 292.7924 35.8992 300.6246 34.9395 306.2053 30.464 311.2221 29.104 315.6795 30.8733 318.0355 29.8681 318.2857 26.1067 320.5917 25.238 324.9535 27.271 328.8286 27.7941 332.2171 26.8071 333.5316 24.9787 334.2139 23.0911 336.7427 21.6766 345.4573 23.073 355.2361 20.8943 366.0748 15.1407 373.2748 12.5982 376.827 13.2622 381.0887 10.3604 386.0464 3.8927 397.3626 1 421.3504 2.3963 Z"/>
</g>
</svg>