<?xml version="1.0"?>
<svg xmlns="http://www.w3.org/2000/svg" version="1.2" baseProfile="tiny" width="500" height="402" viewBox="0 0 500 402" stroke-linecap="round" stroke-linejoin="round">
<g id="ne_50m_admin_0_countries-Nigeria">
<path d="M 193.4564 395.3045 189.4163 396.5772 186.769 396.2656 190.3937 390.7512 192.2305 391.9363 194.5886 392.4251 193.4564 395.3045 Z M 456.4279 8.0173 462.9809 16.9854 470.0226 26.6215 475.5126 34.1275 479.5202 53.5503 479.9478 57.2504 480.2533 58.9182 480.5547 60.4556 481.08 63.1008 484.2242 64.2392 490.1703 64.7544 494.4874 66.6685 497.0736 69.8453 497.3261 70.3727 498.6905 72.8102 499 74.5737 498.6253 79.6646 497.7578 86.2033 496.2754 90.4206 497.1021 96.1571 496.8415 98.6068 496.1898 100.2807 493.5344 102.2051 489.9219 104.0805 481.2837 109.6276 478.8197 110.4462 475.2112 110.5928 472.0712 111.9755 468.3446 114.969 460.3295 126.1017 453.467 137.2814 451.0967 146.5325 448.429 155.3663 442.3973 161.007 441.5584 164.1817 441.3058 166.0225 441.0981 170.2724 440.365 177.3142 439.4283 180.7088 438.459 181.7147 431.9508 183.855 428.1998 186.4432 425.9558 191.5626 425.1331 197.0994 423.8176 203.4101 423.0723 208.949 422.0582 211.8162 419.9281 214.828 416.6089 218.076 413.7376 219.8965 406.2642 221.0878 402.4195 228.4207 399.1695 234.151 399.0758 236.4419 395.9398 248.3241 390.4864 257.278 390.128 260.4384 390.1036 263.0347 383.2818 270.9175 381.4776 273.2389 379.7345 276.2752 381.4532 279.2075 383.3795 281.8751 383.6565 282.7752 380.5531 285.286 375.1527 289.65 371.923 292.2647 371.2103 293.6921 370.7378 300.2553 369.797 302.0168 367.6466 304.4197 364.4862 307.067 361.2688 309.1216 357.6277 310.5451 354.1252 311.0704 352.1703 310.2457 351.0544 308.2521 349.0872 300.2289 348.0935 298.5102 345.8209 296.9483 341.3287 292.5599 336.7876 288.1186 331.3098 284.9989 330.1369 285.2229 329.2287 286.068 327.6729 290.5297 326.1415 292.1649 323.2581 292.7289 318.2486 292.7697 314.5954 292.1506 313.7645 291.2668 313.0233 289.3323 312.0133 287.7786 307.6473 290.9084 300.7807 295.8344 298.5489 296.6408 296.8465 297.6325 294.582 302.2265 291.8452 307.1484 288.2612 309.7163 284.7668 311.8748 282.763 313.7625 279.8917 316.0045 274.2795 321.5719 266.8305 328.9558 264.2036 332.7658 261.6134 338.4676 260.1024 344.7783 258.4489 351.6979 256.0215 362.8042 252.462 369.0843 249.33 374.0836 247.0208 378.0117 245.799 381.2475 245.294 381.1396 244.0884 382.5202 240.6063 381.6222 239.0342 378.8059 236.8838 378.3477 233.1573 374.2098 232.3672 374.8981 236.2973 385.3813 234.8393 389.4886 223.8063 389.5823 214.3087 390.963 207.7801 390.8347 204.5016 389.3502 203.0476 385.42 202.4897 385.8252 202.1598 387.9328 200.0909 389.5884 192.7722 389.904 189.5344 387.2181 186.9115 384.2145 184.1054 382.8766 184.5371 384.1411 187.7587 387.0715 187.3636 391.2908 181.4704 396.174 177.7113 396.4509 175.402 394.3474 174.2046 390.912 173.6019 385.8334 172.0542 382.5202 171.2234 382.5202 171.9891 385.5523 172.2457 388.0286 172.2823 393.1785 175.0884 397.1739 170.7795 398.416 169.0323 398.4629 165.6071 398.5545 164.9514 397.072 164.2957 393.7609 163.3956 392.8934 162.3367 398.5056 160.0601 398.9007 158.4799 398.8498 151.711 400.0716 150.2041 399.8394 149.8824 398.7948 150.6888 397.2431 150.5096 394.7221 148.1596 396.6668 147.7808 400.5542 146.4368 401.1753 142.4008 400.6234 137.9859 398.6237 135.3061 396.5731 130.8098 393.7283 122.0168 385.7519 120.5914 382.1659 118.0744 377.7633 116.1928 373.2975 113.4885 365.6591 114.3194 365.1053 116.3598 365.761 117.3535 364.6226 113.6962 363.7918 112.9346 362.906 112.6903 360.2261 112.8491 356.9537 115.8222 355.8032 118.3921 355.2493 119.6831 353.2577 120.4284 351.2621 113.5944 354.284 107.1962 350.863 105.8115 348.7879 106.5038 347.1975 109.5584 346.9552 113.9284 347.0794 116.5471 345.5277 114.9384 344.986 112.112 345.0451 111.0693 344.0167 111.1549 341.5323 110.2385 342.0822 109.0248 344.2835 104.7118 345.9024 102.1908 344.2835 101.9342 340.673 101.3844 339.048 99.2584 337.7793 91.7076 328.237 82.2223 320.2768 73.7877 314.797 61.0482 312.1782 34.3882 312.28 32.8935 311.5245 34.5266 310.264 36.8684 309.423 45.4415 304.9858 43.9957 304.3973 35.0846 307.1749 32.0341 307.4396 28.0877 312.781 4.6044 313.6648 1.8512 313.9356 1.9164 311.4981 3.0689 304.491 3.8224 301.7358 4.694 299.6526 3.7898 297.154 2.906 293.7675 2.4743 288.4526 3.574 286.8031 3.9486 284.7973 3.6921 281.6573 3.688 271.1537 4.3274 270.0093 5.0849 269.1377 5.1338 267.7428 3.7084 265.0304 2.3888 261.929 2.4336 257.4734 1.9041 253.1564 1 251.1913 1.6801 243.8482 2.063 234.54 1.7127 230.4184 2.568 227.4962 3.0282 220.318 2.9549 213.2905 4.7021 202.1964 9.8419 201.6609 15.9672 200.7242 18.7 196.3684 20.268 190.8498 19.7712 185.3863 20.9604 183.5902 23.4122 180.6314 27.8352 176.4019 27.656 171.7549 28.8778 170.3233 30.9752 169.2461 33.9768 168.6922 37.3327 166.3809 39.2021 162.3266 41.0308 155.8367 38.1391 151.3241 38.1962 150.3181 39.2876 147.8908 41.0593 145.4594 42.4644 144.6754 45.7266 145.3046 46.2805 145.0989 46.7814 144.3373 48.8952 137.1836 48.6956 135.2511 45.6574 130.4555 45.1605 127.0487 44.7125 121.9822 43.9713 117.492 43.0916 115.7937 41.4625 114.3642 40.7375 113.4356 34.437 104.3208 34.5511 99.9915 37.1943 94.4587 38.9252 91.7728 41.3321 90.2903 41.8168 89.0135 41.0919 87.4618 39.8863 86.2909 39.6094 83.8065 39.9556 82.153 40.8108 80.3427 40.4728 76.5388 40.542 70.6985 40.9452 62.2048 41.0633 57.004 46.1746 53.1593 53.6236 46.7835 57.4153 40.1266 59.4435 35.0887 61.9523 18.3131 63.7565 17.295 65.8988 16.5048 73.3722 10.3978 79.1311 8.1334 83.5255 6.824 90.1356 5.7162 94.2368 6.1601 101.7102 6.4269 107.5912 5.8221 112.5844 2.5008 114.8447 1.5702 118.0215 1 132.4593 5.482 146.893 9.7238 149.5158 9.3348 151.711 9.9274 155.3194 12.2285 160.6466 17.1585 163.8111 20.3393 165.3383 22.2107 172.7507 32.9118 175.5161 35.5978 178.2937 37.0599 181.1242 37.5873 183.2787 37.3938 185.3354 36.1883 188.1293 33.8017 192.369 32.7204 195.8349 32.9322 213.8037 23.3104 215.5468 23.1841 220.7721 23.9416 226.5798 25.2592 241.6367 34.9135 253.92 41.2324 262.5542 43.3461 272.7278 44.8469 290.0084 45.299 303.0777 31.7613 307.908 28.8045 313.7279 26.1368 315.6013 25.6827 325.8727 23.6301 346.0164 21.9073 364.9098 22.6547 368.6282 23.2004 376.6473 24.9863 389.0203 29.4032 394.3555 33.6306 402.7413 34.3291 408.7526 33.4922 410.7116 29.2973 416.7433 23.7828 421.1296 21.5387 425.7888 18.6756 433.1604 15.1099 439.2247 13.5033 444.6455 9.4244 448.9463 8.1354 456.4279 8.0173 Z"/>
</g>
</svg>