<?xml version="1.0"?>
<svg xmlns="http://www.w3.org/2000/svg" version="1.2" baseProfile="tiny" width="500" height="375" viewBox="0 0 500 375" stroke-linecap="round" stroke-linejoin="round">
<g id="ne_50m_admin_0_countries-Niger">
<path d="M 424.7117 310.3181 419.0571 310.4073 415.8066 311.3816 411.7096 314.4644 407.1262 315.6787 401.5547 318.3736 398.0333 320.5376 394.7181 322.2336 390.1594 326.4015 388.6788 329.572 384.1354 330.2045 377.7975 329.6766 373.7651 326.4815 364.4136 323.1432 358.3527 321.7934 355.5424 321.381 341.2628 320.8161 326.0382 322.1182 318.2751 323.6696 316.8592 324.0128 312.4605 326.029 308.8098 328.2637 298.932 338.4955 285.8713 338.1539 278.1821 337.0196 271.6564 335.422 262.3727 330.6462 250.9927 323.3495 246.6033 322.3537 242.654 321.7811 241.3365 321.8766 227.7557 329.1487 225.1362 328.9886 221.9318 329.8059 219.8202 331.6097 218.2657 332.5208 216.6374 332.667 214.498 332.2684 212.3987 331.1634 210.3087 329.1333 204.7064 321.0455 203.5521 319.631 201.1604 317.227 197.1342 313.5009 194.4069 311.7617 192.7478 311.3139 190.7654 311.6078 179.8564 308.4019 168.9444 305.0144 166.5434 305.4453 164.835 306.1487 161.0612 308.6589 156.6163 309.116 150.9679 308.9144 147.8682 308.5789 142.8724 309.4162 139.551 310.4058 135.1985 312.1173 129.5501 316.733 127.931 317.3301 126.5674 318.0997 124.6712 330.7786 123.1383 334.5863 120.2725 339.6175 114.6426 344.4364 110.7795 347.3422 110.6902 351.273 110.3855 357.6925 110.3331 362.1066 110.5886 364.9816 109.9422 366.3498 109.6806 367.5995 109.8899 369.4772 110.801 370.3622 111.3489 371.535 110.9826 372.5 109.1634 373.6204 107.1565 370.747 104.5739 368.7138 101.742 367.815 99.8243 366.3436 98.8239 364.3028 95.1116 360.3258 86.5544 352.4565 85.674 352.2688 84.2581 351.9486 81.8386 352.9013 80.3519 354.188 79.3145 354.6928 77.7385 354.7698 73.6692 355.764 70.4125 357.0522 70.3263 358.108 71.8839 364.0689 71.142 367.2917 69.6984 365.7496 65.0042 359.7456 61.7567 355.2854 61.1749 354.2957 60.7163 352.7643 61.0364 352.0964 62.3231 351.6331 65.2997 351.0421 65.8537 350.5804 66.0076 349.3568 65.5428 347.0759 63.9114 343.987 62.1723 341.9431 61.2026 341.5429 59.4235 341.4721 57.4935 341.7492 53.8612 344.2563 52.2514 344.7165 48.5083 344.5103 45.1624 344.0193 43.1308 342.7249 37.0853 337.7506 30.4057 332.4916 27.6045 331.7451 26.955 331.2065 26.5056 327.1571 26.6226 322.2983 26.992 321.027 29.7777 321.7858 32.742 322.1382 33.6962 321.2578 31.326 319.5295 27.9185 317.7795 26.6534 315.1292 25.6714 314.2089 24.1385 313.27 22.384 312.7821 20.611 312.0372 19.4043 311.2661 17.4127 310.9229 15.3196 310.355 12.2999 306.0579 9.3634 301.8855 7.6242 298.5995 7.0209 296.6249 7.892 293.2589 7.0116 291.9276 3.7334 288.5109 1 285.3342 1.668 280.4261 2.2251 276.3321 2.259 273.7403 2.6899 272.2766 3.0439 270.6314 4.8569 270.1112 9.4834 270.1481 18.487 270.9084 25.6992 270.0496 26.0962 269.8988 31.1783 265.5108 36.8175 260.9044 45.2947 260.4565 54.443 259.9763 61.6551 259.7347 72.1393 259.3868 80.6135 259.0883 90.4298 258.7389 90.7283 256.6165 91.3224 256.0948 92.292 256.0209 99.5073 257.1583 106.2915 258.2541 106.8025 254.2586 112.7618 249.2597 116.1324 248.2408 116.9666 247.3682 118.0378 245.6798 118.6996 243.0726 118.992 241.218 120.2479 239.6789 121.1652 236.8455 122.3841 231.8912 125.7393 226.6906 127.657 219.6278 127.9433 212.8066 128.3127 207.6214 129.3131 206.5595 129.2823 197.3542 129.2515 188.0951 129.2269 180.2674 129.193 170.5296 129.1653 161.9831 129.1345 152.724 129.1099 144.4114 129.0914 138.9046 135.965 137.5887 143.0755 136.2251 153.4797 134.2304 164.7427 132.0726 177.0245 129.7178 179.8072 128.3019 189.0755 120.3325 193.2588 116.7342 201.5698 109.5851 207.9877 104.066 216.1418 97.054 224.7791 89.9942 231.6619 84.3642 242.4878 77.9817 258.8112 68.3594 275.1347 58.737 291.4551 49.1147 307.7755 39.4908 324.099 29.8685 340.4225 20.2462 356.7429 10.6223 373.0663 1 389.4852 4.663 405.0823 8.1429 420.7686 11.6443 424.4685 13.5558 432.7919 20.4093 443.4454 29.1836 443.9133 29.3114 444.3935 29.3498 454.6345 24.1785 467.9752 17.4404 467.9783 17.4435 471.4443 35.657 474.07 51.3002 474.2454 61.2688 474.3716 63.8668 475.4428 65.6306 477.8961 67.3928 487.7832 81.8017 485.6716 84.3073 487.146 88.7706 489.7101 90.6914 497.9319 99.281 499 100.9725 498.5475 102.3284 492.7914 112.434 491.8094 114.9088 490.6613 127.7955 489.8517 136.8869 488.7374 149.3673 487.4107 164.301 486.3395 176.903 484.9267 193.5696 483.5907 209.3329 475.3259 217.9856 460.6554 233.3441 448.7183 245.8414 442.7374 254.2063 431.0404 270.5544 425.8475 281.1248 421.7905 286.6486 419.7282 289.008 421.5412 296.7696 424.7117 310.3181 Z"/>
</g>
</svg>