<?xml version="1.0"?>
<svg xmlns="http://www.w3.org/2000/svg" version="1.2" baseProfile="tiny" width="500" height="417" viewBox="0 0 500 417" stroke-linecap="round" stroke-linejoin="round">
<g id="ne_50m_admin_0_countries-North Korea">
<path d="M 317.3023 344.7004 314.5402 345.9242 309.814 352.5301 305.4024 360.9199 301.1212 365.4504 296.2185 367.9631 290.9322 369.4401 280.4287 370.0769 270.9533 369.5053 267.8767 368.5999 254.8336 369.1293 251.1585 369.7201 232.4072 369.0679 222.6249 369.7546 216.4026 371.3773 210.0652 374.7839 204.5947 379.886 199.7918 385.3488 190.0018 395.3344 183.1274 400.1872 183.1044 407.1998 182.9509 409.3365 180.5418 410.8211 179.7055 410.1651 175.7389 409.6434 159.8033 403.237 146.6988 407.1537 143.392 412.2444 139.9088 413.8786 134.6915 403.9083 126.1598 403.6052 112.6027 394.8319 106.7793 396.6119 105.2986 400.145 97.864 408.2125 87.4756 414.876 84.1228 415.7545 80.2866 415.3018 80.839 413.4604 76.5885 405.976 60.1849 402.9454 54.2771 399.7614 51.2926 399.067 67.3509 390.7118 71.5554 389.2157 68.4174 387.2745 64.9494 386.3232 51.7836 387.5661 44.8708 384.8309 34.8506 385.7055 27.8918 383.5304 42.3159 375.344 42.9603 370.5065 42.7916 366.8391 50.111 355.9597 57.4688 349.9407 76.5041 341.4051 84.8056 340.2236 90.8131 340.5611 95.7388 339.7671 90.5676 336.5024 85.5038 335.0025 75.6601 335.3094 65.4405 330.3952 64.5351 325.2087 84.3606 292.459 84.6368 289.4822 81.5295 281.5182 80.5244 273.7422 66.3228 269.2731 60.0391 268.736 41.7941 259.978 34.5207 255.5587 31.6589 256.8591 31.1372 263.8755 28.5439 265.433 23.7563 266.791 21.3472 258.7887 17.4036 253.0037 5.3349 247.1152 1 243.8659 3.0792 236.8533 2.0588 236.2319 3.9846 228.36 11.4038 222.2796 29.5797 211.4692 34.2598 206.4016 43.4821 200.4248 47.6405 200.5552 51.9294 200.0373 53.226 197.4364 54.2158 195.3917 57.9062 193.5388 66.7831 190.2435 76.88 185.9048 84.9284 184.7041 94.8027 178.2094 98.8307 175.3514 102.8588 175.3514 103.9636 174.0202 106.25 170.6597 109.3956 168.4578 113.7689 168.0396 120.9119 166.4514 129.8809 165.477 135.9882 160.022 138.0597 156.1244 142.0954 151.8355 150.6655 147.1592 156.5655 140.254 163.0947 132.7389 166.2097 130.3413 169.271 129.8541 171.0894 127.0306 173.1763 119.0513 176.1762 111.2907 177.9792 107.6271 185.4982 103.626 187.4316 101.6887 189.1195 101.0366 192.6258 101.5583 197.306 99.2182 201.7253 96.6211 205.7533 97.5303 209.8503 99.6862 214.1239 103.9828 216.0113 107.4046 219.3948 110.2626 220.047 114.4172 223.4228 116.2394 230.5812 117.1448 242.3276 119.9759 249.9233 120.137 254.2582 122.2584 263.3346 123.4169 281.4798 121.7559 288.8991 122.7341 292.0141 125.3312 296.6098 127.4028 299.6097 127.5217 303.607 123.9655 307.8959 118.1882 310.727 113.7689 310.5966 110.2626 308.1261 106.4955 302.1493 102.9853 298.2364 97.5571 294.4846 91.9448 292.2749 90.1226 290.4566 87.395 290.1266 83.2213 291.4233 80.4016 300.4537 78.5066 312.0544 77.4056 321.4377 78.5756 337.1124 77.7815 346.7182 76.224 353.8536 76.4465 360.4211 76.4158 363.3443 74.0144 372.5052 68.2332 376.9398 66.1809 381.7965 62.2564 382.5714 58.1632 383.5458 54.8526 386.2771 51.3041 391.0801 46.927 395.1771 44.913 399.7192 45.1738 404.5298 47.184 407.5834 49.198 411.0283 48.6149 413.8824 45.1738 415.7698 44.514 421.2633 44.2109 422.9819 42.101 425.0841 31.9811 427.2017 23.9942 427.6544 18.4087 432.5494 9.1634 434.0838 3.5971 437.007 1 440.3829 1.1956 443.191 2.8299 446.751 3.7928 451.4925 2.8836 454.807 4.3106 456.8862 7.299 463.8834 9.3552 464.5509 10.8629 464.3821 20.9022 468.226 25.6054 473.3435 29.8559 480.3791 33.7189 484.1462 34.5974 486.4019 37.3557 488.5348 42.1241 493.5526 46.7659 496.1919 50.1532 496.6983 53.6672 499 55.6505 495.0104 57.8256 489.7241 56.5021 480.9468 55.7157 469.7298 62.5978 463.5228 65.0262 459.1342 71.8009 450.3647 75.8251 445.5771 80.1139 439.3625 87.5331 435.2884 94.6992 425.859 102.0263 420.3579 111.2408 420.051 119.1473 426.0662 127.2263 426.6033 134.1123 422.3834 148.2678 424.7312 163.3057 422.1149 169.1943 393.236 179.4868 385.694 184.6158 375.0601 197.9696 362.1321 202.9337 354.0991 208.3849 342.9741 211.6035 335.8541 221.0022 328.036 226.3191 318.7447 229.5607 311.7935 233.7268 296.2262 233.9915 285.247 236.8955 277.4288 244.7252 253.9436 253.6789 250.7442 260.4575 252.3017 270.8996 252.4322 278.8904 250.3836 285.4657 245.2431 283.6128 242.4811 285.7649 239.4351 291.8491 240.3021 298.7811 248.3504 301.0138 254.9487 303.8602 264.217 305.2911 271.0684 308.5059 285.646 323.1295 297.5382 329.5397 300.6378 331.9182 307.4663 335.1329 313.7576 340.1852 317.3023 344.7004 Z M 44.7327 272.9827 40.3057 275.2384 40.0832 271.2065 43.4974 267.8115 47.0344 267.3626 44.7327 272.9827 Z"/>
</g>
</svg>