<?xml version="1.0"?>
<svg xmlns="http://www.w3.org/2000/svg" version="1.2" baseProfile="tiny" width="500" height="3424" viewBox="0 0 500 3424" stroke-linecap="round" stroke-linejoin="round">
<g id="ne_50m_admin_0_countries-Northern Mariana Islands">
<path d="M 406.4035 33.2771 384.3397 60.4298 365.6923 40.4656 360.5678 1 393.094 4.7722 405.1223 12.886 406.4035 33.2771 Z M 409.108 1799.4796 393.1652 1804.5685 369.8915 1801.8995 353.664 1790.4406 350.0342 1771.1526 397.0086 1769.9427 414.5172 1784.4265 409.108 1799.4796 Z M 83.1341 3389.0299 47.0492 3423.1219 20.9997 3416.0757 4.8434 3404.4745 1 3385.0086 59.5045 3366.1832 83.5611 3372.9091 83.1341 3389.0299 Z M 456.7942 531.4551 421.4922 547.5046 465.335 475.7263 478.5732 463.1642 499 489.3204 456.7942 531.4551 Z M 438.1468 2678.3995 436.1539 2697.296 399.0014 2692.7053 388.8236 2684.2713 409.891 2618.5427 463.1998 2588.2228 489.1069 2582.0307 464.8368 2613.1691 460.2817 2648.1864 438.1468 2678.3995 Z M 372.8096 2796.9387 342.7033 2834.0912 321.2801 2776.2984 317.7215 2752.9891 345.4791 2731.6015 361.9201 2732.0998 372.8096 2796.9387 Z"/>
</g>
</svg>