<?xml version="1.0"?>
<svg xmlns="http://www.w3.org/2000/svg" version="1.2" baseProfile="tiny" width="800" height="256" viewBox="0 0 800 256" stroke-linecap="round" stroke-linejoin="round">
<g id="us-states-34">
<path d="M 784.7771 4.5556 795.4443 41.6365 769.5385 38.0808 765.9828 42.6524 734.4894 48.2399 729.9179 53.3196 709.0916 54.8434 710.1075 61.4469 735.5054 56.8752 739.0611 60.9389 766.9987 56.3672 776.142 65.0025 792.9045 61.4469 799 83.7969 793.4124 94.464 782.2374 95.48 758.8714 118.338 727.886 119.3539 722.8065 135.1006 736.0133 150.8472 746.6804 153.895 726.8701 179.8008 710.1075 176.753 680.6461 179.2928 660.3278 184.8803 628.3265 202.6588 602.9287 226.0248 589.7218 255.4863 570.4195 248.8829 536.8943 254.9784 431.7473 166.5938 327.6161 165.07 329.14 154.4029 314.9172 138.6563 305.2661 144.2438 304.7581 134.5926 190.4678 130.021 165.07 133.5767 145.2597 142.2119 113.2584 148.3074 66.0184 149.8313 1 149.3233 3.5397 127.4812 21.8262 125.4494 28.9376 110.2107 51.7957 96.4959 77.1935 95.9879 100.0515 81.7651 123.9255 76.6855 144.2438 55.8593 156.9427 49.7638 159.4825 58.907 196.0554 41.1286 212.8179 44.6843 224.5009 27.4138 241.7714 22.8421 245.8351 1 310.8535 3.5397 374.3482 5.0636 446.986 5.5716 784.7771 4.5556 Z" id="37"/>
</g>
</svg>