<?xml version="1.0"?>
<svg xmlns="http://www.w3.org/2000/svg" version="1.2" baseProfile="tiny" width="500" height="524" viewBox="250 0 800 1124" stroke-linecap="round" stroke-linejoin="round">
<g id="no-all">
<path d="M 46.7241 772.2069 50.2414 774.069 48.8966 779.6552 40.1034 780.1724 38.6552 777.3793 41.3448 772.3103 46.7241 772.2069 Z M 60.5862 769.1034 52.8276 776.0345 50.8621 767.2414 56.5517 762.2759 60.5862 769.1034 Z M 90.8966 730 95.3448 730.1034 93.4828 736.6207 89.8621 733.7241 90.8966 730 Z M 123.8966 718.3103 117.8966 724.1034 113.1379 721.1034 117.069 714.069 119.6552 718.1034 123.8966 718.3103 Z M 143.0345 708.069 136.8276 709.3103 133.6207 706 139.2069 701.0345 143.0345 708.069 Z M 154.1034 701.2414 156.8966 706.8276 151.6207 708.069 146.0345 702.069 151.5172 698.1379 154.1034 701.2414 Z M 168.069 704.5517 158.6552 704.8621 154 697.3103 162.2759 695.2414 160.1034 689.6552 165.5862 686.7586 177.4828 688 179.3448 680.8621 199 670.1034 202.931 677.9655 202.7241 680.7586 208.2069 687.7931 220.5172 684.7931 230.5517 687.6897 234.6897 685.931 238.6207 688.8276 241.4138 686.4483 233.9655 678.1724 237.069 671.9655 247 664.3103 250.1034 665.4483 254.4483 660.5862 262.4138 657.4828 260.6552 653.5517 249.1724 650.4483 253.7241 645.8966 261.2759 642.7931 254.9655 638.5517 244.4138 645.7931 243.3793 649.8276 247.7241 652.8276 242.5517 663.3793 232.931 667.7241 231.8966 670.7241 224.7586 675.6897 216.8966 678.5862 208.931 682.5172 203.7586 673.6207 202.6207 666.2759 193.4138 668.3448 193.6207 659.4483 197.8621 655.931 212.4483 648.1724 215.1379 644.2414 210.3793 638.2414 210.6897 631.8276 216.2759 630.3793 216.2759 625.4138 224.3448 620.1379 226.3103 613.2069 231.7931 611.9655 232.4138 608.7586 236.1379 607.931 244 596.8621 255.7931 605.1379 258.7931 609.2759 263.5517 595 260.1379 589.931 259.2069 584.1379 264.5862 579.1724 274.5172 576.1724 270.3793 570.2759 261.8966 575.7586 257.3448 576.2759 253.8276 572.0345 259.2069 566.7586 267.2759 564.6897 274 561.2759 273.2759 558.7931 281.1379 555.1724 285.6897 559.1034 286.6207 560.0345 286.2069 555.8966 296.5517 547.931 290.7586 535.3103 295.7241 529.8276 295.1034 523.5172 300.5862 525.7931 301 520.6207 292.3103 516.3793 290.2414 508.1034 295 500.2414 301.931 492.4828 298.7241 490.6207 300.6897 484.4138 304.1034 481.2069 308.4483 482.0345 309.2759 475.3103 299.9655 473.3448 306.2759 467.3448 317.8621 462.7931 320.3448 460.1034 327.4828 457.931 337.7241 458.9655 339.7931 455.1379 334.7241 453.069 328.931 453.8966 323.7586 457.931 319.7241 458.2414 317.5517 453.7931 311.2414 452.1379 310 449.2414 315.3793 444.4828 312.1724 437.6552 316 432.7931 317.2414 426.4828 323.5517 424.2069 327.5862 415.6207 325.931 412.3103 334.2069 411.4828 328.7241 406.4138 331.931 401.2414 341.1379 396.069 346.8276 396.7931 350.4483 382.1034 353.5517 382.5172 363.3793 376.931 373.2069 376.3103 381.6897 379.5172 384.4828 375.4828 369.2759 371.9655 359.9655 376.931 356.6552 374.2414 349 375.5862 356.8621 364 362.1379 351.6897 370 346.931 376.7241 350.7586 373.8276 341.1379 373.3103 335.1379 362.7586 342.069 363.6897 337.3103 360.3793 327.5862 368.6552 325.7241 372.2759 321.6897 382.8276 318.3793 390.069 314.9655 395.1379 309.8966 391.3103 307.931 383.8621 308.4483 380.7586 304 387.1724 299.8621 392.9655 299.9655 393.3793 290.6552 397.8276 296.2414 397.2069 307.931 404.6552 311.7586 406.931 307.1034 401.1379 305.1379 407.5517 296.5517 406.8276 292.6207 399.8966 293.5517 397.3103 287.3448 400.3103 281.5517 406 277.931 413.9655 275.8621 419.4483 277.931 427.1034 277.2069 436.6207 270.069 433.1034 265.931 430.4138 270.069 424.2069 272.4483 421.5172 266.6552 418.2069 271.931 409 273.5862 406.3103 268 409.6207 265.7241 410.2414 256.931 420.3793 250.5172 424 250.8276 427 245.8621 439.2069 233.4483 431.3448 233.7586 432.3793 225.7931 436.931 217.4138 447.7931 209.7586 444.3793 200.6552 448.3103 190.2069 447.069 186.2759 450.8966 183.4828 458.1379 193.2069 463.6207 195.6897 456.069 179.8621 465.7931 176.1379 470.7586 163.931 470.6552 160.4138 475.6207 155.8621 488.9655 152.2414 491.8621 155.1379 497.8621 139.5172 501.5862 137.1379 505.4138 142.6207 505.6207 160.7241 508.2069 166.1034 505.931 168.5862 506.6552 175.7241 505.1034 181.8276 507.7931 183.1724 511.6207 167.3448 510.6897 154.931 516.6897 148 515.8621 141.7931 522.2759 145.2069 526.4138 140.3448 526.8276 129.6897 530.3448 127 535.4138 129.2759 536.8621 134.1379 547.3103 140.6552 545.9655 127.7241 538.8276 122.8621 532.7241 121.3103 529.8276 117.069 523.2069 112.1034 531.4828 103.4138 541.7241 115.1034 538.5172 105.6897 550.1034 101.3448 560.4483 105.6897 570.3793 104.5517 573.2759 114.3793 577.1034 116.8621 579.7931 123.8966 584.5517 123.1724 588.8966 115.931 582.069 116.0345 577.931 112.5172 582.4828 109.7241 578.4483 101.4483 582.4828 88.931 590.7586 75.1724 598.2069 65.3448 598.931 58.1034 609.1724 57.8966 602.9655 52.6207 596.0345 52.7241 594.069 46.931 604.2069 49.5172 601.8276 33.4828 607.8276 36.2759 615.1724 35.0345 620.2414 41.8621 622.4138 36.3793 634.8276 32.3448 634.7241 38.0345 632.2414 46.4138 626.7586 58.5172 625.5172 65.4483 628.5172 76.6207 628.6207 83.2414 624.1724 90.7931 624.5862 96.6897 631.2069 101.7586 633.8966 99.1724 637.8276 81.7931 634.1034 80.3448 643.7241 52.7241 643.5172 45.4828 648.069 31.1034 652.6207 23.1379 656.7586 26.3448 658.6207 32.1379 658.4138 42.069 660.2759 47.1379 660.2759 57.4828 662.1379 70 667.7241 58.6207 674.1379 57.1724 670.5172 52.931 671.5517 42.6897 670.6207 35.7586 674.3448 34.5172 674.1379 23.3448 666.2759 21.6897 667.3103 12.5862 673.4138 12.4828 673.7241 4.7241 682.931 7.1034 689.7586 1 691.7241 8.0345 699.4828 5.4483 701.8621 14.1379 697.6207 24.1724 690.2759 25.3103 695.6552 31.8276 692.3448 34.1034 690.4828 40.931 701.5517 30.069 701.8621 37.5172 694.8276 50.7586 701.0345 49.4138 704.7586 45.4828 707.9655 46.8276 706.931 26.8621 710.1379 13 716.6552 10 721.5172 10.931 728.7586 22.3103 736.5172 15.6897 739 16.4138 742.4138 23.2414 744.7931 15.5862 751.1034 16.2069 756.6897 22.7241 770.1379 28.2069 775.5172 27.3793 781.5172 33.069 784 39.2759 780.8966 42.1724 771.1724 46.7241 768.6897 52.2069 768.5862 58.931 765.5862 63.8966 739.7241 68.0345 725.9655 68.2414 727.931 72.4828 740.5517 77.3448 745.3103 75.1724 755.6552 75.8966 761.2414 85.3103 759.5862 91.6207 761.3448 94.1034 767.2414 92.1379 774.2759 80.4483 780.6897 80.6552 790.6207 78.3793 796.5172 87.8966 799 95.1379 798.3793 99.6897 788.8621 102.1724 780.7931 97.6207 780.7931 113.0345 776.7586 121.5172 772.7241 122.8621 769.7241 127.5172 765.1724 129.1724 763.2069 132.7931 764.6552 146.2414 761.6552 154 758.7586 155.5517 753.2759 150.3793 751.7241 141.5862 757.931 125.9655 758.9655 118.1034 748 103.6207 725.3448 99.5862 723.3793 95.5517 716.7586 94.3103 705.4828 82.6207 698.0345 85.5172 697.6207 88.931 687.8966 101.9655 680.6552 100.8276 671.2414 105.069 670.8276 112.1034 667.2069 123.1724 663.069 125.8621 664.1034 132.7931 662.6552 140.7586 663.4828 149.2414 665.3448 152.6552 664 157.8276 664.931 167.8621 668.0345 178.1034 670.4138 181.4138 668.6552 192.6897 661.3103 195.2759 657.1724 201.4828 658.1034 215.9655 652.1034 223.5172 644.4483 216.7931 634.1034 215.5517 627.1724 211.5172 620.6552 209.5517 616.8276 211.8276 616.7241 218.8621 609.8966 222.7931 602.8621 229.8276 596.5517 225.4828 591.7931 227.3448 583.6207 224.8621 579.069 226.931 575.6552 218.3448 572.3448 216.069 567.5862 208.8276 559.7241 201.1724 548.7586 186.8966 538.5172 186.3793 533.1379 191.5517 532.1034 196.6207 536.8621 203.4483 533.9655 207.7931 524.8621 204.069 522.2759 210.1724 507.4828 213.6897 515.7586 221.5517 517.5172 229.931 515.8621 242.2414 509.3448 252.8966 518.4483 256.7241 512.8621 266.9655 510.6897 268.4138 482.4483 259.6207 470.9655 261.5862 464.0345 256.5172 457.1034 260.2414 456.8966 271.931 460.4138 287.6552 460.2069 290.9655 453.7931 307.1034 435.2759 298.1034 432.6897 303.6897 421.3103 315.4828 420.1724 318.2759 417.2759 337.3103 414.069 344.8621 405.6897 349.7241 404.0345 356.8621 415.4138 373.931 415.7241 385.931 405.069 400.3103 395.1379 424.6207 388 433.931 391.1034 451.3103 377.8621 462.1724 361.2069 465.4828 366.069 488.1379 364 499.8276 363.3793 519.069 364.3103 530.8621 360.6897 536.2414 359.0345 547.8276 337.5172 591.8966 354.5862 602.6552 357.2759 621.6897 351.6897 637 350.2414 637.931 324.8966 632.4483 316 635.4483 305.6552 644.0345 292.4138 668.6552 288.069 673.5172 289.6207 685.2069 282.1724 698.7586 284.7586 705.4828 291.069 721.8276 286.8276 728.2414 289.1034 743.5517 286.931 755.5517 294.4828 775 296.1379 783.8966 291.1724 825.2759 301.2069 836.6552 308.9655 839.2414 319.6207 853.2069 317.7586 866.7586 315.069 871.1034 312.7931 880.2069 306.069 879.6897 297.069 882.6897 296.2414 885.4828 301.4138 903.6897 310.6207 922.8276 310.8276 932.5517 306.7931 940.7241 308.1379 955.1034 305.6552 960.5862 299.5517 968.2414 293.6552 973.2069 282.6897 974.5517 283.2069 980.9655 283.7241 989.0345 281.1379 992.8621 275.6552 995.9655 275.1379 1001.0345 279.6897 1017.069 281.0345 1026.069 275.2414 1052.8621 270.3793 1055.7586 266.4483 1054.8276 266.4483 1049.6552 262.8276 1038.3793 248.7586 1036.2069 243.2759 1030.7241 240.069 1033.3103 233.8621 1021.1034 230.6552 1012.3103 234.3793 1007.4483 233.1379 998.4483 229.2069 987.7931 231.4828 979.1034 235.6207 986.8621 237.2759 978.2759 237.069 974.6552 227.9655 975.1724 226.2069 981.5862 227.5517 990.7931 230.1379 992.9655 230.5517 1000.4138 226 1004.9655 223.5172 1003.4138 222.7931 991.3103 217.8276 990.1724 222.2759 994.931 221.2414 1009.7241 224.9655 1010.8621 224.3448 1018.3103 227.2414 1022.0345 225.3793 1026.5862 220.8276 1024.6207 218.8621 1036.2069 215.3448 1037.3448 211.931 1042.3103 203.8621 1049.9655 197.7586 1049.3448 198.4828 1044.8966 195.5862 1043.7586 190.4138 1035.5862 186.5862 1036.4138 191.2414 1043.2414 191.2414 1047.5862 185.6552 1054.3103 180.3793 1054.3103 179.6552 1063.5172 172.3103 1068.4828 171.6897 1072.4138 164.4483 1078.5172 160.5172 1084 152.2414 1091.7586 150.1724 1095.5862 144.5862 1097.9655 141.069 1105.2069 134.7586 1106.0345 128.9655 1112.8621 124.4138 1117.2069 119.6552 1113.5862 115.5172 1118.4483 104.1379 1119.3793 100.8276 1123 92.7586 1122.6897 87.4828 1120.931 73.3103 1119.3793 66.8966 1117 59.8621 1116.6897 56.3448 1112.2414 64 1104.2759 51.3793 1099.6207 35.2414 1088.9655 34.1034 1082.5517 27.069 1080.3793 23.3448 1077.4828 18.4828 1068.3793 15.2759 1057.8276 17.5517 1055.6552 19.7241 1047.8966 18.6897 1038.8966 20.1379 1035.1724 26.6552 1040.6552 27.1724 1044.5862 37.4138 1042.5172 33.7931 1032.2759 39.8966 1027.6207 44.8621 1017.7931 44.2414 1007.3448 37.5172 1010.6552 36.1724 999.7931 29.8621 1002.3793 34.7241 1008.069 22.6207 1012.7241 18.4828 1015.5172 11.5517 1009.6207 8.1379 998.2414 8.9655 993.4828 13.7241 986.6552 22.2069 983.8621 20.7586 992.0345 17.2414 996.069 22.5172 993.069 24.6897 983.6552 32.1379 984.2759 36.1724 976.7241 29.1379 969.4828 33.2759 967.6207 34.7241 963.6897 42.6897 962.2414 42.2759 958.8276 49.3103 950.4483 48.5862 943 51.3793 941.7586 60.5862 929.9655 53.9655 930.5862 50.0345 939.2759 45.7931 937.4138 41.5517 945.3793 38.6552 956.4483 34.4138 958.8276 31.7241 954.5862 33.5862 951.1724 32.6552 942.4828 26.9655 944.2414 17.1379 944.2414 14.3448 939.2759 12.1724 928.3103 16.931 921.6897 16.8276 916.931 19.8276 913.931 25 921.069 31.5172 923.9655 35.4483 919.8276 37.3103 904 38.6552 899.9655 29.4483 901.8276 29.2414 906.5862 19.8276 911.3448 17.3448 906.1724 6.6897 890.6552 18.6897 893.6552 13.931 888.2759 11.7586 887.5517 11.1379 877.7241 11.9655 871.1034 16.8276 869.0345 22.3103 872.6552 28.2069 874.1034 32.1379 870.4828 40.5172 868.3103 54.7931 868.3103 65.0345 874.4138 76.4138 866.9655 81.7931 867.7931 85.2069 873.069 96.4828 871.931 95.5517 869.0345 88.2069 871.3103 86.1379 867.069 73.3103 861.2759 67.8276 869.8621 62.0345 868.6207 58.1034 863.5517 53.9655 866.1379 48.8966 864.069 33.6897 865.6207 26.2414 869.5517 23.5517 865.4138 19.3103 866.9655 17.9655 857.1379 13.3103 857.3448 12.1724 852.4828 15.4828 848.8621 13.6207 844.3103 22.7241 837.7931 20.0345 832.931 20.8621 827.2414 13.5172 820.7241 15.2759 815.0345 29.8621 807.8966 31.2069 802.8276 23.2414 802.931 30.069 792.8966 29.8621 789.4828 23.0345 785.5517 21.8966 781 26.4483 777.4828 30.8966 786.4828 35.6552 790.5172 35.6552 794.9655 40.1034 788.5517 34.7241 786.5862 35.6552 780.3793 42.7931 782.6552 48.4828 782.0345 55.5172 777.069 58.931 772.4138 69.8966 767.8621 77.2414 766.1034 85.3103 762.3793 84.6897 760.2069 73.5172 763.7241 70.2069 760.7241 79.2069 755.0345 69.069 755.1379 71.5517 748.7241 83.7586 749.4483 88.8276 746.4483 100.6207 747.069 110.4483 752.3448 116.7586 746.0345 128.5517 741.8966 136.2069 742.6207 137.5517 738.3793 121.5172 741.8966 116.8621 744.5862 111.5862 744.6897 109.2069 740.0345 96.3793 740.7586 98.6552 731.5517 95.1379 724.2069 101.4483 720.1724 108.7931 718.1034 116.8621 726.8966 123.2759 721.6207 124 727.1034 134.5517 722.3448 135.7931 713.0345 144.6897 720.1724 147.3793 730.6207 152.9655 728.6552 142 711.3793 144.7931 708.6897 155.9655 710.5517 158.4483 706.6207 167.3448 705.1724 168.069 704.5517 Z M 143.5517 689.1379 136.4138 694.931 129.7931 690.069 128.9655 686.8621 137.3448 682.2069 140.8621 683.0345 143.5517 689.1379 Z M 173.2414 673.7241 177.3793 678.6897 168.3793 682.2069 163.2069 682.3103 155.3448 686.0345 147.2759 683.1379 148.8276 679.4138 157.3103 672.4828 172.6207 668.5517 173.2414 673.7241 Z M 149.1379 666.7931 149.8621 664.1034 156.6897 662.9655 164.8621 658.7241 167.7586 663.2759 164.6552 665.7586 149.1379 666.7931 Z M 22.8276 973.2069 19.4138 976.5172 15.069 973.2069 13.4138 963.7931 16.1034 958.4138 20.5517 962.0345 22.8276 973.2069 Z M 31.1034 952.4138 30.3793 957.6897 23.8621 965.4483 22.1034 956.7586 22.931 952.931 31.1034 952.4138 Z M 9.8966 930.069 9.7931 939.7931 5.2414 937.4138 3.5862 931.8276 9.8966 930.069 Z M 5.3448 974.7586 7.2069 966.5862 9.2759 966.2759 15.1724 976.7241 5.3448 974.7586 Z M 35.9655 903.1724 34.2069 919.6207 27.069 922 20.6552 912.4828 35.9655 903.1724 Z M 7.7241 862.7241 11.3448 865.1034 7.2069 869.8621 3.4828 869.0345 4 861.6897 7.7241 862.7241 Z M 12.1724 802.5172 15.5862 802.2069 25.5172 806.9655 17.1379 810.5862 9.4828 806.1379 12.1724 802.5172 Z M 247 590.4483 253.5172 592 256.4138 597.6897 251.8621 600.3793 247 590.4483 Z M 248.4483 564.4828 254.5517 568.7241 248.2414 573.7931 245.5517 568.7241 248.4483 564.4828 Z M 10.5172 1013.7586 10.4138 1023.7931 5.1379 1021.2069 6.5862 1008.7931 10.5172 1013.7586 Z M 767.9655 83.2414 763.931 91.5172 761.0345 80.8621 765.7931 79.1034 767.9655 83.2414 Z M 554.9655 100.6207 552.3793 97.8276 554.5517 93.069 562.5172 91.3103 568.2069 95.2414 570.5862 101.0345 563.2414 101.8621 554.9655 100.6207 Z M 575.8621 97.2069 567.4828 92.5517 564.5862 85.5172 576.3793 73.8276 581.1379 71.4483 584.6552 79.7241 583.7241 84.4828 575.8621 97.2069 Z M 581.9655 63.8966 588.3793 58.931 594.3793 65.1379 589.3103 75.1724 586 74.9655 581.3448 65.6552 581.9655 63.8966 Z M 562.4138 78.5862 556 77.8621 548.9655 84.5862 543.8966 86.9655 544.931 78.7931 543.069 74.7586 546.7931 68.5517 553.3103 71.0345 559.5172 70.2069 555.1724 62.7586 563.5517 63.1724 562.5172 57.7931 565.4138 54.2759 569.1379 57.4828 570.6897 65.1379 567.4828 73.7241 562.4138 78.5862 Z M 637.1034 22.6207 634 26.9655 625.1034 31.7241 616.7241 24.2759 621.4828 15.069 628 15.8966 637.1034 22.6207 Z M 288.2759 547.931 290.0345 550.931 284.9655 555.4828 282.5862 545.5517 288.2759 547.931 Z M 277 503.6552 275.8621 512.3448 270.5862 510.1724 272.6552 504.069 277 503.6552 Z M 316.931 310.7241 312.3793 316.931 310.3103 311.0345 313.5172 303.3793 317.9655 305.3448 316.931 310.7241 Z M 356.0345 273.2759 354.069 266.7586 362.6552 268 359.8621 273.069 356.0345 273.2759 Z M 283.2069 531.069 289.931 521.9655 293.8621 521.8621 295.6207 528.2759 282.069 542.6552 283.2069 531.069 Z M 302.4483 477.2759 302.3448 480.3793 294.069 486.8966 293.6552 480.2759 297.7931 476.7586 302.4483 477.2759 Z M 300.5862 326.0345 304.3103 313.1034 309.1724 319.7241 305.8621 325.8276 300.5862 326.0345 Z M 324.3793 309.4828 318.6897 309.7931 320.4483 301.4138 319.4138 295.8276 323.2414 291.3793 328 293.3448 330.2759 288.5862 339.1724 293.7586 335.6552 299.9655 328 302.1379 330.2759 305.1379 324.3793 309.4828 Z M 354.5862 293.3448 349.6207 297.8966 340.8276 302.0345 340.5172 298.1034 345.069 294.4828 343.2069 288.8966 345.2759 283.931 353.0345 278.8621 363.6897 278.2414 364.8276 283.4138 357.2759 292.4138 354.5862 293.3448 Z M 406.7241 271.4138 405.1724 276.069 396.1724 278.1379 398.2414 268.4138 402.5862 266.1379 406.7241 271.4138 Z M 372.069 259.3103 364.4138 265.931 358.7241 265.8276 356.9655 258.6897 352.3103 257.8621 350.9655 262.931 345.6897 264.3793 343.4138 258.4828 347.3448 248.4483 352.1034 251.3448 361.5172 248.5517 362.8621 241.6207 360.4828 233.4483 364.1034 230.5517 366.1724 236.8621 369.2759 238.8276 373.3103 252.8966 372.069 259.3103 Z M 378.3793 219.2759 382 217.1034 383.5517 209.8621 389.8621 203.9655 391.5172 207.5862 389.9655 217.8276 383.6552 228.1724 372.7931 234.069 376 222.1724 378.3793 219.2759 Z M 406.7241 262.3103 395.2414 267.1724 392.4483 278.8621 389.6552 274.931 385.7241 276.7931 382.8276 287.1379 379.7241 284.3448 368.0345 287.6552 364.3103 287.4483 371.1379 274.931 369.6897 266.6552 375.7931 263.4483 374.4483 246.2759 379.2069 234.1724 386.7586 233.3448 387.7931 239.0345 386.6552 247.5172 394.1034 250.3103 393.4828 242.6552 399.2759 239.3448 403 240.6897 408.1724 251.7586 406.7241 262.3103 Z M 423.2759 246.1724 415.7241 249.5862 415.5172 245.6552 419.7586 238.2069 423.2759 246.1724 Z M 425.8621 237.4828 428.1379 232.5172 432.069 236.3448 428.5517 241.8276 425.8621 237.4828 Z M 401.4483 230.8621 406.931 232.3103 406.5172 237.2759 401.3448 236.5517 401.4483 230.8621 Z M 513.2759 148.5172 508.931 146.2414 509.3448 141.4828 513.2759 139.7241 513.2759 148.5172 Z M 485.3448 148.5172 480.1724 150.6897 480.5862 143.9655 488.8621 138.3793 485.3448 148.5172 Z M 459.1724 174.8966 449.3448 180.069 441.2759 176.0345 444.7931 171.8966 445.5172 166 448.8276 160.931 457.5172 156.5862 458.1379 154 466.4138 152.9655 468.7931 160.1034 463 165.8966 464.5517 173.1379 459.1724 174.8966 Z M 480.2759 144.4828 476.3448 153.3793 470.7586 156.1724 461.7586 148 460.6207 139 467.9655 136.7241 467.4483 133.3103 473.0345 131.9655 481.1034 137.8621 480.2759 144.4828 Z M 505.5172 114.069 512.5517 116.3448 512.1379 122.9655 508.1034 129.3793 503.4483 128.2414 501.6897 120.069 505.5172 114.069 Z M 484 125.7586 479.8621 119.4483 488.5517 120.1724 492.7931 127.2069 491.1379 130.8276 486.7931 131.5517 484 125.7586 Z M 427.6207 181.8276 433.2069 183.6897 436.8276 176.5517 445.2069 189.1724 446.1379 194.9655 441.3793 198.3793 444.1724 209.3448 434.4483 212.6552 427.7241 213.3793 424 217.6207 412.6207 223.1034 411.8966 217.8276 418.6207 216.069 419.0345 212.0345 414.5862 208 411.6897 198.2759 422.7586 192.6897 427.6207 181.8276 Z"/>
</g>
</svg>