<?xml version="1.0"?>
<svg xmlns="http://www.w3.org/2000/svg" version="1.2" baseProfile="tiny" width="800" height="662" viewBox="0 0 800 662" stroke-linecap="round" stroke-linejoin="round">
<g id="us-states-36">
<path d="M 799 1 799 250.0574 771.5529 260.223 784.7682 280.5542 783.7516 309.0179 758.3377 353.7466 741.0562 421.8562 668.8803 481.8332 645.4994 489.9658 625.1681 477.7669 603.8205 504.1976 582.4727 503.181 559.0917 538.7606 564.1746 560.1085 544.8599 577.39 517.4128 548.9262 482.8498 593.6549 491.9987 622.1186 469.6343 632.2841 462.5185 656.6816 413.7236 660.7479 388.3095 635.3338 366.9617 630.2512 358.8293 598.7376 332.3986 604.837 312.0676 623.1352 241.9249 608.9033 212.4447 622.1186 170.7656 596.7045 112.8216 589.5887 109.772 573.3237 72.1593 534.6943 1 534.6943 4.0497 275.4714 3.0331 53.8612 254.1235 46.7454 326.2994 72.1593 350.6967 87.4077 368.9948 73.1758 409.6573 102.656 435.0713 111.8052 521.4789 87.4077 572.3069 92.4905 627.2013 57.9275 707.5095 24.381 799 1 Z" id="39"/>
</g>
</svg>