<?xml version="1.0"?>
<svg xmlns="http://www.w3.org/2000/svg" version="1.2" baseProfile="tiny" width="800" height="315" viewBox="0 0 800 315" stroke-linecap="round" stroke-linejoin="round">
<g id="us-states-37">
<path d="M 781.6633 1 781.6633 47.4013 799 150.402 793.9009 314.0812 758.2076 303.8831 749.0293 293.1751 725.0638 283.9968 718.945 292.1553 694.9795 291.6454 689.8804 286.5464 667.9546 295.7246 658.7763 290.6255 638.89 295.2147 620.5335 309.492 613.3948 301.3335 594.0185 294.7048 573.6223 294.7048 566.9936 283.9968 543.5379 304.9029 535.8894 293.1751 525.1815 296.7445 517.023 289.0959 495.0971 281.9572 478.7802 294.1949 471.6415 281.4473 458.384 279.9176 450.7354 269.7195 432.8888 265.6402 421.161 274.3086 413.5125 266.6601 395.1559 267.6799 374.7597 259.5214 355.8932 260.5412 349.2645 242.6946 319.6901 241.6748 308.4722 244.7342 287.5661 226.8876 280.4274 227.9074 280.4274 47.4013 111.6492 47.4013 1 47.4013 1 1 90.2332 1.5099 272.269 1 781.6633 1 Z" id="40"/>
</g>
</svg>