<?xml version="1.0"?>
<svg xmlns="http://www.w3.org/2000/svg" version="1.2" baseProfile="tiny" width="324" height="400" viewBox="0 0 324 400" stroke-linecap="round" stroke-linejoin="round">
<g id="ne_50m_admin_0_countries-oman">
<path d="M 277.5035 252.6249 274.9211 253.2454 274.1765 252.9552 274.1885 247.7624 280.206 241.2345 284.1575 233.6916 286.88 240.4318 282.1397 244.2132 279.5614 250.6531 277.5035 252.6249 Z M 46.4253 399 43.9391 393.5951 41.4528 388.1902 38.9665 382.7873 36.4763 377.3823 34.7387 373.6009 31.812 372.2697 30.0384 368.27 28.2248 364.1743 26.4071 360.0786 24.5935 355.9849 22.7798 351.8892 20.9622 347.7934 19.1485 343.6977 17.3349 339.604 15.5172 335.5083 13.7036 331.4145 11.8899 327.3188 10.0763 323.2251 8.2586 319.1294 6.445 315.0336 4.6313 310.9379 2.8136 306.8422 1 302.7485 6.7773 300.8207 13.8317 298.4706 20.8861 296.1204 27.9365 293.7703 34.9909 291.4202 42.0413 289.07 49.0957 286.7179 56.1502 284.3677 63.2006 282.0176 70.255 279.6675 77.3054 277.3153 84.3598 274.9652 91.4142 272.615 98.4646 270.2649 105.5191 267.9148 112.5695 265.5646 119.6239 263.2125 123.9799 261.7592 125.7895 256.2942 127.2949 251.7561 128.7922 247.2179 130.2976 242.6798 131.799 238.1417 133.2963 233.6036 134.7977 229.0654 136.3031 224.5273 137.8004 219.9892 139.3018 215.4491 140.8032 210.9109 142.3045 206.3728 143.8059 201.8347 145.3073 197.2965 146.8086 192.7584 148.31 188.2203 149.8114 183.6822 151.1886 179.5224 148.5942 175.5187 145.1111 170.1418 141.4638 164.5187 138.0326 159.2259 135.5384 155.3724 132.5276 150.7322 132.8639 144.7507 132.7879 141.76 133.1042 137.1759 135.9868 130.8141 139.3899 122.7167 141.8761 117.3338 144.0261 112.6536 145.7557 108.8941 146.7045 105.0226 146.2001 102.2981 145.071 101.3072 144.1142 100.0181 147.3691 97.9582 153.4667 96.615 156.8498 96.9032 161.566 95.9063 165.2974 95.0055 165.5857 93.7924 164.5247 91.7565 162.9793 88.7838 157.6945 88.4756 156.1011 87.6548 157.9387 83.2628 157.8707 81.8796 157.166 80.2401 156.4013 77.4896 156.7857 73.9343 157.8667 71.5201 157.8787 69.5784 157.3622 65.5727 157.5304 62.0135 158.6434 60.2439 160.6052 58.5984 162.4549 57.7636 164.3926 57.8257 165.93 58.5243 166.5906 60.39 166.1662 61.6732 165.0732 61.8513 164.6889 62.3898 166.2503 64.8781 168.5244 67.3163 170.274 66.9099 172.2398 64.9902 174.2976 63.4408 176.888 62.0715 178.7617 59.4231 180.3752 57.7016 181.8125 57.4594 185.9883 68.2352 192.1699 78.3223 197.6429 83.8874 203.316 91.4463 211.9479 98.3946 215.9155 100.7707 231.9661 105.6532 240.73 107.4788 252.8371 109.2244 261.2047 113.0259 264.0192 113.2581 268.3992 112.1311 271.5981 112.2212 279.5934 117.3979 281.9435 122.3063 285.2706 124.9007 288.2172 128.9784 290.123 133.2483 296.8811 139.7542 301.6455 147.0729 306.5019 152.5058 310.8378 155.8809 317.4158 157.2081 322.6486 158.7315 323.2331 162.3568 322.6966 167.0871 321.6957 170.5822 316.8112 177.3924 315.6502 181.5923 310.1172 188.5226 304.1277 200.1451 301.3812 202.7475 291.7164 208.745 284.622 215.9715 276.2063 228.5029 269.8005 240.9342 267.3423 244.9118 262.1976 245.7306 258.8065 245.3803 256.4684 244.2112 257.3972 240.8141 257.9457 237.0267 254.8469 237.425 252.1204 238.2098 245.7346 247.5062 242.2354 251.5839 241.4907 256.7666 239.7892 263.4547 237.2909 269.6083 236.1819 274.777 236.2219 277.7077 238.0956 284.8702 238.2238 292.2049 239.3047 296.6069 240.1775 301.8897 237.1788 303.5192 234.6085 304.3179 224.4472 304.8944 214.1419 306.5839 205.1497 309.6487 199.7688 312.6955 192.7624 319.5077 188.4865 336.7834 181.6283 344.08 176.9881 345.6054 165.8099 346.244 150.0756 348.2578 144.5506 350.0134 135.3782 360.5751 134.6736 363.8921 136.4472 366.2902 137.0277 368.9407 136.191 371.4289 132.0312 378.123 127.5391 382.9894 115.5562 386.0342 111.1602 384.2206 107.1365 383.3037 99.3655 383.2056 86.706 384.3587 82.0417 387.954 74.703 390.5003 67.9169 394.4258 55.1212 395.9272 46.4253 399 Z M 178.1171 29.9303 177.3244 30.8712 176.1353 30.9673 173.4328 30.1665 171.8354 28.2968 172.1357 26.0188 172.2237 21.8209 172.9804 17.8573 172.7722 13.6635 170.6823 12.8147 169.205 13.041 172.6481 7.1216 173.9933 6.2127 175.2705 6.5991 178.4334 5.9665 180.1109 2.7516 181.4321 1 182.8414 1.2122 183.526 2.1951 183.0336 7.0755 182.9775 11.1512 181.2239 23.6206 179.4063 25.7785 178.5014 27.5261 178.1171 29.9303 Z M 177.4605 46.9498 175.7549 48.0448 174.5378 47.8626 174.7821 45.6726 175.5107 44.1512 177.2763 44.2714 177.7047 45.1842 177.4605 46.9498 Z"/>
</g>
</svg>