<?xml version="1.0"?>
<svg xmlns="http://www.w3.org/2000/svg" version="1.2" baseProfile="tiny" width="800" height="423" viewBox="0 0 800 423" stroke-linecap="round" stroke-linejoin="round">
<g id="us-states-38">
<path d="M 754.1564 27.4739 767.6636 44.2227 790.8957 51.2465 799 64.7536 778.4693 93.9289 772.5261 111.218 761.1802 123.1043 762.8009 132.2892 752.5356 146.8768 742.2702 150.1185 722.2797 185.237 729.3033 198.7441 748.2133 200.365 756.3176 208.4692 743.3508 240.8863 743.3508 421.3413 578.564 422.4219 449.9763 421.8816 347.8625 421.8816 215.4929 420.2607 131.2085 420.801 34.4976 421.3413 20.4502 409.9953 12.8862 378.1185 14.5071 355.9669 1 338.6778 10.7251 322.4693 17.7488 295.9953 32.3364 267.9005 38.8198 243.0474 49.6255 159.3034 48.0047 147.9574 57.7298 111.218 61.5118 60.4313 56.1089 32.3365 60.9715 15.5876 100.4123 1 117.7014 12.346 133.3696 9.6445 142.5545 8.564 163.6256 18.8294 172.8104 30.7157 177.673 60.4313 228.4597 71.237 271.6825 55.5687 298.6967 53.9479 330.0331 59.3508 333.2749 65.8341 387.3033 51.7867 400.2702 56.6493 429.4455 53.9479 453.7583 44.2227 496.9811 35.5782 536.4218 33.417 549.9289 26.9336 754.1564 27.4739 Z" id="41"/>
</g>
</svg>