<?xml version="1.0"?>
<svg xmlns="http://www.w3.org/2000/svg" version="1.2" baseProfile="tiny" width="500" height="410" viewBox="0 0 500 410" stroke-linecap="round" stroke-linejoin="round">
<g id="ne_50m_admin_0_countries-Pakistan">
<path d="M 490.342 43.2533 491.7525 46.0157 493.8862 50.1977 495.2847 52.9361 496.8573 56.0152 497.6435 57.5548 499 60.2107 498.4478 61.6722 497.5325 63.8345 494.1773 65.4715 490.8341 66.6554 490.0539 67.3427 489.7928 68.273 488.1722 70.1367 485.0421 71.7062 482.4462 71.5517 480.8106 71.0835 472.0746 73.7994 468.0352 73.7319 464.8781 75.495 462.5373 77.1021 457.8376 78.8592 454.6535 78.8697 449.9509 77.8253 444.1588 75.8386 441.806 74.6817 439.6843 74.7493 434.5645 74.4717 429.5527 73.4918 423.5716 72.3229 420.6156 71.8232 414.5445 70.7984 410.5981 72.1654 407.0299 73.4018 404.1218 74.2376 401.721 78.0609 400.7067 79.4054 399.5392 81.3396 398.9991 82.696 399.4732 84.3211 402.9965 85.4735 404.464 87.0476 404.683 88.4401 403.4166 89.8701 402.3602 90.9999 402.3662 91.9933 402.9274 92.9956 403.7737 93.7414 408.7735 94.2051 411.7355 94.2141 412.8879 94.6207 413.023 95.9757 411.9396 97.8048 407.7231 99.2768 405.3433 100.8284 404.59 102.8841 404.623 104.5272 405.4363 105.6151 407.456 106.8665 409.3467 108.2995 409.9229 109.4699 409.6948 111.056 408.9325 113.2452 406.8618 115.7916 405.1362 117.6072 405.0012 118.2525 405.4303 119.2278 406.8228 120.6428 409.1936 122.7315 412.1377 124.4256 414.0283 124.8923 414.6435 125.3019 415.2317 127.2631 415.4538 129.3263 414.7005 130.8749 416.2101 132.1578 420.1685 132.0873 423.3916 132.6335 424.7481 132.0903 425.6964 132.4969 425.0842 137.1051 425.5283 139.833 426.3866 140.6058 429.5557 141.7117 435.6539 141.5766 439.2431 142.8626 443.2255 144.3451 445.3443 145.9807 446.2926 147.2006 446.0225 149.1648 443.8527 151.4681 440.3085 152.5605 438.2408 153.0346 428.0372 157.3531 424.8501 159.1688 422.3862 161.3565 421.4769 162.9981 420.9847 164.6022 423.1935 170.4107 423.5656 172.2098 421.753 178.479 421.2218 180.8078 421.9001 182.4344 424.0698 183.0436 424.544 184.3986 424.7601 185.4459 420.9787 187.7508 417.0024 189.787 415.7419 189.7825 411.9396 193.6103 405.5894 201.272 402.2192 203.8634 401.9821 205.1328 401.709 206.4203 402.9965 208.587 403.2666 210.4177 401.826 212.2633 399.4492 214.3731 394.8036 216.2217 388.9485 218.1124 386.3106 219.2588 384.3329 224.218 382.5053 229.2057 381.686 231.0514 378.5259 236.7894 373.007 245.2433 371.6115 247.089 363.0765 251.1644 354.3585 255.597 352.8249 257.276 351.0393 261.3155 349.3587 265.742 347.8012 268.0603 342.2552 273.2551 340.4366 277.245 339.8664 279.8559 335.1457 281.3129 329.8069 282.7024 322.0372 283.1511 318.799 283.8773 309.2767 287.4786 306.9119 287.6271 305.0512 287.0314 303.6437 285.8025 302.3383 283.7633 301.7231 280.6257 299.8834 279.2017 297.4046 277.9923 294.7967 277.9338 292.1767 279.2677 289.8989 280.7277 288.3504 281.9342 286.8319 283.3432 283.9209 288.0848 279.2032 294.8792 273.9334 299.8249 271.9827 301.3059 270.7613 302.4253 269.1137 304.0684 268.1623 305.6559 266.8569 310.8433 266.1036 315.4439 266.4487 316.4717 267.238 317.342 270.116 318.6805 274.2755 320.8953 279.6684 322.1527 284.215 322.3793 285.9135 323.3231 286.9279 324.6016 287.21 325.6774 286.9759 329.4843 286.4657 333.5642 284.7792 337.9532 284.8062 340.4711 285.4694 342.929 290.5232 349.1832 292.3838 349.8224 296.1741 349.9574 297.9357 349.8359 299.8924 349.2012 301.2849 349.6333 302.3173 350.4001 302.5874 351.665 302.4283 357.8997 303.9799 360.7222 306.9899 364.5695 309.3637 368.9601 311.6115 374.2269 313.7573 378.3428 314.5916 380.4916 313.1931 381.5315 312.3948 382.6118 312.1937 384.0523 312.4848 385.5709 312.2988 386.6482 313.3131 387.9717 314.5135 388.4129 314.4745 389.3312 312.5929 390.5316 310.9123 390.4911 309.6248 391.0628 307.131 393.5762 305.9696 394.0848 304.403 394.3129 302.6564 394.0638 300.1925 393.051 299.4723 391.4514 299.7544 389.7708 299.1932 388.7715 297.4256 388.9606 291.2734 390.6772 285.4094 392.7914 284.392 394.2334 283.0385 395.7399 280.3556 396.3596 276.4032 396.5487 273.6693 396.3221 271.1484 394.7061 268.8436 393.234 265.2873 393.1635 258.8831 393.3826 255.3329 393.3706 253.2441 392.8274 251.1854 393.234 248.6105 392.6398 247.4641 393.4366 246.3837 393.5131 245.5134 392.1282 244.9342 391.9856 244.253 392.1852 243.6588 392.6533 243.3047 393.4636 243.1816 402.7114 238.9561 402.6528 235.9461 402.6333 232.6449 403.136 229.6109 403.8398 228.1254 404.683 226.0006 406.011 225.5024 407.8582 224.4791 409.2056 223.0116 407.2084 222.0662 406.2901 220.9739 406.9713 219.4223 406.8933 216.6253 404.617 215.3679 406.9098 210.7403 407.435 210.1581 405.7049 210.044 404.0888 207.5022 405.2577 205.6745 403.4691 204.8522 401.0653 204.147 400.4005 203.3397 399.6338 201.422 398.8115 199.7054 396.2546 199.5494 393.5477 199.0692 390.3245 195.4679 378.3909 193.2892 377.2895 181.0719 375.1692 180.4327 373.082 181.282 367.4745 180.9369 363.9408 176.9815 359.2637 175.8741 356.0105 172.639 353.2151 169.4308 352.4018 166.1987 352.7679 164.4551 353.8738 163.4978 355.7374 170.4212 355.3038 171.9787 355.9895 173.8394 357.211 171.8497 357.1644 169.5569 356.5822 166.6789 356.6258 155.8901 358.0002 149.6239 359.9779 141.221 359.3927 130.6213 361.3359 121.8732 361.4514 118.257 365.2388 116.2613 364.556 114.7157 363.6227 102.6785 360.6487 101.8442 359.4047 99.8305 358.5134 97.6158 360.104 96.0252 360.3696 89.4289 359.0371 84.3811 360.0424 82.5085 361.753 82.3764 364.4165 76.0562 363.9018 72.5 363.063 67.7373 363.9918 56.9726 362.7584 54.1366 363.0675 50.2112 364.8336 48.5666 366.2081 46.2348 366.7498 44.1881 364.8306 42.6486 363.9858 41.2201 364.5455 39.2934 366.1226 33.7144 366.8608 28.6667 366.6493 23.2348 365.1697 23.88 364.6776 24.7263 362.1027 25.4856 352.93 26.4459 349.6183 26.1518 347.8087 26.3619 347.264 28.4836 345.6629 28.9968 344.9787 29.8071 340.2925 30.7044 335.0857 31.7007 333.2221 32.544 332.7149 39.2814 330.3846 40.4158 328.8255 43.9 329.1932 44.2151 328.818 44.5242 327.0279 46.1418 325.0802 48.3776 323.4897 50.0431 322.924 56.1023 321.9216 59.6405 320.5231 60.7179 320.3776 70.1322 320.7332 72.1249 320.1975 72.44 319.7114 72.9952 314.425 74.6998 313.5907 74.9698 313.1451 74.3876 309.4913 74.7148 307.0469 76.6534 305.6064 76.5424 304.7796 75.1499 303.045 73.3013 301.9376 72.4009 301.6751 64.6762 302.7224 61.4861 302.3833 59.9916 301.7456 59.6765 301.2714 59.9766 300.209 60.0306 298.4714 61.156 295.7735 61.4981 294.1604 60.5858 284.8332 59.2774 278.6405 59.9766 272.4944 59.8386 271.2189 59.5745 270.9323 58.5961 270.9353 53.8935 271.477 49.8781 267.5216 47.3932 265.9581 40.5568 263.9894 37.5588 263.6143 33.1592 261.9082 29.1078 258.1854 24.9604 254.377 23.2918 251.9402 21.4431 247.7867 16.1973 239.8294 16.2453 237.7767 15.5971 236.5223 10.4893 231.2945 6.864 227.5852 1 221.5846 12.7101 224.9427 21.8393 227.5161 36.5744 231.6726 48.0204 234.9002 51.1895 235.4239 84.7173 232.6689 97.1146 234.7562 101.04 235.9281 101.6312 235.2423 103.2967 233.8258 106.1838 232.3943 110.1061 231.2449 114.0195 230.6252 119.6254 230.5442 123.4308 230.6357 126.2458 230.9854 131.6717 230.7798 134.2826 230.2216 143.2107 227.9498 149.2098 226.4208 158.288 224.0364 164.9083 222.2943 166.5739 221.3685 168.2844 219.6999 169.0977 218.2084 167.063 215.9051 166.7959 213.8734 168.1284 211.297 168.8546 207.3731 168.7166 201.7852 168.2844 198.5605 170.1271 192.5719 171.6726 189.2093 174.7517 187.6007 176.8855 186.6164 177.7768 185.8976 178.6501 185.0963 181.9422 180.5332 184.9523 178.4085 187.8723 177.1195 191.0504 177.2846 193.7604 179.0462 199.0272 179.8175 204.114 179.3013 208.5255 177.9778 210.5272 176.893 212.874 175.9416 212.739 174.8567 210.0831 173.9129 208.5615 172.5804 207.9673 170.9464 209.4588 169.9545 212.934 169.6649 221.457 165.6765 224.9292 163.0551 225.8776 161.8352 227.5041 161.7001 230.7573 162.9201 234.5506 163.3252 236.9304 162.1068 239.2953 161.8352 241.6181 163.1647 242.8605 164.7522 244.9702 166.6459 247.6322 167.021 250.8433 166.0022 254.2135 163.8174 257.4036 160.7563 260.2426 157.7223 259.5433 148.1144 259.0782 142.4574 260.5697 139.4759 262.7064 137.6392 264.1169 134.8002 264.0929 132.2944 265.5844 130.1876 267.073 124.4331 269.1077 123.0782 273.2851 122.1388 279.9355 121.5926 285.1633 118.9622 290.4151 116.1682 291.1234 113.7089 289.1427 111.077 286.5138 105.9737 284.1309 102.9276 278.3359 97.4642 278.9991 94.0955 282.2283 92.727 290.184 95.0574 292.3988 95.5135 295.1658 95.8421 302.4883 95.7851 308.4634 94.8758 314.7056 92.7916 315.927 90.6233 315.858 88.0484 315.96 85.9222 316.0621 82.9661 313.8263 81.0695 312.4728 79.3754 312.0647 78.0204 313.6222 77.2747 315.1378 75.8927 316.6023 73.3733 320.0595 70.3632 322.1602 67.6533 324.1259 66.3658 327.1059 64.6042 329.0116 62.0173 329.8849 60.4718 331.6105 58.9578 332.1897 57.9644 331.7216 57.0806 330.8603 55.9672 329.8849 54.7113 329.8849 53.4928 330.6982 52.2054 331.5775 51.053 331.1724 49.4264 330.6982 46.784 329.0716 45.2265 327.9822 41.6282 326.2596 37.9669 325.3383 36.5399 323.6577 34.7468 319.8884 32.8366 318.808 31.5642 320.2786 29.1153 322.7274 27.5968 327.358 23.8455 329.8969 21.2511 332.1897 19.4444 335.1367 19.7491 336.8654 19.587 338.3899 17.9199 341.4149 16.4419 346.7898 13.3823 348.6685 11.3191 351.5285 10.2792 353.8993 10.0437 357.1014 9.3234 360.1805 8.2115 362.9925 7.3637 367.398 7.1972 374.3905 6.687 378.1718 6.1663 387.2169 5.7627 397.0724 5.5751 398.2188 5.5541 402.4803 6.6465 405.3703 7.5633 406.5077 7.4823 411.2974 5.296 418.5599 2.6281 421.9511 1.4457 423.7697 1 426.5847 1.0285 428.8535 1.7353 431.1643 2.7691 432.6408 3.5884 434.4805 3.0992 437.7006 2.5215 440.5066 2.9492 446.6977 4.7858 447.625 5.7011 449.0806 10.1712 450.1879 10.5763 453.6752 9.523 456.5472 10.0557 459.7733 11.5022 461.865 12.8917 463.2395 14.3967 464.716 16.829 465.2952 18.7797 465.9885 21.1055 465.8114 27.6688 464.749 28.7417 463.8517 30.1387 464.0798 31.3526 465.0882 32.3174 467.0959 32.9702 468.9535 33.3798 469.9498 34.4182 471.3183 38.1125 472.2396 38.6797 474.5084 38.6677 478.6289 37.8619 482.2031 36.5999 483.7157 36.3283 484.0908 39.8336 486.1915 41.1735 489.1326 42.7326 490.342 43.2533 Z"/>
</g>
</svg>