<?xml version="1.0"?>
<svg xmlns="http://www.w3.org/2000/svg" version="1.2" baseProfile="tiny" width="241" height="250" viewBox="0 0 500 483" stroke-linecap="round" stroke-linejoin="round">
<g id="ne_50m_admin_0_countries-Palestine">
<path d="M 102.1999 345.1825 119.1551 360.8456 119.686 366.6507 56.1131 425.6929 55.4405 451.0017 18.0967 481.6732 6.2034 451.2318 1 440.241 69.5639 381.8183 102.1999 345.1825 Z M 491.5312 51.3522 499 108.4829 485.4784 157.3661 484.2749 200.1788 494.2568 279.6981 472.6647 313.4668 460.3465 353.3415 454.9662 383.4466 439.7809 382.1369 391.9242 403.9237 328.3158 424.4363 258.2298 429.8343 248.3186 423.7283 245.5223 413.3216 265.9817 362.6863 273.8753 338.8641 304.2105 313.1482 347.2532 290.9543 365.4826 285.3262 363.4296 275.7867 337.7314 261.1323 310.9359 253.4512 285.4855 261.1146 277.5565 258.7431 274.9018 252.2477 283.7864 243.133 287.9279 226.1424 283.9634 197.7541 281.2732 163.1358 275.6805 136.3757 291.4676 92.8374 295.4674 72.1302 315.2189 27.8132 361.6951 1 401.7645 8.7873 422.8965 10.7696 431.8165 16.0083 437.5863 31.3706 467.2135 49.1222 491.5312 51.3522 Z"/>
</g>
</svg>