<?xml version="1.0"?>
<svg xmlns="http://www.w3.org/2000/svg" version="1.2" baseProfile="tiny" width="500" height="205" viewBox="0 0 500 205" stroke-linecap="round" stroke-linejoin="round">
<g id="ne_50m_admin_0_countries-Panama">
<path d="M 483.7797 81.2381 482.1701 82.4015 477.4497 89.1318 474.8727 94.8905 480.9566 100.9703 482.7831 107.4254 486.2316 114.4392 491.6025 121.4823 497.6072 134.5634 499 139.8092 497.2945 143.2202 491.5733 145.301 486.2233 151.4183 484.7596 158.8867 485.7813 162.5771 469.7687 174.499 465.6446 176.4797 462.9091 174.6449 459.4939 168.661 455.4157 163.8281 453.2223 162.1434 451.9505 162.0642 450.6703 163.1775 450.0865 165.8046 452.209 177.0009 450.4326 181.5503 444.9992 185.0406 438.7776 203.2716 436.334 200.9656 415.8096 176.4171 398.0373 146.0057 394.3343 132.2491 398.9421 131.4317 403.3998 131.7403 405.7975 129.6178 408.5705 125.6188 406.3229 116.3157 414.9631 109.2518 418.2198 104.4856 420.6134 105.0402 426.2595 113.1382 434.4659 117.7919 444.5447 124.5472 450.7871 126.0775 442.8975 118.9928 429.2702 109.6688 425.4547 103.5431 421.8435 95.0156 416.5185 98.7102 414.0457 101.8168 411.2894 103.5848 408.8916 101.4665 408.4663 98.7102 400.435 98.1723 398.3709 95.6745 396.2442 94.2734 397.2116 99.59 398.792 102.876 397.9455 106.8332 395.3351 107.1126 393.1 103.0136 390.2478 99.3107 386.4365 83.811 377.3126 76.5052 373.1343 74.0741 369.6858 73.1567 364.6068 68.1903 357.8974 65.5341 348.7652 57.8197 337.5605 52.2987 323.8706 50.343 307.2325 51.5439 301.6323 54.613 297.8251 58.5077 296.0571 60.3175 286.2285 64.7835 282.5047 71.2427 280.1571 76.6887 275.2574 82.8686 280.8493 86.6007 248.7949 107.5963 242.4482 110.6446 228.0494 112.7963 224.7301 115.0439 220.3392 119.193 219.7512 125.5063 220.4142 130.8771 224.5967 135.0179 228.3163 137.6283 237.2525 150.1256 253.1149 165.8922 256.1173 171.6342 258.5776 180.1534 253.7905 184.1524 250.0917 185.8412 235.0007 186.5084 229.7966 189.9194 227.6866 195.1318 222.0572 199.3769 202.6002 203.5843 187.3257 204.0639 182.572 199.1892 181.4252 185.4951 171.138 162.1267 168.6819 146.0182 166.1132 148.0198 160.6589 149.8921 158.8158 153.8952 157.4439 165.7754 155.4298 169.8286 151.214 169.4408 142.5738 165.1875 131.0815 161.2677 116.4325 136.0979 114.8437 131.3609 111.9956 125.7106 100.6701 123.3295 91.0166 119.0887 80.475 118.434 75.0833 120.8192 69.5789 117.7835 68.6282 110.8948 57.5778 113.9847 43.3917 112.913 30.7025 109.9607 22.0249 111.5369 14.7692 116.4199 15.7741 128.959 13.6391 131.4234 13.3013 126.3069 10.7744 120.4106 7.7386 115.5234 1.3378 110.4694 1 108.6138 3.5437 106.0493 15.1528 98.7269 16.5914 95.6661 16.7749 89.2944 15.6574 83.2022 10.4199 74.2326 13.4139 68.6824 19.3978 64.2331 25.5401 60.7178 26.5785 59.225 25.4401 56.1809 21.8622 52.8866 13.4681 47.2864 8.4308 46.9236 8.2182 30.8026 8.4725 13.6975 9.736 12.0003 12.8176 10.9787 15.2779 8.3766 16.6581 3.3102 20.3277 1.5171 26.9579 5.4201 33.7299 8.8562 36.5321 7.7136 38.6463 6.0415 40.1224 4.386 40.6061 2.8098 46.0062 7.3717 57.0691 15.4572 57.7196 19.4395 56.6771 23.255 59.7212 34.1928 65.4674 35.7774 71.2386 33.659 72.6689 35.6814 71.5972 37.6997 68.6282 39.9598 67.8818 49.3672 77.3517 53.7582 82.0846 57.6195 97.7761 55.8056 103.5598 56.8314 107.5046 55.7097 103.1262 48.1621 97.2632 42.5744 97.7469 40.0641 102.1963 41.9197 105.5948 45.7268 113.3133 50.4389 127.5412 66.8309 143.8373 70.7966 156.735 70.2711 168.7486 68.0569 187.9137 61.6894 201.7662 50.1887 212.8333 45.0597 248.6823 34.1302 261.4173 22.7046 266.7882 21.1992 271.9131 19.7689 283.1844 11.1246 289.235 4.386 295.6359 1 314.58 3.4436 326.8646 6.6294 335.3505 6.2166 343.511 8.4642 347.0722 13.3722 350.7751 15.4655 370.82 14.9276 387.2663 17.3587 423.2696 31.8785 444.7865 46.2397 456.1955 61.4976 483.7797 81.2381 Z M 353.619 114.0347 351.9302 117.6501 347.9312 109.5937 348.5734 107.5171 348.3023 100.2364 352.1095 98.3224 354.9075 98.1514 357.2218 99.1772 358.673 107.7465 357.472 111.6287 353.619 114.0347 Z M 122.6165 194.4355 117.9336 194.8858 108.3678 191.2288 101.3706 184.144 100.8118 181.8506 100.9536 179.5029 104.7775 172.268 109.8898 169.7702 111.8997 169.8078 116.7952 178.156 113.4635 181.3919 114.8062 186.5626 121.7491 190.3906 122.6165 194.4355 Z M 68.795 19.5438 67.8609 23.526 61.2599 16.3496 65.1838 15.1736 66.5807 15.3113 68.795 19.5438 Z M 339.3494 115.7486 335.5131 119.5391 334.0453 115.9487 336.714 112.2291 337.6523 112.1958 339.3494 115.7486 Z"/>
</g>
</svg>