<?xml version="1.0"?>
<svg xmlns="http://www.w3.org/2000/svg" version="1.2" baseProfile="tiny" width="500" height="341" viewBox="0 0 500 341" stroke-linecap="round" stroke-linejoin="round">
<g id="ne_50m_admin_0_countries-Papua New Guinea">
<path d="M 400.2995 113.2704 397.8542 115.7801 396.3336 113.4411 394.3844 111.3921 392.8477 109.2948 390.8921 104.7618 390.7954 102.4776 391.3109 100.0613 391.4237 97.6225 390.4797 92.6675 388.1794 88.1474 380.1734 77.3708 377.6541 74.5421 374.7771 72.0163 372.9342 71.3977 369.2035 70.792 367.5443 70.2862 364.4708 68.5272 361.6131 66.4749 354.5318 60.3923 350.7882 58.6719 348.81 56.5456 337.65 49.6866 334.3929 48.0661 330.4269 48.0628 327.0699 46.7129 329.7214 45.856 330.2658 43.5685 329.6859 41.2392 335.2917 45.0441 341.2068 48.3689 342.9175 51.0494 345.8299 51.2137 351.1297 53.4302 354.7702 55.4277 358.2046 57.7312 362.0738 61.0302 369.5224 63.6205 370.5824 64.5612 374.355 68.8655 379.3068 72.5157 380.9885 74.526 401.9812 91.8041 405.5251 96.6431 405.799 99.9453 405.1063 101.2405 402.8898 104.0337 402.9316 107.3327 402.1939 110.2999 400.2995 113.2704 Z M 365.6532 98.109 367.3671 98.7759 372.3028 95.319 374.9446 97.7256 378.3145 98.8983 381.8197 99.5587 380.4312 104.5105 380.8436 106.8012 381.7489 109.0789 381.6329 112.4424 380.022 115.4418 376.9356 119.8137 375.5535 120.6223 373.933 121.083 368.8749 121.4342 367.8987 123.7635 368.237 126.2249 370.9722 129.4595 373.1533 133.0871 370.9787 136.4281 367.3961 138.7541 363.9972 139.943 358.3721 139.2406 352.4409 139.5306 351.3294 140.8032 351.2972 142.9037 350.4628 144.5049 349.3835 145.9643 346.3744 148.9895 343.0109 151.6571 338.4168 154.1894 336.8704 154.7951 332.8045 155.1978 329.1447 156.654 327.5145 158.0748 325.7393 159.2281 321.8572 160.4943 318.0781 162.9879 316.5864 163.4099 308.7512 163.8449 297.5396 163.9641 294.2181 164.225 290.9931 163.8803 289.2083 162.9073 285.4002 158.4163 282.0786 156.8763 278.4606 156.9214 273.641 158.5097 272.7324 158.1585 263.1156 151.5411 260.2 149.9238 257.0878 148.7157 253.2926 147.878 249.71 146.5475 247.5998 143.3934 247.8479 139.2857 250.7281 136.8727 255.1129 138.0647 256.7914 138.0486 258.4409 137.3624 260.3707 137.5814 262.3231 138.1871 269.4398 137.2947 273.5572 138.5512 277.5586 140.2136 281.3054 140.5744 285.1489 140.22 290.3069 138.3321 291.9339 138.5802 296.8953 138.5995 301.2285 136.0801 302.849 125.9124 303.9509 122.4523 305.4264 121.6984 306.4896 121.9078 308.0747 123.6378 306.0418 125.7964 305.1461 127.4588 304.8465 131.5214 305.9612 135.4615 308.4967 138.5834 312.3112 138.9797 315.7971 136.9178 319.5923 136.4925 323.1007 138.4932 326.6865 138.1485 328.3328 136.8437 330.253 136.2766 332.157 136.0608 333.8935 135.2876 336.1809 131.8887 337.7177 128.0548 339.9922 125.0329 346.2198 120.0005 348.0143 119.3723 349.957 119.0308 354.3353 119.2466 357.5892 117.4586 357.8437 113.425 357.3734 109.3334 353.6555 99.7166 353.401 98.1895 353.939 96.4788 355.0118 94.942 358.662 94.9162 362.4766 95.4768 363.9747 96.9234 365.6532 98.109 Z M 4.7565 257.1876 4.7501 256.7527 4.7501 250.0451 4.7469 243.3375 4.7436 236.6331 4.7404 229.9255 4.7372 223.2179 4.7372 216.5103 4.734 209.8059 4.7307 203.0983 4.7275 196.3906 4.7243 189.683 4.7243 184.1675 2.8879 182.0121 1 178.7131 1.4059 174.4733 3.6966 169.2187 4.7179 165.7167 4.7179 162.8558 4.7146 156.1514 4.7114 149.4438 4.7082 142.7362 4.705 136.0286 4.705 129.3242 4.7018 122.6166 4.6985 115.909 4.6953 109.2013 4.6921 102.4969 4.6921 95.7893 4.6856 89.0817 4.6856 82.3741 4.6824 75.6697 4.6792 68.9621 4.676 62.2545 4.6728 55.5469 4.6695 48.8425 4.6663 44.8057 4.6663 42.5795 4.6663 42.4538 5.6522 42.4667 8.9995 42.5054 11.6671 43.0498 28.2009 50.2149 33.1398 53.0887 34.8216 53.762 36.4808 53.7878 38.0626 54.1261 45.5112 58.0824 56.6455 62.0773 68.3951 65.9079 72.0388 66.7069 75.8115 67.042 84.0043 68.3693 88.315 69.5517 94.636 74.2425 97.8222 75.6923 100.8088 78.3373 105.0357 81.1789 106.7045 81.8908 108.5377 82.2227 112.6937 82.3226 116.8658 81.8103 118.5862 82.039 120.2744 82.5545 121.8176 83.5436 122.6005 85.4508 125.1875 88.0894 128.857 89.2782 132.3397 91.6655 135.4744 94.5264 137.7812 97.4066 140.4004 99.8358 144.3664 100.8635 148.5417 101.0278 162.8075 115.4708 163.5034 117.7002 163.6612 127.1785 162.089 134.5852 165.6394 136.8565 170.4752 137.7071 177.2698 139.2922 183.8034 141.6505 204.6157 151.6346 207.4733 152.4851 211.6745 152.8073 215.911 152.6752 217.4317 153.1842 220.5922 154.9948 222.1805 156.1772 225.0285 159.4053 227.5704 162.9138 228.6529 163.9157 229.9448 164.6986 230.6858 166.6059 231.6749 172.4823 231.3785 176.1518 230.2219 177.5114 226.8939 178.1718 215.2216 178.7904 207.4154 178.1074 201.9545 181.8156 201.8096 183.4329 202.1897 184.9407 206.945 192.7984 209.7543 199.7638 212.0675 202.5989 215.5373 204.8992 218.6269 207.6183 221.4685 210.7434 227.3803 216.1978 230.5988 218.2178 234.3682 219.4678 240.657 223.6979 241.4882 225.5665 243.2859 231.4526 244.0624 235.4443 244.1816 237.0906 244.6197 238.5661 250.1482 242.1841 251.3596 243.1925 253.8242 251.2436 255.7121 254.9776 258.8919 256.3049 262.5969 256.2211 272.6809 253.8274 274.1403 253.7501 276.0089 254.301 277.6359 255.6122 278.1771 259.2334 276.5985 263.0318 276.1636 266.6917 278.1481 269.6944 283.2803 272.0365 285.1618 272.6777 294.3985 273.4251 298.0229 274.0566 301.5829 275.0682 302.82 275.9735 301.9502 277.5843 300.088 278.3704 297.981 278.6926 294.5789 279.8556 294.6401 281.9272 296.5602 284.089 298.3129 286.6889 299.7884 287.6329 301.3864 288.2643 305.3781 289.1664 309.2602 290.4035 311.8215 291.6342 314.4665 292.517 320.2334 293.0808 324.4603 294.7432 330.4817 294.0473 325.2625 296.7471 323.4648 297.4108 317.1728 296.3992 315.9904 297.4527 318.5839 300.3071 322.4306 302.2305 323.8063 303.3484 322.843 304.6564 318.3713 307.2724 316.5027 307.6558 313.0103 307.8652 307.1532 306.7376 303.0101 305.3008 301.8471 303.3387 300.742 302.1821 297.0048 299.4179 294.3437 297.9069 290.9545 297.3947 287.4235 297.4269 281.0992 295.8192 267.3812 294.6788 264.1111 293.9796 259.9938 291.7663 258.0575 291.4506 255.9795 292.1465 250.6798 292.575 249.1237 292.3785 245.3414 290.4905 241.4399 289.8011 239.8162 290.3681 238.1699 290.4938 232.8508 289.1439 228.843 288.5736 225.5504 286.6921 223.7527 284.9331 221.7327 283.3705 219.8641 279.3466 216.9549 275.5289 213.3465 272.3909 205.6112 267.3264 204.0519 266.0667 201.0235 261.4242 201.1878 258.3475 202.2896 255.2353 200.624 256.2952 198.7425 256.1631 193.475 254.1077 191.3068 251.6592 187.7854 245.0128 185.5335 241.5108 180.2756 235.309 178.7614 231.6266 176.5674 228.4081 175.2111 227.216 174.0835 225.8371 173.0847 224.0459 171.5899 222.7991 164.2572 220.0413 162.9653 219.1714 161.5446 218.7107 156.0902 218.4272 152.9361 217.9729 146.9888 215.7145 143.9153 215.0379 140.22 214.6094 136.6407 213.7525 134.8945 212.9116 133.7218 211.4908 133.0259 208.1241 130.0297 208.485 127.0915 207.9018 124.2403 206.7195 121.3343 206.0075 119.3497 207.0223 118.7408 209.7028 117.8227 209.8413 116.1216 209.2936 115.2743 209.6158 113.4282 210.8529 111.9495 212.525 109.2271 212.2705 103.6439 210.5791 101.1567 209.5191 99.0433 207.6087 97.2262 205.4372 95.3866 203.7265 93.1282 202.4765 96.0052 205.4276 102.6097 218.4401 100.957 218.6914 99.2559 218.3627 100.8184 220.8628 99.0175 221.2397 97.2327 221.2107 93.4633 220.1315 89.7196 219.7739 88.6178 220.3022 89.4103 221.2397 90.7248 223.9975 91.7719 226.8906 86.369 228.1922 80.8277 228.9847 74.6549 230.5473 68.4047 230.6536 65.1991 229.7644 61.9098 229.2618 58.8234 229.7644 55.8239 230.892 53.2981 230.7116 51.7034 228.6819 50.9527 227.1419 49.9959 225.8049 47.6343 226.0175 45.3566 226.7392 49.2581 226.823 50.4276 228.5273 51.4327 230.5956 54.197 232.4674 57.5347 231.3527 64.8576 231.662 71.9744 234.9224 73.6626 235.2961 75.2122 235.934 78.8785 239.1557 81.6428 242.0842 83.9689 245.4252 84.4618 246.7332 84.3071 250.2416 83.6048 251.9846 79.0074 254.4556 74.104 256.321 66.8777 259.9551 59.8833 264.0853 56.2073 263.2767 52.8922 261.0891 51.6067 260.4964 48.1917 259.3043 46.1072 258.8758 37.8371 259.8069 29.538 260.2837 26.0488 260.2418 22.6564 259.5427 18.9256 258.2411 15.2303 258.8178 12.7013 260.3449 9.937 260.5705 4.7565 257.1876 Z M 237.3258 148.5707 235.9952 148.822 235.4185 147.3239 232.3353 146.0256 229.2521 142.0016 229.3005 138.5447 229.7 137.5524 231.4107 137.5009 238.2826 141.4829 238.985 142.7587 238.4695 146.5346 237.3258 148.5707 Z M 171.1324 112.2749 168.9223 113.251 167.3275 112.5004 166.6542 110.3386 167.2019 108.2509 169.1349 106.6046 170.356 106.1085 171.7284 107.2264 172.2568 109.4365 171.1324 112.2749 Z M 390.5603 59.7287 389.7548 62.625 387.738 60.9304 386.3591 58.4819 387.2387 57.3897 389.51 56.7389 390.5603 59.7287 Z M 371.71 53.5913 371.3556 55.2569 370.3279 55.1603 367.4831 51.8999 366.9386 51.0558 367.6023 50.2343 370.8981 52.6377 371.71 53.5913 Z M 294.7174 7.5916 294.6433 8.7837 292.2593 8.1812 291.6052 8.3584 287.475 4.9079 287.5394 2.7977 288.6316 1 290.3488 1.29 293.3933 3.5548 294.7174 7.5916 Z M 338.1172 286.9241 339.5186 286.9273 341.8576 284.4627 343.8808 283.7088 345.2275 284.8332 343.0625 292.6845 341.2358 291.5021 334.0997 289.3146 333.8774 286.2089 332.0185 285.2069 330.8715 282.1753 328.5068 278.815 328.059 276.6629 329.3992 277.5489 330.9037 279.7429 337.1442 284.2468 336.9026 285.7031 338.1172 286.9241 Z M 313.8512 269.5623 313.3873 270.3774 311.4575 269.7781 306.0772 265.2097 306.9084 261.8334 309.3279 260.0775 313.0168 261.9848 314.2346 264.7845 314.6019 266.3502 313.8512 269.5623 Z M 338.9709 244.478 339.5412 246.8331 336.9702 244.3072 338.1107 241.4528 338.3105 239.9096 338.1784 239.0397 335.6107 237.561 336.9734 235.1447 338.42 234.3328 339.3253 234.0976 339.2866 237.4965 340.018 239.0204 338.9709 244.478 Z M 443.6799 331.1744 443.1934 332.9721 441.9917 332.3632 438.4156 333.2943 436.5309 333.0848 435.4452 331.474 435.1907 330.7298 438.2996 331.3097 437.7745 329.5248 442.2656 330.4301 443.6799 331.1744 Z M 90.8827 236.1724 89.4426 236.2723 83.6274 234.0332 82.1421 232.4062 88.9496 232.767 90.7055 233.1762 91.0727 235.454 90.8827 236.1724 Z M 209.3001 135.5582 207.4508 135.7386 204.4417 132.6039 203.6782 131.4376 203.9713 129.801 207.8084 127.6038 210.2923 129.6077 210.8046 133.8958 209.3001 135.5582 Z M 205.7143 21.023 216.7003 23.1654 217.4252 23.1396 217.2996 22.3729 217.4864 22.157 218.1372 22.7176 217.9375 24.2833 216.201 24.6667 214.5869 24.5153 213.4271 25.3207 210.2923 28.3395 208.1757 27.8337 205.5919 28.5102 201.0557 28.5747 195.1664 27.2473 193.5588 28.3653 191.4582 28.056 189.3802 29.2802 188.5232 29.219 188.0238 27.4213 188.0593 26.4999 190.5207 25.7202 190.1534 22.8948 192.1444 21.4804 195.5691 21.6029 198.7715 20.6396 205.7143 21.023 Z M 316.8603 44.171 310.2912 44.622 307.9232 44.1194 305.8066 42.2154 303.8896 39.245 301.9663 38.5523 301.1898 37.9692 305.8388 35.6979 309.9497 35.0117 316.6251 37.8564 317.3017 39.2708 317.3532 40.189 317.1728 43.198 316.8603 44.171 Z M 319.8887 264.7039 324.528 267.4069 327.0828 266.6144 328.4746 267.059 331.4579 270.1841 331.6222 272.4682 332.1022 274.4303 331.9508 275.2905 330.3013 276.4567 330.4398 275.1294 329.1769 274.8716 324.834 274.9296 321.4673 274.092 316.8474 273.8761 318.7965 271.8014 319.2315 270.9573 316.7958 267.6196 316.6895 266.0248 316.8828 265.1453 318.9157 264.6717 319.8887 264.7039 Z M 389.2522 251.9298 391.1756 252.4324 395.1609 252.1875 396.4721 254.0787 398.2956 254.7295 399.8742 255.5832 401.2725 256.8268 401.2628 257.5839 400.931 258.2444 400.0836 258.8339 400.3349 260.1645 398.8787 259.968 397.0552 260.6703 393.492 259.1142 392.1937 258.7631 391.8006 257.4293 389.4874 255.1966 385.4313 253.5954 387.4739 252.281 389.2522 251.9298 Z M 419.1143 334.9599 424.6267 336.6867 426.4953 338.594 424.5043 339.4606 419.6942 340.0534 418.557 338.8871 413.9306 337.7112 413.2057 335.5817 410.8893 336.3066 412.062 334.8052 409.1624 333.1171 408.2571 330.8586 408.1444 329.9437 411.5465 331.0068 419.1143 334.9599 Z M 90.9986 241.1757 91.5882 242.619 86.7911 240.6377 82.2162 237.329 79.8966 236.4301 78.347 234.249 81.1917 235.876 86.15 237.3999 90.9986 241.1757 Z M 232.4159 31.6772 231.3463 33.4137 228.8527 33.2655 227.7508 32.7468 229.555 32.4182 230.2799 30.9845 231.0595 30.4787 232.4159 31.6772 Z M 367.0256 49.7252 366.2395 49.7317 366.1203 47.0995 366.668 45.7142 368.5012 46.6775 368.8104 49.0326 367.0256 49.7252 Z M 332.1054 304.9109 331.6415 307.4883 328.9256 306.7215 328.3779 306.1674 328.8257 304.5404 331.2259 304.4663 332.1054 304.9109 Z M 423.1769 91.5947 422.8741 92.3775 420.941 91.4851 422.5326 89.7937 423.2993 89.6777 423.1769 91.5947 Z M 499 176.9573 498.1946 180.0469 497.5921 180.5817 496.8318 179.4219 493.9645 180.5462 492.5952 181.8253 491.139 182.7628 487.7755 182.5373 484.5925 181.69 481.5061 180.121 478.758 178.1074 476.0034 174.9533 474.2894 171.6801 475.1432 167.8785 474.0768 164.4473 468.8802 162.0085 467.7429 161.2192 465.4362 157.8009 463.1294 156.3254 460.2138 153.3324 459.4663 152.0341 458.2066 148.2453 457.8071 145.9547 458.8671 139.2986 458.4773 135.9706 459.9077 136.2895 461.4187 137.6072 463.1359 138.5093 467.3112 139.1214 470.5039 141.7697 473.5678 146.9405 473.935 148.6351 474.9144 149.853 478.0653 152.0469 479.6987 153.4548 482.8141 159.0864 484.5409 160.2881 486.5771 160.7713 488.4714 161.5832 491.6287 164.0543 494.5444 166.8507 496.5128 169.7922 498.0109 172.9398 499 176.9573 Z M 455.771 135.584 455.1138 135.8449 453.6801 131.6825 453.4256 128.5961 452.9842 126.3215 452.2336 124.9652 454.3953 122.4619 455.2878 121.766 456.9179 123.0902 457.1531 126.0155 458.4064 128.5026 457.4592 133.9377 455.771 135.584 Z"/>
</g>
</svg>