<?xml version="1.0"?>
<svg xmlns="http://www.w3.org/2000/svg" version="1.2" baseProfile="tiny" width="407" height="400" viewBox="0 0 407 400" stroke-linecap="round" stroke-linejoin="round">
<g id="ne_50m_admin_0_countries-paraguay">
<path d="M 217.2062 43.2869 218.264 46.7846 218.8987 49.4877 220.4923 51.4011 222.0837 53.9491 223.675 55.3783 224.7892 57.7665 224.4719 60.4743 225.1089 63.9767 225.9057 67.0043 226.7026 67.7987 228.9826 68.5932 230.125 71.3434 229.3023 72.735 229.6196 74.324 230.4423 75.88 229.6878 77.3891 230.0851 78.5456 231.6364 79.5798 233.0703 83.4019 233.2278 89.9318 231.6364 93.4295 230.3624 96.2972 230.0451 98.0507 230.9994 100.594 229.4081 103.6216 227.4971 107.2838 227.9742 109.8318 228.2939 112.22 228.4514 114.768 228.9309 117.1562 228.2939 119.6995 227.6569 121.9326 227.3372 124.4759 228.1341 127.3436 226.7026 130.0515 225.9057 131.9601 225.5861 133.8735 227.0199 136.8964 230.6821 138.1704 233.5475 138.4901 236.2553 136.8964 238.3238 136.4168 242.1459 137.8507 245.6482 140.3987 250.1049 140.7184 254.0868 141.1932 257.1097 141.9924 261.5687 141.0381 266.1852 141.9924 271.5986 143.4263 276.0577 144.7003 280.5144 144.3806 283.8592 144.2208 287.3616 142.7869 290.7041 142.9468 293.2522 140.3987 294.686 138.1704 295.96 136.5767 299.6199 135.3074 302.1679 136.1019 304.2388 140.2389 307.901 142.6271 309.3325 144.3806 312.038 145.1751 317.9285 145.3349 321.5907 145.1751 325.7325 146.4491 328.438 146.4491 330.8262 148.6775 333.0545 151.3853 333.3742 156.3215 335.4427 160.1436 338.1506 161.5774 339.5821 163.9656 339.1049 167.3082 337.8309 170.6507 337.9907 174.3129 339.4222 177.6554 339.4222 180.9979 340.3789 184.3404 342.2899 187.2082 342.9269 191.8247 342.6073 195.1672 343.8813 197.0806 344.3584 199.7884 343.5639 202.0168 343.2443 205.0396 343.4041 207.7475 344.3584 209.9759 347.2262 212.8389 348.0206 217.9349 348.0206 221.4373 349.2947 225.579 351.6828 227.4877 355.5049 228.127 359.9616 228.7617 365.375 227.8073 370.1513 226.6932 372.8569 225.579 378.1128 222.5515 382.7293 220.8026 385.1175 219.6884 387.3458 218.894 391.9624 220.8026 396.2639 223.1908 399.6064 226.5333 405.8167 230.1955 404.6085 231.0888 402.1357 234.0881 402.1827 237.6093 403.9292 242.6536 402.3919 253.344 397.5755 269.6806 395.5964 279.2004 396.4567 281.8989 394.6796 286.6611 388.0651 296.8909 387.8089 303.7922 387.0356 324.4773 384.8307 339.0649 381.1074 349.8541 377.7179 355.5989 374.6645 356.2994 372.4714 358.02 371.1386 360.7561 368.6611 363.0314 365.0388 364.8555 363.0761 366.8535 362.7729 369.0254 359.3034 370.4217 352.6701 371.0469 348.7775 372.7863 347.6234 375.6305 345.4045 377.8918 342.123 379.5607 340.5646 382.3344 340.7315 386.2082 338.8487 389.5319 334.9138 392.3103 331.2869 392.3855 327.9632 389.7622 323.5135 388.0181 317.9356 387.1531 313.2791 387.8159 309.5417 389.9973 306.2274 393.462 303.3408 398.2102 300.1323 399 296.5994 395.8267 292.1309 394.863 286.7223 396.1088 282.416 395.6716 279.2122 393.5514 274.29 393.3163 267.6544 394.9711 254.202 393.0624 233.9377 387.5809 216.7972 385.503 195.7807 387.4728 194.0037 381.7797 195.1178 378.7004 198.5309 376.3827 200.6723 373.7595 201.5373 370.8213 203.8926 368.5835 207.7381 367.0462 209.3694 365.4854 208.7865 363.9106 209.6045 362.5143 211.8187 361.3014 213.0763 359.3927 213.3748 356.7836 214.2069 355.4908 215.6878 354.527 215.85 352.7265 215.0202 347.1415 215.1236 342.5626 216.1602 338.9991 217.4507 336.8413 218.3674 336.3054 219.2136 335.0266 219.5474 332.8735 220.9296 330.8708 227.6358 326.7479 230.1626 324.5149 230.3742 322.4793 231.3849 319.7197 235.3692 313.7868 236.5915 311.0084 236.7019 309.6169 238.1123 308.1783 242.9098 304.8828 245.5166 301.7754 245.928 298.8653 244.7715 295.5604 242.0401 291.87 233.4816 282.6275 226.8319 278.4294 218.3275 274.96 212.7284 273.8364 210.037 275.054 207.3079 274.0996 204.5437 270.964 199.8825 268.4959 190.0429 265.788 167.743 254.9894 158.8038 249.7712 155.7974 246.5509 147.4599 240.7637 133.7936 232.4239 123.3077 228.3621 115.995 228.5924 104.2891 226.1666 88.1877 221.0894 78.8935 216.1579 76.3995 211.3815 70.4455 206.5957 61.0314 201.8052 56.1422 198.6508 55.7802 197.1323 52.9901 195.1578 47.7671 192.7179 42.0364 188.5433 35.8027 182.6339 29.1317 173.4949 22.0283 161.1214 14.4054 152.7816 6.2676 148.4706 2.2035 145.6217 2.2176 144.2302 1 142.8903 2.0813 140.4974 5.0453 131.0951 9.3352 117.4524 13.7824 103.3207 19.0195 86.6786 19.0266 74.874 19.036 62.4394 26.4826 52.205 31.7691 44.9417 36.3363 38.0263 40.9598 26.1888 44.0438 18.2862 55.839 16.4151 75.8565 12.3016 85.8324 10.2566 106.8771 5.9362 128.2627 1.5453 150.7201 1.268 172.3995 1 189.2202 10.8207 202.0685 18.3238 216.2237 26.5931 217.1921 28.3748 218.1606 35.3043 217.2062 43.2869 Z"/>
</g>
</svg>