<?xml version="1.0"?>
<svg xmlns="http://www.w3.org/2000/svg" version="1.2" baseProfile="tiny" width="800" height="351" viewBox="0 0 800 351" stroke-linecap="round" stroke-linejoin="round">
<g id="us-states-39">
<path d="M 799 125.6171 780.983 135.3762 773.476 150.3904 738.9436 178.9171 750.2042 193.1805 729.1843 217.2031 730.6857 232.9679 747.952 237.4722 749.4534 254.7383 788.4901 282.5145 781.7337 294.5258 739.6942 317.0469 737.4422 327.5569 700.6576 338.8175 672.8815 335.0639 649.6096 350.078 143.6341 350.078 1 350.078 1 224.7102 1 40.7873 26.524 33.2803 104.5974 1 104.5974 3.252 104.5974 37.7846 708.1646 37.7846 723.1787 56.5521 733.6886 55.8014 750.2042 71.5663 747.2013 91.8353 771.9746 115.1072 792.9943 115.8578 799 125.6171 Z" id="42"/>
</g>
</svg>