<?xml version="1.0"?>
<svg xmlns="http://www.w3.org/2000/svg" version="1.2" baseProfile="tiny" width="500" height="290" viewBox="0 0 500 290" stroke-linecap="round" stroke-linejoin="round">
<g id="ne_50m_admin_0_countries-People&apos;s Republic of China">
<path d="M 364.0499 237.6758 363.777 238.1657 363.2966 238.0842 363.2823 237.7362 363.1845 237.634 363.3165 237.3099 363.4048 237.2192 363.9496 237.4948 364.0499 237.6758 Z M 394.0193 180.6964 393.3496 180.9286 391.2276 180.2295 389.7331 179.4628 388.8407 178.5314 388.7126 178.1464 389.7538 178.2116 390.7734 178.5449 390.9985 179.0563 391.4097 179.217 391.6889 179.5153 393.5763 180.2088 393.8642 180.4188 394.0193 180.6964 Z M 397.5476 193.1483 397.4307 193.3077 396.4229 192.8401 395.3333 192.7418 394.9571 192.3306 394.8887 191.6848 396.038 191.7122 397.4545 192.2964 397.7623 192.5947 397.5476 193.1483 Z M 396.543 195.4648 396.5144 195.6175 395.82 195.0874 395.4852 195.0011 395.6451 194.7012 396.1119 194.6241 396.4818 195.2874 396.543 195.4648 Z M 398.4273 193.7269 398.3469 194.1039 398.1314 194.0502 397.8403 193.3801 397.9962 193.2151 398.4082 193.2556 398.4273 193.7269 Z M 377.3898 229.8513 376.7853 230.2283 376.4075 230.049 376.4003 229.5439 376.5928 229.089 376.3725 228.7609 376.5888 228.3704 377.0398 228.2534 377.1989 228.4972 377.4534 228.6265 377.5321 228.7593 377.5345 229.015 377.2935 229.4373 377.4836 229.6672 377.3898 229.8513 Z M 300.5397 265.3928 300.8427 265.6743 301.6508 265.4747 301.7972 265.8338 301.7916 266.0012 301.5069 266.4144 300.8388 266.0955 300.1714 266.1698 299.691 266.142 299.5582 265.9463 299.9265 265.5427 300.5397 265.3928 Z M 389.0403 208.4356 388.3309 208.6305 388.0644 208.6297 388.0843 208.038 388.6665 207.4748 388.9019 207.6629 389.0371 207.9568 389.0403 208.4356 Z M 326.3589 251.4571 326.4273 251.8341 325.7918 251.2607 325.6105 251.2277 325.3067 251.0141 325.1301 250.6538 325.6232 250.6399 326.0758 251.0674 326.3589 251.4571 Z M 320.128 261.2497 319.9721 261.4127 319.7351 261.1177 319.6659 260.6953 319.4965 260.467 319.8862 260.1795 320.0612 259.8618 320.5257 259.925 320.7174 260.0216 320.3102 260.3513 320.2131 260.4921 320.128 261.2497 Z M 318.935 260.9419 318.1356 261.1141 317.9678 261.0771 318.2446 260.6559 318.9668 260.3668 318.935 260.9419 Z M 280.8909 262.0144 280.3676 261.5873 279.5014 260.8969 279.153 260.8166 278.1898 261.1515 276.8083 261.2783 276.4997 260.9204 275.8292 261.1924 275.1849 260.3636 274.423 260.3112 273.4709 259.6832 273.1305 259.3519 273.0215 258.8751 272.7328 258.6266 272.3598 258.6576 271.947 258.4039 271.2924 258.1537 270.7659 258.0042 270.5066 258.1195 270.229 258.1788 270.1813 257.8586 270.2004 256.8954 270.1526 256.0404 270.0087 255.6563 269.6555 255.364 269.3334 255.224 269.1926 254.7865 269.3072 253.9236 269.568 253.3382 269.9808 253.234 270.5384 252.8128 270.8216 252.2167 271.1795 251.6631 269.9069 250.8864 269.2372 250.6089 268.4967 250.7266 267.578 250.9743 267.0968 251.0232 266.8558 250.9258 266.3229 250.2279 266.0334 250.1062 265.382 250.0616 264.8324 250.068 264.5175 250.3718 264.0315 250.4736 263.5455 250.4911 263.0516 250.1121 262.3095 249.6186 261.1443 249.2706 261.0035 248.869 260.7076 248.3894 260.2646 247.9456 259.5345 247.3566 258.9228 247.0508 258.6246 247.2389 258.2197 247.5733 256.6449 248.2796 255.9482 248.5548 255.5783 248.7517 255.2673 249.0464 255.1711 249.7745 255.016 250.5862 254.5626 250.9986 254.1331 251.3104 253.6806 251.343 253.2391 251.3283 252.8263 251.4579 251.5633 252.2728 250.9652 252.2079 250.476 251.7478 250.2661 251.4146 249.7005 251.4901 248.9744 251.8799 248.6387 252.5798 248.4606 253.2332 248.3023 253.5235 248.0589 253.6082 247.8434 253.6233 245.5813 251.7355 245.4421 251.6377 245.0389 252.0254 244.6698 253.026 244.4058 253.2181 244.2268 253.1413 243.2907 251.8604 243.0513 251.7375 242.8389 251.7812 242.5597 252.1956 241.9656 252.8065 241.5114 253.1775 241.5011 253.5907 241.0088 253.955 240.4345 254.3177 240.2436 254.3562 239.8626 254.2103 239.3663 253.7279 239.0068 253.2248 238.1184 252.7253 237.121 252.3026 236.4585 251.9717 236.0815 251.891 235.7315 252.0385 235.5565 252.2406 235.3068 252.7404 234.7079 253.5601 234.1765 254.2115 233.6794 254.6298 233.2841 254.9186 232.9914 254.6493 232.445 254.4298 231.8016 254.4282 230.9577 254.843 230.2912 254.0134 230.1186 253.9733 229.8641 254.0441 229.5706 254.2417 229.3646 254.705 229.1506 255.3401 228.7267 255.7561 228.3735 255.941 228.4777 256.2977 228.6774 256.6843 228.6646 257.0223 228.7911 257.5568 229.0122 258.0909 229.7996 258.9642 230.1003 259.4199 230.1607 259.8152 230.1878 261.2179 230.1568 261.8037 230.0001 262.9343 229.9897 263.5865 230.3166 263.88 230.634 264.2295 230.622 264.42 230.4829 264.4888 230.0319 264.8778 229.8418 264.9287 229.5467 264.77 229.1649 264.6495 228.8571 264.4936 228.5191 264.2435 227.7142 264.2717 226.3939 264.6519 226.1203 264.5445 225.9294 264.3294 225.8268 263.8855 225.8928 263.3626 225.7759 263.0297 225.5301 262.8325 225.7035 261.8995 225.2326 261.5297 225.301 261.4143 225.1451 260.4086 225.1674 260.1608 225.0847 260.0749 224.7514 259.9954 224.2591 260.1541 222.759 260.8154 221.4721 262.0391 220.8812 262.3091 220.2846 262.4205 219.5871 262.2089 218.8124 262.0709 217.7061 262.3807 217.1596 262.2379 216.9083 261.9882 216.684 261.6076 216.8184 261.126 216.7349 260.7709 216.2927 260.5907 215.7797 260.4372 215.4743 259.9719 215.351 259.4665 215.4719 258.8083 215.5323 258.102 215.2865 257.7787 214.5349 257.6021 212.6396 257.2808 210.978 257.1046 210.2813 257.1873 209.7134 257.1098 209.3841 256.9809 209.225 256.7582 209.2163 256.4393 209.4851 255.7056 209.7921 254.9905 210.5629 253.9506 210.6074 253.23 210.5676 252.398 210.9494 251.2869 211.6143 250.4546 211.9428 250.1953 211.8625 249.825 211.596 249.4858 211.2174 249.2985 210.5883 249.0813 209.6068 249.0209 208.2611 248.799 206.7029 248.3047 206.8803 247.3582 206.8564 246.7648 206.6632 246.2781 206.3442 245.9325 206.1661 245.6239 206.446 244.7772 206.0833 243.853 205.6546 243.4843 205.2132 243.0063 205.1798 242.4909 205.3818 242.0105 206.4603 240.9801 206.4691 240.7308 206.2026 240.7511 205.8932 240.7725 204.4194 241.1491 204.2627 240.9129 203.7354 240.7757 202.6593 240.7483 201.3986 240.8167 199.8055 241.1849 198.346 241.8296 197.6779 242.2726 197.1108 242.5478 196.6519 242.6369 196.1214 242.4424 196.1516 241.8117 197.1482 240.6524 197.2913 239.8547 196.9859 239.1707 196.9525 238.6231 196.6025 238.2731 196.111 238.1029 195.8517 237.7131 195.835 236.577 196.2741 235.4074 196.9859 235.0383 197.4186 234.8602 197.5331 234.6331 197.312 233.8147 197.3462 233.2937 197.7733 232.286 198.1981 231.522 198.9998 231.6501 199.3585 231.4612 199.7554 231.1907 200.1897 230.731 200.4792 230.1874 200.8315 228.9219 201.0733 228.7311 202.0834 228.9402 202.3865 228.7943 202.9392 228.0514 203.4594 227.1483 204.2158 226.8683 204.7614 226.8401 205.0128 226.5398 205 226.0984 204.4815 225.3985 204.2619 224.8389 204.3264 224.4997 205.0692 224.2929 205.2514 223.8865 205.14 222.9972 205.4462 221.9291 205.6284 220.6772 205.6896 219.7426 205.6825 219.0292 205.6093 218.2827 205.5035 216.9182 205.1639 215.7316 205.2259 215.2861 205.1798 213.8477 204.9714 212.6217 204.5531 212.4069 203.7768 212.0092 203.3536 211.9313 202.9981 212.076 202.8637 212.5028 202.5225 212.9016 202.1017 212.8038 201.9013 212.4049 201.6309 211.8828 200.7305 209.4036 200.6319 208.6898 200.4736 207.9807 200.1698 207.6256 199.8492 207.4168 199.131 206.5836 198.7524 206.2361 198.5679 206.1784 198.1734 206.2372 197.7869 206.2388 197.4695 205.8237 197.1808 205.317 196.8897 205.0673 196.4037 204.9285 195.9042 204.9841 195.6131 205.4228 195.4143 205.6729 195.0373 206.2571 194.4264 207.0668 194.1496 207.3643 193.8808 207.2108 192.7052 206.3677 192.1374 206.1346 191.3674 206.3892 190.1632 206.1879 189.6972 206.1502 188.6958 205.4765 188.287 205.3938 186.8625 205.8328 186.5475 206.143 186.363 206.1482 185.9836 205.9915 185.671 205.7835 185.6503 205.6522 186.0353 205.3234 186.0655 205.0931 186.0448 204.8605 186.6008 204.1995 188.1096 202.9198 187.8583 202.3829 187.2649 201.3262 187.183 200.8136 186.9277 200.5822 186.2039 200.7715 184.6999 201.7303 184.4955 201.6253 184.5304 201.2924 184.3754 200.3265 184.8518 200.0366 185.5819 199.6818 186.1458 199.2861 186.2771 198.9664 186.1252 198.8693 185.2924 198.993 184.9647 198.7759 184.4255 197.8887 184.027 197.5407 183.6667 197.353 182.4426 197.8111 181.0197 198.4391 179.4353 199.3144 179.4449 199.7637 179.2556 199.8791 178.9525 200.1618 178.6567 200.5527 178.4045 200.6903 178.1102 200.7027 177.5073 200.5913 176.4129 200.1475 175.2246 199.78 174.9693 199.8218 173.3563 199.5625 173.3046 199.3557 173.0628 198.9457 172.6039 198.5759 172.1641 198.4506 170.9018 199.234 169.4781 199.817 168.6652 200.507 167.9979 201.1914 167.2336 201.3247 167.1978 201.7482 166.8749 202.1288 166.2934 202.5976 165.141 203.1958 164.3607 203.5179 161.8815 203.8126 160.9971 204.0126 160.6272 204.3276 160.2304 205.1265 159.9162 205.863 159.2298 206.4711 157.9826 207.2816 156.5168 207.9413 156.1151 208.3792 156.0411 208.6385 156.2217 208.7335 156.3999 208.93 156.4022 209.2294 156.2114 209.5555 155.2529 210.1234 154.7153 210.3942 154.1792 210.568 153.5779 210.5994 153.0005 210.5223 152.8406 210.4304 152.6107 210.5489 152.0842 210.6686 151.6253 210.7064 150.6183 211.3356 150.0624 211.3411 149.3728 211.2047 148.4597 211.0958 147.8027 211.0946 147.782 210.7613 147.8839 209.7647 147.588 209.5329 146.6741 209.2879 145.6497 208.9634 145.1549 208.6182 144.8797 208.5013 144.4956 208.5593 143.8768 208.9216 143.289 209.3475 142.8253 209.3833 142.3505 209.1837 141.8955 208.9236 140.3406 208.5553 139.643 208.4997 138.3991 208.5625 137.3842 208.4861 137.2243 208.374 137.2299 208.1692 137.3794 207.7699 137.4677 207.3762 137.3476 207.1527 136.3097 206.8775 135.3624 206.6795 134.357 206.6051 133.6794 206.7439 133.02 207.0521 132.4736 207.6069 131.683 207.8503 130.7397 208.2646 130.2816 208.6512 129.5912 209.4804 128.5874 210.4984 127.6735 211.491 127.2003 212.4578 126.5743 213.0663 125.9396 213.5049 125.4823 214.7099 125.0027 214.3289 124.4515 213.7829 124.3227 213.0337 124.9812 211.0341 125.1355 210.2093 124.9709 209.8947 124.7681 209.0831 124.3815 208.8162 123.2807 208.3915 122.9292 208.3792 122.5522 208.6723 122.1815 208.8588 121.6916 209.0445 120.4635 209.3933 119.3715 209.5555 119.1098 209.6852 119.0279 209.917 119.1162 210.1934 118.4123 210.0892 117.6797 210.0288 117.088 210.0673 115.638 210.5943 115.1481 210.6448 114.6001 210.5907 113.858 210.5744 112.4454 210.5899 111.2293 210.4563 110.2415 209.7206 109.5383 209.3964 108.7939 209.1463 108.0446 208.9598 107.7941 208.5641 107.5571 208.3664 106.9375 208.3004 106.4491 208.4456 106.1429 209.4366 105.8828 209.6319 105.2617 209.7206 104.6095 209.4692 103.7083 208.9598 103.352 208.3927 103.0489 208.2082 102.5741 208.4587 102.5479 209.1837 102.4556 209.6712 101.8885 209.8693 101.5592 209.7241 101.2952 209.2235 100.6318 208.0372 99.974 207.3424 99.3131 206.8799 97.133 206.8914 95.516 206.7562 94.7859 206.5661 94.5099 206.1076 94.7779 205.1953 95.0929 204.4819 95.0841 204.316 94.8177 204.2313 94.3516 204.1741 92.6081 204.6306 92.1341 204.5769 91.8287 204.4218 91.4612 204.289 91.1558 204.0774 90.9426 203.7676 89.4346 203.0073 88.9892 202.5921 88.1859 202.0691 87.5066 201.7136 87.074 200.6987 86.685 199.722 86.4695 199.2034 85.8229 198.9274 85.1221 198.7186 83.937 199.1426 82.9651 199.4671 82.2516 199.4997 81.2185 198.4999 80.3921 197.4182 79.4146 196.4781 78.7655 196.0052 77.6131 195.9611 76.3126 195.429 74.574 194.2252 73.3173 193.3268 71.1523 192.3302 70.6496 191.9123 70.4571 191.5555 70.1605 190.8544 69.7079 190.1891 68.1728 189.8988 66.4381 189.6944 64.608 190.1008 63.2877 192.0904 62.653 192.5255 62.1089 192.5505 61.6627 192.0443 61.2937 191.5106 61.0917 190.9192 60.1802 190.4838 59.1478 189.9151 58.6213 189.4717 58.0247 189.1945 57.4719 189.0752 56.4014 188.701 55.1908 188.2786 54.6229 188.221 54.5824 187.9203 54.7526 187.2816 54.6484 186.6668 54.2825 186.4175 53.7289 186.4819 52.4508 185.6118 52.4023 185.6026 52.3864 185.5676 52.0221 185.3199 51.3929 184.9643 50.3311 184.989 49.5262 185.1206 48.9376 184.7571 48.085 184.1829 47.9315 184.0548 47.6802 183.8448 46.8156 182.7369 45.7936 181.4265 45.2774 181.2344 45.0117 181.3331 44.7087 182.0294 44.4812 181.9594 44.1026 182.0071 43.6548 182.2501 43.2237 182.3142 42.9485 182.2422 42.8324 182.0688 42.9549 181.1501 42.6956 180.863 42.9263 180.2239 43.316 179.6719 42.9167 179.2623 42.4244 178.6757 42.3719 178.1452 42.6383 177.4763 42.7664 176.9037 42.686 176.6933 42.2963 176.3735 40.8153 174.8039 40.7358 174.6373 40.4845 174.1151 40.3707 173.3249 40.1767 172.7602 39.95 172.3271 39.9667 172.1247 40.1361 172.0189 41.0635 171.9123 41.9201 171.8459 42.4848 171.6988 42.7767 172.0133 42.9135 172.4949 43.0583 172.7491 43.6007 173.206 44.2609 173.6438 44.9019 173.5874 45.4667 173.3997 45.9582 172.6862 46.305 172.5116 46.7074 172.4802 46.705 172.4273 46.6844 171.9676 46.8259 170.835 46.7774 170.3812 46.5953 169.972 46.6279 169.5175 46.5682 168.8561 46.1061 168.4048 45.8055 168.2322 45.7586 167.9888 45.9121 167.5362 46.0218 167.0164 45.8373 166.5738 45.4627 166.3774 45.0236 166.0429 44.5011 165.5943 44.2426 165.2666 43.8218 164.9055 43.3072 164.3468 43.2102 163.1199 43.1601 161.8294 42.9803 161.1876 42.6948 160.1631 42.7362 159.8195 42.9095 159.5579 44.3651 158.7331 44.6816 158.4133 44.7333 158.17 44.6777 157.8073 44.4033 157.4056 43.8202 157.093 42.9915 156.5832 42.2398 156.0519 40.9768 155.7278 39.4394 155.3333 39.0735 154.9463 38.6997 154.0022 38.0673 152.5634 37.3937 151.0287 36.8759 150.083 36.8512 149.6277 37.163 148.4673 37.124 148.2199 36.8536 148.1348 36.3358 148.2863 35.9206 148.4704 35.5675 148.3746 35.2366 148.1813 35.1682 148.1141 35.1428 148.0887 34.5288 148.2135 33.2951 148.2847 32.8672 148.2716 32.2683 148.2541 31.0331 147.9888 29.3652 147.6313 27.6456 147.1326 26.7333 146.7381 26.4128 146.6001 25.6334 146.1869 25.0766 145.8318 24.9772 144.9028 24.5763 144.9748 23.629 145.3092 22.537 145.5228 21.9357 145.526 21.6915 145.3757 21.3288 144.3966 21.0648 144.1214 20.5724 144.0128 20.0403 143.8398 19.7731 143.5841 19.7126 143.2624 19.9504 142.8921 20.232 142.6078 20.2789 140.8683 20.0952 140.2519 19.9417 139.7349 19.5504 139.0903 19.1861 138.6914 18.6317 138.3231 17.7767 137.9398 17.0155 137.7986 16.0913 138.0778 15.7978 137.9704 15.4121 136.7857 15.1663 136.5431 13.5255 136.0563 12.7818 135.943 11.9284 136.0961 11.4408 136.2257 11.0495 136.0086 10.437 135.7346 9.8357 135.5473 9.0897 135.5397 8.6077 135.6578 8.486 135.5887 8.2538 135.3723 7.2619 134.7197 7.2293 134.5539 8.7509 133.9112 9.6464 133.6662 10.1165 133.4706 10.2167 133.5119 10.4482 133.809 11.0415 134.0055 11.4575 133.9518 11.6762 133.8023 12.4111 133.4475 12.9862 133.0363 13.3099 132.6971 13.1365 132.163 12.2322 131.5188 11.6571 131.1732 11.4814 130.9401 11.6285 130.2406 11.8401 129.5466 11.7017 129.2822 11.5307 129.0563 11.4535 128.2983 11.0598 127.3836 10.6295 126.8499 10.511 126.1309 10.4864 125.4561 11.0065 124.401 10.814 123.9449 10.266 123.54 8.385 122.8071 6.4578 122.3203 5.7237 122.3386 5.2679 122.3088 4.7303 122.7379 4.4066 123.297 3.954 123.3471 3.1324 123.1093 2.5828 122.751 2.1954 122.0014 1.8916 121.0378 1.723 120.7359 1.8105 120.4759 1.999 120.244 2.5247 120.0273 2.6122 119.8046 2.5335 119.5318 2.1111 119.1866 1.6769 118.6978 1 117.6825 1.1288 117.1234 1.2362 116.3185 1.198 115.8933 1.8829 115.7844 2.7562 115.5668 3.1618 115.2057 3.4418 114.8375 3.503 114.6096 3.2413 113.7295 2.893 113.3362 2.8572 113.0324 3.0274 112.8002 3.2581 112.3989 3.6995 111.5773 4.1298 111.0535 4.3652 110.9211 4.8917 110.7994 6.1747 110.655 7.553 110.2872 9.1915 109.188 9.7355 108.875 10.4514 108.7179 10.962 108.7291 11.0543 108.595 10.7242 107.9146 10.8045 107.668 11.0002 107.474 11.2483 107.3853 12.3793 107.7436 13.2495 107.7062 14.3057 107.4931 16.5844 106.2936 16.8676 106.3127 17.0951 106.4746 17.3711 107.1972 17.6852 108.7231 17.8578 108.914 19.4446 108.9351 20.5223 108.3795 20.9948 108.2483 21.7631 108.3385 22.1655 108.0785 22.5911 107.8963 23.0818 108.5358 23.7157 108.23 24.3981 107.7436 24.7298 107.2409 25.1943 106.6981 25.5546 106.0101 25.6986 105.3595 25.872 105.0549 26.2569 104.7415 27.1986 103.4041 27.8803 103.0633 28.5229 102.9412 30.1145 103.1726 30.9448 103.1432 33.3699 103.319 34.4906 103.0621 35.2716 102.8071 36.4217 102.8473 37.7818 102.6441 39.5968 100.9679 39.6175 100.6115 39.7281 100.2333 40.3835 99.8595 41.2003 99.5171 42.8244 98.6987 46.13 97.403 47.3119 96.8844 47.8074 96.8988 49.0251 96.5734 51.1607 95.9391 51.766 95.1501 52.3299 94.9934 54.8266 94.8515 54.9809 94.7616 55.0707 94.6284 54.9323 94.0581 54.7709 93.5678 54.9634 93.423 55.1757 93.1983 55.1431 92.8825 54.7414 91.8625 54.5259 90.8937 54.3843 90.0208 54.4098 89.6951 54.7128 89.1336 55.1041 88.6222 56.5191 88.1457 57.4552 88.0014 57.4942 87.69 56.7362 87.4959 56.1882 87.1845 56.0896 87.0068 56.1158 86.8047 56.2439 86.6198 57.1952 86.2722 58.0907 85.9262 59.1836 86.1362 59.3999 86.0022 59.4651 85.655 59.2313 85.3067 59.0094 84.7372 58.5043 84.4457 58.4852 84.0961 58.7978 83.4928 58.3659 82.3761 57.8991 81.3911 57.1053 79.7053 56.5803 79.2193 56.2892 78.4422 55.9592 78.0342 55.9894 77.4313 56.0411 77.0078 55.956 76.1671 55.8049 75.256 55.9576 74.3306 56.2503 73.7213 56.1723 73.4883 56.3282 73.3133 56.7752 73.2548 56.9876 73.0059 56.7752 72.7498 56.0045 72.5525 55.1431 72.2447 54.1067 72.2801 53.0425 72.3334 52.5128 72.1055 52.0499 71.8152 52.0221 71.6283 52.66 71.1372 53.5476 70.6293 54.9244 70.405 56.4451 70.0702 57.2127 69.8268 58.2355 69.6514 59.419 69.5779 60.0155 69.6288 61.5387 69.3042 63.9367 68.6767 66.1136 68.1502 66.8462 67.8364 67.391 68.1502 67.6415 68.8409 68.2754 69.1989 68.9062 69.3719 69.2673 69.3635 70.3545 69.0947 71.5261 68.8974 71.989 69.0052 72.5855 69.3587 73.2536 69.6753 73.602 69.6598 73.9074 69.416 74.2168 68.9229 74.4133 68.2945 74.4515 67.6324 74.3361 67.2263 74.0991 67.0772 73.0333 66.8378 72.0153 66.4473 71.8975 66.0906 71.9222 65.8364 72.1902 65.2125 72.8544 64.0691 73.5225 62.4899 73.8756 61.2448 74.9923 59.388 75.8704 57.4513 77.2949 54.6695 77.5327 54.1199 77.6632 53.2406 77.7395 52.8783 78.235 52.6874 79.0718 52.8731 81.1119 53.5078 82.6636 54.0407 83.3143 54.2213 84.2806 54.4102 85.7743 54.6329 86.6381 54.5669 87.3961 54.4356 88.4038 54.4241 89.9802 54.5899 90.4678 54.5967 91.0731 54.6178 91.5042 54.8866 91.7197 55.4974 92.0466 55.7714 92.6336 55.67 93.8879 55.132 94.6888 54.7084 95.6902 54.0964 96.6828 54.0121 97.7367 53.8753 98.1025 53.5719 98.4899 52.8576 99.1365 52.3188 99.2439 51.6367 99.0156 51.1559 98.5662 50.3721 98.5798 49.844 98.3626 48.3129 98.0723 46.9353 98.3682 45.8258 98.89 44.5866 99.0952 44.2076 99.426 43.7085 99.8921 43.112 100.5475 42.9247 102.3904 42.797 104.0964 42.5461 104.9674 42.288 105.8693 42.1321 106.4078 41.9428 107.3392 41.0718 107.7806 40.57 108.1051 39.2377 107.8673 38.5975 108.0669 38.0316 108.5163 37.6987 109.1486 37.3658 109.5726 37.309 110.4729 37.2083 111.9507 37.2414 112.7071 37.4048 113.4714 37.4796 113.9558 37.3587 114.2787 37.1065 114.7735 37.0254 115.5211 36.9045 116.2878 36.753 116.7094 36.7816 116.7985 37.1563 116.7261 37.4497 116.8756 37.8434 117.181 38.1023 117.0808 38.3843 116.6489 38.5474 116.2242 38.7669 116.1304 39.0675 116.668 39.4413 116.8526 39.8005 117.7513 40.0152 118.4497 40.257 118.7113 40.4884 118.631 40.7501 118.3089 41.0321 117.9963 41.3343 117.9565 41.5157 118.0567 41.7268 118.732 41.8676 119.5107 42.1019 120.7467 42.4033 121.5937 42.9624 122.4337 43.1167 122.8385 43.6628 122.9133 44.4549 123.7754 44.859 125.0496 45.4197 125.6971 45.5231 126.1313 45.8413 126.7549 46.2274 127.3085 46.3483 127.9654 46.4036 129.0535 46.0457 130.2696 46.0115 130.9353 46.2159 131.5669 46.9886 132.0123 47.2324 132.2763 47.4495 132.7042 47.6571 133.1377 47.6873 133.782 47.5159 134.1749 47.1739 134.7388 47.2443 134.9504 47.4658 135.0538 47.848 135.352 48.3216 136.0671 48.6744 137.0629 48.8855 137.2044 49.0566 137.3412 49.5306 137.6117 49.8591 137.9744 50.287 138.3188 51.0684 138.3919 51.7147 138.5526 52.0702 139.0147 52.6496 139.7512 53.5758 140.339 54.3613 141.019 54.5136 141.5965 54.7633 141.9273 55.3435 142.5398 56.4368 142.6384 57.153 142.6909 57.6851 142.8913 57.9269 142.9319 58.2287 142.4236 59.3773 141.9902 59.8962 141.9353 60.3329 142.2288 61.0933 142.6296 61.6822 142.6702 62.2457 142.3282 62.6589 141.7365 63.1755 141.4541 63.4706 140.9936 63.7303 140.2913 64.7297 139.9739 65.8344 139.9015 66.4039 140.1672 66.8159 140.6166 67.2697 140.7271 67.663 141.4605 68.5407 141.6561 69.0847 141.9552 69.1022 142.2781 68.9233 143.0631 68.9109 143.7774 69.1022 144.4622 69.5047 145.1979 69.7198 146.2478 69.6657 146.8101 69.8817 147.4154 70.0587 148.6649 70.1203 149.6018 70.1171 151.0431 70.1239 152.2067 70.3947 154.2524 70.609 155.5154 70.5923 157.2175 70.3907 158.261 70.5176 161.3423 70.819 163.1494 71.134 164.2915 71.4883 165.0964 72.0507 166.0159 72.9279 166.7468 73.3292 168.713 73.5718 170.0603 74.5954 171.1158 74.978 172.8886 75.969 174.1429 76.356 175.6398 76.7135 178.0872 76.5616 178.2216 76.6964 178.0331 77.2349 177.8859 77.9722 177.8859 78.5059 178.1373 78.7779 179.0726 78.9389 179.5149 79.2014 179.8537 79.7041 180.0493 80.0187 180.832 81.5625 182.0918 83.846 182.235 84.7233 182.6661 85.2892 184.0325 86.1879 184.7508 86.8529 185.8181 87.5516 186.1681 88.1982 186.2484 89.0334 186.5181 89.2485 188.4715 89.0572 190.1632 88.9236 193.1984 88.683 197.3788 89.1189 201.6897 89.5404 205.5019 89.9134 207.3798 90.0968 211.6231 90.4877 213.9813 89.989 215.825 89.5989 216.6601 89.6526 220.1844 90.092 222.2492 90.3282 224.8509 90.6253 226.6571 90.7346 228.1357 90.7275 228.8181 90.8516 229.4767 91.0429 229.9158 91.3216 231.2679 92.7346 232.0259 93.3574 233.522 93.8278 236.9309 94.3655 238.8175 94.692 240.9841 95.067 242.4094 95.6321 244.0534 96.2895 246.1826 97.1409 248.5131 96.7691 251.0209 96.3686 252.5933 96.1173 252.5933 97.8953 254.8362 98.0381 255.5425 98.017 256.5336 98.41 257.0919 98.2437 257.62 97.858 258.285 97.2491 259.2402 96.9815 260.8914 96.2986 261.293 96.1328 263.746 95.1645 267.4078 93.9706 269.0495 93.3924 269.541 93.2639 270.47 92.9688 271.096 92.764 272.2039 92.5998 273.7079 92.4968 275.3504 92.2709 279.0671 91.8498 279.5332 91.81 281.6211 91.6362 282.5079 91.4724 283.8338 91.5583 285.5645 91.6191 286.7114 91.7265 288.2361 91.6422 290.3303 91.5272 292.0261 91.5451 292.8676 91.402 294.1083 90.9574 294.9435 90.605 296.2527 90.1779 297.8752 89.7353 299.0062 89.3328 299.7555 89.0664 300.6638 88.8142 300.9016 88.4893 301.1633 88.2404 301.6453 87.824 302.5138 87.0481 303.174 86.3693 303.4993 86.0686 304.2405 85.3902 304.841 84.8787 305.6062 84.1904 306.252 83.9677 307.0689 83.7784 309.2211 83.1031 309.6483 82.9575 310.0054 82.9289 310.7665 82.3841 311.4092 81.912 311.8276 81.5581 312.6993 81.4312 313.1479 81.1767 313.2266 80.8427 313.1359 80.3336 312.7168 79.8127 312.3636 79.3585 311.1165 78.4915 310.4555 77.9539 309.7803 77.2635 309.5075 76.6141 309.0462 76.2009 308.8235 75.835 308.8942 75.4123 309.5337 74.6599 309.7397 74.1854 310.0062 73.3459 310.6075 72.0896 311.0974 71.503 311.6645 70.93 312.8615 70.1601 313.9576 70.0169 314.6113 70.1692 316.0709 70.1684 317.042 70.2078 317.7586 70.5927 318.5524 71.3523 319.448 71.6311 322.2389 72.2264 323.4336 72.3529 324.2878 72.3787 325.5477 72.576 325.9732 72.6174 326.6174 72.753 327.1519 72.6082 327.9624 72.0996 328.9797 71.5273 329.4179 71.3961 330.2276 71.1495 330.6348 70.9169 331.3443 70.2758 332.2701 69.7787 333.3948 69.0318 333.9499 68.4687 334.0716 68.1056 334.1933 67.7123 334.5433 67.5055 335.2289 67.3158 335.998 67.2641 337.4678 67.601 339.4499 67.5035 339.8969 67.455 341.7048 67.2613 342.5192 67.1023 343.6725 66.9496 344.553 66.326 345.7341 65.5819 346.5923 65.1683 347.165 65.0888 347.88 64.6601 348.23 64.1988 348.1361 63.7935 348.0049 63.4583 348.4248 62.8383 349.1828 61.7506 349.8931 61.244 350.4785 60.8344 350.8523 60.177 351.3144 59.9873 351.8807 59.9149 352.6801 59.4695 353.267 59.3776 354.2422 59.5908 355.685 59.6453 356.606 59.6684 357.1301 59.5888 357.3218 59.3502 357.3171 58.9808 357.609 58.1587 357.7179 57.8875 357.9828 57.7627 358.8688 57.746 359.4685 58.0414 359.8805 58.2852 360.4516 58.317 361.0402 58.158 361.83 57.493 363.14 57.1081 363.8367 57.0106 365.0735 56.6973 365.853 56.8102 367.287 56.9021 367.843 56.8225 368.4474 56.9021 368.9962 56.4527 369.4329 56.3457 370.3547 56.5521 370.9362 56.8997 372.0242 57.3355 373.4066 57.538 374.5646 57.4334 375.7553 57.6183 376.4592 57.6016 376.7917 57.429 377.7668 57.0627 378.0006 56.5684 377.9052 56.0912 378.0165 55.5507 377.7302 55.1534 377.1257 54.5653 376.8927 54.1728 376.8712 53.6593 376.4958 53.171 375.5922 52.5808 374.9957 52.3084 373.7716 51.2907 373.3588 51.0521 373.2173 50.8847 373.0725 50.5431 372.6199 50.3808 372.0266 50.1152 371.7053 49.844 371.4961 49.3735 371.3712 49.0649 370.8471 48.8108 370.3221 48.6676 369.7288 48.4871 368.7489 48.2222 368.1834 47.6957 367.1836 46.7102 366.6189 46.3785 364.5112 46.2521 363.7572 46.0127 362.9005 46.0938 362.3899 46.2513 361.2597 46.2493 360.6727 46.3467 359.9259 46.995 358.938 47.8388 358.1212 48.3546 357.5422 48.8891 357.2717 49.0808 356.7436 48.9655 356.0198 48.3634 354.9827 47.8249 354.0211 47.5792 353.6098 47.4447 352.4645 47.3087 351.5801 47.3517 350.4522 47.5549 349.3507 47.5183 348.8535 47.3895 348.1528 47.403 346.8794 47.9621 346.2201 48.5992 345.4414 48.7981 344.7367 48.3801 343.9223 47.8858 343.146 47.2678 342.6672 46.6959 342.4023 45.1823 343.3337 44.7313 344.5236 44.2263 344.6134 43.4273 344.5737 42.5365 344.8083 41.5467 345.894 40.6336 346.4778 39.8768 346.5502 39.4063 347.0703 38.6237 347.5706 37.7985 348.2522 36.716 349.5455 34.7952 351.0734 32.526 351.8354 31.3942 353.5104 32.0945 354.5913 32.4596 356.4151 33.0144 358.3009 33.14 360.1032 33.7393 361.033 33.9211 361.5285 33.9215 364.0793 32.4612 366.2371 31.2256 368.7163 30.2616 370.5369 30.1312 371.9049 29.85 372.8204 29.4181 373.3596 28.6971 373.5243 27.687 373.16 27.0765 372.2668 26.8654 372.0369 26.6522 372.4688 26.4363 372.7878 26.0155 372.9898 25.39 373.506 24.7962 374.334 24.2347 374.7905 23.6123 374.8764 22.9291 375.3743 22.2479 376.2826 21.569 376.7797 20.9371 376.8664 20.3525 377.3269 19.6395 378.5796 18.3764 379.3933 16.9221 380.7788 15.9259 383.0067 14.9034 384.3986 13.8893 384.9553 12.8836 384.9124 11.9964 384.2681 11.2272 384.1456 10.4454 384.5433 9.6496 384.1926 9.0547 383.0926 8.6606 381.781 8.5632 380.2555 8.7628 379.3989 8.515 379.2096 7.8203 379.6184 7.2584 380.6253 6.8293 382.2797 5.7853 384.5831 4.1258 386.8745 3.2075 390.2954 2.9431 393.0522 2.401 395.8614 1.8483 397.8888 1.5751 398.234 1.7584 399.3388 1.8033 401.2031 1.7095 402.937 1.4717 404.5373 1.0899 405.8035 1 406.7357 1.2024 407.2686 1.2132 407.6376 1.2374 407.8412 1.2358 408.2326 1.074 409.3167 1.3635 411.3838 2.2217 412.6834 2.6039 413.2179 2.5108 413.8001 2.749 414.4333 3.3185 415.2215 3.6549 416.638 3.8096 418.0426 4.4352 418.6113 4.4686 418.811 4.119 419.3343 3.9182 420.1822 3.8665 421.4086 4.1747 423.0121 4.8432 424.0182 5.1375 424.4255 5.0572 424.8574 5.1809 425.2049 5.495 425.2344 5.8812 425.1158 6.0888 425.5016 6.4153 425.947 6.4153 426.6724 6.5716 427.2403 7.1486 427.7509 7.4158 428.108 7.6473 428.1724 7.8394 428.2059 8.0338 428.0993 8.1846 427.9052 8.4327 427.8463 8.7 428.0897 9.0002 428.9917 9.2177 429.2995 9.4416 429.3687 9.7292 429.651 10.0469 430.2643 10.414 430.4989 10.7214 430.3565 10.9687 430.5363 11.1755 430.8393 11.3362 430.9045 11.9228 430.9316 12.2608 431.4263 12.6398 431.5281 13.4149 431.8741 14.2739 433.0401 15.451 433.4235 16.0885 433.3248 16.8469 433.4919 17.2021 434.024 17.375 434.2761 17.696 434.2459 18.1652 434.4543 18.4567 434.6205 18.7669 434.5068 19.2497 434.6746 19.6856 434.9458 19.9401 435.1399 20.411 435.248 20.9987 436.0267 21.9293 437.4751 23.2035 438.3611 24.1929 438.6856 24.8984 438.688 25.4787 438.3707 25.934 438.3532 26.2653 438.6363 26.4725 438.7206 26.7532 438.6069 27.1072 439.0801 27.5271 440.6677 28.2569 440.033 29.3752 439.866 30.1622 439.9527 30.9898 440.3464 31.5732 441.0463 31.912 441.4813 32.2659 441.6524 32.6342 442.4923 33.0366 444.0019 33.4725 445.9362 33.5485 448.2953 33.2637 449.7389 33.2156 450.2686 33.4045 450.4475 33.6904 450.2789 34.0742 450.6782 34.3263 451.647 34.4472 452.3151 34.689 452.6801 35.0521 453.1279 35.1547 453.6576 34.9972 454.173 35.0195 454.6733 35.2215 455.001 35.1523 455.2826 34.9316 455.7391 34.9316 456.2068 34.9368 456.4963 35.4693 456.9664 35.7687 457.6154 35.8351 458.6048 36.4838 460.5964 38.3294 461.8905 38.986 463.1877 39.192 464.7992 39.2342 465.3209 39.9508 464.901 40.7088 464.7912 41.3411 465.1587 41.5678 465.6629 42.311 466.3772 42.7429 466.5124 43.0845 466.8448 43.4667 466.7057 44.1746 466.094 45.2086 466.261 46.0914 467.2059 46.8228 467.75 47.5275 467.8916 48.2043 468.1286 48.6155 468.461 48.7611 469.4314 48.7106 471.0396 48.4648 472.2199 48.5074 472.9732 48.8378 474.8343 48.8502 477.8034 48.5451 479.6797 48.4513 480.4624 48.5694 481.1599 48.1335 481.7707 47.1433 482.3434 46.6776 482.8779 46.7361 483.7273 46.4183 484.8918 45.7236 485.9011 45.3875 487.1808 45.4213 488.5425 45.4567 489.3967 45.1648 490.1992 44.5564 491.5872 44.0187 494.5491 43.3168 495.2618 43.2066 495.6006 43.244 496.5876 43.3542 497.4626 43.6278 498.2905 44.1801 498.4178 44.5341 498.3239 44.9994 498.1442 45.2694 497.803 45.5728 497.4824 46.0648 497.6884 46.4501 498.1688 47.2721 498.5625 47.8655 499 48.5658 498.8027 48.8179 498.5395 49.3035 497.7282 50.1259 497.286 50.4413 496.8104 50.7491 495.9879 50.8235 495.6372 50.8946 495.2411 51.0243 494.9905 51.3162 494.7066 51.5206 494.2381 51.9314 494.2 52.2854 494.4139 52.8107 494.5189 53.3496 493.9876 53.8308 493.5764 54.5708 493.4539 54.7935 493.2471 55.3539 493.1867 55.548 493.057 56.7287 492.5265 57.5344 491.786 58.4721 491.9499 59.0305 492.0803 59.5487 491.8974 59.8004 491.8528 60.0199 491.7431 60.5194 491.5108 60.7107 490.8379 61.0229 490.4347 61.3991 490.5198 61.9702 490.313 62.4645 490.0044 62.9019 489.6799 63.1863 489.217 63.3696 488.9068 63.5243 488.6753 64.0811 488.6029 64.511 488.3858 64.9393 488.5202 65.3779 488.2824 65.7569 487.6231 66.0214 487.2492 66.1773 486.9024 66.2409 486.2431 66.6517 485.6513 68.0639 485.5169 68.8863 485.6521 69.6172 484.8234 70.0746 484.2069 70.438 483.822 70.3068 483.414 70.1839 482.473 70.0256 482.0046 69.9187 481.0549 69.6816 479.5397 69.379 478.0603 69.0263 477.1321 68.8413 476.4004 68.6946 475.8444 68.4524 475.3768 68.0197 474.9131 68.1955 474.4828 68.7057 473.7653 69.0092 473.4392 69.5695 473.1521 70.0006 472.4092 70.5748 472.0784 70.8119 470.6236 71.202 470.2952 71.332 469.1093 71.4148 468.7076 71.587 468.2892 71.9496 468.1763 72.3111 468.4706 72.6917 468.9327 73.4537 469.1466 73.975 469.4632 75.005 470.5179 78.2434 470.1759 78.8025 469.8577 81.2312 469.9341 81.6698 469.9054 82.3523 469.9245 82.8533 470.1424 82.9766 470.4256 83.1508 470.5711 83.4439 470.5346 83.8917 470.3882 84.221 470.1647 84.8716 469.8688 85.8129 469.5427 86.176 469.3264 86.4623 469.1403 86.6608 469.1188 87.3269 468.9971 87.7671 468.4841 87.923 467.9735 88.1783 467.3682 88.0841 466.8369 88.137 466.1783 88.308 464.9956 88.5052 464.3092 88.7701 463.9815 88.963 463.754 89.194 463.7143 89.4155 463.8718 89.5321 464.5343 89.6235 464.99 90.0395 465.0545 90.4948 464.586 90.7549 464.3522 90.469 463.9616 90.3779 463.2323 89.9775 462.7018 89.5368 462.3033 89.0493 462.3208 88.0085 462.2516 87.8522 461.5262 87.6391 461.3107 87.3293 460.9671 87.1813 460.4755 87.2756 460.1065 87.1758 459.8154 87.0064 459.4654 86.9861 459.1624 87.2553 459.0033 87.8323 458.4959 88.7908 458.4489 89.3698 458.2294 90.1978 458.0115 91.2469 457.8333 91.4656 457.2638 91.497 457.0682 91.5654 456.7723 91.9221 456.4152 91.9826 456.0986 91.7738 455.5999 91.5654 455.1291 91.5384 454.7043 91.7472 454.2064 92.2009 453.9233 92.5688 453.8223 92.912 453.742 93.3363 453.2385 93.7431 452.7788 93.9559 451.8291 94.5552 451.5261 94.8042 450.8452 94.8073 450.1055 94.7843 449.1097 94.9457 447.4848 95.028 446.5121 94.9068 445.3095 95.0209 444.3733 95.2173 444.2389 95.5096 444.2731 95.9423 444.4616 96.2251 444.6907 96.414 445.0796 96.9958 445.4852 97.5585 446.1048 97.9224 446.3609 98.3129 446.3745 98.6764 446.081 99.1345 445.6364 99.7334 445.222 100.1021 444.911 100.0898 444.4346 99.875 444.1116 99.6058 443.3425 99.5044 441.4615 99.6766 440.5205 99.5565 440.0712 99.3366 439.2837 99.3199 438.066 99.0264 437.324 98.9325 436.974 98.7436 436.9064 98.3129 436.5556 98.0166 436.36 97.6619 435.917 97.2165 435.4922 96.993 435.0747 96.8988 434.6165 97.168 434.1313 97.4106 433.7679 97.3565 433.5929 97.4241 433.3925 97.6249 432.613 98.0397 432.4261 98.4195 432.1151 99.224 431.8988 100.0512 431.7102 100.3439 431.3929 100.3944 431.07 100.6429 430.3931 101.422 429.7815 102.1378 428.8931 102.6226 428.4747 103.0672 428.2599 103.4713 427.6268 104.0368 426.697 104.1378 425.9566 104.3024 425.5032 104.3458 425.1771 104.5741 424.9401 104.9224 424.8255 105.0604 424.408 105.0604 423.9904 105.3567 422.9668 106.03 422.1324 106.1545 421.0857 106.6042 420.1655 106.9458 419.7829 107.1379 419.6803 107.3499 419.5459 107.6195 419.1013 107.6732 418.6702 107.6597 417.7142 108.2793 417.229 108.8046 415.3447 109.9253 414.5756 110.5556 414.376 111.3717 414.2774 111.3104 413.6053 112.0223 412.2881 112.6995 409.4733 112.8511 408.5833 112.3691 408.2604 112.7011 408.0115 113.1465 407.2734 113.2953 406.1177 113.3354 405.4726 113.6289 405.1274 113.957 403.5447 114.0636 402.964 114.5003 401.9794 114.6557 397.8649 116.5674 396.9701 117.3719 396.1223 118.3121 395.5258 118.7853 394.9937 119.1162 394.5077 119.2518 394.0329 119.5779 393.5509 119.6192 393.0593 119.4705 392.5089 119.5214 392.147 119.9171 392.4533 120.4305 392.2862 120.6481 391.2053 120.9276 389.6003 121.1114 388.9178 121.4474 388.6824 121.6383 388.3253 121.7349 387.9841 121.07 387.8624 120.1943 388.5265 119.9835 389.1374 119.873 392.5304 118.664 392.1049 117.7561 392.4055 117.3604 393.1651 116.7185 393.659 116.4012 393.3902 116.2847 391.1671 116.4962 389.8898 116.4803 389.2368 116.4155 389.4348 115.8663 389.3251 115.3187 389.1716 115.1131 390.3034 114.4895 390.8172 114.3356 391.2085 114.3452 391.1815 113.9682 390.8554 113.4011 391.2069 112.6685 393.5167 111.8075 394.0702 111.0269 394.9976 110.2983 396.6926 108.4869 396.7936 108.1791 397.2867 107.3308 397.3774 106.9916 396.5931 106.4957 396.2814 105.7997 393.9875 104.5462 393.7927 103.4697 393.5787 103.5166 393.2287 104.271 392.9329 104.5132 391.871 104.5355 391.3676 104.2503 388.4144 104.0642 387.693 104.5502 387.0169 105.3034 386.3599 105.8411 385.7006 106.1171 385.1255 106.607 382.7506 109.5236 381.8534 109.7443 377.63 111.5069 375.5183 112.1977 373.8894 113.4205 373.3294 114.1606 372.8323 114.9811 372.5333 116.2258 371.0308 117.7382 370.5162 118.0623 369.9897 118.1939 369.2905 118.1474 368.6876 118.2421 367.6608 118.1088 366.4033 118.5881 364.9852 119.0028 363.7635 117.9605 362.8926 117.7024 361.4657 117.9915 360.8055 118.454 359.4375 120.7475 358.9253 122.0622 358.9579 122.6023 359.758 124.2387 360.6592 125.1554 362.681 126.2001 366.984 126.9207 367.9925 126.6646 369.075 126.6622 370.2155 127.3455 370.9282 128.4757 370.9942 129.248 371.0173 129.514 371.2766 129.7415 371.4301 130.1312 370.9767 130.4545 370.6291 130.6148 370.3364 131.8142 370.3182 133.1413 370.6888 133.5815 371.6146 134.1999 373.0447 134.7122 374.3682 134.8223 376.8982 134.5754 377.9322 133.7748 377.871 133.4292 377.8948 132.981 380.1179 131.8067 381.3857 130.7667 381.1869 130.4915 380.9435 130.3082 381.167 130.2016 381.8629 130.1288 384.9569 129.0463 387.3923 129.932 388.781 130.9505 390.1538 131.1231 391.1083 131.6436 392.2075 132.089 393.6423 132.1193 394.8513 132.2115 395.2203 131.8007 395.5989 131.5307 396.03 131.5844 396.5152 132.1232 397.888 132.5376 399.155 132.5157 400.0435 132.3654 400.57 132.5575 399.8072 133.2491 399.921 134.3634 399.3364 134.7157 398.7756 135.2836 399.1073 135.6571 399.4008 135.8169 399.3706 136.2715 398.8599 136.5296 397.9143 137.2048 397.371 137.1917 397.1109 137.0613 396.9272 136.8195 396.7928 136.4313 396.4603 136.1752 395.5409 136.0766 394.5896 136.1685 392.4469 137.171 390.3575 137.9692 388.1662 138.6039 387.4313 139.0036 386.9111 139.1129 386.0036 138.8099 385.4524 138.829 385.3371 139.0374 386.037 139.5937 386.2192 140.0304 386.1444 140.3656 385.7475 140.5128 385.1701 140.2666 384.6435 140.617 384.4049 141.2079 384.3946 142.6118 384.0438 142.9247 383.0782 143.0977 382.0498 143.5443 381.6848 143.3379 381.5384 143.0862 381.6458 142.44 381.5177 142.1246 381.0485 142.1409 380.3414 142.3342 379.8013 142.7589 379.6152 143.0146 380.3263 143.8406 381.0047 143.9241 381.1678 144.1098 380.6325 144.5131 379.2939 145.114 379.072 145.6171 378.6751 146.0986 378.1295 146.4816 377.7588 146.8853 377.3055 147.0964 376.5658 147.3327 375.6591 148.3006 374.9917 149.2069 374.2035 149.6726 373.5776 151.2005 372.4617 152.0317 372.0505 153.3588 372.3408 154.1764 373.5656 154.1685 374.1797 154.4556 375.4515 155.5301 376.973 156.2308 378.5526 156.625 380.4893 157.6196 381.0206 158.0403 381.4764 158.8957 382.3155 161.361 382.9192 162.5815 382.9597 163.219 383.8625 164.4215 384.8304 166.4895 385.9432 168.2823 386.1571 169.6936 385.796 170.3379 385.7976 171.1746 386.9111 171.9429 389.3823 172.8365 389.776 173.0994 390.2588 173.5321 390.2827 174.8814 390.6645 175.3125 390.9882 175.575 392.4843 176.1457 393.1102 176.6193 393.7728 177.3777 393.9676 178.0562 394.0488 178.9756 393.212 179.0086 392.5384 178.9056 389.8596 177.7114 389.1628 177.6795 388.1805 177.8454 386.7775 177.6251 385.2965 176.3028 384.2283 175.9011 383.0846 175.6991 380.3477 176.8369 379.6526 176.7569 379.4506 176.885 379.1412 177.0802 380.409 177.324 381.6784 176.9514 382.8977 176.3998 384.6761 176.6937 384.9752 177.1896 385.2647 178.0291 386.484 178.5958 387.444 178.8463 388.6617 179.5904 389.8516 180.7528 392.3737 182.1018 393.3942 183.3792 393.7895 184.2039 394.1434 185.3819 393.2598 185.7617 392.4922 185.8154 391.2896 186.0011 390.4052 186.4179 389.5175 187.1516 386.974 188.3037 386.4904 189.0247 386.1579 189.6526 385.5391 189.962 383.9794 189.6669 382.5119 189.6916 380.848 190.541 380.4336 190.885 380.7096 190.8178 380.9705 190.7081 381.7198 190.8353 382.8762 190.382 384.0072 191.7659 386.2152 191.542 388.2911 190.3927 389.0944 190.3736 389.7673 190.5506 390.5173 191.0043 392.5145 193.0206 393.6089 193.2401 394.6843 193.713 395.2784 193.7651 395.8129 193.9063 394.3701 194.6447 392.5034 196.2403 391.673 196.6212 391.1162 197.0484 392.6163 196.8332 393.6869 196.0704 394.2253 195.8819 394.6588 196.0601 394.8799 196.999 394.4679 199.8954 393.9446 199.9451 393.4339 199.1569 392.8366 198.9071 392.3355 199.0718 391.3397 199.067 390.9603 199.4217 390.639 199.9252 391.2355 200.0302 392.4087 200.9087 392.5288 201.3767 392.2138 201.6798 391.3914 201.5497 392.3888 202.2051 392.1248 202.8852 391.8011 203.1548 391.2212 203.327 390.8633 203.9156 391.3755 204.8955 391.8965 206.1537 391.9609 206.7602 391.1465 206.4985 389.881 207.2672 389.2105 207.3305 388.7588 206.32 388.1797 206.479 387.7948 206.7733 387.2818 207.8586 386.6558 208.8381 386.1173 209.1077 385.4699 209.0306 384.9378 209.0584 385.0667 209.3233 385.633 209.6462 385.633 210.0236 384.4288 211.2198 384.2347 211.6815 384.2633 212.076 383.6334 212.5541 383.9722 213.3574 383.7965 213.9253 383.2453 214.6912 382.6655 215.1971 381.9806 216.0175 381.1185 216.4935 379.9771 218.2115 379.6423 219.0705 379.5548 219.9589 379.1984 220.2663 378.586 220.6529 377.8893 220.4568 377.867 219.8659 377.5648 219.8146 377.393 219.4268 377.3428 218.9325 377.4168 218.5352 377.1273 218.6565 376.9483 219.119 376.4902 219.494 376.0106 219.3425 375.4944 219.0355 375.5087 219.4793 375.7831 219.9239 375.9016 220.3693 376.6167 220.4652 377.0955 220.9766 377.4733 221.762 377.5481 222.0555 377.8423 222.4075 377.8797 222.7069 377.1973 222.9841 376.3455 223.5031 375.3226 224.3915 374.4755 224.9833 373.7152 224.9884 373.2539 224.9193 372.5945 224.5784 371.8397 224.4369 372.8522 225.6339 373.4082 225.8463 374.1065 225.8005 374.7833 225.3539 375.7434 225.3997 375.9836 226.0908 375.7282 226.8711 375.2065 227.8828 375.0975 228.7577 375.7465 230.0104 375.7736 230.3874 375.5318 230.5759 374.7698 230.245 374.1391 229.8299 373.5036 229.9384 372.8466 229.7615 372.1706 229.9098 371.8954 230.1989 372.0831 230.6761 372.6876 231.0726 373.0296 231.6819 372.6223 231.8958 370.9043 231.7535 370.521 231.8688 370.0072 232.5405 370.3428 233.5343 369.9634 234.1523 369.2547 234.297 368.3218 234.7965 367.7467 234.9127 367.7738 235.1282 368.1937 235.3461 368.4164 235.6408 367.9106 236.6565 367.1232 236.991 365.915 236.8251 364.9645 237.053 364.1437 236.6207 363.2688 236.6112 362.6723 237.1576 362.6079 237.7923 362.0304 237.8555 361.7194 237.8098 361.278 237.8547 361.3233 238.1955 361.5739 238.4934 362.7566 238.6258 362.9713 239.0533 363.0159 239.7135 361.7783 240.8509 361.2517 241.6176 360.4556 241.5973 359.8543 242.2125 359.5314 243.0477 359.1321 242.8826 358.2134 243.0163 357.9422 243.4144 358.1578 243.579 358.1792 243.8661 357.811 244.8047 357.4093 245.0683 357.2383 244.6846 357.1087 244.0896 356.7834 244.0443 356.2473 244.5927 355.6213 244.9856 355.0868 245.1487 354.682 244.7848 353.687 244.5955 353.2822 246.1723 352.4566 246.7469 352.07 246.9263 351.3963 246.9804 351.8274 247.1959 351.9618 247.6 351.7201 248.004 351.0464 248.0848 350.6543 248.3989 350.5039 249.8087 350.1039 250.303 349.0842 250.3424 348.3214 250.0143 348.0789 250.2732 347.9508 250.5249 347.5523 250.7791 346.78 250.8471 345.066 251.4786 344.2818 251.2965 343.3416 251.0562 342.6958 251.2901 342.4803 251.7749 342.1844 252.1523 341.2411 252.1523 340.4871 251.687 339.7203 251.3505 338.8709 251.6404 338.2242 252.233 337.4289 252.431 337.2817 252.7985 336.935 252.9834 336.0927 252.9059 335.7729 251.9904 335.2885 251.8556 334.8089 252.3185 334.6395 252.68 334.4152 252.9524 334.4948 253.6993 334.0223 253.7144 333.4027 253.2566 332.7553 253.1755 332.1476 253.601 331.8398 253.4952 331.5137 253.4054 330.9816 253.4054 330.778 253.5171 330.3915 253.5847 330.1298 253.817 330.1067 253.8377 329.4203 253.6818 328.5828 253.0614 327.9815 252.0318 327.2211 251.4778 326.8831 250.991 326.7511 250.1157 326.6119 249.6994 326.6596 249.2357 326.8902 248.824 326.0694 249.0308 325.4634 249.4138 325.5858 249.8974 325.4355 250.3464 324.5328 250.579 324.5877 250.7679 324.6449 250.9652 325.3552 251.5776 325.4999 252.093 325.7847 252.3678 326.3406 253.1687 326.3279 254.7153 326.6325 255.1524 326.5315 255.5859 326.3088 256.1729 326.2897 256.1816 326.1291 256.0038 325.861 256.0396 325.7545 256.2357 325.737 256.4142 325.6924 256.4234 325.2224 256.5542 324.8287 256.6644 324.5057 256.8227 324.0062 257.284 323.0502 257.3961 322.5595 256.3132 321.9033 257.035 321.7044 258.51 321.4611 258.7618 321.053 258.9726 320.2776 258.4579 319.5999 258.8023 319.0734 259.1515 318.8562 259.474 318.4673 259.8244 317.7212 259.4868 317.1231 258.9793 317.2711 258.5987 317.1883 258.3482 316.9179 258.1589 316.6212 258.1859 316.766 258.6791 316.8662 259.6259 316.595 259.8999 316.1758 260.1107 315.2667 259.9361 314.6463 259.583 313.8971 259.2855 313.2354 259.2314 313.093 259.8292 312.6611 260.3108 312.2634 260.3708 311.8673 260.2937 311.3456 260.815 311.099 261.1956 310.4563 261.5981 308.7431 261.7933 308.1466 262.1922 307.3441 262.129 306.7221 262.224 306.3666 262.2037 306.0452 261.9898 305.6849 261.9838 305.5211 262.6472 304.5539 262.9267 303.683 263.0035 302.7142 263.8784 302.0223 264.4081 301.51 264.4622 301.133 264.2737 300.9421 263.489 300.7497 263.3976 300.6399 264.1341 300.4538 264.7477 300.0999 265.0818 298.9792 265.8449 298.6571 266.6025 298.8718 267.3032 300.379 267.4742 300.5667 267.8576 300.4204 268.171 300.0593 268.4327 299.9527 268.8256 301.5689 270.0751 301.6182 270.5495 301.3685 270.8196 301.0638 271.4014 300.2104 271.8949 298.4057 272.1482 296.9017 271.8925 296.4459 271.331 296.473 270.9313 296.846 271.0474 297.2715 271.0116 297.1451 270.6462 296.9661 270.4326 296.271 270.1073 295.7086 269.2312 295.8168 268.5015 295.5082 267.9375 295.1733 267.4647 294.8353 267.1808 294.6548 266.8284 294.996 265.722 294.8067 265.0794 295.4493 264.2916 295.6076 263.4031 296.7601 263.0854 296.8388 262.2375 296.0148 262.2129 295.443 261.5901 295.3125 261.8514 294.8528 261.8788 294.0988 260.6786 293.8713 260.5271 293.5055 260.504 293.6892 261.7703 292.8055 262.2463 292.0817 262.4543 291.0533 262.5402 290.4687 262.6857 289.9223 262.5656 290.0575 262.1823 290.3455 261.7241 290.087 261.3424 289.5071 261.0489 288.6211 261.066 288.0071 260.984 287.3986 261.0166 287.1727 260.8472 286.6072 260.2495 286.1292 259.8765 285.9137 259.5058 286.1292 259.0748 285.9495 258.8131 285.0221 258.7837 285.03 259.4013 285.1255 260.1294 285.3951 260.6834 285.2034 260.9924 284.7325 261.2051 284.2315 260.6198 284.0016 260.4754 283.759 260.5032 283.5745 261.0862 283.1195 261.6036 282.2995 261.5484 281.6624 261.8677 280.8909 262.0144 Z M 304.6414 274.3617 305.0447 274.7232 305.3087 275.2466 305.5282 276.2126 305.6587 277.1022 304.8363 277.6673 304.0998 277.8967 302.6228 280.0689 302.315 280.7545 302.0628 281.0408 301.9841 281.3399 302.0127 281.6382 301.6325 282.6833 301.2929 283.967 301.0782 284.4935 300.6566 284.8976 300.1205 285.1016 299.7714 285.1322 299.4532 285.2444 298.6753 285.9443 297.7981 286.4704 297.9436 286.7114 297.9516 286.9401 297.5674 287.195 297.1395 287.1477 295.9011 287.3545 295.4462 287.7486 294.9817 288.4748 294.8051 288.5726 294.0598 288.742 293.488 288.8076 292.5168 288.2958 292.0348 288.1451 290.7503 287.9371 289.5016 287.5899 288.6251 287.1962 286.8275 286.2258 286.62 284.4748 286.3106 283.5295 286.2907 283.1923 286.4076 280.2821 286.5341 279.9639 286.7623 279.6855 287.5561 279.0349 288.4668 278.5203 289.7704 277.4434 290.7169 276.9503 291.5115 276.2416 291.0462 276.2714 290.7034 276.1819 291.0414 275.5763 291.4041 275.2518 291.8225 275.0748 292.664 275.2016 293.4418 275.076 294.0169 274.5379 294.5633 274.4234 296.6392 274.5995 298.0788 274.3538 298.8002 273.8587 299.1406 273.8396 300.204 273.98 300.5978 274.495 300.5628 274.1494 300.6081 273.8137 300.8038 273.8503 302.1933 274.4886 302.198 273.706 302.276 273.5011 302.711 273.1742 302.929 273.1798 303.4666 273.8117 303.9924 274.1788 304.6414 274.3617 Z"/>
</g>
</svg>