<?xml version="1.0"?>
<svg xmlns="http://www.w3.org/2000/svg" version="1.2" baseProfile="tiny" width="277" height="400" viewBox="0 0 277 400" stroke-linecap="round" stroke-linejoin="round">
<g id="ne_50m_admin_0_countries-peru">
<path d="M 248.2451 92.1987 248.1124 93.6171 247.4181 94.1841 246.3447 94.3115 244.7032 93.3007 243.5035 93.5513 242.3038 93.6171 240.6135 92.4386 240.0317 91.2792 238.7056 90.3322 235.9653 90.7123 233.7059 90.7356 231.8139 90.5233 230.1194 90.8375 228.6734 92.0606 227.5947 93.4897 226.3323 94.6895 222.6237 95.4879 220.6499 95.5091 218.8716 96.2948 216.23 96.5836 214.424 97.2822 211.2272 97.6644 207.3922 98.036 205.2518 99.0999 204.3982 99.5628 202.2217 101.0343 198.4324 103.3531 196.344 104.16 193.8181 106.6657 190.788 109.0206 188.8227 110.2734 185.9264 110.851 184.7277 111.4816 184.2839 112.2418 184.5376 113.1231 184.0492 115.3909 183.1648 119.5805 182.9196 121.6338 182.7093 122.617 180.7919 125.9805 178.73 129.1083 177.7192 131.1808 177.1502 132.697 177.7819 133.9583 178.6249 136.224 179.3288 138.0438 179.5252 139.2733 179.2853 140.6854 178.4136 141.9764 177.0461 142.8215 175.1945 143.053 171.402 145.3314 167.17 148.6865 165.7876 150.2515 165.3927 151.7251 164.7758 154.0376 165.0285 155.2373 165.7855 156.057 166.5436 158.0148 166.6073 159.0255 165.9756 159.5925 164.7758 159.7199 163.7024 159.9089 162.8817 160.4143 162.062 160.2868 161.304 160.5395 161.304 161.3613 161.5567 162.3084 161.4303 163.317 160.9249 163.9498 160.4833 164.3915 160.9249 165.0221 161.683 165.5912 162.8191 166.5383 164.3968 168.3687 165.5965 168.6851 166.6073 169.3157 166.7336 170.3265 166.3546 171.3351 165.4702 171.7768 165.4075 172.6623 166.6073 173.7346 167.428 174.4927 168.2487 175.6287 169.0057 177.2064 169.0057 178.2172 169.8264 179.4785 170.3318 180.553 170.3318 181.5637 171.6579 182.5724 172.7939 183.3304 173.6146 184.0248 174.4353 184.4665 174.6243 185.2246 174.515 186.3733 175.6956 188.2653 177.8551 189.6859 179.607 191.7456 180.7388 193.2406 182.8367 195.64 182.9164 198.4005 180.3183 201.5666 177.7182 204.7347 181.9725 204.6477 186.3107 204.7114 190.8506 205.6181 193.9105 206.4908 195.7738 206.8815 197.0999 207.8923 197.7316 209.47 198.236 210.759 198.3634 212.6255 200.2575 214.1416 200.1216 215.5792 200.0674 217.6134 200.9072 217.6453 206.4632 217.6538 212.5395 217.6644 218.38 217.2843 220.5862 216.7938 223.2533 214.3242 224.8522 213.5916 226.396 212.4386 228.271 210.3364 229.7553 209.3851 231.0113 208.2193 232.882 207.0514 233.655 206.1872 234.2856 205.8708 235.7381 205.3017 235.1063 206.4399 234.6264 207.6056 234.4757 209.281 235.17 211.1093 234.5925 212.4768 233.655 213.6999 233.6401 216.9191 233.6199 221.4802 233.6019 225.3895 233.5806 230.2755 233.5541 235.8156 233.5371 239.4997 234.533 238.7735 235.909 238.1216 237.7001 239.8161 238.9742 240.5508 240.0678 240.7271 241.19 240.674 242.7189 240.313 246.0622 238.8946 248.3662 237.7522 250.9876 237.8286 254.5921 238.2788 256.6667 238.2278 259.3847 242.9461 261.3765 246.3988 263.6443 250.3357 265.4705 253.5038 268.2437 258.3177 270.639 262.4733 273.1903 266.9006 276.092 271.9353 275.1598 273.2136 274.4038 274.235 274.4866 275.9635 273.34 276.8851 272.1254 277.4414 270.6889 278.896 269.7131 280.1573 269.6717 281.9516 269.8512 291.0782 269.608 293.5583 268.867 295.6903 268.0993 296.7669 267.6364 297.612 268.747 299.7312 269.8076 303.9866 270.6082 304.8275 271.603 306.5602 272.0553 308.1995 271.8504 308.8323 269.8618 309.6052 269.1504 310.272 268.9625 312.7118 268.1004 313.5888 266.6448 314.7354 265.7105 316.0541 264.9152 316.9587 264.1402 317.4917 263.7611 319.1012 263.2462 320.7278 261.4317 321.8023 261.1217 323.8068 261.1005 325.4482 262.0571 327.1002 265.1796 330.5742 265.4981 331.3981 263.7187 333.4918 262.6835 334.9379 260.1481 339.3737 260.0961 340.1828 260.7267 342.2765 264.5171 351.2395 265.1605 351.9721 266.3305 352.8236 268.2427 352.7302 271.1295 353.6921 272.5352 354.7984 272.6669 355.3441 272.3398 355.7115 270.8131 356.4568 269.1122 357.4272 268.5325 358.3467 268.4136 359.797 268.7979 361.9608 268.0622 362.6594 266.3666 363.5024 264.9035 364.7064 263.4373 366.7173 260.9518 369.7708 260.0918 370.6117 259.717 371.6628 258.3039 372.0195 255.6613 374.0941 255.2079 375.1452 255.639 376.1433 256.9884 376.9799 257.8994 378.1988 258.1372 379.751 258.1351 380.7193 258.1383 380.7448 256.4968 382.2057 254.3585 383.8705 251.7202 384.1996 250.72 385.0447 250.9504 386.8136 251.7998 389.3107 251.7966 391.2728 250.9897 393.5173 249.1051 395.9656 246.2194 397.6495 243.5077 398.5562 241.3663 398.5604 239.2959 398.7388 238.4094 399 236.8147 397.5242 229.7287 392.6275 227.0277 390.0072 224.5295 388.782 218.4331 384.5818 217.8247 383.2334 217.0751 378.9165 216.282 377.6997 214.1872 376.1411 208.9201 374.0644 206.8784 373.0261 204.7358 371.1341 201.5963 369.7963 198.1754 367.0486 196.1337 364.8487 193.8468 363.3941 186.7524 361.3599 183.1914 359.3235 176.5365 356.4462 173.5732 354.6137 166.4491 352.3819 164.3341 351.3202 157.33 346.0944 152.4195 344.3872 148.4625 341.4526 136.517 335.2097 134.641 333.2136 132.8138 330.1261 130.1605 328.2872 127.1803 324.0616 122.7433 321.5772 118.4773 318.2858 116.9028 315.2897 114.0722 311.4738 113.2314 309.4374 110.7554 307.4032 110.5813 303.3878 108.8539 301.5319 110.0929 300.6273 111.4031 300.2217 113.0403 293.9682 112.1771 290.8361 107.7476 285.1559 106.121 282.4251 104.9669 278.9257 103.1864 276.8511 100.5576 272.4832 98.9459 268.6036 95.4242 265.788 94.4665 264.7772 93.9325 263.3439 91.9746 262.3331 91.8685 259.3561 90.5052 253.7013 88.557 250.8538 81.5273 245.5346 81.4105 243.4854 80.851 239.7567 79.2903 235.7264 71.476 223.2002 69.5161 219.4693 67.5593 213.409 65.8 209.9669 63.8613 203.8471 60.9373 199.1947 59.1006 195.1601 57.1438 190.1446 56.9771 187.4605 53.4299 182.8421 51.5411 178.6143 48.2328 175.0703 45.0052 172.3756 43.6047 170.4688 39.0032 161.4101 38.3758 158.7282 35.2394 153.7466 32.136 150.1623 30.1729 147.2765 27.6662 144.6817 12.4156 136.6933 7.0486 133.3701 5.231 131.7903 4.3943 129.3037 4.7468 127.8449 6.3224 126.4774 8.5011 127.5327 9.8272 127.0953 10.8698 125.3159 10.8867 122.6212 9.5564 119.1494 4.6736 112.4457 5.042 111.0272 5.9604 109.4177 4.0779 106.1922 2.0267 103.61 1 101.6268 2.1615 94.0758 3.2742 92.1626 10.6691 84.4948 12.6991 81.2205 15.8705 79.2011 19.1119 76.1115 23.0042 73.7587 23.5764 74.1621 24.1158 74.5571 24.1519 75.3492 24.2963 76.0329 24.7273 76.6784 24.7634 77.8654 25.2667 78.6575 25.3028 79.5557 25.3389 80.7788 25.0873 81.3903 25.3325 82.4521 26.166 84.4099 25.8422 85.0214 25.0512 85.4164 24.2602 85.9557 23.4692 87.1788 22.2822 87.1428 20.5569 86.6034 19.406 87.2871 18.9739 88.5803 19.3338 89.659 19.4421 90.6677 20.197 91.5298 22.3905 91.602 20.4125 94.3709 19.4421 95.628 19.6576 96.4201 20.8404 97.1017 21.7248 97.1505 23.6847 96.1313 25.0151 94.6576 25.77 93.8316 27.0292 93.5067 28.6823 94.1905 30.8705 95.5558 33.4313 96.7641 34.4718 97.4266 36.3479 97.2355 37.9235 96.9594 39.2464 97.9532 40.5842 98.792 40.8942 101.6501 41.8975 103.729 43.1227 105.3343 44.6113 107.2433 45.9777 107.8909 47.7486 107.9036 50.1492 108.6086 51.0835 108.1415 51.9106 106.8122 52.3427 106.0563 53.5648 105.7335 53.6731 104.8692 53.4214 103.8266 53.8164 102.6035 54.8186 101.5291 57.3944 99.9556 58.6345 99.2973 58.8861 98.3248 59.3543 97.0316 59.1738 96.3118 58.6536 95.4178 58.7789 94.1544 59.4616 92.4641 60.432 90.4893 61.2633 87.973 61.5829 86.7839 62.4822 86.0279 62.8219 84.9386 63.3092 83.6561 64.424 82.2164 64.3879 80.6705 64.8551 79.9867 64.8965 78.2583 66.0007 74.7015 66.0421 73.9647 66.5273 73.7672 67.3724 74.0008 68.0997 74.8077 68.3248 75.5997 68.6306 75.9607 69.3143 75.8885 70.1053 75.4383 70.0512 74.7206 69.4757 74.0178 69.3196 73.5973 69.566 72.939 70.7636 71.4972 72.0748 69.8218 74.8894 66.3458 76.5829 64.9252 80.9667 63.4197 84.2825 62.2794 87.4666 61.1858 91.7846 59.6208 97.8884 57.4082 102.2733 55.8135 106.1815 52.9808 109.2085 50.7852 111.8012 48.8847 115.0873 46.4746 119.5306 41.2637 122.5947 37.6687 124.8317 35.042 126.3776 33.3878 127.6103 28.7141 129.017 23.3843 129.6424 21.0145 129.911 20.1906 130.5183 20.5367 131.2127 21.1143 132.061 21.1419 132.8605 21.1143 133.3563 20.7894 132.6173 15.4681 132.7235 14.3108 133.1439 12.9242 133.0601 12.1682 131.7117 11.1065 129.549 8.9831 128.6518 7.089 128.1061 5.4921 126.5942 4.4432 125.0409 3.5195 125.1662 2.7635 126.0909 2.7635 128.4342 3.5088 130.1212 3.2668 131.3804 3.184 132.5982 2.4089 133.8999 1 134.7811 1 135.7749 1.19 137.5947 2.6297 138.6755 3.4812 139.9729 4.1841 141.2013 4.4283 142.3172 4.5132 143.0944 4.4432 143.5573 5.4093 144.103 6.5857 145.4886 7.382 147.1258 8.138 148.4582 9.4396 149.3543 10.3145 150.4128 11.3486 151.4416 12.7182 152.376 15.1262 152.8495 16.7613 153.3825 17.6701 153.2561 18.5938 154.355 20.2671 155.1704 21.1971 156.5974 21.7874 159.3451 22.4584 160.8145 23.9703 162.1162 24.5585 163.5028 26.1129 164.7206 26.5758 166.2739 26.493 167.8272 27.2468 169.0025 28.7162 169.7585 30.5636 170.9349 31.6147 171.523 33.5046 170.851 35.7278 171.4806 36.9063 172.6984 37.8704 174.6721 38.8812 176.4781 38.6285 177.4018 38.964 177.9889 39.8898 178.3255 40.9791 179.1144 43.6525 179.521 45.3428 178.7884 46.98 178.5177 48.1118 178.9126 49.63 180.7897 50.3647 182.497 50.9678 183.5523 52.1484 184.7255 52.4627 186.3765 52.3969 188.4872 52.1081 189.6615 51.4307 190.4185 51.2268 191.2583 51.5199 193.1291 52.1697 195.4139 52.9065 197.4768 52.4797 199.2658 52.2886 201.041 51.8575 202.8459 50.6387 204.3578 50.6811 205.4843 49.8572 206.9017 48.5322 208.3053 47.1966 209.3968 46.9014 211.1592 47.5405 213.5948 48.4558 214.9729 49.6513 216.0304 49.9676 217.1282 50.8446 219.2347 50.8616 221.4898 50.3881 223.2947 48.9165 225.1665 48.4897 226.4438 48.0778 227.618 48.3326 232.1664 51.0166 233.414 52.4032 234.9821 52.675 236.2668 53.4331 238.4104 54.2506 239.5857 55.0894 241.0976 55.5948 242.1891 56.769 243.9218 57.4931 245.4199 57.8923 246.0962 58.8373 246.1026 59.47 245.8945 59.8926 244.3062 62.3685 241.1953 67.2227 238.3934 71.5928 233.9862 78.4706 231.5198 82.3183 232.1484 82.4797 235.9865 84.1636 236.9399 84.2273 238.3478 83.7983 239.2587 83.1273 240.1219 83.0318 241.0148 83.6815 242.2793 84.5182 243.1903 86.9623 243.8613 88.1599 245.4433 89.073 247.1303 90.5912 248.2451 92.1987 Z"/>
</g>
</svg>