<?xml version="1.0"?>
<svg xmlns="http://www.w3.org/2000/svg" version="1.2" baseProfile="tiny" width="245" height="400" viewBox="0 0 245 400" stroke-linecap="round" stroke-linejoin="round">
<g id="ne_50m_admin_0_countries-philippines">
<path d="M 105.2103 57.1394 109.0672 58.4472 117.6036 63.1624 120.7266 64.3323 123.9751 65.2066 126.5464 65.4652 128.8394 64.3865 129.8098 63.2831 131.5683 60.3855 133.4475 60.0308 134.5656 61.085 135.4301 62.4987 135.8143 64.5786 135.2799 66.7484 133.4893 68.6941 132.3958 71.0363 131.6766 78.7981 131.7111 81.1207 132.2874 83.3582 133.8415 86.9097 134.6543 87.9084 137.0064 89.1793 137.6418 90.1398 137.7772 91.8651 138.1467 93.3847 139.6688 93.9647 140.9618 94.7282 140.4791 96.414 139.6712 98.1282 138.6072 102.3496 133.5657 112.1212 133.2701 114.2319 131.2777 118.4361 127.2311 119.1146 122.5393 121.144 119.9286 122.7252 117.6627 124.7805 116.7958 127.4663 117.5396 128.6953 118.0125 130.0068 117.9583 131.4242 117.2564 132.6002 115.0028 135.467 114.0497 137.8093 113.0374 138.8585 112.5424 140.1355 112.7098 141.5935 113.6186 142.8619 116.3672 148.3382 119.3079 153.626 119.9409 154.2331 120.1872 154.9424 118.4509 156.3438 118.4853 158.8806 119.005 161.394 121.6108 167.6313 121.9827 169.2987 122.8373 170.6656 124.1697 171.9463 125.6425 173.0226 129.8763 174.871 131.5092 175.2343 133.2086 175.2983 133.6297 174.0546 135.1198 173.6334 134.7897 172.4093 132.9771 170.721 132.9056 169.8036 133.8588 169.1226 134.9966 168.7248 137.5457 166.8826 140.2475 165.4073 143.6858 165.5292 147.0624 166.3531 149.4588 167.2126 151.4291 168.7938 153.4561 171.5239 154.8796 174.5471 154.8723 175.9904 154.525 177.4349 154.6013 178.8646 155.6604 179.8362 158.9262 179.9089 160.5788 177.6627 160.7906 175.137 159.6281 174.1568 160.1626 172.9118 161.1674 171.982 162.6082 172.8145 163.9924 174.3883 169.0487 176.0975 170.3417 176.1345 171.3983 176.4547 173.6617 177.6455 174.7183 178.5912 173.4228 180.5554 168.401 180.9913 166.9503 182.4715 168.4256 185.4393 170.8343 187.8727 172.3786 189.8418 173.7504 191.9611 173.6839 193.9253 172.8908 195.9695 175.1001 195.8069 177.1788 196.2428 180.053 197.9521 180.947 198.127 181.91 197.8548 181.7721 204.0244 179.8165 209.6755 177.3438 208.9724 175.2281 206.5833 175.6591 203.6759 177.0113 200.8657 176.2404 200.2722 174.8759 200.5061 173.3243 201.1391 171.652 201.3571 168.896 200.9827 163.2363 197.9225 160.931 197.6455 160.4138 196.2601 160.5419 193.3206 158.2834 189.8418 157.9213 188.5968 157.2071 187.6165 150.471 183.8286 149.646 183.1907 147.5747 180.1687 142.8804 175.8673 141.5652 175.4276 140.1342 175.3033 139.6712 176.3943 140.3214 178.0716 140.585 179.5124 140.484 181.0233 140.681 182.192 142.905 184.5835 143.2375 185.7152 144.7128 188.7864 144.895 192.3724 142.9986 193.8612 140.8633 192.2 140.7943 190.8479 140.4273 189.5893 138.1319 186.3297 137.3659 185.6277 133.046 182.4087 129.7039 178.8745 122.2684 175.1099 121.3842 174.903 120.0936 175.1875 118.8769 175.6567 115.286 177.5174 114.0176 178.8141 113.9043 180.8041 111.3281 182.3866 107.7816 182.6095 105.0576 181.6206 102.804 179.638 100.9421 179.5431 98.6319 176.4448 95.8168 176.0458 93.4967 178.4681 92.9992 173.6556 92.9845 168.795 93.6371 167.3752 94.7873 166.193 100.6835 161.1009 101.4273 159.4656 101.1687 157.2687 99.8264 155.4855 97.7182 154.4006 95.2823 153.9511 93.5263 152.9537 92.1495 151.3121 91.2186 154.2159 92.1249 158.5407 92.2751 161.3534 91.4427 162.4063 89.9305 162.4358 88.4946 162.1033 87.4183 161.096 86.64 158.1959 84.5884 156.2773 83.7535 153.53 82.8225 153.1396 80.9088 153.3514 79.5001 152.0732 78.5519 148.8689 78.3524 145.4283 77.5544 142.5356 76.4042 139.7365 75.7343 137.4497 74.6949 127.1905 74.4388 126.2496 73.8896 125.4738 72.5916 124.3089 71.6015 122.8841 71.4218 121.7105 71.6927 116.6628 72.1385 115.4474 73.1606 114.8612 74.557 115.8488 75.6727 117.0753 77.0544 117.664 78.2711 118.4422 80.5567 121.4273 81.4581 121.8952 84.2707 121.8004 85.9282 121.4211 86.7287 120.3337 87.2336 119.0383 87.2459 117.5076 85.6253 113.0005 85.1278 109.7494 85.1056 106.8186 85.5293 103.8828 87.7409 98.9964 88.0242 95.605 87.8124 91.0695 88.2015 88.3714 88.135 86.8223 86.8124 84.3815 86.4676 81.7819 90.1669 68.5549 91.3245 65.9972 92.1692 63.357 92.5534 59.8486 95.3193 58.888 97.9521 57.4386 99.3141 57.5519 100.7574 57.9004 103.9444 57.18 105.2103 57.1394 Z M 9.6152 313.7713 7.2804 315.5951 7.5316 313.3403 8.2212 311.2148 10.593 306.8616 12.3047 305.523 15.1346 302.0947 16.7306 300.4371 20.5554 297.1602 24.0823 293.5681 25.262 293.3009 26.56 293.2467 27.5895 292.8342 29.8849 290.8946 35.6629 284.4357 40.4409 279.6219 45.3372 273.5349 47.672 271.7616 48.3025 271.1064 52.8096 265.5009 54.2233 264.6869 55.8168 264.0958 56.9005 263.3348 57.8536 262.3804 59.4471 259.9409 60.0949 257.0888 59.6909 255.4781 58.7945 253.1026 59.9175 249.8627 60.8017 248.3677 63.9444 241.7881 64.8507 240.4606 66.1635 241.2905 66.3383 242.469 65.6906 245.2423 65.6413 246.635 66.3802 248.05 65.4911 250.3787 67.7471 256.5778 69.4687 260.5036 69.5327 261.7991 67.22 264.1426 65.8408 264.8507 62.8632 265.4799 61.5233 266.1634 59.3905 268.0697 58.058 270.5806 57.7206 271.8786 57.0384 272.8773 50.9132 274.5828 48.039 275.6961 46.7139 276.5334 46.0292 277.8954 46.5046 280.2992 41.3546 288.976 39.7119 291.248 37.9583 293.1814 35.8057 294.557 32.7714 295.4017 30.3701 297.0814 28.7397 300.0529 26.725 302.7375 24.1784 304.7263 21.4347 306.4823 18.9151 307.763 16.1986 308.6669 15.3784 309.8368 14.7972 311.2813 13.6002 311.9611 12.1717 312.3527 9.6152 313.7713 Z M 140.383 233.6851 143.3212 234.9695 146.1856 233.8661 149.0056 234.1752 151.3552 235.8488 150.5868 236.9066 150.4292 238.0678 155.6801 235.5421 157.0815 235.6911 157.0347 238.0371 156.7244 240.0283 156.1037 241.9642 154.9929 244.2325 153.5053 246.2595 151.5449 247.731 149.2224 248.6312 148.119 249.4489 147.7791 250.6804 147.821 252.2308 147.2865 253.6408 144.8458 254.2183 141.0357 256.9681 132.8539 258.7082 130.6077 259.9027 129.1743 261.4531 127.5759 262.8594 126.709 263.2104 126.3124 262.5417 126.1991 261.9678 127.3666 258.3129 127.172 256.7921 126.6154 255.3168 126.97 252.4339 128.3911 249.7248 129.1522 246.7422 129.3738 240.9839 130.4797 232.9832 130.4255 232.0263 129.5585 230.9451 126.3765 230.0733 125.1253 229.2519 125.7509 227.651 126.9528 226.5661 128.6054 226.6153 130.0585 227.6325 135.2011 229.7272 137.9373 231.4882 140.383 233.6851 Z M 156.3894 298.021 154.7196 298.2919 152.9561 298.154 151.7739 296.9152 149.7248 291.5719 147.3505 290.2727 144.629 289.2888 143.2621 288.46 142.0553 287.4613 138.2329 282.1378 137.9447 278.8806 138.6023 277.0383 139.7599 275.3882 141.0652 274.9424 144.2177 274.8833 145.8506 274.6666 149.4465 272.2258 149.7051 271.2653 149.7223 267.2545 149.3652 264.4492 148.4736 261.7117 149.4465 260.4605 150.7149 259.2217 152.0399 256.8056 152.301 255.1062 152.3256 253.3292 152.668 252.0571 153.7048 251.4217 158.6824 249.4834 159.5616 249.3504 165.9676 251.1385 167.2754 253.8366 167.4035 254.7269 166.3986 257.7218 165.5194 259.7315 163.352 262.8422 161.7536 266.2114 160.5566 271.2776 159.803 272.929 157.7957 276.1 157.1751 277.8412 157.1923 281.6144 156.8573 283.0096 156.8672 284.3507 160.867 290.6348 161.2068 291.631 161.1724 292.7541 160.4877 294.158 158.8572 296.5765 157.9435 297.4213 156.3894 298.021 Z M 192.8009 240.5455 194.5594 241.4272 196.5766 241.075 199.0173 239.0739 201.7634 239.7943 203.3766 242.7437 204.1992 243.8581 204.6475 245.7866 204.5317 250.4107 203.8618 254.6025 204.3815 255.4658 205.645 256.2194 206.7459 257.1492 207.6695 258.3412 208.263 259.6675 208.5019 262.8865 210.088 265.6006 210.2999 266.6572 209.9181 267.7643 207.2729 267.5475 207.0611 268.4822 207.1252 269.6398 206.1868 268.912 204.6376 266.2607 203.2141 265.1474 203.6525 269.4477 204.1229 271.5104 204.1992 273.5829 201.7413 271.9992 198.808 271.0227 198.0001 270.1792 198.276 267.4934 198.2218 266.1572 196.914 263.3274 198.4508 257.212 198.4139 255.9621 198.1504 254.7109 196.9386 252.2308 195.0225 250.157 193.8477 250.1508 190.9907 251.6076 189.545 251.1249 188.6928 245.4061 187.5402 239.8485 186.656 238.4262 186.0821 236.9361 186.6486 235.6998 187.7446 236.2096 189.3036 237.6664 191.1951 238.5075 192.136 239.2353 192.8009 240.5455 Z M 209.5708 210.6644 211.3564 212.7221 211.7899 214.2122 211.6052 215.8611 212.413 216.5938 213.839 216.7933 215.6665 217.6233 217.0384 219.1503 216.2231 220.5529 216.4768 222.6008 215.0434 225.1746 215.238 229.7383 216.0606 231.1963 216.1394 232.6679 215.9325 234.2085 216.2847 235.4719 218.4841 239.6589 218.888 241.0504 218.2156 242.1489 217.994 243.1894 219.351 243.299 221.2844 245.0415 222.4223 247.3419 222.0824 247.9465 220.5381 246.1511 219.3707 245.8679 214.4203 246.358 211.386 245.6092 209.4157 245.5391 207.4601 242.4629 205.7459 241.9506 204.3938 240.5911 202.1501 237.1135 201.4359 235.1148 202.9974 233.0952 203.485 231.4845 203.4037 229.9058 201.9063 230.1656 200.6108 229.6398 199.0173 227.7076 198.3794 226.592 197.2194 225.6585 195.3771 223.4505 192.732 222.5873 191.6532 221.9802 189.5499 220.1244 188.0155 217.824 186.5255 213.7935 185.7423 209.6189 192.5793 210.7062 199.4976 210.4957 207.3173 209.5376 209.5708 210.6644 Z M 95.1937 186.6646 96.4793 186.8789 100.5135 186.1203 102.1637 186.5008 103.272 187.9453 104.6488 188.3985 105.7374 189.1423 107.7619 187.8542 109.8209 189.3221 111.6483 192.0621 113.8009 194.0053 115.8328 195.4486 116.2342 196.5162 115.0003 198.2637 114.6235 200.4827 114.7467 202.8656 116.2835 207.8825 115.7441 209.2433 114.1999 211.1668 113.0473 213.3083 113.195 214.1728 112.7394 214.8796 112.5941 216.3968 111.6483 216.0815 110.7789 216.3204 109.9341 216.9989 108.619 218.4594 106.5698 218.0174 105.5994 217.5864 105.363 216.3204 104.7522 215.4288 103.8729 214.8993 101.7031 212.716 100.6859 211.0744 100.6687 209.3221 100.1121 207.6892 98.9865 206.2311 97.5039 205.113 97.0088 204.0392 96.8167 202.7695 96.6887 199.5185 94.5853 195.4633 93.8563 194.4917 91.8835 193.4893 90.2482 192.1988 89.5512 190.9131 88.9157 188.8332 88.4773 188.5327 87.2016 188.6276 85.9652 188.3579 86.3248 186.8296 87.5488 185.7176 89.2408 185.5822 93.9056 186.2078 95.1937 186.6646 Z M 228.8997 291.5436 230.9587 293.062 233.626 292.6593 233.5915 296.4879 234.0225 297.606 236.4312 300.8472 236.8081 303.5539 235.382 306.0957 234.3033 307.2975 232.3207 309.0376 232.2689 309.8356 233.1137 310.7333 235.8697 311.2567 237.9632 312.6544 238.3277 316.6172 240.3177 319.7426 240.266 321.1058 239.4754 326.688 239.7291 329.0745 241.2191 330.987 242.4801 331.7985 243.1279 332.9979 243.714 336.2884 243.6106 341.8779 243.416 343.8298 242.5368 345.6437 239.8227 349.7666 236.1652 353.0459 234.2196 352.8267 233.594 353.7971 234.8082 356.7896 234.3279 363.1069 233.525 367.4884 232.3428 365.2718 231.5178 362.9493 230.769 356.8031 229.8356 354.0336 228.3702 351.5017 227.7815 349.2408 226.257 347.1276 224.3212 341.6723 223.0404 341.953 220.9125 343.4443 220.4322 344.4714 220.181 346.0279 219.6884 347.4281 217.2034 349.6595 215.2503 352.3194 213.642 355.2293 213.1297 357.8979 214.4474 359.9864 215.802 360.8287 217.7674 362.6981 218.3708 363.5515 220.4445 369.6237 220.3756 375.8364 218.8584 378.5727 215.0262 383.7657 212.2677 385.4122 210.79 384.5723 209.6078 381.4284 209.4107 380.1329 210.2112 377.175 210.2999 374.4621 209.3689 373.5447 208.3468 373.722 207.9182 374.1136 205.4504 377.6627 204.4209 378.5604 202.9038 378.6848 201.6969 378.4422 194.3575 375.3438 188.3677 372.2787 183.6759 369.4156 180.2795 365.0982 179.5628 361.8668 179.5234 358.4877 178.0038 353.5336 177.8265 351.8514 177.9373 350.237 179.4471 347.2003 181.2746 345.6622 182.2991 344.56 183.1193 343.336 183.6783 341.7018 183.5207 340.08 182.9099 339.0641 180.0234 335.5039 177.5137 333.3156 172.3761 331.349 171.1816 330.2703 169.8812 329.4538 168.4453 329.1041 167.0414 329.0918 165.5243 329.7026 165.1302 331.003 165.2361 332.1655 165.1031 333.2972 162.9481 339.8005 160.202 338.3732 157.5839 336.7255 156.8894 335.5717 156.5889 334.1912 156.1456 333.259 155.5274 332.413 154.323 334.584 152.8256 336.3007 150.9932 336.6984 149.1288 336.7292 148.518 335.9928 147.8382 331.8576 145.8753 330.5547 143.4099 330.8318 140.4273 333.1112 139.8338 333.9634 139.1836 335.9263 135.9325 341.4974 134.211 345.7902 132.3121 349.9722 131.4624 351.3478 130.3442 352.2541 128.566 351.8785 126.9676 350.8798 125.4529 348.1817 125.9676 345.0464 127.6449 343.0478 129.0586 340.9088 130.7654 333.4351 130.8934 330.7752 131.1939 329.6373 134.0065 326.2422 136.3709 324.1413 137.6221 323.7005 142.7351 322.5047 144.8409 321.5011 148.1559 321.4863 150.8479 320.9125 152.9955 319.2968 153.1581 317.622 153.0596 315.8783 153.5324 314.8119 154.3649 313.9141 155.5077 312.7319 156.8007 311.8441 160.4754 311.2025 161.6945 310.4722 162.6772 309.3319 164.049 307.1202 165.6721 307.6694 167.305 308.529 170.2408 309.2063 172.8465 311.0449 174.5065 313.9449 174.7922 315.3734 175.2183 320.096 174.6124 321.1982 172.083 323.3889 173.2504 323.6192 176.5729 321.6193 178.2304 320.8484 182.3287 319.7771 183.2941 319.069 184.0035 318.0136 185.4516 315.1234 186.5107 312.0349 187.3358 310.7493 188.5204 309.7297 189.6903 309.5659 193.9905 311.6766 196.749 310.6594 197.5199 307.4613 198.1528 302.8126 198.6405 301.5541 200.2241 300.3374 202.1132 300.7302 204.6992 302.3988 207.0858 302.9481 207.9724 301.6033 208.8172 298.9532 209.7802 298.968 213.0017 299.8448 216.1074 299.266 216.9817 296.084 216.3955 292.6802 213.9696 282.7609 215.4153 280.5517 216.6665 280.4926 219.7328 283.1316 225.6388 286.6966 227.6067 288.8775 228.8997 291.5436 Z M 162.4284 288.2987 161.4556 288.9711 161.0591 287.3062 161.3374 285.0588 163.2707 277.2107 162.8299 275.2478 166.0612 270.8786 168.0414 266.7779 171.0313 262.4715 171.4106 260.2389 174.0607 255.9818 176.5409 250.1102 176.4079 248.1657 177.0507 247.2015 177.4029 245.7312 177.4817 244.4837 179.2895 242.2991 179.7697 243.719 179.2303 246.507 179.3141 247.8456 179.6343 248.4724 179.654 251.0695 179.0038 255.052 179.6022 259.649 178.4348 264.3273 177.1024 266.4331 175.1296 267.9182 172.9795 268.8492 170.7555 271.1816 169.3147 273.908 169.0783 276.3918 165.5366 284.7755 162.4284 288.2987 Z M 125.8937 50.0918 124.2929 51.9033 123.4604 51.4033 124.3569 49.6423 124.3323 49.0315 125.0662 47.6498 126.4405 47.1733 127.5636 48.5303 125.8937 50.0918 Z M 115.786 38.308 116.0471 40.5936 114.5545 40.5431 112.3059 39.1528 112.0966 38.4509 112.1311 37.861 112.5251 37.3647 115.786 38.308 Z M 126.8617 12.9894 126.3888 13.296 125.7016 13.152 126.3863 10.774 127.6473 10.1214 128.6547 10.3787 126.8617 12.9894 Z M 124.7953 2.4974 123.5712 4.5552 122.5885 4.533 122.7363 3.3866 124.0318 1 124.5145 1.0517 124.7953 2.4974 Z M 106.6683 373.3907 108.0426 375.2096 109.7741 374.7367 112.5227 375.2453 113.1064 376.1935 113.0152 376.8154 110.0745 378.5776 108.151 376.7428 104.7423 377.9964 103.1168 377.2415 100.9002 377.9163 99.5308 376.4928 100.0825 375.1234 103.5996 372.8772 106.6683 373.3907 Z M 3.7831 327.7987 2.4827 329.7124 1 327.5081 1.1576 324.4381 1.6059 323.5835 3.7117 323.1143 3.7831 327.7987 Z M 75.3156 262.1612 72.2123 262.9358 71.4882 260.5061 73.6975 258.2735 76.1727 259.1651 77.6406 260.0394 76.9534 260.8312 75.3156 262.1612 Z M 79.9508 219.7488 81.33 220.1342 82.3152 219.7648 83.1846 218.4336 83.9998 220.4027 86.0391 222.0245 85.3618 223.6648 83.5688 223.8569 81.8078 223.4825 79.9532 224.1352 77.6948 223.7695 76.3451 222.2314 74.8082 219.4692 74.0472 218.9582 74.1408 217.824 74.6999 217.1049 74.4043 216.9189 74.5472 216.4152 74.823 216.0729 75.3205 215.93 76.5175 217.1578 79.3843 218.9902 79.9508 219.7488 Z M 78.4065 231.4599 76.5175 232.3157 76.0397 231.7776 75.7072 230.5264 75.7343 229.6657 73.9216 225.1388 75.3107 224.448 76.3328 224.98 77.3746 225.6893 78.3351 226.0649 79.2119 227.4946 79.0026 228.4835 79.2735 229.4378 78.4065 231.4599 Z M 144.2498 262.4961 143.5528 262.8409 142.9296 262.7904 141.447 263.7005 140.9002 261.9962 141.4248 259.0949 143.6513 256.8893 144.2227 256.196 144.831 255.7847 145.5551 255.7392 146.2595 256.6024 146.4614 257.909 145.0502 261.8521 144.2498 262.4961 Z M 193.2861 279.7845 193.0448 280.7105 191.0621 280.6342 190.3528 280.7758 188.4835 283.1414 187.385 283.7436 181.3977 284.5231 176.6862 283.9012 175.073 282.5959 174.0213 280.4421 173.6987 279.0234 174.8759 277.4743 176.0113 276.4448 179.8165 274.4129 180.6761 272.8711 182.6686 271.0079 186.7767 270.3848 187.1757 270.8528 187.7224 271.1495 188.545 271.2296 190.5745 272.7664 192.865 273.7442 192.3084 277.4644 192.993 278.7156 193.2861 279.7845 Z M 83.7436 394.0471 83.059 395.5692 82.261 396.2736 81.2118 395.8758 80.4138 395.0864 79.9656 396.2563 77.7637 396.707 76.3722 398.5123 74.3403 399 72.9266 398.7648 73.0744 397.1602 76.9928 394.7577 79.4385 393.8698 81.596 392.1347 82.6747 391.9413 83.2141 393.3538 83.7436 394.0471 Z M 130.2112 364.496 127.6523 364.8432 126.8395 364.8112 124.8396 362.2449 124.6524 361.1058 123.0442 359.8202 123.6328 358.5505 125.7238 358.2439 129.3393 356.6172 135.1346 359.1847 136.0286 360.1095 134.2184 360.676 132.9376 363.1192 130.2112 364.496 Z M 230.2469 280.314 229.9292 280.4507 228.5278 278.4902 228.715 276.2576 230.6114 272.9241 232.0153 275.8414 232.0005 277.1639 231.7961 277.8178 233.1014 279.4631 232.2024 280.2746 230.2469 280.314 Z M 220.9371 276.5753 220.4913 277.2809 219.8879 275.8278 218.4225 274.4634 217.0088 272.1458 216.0089 271.4242 216.6935 269.5881 216.76 266.6067 218.1614 265.246 218.8092 264.8445 219.8707 263.4012 220.346 263.3175 220.7943 264.5305 219.8387 268.2285 221.2672 272.6076 220.7894 275.3463 220.9938 275.9559 220.9371 276.5753 Z M 84.2707 179.8251 84.3101 181.5332 80.0567 179.0259 79.936 178.1541 80.037 177.5088 80.4729 177.1172 82.761 178.0605 84.2707 179.8251 Z M 125.7213 185.1302 127.2779 185.2041 127.7606 184.9677 130.758 187.0759 130.5757 188.1436 130.955 189.5487 129.2482 191.982 128.9379 192.8009 127.9921 193.5878 124.7386 191.652 123.5614 190.4698 123.2043 188.0525 124.4948 184.4788 125.7213 185.1302 Z M 130.2408 215.0274 128.2212 221.314 126.8641 219.1503 127.4134 217.7908 126.2459 216.6541 125.9332 215.6222 126.3814 214.2577 127.603 212.9992 127.9084 208.8825 130.4871 207.5685 131.5264 207.518 131.1545 208.5278 131.189 210.4205 130.2408 215.0274 Z M 144.3754 216.1837 143.0848 216.7748 140.4618 214.3008 138.9373 213.1457 138.5358 212.5005 139.7697 211.5707 143.0922 211.5793 144.8581 213.2775 145.1019 214.3353 144.3754 216.1837 Z M 160.197 202.4543 162.3496 206.3026 160.0049 203.6734 157.2859 201.8878 154.456 198.9225 152.4192 197.8819 151.8035 197.2773 152.0177 196.0544 153.5201 195.8278 154.1876 195.898 158.2908 201.1428 160.197 202.4543 Z M 172.6446 212.53 172.7381 214.7405 171.7899 213.9265 168.7409 209.5893 167.8985 208.0057 168.763 206.9565 170.9624 208.5734 172.6446 212.53 Z M 171.1619 216.7305 175.9966 219.7131 179.3264 224.815 179.7131 228.7297 179.4569 230.221 177.8733 228.545 174.4696 226.1572 172.1052 225.6302 171.3786 225.1992 171.652 223.9111 170.1078 222.7166 169.9255 222.2289 168.5241 221.7019 166.4824 219.0185 165.0366 218.5136 163.6525 219.0789 160.4704 223.0601 157.0692 225.8531 157.0199 224.7854 158.3991 221.2893 159.2759 215.7047 159.8276 214.0041 159.138 211.5018 159.0518 209.2617 161.5886 210.2986 164.7657 211.3367 167.1868 212.7591 167.5857 213.7147 171.1619 216.7305 Z M 187.2274 182.8126 186.5575 184.448 185.7373 183.8692 184.5699 183.9616 182.7326 185.3519 179.7476 183.485 179.2895 182.0331 181.4297 178.8215 181.4076 174.0496 182.1858 172.8773 183.006 172.0362 183.9813 171.5806 186.0846 174.8747 186.8013 175.2749 188.8307 176.7896 188.3037 179.8399 188.4982 181.6218 187.2274 182.8126 Z M 132.2924 172.3059 132.2136 173.3354 126.7656 169.6016 126.5169 168.96 126.507 168.364 126.8395 167.768 132.2924 172.3059 Z M 128.7138 148.1904 129.1694 149.077 128.6694 149.0327 128.3049 149.1928 127.1203 151.0166 128.4158 154.3846 127.6079 156.8376 126.1794 156.9916 125.6154 156.728 125.9061 155.5163 126.2189 154.9597 125.9282 153.3613 125.0761 152.3564 124.3963 150.4058 123.3373 149.2359 123.8298 147.3555 127.1548 147.1474 128.7138 148.1904 Z M 186.2841 259.1343 185.5846 259.2488 186.7496 256.595 187.6683 256.9817 187.9515 257.2723 187.9269 258.4644 186.2841 259.1343 Z M 210.6102 274.8673 210.785 276.1147 207.5389 272.8305 206.8838 270.508 207.965 270.6077 209.3541 271.5005 210.6102 274.8673 Z M 151.503 339.7598 151.7788 340.3497 151.668 340.9728 149.0426 342.1439 148.1633 342.1094 147.9589 340.1576 148.6042 339.2722 149.8405 340.0578 150.9415 339.1478 151.503 339.7598 Z M 223.3163 351.0177 222.9222 352.4549 221.3731 349.0696 220.7549 348.2322 221.5479 345.3986 223.2867 346.7828 223.3163 351.0177 Z M 193.6531 236.7847 190.5031 236.9448 189.1238 235.7872 187.3973 232.4032 189.3406 231.6692 191.1951 231.8687 192.5571 233.0645 194.0028 235.3377 193.6531 236.7847 Z M 198.6528 296.0409 197.9287 297.542 195.1013 296.3007 194.4265 295.2219 194.786 293.9425 196.1677 293.509 196.8918 293.5053 198.239 294.8439 198.6528 296.0409 Z M 109.0106 45.3581 108.8702 47.0538 107.5944 46.1585 107.3112 44.8791 107.4392 43.9333 108.0254 42.8065 108.8209 43.8299 109.0106 45.3581 Z M 73.9339 235.9485 74.4757 237.2834 73.7689 239.2845 73.1581 239.7229 72.3503 238.8892 70.6188 238.3043 70.508 237.2268 71.4119 237.2526 73.0596 236.1985 73.9339 235.9485 Z M 172.1815 242.0528 173.6593 245.3962 171.6692 245.3777 170.9353 242.9432 171.7875 242.1575 172.1815 242.0528 Z M 135.7084 210.641 134.9252 211.4106 134.4499 211.2899 134.1198 209.9317 134.8809 209.0241 135.1198 209.1164 135.7084 210.641 Z M 228.0057 284.6684 227.55 285.3137 226.7841 283.964 227.4515 280.995 227.9367 280.4938 228.5721 282.373 228.0057 284.6684 Z M 199.8572 234.1974 199.3917 235.4953 198.6528 235.1358 198.0075 234.5508 197.0642 232.5891 196.7416 231.1569 198.1922 231.9697 199.0272 233.3945 199.8572 234.1974 Z M 10.7285 319.4446 9.0069 320.0406 8.635 318.4643 8.8517 316.9139 10.0807 317.0777 10.6891 317.5629 10.7285 319.4446 Z M 170.6841 293.6531 170.9008 296.2699 168.5857 297.0322 166.7262 296.366 165.5342 294.7934 165.5366 294.2023 166.5858 294.2516 168.8788 292.8723 169.6053 292.6076 170.6841 293.6531 Z"/>
</g>
</svg>