<?xml version="1.0"?>
<svg xmlns="http://www.w3.org/2000/svg" version="1.2" baseProfile="tiny" width="500" height="292" viewBox="250 0 500 292" stroke-linecap="round" stroke-linejoin="round">
<g id="ne_50m_admin_0_countries-Poland">
<path d="M 474.0186 166.7278 476.6947 170.1692 477.7329 172.8672 476.6313 174.9851 476.9725 177.103 479.3561 179.3453 486.9066 186.2791 490.6306 192.9522 493.0093 195.5527 498.5028 198.9307 499 200.3175 496.7968 201.5873 495.0176 201.7554 493.5748 202.0942 492.6438 203.2811 494.0866 204.5509 496.0315 206.4154 498.4492 211.6944 498.2103 216.0155 496.3483 217.1147 493.9696 219.6811 492.3562 222.0257 479.3317 223.6586 476.2023 226.169 469.0711 231.0214 464.2015 233.8121 457.0069 238.8571 445.6202 247.5311 441.4234 251.1601 438.3525 254.1603 429.1398 262.1495 426.3078 265.5031 426.8683 268.2645 429.8271 274.7474 430.451 277.6745 429.9295 280.3798 428.9497 282.7878 429.1154 283.8626 431.8354 285.6076 436.1736 288.3519 436.4222 289.2756 435.808 290.465 434.3116 291.3716 428.8961 290.4138 422.8421 288.5542 420.7802 288.7784 417.5046 288.3495 404.0024 284.7595 394.897 281.9494 394.0001 280.1239 392.2794 277.4795 388.4092 275.2641 379.5231 273.3436 375.9063 271.8447 361.4731 271.0063 355.2095 270.9722 350.7738 271.5912 347.9417 271.5303 344.0373 275.4445 341.3466 276.5802 337.413 276.6996 333.9716 276.0026 330.4523 273.9432 324.8175 272.8562 320.7473 273.3802 317.7496 272.9317 315.1612 272.8245 314.2644 273.2364 312.183 273.1779 309.1657 274.1625 305.8706 275.5541 302.2343 276.6143 299.4364 278.8931 296.9407 283.3581 289.8776 281.3571 287.5233 282.2248 284.1941 282.8073 281.9177 282.2053 282.4539 280.6674 283.4824 278.9321 283.4336 276.5071 282.7805 273.831 280.5919 272.961 277.3016 272.6392 275.6102 272.1104 275.4298 271.2257 273.753 270.0899 270.843 267.2116 268.0938 263.6386 266.1928 262.5736 263.429 264.2747 259.2419 266.2099 256.639 266.8801 251.6086 272.4418 242.5714 272.6295 242.0157 270.0314 241.0652 267.5357 235.7764 266.9118 235.6302 265.447 234.514 261.7742 223.917 254.582 222.6301 251.5817 223.0445 250.4241 222.3084 248.5157 220.0028 247.3654 211.6286 245.9957 209.4741 246.7829 207.5292 245.9737 204.4827 244.2531 199.189 242.8541 198.6139 242.1302 196.708 240.8995 195.6502 240.7337 194.9678 241.482 193.4275 242.5397 187.9876 243.8777 185.8136 243.3269 183.8395 242.1644 181.5875 239.6589 178.3168 237.463 175.6212 236.6831 174.0858 235.5303 173.7397 234.6334 179.7255 232.8323 181.0318 230.9751 180.2665 227.5874 179.3745 227.1609 177.0007 228.3064 172.0044 229.313 167.3981 229.776 165.0486 229.776 151.9072 223.6099 143.3623 221.7235 138.3368 221.1776 137.7909 221.8039 140.0672 225.2623 143.9911 229.5299 143.8059 230.6681 139.0972 232.4131 136.426 233.1735 133.2723 234.6553 130.6108 236.7001 128.3052 237.6287 126.3116 237.3947 124.1912 236.4077 118.7465 230.0953 111.9028 225.2623 111.0888 224.1802 108.9489 223.9316 105.9268 222.8227 104.908 221.3433 106.424 219.7981 108.5102 218.3845 112.2099 217.512 113.331 216.6931 113.9891 215.4574 115.3588 213.861 114.9981 213.2859 112.3756 211.4775 108.4956 209.769 97.7231 211.0509 94.7692 211.9649 93.1022 210.7755 91.8397 209.0378 89.1149 208.7064 85.386 207.1197 80.96 205.5721 76.6364 205.1139 67.6528 202.8692 64.192 202.7474 62.1837 201.9748 60.0975 200.2785 58.3232 198.4189 57.4019 194.6485 50.7825 192.9352 44.1825 191.8628 43.7194 192.4087 43.9924 196.2108 43.6414 198.241 39.2934 199.4986 34.9796 199.618 35.2233 198.9868 40.3756 192.1431 42.6909 187.8316 45.3231 179.9643 42.1547 173.7543 41.2773 170.8492 39.8004 169.4526 30.7535 166.4305 30.0662 165.3801 31.4505 161.2758 30.7632 159.5503 28.5892 157.7297 25.7231 154.1055 24.6117 151.0322 28.2675 147.4154 29.1693 144.7613 30.7583 141.125 31.9233 139.1313 32.1427 138.5805 29.7493 137.1645 29.14 135.1757 29.7883 132.3096 28.5161 130.1868 25.3087 128.8073 23.2274 126.9843 22.2622 124.7128 23.0178 121.1471 25.4988 116.2849 20.2393 110.4405 7.2441 103.6065 1 98.8296 1.5118 96.1024 4.2464 93.6335 9.2134 91.4156 12.9765 87.482 15.0919 82.8171 15.1602 81.9324 15.2723 78.6008 9.4912 64.9768 8.5505 61.5671 7.8632 57.4555 7.5025 56.332 18.9184 59.2152 23.705 60.8384 23.1104 59.0153 22.1404 57.4458 22.7789 55.1402 22.4523 51.6623 12.0942 49.888 5.2456 49.2884 4.4755 46.878 5.1335 45.3158 7.0248 46.2346 13.7564 46.5953 30.305 41.9232 58.8886 35.8545 89.4171 30.1612 96.5435 29.5422 103.7089 28.3431 106.3557 26.2129 108.9977 24.7872 113.1555 21.0314 122.3487 15.1943 138.6049 13.0691 144.6735 10.3004 157.3958 6.4228 186.3986 2.0724 198.5115 1.117 210.3807 1 220.9485 4.4316 232.1353 8.6675 234.1484 11.2241 228.0944 9.6302 219.2717 5.8257 216.0107 5.6648 223.5416 17.2367 227.6605 21.3288 235.986 24.3899 242.9662 25.4208 264.4722 23.5661 272.1104 21.1435 274.3185 19.9176 276.3072 20.5221 290.2871 21.1752 304.457 21.8357 327.2449 22.5401 350.9931 23.281 375.6333 24.0463 402.3013 24.8749 430.4218 25.3624 432.1376 25.0285 435.0086 23.0811 438.5133 23.3443 442.6468 24.5508 444.582 25.4501 445.4009 26.4713 445.9127 27.6533 448.1744 27.8897 452.3079 28.7891 457.8989 30.8412 462.281 32.83 466.4486 35.6766 467.833 38.8937 467.9158 42.5398 467.6477 44.8868 467.9987 45.8422 473.7018 62.8418 483.202 79.2271 486.6921 87.1554 488.0862 91.3766 489.1975 97.4989 489.5436 101.7981 489.4998 104.2183 488.793 107.5451 485.9707 109.5119 467.7452 115.1345 464.3185 116.8991 458.9469 121.2836 453.9945 125.7998 452.8539 127.3425 452.5468 128.3588 453.6386 129.8407 460.1362 132.2608 466.6875 134.2033 468.8225 135.6583 473.653 137.5203 475.4176 139.1922 476.3729 140.6497 476.3047 144.013 474.1258 148.6657 475.0374 152.1826 472.8244 154.5247 471.0013 157.1277 470.743 161.6877 474.0186 166.7278 Z"/>
</g>
</svg>