<?xml version="1.0"?>
<svg xmlns="http://www.w3.org/2000/svg" version="1.2" baseProfile="tiny" width="260" height="400" viewBox="0 0 800 1234" stroke-linecap="round" stroke-linejoin="round">
<g id="portugal">
<path d="M 182.8423 387.533 189.0909 369.5498 191.3664 352.629 204.4123 316.4394 212.4256 290.3517 215.8615 269.8508 210.5031 240.2113 198.9618 225.3707 197.0776 212.8036 187.8856 184.6178 181.8386 175.3168 184.6472 161.5718 176.3017 128.4245 171.7851 112.6949 165.5667 107.3031 159.8026 94.914 161.7663 89.9297 162.065 68.5074 174.6854 57.2558 191.4623 49.6915 191.88 44.6093 211.9659 35.4071 217.8067 24.9145 239.1632 23.3708 245.9989 17.2999 261.8776 16.5562 266.9797 19.0089 290.2035 16.2836 308.7856 3.7345 322.6165 1 324.81 18.955 340.826 16.6464 348.9577 24.9509 348.5826 32.2744 330.3025 40.3002 327.4904 46.8425 317.5086 56.812 323.0892 65.53 330.5987 69.2022 329.8291 79.3799 346.711 81.7729 356.8442 79.0577 366.0194 75.7186 371.7028 67.6486 387.6983 64.2539 395.5511 67.9907 405.7722 64.381 432.3275 61.7695 439.2639 58.1927 451.2009 64.4 467.9576 65.0012 461.2508 72.5902 470.1873 76.6238 499.0171 68.227 504.2204 78.6044 513.8662 73.6354 531.5917 73.5785 558.8565 64.8027 565.2307 55.443 562.1414 43.4484 572.8742 38.385 585.6846 42.4884 588.1906 47.6031 604.9908 47.9267 610.5102 42.5164 619.6889 49.3315 633.752 50.3642 648.8238 49.0117 651.2598 37.9663 661.39 39.9683 665.6889 49.5718 677.6982 52.0249 701.5734 48.466 707.3997 45.4874 714.2756 52.624 708.2885 63.8546 721.0015 65.8511 714.755 87.5454 709.8806 95.1538 713.7273 110.8466 722.2089 116.6335 736.5016 111.9591 759.6998 113.0288 772.1351 116.4939 783.4946 123.3356 787.9236 129.4956 799 137.1475 771.4263 166.858 766.3014 174.7659 769.0217 181.0199 753.7485 189.0349 745.3097 191.019 740 201.1435 732.5872 202.104 706.0697 216.8778 689.9577 214.8613 679.7218 224.4843 677.3508 230.8345 661.5835 241.6253 664.8312 248.9329 651.8338 264.9766 637.683 267.2625 622.7637 266.6589 622.6979 269.6511 639.717 285.3312 644.9187 299.7318 651.5906 301.4457 653.1756 310.1576 648.2831 313.414 649.9163 321.8751 646.7055 334.6788 651.3971 340.8704 654.2154 355.4891 644.7601 370.3496 643.1843 376.7078 653.7498 380.4123 651.3838 391.1418 642.1547 403.8804 644.7601 412.6161 658.415 424.709 656.2501 431.7322 638.7767 440.7646 637.8101 448.3263 628.4706 450.806 617.9999 449.9336 604.3523 457.1175 601.6487 464.5678 601.9645 477.2354 606.6456 482.8447 617.3336 483.6437 634.7374 501.1991 635.9596 512.9294 633.6506 525.3104 628.6458 529.1845 629.3565 541.7963 621.83 549.5018 609.5024 556.2044 611.9439 565.2375 609.383 575.5719 602.7797 589.3525 593.4115 591.9357 576.0604 591.1813 570.5256 593.4737 546.7395 590.2113 527.8293 596.3416 507.582 594.4905 498.6125 591.3107 477.8409 590.9548 487.8785 608.5436 495.5966 611.5479 505.1541 622.0589 514.1457 623.9695 516.911 632.3743 536.5911 640.0723 529.8014 657.8515 532.7728 667.5852 551.5005 682.4741 547.5716 688.3824 549.1288 699.0965 553.8429 702.6476 575.0674 709.4777 572.2649 722.752 582.4849 723.7388 599.77 721.085 610.9986 727.6938 618.0683 742.9437 594.0735 770.6413 598.6229 777.3204 590.2733 783.1085 583.58 792.2464 576.6865 792.3981 558.0917 807.5547 544.7183 814.3349 541.7587 834.4084 543.7992 846.4085 534.4303 857.0385 530.4092 873.05 530.9784 881.4997 538.9485 885.5148 547.5343 898.2579 558.4386 907.8699 564.7964 917.5046 572.5216 923.8545 572.5451 928.8735 580.8764 941.3614 586.5038 945.7678 603.6571 937.722 620.1652 934.2136 622.1783 938.0667 613.7702 947.8923 616.1053 954.3071 608.8782 964.6369 604.7577 981.0717 595.8454 982.6764 580.7501 976.2795 575.8961 985.5959 562.2806 985.5021 548.1531 987.9467 545.9647 1004.1179 530.181 1029.0527 517.0689 1037.3332 506.977 1046.9094 500.1801 1057.7391 500.8381 1065.7992 491.0029 1078.0558 482.356 1092.125 484.7795 1098.4819 489.0878 1099.1885 498.1359 1116.5532 496.8088 1126.705 501.872 1130.6042 501.7238 1150.4808 506.2487 1158.1873 509.7545 1180.0674 486.8313 1183.6227 467.2491 1191.381 452.5042 1201.5245 417.9151 1220.1524 414.6299 1223.7118 394.5372 1232.8316 385.3881 1230.5006 348.4197 1209.1942 325.0404 1201.9514 308.6474 1203.005 297.5016 1206.1897 285.7805 1200.2019 265.3252 1203.1921 240.6031 1195.7235 217.0792 1195.2596 209.4137 1204.0652 196.2617 1202.9877 173.3241 1207.9713 164.6369 1212.9923 156.5312 1213.5332 148.0449 1222.7392 133.1132 1216.3401 147.1473 1196.6893 154.3493 1183.7586 152.3464 1179.9171 164.7378 1159.3321 160.7847 1148.0208 169.8195 1137.6615 179.7799 1118.033 182.3515 1097.6657 174.4548 1081.3084 182.0889 1052.8219 176.4466 1047.2447 180.7193 1028.8447 178.9405 1007.8003 176.5995 1002.7086 165.684 999.2544 161.7131 993.4159 171.6961 977.0474 180.0088 956.6723 184.9215 931.7033 182.9758 909.9258 174.5111 886.3494 187.6669 889.1929 198.2475 881.6084 196.1655 864.0531 192.841 858.3374 181.6168 862.424 184.6505 873.8411 159.1824 862.2112 147.2646 870.0391 116.1045 882.6117 107.0224 880.827 79.8009 884.8739 87.0308 872.8113 88.0576 860.1732 80.1067 840.3606 70.3994 828.043 88.8352 824.7484 107.877 832.0631 120.9193 823.6117 120.5624 816.6743 139.3978 789.8301 139.0474 789.4447 132.5267 797.6401 124.8028 784.5444 110.8288 796.7998 109.793 806.66 101.8239 817.4429 80.7773 821.6966 64.9613 820.0898 55.955 825.7409 38.4362 819.3017 22.454 821.0016 16.0262 817.5517 19.4859 807.8669 12.7085 800.6182 26.0837 778.3276 32.9601 760.5726 30.521 749.4489 31.3595 730.8239 46.4733 707.3161 50.9286 693.2537 50.689 679.2265 43.257 664.1689 57.5754 658.3034 77.546 645.0412 91.39 629.2062 98.2445 624.8043 112.7066 609.5426 111.1277 602.5826 119.3196 578.0058 136.8922 542.9807 156.5079 500.2901 164.1256 477.8414 153.1511 466.7725 169.0668 430.874 182.8423 387.533 Z"/>
</g>
</svg>