<?xml version="1.0"?>
<svg xmlns="http://www.w3.org/2000/svg" version="1.2" baseProfile="tiny" width="216" height="400" viewBox="0 0 216 400" stroke-linecap="round" stroke-linejoin="round">
<g id="ne_50m_admin_0_countries-qatar">
<path d="M 129.6176 388.3328 107.0844 393.4707 85.8724 399 68.1835 398.8532 53.9688 396.6757 44.5249 391.3666 26.3223 370.1913 13.4776 342.7283 21.3801 327.4126 24.0959 317.8464 6.7006 245.4761 1 189.9017 3.0796 178.5128 13.0373 165.399 29.5762 136.4313 38.384 108.5279 63.2659 44.0479 89.5668 19.2149 128.1985 1 159.9553 36.6102 198.5382 63.8531 205.8535 94.2642 194.5013 119.036 184.0788 158.4751 190.3176 176.6044 192.6419 192.2871 203.1378 218.6614 213.2911 252.8648 215.0282 276.6824 209.5234 298.7385 196.116 317.2715 169.6928 373.0416 161.8148 378.84 129.6176 388.3328 Z"/>
</g>
</svg>