<?xml version="1.0"?>
<svg xmlns="http://www.w3.org/2000/svg" version="1.2" baseProfile="tiny" width="345" height="400" viewBox="0 0 345 400" stroke-linecap="round" stroke-linejoin="round">
<g id="ne_50m_admin_0_countries-republic of the congo">
<path d="M 1 349.1796 3.7412 342.1141 5.7759 338.8542 8.2399 336.578 18.1315 331.0464 19.6206 331.261 26.4401 338.4517 28.6224 339.0241 31.0506 338.8273 33.9215 339.1225 35.3301 337.7138 35.5537 335.858 33.4788 333.7831 33.1791 331.5562 34.637 329.1369 35.4642 326.4628 37.5928 323.2923 37.8164 321.8076 35.5671 320.1888 30.9567 317.7114 27.7996 315.3235 26.5922 313.0339 27.4597 310.1094 29.9997 307.7348 29.8476 306.447 27.6117 304.3139 25.9795 302.0288 24.3026 300.5978 19.6653 299.7437 20.5508 296.6716 22.2635 292.1551 22.6704 288.6939 21.378 279.6116 21.4943 277.9571 22.7643 277.1164 25.5323 278.1225 28.3183 279.5043 35.9025 277.5233 38.5543 277.2192 40.7499 278.9587 43.7818 280.3226 61.2711 276.5395 61.6109 272.6758 62.6126 269.1789 62.7423 266.5584 62.0134 264.877 61.1503 263.607 60.6316 260.9865 60.6182 258.1738 62.2906 256.8501 67.867 253.5007 69.6065 253.6259 73.5104 255.4504 77.1683 258.3079 80.4149 264.327 82.6642 269.5009 86.2551 275.7793 93.884 278.3327 102.9841 279.9649 107.912 279.5356 114.9462 274.1873 118.9306 270.0151 120.2229 267.7703 122.5393 268.9285 125.1598 274.4199 126.8501 276.5484 127.2705 278.5786 126.0855 281.1142 127.2347 282.7419 132.1313 283.8956 136.4153 282.809 138.3561 280.5686 141.5624 277.6485 141.5892 275.1935 139.872 273.5881 139.872 271.3924 141.6518 269.6663 143.3869 264.9441 143.928 261.4963 145.6183 259.3007 148.8336 257.7758 149.9962 256.394 151.7939 248.2195 150.8638 245.2637 150.8638 242.8086 152.894 239.6828 153.2741 234.5581 152.4199 226.1601 151.8297 220.3959 151.217 214.359 152.7866 206.426 154.4188 198.1621 154.1237 196.1051 151.861 193.5964 149.0706 191.3023 141.8799 189.4152 139.2057 186.4191 137.1219 183.2352 135.5925 182.2156 127.7445 180.9546 126.005 179.1569 126.7115 174.0054 127.4046 166.3988 127.1274 161.1087 128.5271 156.8426 130.1056 153.6452 133.5713 150.2601 135.4137 146.2645 136.4198 145.2762 142.9889 144.6099 145.3768 142.9464 147.2595 141.2628 148.051 138.9911 150.3003 135.2415 152.3082 132.6881 152.5228 130.9642 152.098 128.5673 150.108 123.8518 147.729 119.9233 146.2891 118.5214 143.3914 109.2849 140.6949 107.1026 135.445 105.9265 125.607 104.8801 119.6461 106.5504 110.5862 109.6493 103.6727 111.7936 99.1741 113.0188 96.5268 112.679 95.3284 111.2681 97.0768 110.0697 97.9488 107.2636 96.8219 103.239 95.0735 99.5542 94.0718 94.3781 94.5055 87.9454 96.2138 81.9085 99.8404 74.0649 100.064 70.8653 111.0512 70.9592 122.0072 71.0554 133.9871 70.9883 145.5557 70.9212 154.5798 71.1783 158.922 69.1459 163.0539 72.2158 165.0752 72.9 165.7638 72.6585 167.3468 74.8206 172.4805 74.5792 173.2944 75.0889 173.7371 77.7005 178.4995 77.6334 180.8517 78.2237 182.7656 78.1566 185.5337 76.634 187.5237 77.1437 191.1369 79.1002 193.7171 80.795 197.3214 80.2449 205.6926 80.5356 212.1633 82.1566 218.5759 86.662 222.8599 89.2534 226.7146 93.0902 228.1322 92.4016 229.4692 91.3551 230.2294 90.8923 230.1758 87.6078 228.0204 82.0158 227.1841 77.2712 227.6626 73.374 229.2948 70.5791 232.0808 68.8865 232.358 66.2459 232.3938 65.8971 235.5241 59.6366 238.632 53.4096 242.3704 46.163 245.4515 40.1775 245.0401 37.2105 245.3441 32.7834 245.9791 27.8487 245.8271 24.9108 246.7215 22.9096 248.8635 15.5513 250.1156 11.2673 251.9624 9.331 254.8289 7.9648 258.9966 7.9157 269.9033 6.981 280.0767 5.0693 283.4529 4.2108 289.8431 1.123 292.2982 1 294.4088 2.1761 306.7242 5.7222 310.1004 7.1107 311.3257 6.9028 313.1949 7.2069 316.0703 7.2494 318.8875 6.8156 320.6763 7.2382 322.9479 9.5859 324.4594 9.3287 326.4359 7.6228 330.1475 5.8765 337.3024 3.9447 338.4651 4.81 340.938 9.1096 343.5272 10.5652 344.0683 18.5496 340.6295 28.4882 338.0582 35.9338 331.3057 48.2514 325.2688 59.2632 318.8831 77.6558 318.9144 91.1137 318.2257 99.5632 316.115 104.7259 311.1111 118.6488 310.3464 130.6087 312.153 145.2427 310.4358 159.1254 305.1904 172.2457 302.9455 182.5555 304.2602 194.9871 294.6459 205.3349 282.5541 215.62 274.715 218.5893 268.6289 222.046 264.2867 225.9812 262.8781 228.1143 259.7165 232.8723 252.499 247.6427 248.7561 254.1089 243.8506 259.6361 236.5392 266.384 233.8561 269.5724 232.7694 274.2097 233.239 282.7106 233.95 308.6068 232.7247 316.124 230.7169 328.4751 223.5396 342.3064 218.1555 350.0024 212.7581 352.3501 205.6837 354.4295 202.2896 357.041 200.2281 360.8778 196.275 364.2272 190.4393 367.0981 183.0697 374.1233 174.1798 385.3207 168.0981 391.7378 164.8292 393.3879 161.4441 393.5399 157.9471 392.1984 155.0315 392.0106 153.5513 392.6187 152.6033 392.1224 151.2215 391.076 151.2752 388.5002 150.8638 384.2251 149.1466 379.8249 151.1857 376.2787 153.0102 373.5956 152.6883 372.2004 150.8638 369.9422 148.8201 366.7225 146.8928 366.9371 142.81 369.41 138.5439 371.3284 134.5595 372.1289 131.4248 374.1323 129.7076 375.2055 127.0245 375.2055 125.522 374.0249 122.2486 372.8802 120.4644 373.2737 119.4582 373.8237 119.0245 377.8886 118.6488 381.3274 118.0049 384.5471 116.8243 386.0496 111.883 387.664 108.5291 389.873 105.6225 391.3577 103.8293 390.991 100.2339 388.053 96.6788 385.3341 94.7023 383.0446 93.5978 381.4168 92.8778 380.6835 90.624 380.5761 89.9532 382.0787 88.8219 381.3677 85.3115 378.2776 81.1751 373.3944 79.6681 372.6521 77.383 372.7281 73.7742 374.5213 70.2147 377.3341 63.7932 379.9143 58.4404 381.3632 57.9574 383.1295 56.7053 386.1704 54.93 388.0664 50.1854 388.6656 48.4817 391.3711 44.381 396.6121 41.6711 399 40.9556 397.9804 39.31 396.7149 35.9427 392.6545 32.6202 387.6058 31.7303 385.3028 30.7957 383.9926 30.6436 378.9216 25.6307 372.898 13.0739 362.1836 11.7279 358.9907 1 349.1796 Z"/>
</g>
</svg>