<?xml version="1.0"?>
<svg xmlns="http://www.w3.org/2000/svg" version="1.2" baseProfile="tiny" width="300" height="178" viewBox="0 0 500 296" stroke-linecap="round" stroke-linejoin="round">
<g id="ne_50m_admin_0_countries-Republic of Macedonia">
<path d="M 217.9335 22.5488 228.7935 23.5949 252.3584 18.6118 267.0412 11.7173 274.5158 10.6903 284.4629 8.0276 298.7654 8.4175 313.277 11.4225 331.7067 7.457 349.832 1 357.0974 2.6166 364.9523 8.0942 370.1446 9.6062 400.176 38.6011 416.6276 50.3359 436.0273 59.2369 458.1847 65.751 466.1157 71.9989 480.209 102.8481 486.9798 114.5544 496.3373 118.0445 498.6006 121.4204 499 125.8804 488.4443 147.5623 484.203 196.1565 481.5403 200.0174 470.4901 199.8082 455.8073 200.8543 450.1966 204.6011 444.3006 230.743 420.6978 238.2081 399.2631 242.4303 381.1948 241.4794 349.4326 235.2886 339.0671 234.6134 330.1852 238.1415 301.8465 240.0054 289.4079 244.589 260.1943 275.1625 230.6004 285.6991 220.5202 291.034 197.9063 284.2822 187.0843 283.588 171.4315 291.3859 137.1208 292.1657 127.8584 293.5255 101.4216 294.7428 100.3185 290.53 95.4306 284.3773 83.1061 281.4959 57.9056 283.9589 51.7624 279.4608 41.3969 253.4995 33.2947 249.3343 24.2225 240.614 8.8549 212.418 8.4746 200.0555 9.5206 189.281 1 163.9854 6.2493 157.595 14.1613 153.5724 14.2374 143.3876 12.0121 127.9154 21.3506 97.5607 23.8992 95.3545 26.2956 96.8095 48.9665 99.2249 54.8245 95.383 58.5522 89.392 59.7695 67.1775 65.1709 56.9166 120.0225 37.3933 136.1318 36.6706 148.5133 45.6382 158.3082 51.3725 164.2042 51.2013 166.3343 45.4195 172.9911 34.3027 184.2505 27.9408 217.6102 22.5203 217.9335 22.5488 Z"/>
</g>
</svg>