<?xml version="1.0"?>
<svg xmlns="http://www.w3.org/2000/svg" version="1.2" baseProfile="tiny" width="800" height="940" viewBox="0 0 800 940" stroke-linecap="round" stroke-linejoin="round">
<g id="rhode island">
<path d="M 516.2107 596.6664 510.0844 601.1574 509.0188 607.1375 499.0272 614.0692 497.9606 600.7972 502.9419 567.171 513.0658 566.2506 521.234 553.4807 508.234 543.1268 507.0169 532.4932 515.2517 497.7994 521.1189 485.9337 526.9281 480.0826 530.6095 479.2772 537.7423 482.6135 541.7118 498.2595 538.0304 556.702 541.1366 576.9487 519.0481 586.1522 516.2107 596.6664 Z M 577.2992 568.1698 578.8087 572.1319 576.167 577.0949 559.834 563.5154 561.8671 560.3081 577.2992 568.1698 Z M 572.535 472.4445 567.429 466.445 566.2474 456.9942 569.7923 444.9833 574.2994 441.5019 577.4712 433.9574 578.2582 425.4914 570.2718 419.5263 556.0095 416.6309 538.4852 395.9573 534.9414 385.7184 554.0398 382.7649 564.4755 388.0816 567.1785 399.7162 566.2474 401.6676 560.3705 403.1245 559.1319 408.3832 573.0608 415.8105 590.0723 418.5995 600.1134 427.0666 602.4766 444.1963 598.1447 453.4504 587.293 469.3598 578.0152 474.3099 572.535 472.4445 Z M 625.8951 399.4517 629.5507 400.4172 633.6966 410.2916 623.5082 410.6443 620.3214 405.3458 624.3533 403.5083 625.8951 399.4517 Z M 294.7626 885.0563 304.7854 876.1538 307.9324 865.5385 308.6205 855.0835 311.7128 850.7806 325.3589 855.3276 331.9035 863.2677 332.9131 867.4233 329.2661 876.4709 322.1054 886.3303 320.3497 898.1562 325.4922 906.9587 337.0429 917.0643 343.2574 919.0803 343.8746 922.9413 340.4566 931.1524 335.1861 933.2662 290.3006 939.0496 283.5345 938.412 270.9409 931.6309 269.4066 924.0594 277.5436 900.5582 288.9093 893.8351 294.7626 885.0563 Z M 489.2775 393.4178 494.5093 462.7646 447.2638 472.3563 452.7956 488.8334 475.2862 518.06 479.8568 521.6683 482.6232 533.9361 482.5028 541.2721 475.527 560.2748 477.0903 575.1886 479.2557 578.0754 479.617 582.5256 478.7751 588.2047 475.8152 591.1765 473.8433 588.1725 465.5074 590.3723 465.3117 595.7277 468.5276 602.3143 467.7567 608.0891 462.4238 617.9409 458.0607 621.9116 454.2664 621.589 445.9349 624.9468 438.5194 630.8528 439.029 657.758 418.0125 681.2593 409.0057 696.7225 376.6364 693.5185 362.3118 691.4391 331.5003 695.0087 257.1797 708.3904 188.8359 727.7941 174.2554 734.0893 153.7098 739.8963 144.5633 740.5167 96.7662 743.7562 83.5899 746.1625 32.1985 757.0304 6.7415 767.0435 1 763.3094 1.7128 755.9756 4.4427 749.7536 25.7184 736.5386 33.5156 729.5348 34.9025 725.8351 34.5015 697.6074 32.5339 682.9581 23.1928 671.3085 21.751 660.0503 22.7283 655.7227 25.8614 653.2885 48.7186 645.2462 70.9823 648.3534 70.992 648.1373 79.9321 454.6675 79.9353 454.6051 79.8181 408.2574 79.5891 317.3499 79.5891 317.1714 76.2679 228.7197 76.2475 226.9252 74.7691 193.0883 74.7691 192.0561 72.6962 123.9252 71.9081 98.0306 69.3061 12.5399 293.0917 6.4673 308.355 6.0533 327.1373 5.791 361.3634 5.0857 361.686 4.9782 390.0718 2.8278 391.147 2.7203 392.9178 2.6966 436.0905 2.1139 518.56 1 518.4901 37.3411 518.4525 57.0158 518.56 59.0586 518.346 104.1086 518.2385 104.3236 523.7219 135.1813 526.7335 134.7512 529.744 134.5362 535.765 133.7835 536.5176 133.676 538.883 133.461 547.2694 132.4933 549.4198 132.2783 563.8282 135.6113 563.8282 135.8264 565.6571 200.0135 563.5068 201.8413 563.8293 229.2584 576.0874 257.2119 586.9478 261.9427 586.9532 261.9449 647.5911 287.532 686.9362 332.4777 683.6279 337.8536 669.5259 346.1905 673.1342 363.5106 668.9248 379.0254 649.5609 405.4856 641.5024 402.9589 638.2554 394.9015 639.2176 392.2555 627.1907 373.2517 619.3731 373.3721 616.2454 384.197 606.9849 398.0281 604.5797 397.5475 602.053 392.3759 599.5274 373.2517 603.2561 363.3902 607.2257 363.6299 613.4789 356.294 615.5239 340.8985 599.8887 323.6999 590.1465 318.1671 560.078 313.1159 552.2604 313.8373 548.9112 316.6801 548.2919 317.2058 535.4231 331.2767 535.4231 349.1978 527.6055 373.2517 522.3134 379.6264 517.8633 378.905 509.4435 373.9742 508.4813 364.5922 509.9252 361.586 508.7221 360.8646 479.1353 360.7441 454.1191 358.3379 452.2419 356.3413 453.517 354.4898 449.1873 353.2867 445.5371 357.3111 450.7517 382.0316 466.2665 378.6641 471.1973 375.1763 488.5614 383.9304 489.2775 393.4178 Z M 799 561.5446 781.4778 565.3141 776.9341 569.6202 777.8684 574.0091 748.7085 589.5455 745.7131 597.5351 721.1033 604.0324 719.0099 602.8433 716.9778 600.608 717.2466 596.6943 724.3331 582.159 724.1708 575.6971 714.2544 567.6505 713.9297 563.6272 706.7367 559.6447 712.7513 543.3493 699.0159 509.5382 704.2982 482.4329 705.2336 450.5732 699.9911 440.4536 700.248 431.6178 700.6921 426.5644 696.2236 423.8765 669.8291 430.6125 666.7207 464.7139 674.7523 478.4128 674.2018 520.2534 676.2092 523.8165 683.5053 528.3764 681.941 535.6371 678.0574 542.9343 677.966 543.1052 677.6499 543.6998 669.9312 558.2018 672.1117 572.9447 673.6288 573.2662 674.0846 576.682 672.975 579.0625 672.8471 579.3377 670.8021 583.7266 670.5408 584.2868 669.828 585.8178 663.3844 588.9487 663.4135 588.5584 663.9532 581.4687 664.1489 578.9044 656.9452 573.9586 643.9345 570.733 640.939 570.8911 625.1522 571.7222 621.5213 571.9125 611.3372 575.6273 609.8255 580.4881 605.6097 594.0451 603.3034 601.4584 603.1336 602.0046 602.968 602.5358 602.9314 602.654 601.5143 607.2096 601.3563 607.7192 601.1305 607.8386 599.7414 608.5729 594.945 611.1082 594.8203 611.1738 593.8838 611.6683 593.83 611.6974 593.8193 611.692 592.4323 611.0523 592.4065 607.6171 583.0611 606.5387 565.8937 613.5994 565.5518 613.7402 551.1433 611.6974 550.7551 611.378 543.5418 605.4463 543.4386 605.3613 543.3375 605.2785 543.0139 605.013 542.6289 604.6958 542.4988 604.5883 542.3311 604.4507 539.5787 602.1874 539.2034 601.8788 539.1099 601.8014 538.668 601.4391 538.6207 601.4004 538.6282 601.3724 539.4066 598.5383 539.6776 597.5555 539.9356 596.6137 555.472 589.7336 567.3828 591.4356 588.3198 582.9277 587.3575 570.8685 581.2171 555.4806 576.1864 554.2226 573.0791 550.5229 572.9318 539.0561 592.0184 521.5221 594.7558 508.3533 602.1541 494.3706 612.1414 482.0157 618.5785 480.018 622.0556 475.8754 634.632 443.7673 635.7427 435.111 632.7085 430.377 636.334 425.4936 658.6762 409.5874 700.5502 406.1844 718.2863 370.5476 719.6303 370.8573 723.0838 371.4873 723.087 371.4056 733.7151 373.3302 739.4136 374.5129 739.3061 377.6309 739.3061 378.061 763.0686 382.3617 771.798 383.7669 783.283 386.2323 783.8206 386.2323 784.0464 406.9188 784.04 406.9876 784.7797 414.63 784.9818 416.7137 785.256 419.5554 799 561.5446 Z"/>
</g>
</svg>