<?xml version="1.0"?>
<svg xmlns="http://www.w3.org/2000/svg" version="1.2" baseProfile="tiny" width="500" height="244" viewBox="0 0 500 244" stroke-linecap="round" stroke-linejoin="round">
<g id="ne_50m_admin_0_countries-Romania">
<path d="M 420.4193 149.0223 425.9536 154.459 432.9833 157.3496 449.2678 160.4045 450.7169 160.0448 450.8814 159.4693 449.7457 158.6805 449.5762 157.663 450.3726 156.4195 452.6131 156.3552 456.2975 157.4677 463.3016 155.8568 473.62 151.5223 483.1009 150.641 491.7288 153.2129 496.1634 156.2062 499 159.0479 498.1161 162.5576 497.5663 164.7441 495.2899 173.7959 493.7174 177.172 491.1943 180.9644 464.3961 185.4813 466.1227 183.3102 465.4958 179.505 464.3704 176.635 466.873 174.0374 460.8401 173.097 458.204 174.523 456.1485 177.005 457.9728 182.7218 455.0386 185.8821 453.9132 187.6524 453.7796 191.8327 452.0479 193.6415 451.7036 195.6122 455.9738 195.1009 454.0571 198.7134 446.0305 205.6532 443.199 209.7872 443.8928 226.1951 440.3214 236.0048 440.0388 238.9082 431.5188 239.0007 428.9803 238.7745 420.9177 237.2972 411.8685 234.6893 406.55 229.6277 403.1482 226.0101 395.4812 227.6442 394.0167 227.2074 391.9201 225.4602 386.1391 224.2886 379.0015 224.2655 362.9688 217.6546 361.1908 216.5369 348.6062 217.652 329.7421 220.9253 315.3538 224.9618 300.4927 232.1559 294.465 237.6132 287.4816 240.5114 277.5331 242.6671 259.7789 241.85 241.2848 239.1086 221.4135 236.1641 210.6891 237.7905 196.1672 236.5701 174.2661 233.0501 157.9559 231.9812 141.877 234.0547 139.174 232.472 138.5831 230.658 139.2049 228.0861 141.471 226.0178 145.3661 224.4505 147.4216 222.86 147.6374 221.2414 143.2644 218.6463 134.3077 215.0724 130.6181 212.8319 129.7137 212.2795 129.4722 210.2703 127.612 208.6927 124.1331 207.5416 121.4404 205.4553 119.5391 202.4312 119.9502 199.5818 122.6686 196.9123 126.1475 195.7535 130.392 196.1132 132.1597 195.3553 131.4506 193.4822 127.3037 191.0901 119.7036 188.1816 111.9698 189.7669 104.0922 195.8409 98.414 196.8275 94.9351 192.7268 88.743 190.2936 79.8479 189.528 74.3701 187.9607 72.3146 185.5943 68.4247 183.7701 59.8431 181.8457 59.73 179.9957 61.1226 179.5615 64.1647 179.3868 68.2551 178.9963 68.9077 177.9505 68.9539 176.9947 65.732 175.7769 62.4689 174.9495 60.7732 174.1222 59.6838 173.2101 59.4679 172.2517 60.4237 171.5991 61.7289 171.5554 63.0342 170.9902 63.7587 168.7703 65.5162 166.9435 66.7751 166.2909 66.6929 164.942 65.3877 163.6804 63.5994 162.5936 60.9838 161.9333 52.8133 160.0268 48.6767 157.3727 46.1536 157.2776 42.1506 155.8054 37.8341 153.5007 34.0983 150.2273 30.0592 148.1051 29.0161 147.2341 28.9236 146.4093 29.6636 145.4946 29.6379 144.4951 28.5742 141.286 29.2833 137.8894 29.0983 134.7059 29.0572 133.2697 28.2761 132.8329 27.5773 133.3134 26.5752 133.9223 25.5989 134.0354 22.6236 131.7127 18.8569 126.9722 16.303 125.3921 11.3236 123.221 7.1459 121.3942 4.1346 117.4374 1 114.3902 3.0606 113.1055 15.0132 111.3198 20.5681 113.0798 23.0604 112.44 25.5012 111.0115 26.8322 109.8733 27.0788 108.6605 28.2813 107.1472 32.3203 106.4381 42.9933 107.3579 47.2995 105.2433 48.8925 104.0897 49.8637 101.546 50.9891 99.5008 54.8174 98.4089 54.7506 96.5435 54.1699 94.5112 56.395 89.9814 57.7465 88.1212 59.9099 87.4403 62.5254 86.0144 67.0526 83.0442 65.9992 80.462 66.9139 78.5479 71.6363 73.8845 75.2385 69.3907 75.1769 67.14 75.701 65.1744 78.8767 63.0213 82.2272 60.2156 86.6413 51.4567 88.2137 49.9845 91.1119 48.317 93.2702 46.6623 93.5014 40.9096 95.5158 39.2472 99.4058 37.3844 103.2546 34.3835 106.3892 30.8403 108.8096 29.1857 112.011 28.7437 115.4847 27.3537 119.3747 26.8322 123.1362 27.5156 125.5308 27.161 129.1279 25.4396 138.3364 18.9391 139.6468 17.6391 141.5532 16.7449 149.0197 14.5199 150.9159 12.2794 153.475 10.265 156.7997 10.4166 167.6166 15.3909 179.2198 15.0826 181.3421 15.2676 182.0255 15.3703 183.4438 15.7789 198.8547 18.2428 201.2493 17.9679 201.9019 17.7701 208.1095 19.8076 213.5924 19.5378 218.8031 18.1247 224.2295 17.6468 229.2192 18.4921 233.0115 21.362 242.847 27.4488 245.7657 29.715 250.2775 29.3809 255.262 28.2453 260.3031 24.1729 275.8065 19.5584 287.646 18.4176 299.1926 16.5702 312.5583 15.2573 316.4277 11.4778 318.5706 8.9059 320.0814 4.1423 327.2755 2.7626 334.1202 1.7888 336.5662 1.1901 341.5559 1 345.4253 1.4034 351.4068 3.7543 355.6051 6.7065 357.2597 9.0497 360.8465 12.3565 364.6183 17.007 368.7652 23.1914 369.6748 26.3234 371.2421 29.7047 374.3458 33.8208 380.2553 38.3788 381.0775 39.2446 383.7599 42.4563 388.9294 49.5657 393.2511 52.4125 397.028 55.5086 398.8368 58.6278 401.5449 61.4592 407.8809 65.2104 413.0144 68.6199 417.1305 78.4245 420.0082 82.9337 421.8375 86.3843 420.9537 93.3704 422.0945 96.3585 419.741 101.8158 415.5067 112.8075 414.4841 121.5458 415.2138 126.258 415.3166 129.2846 416.3392 131.2142 417.4594 135.2018 417.6444 138.673 416.1233 139.6648 413.9908 140.4818 413.1686 141.2064 415.1264 142.7763 417.7883 145.6899 420.4193 149.0223 Z"/>
</g>
</svg>