<?xml version="1.0"?>
<svg xmlns="http://www.w3.org/2000/svg" version="1.2" baseProfile="tiny" width="800" height="486" viewBox="0 0 800 486" stroke-linecap="round" stroke-linejoin="round">
<g id="ru-all">
<path d="M 603.8434 86.3212 605.5365 88.7506 601.8557 92.4314 600.2362 90.0756 603.8434 86.3212 Z M 593.6843 38.1026 595.2303 43.2557 594.3469 45.6114 596.2609 49.8812 591.6231 49.5867 587.8686 44.728 588.3103 39.943 591.4758 36.483 593.6843 38.1026 Z M 598.2485 112.7494 599.5736 107.7435 602.003 104.1363 604.6531 96.333 602.5183 92.4314 608.5548 91.7688 610.9105 88.088 614.5177 87.4255 613.119 81.9779 606.4199 82.1251 600.8987 81.1681 605.1685 68.5797 605.9782 62.8376 610.5424 52.0161 615.99 45.8323 618.5666 40.9736 620.7751 40.3111 622.8363 36.1149 627.4742 30.8882 629.4618 25.5878 638.9583 22.1279 635.2039 16.2386 635.4247 9.3186 638.0749 7.331 642.9336 1 648.7493 1.8834 650.8105 9.245 655.89 8.1408 658.5402 11.0118 662.7363 7.8463 664.4295 14.3982 659.8653 20.3611 660.5279 23.6002 658.3194 25.9559 653.976 26.4712 652.062 31.5507 653.976 33.5384 653.3871 38.7651 647.645 40.9736 647.1297 44.5808 652.2092 42.2987 657.436 44.0655 660.8959 48.1144 662.5155 54.2245 660.3806 58.5679 663.0308 61.4389 664.9448 58.0526 670.1716 52.3105 675.9137 52.7522 678.0485 49.2186 683.4961 47.6727 687.1033 51.2063 683.2017 61.5862 687.0297 65.1934 688.7965 70.4937 691.5939 75.2788 691.0786 76.972 700.1334 89.7076 700.4279 92.1369 706.6852 102.3696 700.6487 105.3878 699.3972 111.6452 700.6487 117.9762 698.2194 121.1417 700.5015 129.0923 699.3236 132.5522 700.5751 139.4721 703.2989 141.607 707.8631 142.3432 710.6605 148.5269 715.5928 152.7231 718.0958 148.9686 721.8502 146.1712 724.2059 150.0729 730.3897 152.2814 731.4203 149.7048 737.3096 150.5146 738.4875 153.0175 734.9539 155.0052 735.4692 158.1707 739.9598 162.0723 745.4074 163.2502 748.2784 162.2196 750.7814 166.0476 748.352 172.1577 750.3397 177.8262 758.3638 183.7891 759.3945 191.5188 764.1059 193.9482 767.4923 197.4817 770.1424 202.6349 773.4552 212.2786 769.1118 211.8369 759.9834 208.6714 752.2537 207.788 742.9044 204.917 728.3284 201.1625 721.4821 197.1137 715.4456 191.8869 714.3413 187.1018 711.4703 183.7155 707.5686 183.421 708.8937 179.5194 706.3908 168.4033 703.2253 162.7349 700.9432 161.0417 698.1458 154.269 692.0356 145.3614 691.0786 140.2819 685.9991 131.448 676.7234 128.2825 673.1899 124.6753 672.8218 131.8161 674.9566 131.8897 679.6681 135.4969 680.4042 138.3679 682.4655 141.9751 687.1769 154.269 679.8153 153.8273 677.6804 150.0729 672.5273 153.5328 669.9507 163.3974 670.8341 168.3297 673.8524 169.7284 676.6498 175.9858 678.1221 182.0959 681.1404 188.0589 684.1587 190.4882 686.5144 185.924 688.4284 192.7703 684.8948 195.4205 686.7352 199.3221 683.9378 201.6779 684.7476 204.2544 676.3554 203.6655 673.4843 208.4506 669.6563 211.9841 668.1839 225.0142 665.0185 227.5172 662.7363 229.0631 658.8347 236.4983 654.6386 241.357 652.6509 245.2587 651.3994 250.9271 653.1662 257.4054 652.5773 262.1168 655.3747 267.638 655.0066 282.1404 657.1415 293.3301 655.8164 313.2801 660.7487 313.1328 665.8282 307.4644 670.8341 314.0899 671.9384 309.1576 674.883 307.6852 675.9873 312.7648 681.2876 306.7282 679.0792 302.3849 676.2817 300.1764 680.0362 297.747 681.1404 294.876 684.9685 294.2135 689.8271 295.1705 692.919 293.7718 697.4832 293.8454 697.4832 296.5692 707.2742 301.6487 708.9673 307.9797 713.9732 316.372 719.2 321.0098 722.2183 322.0404 729.1382 331.7577 729.7271 341.5487 731.5675 345.5976 732.0828 351.3397 735.5428 359.0694 736.4262 364.6642 736.0581 373.8662 737.3096 383.2891 736.4262 385.2031 738.3402 396.0983 735.2483 408.0242 731.6411 414.0607 727.445 415.0177 724.7212 417.8151 721.8502 414.5024 719.1264 418.9194 719.3472 426.2074 717.6541 428.7103 714.783 419.95 710.2188 414.9441 704.7712 411.3369 705.1393 402.2085 713.9732 405.2268 712.5745 393.9635 713.3107 391.3133 709.3354 380.2708 705.8018 374.8232 706.0963 368.1242 699.1028 365.3268 693.7288 374.3815 693.2135 380.4181 684.5268 388.5159 680.0362 387.4852 678.9319 384.5406 675.2511 383.6572 674.1469 381.3751 672.012 383.2891 664.0614 382.7002 661.9266 385.1295 658.8347 384.7614 654.7858 388.3686 649.559 388.8103 642.4183 382.1849 638.3694 381.1542 636.0873 378.5041 629.9035 375.633 629.3146 373.8662 619.6708 370.259 614.8858 370.7744 610.6161 373.3509 604.2114 373.6454 595.7456 380.7125 589.7827 386.1601 588.3839 391.9758 595.3775 396.9081 593.6107 403.3863 594.4941 413.9135 594.0524 418.4777 596.629 420.3917 592.8745 424.0725 589.1201 431.2133 585.2185 432.0231 576.3845 431.9494 571.1577 435.8511 565.4893 434.5996 562.1766 435.6303 556.6554 443.2127 556.4345 445.9365 550.0299 450.5744 545.3185 452.9301 541.7849 456.7581 537.736 458.0096 529.7854 458.893 525.2948 460.5862 519.9208 458.7458 517.5651 456.2428 513.7371 457.1262 508.6576 455.0649 505.8601 456.3164 498.7194 456.3164 487.6033 462.8683 476.929 460.9542 474.2052 453.2982 468.2423 453.2245 461.4696 451.605 457.936 452.1939 449.691 449.4701 447.9242 453.2982 444.3906 457.1262 443.2863 462.1321 447.5561 466.6227 446.8199 471.4077 441.2987 475.6775 438.5749 474.3524 430.1827 473.9843 427.6797 475.5303 420.907 474.7941 417.5943 469.4201 399.1166 469.1256 396.6873 471.4814 383.4363 477.297 383.7308 479.3583 377.547 482.0821 372.2467 481.8613 370.4799 484.6587 366.2101 485.4685 363.4127 483.4808 360.5417 477.7387 357.0817 480.9042 350.2354 479.2111 348.5423 473.9843 343.2419 471.555 342.5057 467.5797 338.0887 463.3836 333.0828 463.678 330.7271 465.3712 325.6476 463.8989 318.5804 457.4207 316.2247 460.6598 312.6911 461.8376 310.2618 453.9607 302.3113 432.9801 295.3913 424.5878 298.7041 420.0236 290.2382 421.7168 285.0851 423.6308 277.429 423.3363 273.4537 424.4406 272.7175 418.2568 270.3618 415.8275 262.1904 412.4411 263.0002 406.9199 262.7057 400.5153 260.4972 399.8528 258.2887 400.7362 255.7858 397.5707 250.1173 395.2149 245.1114 397.7179 230.3146 395.3622 227.1491 393.7426 222.8793 394.4052 212.205 391.9758 200.7945 388.5159 198.6596 386.6018 195.6413 389.4729 194.9788 393.3745 192.3286 396.0983 188.7214 397.129 189.3103 401.3987 181.2862 400.957 187.4699 411.1897 183.6419 416.6373 178.7832 415.4594 175.3232 411.1161 172.0841 413.1037 167.4463 408.6131 167.2255 404.2697 162.5876 400.2208 154.5635 395.6566 146.2448 396.7609 143.0057 388.295 141.0181 389.0312 138.2943 378.7249 133.2884 375.2649 134.0982 372.1731 129.2395 371.9522 125.1906 365.1795 120.0375 366.7991 111.5716 366.0629 105.6823 364.5906 103.0321 370.0382 98.9832 369.302 98.9096 360.4681 97.4373 360.0264 94.419 361.8668 90.591 361.4987 86.4685 364.517 86.9838 366.7991 80.9472 368.6395 78.297 369.8173 80.7264 374.0135 77.8554 377.6943 78.297 379.9764 82.8613 382.9946 83.303 388.295 81.9042 395.7303 77.7817 393.5954 80.2847 400.2945 75.7941 399.043 69.9048 399.1166 64.5308 396.6137 58.6415 399.4111 55.1815 399.1902 51.8688 400.3681 53.7092 405.2268 52.2369 409.2756 46.9365 415.3122 46.4212 430.698 37.44 431.2133 34.0537 426.7963 34.2745 419.5819 30.2993 413.3982 32.1397 408.9076 29.4895 403.2391 27.1338 400.1472 21.4653 397.0554 20.5083 391.2397 19.7721 387.2644 16.9747 382.2585 12.1897 377.0317 9.5395 369.4493 7.4046 366.1365 4.5336 365.6948 4.9017 354.1371 2.6932 347.1435 3.3557 343.3891 1.2208 340.8125 2.2515 337.9415 1 331.6105 4.0919 331.7577 6.9629 336.7637 9.7603 335.5858 16.9011 336.7637 19.6985 332.3467 24.778 334.8496 24.41 330.5063 29.1214 328.1506 33.3911 329.5493 37.9554 335.3649 42.5932 333.8926 44.8753 329.0339 50.9118 328.2978 53.4884 325.9421 51.648 324.3961 51.1327 318.6541 49.5131 317.6234 48.0408 311.4397 45.9059 311.4397 47.5991 304.8142 42.0042 301.1334 41.6362 296.9373 39.2804 292.5939 42.5932 288.6923 42.0042 280.3736 46.2004 278.1651 48.4825 271.7605 44.1391 267.1227 42.5932 263.2946 38.3234 262.1168 39.5013 258.5832 46.8629 252.9148 48.2616 257.479 53.6356 259.2458 55.1079 256.2275 53.2675 251.5897 55.8441 250.559 55.6969 246.8046 63.2793 238.0443 66.2976 237.0873 66.5185 231.7869 62.6168 228.4006 64.7517 226.5601 62.2487 220.0083 66.2976 216.6956 68.3589 213.0884 72.4077 211.3216 73.2911 207.4935 78.0762 209.1867 87.9408 202.4876 96.4066 200.1319 102.3696 207.4935 103.621 204.917 104.578 199.8375 102.8849 195.0524 113.7801 198.3651 130.0493 201.0153 134.6135 200.2055 136.3803 197.04 138.147 188.7214 144.0363 188.5742 144.4044 185.4087 148.0116 183.4946 148.8214 180.4028 156.2566 178.9304 163.6183 170.8327 166.4893 167.888 174.9552 167.6672 177.1637 162.8821 177.0164 159.9375 179.5194 157.5817 186.8074 157.2137 196.3775 158.9068 198.586 162.9557 197.1137 166.2685 201.7515 179.4458 201.8987 187.9852 201.2362 198.2179 202.1932 205.6531 197.629 211.6161 190.0465 212.7939 184.5989 210.8799 180.1819 206.1685 179.0041 201.0889 176.133 194.7579 176.3539 191.4452 174.1454 185.8504 171.348 184.5253 171.6424 185.1878 171.7897 185.7031 170.6854 188.8686 171.2007 193.3592 168.6242 197.4081 164.428 197.7026 159.2013 204.4017 158.097 214.5607 159.0541 218.6096 162.3668 220.5236 165.3851 218.0943 163.471 214.1926 165.974 208.2297 169.802 208.745 170.0965 214.7079 172.0841 222.5113 177.679 222.8793 179.593 217.2109 181.6542 216.1803 187.6908 216.9164 189.8993 218.3151 196.5983 218.536 201.457 225.3087 204.4017 224.2044 206.9046 220.45 207.4199 216.99 215.8122 211.5424 217.3581 208.5242 222.2168 215.0024 220.0819 221.9959 215.076 218.8304 210.7327 220.7445 210.291 226.8546 212.0577 229.652 217.1373 231.5661 221.4806 227.4435 225.6768 228.7686 236.7192 228.8423 242.6821 230.7563 248.7923 230.9035 246.2893 237.2345 250.4118 239.0013 255.4177 239.0749 259.6138 242.9766 263.5155 241.7987 267.4172 242.314 268.6686 247.2463 274.0426 247.0991 274.8524 239.443 278.4596 238.1179 284.2017 242.5349 288.4714 247.0255 290.459 251.2952 295.6858 259.393 298.4096 265.724 302.164 263.6627 302.2376 253.7982 298.1887 250.7799 303.2683 243.4183 304.9614 239.2958 302.0904 238.4124 305.8448 234.069 310.1882 233.1856 313.1328 230.7563 318.2124 222.5849 320.7153 221.5542 326.8991 223.321 330.2118 226.7074 328.8867 231.2716 323.2183 240.6945 324.3961 245.6268 320.9362 251.5897 317.1817 265.4295 319.9792 271.2452 316.8873 273.5273 315.6358 278.6068 313.0592 279.0485 310.041 283.2446 306.0657 285.2323 305.5504 287.588 301.3542 287.7352 298.8513 283.3919 295.0969 284.2753 299.293 289.0603 305.9185 292.5203 309.3048 289.2076 314.2371 288.3978 317.329 284.0544 321.8932 280.9625 323.7336 270.141 332.0522 268.9631 334.6288 274.7052 336.9109 271.3188 333.819 267.9325 329.402 265.3559 327.4144 266.6074 322.4085 264.3253 323.2919 258.2151 325.4268 253.9454 328.5186 251.0007 328.0769 242.5349 326.7518 240.4736 329.6965 236.6456 335.1441 235.026 335.9539 236.7928 341.6959 237.3081 343.3891 240.0319 347.6589 234.8788 350.6035 235.3941 357.3762 244.0808 361.3515 243.6391 361.4987 247.688 358.7013 248.7923 360.3208 252.1786 363.7808 245.8476 363.1919 243.271 359.5111 240.0319 355.2413 234.4371 356.3456 230.4618 355.2413 225.9712 357.4498 223.4683 365.8421 223.6891 376.222 221.9223 374.1607 217.8734 377.7679 211.5424 386.0129 203.8863 395.8039 200.6472 398.7485 197.5554 402.1349 199.0277 409.1284 195.3469 410.6744 192.1814 413.9871 190.7827 413.2509 186.0712 417.2262 177.5317 418.8458 176.3539 424.9559 178.636 425.3976 182.9057 431.0661 184.1572 438.6485 181.3598 445.3476 183.1266 450.7952 193.5801 450.2063 197.3345 444.7587 207.1255 441.814 216.2539 439.1638 217.2845 438.0596 222.4376 442.3293 221.407 449.9854 212.7203 449.6173 211.9841 450.4271 210.4382 458.2304 211.4688 462.7946 206.9782 471.9231 203.8863 473.9107 207.4935 482.671 205.9476 488.5603 202.414 487.8978 198.9541 484.9531 194.3899 486.3518 192.255 491.4314 192.4022 497.7624 188.1325 498.4985 189.6048 504.3878 189.3103 509.6146 198.4387 518.2277 204.328 523.9697 204.8434 525.0004 202.2668 520.3625 191.8869 526.5463 192.7703 529.1229 191.1507 530.8897 185.4087 534.2024 183.5683 537.3679 178.1943 541.7113 175.9858 534.1288 173.4092 532.1411 170.0965 534.3496 167.4463 534.0552 163.0293 543.5517 154.1954 548.6312 151.398 551.2814 147.2018 554.8886 144.6253 557.9804 148.895 559.9681 146.1712 566.3727 143.0057 571.3786 143.2266 574.0288 138.5887 575.2066 130.0493 578.593 123.4238 584.6295 119.0804 589.341 119.1541 592.5801 122.0251 595.8192 120.6264 598.9847 115.5469 598.2485 112.7494 Z M 337.7943 132.9203 339.0458 135.3496 335.0705 137.9262 332.9356 135.1288 337.7943 132.9203 Z M 282.2876 195.2732 279.1221 193.1384 280.5208 189.0159 284.9378 189.1631 292.8884 183.2738 298.9985 180.1083 302.753 180.0347 307.2435 178.1943 312.3231 179.3721 314.7524 177.8998 317.329 180.4764 325.3531 179.8138 330.0646 177.5317 333.5982 178.7832 333.1565 183.2738 326.8991 186.2185 309.0839 186.881 303.5627 189.8256 294.876 193.0648 290.9007 196.5983 275.9566 205.2114 272.5703 211.9841 271.6869 216.033 271.9077 224.6461 264.5461 220.3764 260.9389 213.6037 264.6197 208.3769 260.7181 205.4323 262.264 200.8681 266.3865 201.1625 275.3677 193.4328 282.2876 195.2732 Z M 312.6911 126.2948 313.0592 123.0557 322.4821 122.6876 322.6293 126.074 316.5928 125.1906 312.6911 126.2948 Z M 238.5596 222.2168 232.3022 220.1555 235.3205 214.9288 239.8111 215.5913 240.7681 219.8611 238.5596 222.2168 Z M 272.7911 230.6827 276.1775 228.9159 277.8707 236.8664 273.6745 237.0137 272.7911 230.6827 Z M 407.288 175.2496 409.0548 162.8085 410.8952 159.1277 414.576 161.4098 419.5083 166.5629 416.7109 170.9799 407.288 175.2496 Z M 391.3869 161.7779 395.6566 154.0482 400.4417 152.6494 405.8157 156.183 406.2574 166.7838 402.7974 167.4463 396.6873 165.6059 393.669 160.3055 391.3869 161.7779 Z M 391.4605 144.478 395.8039 140.9445 398.3068 144.8461 399.6319 152.1341 394.6996 153.7537 389.0312 152.355 391.1661 149.7784 391.4605 144.478 Z M 526.3255 162.0723 523.8225 156.5511 525.2212 154.1218 531.0369 153.2384 533.8343 156.183 526.3255 162.0723 Z M 520.5834 136.0122 522.4238 129.4603 528.7548 125.117 530.5952 126.9574 527.7978 133.5828 520.5834 136.0122 Z M 509.3201 139.9875 511.8967 137.1164 517.0498 135.9386 519.4792 141.3125 518.0068 147.3491 516.3873 147.4963 513.5899 155.0788 510.6452 157.0664 505.7865 156.5511 499.75 149.9256 501.5168 145.5087 508.8048 144.9934 505.1976 141.9015 509.3201 139.9875 Z M 715.4456 292.2994 722.2919 293.9926 731.1258 298.1887 742.1683 301.5751 737.6041 306.9491 737.1624 309.452 744.2295 319.9055 746.2908 321.5251 752.769 321.6723 757.9221 324.028 755.0511 329.1076 757.186 336.2483 752.1065 333.3773 749.6771 329.0339 744.7448 326.0893 742.978 322.4821 734.6594 318.2124 728.991 311.8814 721.4821 307.2435 718.0958 302.4585 713.9732 300.9862 709.998 301.5015 704.6976 297.5262 700.6487 292.005 697.1151 290.6063 698.7347 282.8766 692.1092 281.6987 692.4773 278.6804 695.9373 279.0485 698.1458 281.6987 705.3601 283.6127 709.2618 286.1157 715.4456 292.2994 Z M 35.5996 183.7891 35.8941 192.9175 30.2993 194.4635 24.0419 175.6913 29.7103 175.6177 32.4341 183.053 35.5996 183.7891 Z"/>
</g>
</svg>