<?xml version="1.0"?>
<svg xmlns="http://www.w3.org/2000/svg" version="1.2" baseProfile="tiny" width="500" height="433" viewBox="0 0 500 433" stroke-linecap="round" stroke-linejoin="round">
<g id="ne_50m_admin_0_countries-Rwanda">
<path d="M 178.4339 81.1174 186.5034 80.9247 239.7143 68.2062 245.0137 72.1807 253.5891 96.8711 258.1177 100.4603 265.5369 101.3516 280.4475 95.6908 307.8358 76.3721 319.7836 64.6411 333.8511 48.1407 351.8209 29.5445 361.8416 13.3332 371.6455 3.8424 384.4846 1 398.6966 1.7226 408.5728 2.0358 400.4551 5.914 398.7689 17.7895 408.1151 36.7951 438.659 76.083 458.0982 83.3095 470.7927 98.5814 483.2222 124.3317 486.9077 156.5377 481.7769 195.2715 484.8361 224.0811 496.0612 242.9662 499 267.464 493.6765 297.5742 487.1968 315.5922 479.5367 321.5661 470.865 323.7822 459.1099 321.7588 444.7533 324.3122 429.1441 329.9729 419.3402 330.7919 413.2459 329.6839 401.7317 324.8662 383.5451 309.3052 349.6289 317.9047 340.4513 317.712 327.9977 325.1071 317.8806 334.2124 311.714 334.8628 305.4511 333.6102 276.2321 315.255 265.561 315.8572 261.1769 367.4301 256.287 396.0469 250.265 408.8137 229.3564 421.1469 208.3033 428.1324 196.7891 427.6507 150.4915 431.5048 132.3772 431.553 122.4047 427.3375 109.397 398.1185 84.8511 385.1109 61.2928 379.0406 51.7057 380.7268 43.1785 396.0228 39.6616 409.7531 16.826 400.3346 9.9608 388.7482 9.3345 369.1404 1 342.282 5.6249 330.8401 14.5858 323.445 33.5432 309.257 62.3768 289.6251 68.5675 280.2307 72.6384 264.6216 70.8077 228.2965 68.0375 197.6322 71.4581 186.7202 84.6102 163.0174 102.2669 138.7606 122.8623 113.1066 135.2678 110.6014 151.5514 100.8939 168.7745 86.5132 178.4339 81.1174 Z"/>
</g>
</svg>