<?xml version="1.0"?>
<svg xmlns="http://www.w3.org/2000/svg" version="1.2" baseProfile="tiny" width="500" height="1443" viewBox="0 0 500 1443" stroke-linecap="round" stroke-linejoin="round">
<g id="ne_50m_admin_0_countries-Saint Vincent and the Grenadines">
<path d="M 389.44 436.3791 325.6536 470.7094 166.3996 324.7 185.5779 155.1681 281.8932 61.9255 372.9106 7.0396 466.577 1 499 141.3936 476.2191 339.2162 389.44 436.3791 Z M 277.2311 791.1247 242.477 814.8591 258.7945 814.8591 242.477 830.9647 231.5634 814.9651 214.2923 805.1111 192.3591 800.7668 167.1413 801.4026 167.1413 785.1911 199.4583 795.1511 248.7285 785.403 248.9404 767.814 234.4243 751.9204 227.7489 740.7949 245.9736 723.6298 306.2634 685.5911 331.5872 665.4591 334.554 673.7238 335.6136 681.5647 338.5804 688.9817 347.6928 696.3987 316.6472 725.8549 277.2311 791.1247 Z M 42.5353 1440.8557 20.4962 1441.9153 1 1434.4983 6.1919 1427.9289 30.88 1422.6311 42.4294 1408.3268 38.297 1389.1485 39.3566 1367.957 58.9587 1354.9243 74.0047 1353.5468 80.68 1361.7055 84.9183 1381.5196 73.4749 1396.7774 60.866 1409.0685 54.6145 1428.0349 42.5353 1440.8557 Z"/>
</g>
</svg>