<?xml version="1.0"?>
<svg xmlns="http://www.w3.org/2000/svg" version="1.2" baseProfile="tiny" width="500" height="375" viewBox="0 0 500 375" stroke-linecap="round" stroke-linejoin="round">
<g id="ne_50m_admin_0_countries-Saudi Arabia">
<path d="M 55.1339 160.6802 54.507 160.6802 52.8462 159.0772 51.87 157.8963 50.88 157.1041 46.3371 155.5046 45.7218 154.4729 46.4157 153.4401 46.9015 154.4672 47.7226 155.072 51.4838 156.5189 55.6728 159.674 56.3922 159.9319 55.1339 160.6802 Z M 175.6032 365.9796 177.4352 366.1115 176.6812 365.3563 176.5192 364.9838 177.315 363.8978 179.9311 366.145 179.8548 368.804 179.6327 369.4123 178.9203 368.841 178.4623 368.2812 178.3188 367.6775 177.5948 367.0252 175.0458 367.4519 173.4613 366.7221 171.1945 364.4842 170.5907 362.8708 171.5391 362.5562 172.5361 361.7802 173.1699 360.5033 172.5893 359.1837 173.9355 359.3942 174.6618 360.7497 174.8029 363.8331 175.0065 364.4865 174.6317 365.1909 175.6032 365.9796 Z M 412.2281 311.9626 406.6697 312.7109 401.2685 313.4372 395.192 314.2549 387.8872 315.238 382.1599 316.0094 373.8003 317.1347 366.3081 318.1421 359.2762 319.0881 352.242 320.0354 346.2557 320.8403 342.6935 321.7771 338.4975 323.8277 332.0578 326.9736 325.4932 330.1795 322.0906 331.8404 318.5261 336.1034 316.7218 338.2616 313.4603 342.1638 310.9946 345.1072 308.0546 348.6243 306.7708 351.7563 304.7908 356.5942 303.0814 357.8132 300.2779 359.3873 297.7265 360.5068 293.7503 360.346 291.4834 357.3725 289.0801 354.2198 287.875 352.9533 286.7947 352.8828 282.8023 353.2829 277.991 353.7652 272.3169 353.2471 265.7708 352.6491 259.6341 352.0894 256.5831 351.6695 252.5583 349.6224 251.5197 349.2153 250.4603 349.1193 245.686 349.0684 240.9557 349.0187 236.2115 349.6664 231.6686 349.4293 226.9614 349.804 225.3029 350.5859 223.4616 350.5396 222.312 351.2301 221.3012 351.5527 220.103 350.9629 218.6318 351.0924 216.4691 350.5859 215.0581 349.2512 213.728 348.0773 212.354 347.4308 210.8135 347.0237 209.4811 347.0156 207.7787 347.7315 206.7378 348.4242 204.1032 350.7316 203.9944 351.5527 205.1926 352.9325 204.8248 353.5767 203.2751 354.3875 202.8009 356.5676 202.5696 357.7646 202.3406 360.6178 203.0299 362.8731 203.9505 363.7012 203.9944 364.6681 203.4902 366.6007 202.063 367.1986 201.0198 369.0353 200.3767 369.8934 199.2572 370.8719 194.8276 374.1241 194.6032 372.2343 193.2014 369.4331 193.0997 367.4554 192.4474 365.4742 191.2307 363.9487 188.9916 362.3596 188.7834 360.1992 187.1457 358.063 184.9737 356.3432 183.7685 353.165 182.8572 348.9412 177.1322 343.3897 169.9731 338.2639 167.7942 335.376 164.232 329.4914 162.4347 324.8409 157.6442 319.4883 157.4383 317.432 156.7282 314.9222 155.6226 312.1303 154.9564 309.9247 150.1543 300.2617 148.6046 298.7188 147.2722 296.5607 146.9276 294.8906 146.5043 293.977 143.1109 292.3925 139.9443 288.3399 130.4327 281.8863 125.7764 281.2456 122.087 278.9394 119.3714 275.9231 116.4708 270.7278 111.375 265.1151 107.0517 257.1475 108.4049 254.248 108.3193 252.2056 106.9916 248.7717 105.5413 246.1186 104.549 243.6135 105.3377 240.0201 105.6407 235.9952 106.492 233.8568 107.1073 231.509 106.3046 226.7856 104.8682 224.2562 105.0116 222.5722 103.3855 221.7499 102.0624 219.9202 103.441 219.9249 100.9405 217.3851 100.0245 215.9752 99.0807 212.5241 97.8733 209.8894 93.9942 203.9112 92.1437 200.2645 87.9917 195.5481 83.4857 192.0657 80.6244 190.4893 79.2481 189.0482 76.9095 188.9985 74.3605 186.9398 72.5794 186.8612 70.3264 186.5316 67.6709 182.5669 65.4804 178.8532 61.7471 174.0165 62.6839 172.7535 63.771 170.6994 63.2298 168.0139 62.6353 166.1842 60.9884 162.858 55.5849 154.5666 54.1508 153.3511 51.8423 151.9574 50.4174 148.3675 49.7697 145.1465 46.0641 143.5828 39.6892 131.979 35.9974 127.9276 34.5356 125.1993 30.2632 120.7118 28.1629 116.251 23.8605 112.1371 20.1295 105 14.3652 97.8687 11.9457 96.6335 6.0056 96.1223 3.5074 95.5995 1.2082 97.1666 1 95.1808 2.5891 92.4386 4.8768 86.6778 5.3325 81.6283 8.9247 66.6347 13.9696 67.4061 18.124 68.0422 24.1913 68.9709 30.4691 69.9332 34.1423 70.4964 35.3983 70.2582 40.4756 66.5907 45.0533 63.2806 47.7943 59.2304 50.4498 55.3097 51.6665 54.4954 55.7353 53.7599 62.1865 52.5941 68.5777 51.4387 69.0866 51.0443 70.5762 47.8973 72.4707 43.9014 72.8569 43.4827 73.3265 43.0756 77.9019 40.8376 80.6776 39.4787 76.7199 35.4689 72.9888 31.687 68.809 27.4516 65.2676 24.1578 59.9567 19.2227 56.4824 15.9936 62.5705 14.4635 69.149 12.8108 75.7923 11.1419 83.7887 9.1329 90.0434 7.5623 99.3791 5.2168 103.9429 4.0695 104.7664 3.7723 108.28 1 113.5678 1.7761 121.5133 2.9419 129.1813 4.0672 137.2703 5.3949 139.8656 6.4751 147.6701 10.4525 152.7404 13.0363 158.662 16.0526 166.0663 19.8253 171.1505 22.416 177.6573 25.7318 182.73 29.5207 189.1535 34.3204 196.2108 39.592 202.0237 43.6897 210.0224 49.3326 217.9078 54.8933 225.6267 60.3384 231.812 64.6986 239.6303 70.2154 240.2387 70.4224 248.1449 71.0504 258.7713 71.8924 269.4487 72.7378 279.0828 73.5 283.2279 72.7286 287.8079 73.2409 293.9053 73.9268 297.6132 74.3882 304.5872 75.2557 306.6737 78.8491 307.43 81.3669 308.1379 83.82 310.2266 86.066 314.9801 86.0116 319.1876 85.9631 324.3782 85.8914 328.4933 85.8347 329.821 88.0622 330.4016 90.2851 332.8489 95.5544 336.3394 99.6637 337.1744 101.1602 337.7388 103.4155 337.1328 104.254 336.8945 105.2244 339.4829 107.4808 343.7575 109.3868 345.4299 109.8691 347.3244 110.7099 345.8463 112.0145 348.3676 115.0262 351.2983 118.0946 354.4349 118.7862 358.6702 123.4263 365.0567 126.4333 368.9335 130.3714 368.575 130.4454 367.4369 130.0453 366.0097 129.5052 365.5772 129.9955 365.6535 131.6471 366.0328 133.5878 368.0082 135.2671 369.7662 136.4757 370.4509 138.7599 369.0676 143.6857 368.5888 143.6822 367.659 143.2555 366.662 143.1572 366.1346 143.4382 367.3051 146.9819 368.4709 149.6998 369.8772 151.851 371.0454 155.0003 372.0469 156.3442 376.1666 159.6913 377.4296 162.489 378.6 167.7005 381.1814 170.6104 382.5716 172.8472 384.4383 174.7451 385.6527 177.3416 387.3736 179.3436 388.2665 179.8455 389.6104 180.0514 391.2828 180.0653 393.2883 179.5425 395.4187 179.0567 397.0887 180.0722 398.812 179.9195 398.9809 180.8633 397.8336 182.1436 396.411 185.3773 398.4327 185.8874 400.3641 186.1395 401.7381 186.6576 402.5338 186.6611 402.5338 187.3307 402.624 190.4003 403.1075 191.5718 403.9772 192.6104 405.2818 194.1614 406.5841 195.7135 407.8864 197.2656 409.191 198.8165 410.4932 200.3675 411.7978 201.9196 413.1001 203.4717 414.4024 205.0226 415.707 206.5747 417.0093 208.1257 418.3139 209.6778 419.6162 211.2287 420.9185 212.7797 422.2231 214.3318 423.5253 215.8839 424.8276 217.4348 425.9055 218.7174 427.8971 218.9615 428.5309 219.0378 430.3236 219.2575 433.1109 219.5987 436.7263 220.0394 441.0009 220.5621 445.7775 221.145 450.8826 221.7684 456.1542 222.4126 461.4234 223.0557 466.5285 223.6791 471.3027 224.262 475.5797 224.7847 479.1951 225.2265 481.9801 225.5666 483.7751 225.7863 484.4089 225.8626 486.2871 226.0916 486.6456 226.0338 488.2186 224.1347 489.958 226.8156 491.3991 229.042 493.3814 232.1 495.4887 235.3487 497.5011 238.4552 499 240.7684 498.2043 243.1717 497.3369 245.7936 496.4695 248.4155 495.602 251.0374 494.7346 253.6593 493.8672 256.2813 492.9998 258.9032 492.1324 261.5251 491.2649 264.1482 490.3998 266.7701 489.5301 269.392 488.6627 272.0139 487.7976 274.6358 486.9302 277.2578 486.0604 279.8797 485.1953 282.5016 484.3256 285.1235 483.2801 288.2809 480.7634 289.1206 476.6877 290.4795 472.6143 291.8373 468.5386 293.1951 464.4652 294.5529 460.3895 295.9107 456.3138 297.2685 452.2404 298.6275 448.1646 299.9853 444.0913 301.3431 440.0155 302.7009 435.9398 304.0598 431.8664 305.4176 427.7907 306.7754 423.7173 308.1332 419.6416 309.491 415.5659 310.8488 412.2281 311.9626 Z M 47.8822 152.8699 47.6602 153.1915 46.6609 152.3611 46.7211 150.5291 47.5792 149.4893 47.5121 150.913 47.8845 152.3472 47.8822 152.8699 Z"/>
</g>
</svg>