<?xml version="1.0"?>
<svg xmlns="http://www.w3.org/2000/svg" version="1.2" baseProfile="tiny" width="500" height="354" viewBox="0 0 500 354" stroke-linecap="round" stroke-linejoin="round">
<g id="ne_50m_admin_0_countries-Senegal">
<path d="M 426.3063 152.3348 433.9215 165.356 432.2775 171.5881 430.5308 180.697 434.8344 187.3281 439.8808 191.6475 443.4849 195.6191 447.4644 201.1002 448.1125 211.9993 447.3893 219.8634 449.9817 223.4161 452.1828 227.9054 451.7402 231.6557 450.2978 234.9633 445.445 239.3499 444.6309 247.5104 452.4911 257.3978 457.5494 262.7762 457.498 265.8626 458.9088 269.2414 462.6393 273.1853 464.9314 272.2566 467.4526 269.0359 468.5829 266.815 475.3642 267.799 478.5612 268.8106 482.9003 275.2719 484.4929 279.5675 485.5362 284.9657 490.0649 291.7075 494.0049 296.4615 494.8308 299.4254 498.3559 303.4404 496.1665 312.3518 496.4155 316.9161 494.0089 328.8862 493.4833 334.5412 493.6295 336.6278 499 340.8918 498.4349 346.9499 492.9853 345.8829 483.5207 345.1755 464.5481 348.333 458.0355 347.0369 445.5872 347.4636 436.7194 349.1985 425.4488 353.1306 416.7192 352.1545 412.0008 349.0562 405.7806 349.2657 398.774 347.6138 391.3091 344.6223 384.4882 343.1048 377.1339 337.592 373.6919 336.6001 371.2773 338.0504 369.2461 339.888 367.12 341.0222 363.1247 340.0224 361.623 336.2761 362.8718 332.6522 363.2472 329.9018 361.374 328.404 356.8769 327.9022 349.6253 327.914 337.9319 326.7798 335.2446 326.0804 309.0638 325.1359 281.903 325.0252 258.8876 324.9343 229.8378 324.8079 209.4069 324.7288 190.3473 324.6498 175.6308 332.012 159.697 339.9908 138.2703 344.239 113.6149 342.6582 105.7389 343.8003 97.5824 347.3451 91.5914 349.9217 83.0911 351.4629 72.1169 350.1904 67.675 350.961 64.9206 347.3293 61.7631 341.4371 63.7509 337.1257 70.4413 334.3515 80.5105 330.7238 85.7823 332.589 88.8686 332.6799 89.4417 330.3523 88.4576 329.1114 80.8662 325.9539 76.9144 321.7887 73.662 324.227 70.8523 329.3367 68.5168 330.8621 65.0787 332.2966 63.1305 328.819 62.2848 325.4402 63.8576 322.8359 63.0514 308.1905 63.988 300.3817 63.5059 293.553 68.2639 289.0558 72.7768 286.2698 90.4138 286.0129 106.8059 285.7718 122.6092 285.9299 138.6971 286.084 140.3055 272.4305 145.3915 271.3596 153.0185 269.9488 167.2213 268.2851 183.0523 266.6964 186.4271 264.0171 189.0511 259.4883 190.7109 255.4258 193.987 253.7068 198.4169 255.0702 204.2261 257.2002 210.2408 260.496 217.1406 263.5508 221.7366 265.4714 232.7701 270.2807 251.6558 276.983 267.1785 279.6584 285.9457 274.7581 299.4925 271.6085 301.176 265.7401 299.0618 260.0139 288.9807 254.7619 275.2561 255.3547 271.0434 256.7616 264.6494 258.5083 260.8043 259.2038 254.3351 257.9787 246.1193 253.446 240.9503 248.8777 233.7225 246.7358 225.1549 244.5939 211.4145 235.1965 204.238 233.513 197.4487 233.019 184.4038 234.8804 171.671 239.9071 164.9688 251.3001 152.2202 251.1342 125.1542 250.7706 100.2973 250.4387 79.7755 251.2132 77.7127 242.9381 72.8519 236.3465 64.9562 230.727 63.2134 225.5066 65.8888 220.9541 73.5198 217.2078 75.2586 214.5324 71.2633 214.9316 65.221 217.3422 61.2059 217.4766 60.7198 210.2645 54.0215 200.9501 46.4696 185.1784 37.9258 178.7171 30.7493 165.9646 23.2566 161.0723 16.3647 158.7881 10.4844 159.2584 8.3346 165.0755 1 156.6976 11.0218 153.6982 32.4407 143.1903 57.0249 113.0854 79.0918 77.44 81.9648 69.0266 84.652 62.6365 86.4304 48.078 89.5918 39.3919 92.5596 37.744 96.302 31.0852 100.8189 19.4194 105.9405 12.9463 111.6588 11.6699 116.1164 12.2311 119.2937 14.6338 128.6042 16.1157 144.0439 16.6848 155.9744 14.946 164.3997 10.8993 175.4648 8.8444 189.1776 8.793 196.3897 7.0937 197.101 3.7505 198.8872 2.7428 201.7483 4.0706 204.4435 3.545 206.9766 1.162 209.4939 1 211.9954 3.0549 223.4794 3.6714 243.9537 2.8574 262.8632 8.9827 280.2195 22.0474 289.1704 30.7651 289.7276 35.1279 292.6045 39.5263 297.7972 43.9562 302.5434 44.7743 306.8469 41.9843 310.2217 42.2846 312.6719 45.6753 317.6195 46.3708 323.1244 44.2882 327.0525 45.0035 327.7678 47.0189 328.6728 48.0938 331.3323 48.572 334.9285 51.1565 339.9552 58.0919 344.0453 67.7738 347.2028 80.1944 351.3759 86.952 356.5607 88.0506 359.5641 90.6035 360.1608 93.5594 361.6665 95.567 364.1561 96.6853 368.5426 96.0175 373.68 100.2143 379.1967 109.3272 380.0701 113.4371 379.2007 115.6422 379.5366 117.2506 383.2039 118.7878 386.6736 121.7715 389.511 126.2568 395.6323 130.2363 405.0258 133.7218 411.7992 138.9302 415.9407 145.8617 424.532 151.6907 426.3063 152.3348 Z"/>
</g>
</svg>