<?xml version="1.0"?>
<svg xmlns="http://www.w3.org/2000/svg" version="1.2" baseProfile="tiny" width="421" height="400" viewBox="0 0 421 400" stroke-linecap="round" stroke-linejoin="round">
<g id="ne_50m_admin_0_countries-serbia">
<path d="M 392.8142 196.7438 389.0037 198.5253 384.8568 201.1728 382.5111 205.785 381.9074 213.2129 368.8924 219.0177 364.0032 220.0915 361.7961 223.9317 358.3914 234.8187 358.817 243.0087 360.5688 247.1804 361.3705 250.5752 365.5768 254.7469 369.4071 261.1554 371.9408 269.6077 377.5625 276.13 391.9927 282.5583 399.1485 286.2995 404.4336 291.7133 408.4717 296.6174 420.3584 303.1397 419.4577 307.7964 416.8547 312.3541 414.1132 314.4919 408.1946 320.3412 402.4245 323.637 392.9231 333.955 377.9188 334.5092 374.3359 335.3356 368.6648 338.1564 365.8737 343.3079 368.546 347.4499 368.3085 351.6365 365.5669 359.782 369.1992 368.4767 374.4844 372.4703 375.3158 374.7714 374.4151 378.8491 366.527 387.143 364.1318 390.2112 356.2239 391.7205 353.5219 390.9337 349.4343 388.0833 345.6536 387.242 336.2214 390.6021 326.631 392.6657 319.0793 391.102 311.6366 390.8991 306.4603 392.2847 302.5706 392.8191 294.9299 396.4069 282.6672 399 277.0158 398.4556 274.8978 395.0807 272.6016 390.2557 273.72 388.0684 281.816 384.2728 282.7464 380.6455 294.059 363.1916 296.2364 357.5105 296.3155 355.6548 293.3662 354.4226 287.1506 354.4721 259.5966 347.3856 260.8535 339.2649 252.7575 334.8903 244.038 330.9858 242.5732 326.631 232.8838 317.8323 225.7874 312.8985 216.7314 310.434 208.9323 306.8215 204.241 304.6144 202.1527 300.507 202.1527 298.0773 199.7971 295.7316 196.0262 295.984 189.6623 299.2501 181.8137 302.0609 180.4479 304.1097 183.2785 308.9791 185.3075 312.072 184.387 315.0016 181.9028 318.728 166.8094 326.9526 165.117 329.8377 167.9971 334.4498 166.176 336.5926 153.5569 339.6311 153.8934 337.1122 153.1116 333.0494 145.8667 328.7341 135.6725 325.3839 112.9879 313.9179 104.2684 312.4085 96.4792 311.0675 85.3151 305.5745 79.5845 304.6144 73.2107 300.6803 59.3347 287.4476 47.5371 280.2374 39.4807 276.5902 37.2241 273.0371 36.7292 269.385 37.0064 268.1429 43.1031 262.9666 47.7944 262.2144 53.8318 262.0462 57.8105 264.6689 63.0462 265.2281 65.956 261.873 67.49 257.0381 66.7873 250.887 54.2079 236.5755 43.3802 226.5891 42.1431 224.3869 44.4788 222.5213 48.2497 221.5167 52.2977 222.353 62.8581 223.0706 73.0028 222.1502 76.4669 219.7204 76.4768 216.4394 72.7653 213.396 60.9083 205.1862 51.6544 197.9562 40.7772 192.4088 32.701 190.1819 30.3158 187.371 29.3162 184.3623 30.2168 178.8297 30.7315 171.8125 32.6516 167.3983 39.9261 159.0648 46.8938 150.2265 51.209 141.7247 53.4755 133.8316 52.6441 131.5651 49.0019 129.8875 41.3117 128.1852 30.6424 129.6698 21.5765 132.5351 18.0332 132.7528 16.8555 129.2244 18.2807 127.6656 21.1212 127.8537 23.4471 128.5168 25.9511 126.9184 27.4456 122.1528 23.6846 105.5897 30.4544 104.1199 30.5632 101.7099 31.1868 99.6068 38.1841 102.4918 48.0221 102.5413 56.6426 101.9623 57.949 100.3342 57.8501 97.9589 56.0587 96.1229 53.0103 94.6235 50.7834 92.3273 44.9638 91.3227 26.7429 85.3497 17.7858 79.0055 18.0827 72.2853 20.6857 68.5985 23.8232 67.302 22.8928 66.0599 12.6194 62.9422 8.9871 58.6023 11.9662 53.0301 6.6217 41.7521 1 34.7943 6.5227 31.7756 7.2848 27.5099 7.7203 25.0653 9.9966 25.0999 18.9042 22.2297 22.1406 19.9038 24.0211 17.1821 26.1589 16.5091 32.1369 19.4634 38.4316 19.7257 45.4982 17.8551 50.7834 15.2571 57.1276 13.0994 60.0077 11.6149 63.6796 9.2939 71.1026 2.4203 79.4856 1 90.7388 2.7518 102.8927 3.3605 111.9784 1.7819 135.0193 3.7663 139.958 5.3746 143.1648 7.1413 149.2021 13.0104 155.0019 20.6313 163.0484 24.1498 172.6389 28.3314 177.5579 31.3748 184.8126 40.5051 190.5431 44.9786 192.4236 44.7609 194.3536 43.5881 195.6996 42.6627 197.204 43.5039 197.2832 46.2702 197.6395 52.4016 196.2737 58.9437 198.3224 65.1246 198.3719 67.0496 196.9467 68.8113 197.1248 70.3998 199.134 72.0774 206.9133 76.165 214.1086 82.4696 222.4223 86.9085 230.1323 89.7441 234.9919 89.9272 242.9592 95.0392 258.6959 98.7111 263.7336 99.9829 267.1779 102.0761 269.6918 104.5059 269.8502 107.104 267.4253 108.3609 264.0405 111.8794 262.6449 116.155 260.131 117.2438 257.6171 117.3279 255.7762 118.5848 256.1919 120.4307 258.2901 122.1875 261.5562 123.7809 267.841 125.3744 274.0466 127.72 273.9576 129.5609 272.7006 131.575 264.8223 132.3272 258.9631 132.6637 256.281 133.5001 256.4987 137.0631 273.0272 140.7696 280.5195 144.2832 284.4784 148.8409 295.0289 151.8595 312.1611 153.3342 324.0874 158.0206 330.7878 165.9187 341.7243 164.0184 356.8969 152.3198 371.7923 149.2665 386.4304 154.8683 394.4176 159.4755 395.7834 163.0831 392.3787 164.5429 384.2035 163.8501 377.5031 166.082 372.2674 171.2236 371.4756 176.7117 375.1376 182.5362 380.3238 186.5545 387.0243 188.7715 390.6071 191.81 391.0723 195.6798 392.8142 196.7438 Z"/>
</g>
</svg>