<?xml version="1.0"?>
<svg xmlns="http://www.w3.org/2000/svg" version="1.2" baseProfile="tiny" width="390" height="400" viewBox="0 0 390 400" stroke-linecap="round" stroke-linejoin="round">
<g id="ne_50m_admin_0_countries-sierra leone">
<path d="M 388.6291 195.6699 388.3021 199.6698 384.5788 218.1224 378.7613 233.9523 374.9312 237.8579 358.5478 242.0213 351.5794 248.9961 345.5606 271.4989 341.7116 289.1527 336.0639 292.1086 312.0077 317.6365 296.2721 327.3219 285.3037 335.6236 274.9076 346.4662 261.8261 357.0007 247.7886 374.7677 237.7573 393.2454 230.9335 399 225.7826 393.7925 201.8333 375.5538 176.6199 363.3213 122.8534 342.938 104.948 337.2085 105.5895 329.9696 111.7655 316.7623 101.7531 301.2154 105.6399 289.9388 101.7531 289.9263 94.0551 296.7249 77.6466 294.7564 66.7851 285.0647 57.9048 281.5113 54.0306 276.6246 48.3389 251.0527 44.2446 239.4428 36.0183 232.2794 19.5091 230.5184 12.7105 214.9023 3.566 202.8081 5.0503 195.3554 12.5093 195.7831 18.3519 201.1918 27.748 203.4496 39.4396 190.3492 49.9112 183.255 52.3388 177.0412 51.0621 173.6325 44.7037 178.928 27.3329 177.5632 23.0311 182.3242 15.2765 183.8525 9.2766 168.5257 9.5659 159.5006 12.0439 149.5637 29.5467 147.8593 31.0373 144.6644 18.8991 142.5324 3.7106 130.9791 1 123.0169 8.5282 120.3252 15.723 121.5138 21.9682 123.2308 28.7417 120.3881 35.0875 116.0171 38.8736 110.4322 44.0056 95.4388 60.4519 90.4263 70.1436 81.2377 79.3447 66.9927 83.5647 56.9802 87.3634 51.9929 89.7533 47.6659 91.5269 42.9113 95.6463 38.5529 99.9607 27.9618 102.9103 18.3079 112.3756 13.6728 131.7275 9.5973 149.1675 16.6035 177.45 10.503 178.9532 1.4528 204.8458 1.3019 235.5183 1.1384 261.0588 1 269.8134 3.4213 273.0083 10.1697 281.4044 20.7544 290.1904 28.075 301.0582 44.1377 313.7183 62.8355 327.3974 79.722 336.1645 88.8791 337.1708 92.0866 336.5356 95.7218 332.2086 104.3065 328.5105 113.5957 328.8879 117.0862 331.4853 118.8346 345.7681 121.7339 347.0826 132.086 347.1014 146.4128 354.0384 159.7837 360.6358 169.6011 360.3025 173.1105 344.1581 189.8964 337.8626 206.5628 334.6677 211.2482 333.3847 214.9778 336.6236 216.7262 341.0449 215.6193 347.309 217.0092 353.2712 217.4997 361.1641 211.5187 374.3023 196.2108 378.7299 194.3366 388.6291 195.6699 Z M 99.7406 330.7621 97.8664 334.1205 89.2942 325.8439 44.9301 313.4353 57.4519 306.8442 88.2565 304.8883 97.4073 308.731 101.489 311.9448 103.0173 318.039 99.7406 330.7621 Z"/>
</g>
</svg>