<?xml version="1.0"?>
<svg xmlns="http://www.w3.org/2000/svg" version="1.2" baseProfile="tiny" width="500" height="230" viewBox="0 0 500 230" stroke-linecap="round" stroke-linejoin="round">
<g id="ne_50m_admin_0_countries-Slovenia">
<path d="M 499 58.6684 484.9432 54.7784 468.0503 53.1588 464.8732 55.2588 458.0851 57.3975 454.6445 61.2178 457.2792 76.251 453.1722 78.8314 433.97 77.3436 427.6313 79.0716 417.1856 89.5406 406.4919 93.942 392.8846 97.0804 382.8418 100.8697 370.1334 104.163 359.3003 106.1468 355.0228 110.7187 352.4191 115.7866 353.101 120.6685 364.1047 130.3083 365.5925 140.5913 364.3991 153.168 361.8729 159.8786 357.5335 164.3421 330.4428 170.1229 302.3448 180.4368 301.6939 182.8003 314.5108 191.9752 315.0222 194.2611 304.4215 199.4762 303.3832 204.7068 304.592 210.7588 310.2178 216.9891 312.2481 222.5839 296.7965 226.6521 275.9051 225.1643 251.1701 217.3688 242.5067 218.5156 234.1067 222.5374 225.5363 220.8094 216.0979 216.0049 202.7541 206.0087 196.2604 199.8792 193.5947 193.3467 189.9527 192.4014 184.4198 194.2999 179.8479 202.2426 167.4959 216.4389 158.3831 220.2979 144.5898 219.4765 125.2637 219.709 113.2526 220.8713 98.5295 215.8577 94.9649 216.8186 94.9339 220.1119 89.4631 225.3193 80.4277 228.7211 38.6139 221.0418 32.6936 214.6721 42.1164 211.65 55.2123 203.4515 64.1237 204.3426 75.0344 202.6146 79.7923 199.1275 72.8801 188.7206 55.5068 175.8882 46.2699 171.014 33.5615 167.7827 31.3762 164.3266 38.4124 144.0861 36.2891 141.2112 21.7829 142.1643 18.3734 140.0488 17.1955 136.5385 18.1719 131.7264 27.9512 123.8611 38.8308 116.8792 41.7445 112.9659 41.357 109.9051 27.4242 106.8054 19.0243 103.6283 12.3601 102.528 7.7882 104.3102 4.3941 102.3032 1 96.4837 4.3786 87.6111 16.9165 79.4126 30.3689 72.1285 42.0854 66.8204 48.8426 64.5422 52.0662 55.437 59.0403 56.3824 72.9111 56.8706 88.3782 58.9396 102.7914 61.4813 115.4689 64.6971 142.0946 68.0602 166.3181 70.0905 173.6177 71.9657 179.5844 71.8185 186.9305 74.5694 191.27 72.4694 194.4161 68.7964 207.6205 64.4569 219.771 58.7924 228.3104 51.578 233.0838 45.8825 241.4373 41.8452 250.3487 40.6828 258.4852 38.6603 292.8135 35.9637 328.0871 38.0792 344.918 34.1117 358.7733 27.1608 379.0293 25.208 380.0832 25.1228 410.3509 30.4619 412.6757 27.3545 413.9775 25.9829 413.4041 10.8258 422.9819 3.9291 431.8468 1 462.0836 1.9531 466.0356 6.6026 467.6164 13.8169 470.313 23.48 475.3499 26.1534 478.1086 29.9582 477.5816 36.6456 483.4864 41.636 497.3262 55.1503 499 58.6684 Z"/>
</g>
</svg>