<?xml version="1.0"?>
<svg xmlns="http://www.w3.org/2000/svg" version="1.2" baseProfile="tiny" width="500" height="163" viewBox="0 0 500 163" stroke-linecap="round" stroke-linejoin="round">
<g id="ne_50m_admin_0_countries-Slovakia">
<path d="M 499 47.0626 497.7233 50.6869 494.1333 54.911 489.6435 59.2722 485.9078 64.5417 480.9211 75.8088 477.6395 81.0054 464.2731 91.3001 463.3049 105.6175 461.5056 106.6671 431.2942 111.5167 427.3014 110.7713 423.1887 107.9823 420.9096 105.956 419.4958 104.4608 416.874 100.498 413.4124 97.6877 408.2801 95.3914 403.6018 92.7267 397.5527 92.6196 381.2303 96.381 369.9032 96.7923 362.346 95.5842 352.2956 93.305 332.6915 92.9495 319.2566 94.9501 317.9371 97.7391 305.5475 115.2482 287.5458 121.7 271.9088 128.3146 267.3677 129.6556 259.5964 127.5778 250.7454 123.6493 243.3939 121.6058 238.0302 122.5054 232.1696 126.9566 229.4963 131.4677 211.7859 134.7708 180.9918 136.72 170.2645 141.1541 166.5973 146.4921 166.4431 150.5962 169.0478 154.0877 165.7662 158.1576 164.3267 159.8541 142.5721 160.7452 113.5602 161.9362 96.2182 161.632 79.8958 161.345 68.7829 157.8577 55.2195 151.0418 40.8849 141.9766 39.5054 141.7624 37.3719 140.7985 28.3668 140.1216 25.9763 140.6571 20.5869 137.7097 19.0018 133.8754 10.6478 123.7992 1.2399 107.2326 1 102.4516 4.6672 97.0022 8.0773 92.8424 8.5571 89.5393 8.9341 88.6397 11.7531 81.7894 18.5991 72.6771 24.9481 67.3863 29.5835 65.6427 39.0941 67.2321 55.3908 68.5516 67.9175 67.3177 79.596 63.2564 85.945 59.7049 91.3686 55.9735 93.1765 53.553 95.5842 52.392 105.2491 50.2371 108.3251 47.7266 109.5932 42.9713 110.4328 37.6675 112.4207 33.739 114.9054 30.8601 132.7958 23.9413 134.3981 21.5122 137.2684 19.1431 142.555 16.4956 147.6873 12.6699 153.1195 10.3222 160.1112 10.5835 166.563 10.0994 171.5925 8.7628 173.8031 8.6257 183.0996 9.7224 184.7704 14.1093 185.7472 18.6762 201.6326 18.3463 210.475 8.57 215.0504 7.3919 222.4104 3.9903 227.2686 1 230.6102 2.8721 235.4427 9.1526 240.5579 14.2121 243.5053 16.2085 243.8223 17.7637 246.7955 18.6933 252.579 19.2588 256.4261 20.7882 257.5743 25.4922 257.66 29.7548 255.8521 32.8051 254.9096 35.5084 258.9109 36.5665 264.763 35.5426 268.9014 34.0175 281.3167 37.5347 285.7036 29.6863 290.6218 25.6807 297.0136 23.8171 302.8057 21.3709 308.1094 19.6401 311.768 19.7429 313.3446 19.0189 317.8943 19.2074 323.1637 19.9957 330.3182 19.0746 340.223 20.9853 346.4092 24.6053 352.4583 25.8306 359.3729 25.6207 364.1025 23.6243 370.9656 16.744 375.9437 16.8511 383.7408 15.763 394.7509 15.823 420.1213 17.2967 426.4789 19.9314 442.0987 23.3073 448.9018 27.2015 451.9264 31.8497 453.5029 35.0585 469.5083 39.9981 493.2422 46.3086 499 47.0626 Z"/>
</g>
</svg>