<?xml version="1.0"?>
<svg xmlns="http://www.w3.org/2000/svg" version="1.2" baseProfile="tiny" width="500" height="233" viewBox="0 0 500 233" stroke-linecap="round" stroke-linejoin="round">
<g id="ne_50m_admin_0_countries-Solomon Islands">
<path d="M 178.4901 85.051 176.3808 85.6518 173.2471 84.0267 171.8856 82.5484 172.5383 80.2403 174.3709 79.3672 176.4499 80.9146 176.6574 82.5052 178.4901 85.051 Z M 499 224.7903 495.0883 225.5078 493.5453 225.3306 490.9562 221.5011 492.8797 220.6366 495.7367 220.9694 496.6055 223.2213 499 224.7903 Z M 463.7691 184.632 460.2335 185.3971 459.1097 185.1809 456.4645 185.5916 453.6247 188.7771 451.5241 188.3319 449.8773 188.4486 448.6238 185.825 448.5979 184.5542 450.6121 184.7574 451.671 182.2072 453.8538 180.9365 458.9282 180.353 463.4363 181.1828 465.0485 181.7663 463.6221 184.0744 463.7691 184.632 Z M 217.8185 230.6643 214.7324 232.1857 211.9229 231.4207 209.7747 230.2666 208.0285 226.8607 204.2725 224.7384 198.9301 223.8524 196.7387 222.3828 196.1682 221.6567 192.4683 221.004 191.3964 219.1627 191.7076 217.2479 192.3127 216.2408 195.736 217.1658 212.1736 226.1518 216.0852 228.9354 217.8185 230.6643 Z M 260.8208 134.5238 261.3092 139.2611 261.0845 140.8992 257.7261 137.4198 256.1571 138.6516 254.7091 137.0005 254.8085 133.4044 255.029 129.5705 254.3763 126.6659 252.6906 122.4733 254.5795 123.139 260.8208 134.5238 Z M 156.3989 112.2987 155.8024 112.4067 153.7234 111.8665 151.1992 111.6849 149.6605 110.1505 151.4888 107.9548 153.7969 106.5241 154.8558 106.8915 155.8456 107.8078 158.1624 108.1579 158.4088 110.9804 156.3989 112.2987 Z M 199.7557 106.6322 202.3015 107.2546 203.5333 107.1552 206.4466 109.5367 210.3496 113.0421 208.7547 114.8531 205.5907 113.9282 204.5275 114.2956 204.1817 114.0535 203.5161 112.2944 200.0669 110.5525 196.9764 110.4055 196.5745 108.3352 199.7557 106.6322 Z M 93.3239 73.2901 96.1031 76.9122 99.2973 84.9819 98.7224 87.7611 96.4316 87.9167 95.7962 89.6586 92.6928 85.7469 88.565 84.688 85.5524 82.2848 84.5194 77.5216 84.2298 74.5176 81.8482 74.0033 75.0839 74.7554 72.9184 77.3228 69.8193 76.5059 69.1623 74.2021 69.6464 71.9372 73.7656 69.7069 74.6084 66.837 78.7146 61.8923 81.2474 61.0537 86.0365 62.8345 86.633 69.8669 88.3576 72.1663 93.3239 73.2901 Z M 112.679 98.9515 111.7065 99.1201 110.6692 97.3566 113.0853 92.5848 114.2523 96.4229 115.0087 97.8623 112.679 98.9515 Z M 108.5686 92.8527 104.2117 96.3451 101.0305 95.1652 98.4501 92.1698 99.2973 88.5607 99.777 87.6055 101.0608 87.398 102.3315 86.6589 103.7233 85.064 108.4605 86.3304 109.6448 87.2079 106.818 89.4209 107.7603 90.1297 108.3741 91.1843 108.5686 92.8527 Z M 76.7479 94.1494 76.7523 94.7978 74.3102 93.553 68.9289 87.5796 69.8798 85.5827 74.8072 81.7099 76.3287 81.1999 77.7204 83.5987 76.5059 87.1387 74.8937 88.0421 74.2367 91.3702 76.7479 94.1494 Z M 45.7183 59.1649 44.8711 59.7743 43.3929 57.3841 42.3167 56.6364 42.3469 53.9738 37.8863 49.6386 37.5103 46.6476 40.0993 43.7171 43.5831 45.4244 47.0366 49.1026 51.0822 50.3042 50.248 52.742 46.6087 57.1248 45.7183 59.1649 Z M 42.0011 70.1651 41.4609 71.2586 39.1571 65.7996 39.2738 63.0506 39.6714 61.2871 40.5143 60.7469 42.3772 66.8283 42.0011 70.1651 Z M 67.1395 67.3556 66.1713 68.0256 61.3563 67.7706 57.6867 63.2062 57.7169 59.8262 60.5999 56.7228 64.0793 56.1739 65.9855 57.3755 67.7706 59.9689 68.4103 63.2754 68.0083 66.1929 67.1395 67.3556 Z M 8.1836 22.6114 3.736 23.6704 1 22.2483 2.2146 18.8726 3.7187 17.1135 9.2815 20.2255 8.1836 22.6114 Z M 88.0982 96.1593 87.9988 97.7153 85.4617 97.2312 79.7995 94.8885 79.605 93.8166 82.8294 93.4233 85.1721 93.7172 87.1171 95.083 88.0982 96.1593 Z M 181.265 118.8988 191.0117 126.0089 195.2043 125.3606 208.0069 125.4903 215.5579 130.5646 219.9969 132.8943 222.4909 137.4414 225.5726 138.4787 227.4701 140.7955 228.5593 145.0183 227.7943 145.7056 223.874 147.2789 221.0472 147.9315 213.6302 146.4317 206.5244 143.1814 192.4164 142.788 185.8379 141.8631 183.5817 140.6226 181.4897 138.9671 178.1702 135.0166 175.5768 130.3831 175.1533 127.6644 174.9371 122.4906 175.7411 120.6061 178.4295 118.7216 181.265 118.8988 Z M 186.9617 86.218 187.0395 87.2424 181.0921 83.5426 176.5796 79.0215 163.7252 74.0984 160.9632 71.5742 158.6422 71.2586 152.0464 67.1438 145.5759 64.3733 141.6167 60.7901 140.6096 59.3248 138.228 58.4517 134.1651 54.5185 130.2145 51.9078 128.8184 47.1403 124.9846 43.8554 124.038 42.4204 136.296 45.057 141.9798 50.2826 146.8337 53.2391 148.5194 55.3743 152.8935 58.3005 156.8182 58.5684 160.7471 61.5162 164.326 62.3115 167.1484 63.8546 185.3668 77.0419 183.1927 80.5429 185.6132 83.0844 186.9617 86.218 Z M 81.0745 32.933 82.4879 34.4933 79.0647 37.1515 74.5479 35.7079 73.5754 34.2167 73.4587 33.4257 70.3077 33.9358 64.0275 32.6348 55.2965 26.2983 46.0684 14.3688 37.1775 7.76 35.5177 5.707 35.3016 2.301 36.4902 1 42.0141 2.422 49.1502 7.8681 60.8722 13.5303 64.0707 16.4176 66.1022 23.3462 68.0904 25.4079 74.4096 30.7243 77.7507 31.9691 79.5185 32.1939 81.0745 32.933 Z M 225.4819 76.467 236.4691 89.6586 236.0326 91.9969 234.5414 93.5054 234.1091 97.9357 235.4923 99.6387 238.4963 100.4167 243.5965 105.141 245.6323 110.9242 245.8139 112.7007 247.9318 115.3286 248.0139 120.8568 252.8592 128.5332 253.2828 132.2244 252.8333 133.8841 250.8191 132.9246 245.0272 124.2195 238.4098 120.4635 237.6534 118.8469 230.9712 113.7726 226.4846 105.2318 221.6394 90.0389 223.9172 86.4385 218.4452 79.069 218.7045 77.098 221.017 77.5476 222.6205 77.4568 223.3899 76.5794 225.4819 76.467 Z M 268.2335 168.2333 273.8006 170.8353 277.0423 170.4074 281.8444 172.1968 285.4967 171.1768 287.7746 173.4892 293.5448 182.5141 293.5794 185.4446 297.357 187.5279 294.1672 187.9213 289.7412 186.845 286.305 187.5798 282.7218 185.8293 276.6663 184.9216 271.3974 182.821 260.38 176.1603 260.4405 172.8365 258.664 171.2113 258.128 167.0879 254.1861 165.7826 249.5829 165.5405 249.2112 163.5912 250.0627 160.1377 253.4946 160.1895 257.6267 161.6245 265.5105 166.6643 267.4642 167.5244 268.2335 168.2333 Z"/>
</g>
</svg>