<?xml version="1.0"?>
<svg xmlns="http://www.w3.org/2000/svg" version="1.2" baseProfile="tiny" width="500" height="280" viewBox="0 0 500 280" stroke-linecap="round" stroke-linejoin="round">
<g id="ne_50m_admin_0_countries-Somaliland">
<path d="M 499 20.133 498.9923 42.022 498.9923 63.2761 498.9845 85.5483 498.9768 121.9951 498.9768 135.1439 498.9613 154.4472 498.9613 163.3538 487.5039 180.7179 473.4764 201.972 458.5741 224.5655 446.2188 243.292 434.6453 260.8264 422.8705 278.6705 395.8761 278.6705 369.5551 278.6705 343.5981 278.6705 338.9454 276.3674 317.161 269.0711 289.5163 259.8123 255.2139 248.324 230.8128 240.149 204.7706 231.6024 178.3412 222.932 157.6096 216.1234 131.7841 207.6426 109.3184 200.2728 106.2218 198.4651 93.7736 187.2129 77.4236 172.419 74.2961 172.1558 66.485 169.0825 59.4944 161.0933 52.2639 150.8823 45.5521 138.1128 42.6335 129.4075 33.6999 125.7419 29.4034 118.8946 21.2981 108.7301 15.6778 103.7949 13.6805 99.4906 11.0871 90.5918 6.45 80.9112 2.0141 74.8999 1 72.3298 1.2477 70.6344 9.4537 57.5126 13.1541 52.829 17.3654 48.2925 20.7949 43.7715 22.1109 40.675 32.0897 25.2153 40.8685 11.629 47.7352 1 63.2103 13.158 78.2675 37.8106 95.8328 57.7216 120.0481 76.2315 129.6475 82.4865 138.1476 85.7883 182.2584 85.2735 213.5494 68.3855 241.945 56.1656 251.5212 53.6303 267.995 56.9746 286.1797 57.9732 302.5374 61.693 310.844 60.7563 343.2187 46.5352 363.5633 32.7013 377.4282 26.8255 382.8859 26.7636 401.806 31.7413 426.122 29.5737 459.387 17.6209 469.985 15.2133 478.0594 15.043 496.1899 20.4156 499 20.133 Z"/>
</g>
</svg>