<?xml version="1.0"?>
<svg xmlns="http://www.w3.org/2000/svg" version="1.2" baseProfile="tiny" width="500" height="655" viewBox="0 0 500 655" stroke-linecap="round" stroke-linejoin="round">
<g id="ne_50m_admin_0_countries-Somalia">
<path d="M 28.1437 654.3941 28.3769 650.4711 27.6259 648.5166 23.0919 642.6531 14.6302 631.7145 8.2302 623.4487 1.681 614.987 1.6577 608.2232 1.5784 588.0952 1.4198 547.8414 1.2659 507.5853 1.1073 467.3292 1.028 447.2012 1 438.9704 1.681 437.6433 9.1445 430.2568 19.0243 420.4843 32.0014 401.9119 39.045 391.8269 44.9225 383.4142 46.4199 380.8556 51.6163 375.7618 61.3748 372.7181 67.4295 372.212 88.2759 368.4033 91.3826 366.8639 93.2018 365.103 94.9324 361.0797 98.9954 355.4425 104.2338 351.5662 114.1835 346.5073 123.942 342.2112 126.1017 341.5115 137.838 338.8153 140.7161 337.8917 145.4648 336.9471 147.34 336.9261 163.6477 337.8707 176.4055 338.6077 189.5412 339.3657 190.922 338.7873 200.1067 328.7723 214.7071 312.8308 224.0271 302.6641 238.4223 286.9512 249.4962 275.609 261.7316 263.0657 273.6172 251.6023 287.9191 237.8089 296.9266 229.1233 310.9252 215.6237 324.2429 202.7819 336.0212 191.4258 343.1161 180.6737 350.0898 170.1082 357.5346 158.8244 366.5141 145.2106 374.9665 132.4037 381.8702 121.9409 381.8702 116.5742 381.8795 104.9428 381.8795 97.0199 381.8842 75.0586 381.8888 61.6384 381.8888 48.8315 381.8935 35.6422 387.7943 35.0497 403.3743 31.6166 415.4978 26.4481 437.8509 22.7047 454.8629 13.2354 457.8296 8.6664 462.9701 2.9055 470.4382 1 489.4981 7.7684 492.5348 8.3072 491.4339 12.4004 490.7809 16.573 486.8719 23.8592 484.3856 31.9547 486.2001 44.3208 487.0771 64.3765 486.6293 67.2896 485.3698 70.1584 484.8427 72.4184 482.7856 73.2091 481.8807 74.5082 483.378 75.026 489.3535 72.8382 489.2229 70.4453 489.5774 69.2604 494.4846 71.9333 497.9924 73.0528 499 75.5671 498.7294 77.2907 493.1692 76.4977 490.333 75.1636 482.0766 77.356 477.0201 79.7256 475.5087 83.6626 474.3286 99.3755 472.3741 109.5818 472.0009 123.0674 465.3211 132.0002 463.0681 138.2999 453.123 150.9108 447.9359 161.6908 446.2426 166.9526 437.5057 181.7419 425.5268 193.0747 421.1887 207.5492 416.8878 216.6243 412.0552 224.8668 401.4758 239.5045 396.0508 249.6875 389.2543 267.3362 387.1832 278.5244 368.0628 310.9695 348.2379 336.8445 335.8812 358.6098 313.724 383.8667 283.5063 416.4727 243.9732 455.1871 233.2305 463.0821 189.9517 486.9512 161.8891 506.9743 147.5592 520.5904 132.5063 532.4387 120.5694 543.7225 84.4789 581.8072 80.7565 585.3943 77.2487 588.7715 72.7053 595.2228 69.5426 597.779 60.9223 608.6664 55.5393 614.3106 49.5032 619.8942 46.9423 623.8359 45.1278 628.3746 43.1173 630.8982 37.6736 641.7249 32.8877 648.8152 28.1437 654.3941 Z"/>
</g>
</svg>