<?xml version="1.0"?>
<svg xmlns="http://www.w3.org/2000/svg" version="1.2" baseProfile="tiny" width="800" height="529" viewBox="0 0 800 529" stroke-linecap="round" stroke-linejoin="round">
<g id="us-states-41">
<path d="M 799 225.0958 769.8493 233.2944 733.4109 260.6233 697.8835 303.4383 691.5068 338.0548 663.267 365.3835 625.9178 365.3835 617.719 385.4245 578.5479 407.2876 556.6848 430.9724 522.0685 440.9931 484.7191 466.4999 481.0752 478.3423 446.4589 492.0067 409.1095 527.5341 370.8493 512.9588 369.9384 484.7191 343.5204 440.0821 320.7465 428.2397 318.9246 392.7122 307.9932 365.3835 263.3562 339.8766 234.2055 308.904 236.0273 289.7739 191.3903 261.5342 169.5274 230.5616 131.267 209.6095 104.8493 174.993 99.3835 155.8629 73.8767 119.4246 56.5684 122.1575 1 86.6301 3.7329 69.3218 39.2602 33.7944 96.6507 22.8629 132.178 7.3766 177.7259 1 382.6918 9.1986 383.6027 26.5068 400.911 16.4863 426.4178 44.726 423.6849 63.856 610.4315 66.5889 799 225.0958 Z" id="45"/>
</g>
</svg>