<?xml version="1.0"?>
<svg xmlns="http://www.w3.org/2000/svg" version="1.2" baseProfile="tiny" width="800" height="364" viewBox="0 0 800 364" stroke-linecap="round" stroke-linejoin="round">
<g id="us-states-42">
<path d="M 2.1466 1 785.8147 2.1465 783.5216 14.1853 754.8578 36.5431 773.2026 56.6077 797.2803 68.6466 797.2803 256.681 783.5216 258.9741 789.2543 267.5732 785.8147 285.9181 799 296.237 790.9742 303.6896 787.5346 324.3275 778.3622 339.806 797.8535 362.737 778.9354 359.8706 772.0561 344.9655 717.0216 325.4741 667.7199 325.4741 652.8147 323.181 640.2026 333.5 586.3147 314.5819 582.8751 309.4224 255.5345 309.4224 77.819 308.8491 1.5733 308.8491 1 100.1767 2.7198 100.1767 2.1466 1 Z" id="46"/>
</g>
</svg>