<?xml version="1.0"?>
<svg xmlns="http://www.w3.org/2000/svg" version="1.2" baseProfile="tiny" width="364" height="400" viewBox="0 0 364 400" stroke-linecap="round" stroke-linejoin="round">
<g id="ne_50m_admin_0_countries-south korea">
<path d="M 46.9789 62.7783 49.2298 61.3912 49.3732 59.3948 49.3947 52.8428 55.8177 48.3087 64.9647 38.9788 69.4522 33.8748 74.5634 29.1078 80.4846 25.925 86.2983 24.4088 95.4381 23.7672 112.958 24.3766 116.3917 23.8246 128.5782 23.33 131.4528 24.1758 140.3059 24.7099 150.1196 24.1149 155.0587 22.735 159.6394 20.3873 163.6395 16.1543 167.7614 8.3155 172.1772 2.1434 174.7578 1 192.6863 33.839 209.8334 55.0543 224.45 70.4271 245.2674 100.0152 251.3678 115.8362 251.9485 125.6355 255.4181 139.1159 252.4503 146.8436 253.332 159.0229 252.0202 165.2775 249.4825 169.8868 249.3893 178.7364 250.2065 183.4712 250.2854 189.7472 251.9198 192.1953 254.3069 193.1021 258.0848 190.8153 262.7156 189.8655 261.8984 197.4175 256.2998 216.5217 251.4324 230.4358 244.8158 242.5541 236.3856 253.6331 226.2995 257.9736 219.2027 259.5292 205.6685 260.0884 194.4283 258.203 184.7651 259.5686 180.8869 261.8841 178.0052 265.8303 180.1199 271.9666 179.8475 276.4971 175.7184 276.1494 167.5176 273.515 158.4423 273.1566 154.1985 271.8555 149.9189 265.368 145.5533 265.6081 137.9546 269.454 126.3273 270.3071 122.2341 272.386 120.786 275.0777 122.485 278.4756 128.3345 282.9416 126.3703 287.4578 120.2771 289.7194 115.3595 284.1638 112.2913 278.7193 108.8648 278.4111 103.5314 279.9667 102.4561 285.8449 104.9364 289.8485 109.0225 294.4901 103.302 299.8271 101.7894 303.6371 97.6819 306.3791 86.585 300.2966 88.1621 295.974 92.9793 291.8162 93.5743 287.508 91.9901 284.956 76.1118 295.8378 66.3268 308.1712 61.1009 307.2752 58.9145 304.1031 55.8535 302.8128 45.2871 310.7662 43.3445 317.0781 39.4591 317.3183 37.7602 314.648 37.624 308.9418 35.8103 304.1282 24.864 297.103 19.8604 290.9668 22.5486 287.5366 31.6884 289.4004 38.9502 289.1567 37.5165 286.2463 35.158 284.8664 39.9824 283.2283 44.004 279.8735 40.6706 278.9631 35.5738 280.9022 31.33 279.9452 29.6526 271.9128 24.4841 263.669 21.8174 255.6654 26.9142 251.0596 29.5092 243.9018 34.2476 233.5361 36.6204 230.1849 43.1868 227.7476 45.5237 225.0665 41.9179 223.6902 36.1616 222.4715 36.305 219.4823 40.2262 217.8478 44.6061 214.5539 53.108 210.5431 55.7245 202.9731 53.2729 201.0699 47.9753 199.2706 49.1653 195.4462 51.3517 192.5358 50.5345 190.7902 44.2764 185.8655 40.1186 181.378 41.3516 176.2632 40.3982 168.5284 40.9645 162.0337 40.6921 158.514 37.6383 150.5856 36.2476 142.6464 32.2333 143.8042 28.9859 145.7755 17.3801 142.9798 13.7241 142.8077 12.2331 136.9116 16.3908 129.6427 26.2547 123.2377 31.9178 122.442 36.1974 119.6211 42.857 118.7322 50.8571 123.08 58.0328 123.9545 62.0185 131.4671 64.4629 133.055 64.9791 130.2951 70.7712 127.0585 72.1548 124.6176 70.9003 123.2807 64.2335 121.9509 58.2478 112.6282 57.4163 108.5565 55.237 105.9615 58.4772 98.5206 51.5524 90.0223 48.1832 87.3484 48.6635 79.7104 45.0506 74.8465 43.0362 72.1799 41.8032 67.5741 42.857 65.5024 46.0112 64.7138 46.9789 62.7783 Z M 201.6541 281.7696 194.7293 286.2965 185.3959 280.2247 183.1737 276.8699 190.2705 271.9523 196.2921 266.3357 200.2491 265.9845 201.6541 281.7696 Z M 152.091 281.2319 151.2738 288.4112 146.0837 288.766 142.9869 284.1388 139.6894 286.3968 137.969 286.4363 135.3883 280.6835 134.9439 276.1924 141.0514 272.7802 144.7361 274.834 150.0479 275.8914 152.091 281.2319 Z M 17.6023 313.1892 12.9069 314.3146 10.2689 311.7877 8.4194 311.1175 9.466 307.7985 17.1148 301.2823 18.6131 299.0349 25.6884 300.3862 28.3336 303.8343 25.0719 309.0852 17.6023 313.1892 Z M 38.6706 66.083 38.3265 75.782 34.2763 75.3663 31.5236 74.3913 30.3408 72.4989 27.5594 63.4988 30.6633 59.7819 36.6777 62.7246 38.6706 66.083 Z M 55.7245 315.1354 56.9647 318.6265 51.0291 317.967 47.875 314.6121 48.2979 311.734 51.832 311.3254 55.7245 315.1354 Z M 132.5066 295.2392 131.6822 297.5116 127.9761 294.0743 131.632 290.3144 132.5066 295.2392 Z M 31.1006 157.4172 30.0899 162.1663 25.2224 159.0337 23.8317 148.6106 28.8282 151.6501 31.1006 157.4172 Z M 13.0718 286.7158 12.104 288.49 8.9069 287.9596 5.6309 282.9058 4.2688 278.9057 1 276.7086 6.2043 273.2318 12.8209 279.4828 13.0718 286.7158 Z M 361.3115 85.0474 357.9781 87.2302 354.0283 85.0474 353.548 82.7391 355.6125 80.7355 360.4083 79.524 362.652 81.2839 361.3115 85.0474 Z M 24.4482 397.3763 21.1507 399 18.0826 398.0215 17.2582 397.258 13.5664 393.0501 12.6058 390.8888 15.0861 386.7741 25.2368 379.9962 51.5022 373.4693 56.2263 373.1826 66.5992 375.9783 68.8071 381.2113 66.9074 385.7239 64.5203 388.749 52.5058 393.8494 43.1509 396.2975 24.4482 397.3763 Z"/>
</g>
</svg>