<?xml version="1.0"?>
<svg xmlns="http://www.w3.org/2000/svg" version="1.2" baseProfile="tiny" width="500" height="578" viewBox="0 0 500 578" stroke-linecap="round" stroke-linejoin="round">
<g id="ne_50m_admin_0_countries-South Africa">
<path d="M 301.0358 2.1069 301.3284 2.0797 307.9632 1 313.5205 1.8801 320.212 4.3639 326.4771 5.244 332.318 4.5204 337.0678 4.3548 340.7221 4.7518 343.5983 5.6137 345.7033 6.9407 345.8258 8.1633 345.9891 8.719 347.1006 11.9468 348.7564 16.767 349.8565 21.2174 351.3672 27.3214 351.3196 30.7194 351.6893 32.0327 353.0481 33.6727 354.7085 36.4899 355.2755 38.0891 355.8335 39.2845 357.5892 41.5528 358.9525 44.9915 360.107 49.544 361.096 51.7284 361.468 52.8013 361.9149 54.7566 361.8536 58.8827 361.8808 63.662 361.9126 68.9993 361.9421 73.4044 361.7652 75.6341 361.8854 81.9627 360.3928 85.2608 360.5788 87.8489 361.0416 89.5275 360.4246 89.7861 359.2587 90.0855 353.8919 87.4293 348.6589 84.6257 347.9035 84.5417 346.8011 84.8344 343.8319 86.8736 341.0623 90.0628 339.7898 92.7825 337.7438 95.5929 334.4479 100.1159 334.1168 101.0913 334.0805 104.766 334.2393 108.2637 334.5273 108.7514 336.3057 108.917 337.5782 111.7841 340.4884 116.3479 345.3812 119.2763 349.9223 120.6033 356.2645 120.939 361.2775 120.8437 360.9917 117.7724 361.4816 112.8253 362.1213 109.4999 362.8199 109.3525 364.1401 109.6701 364.8659 110.0103 366.8802 109.8719 370.455 110.5252 373.3403 110.4526 375.9194 110.3891 380.2813 110.278 382.8264 110.2394 381.9667 115.6017 378.6391 123.9967 377.5049 127.846 374.665 141.6055 370.9586 148.5398 368.8808 151.4024 362.8766 156.4675 361.2072 157.495 359.7237 158.1528 357.0924 158.7335 346.8011 168.9772 342.9632 173.9176 339.5584 181.1195 336.1741 185.0731 331.202 193.5067 326.7584 200.019 322.494 205.9551 315.1197 214.1301 311.8465 216.4937 309.6372 217.5757 303.7782 222.321 295.5306 229.9493 289.2156 236.7111 279.7727 244.3848 274.306 247.7442 266.097 254.3563 263.8083 255.3339 254.5559 261.4788 247.9052 265.2101 237.133 269.5358 232.855 270.7471 222.6363 269.6265 218.3696 270.2254 214.8061 272.8384 214.4749 276.5902 212.9892 277.1528 210.7367 276.9849 203.5938 275.4198 199.7196 275.7192 197.4581 277.7198 195.6366 280.2558 190.2562 280.3851 180.6749 277.7607 169.4059 276.1638 166.7974 275.9869 161.3353 277.9331 159.4254 278.2166 151.4681 277.7992 147.054 276.5698 142.8327 276.5653 139.5958 277.5815 135.6717 277.9376 125.0673 284.9875 119.5916 284.9966 114.8667 285.8132 112.5236 285.7859 108.1389 284.8015 106.5058 284.8673 104.0106 285.3096 101.511 286.5504 95.822 287.088 93.6104 288.145 83.9928 294.5824 81.8016 294.3261 80.0301 293.9065 75.0353 293.8294 69.3804 290.3997 67.2142 290.6174 67.7948 289.5899 67.9695 287.7684 66.7764 286.4823 65.9688 285.9084 63.7504 286.015 62.5709 284.4635 59.1753 284.3161 58.0003 284.7085 56.3694 284.7879 56.2242 283.2182 56.3535 282.2292 56.2537 280.7095 55.8454 278.8449 54.5298 278.2506 53.5204 278.0011 51.116 278.1281 49.4601 278.3278 48.6821 278.8699 47.7929 280.2354 47.7816 284.3887 46.5907 283.1978 45.2365 280.7095 44.8033 278.0556 45.291 274.9162 47.861 273.7254 47.6613 271.6045 47.1169 269.7649 44.2475 265.0536 43.127 262.8987 40.6908 261.4379 38.7968 257.9198 36.8869 256.6427 36.093 254.1816 34.2307 252.2105 33.6001 249.0961 34.6277 247.3087 36.2518 246.3356 37.9076 247.8803 39.9627 247.2769 42.8866 245.0245 44.615 241.6061 44.7216 236.1372 44.277 232.7212 41.9566 223.8952 40.861 221.8673 35.6325 215.5501 29.5671 207.0916 21.8934 193.7539 18.2233 185.74 12.6704 169.5647 7.78 160.4121 1.7712 151.8674 1 151.3116 1.9187 150.2727 5.1487 148.2993 6.6186 147.7663 7.3989 148.0112 8.1588 147.4691 8.896 146.1354 9.0593 144.8833 9.4222 143.1117 10.1435 142.0524 10.9352 139.9383 12.2826 138.5842 15.1384 137.6882 17.3023 138.8768 18.2096 140.045 18.5839 141.5851 19.5411 142.3291 21.0791 142.277 22.1633 143.2251 22.7916 145.1713 22.6646 146.5822 21.789 147.4578 21.9115 148.6078 23.0275 150.0368 23.488 151.3933 24.2365 153.183 28.1584 154.2264 30.0752 154.8139 33.3801 155.0135 36.5035 155.812 39.4455 157.2138 44.2793 157.5517 51.0048 156.8327 56.5418 157.1548 60.8924 158.5203 64.0431 158.7721 65.9961 157.9101 66.8421 156.6626 66.5813 155.0317 67.5499 153.9996 69.7456 153.5618 71.5035 152.3346 72.8259 150.3136 75.8836 148.6713 80.6766 147.4056 83.0605 147.4487 83.0605 144.1755 83.0605 133.8434 83.0605 123.5113 83.0605 113.1814 83.0605 102.8493 83.0605 92.5171 83.0605 82.1872 83.0605 71.8551 83.0605 62.0991 84.1788 62.8023 91.5327 67.9786 93.5174 70.7005 94.5042 72.4245 97.6662 78.6941 100.0229 84.3149 101.9374 88.5521 102.0826 90.4892 102.3525 92.3833 102.6224 93.3133 102.4455 94.3431 101.0981 96.6477 99.7235 98.4124 98.0722 100.8214 97.9134 104.0038 98.4124 107.7511 99.4264 109.6156 100.6989 110.2281 103.743 109.2981 105.671 109.5839 108.3907 110.2961 117.3097 109.8561 118.3872 110.0852 121.7533 110.3528 122.8784 110.0443 123.8855 109.2527 125.0514 107.0048 126.0949 106.2676 127.9844 105.8865 130.2232 105.2809 132.0809 103.9879 135.0229 99.5443 140.9069 95.5997 142.7125 94.6561 143.8512 93.5946 144.8402 92.1655 146.902 87.1979 148.4604 83.0583 148.9912 81.1075 150.3816 77.9206 152.0647 75.8859 153.7092 74.813 154.5326 74.5385 156.6512 73.9896 159.3755 73.4769 162.2381 74.0531 165.3094 75.2848 168.7753 77.3648 172.323 79.9348 173.9561 81.2414 175.7163 81.8266 178.8511 82.0307 180.9062 81.9854 184.1023 84.5395 185.7196 84.7005 189.3353 85.474 193.8016 86.2702 196.6143 86.1795 199.6266 84.7981 201.7996 84.7391 204.6078 84.8502 207.6927 84.4714 209.9564 83.8794 211.6872 82.6795 213.2115 81.3661 214.9626 77.4556 215.972 74.3071 217.5349 70.6869 219.4516 65.7806 220.1343 62.36 220.8375 61.4186 223.6185 60.3729 225.9185 59.6539 232.1042 58.3088 233.3722 57.592 234.529 55.9792 237.2283 53.2436 240.5582 50.9595 242.2753 49.6506 245.4237 38.5632 245.8048 37.1954 248.0935 34.2534 249.5066 33.0103 250.4162 32.9877 251.7092 32.2119 253.3854 30.6831 255.3793 29.7394 257.6907 29.3856 259.1878 28.3694 259.8728 26.6977 261.0614 25.8856 262.7558 25.931 263.7199 25.4002 263.958 24.2887 264.981 23.3383 266.7911 22.5466 267.7393 21.6098 267.8255 20.5279 269.9827 17.8966 274.2153 13.7139 278.2007 11.3843 281.9434 10.9102 285.4888 10.0392 288.8414 8.7712 291.3025 6.7796 292.8744 4.069 295.5782 2.5561 301.0358 2.1069 Z M 286.4506 185.7899 290.2636 184.3155 291.9875 183.4082 293.2351 182.6687 294.8388 181.5414 295.3945 178.8035 295.864 176.4762 297.0935 175.3307 298.3501 174.5686 299.3799 173.3618 300.6638 170.4607 301.5439 167.6208 301.6369 166.4594 301.1764 165.2685 300.3644 163.996 299.5614 162.2812 298.5951 162.0135 296.6965 161.0517 293.9088 159.1191 291.4862 157.4406 289.2224 154.9931 288.2924 154.5939 286.099 152.9403 285.1554 151.9899 284.493 150.8534 283.8692 150.4792 282.8848 150.7672 280.2944 151.2708 274.737 153.2556 271.2937 155.0838 268.4016 157.2523 265.3939 158.0825 263.1913 158.8016 261.447 161.2854 259.8161 163.5968 258.3508 165.6791 257.5115 166.6182 256.7448 167.2261 255.9759 168.5576 254.3948 170.7692 252.9477 172.2572 250.9243 173.067 248.3181 174.1149 247.4289 174.7251 247.3087 175.6188 248.2387 177.7011 249.1369 179.7108 250.6022 182.0585 251.6751 183.7779 253.3696 185.8761 254.3608 187.1055 254.2293 189.1674 254.5627 189.9069 255.1298 190.7598 255.597 190.9775 256.1278 191.2837 257.5342 191.8758 257.8722 192.2705 258.8589 192.9736 259.8025 194.2552 261.5899 196.0177 263.5996 197.3583 267.0543 197.9117 269.7558 198.3404 270.6541 198.0796 271.5727 196.9999 272.3235 195.6185 272.564 193.8719 273.4259 192.9419 276.6605 188.496 278.4412 186.8492 279.5322 186.7312 280.9386 186.416 282.7283 186.2799 284.0688 186.4114 284.3592 186.3615 286.4506 185.7899 Z M 498.2855 576.9935 497.2874 577.4267 492.592 577.0456 492.0862 576.1519 493.4721 574.7796 494.2887 574.2012 496.7204 574.5142 498.6552 575.6279 499 576.0045 498.2855 576.9935 Z"/>
</g>
</svg>