<?xml version="1.0"?>
<svg xmlns="http://www.w3.org/2000/svg" version="1.2" baseProfile="tiny" width="500" height="393" viewBox="0 0 500 393" stroke-linecap="round" stroke-linejoin="round">
<g id="ne_50m_admin_0_countries-South Sudan">
<path d="M 441.1313 359.3703 430.6315 369.8919 422.8781 377.6628 421.5837 378.7648 419.3359 380.1992 411.9454 380.232 404.3232 379.3202 397.3001 374.5973 390.172 378.2554 385.6502 379.4099 382.9564 379.8362 376.5892 380.4288 367.6769 382.3879 363.6362 384.8456 361.4497 386.7938 359.6392 390.3666 358.7296 390.7383 357.0941 390.3141 354.8026 388.8819 350.036 386.8047 347.6396 382.2589 345.418 379.5104 343.5988 378.0695 336.0247 382.6 332.3644 383.6692 329.3558 383.5402 323.8676 380.982 317.8021 378.8173 314.6842 378.8326 310.0137 381.5461 304.7005 385.6174 301.9585 389.645 300.6335 392.0371 299.6627 390.1282 298.7706 388.3462 296.9907 386.0591 294.4238 385.1692 292.0842 385.6152 289.3554 386.0591 288.1309 384.78 287.8685 381.6379 287.1251 378.7605 285.8438 376.5892 281.9212 374.4311 271.8106 370.0406 264.0397 361.277 260.1258 357.2078 257.2702 354.5818 253.2251 347.6942 248.6116 342.9494 243.0228 340.7498 239.3319 341.8343 235.5361 346.9136 228.373 351.6825 225.0845 351.8486 220.8732 349.262 215.5862 347.4209 206.0791 346.6184 202.1609 348.8793 197.0225 352.5352 192.667 354.7152 189.9644 354.9622 187.4499 354.0942 184.5943 353.6241 182.1235 353.5476 177.042 350.2087 174.4094 347.7642 172.6558 345.4049 169.7871 343.8 166.4286 342.464 164.0321 340.3628 162.8383 337.7411 160.9491 334.3782 158.4827 331.3477 150.7293 325.9032 148.4116 322.6956 146.8023 319.5623 143.6274 316.1076 140.2383 311.4809 139.1538 304.7136 139.0007 299.2626 138.2967 296.7415 136.8579 294.2182 135.1874 292.0776 132.4761 289.6637 126.1571 286.1674 119.6281 282.1114 116.4882 279.7499 110.5452 278.8863 106.9899 276.5707 103.9987 271.4761 102.7918 267.3939 99.7831 264.2256 98.4974 261.9275 97.7802 259.2818 100.1636 251.2223 96.7045 248.3688 91.5443 244.6649 87.8534 240.6176 85.5969 236.8961 78.9892 231.983 64.5537 224.6494 56.2274 219.9614 51.6707 215.748 47.6956 211.6351 47.302 209.9384 49.869 205.8299 50.2582 202.4451 48.1547 198.7127 39.5048 191.6852 32.6129 183.9514 27.3914 181.5331 14.8233 179.3882 11.2155 178.5376 7.4503 177.0617 3.7332 173.5807 2.4606 169.4613 4.2929 162.8733 3.1253 160.8529 1 160.3041 1.586 158.931 3.9649 155.7277 7.8438 153.6483 18.2211 150.3948 18.7984 149.1441 19.0039 145.0268 19.8479 143.0152 23.4207 137.3105 23.928 135.0344 24.0854 130.189 24.5664 127.8975 25.5985 126.2686 28.4497 123.437 29.4468 121.7162 29.8753 118.0013 29.5648 110.6414 31.0167 107.7333 37.5632 101.0491 39.3124 98.0754 39.9071 95.3904 39.8459 92.6747 40.2395 89.9918 42.1811 87.3942 43.8385 86.5874 48.662 85.7762 51.9506 86.2878 74.9179 81.7202 77.6117 82.3477 78.823 85.0525 78.7137 89.373 79.1029 91.4721 80.3405 92.9677 83.9876 95.023 86.5152 98.4559 87.8578 99.7241 91.553 102.0768 108.6517 121.784 113.4577 123.6513 118.1369 122.9756 127.4209 118.8825 132.0651 117.8439 164.5569 119.0049 168.1866 118.3905 168.4096 118.478 173.3555 128.3676 175.7126 130.6154 211.3399 130.7291 210.6621 127.9194 211.1125 124.773 215.2713 120.7257 217.3879 118.7228 217.3879 118.7316 218.2844 118.0079 223.7813 115.1194 229.1558 113.1756 239.4893 110.9126 243.2633 107.3441 245.3449 104.0709 245.4148 97.6359 246.7792 96.582 249.2456 95.0908 261.1972 89.3446 263.2176 88.1289 284.3351 101.493 296.1905 112.0736 296.9077 112.5874 297.5243 112.7842 298.1496 112.4191 298.6787 111.9315 299.5402 111.6057 300.1175 111.4636 305.1902 111.3258 314.7804 110.8076 317.9333 109.5394 337.1879 90.6478 342.0858 84.6217 343.3277 83.3929 346.1177 79.0985 349.0564 71.719 349.6424 70.8837 370.7381 53.1838 371.4859 51.78 371.6914 50.6671 368.5034 44.7131 367.8169 41.687 367.6769 37.0275 368.311 29.7791 368.088 25.1983 368.0049 24.6801 367.7994 23.9717 367.6594 23.7071 355.8784 10.6885 385.6327 10.5573 385.7027 9.4794 385.6765 8.9109 385.5846 8.3905 385.0205 6.8293 384.6969 4.7543 384.675 4.1748 384.7188 3.6085 384.8893 2.5349 384.9068 1.9533 384.8762 1.6756 384.8193 1.4176 384.8368 1.1902 384.968 1 406.3479 1.2602 406.068 4.9445 403.4704 13.6054 403.5186 18.8006 402.9063 24.7304 402.7576 25.2115 402.1716 26.4906 401.66 27.2231 401.074 27.9293 400.9078 28.1961 400.7067 28.629 400.6936 29.2828 405.1322 62.4809 404.966 63.3183 404.7999 63.8671 403.6148 65.9378 403.3086 66.62 403.2474 67.1469 403.7285 67.5077 413.5766 71.0936 414.0533 71.321 414.4337 71.614 417.9803 75.8843 437.3748 91.6405 438.0395 92.4254 440.0467 97.3736 440.2698 98.1235 440.3397 99.3086 440.2916 100.2292 439.7931 103.1963 439.9593 104.5301 440.2916 105.4112 440.5584 106.4302 440.5584 106.7407 440.5234 107.0074 440.3747 107.4797 437.4972 113.1953 436.5614 117.2644 436.2815 120.6864 436.4477 122.6652 436.7757 123.9377 436.9244 124.2307 437.0468 124.445 437.1824 124.574 437.318 124.633 445.6399 124.6637 445.7011 124.6637 445.6574 126.4785 445.9897 135.546 446.2784 143.4831 446.7506 156.4427 446.7594 159.8231 446.4358 164.0387 445.4606 165.6939 443.086 168.075 440.1123 170.2506 432.5776 170.806 426.2978 170.7404 421.8417 170.255 415.7544 170.0604 410.0082 170.5305 407.9135 172.3606 404.8217 178.8678 400.3437 188.2983 397.9866 192.2821 397.3744 194.6108 398.0785 195.997 401.039 198.0043 407.5418 200.8293 414.9891 202.4823 420.5429 203.1973 424.3343 203.9735 427.2512 204.8438 437.834 212.0746 441.2144 215.4309 443.1166 218.4134 443.5539 221.5926 445.0801 224.7827 451.1762 231.104 454.7096 234.7642 463.8931 239.4412 467.4046 244.7501 470.8069 247.3324 474.0254 250.1028 475.7528 254.2419 479.7323 266.2306 482.4086 272.5147 485.1461 277.6531 486.2481 286.0165 488.4128 289.7511 490.6518 294.3079 494.3471 298.4251 498.2872 301.5672 499 302.4068 490.7655 310.486 481.534 319.5448 470.855 330.027 459.227 341.4386 450.1223 350.4646 441.1313 359.3703 Z"/>
</g>
</svg>