<?xml version="1.0"?>
<svg xmlns="http://www.w3.org/2000/svg" version="1.2" baseProfile="tiny" width="500" height="193" viewBox="0 0 500 193" stroke-linecap="round" stroke-linejoin="round">
<g id="ne_50m_admin_0_countries-South Georgia and the South Sandwich Islands">
<path d="M 498.8201 189.5283 499 191.9481 492.415 189.7269 490.9032 188.6887 493.0127 187.3278 497.1531 187.2865 498.1727 188.1137 498.8201 189.5283 Z M 39.7178 4.4538 43.8376 6.5137 47.1053 5.1115 50.4929 5.2769 52.3459 5.9718 54.2569 6.2366 56.6394 6.2531 60.7447 9.7152 59.0281 12.7843 63.5346 12.1804 67.4476 14.7366 69.222 14.5216 70.1072 13.4875 72.6221 12.3128 74.3676 13.9011 76.4688 16.9413 79.1388 17.8637 81.4986 21.0859 83.3516 25.1436 85.0475 25.7185 87.9471 25.7351 90.8838 25.1725 89.7732 28.676 90.1228 31.7823 94.9808 34.0118 92.0854 35.2361 89.037 37.0106 82.8284 38.388 81.2132 37.8006 75.7884 34.7067 73.257 31.0585 67.5696 25.8467 66.4549 24.3122 64.9947 23.3277 59.8451 22.6866 55.3199 21.4375 51.5538 18.7985 50.375 17.1771 48.9232 16.052 43.8086 16.114 40.5864 14.869 37.3974 13.1731 23.0154 8.2757 17.3715 8.768 14.7718 7.3823 14.9104 4.9253 17.8823 3.457 5.432 2.8986 1 2.0134 4.0464 1.4881 21.3982 1.4095 27.9046 1 28.4754 2.063 34.2331 4.2387 39.7178 4.4538 Z"/>
</g>
</svg>