<svg version="1.1" id="Layer_1" xmlns="http://www.w3.org/2000/svg" xmlns:xlink="http://www.w3.org/1999/xlink" x="0px" y="0px"
	 width="500" height="400" viewBox="250 0 500 359" style="enable-background:new 0 0 500 359;" xml:space="preserve">
<g id="ne_50m_admin_0_countries-Spain">
	<path d="M438.6,113.8l-0.5,0.3l-1.5-0.3h-2.2l-0.1-0.9l0.3-0.6l0.4-0.6l1.3,1.2l2.1,0.2L438.6,113.8z M472.9,89l2.1,0.7l2.2-0.7
		l1.2,0.2l1.2,0.4l0.3,1.4l-1,1.6l-1.5,1.6l-1.2,1.7l-1.1,2l-2,1.2l-1.8,0.7l-3.8-1.5l-2.2-0.4l-0.7-0.6l-0.5-2.2l-1-0.7l-1.5-0.3
		l-1.3,0.6l-1.7,1.2l-0.9-1.2l-1.4-0.2l-0.5-0.7l0-0.9l9.2-5.4l2.7-1.2l5.6-1.4l0.9,0.2l-0.7,0.8l0.1,0.4l0.7,0.4l-0.2,0.6l-0.7,0.5
		L472.9,89z M498.4,87.9l-0.4,0.3l-6.8-2.6l-2.2-0.3l-0.5-0.4l0.1-1.3l0.2-0.6l4.6-0.3l3.7,0.9l2,2.6l0.2,0.4L498.4,87.9z
		 M435.3,108.3l-0.8,1.4l-3.4-0.5l-0.7-0.6l0.7-1.5l1-0.2l0.1-1.1l1-1.1l4.8-0.9l1.1,0.7l0.2,1.1l-2.9,2.4L435.3,108.3z M363.5,8.9
		l0,0.8l0.9,1.1l0.9,0.4l1.9,0.5l1.5,0.1l2,0.3l1.4,0.6l0.1,1l-0.3,1.1l-0.8,1l-0.5,0.7l0.4,0.4l0.7,0.3l0.8,0.1l0.5-0.1l0.4-0.6
		l0.8-0.7l0.4-0.1l0,0.4l0.4,0.5l2.4,0.9l5.4,1.6l2.1,0l1.7,0.2l0.5,0.7l3.4,2.4l0.8-0.1l1.5,0.1l1.8-0.2l1.3-0.5l0.9,0.1l1,0.5
		l1.1,0.4l1.4,0.8l1.3,1l0.9,0.3l5.4-0.7l1.2,0.6l1.3,0l1.4-0.2l3.1,0.3l2.5-0.1l0.2-0.2l0.2-2.2l0.4-0.8l0.6-0.2l1.5,0.2l5.4,1.3
		l2.2,0.8l2.2,0.6l1.9,0.1l1.2,0.4l1.7,2.1l-0.3,1.1l0.2,0.4l0.2,0.7l0,0.8l0.5,0.5l0.8,0.1l1.1-0.2l1.2-0.3l2-0.9l0.6-0.1l3.4,1
		l1.5,0.7l0.5,0.7l0.8,0.8l1,0.1l1.5-0.7l2.3-0.8l3.9,0.7l4.3,1l1.9,0.1l0.1-0.5l0.3-0.7l0.7-0.3l1.1-0.1l1.5-0.4l1.7-0.6l1.7-0.2
		l1.8,0.4l2.2,0.4l1.3,0l0.6,1.4l1.1,0.5l0.4,1.2l-2,0.6l-1.2,0.1l-0.4,2.1l0.5,0.6l1.1,0.6l0.3,0.6l0.2,3.1l-2.2,1.8l-3.1,2.1
		l-15.4,6.7l-3.7,3.2l-1.4,0.7l-11.4,2l-8,2.2l-3.8,0.8l-4.8,3.8l-2.3,1.5l1.8,0.4l2.1,1.8l-0.7,0.8l-3.1,1.2l-1.3,0.4l-0.7-0.2
		l-0.7,0.2l-5.1,6.5l-4.5,4.7l-2.6,2.1l-2.6,3.1L396,95l0,2.3l2.7,7.9l1.6,2.1l2.2,1.7l4.2,1.5l1,1.5l-1.4,1.4l-4.2,2.5l-7.3,3.3
		l-3.1,2.6l-0.7,2.5l-2.1,1.1l-0.8,3.5l-1.3,2.3l-0.2,0.8l-1.4,1.8l-0.2,1.3l2.2,1.8l-1.1,0.8l-1.1,0.3l-2.6,0.2l-8.6,0.2l-6.9,3.9
		l-3.5,3.4l-3.1,6.4l-3.8,3.7l-1.7,0.7l-2.6-1.6l-3.3-0.3l-3.2,0.5l-1.7,1.3l-2.6,0.7l-2.5-0.6l-5.5-0.3l-2.4,0.1l-3.8,1.1l-3.3-0.7
		l-5.5-0.4l-11.9,0.8l-1.5,0.4l-1.5,1.6l-3.8,2.7l-5.8,0.1l-5.2,1.7l-1.3,1.1l-2.2,3.1l-0.7,2.2l-0.5,0l-0.6-0.5l-0.8,0.2l-0.4,1.7
		l-2,0.8l-1.6,0.3l-4.1-1.4l-3.4-2.1l-1.8-0.1l-2.9-3.2l-1.2-2.1l-0.9-2.2l0.2-0.8l-0.2-0.7l-2.6-0.9l-0.6-2l1.9-2.6l1.5-1.1
		l0.9-0.3l-2.3,0.1l-1.7,1.7l-2.1-2.7l-8.7-5.3l0.6-1.2l-0.1-0.7l-1.5,1.4l-1,0.4l-4.4-0.2l-5.1,0.7l-1.4-5.5l-0.6-2.1l-0.2-1.4
		l1.3-3.2l1.4-1.3l1.9-2.7l2.4-2.2l2.5-0.5l1.1-0.3l0.9-1.7l0.5-1.5l-0.4-0.1l-2.9,0.3l-5.2-6.1l0.2-1l0.7-1.4l0.4-1.8l0.1-1.4
		l1.4-1.2l2.1-1.3l1.8-1.8l0.9-1.7l0.2-1.6l-1-1.1l-2.9-0.6l-3-4.5l-0.7-2.8l-0.6-0.3l-1.8-1.3l-1.8-2.4l-0.3-0.4l1.8-0.4l7.5,0
		l1.6-0.5l0.2-0.2l1.4-1.9l1.4-3.1l0.3-1.9l-0.4-0.8l-2.5-1.9l-0.1-0.6l0.4-0.9l1.5-1l2-1.1l1.1-0.9l-0.3-0.7l-0.6-0.8l-0.1-0.7
		l0.4-0.9l0.1-3l0.3-0.8l-0.4-2.7l-0.5-2.2l-1.6-2.9l0.3-0.6l0.7-0.5l2.4-1l1.9-2.4l2.8-2l3.6-1.6l2.5-1.8l1-1.3l0.7-0.4l-0.2-0.6
		l-0.5-0.9l-1.4-0.9l-1.9-0.5l-2.1,0l-1.3-0.2l-0.4-0.7l0.1-1.9l-0.1-1.9l-0.4-0.9l-1-0.6l-1.9,0.2l-1.6-0.5l-1.2-0.1l-0.7,0.4
		l-3.7-0.1l-1.5-0.3l-1.1-0.4l-0.7,0.2l-0.4,0.4l-0.1,0.6l-0.2,0.8l-1.3,0.7l-3,0.7l-2.4-0.1l-2.2-0.5l-0.7-0.4l-1.1-0.3l-4.5,0.4
		l-0.5-0.3l-1.6,0.7l-2.3,0.8l-1.3,0l-0.5-0.2l-0.2-0.4l-1-1.3l0.3-0.7l1.8-2l-0.2-0.5l-0.8-0.7l-0.7-0.9l-0.2-0.5l-1.2-0.1
		l-1.3,0.5l-4.8,1l-1.1,0.4l-2.1,1l-2.1,1.5l-1.7,0.3l-0.6-0.4l-0.2-3.5l2.5-2.3l1.8-1.4l-0.8-0.3l-1.9,0l0.1-1.1l0.9-0.5l0.9-1.2
		l-1-0.5l-0.8-0.8l0-2l0.2-0.8l-0.3-0.9l-3.9,1.2l-1-0.2l0-1.5l2.2-2.3l0.2-0.7l-2.5-0.3l-1.9-1.1l-1.2-1l-1.2-1.5l0-1.3l1.3-3.1
		l1.8-0.9l1.6-0.5l3.3-2.1l4.6,0.4l2.8-0.5l2.6-1.1l1.5-0.2l2.4-0.9l-0.1-1.3L219.7,6l0.7-0.9L223,4l2.9-1.4l3.4-0.3l3.4-1.3
		l2.3,0.8l2-0.3l2.3,1l3,2.2l4.5,0.9l3.6-0.7l6.3-0.1l3.1,0.3l5.6-0.6l3.2,0.2l5.2-1.1l4,1.4l7.8,0.6l4.7,1.1l12.9,1.9l4.7,0
		l6.6-1.1l2.8-0.8l2.6,0.5l3.8-0.9l1.8,0.2l2.3,1.3l8.2,1.8l2.2-1.5l1.6-0.3l5.9,0.9l6,1.9l3.1,0.1l4.5-0.5l3.6-1.2L363.5,8.9z"/>
</g>
</svg>
