<?xml version="1.0"?>
<svg xmlns="http://www.w3.org/2000/svg" version="1.2" baseProfile="tiny" width="225" height="400" viewBox="0 0 225 400" stroke-linecap="round" stroke-linejoin="round">
<g id="ne_50m_admin_0_countries-sri lanka">
<path d="M 27.9622 19.7528 21.5034 20.8696 16.4127 14.0133 15.2055 11.1008 16.5335 9.0686 17.9419 8.0424 19.612 8.3693 22.0265 14.7578 27.9622 19.7528 Z M 18.2035 79.4974 21.1814 87.2993 12.6702 81.9572 7.0766 77.5356 5.1047 73.949 16.6743 77.9531 18.2035 79.4974 Z M 29.2802 1 39.1798 1.5382 49.7433 1.2767 57.1479 2.6851 69.8342 18.5506 104.362 46.9817 123.145 75.8756 124.8553 82.1986 127.4711 87.6615 131.9782 89.1605 135.771 91.6656 154.544 119.5484 156.707 125.0666 156.3951 131.1431 157.5018 135.6654 162.4113 137.924 168.5281 139.1111 172.5322 143.2963 177.6128 165.5703 177.6128 172.5121 179.0313 175.495 202.6736 210.1536 204.0418 214.369 203.7903 217.5229 204.4744 220.2494 209.052 226.3762 216.195 242.8805 219.8369 246.6281 224.173 261.0599 224.4647 288.656 222.8651 300.9349 218.4485 315.8798 213.217 330.4978 207.5429 341.0513 199.7862 349.985 173.2666 368.9643 165.6709 372.7822 131.1431 384.6788 105.7 395.9416 82.1785 399 58.6469 392.7776 40.9202 378.0037 31.8456 356.2427 25.6383 333.5662 16.614 308.3495 9.6822 230.4759 6.3723 208.7099 1 180.978 1.5332 168.9607 5.326 157.4313 5.316 182.7084 8.7969 185.8423 11.4127 182.5928 13.7869 156.4203 15.7387 145.3436 25.1051 116.5051 25.2962 111.3893 23.6765 100.544 23.7771 95.1063 37.7813 74.8695 41.3629 63.0937 43.2945 51.0512 42.5299 38.0278 39.9947 25.1956 51.3027 29.2852 57.5201 33.7521 63.8583 36.7753 69.0093 35.226 75.2267 35.1757 70.8 28.1886 57.6408 21.7499 35.8195 17.7709 28.9884 12.6753 26.3626 8.2486 27.7007 3.0674 29.2802 1 Z"/>
</g>
</svg>