<?xml version="1.0"?>
<svg xmlns="http://www.w3.org/2000/svg" version="1.2" baseProfile="tiny" width="500" height="404" viewBox="0 0 500 404" stroke-linecap="round" stroke-linejoin="round">
<g id="ne_50m_admin_0_countries-Sudan">
<path d="M 364.5513 379.0332 364.5107 379.0332 358.9967 379.0129 358.9069 378.9738 358.8171 378.8883 358.7359 378.7463 358.6374 378.5522 358.4201 377.709 358.31 376.3979 358.4954 374.1306 359.1155 371.4344 361.0221 367.6473 361.1206 367.3344 361.1438 367.1576 361.1438 366.9519 360.967 366.2768 360.7468 365.6929 360.6367 364.8092 360.967 362.8432 360.9989 362.2333 360.9526 361.448 360.8048 360.9511 359.4748 357.6725 359.0344 357.1524 346.1838 346.7126 343.8339 343.8832 343.5818 343.689 343.266 343.5383 336.7407 341.1624 336.422 340.9233 336.4626 340.5742 336.6654 340.1222 337.4506 338.7502 337.5607 338.3865 337.6708 337.8316 334.7298 315.835 334.7385 315.4018 334.8718 315.1149 334.9819 314.9382 335.3702 314.4702 335.7092 313.9849 336.0975 313.1374 336.196 312.8186 336.6016 308.8896 336.5698 305.4473 338.2909 299.7087 338.4763 297.2676 324.3103 297.0951 324.2234 297.2212 324.2118 297.3719 324.2494 297.5428 324.2697 297.7268 324.2581 298.1122 324.1451 298.8235 324.1161 299.1988 324.1306 299.5827 324.3451 300.9576 324.7188 301.992 324.7797 302.3368 324.7971 302.7135 324.7507 303.4277 305.0359 303.5146 312.8418 312.1406 312.9345 312.3159 313.0707 312.7853 313.1258 313.1287 313.2736 316.1639 312.8534 320.9665 312.9461 324.0538 313.401 326.0589 315.5134 330.0039 315.3772 330.7414 314.8817 331.6715 300.904 343.3993 300.5157 343.9527 298.5685 348.8423 296.7199 351.6877 295.897 352.5019 292.6518 356.4947 279.8939 369.0121 277.8048 369.8523 271.4505 370.1957 268.0893 370.287 267.7069 370.3811 267.136 370.597 266.7854 370.9201 266.3711 371.162 265.9625 371.0316 265.4873 370.6912 257.6321 363.6806 243.6399 354.8257 242.3012 355.6312 234.3823 359.4386 232.7481 360.4267 231.844 361.125 231.7977 365.3887 230.4184 367.5575 227.9179 369.9219 221.071 371.4214 217.5099 372.7093 213.8677 374.6231 213.2737 375.1027 213.2737 375.0969 211.8713 376.424 209.1157 379.1056 208.8173 381.1904 209.2664 383.0521 185.6602 382.9767 184.0984 381.4874 180.8213 374.9346 180.6735 374.8767 178.2685 375.2838 156.7398 374.5145 153.6626 375.2027 147.5112 377.9147 144.4108 378.3624 141.2264 377.1252 129.897 364.0674 127.4486 362.5085 126.5591 361.6682 124.8843 359.3937 122.4677 358.0318 121.6477 357.0409 121.3898 355.6501 121.4623 352.7873 120.6597 350.9952 118.8748 350.5794 103.6569 353.6058 101.478 353.2668 98.282 353.8043 97.1838 354.3389 95.8973 356.0601 95.6365 357.8377 95.6771 359.6371 95.283 361.4162 94.124 363.3865 89.7864 367.8154 88.8244 369.7422 89.0301 374.6188 88.7462 377.0803 88.0855 378.2204 86.1963 380.0966 85.5125 381.1759 85.1938 382.6942 85.0895 385.9047 84.7534 387.4129 82.3861 391.1927 81.8268 392.5256 81.6907 395.2536 81.3082 396.0823 74.4323 398.2381 71.8622 399.6159 70.2859 401.7383 69.8977 402.6481 66.9538 401.8861 63.2102 401.3399 56.0098 400.6648 53.1586 399.6753 51.7968 398.1917 52.2285 394.4119 51.5215 393.5991 50.3654 392.9254 49.5859 391.2883 49.7482 389.3224 53.5411 384.9558 54.3292 382.6204 54.9261 374.5116 55.326 371.6503 55.0304 368.3109 52.0257 362.1637 49.4034 357.8855 45.1208 351.5457 43.446 349.4725 34.7969 340.7495 33.8001 339.4586 31.7023 335.7686 32.7338 332.5248 34.0059 327.6874 34.1565 325.4577 33.5596 323.1527 31.3749 321.42 29.4278 321.2215 28.5556 320.3349 26.875 319.0643 25.2031 318.0777 23.7225 316.1798 22.691 313.5198 23.4212 304.0072 22.9286 302.7367 20.7178 302.3875 20.202 301.7037 20.2918 299.8797 19.098 294.4598 17.7623 289.9773 18.4809 287.5028 16.638 284.1185 13.1088 282.664 9.7795 283.1058 6.204 283.7795 4.0511 283.5941 2.5676 282.9639 1.536 281.7223 1 280.259 1.4897 278.0569 3.4455 274.0148 5.8939 270.6884 10.8719 267.6634 12.1961 266.0524 12.9523 264.2646 13.0856 262.2117 12.7524 260.0501 12.1874 258.0783 10.7212 255.4575 9.3768 252.3745 9.342 250.3129 9.9882 248.8193 11.321 247.0257 13.9607 245.0046 14.5953 244.6004 16.2526 243.5168 17.7014 242.7257 21.3146 240.5917 22.1636 239.5703 21.8565 238.3432 20.9698 237.3392 19.5153 235.9397 19.2197 234.2215 18.7938 231.2819 18.0433 229.413 17.5044 228.0396 18.533 227.0095 20.0629 225.581 21.9695 224.7088 24.9308 223.9569 26.0898 222.937 26.4317 220.9739 26.3361 219.1093 27.3966 217.7171 28.8309 214.7413 29.9841 213.3838 31.9138 211.8351 33.8465 209.8923 34.7071 207.6365 34.9505 205.4648 33.8929 198.8845 36.1269 196.1333 38.9751 193.8573 43.0781 194.0152 49.444 193.5183 53.7758 192.5679 56.8674 192.5983 63.923 193.8283 64.4938 193.5342 64.6589 193.2937 65.0327 191.5537 65.0298 187.164 65.0182 173.928 65.0066 160.6935 64.9979 147.4575 64.9864 134.223 64.9748 120.9871 64.9632 107.7526 64.9516 94.5181 64.94 81.2836 64.94 77.5791 64.94 73.876 64.94 70.1729 64.94 66.4684 72.2592 66.4713 79.5784 66.4757 86.9004 66.48 94.2167 66.4829 94.3123 66.4293 94.4022 66.3772 94.4949 66.325 94.5876 66.2714 94.5934 51.4853 94.5992 36.7006 94.605 21.9144 94.6108 7.1297 105.946 7.1312 117.2811 7.1326 128.6163 7.1355 139.9515 7.137 151.2866 7.1384 162.6218 7.1399 173.957 7.1413 185.2893 7.1442 196.6273 7.1457 207.9625 7.1471 219.2948 7.1486 230.63 7.1515 241.968 7.1515 253.3003 7.1544 264.6355 7.1573 275.9706 7.1587 279.4274 7.1587 280.9544 6.9385 283.8577 1.41 285.0979 1 286.9958 1.3245 287.6448 2.6212 287.0595 4.4944 286.112 7.1297 291.6666 7.1297 301.4023 7.1283 311.1352 7.1254 320.8738 7.1254 330.6066 7.1225 340.3424 7.1211 350.0781 7.1196 359.8138 7.1182 369.5467 7.1167 379.2824 7.1153 389.0181 7.1138 398.7538 7.1124 408.4896 7.1109 418.2224 7.1095 427.961 7.108 437.6939 7.1066 447.4296 7.1037 447.7628 13.8665 449.0783 19.2748 453.6535 27.004 457.5275 31.1634 458.9183 33.4568 459.0545 34.5216 458.8778 35.5082 457.6985 34.3739 455.7137 33.5988 455.4326 37.2178 455.8991 39.7951 456.3685 44.6297 457.9969 49.8293 456.8205 54.6305 456.977 62.7668 459.0371 72.5228 458.617 78.754 461.9724 93.2895 465.2292 101.3563 467.0199 103.344 469.0308 104.403 472.899 105.0883 478.5984 109.1955 483.1128 113.5317 484.718 115.8005 486.9028 118.2895 488.3979 117.8447 489.3164 117.1826 490.7942 119.1906 497.9482 123.5253 499 125.5391 496.4299 127.5138 493.4512 130.9141 492.7008 132.2658 492.3559 133.0698 492.0053 134.0767 491.223 135.0778 489.5164 136.4599 488.847 137.0626 488.4385 138.0101 487.4156 138.6273 486.303 138.6606 485.3236 139.0851 483.8517 139.74 481.6669 139.4038 479.4358 140.0007 478.6187 140.7526 476.8512 141.4075 475.0808 141.548 474.4607 141.7711 472.786 142.8838 470.7316 144.434 468.3353 145.4206 467.4893 145.7437 466.3824 146.8114 464.6844 152.1356 463.4414 153.5293 461.3465 153.667 458.6286 153.6728 456.2758 154.132 453.0711 153.5424 451.5122 153.6134 451.1037 154.7507 450.5271 159.3201 450.614 161.2774 449.3391 163.5983 447.9164 166.4973 448.4408 171.397 448.6871 176.2431 446.0794 183.5392 445.7114 185.211 443.0717 190.9989 441.7272 193.1503 438.369 203.9581 437.0564 207.2801 434.2371 210.7833 434.8717 216.4798 435.5439 222.5212 436.1814 228.2221 437.1318 236.7525 434.7471 244.7163 434.8398 249.0597 433.165 255.4677 431.8495 258.4289 430.6789 260.1921 429.6909 262.0045 427.8712 266.0002 426.3268 271.2752 425.643 276.6805 425.5909 279.82 425.2895 281.2529 424.7651 282.1598 421.2069 282.7581 416.2521 283.3941 413.5806 284.1011 411.7899 285.208 409.5906 287.7723 405.2443 294.796 402.964 299.0988 399.3942 304.9895 395.2362 309.1576 394.3583 311.183 393.6745 314.9585 392.1388 320.9274 390.7393 325.1737 390.9884 328.5856 389.6759 334.5096 389.87 337.397 388.4125 339.0066 386.4509 340.5307 385.118 340.9161 382.2611 339.1732 380.0879 337.4043 379.2013 336.9407 377.3063 338.0475 375.0346 339.6803 372.4384 343.5137 370.413 347.3863 371.5749 355.5921 371.4677 357.3929 370.8824 359.3546 367.7299 365.4727 366.9534 367.4054 365.803 371.0766 364.5861 377.4917 364.5513 379.0332 Z"/>
</g>
</svg>