<?xml version="1.0"?>
<svg xmlns="http://www.w3.org/2000/svg" version="1.2" baseProfile="tiny" width="392" height="400" viewBox="0 0 392 400" stroke-linecap="round" stroke-linejoin="round">
<g id="ne_50m_admin_0_countries-suriname">
<path d="M 374.7737 61.8303 366.6982 68.6137 357.9299 78.2808 346.3715 94.956 346.8818 100.1992 344.3445 104.4265 343.7359 111.9215 344.5551 120.2825 347.5185 125.7785 348.8761 136.2274 346.6196 145.623 347.4763 151.0862 349.8404 159.7515 351.7364 168.9786 351.5304 172.7097 354.3346 175.7339 356.9234 178.6972 356.0995 186.9365 365.2283 201.6081 370.7945 207.9982 378.912 214.2292 381.866 220.315 386.4444 227.6555 389.1597 228.5168 390.639 231.4755 389.155 237.1353 388.8086 244.9954 383.6684 254.1242 371.698 270.8603 370.2514 274.7505 373.3599 288.6122 371.6933 299.9974 370.9817 305.4606 365.1112 315.4461 351.184 339.6256 343.1741 343.9793 338.3429 350.9593 335.2297 351.0295 331.7468 351.6802 330.642 352.5463 326.2695 352.4714 322.8614 349.377 322.3324 345.7208 320.4833 341.5309 316.2045 340.2763 308.0728 341.7322 305.7321 340.693 300.8916 336.1894 296.8796 331.302 295.8965 326.5738 293.2936 327.0232 287.1095 331.302 282.9102 332.1775 279.5817 331.068 275.8553 331.3816 266.427 335.9694 260.8701 337.0134 256.905 341.6292 230.675 343.7265 223.8073 344.9343 208.162 336.9431 204.1173 334.345 202.0528 333.9751 200.316 334.4058 198.5979 336.1754 196.0231 346.217 193.6497 348.9369 189.5581 351.1512 185.5695 355.1585 184.7737 359.0394 190.9157 361.1742 196.0512 368.7112 201.6221 374.7549 206.0929 380.0824 205.489 386.1121 204.7212 394.6603 201.491 397.5768 196.0653 399 176.1973 394.8663 160.9827 391.1727 154.5598 390.3628 151.6854 389.4218 147.8935 386.29 144.0266 383.3875 137.8425 382.3388 130.4459 380.3773 125.0014 372.859 119.3743 362.1432 117.3894 357.3026 112.9888 352.6212 108.6679 345.9689 107.3524 340.075 104.0848 334.668 102.3761 332.8516 99.8481 325.4877 99.3238 322.7538 98.0785 322.4073 96.3043 320.0526 92.8119 312.1738 92.0208 310.2169 90.4853 309.5194 86.4124 303.986 83.1776 302.0666 81.9838 299.2343 82.26 291.51 80.5279 287.704 79.9942 280.4665 79.8912 277.5594 78.2293 274.3573 75.4533 272.246 74.9757 267.0168 74.3016 254.0961 72.9861 251.8443 61.2966 252.0035 60.1169 253.2675 55.0657 254.0306 49.4058 254.171 44.3125 252.4342 40.0945 250.1731 39.1957 247.3736 39.8324 238.3946 33.0349 231.5972 22.2677 223.1894 19.0188 212.5204 15.0723 205.8635 3.1347 191.9363 1.0187 182.3768 1 175.6402 5.1945 169.4514 11.0416 158.5718 13.4432 148.68 15.2128 143.5351 18.237 136.7939 20.9896 128.063 18.8924 122.6794 15.3439 117.4081 14.1782 113.4664 17.6237 107.6942 21.0926 103.626 25.0063 103.0502 30.0014 100.6112 33.9244 97.1048 39.8932 96.1826 47.3648 95.8174 62.584 95.8081 70.3646 94.3147 72.7848 91.4965 72.4197 86.0988 76.2819 81.1927 80.35 79.1328 81.9838 77.5131 82.2226 75.7107 81.1552 74.0488 79.5401 72.9627 75.2894 72.5882 71.5583 64.0961 74.1144 60.3931 77.4101 53.5676 78.3323 49.7242 83.4257 43.6664 84.6382 45.539 88.5987 34.5236 89.0574 25.5681 92.0723 16.7296 96.6694 6.2525 104.993 1.0562 153.2958 6.3415 175.3875 11.3647 203.7709 19.9831 207.7922 29.2009 207.9935 19.9831 206.6125 10.6671 214.4492 4.0476 231.6909 1.7256 257.4855 4.9137 279.6332 1 309.7956 1.4915 355.5799 9.0146 376.0798 14.1454 384.5297 18.7894 386.1401 27.1691 385.3209 37.8708 382.0111 48.0951 374.7737 61.8303 Z"/>
</g>
</svg>