<?xml version="1.0"?>
<svg xmlns="http://www.w3.org/2000/svg" version="1.2" baseProfile="tiny" width="380" height="400" viewBox="0 0 380 400" stroke-linecap="round" stroke-linejoin="round">
<g id="ne_50m_admin_0_countries-sweden">
<path d="M 231.515 326.6255 229.1103 327.3182 227.6965 329.368 225.749 329.7143 223.8809 330.3971 223.2137 336.8828 226.6149 339.3471 224.7468 339.692 223.0377 340.4301 221.817 341.5217 220.5678 343.871 215.8749 345.2025 214.0977 346.1876 211.4773 348.3793 210.1118 351.5604 207.4573 352.9174 204.4764 353.2383 206.2252 350.6321 208.5163 348.5085 206.3132 347.0521 204.9874 344.7724 203.2755 343.0236 204.6382 341.0703 203.9682 337.8694 204.1896 334.745 206.1769 333.168 208.4538 331.8819 211.9997 328.9251 215.8437 326.7817 221.2066 325.8178 223.6282 326.7064 224.673 324.7575 226.4019 324.3132 228.0258 324.7631 231.515 326.6255 Z M 157.4428 371.5526 155.9495 373.0161 154.6265 372.9125 153.7436 370.9607 153.5363 365.9385 154.0644 363.4572 160.4038 354.5073 163.2343 353.7762 167.2146 348.2913 168.2877 345.8512 170.0138 343.6538 171.033 341.6892 171.8876 340.8957 173.7443 341.2676 174.5704 341.6296 172.6144 342.7737 172.8415 344.2628 172.7052 344.8803 167.7682 351.3574 166.4481 355.5634 164.6964 356.5897 157.4428 371.5526 Z M 8.0095 291.7229 10.4056 295.415 12.5235 295.8948 15.4079 294.9338 17.4264 292.2425 18.5791 288.204 19.9247 284.3572 18.3321 280.242 16.6315 276.628 16.5123 275.5662 20.9752 272.5171 22.3407 270.0373 23.8198 267.6767 25.4523 266.8732 27.8824 266.6901 30.7129 266.2458 34.2815 264.6659 37.4811 262.5494 39.9254 260.609 40.7544 256.7692 40.7885 254.8401 41.8645 253.4079 42.9064 250.61 41.8929 247.8505 38.7387 243.6644 34.9402 237.7778 34.344 234.564 36.0758 233.9679 39.386 233.4355 45.6489 233.2808 46.3189 232.9018 46.952 231.4951 48.3629 229.5844 49.8704 228.1933 50.901 226.2032 51.3978 224.4004 47.815 221.6849 43.1222 218.9056 39.9453 217.9843 34.2844 215.645 30.3098 213.6889 32.5866 206.2437 34.2815 200.7034 34.5541 199.3563 34.6165 197.2682 29.1231 188.3637 29.336 186.3835 29.8584 184.6006 29.2707 181.56 28.9499 178.8403 29.8924 178.0155 32.1352 176.4811 29.9975 174.1006 29.8243 173.9075 25.7901 168.0194 31.9592 162.1896 30.8861 159.1746 34.5711 156.9871 41.2796 151.9763 45.0527 149.1586 45.8533 148.666 48.8399 147.4282 54.5037 145.9605 60.7807 145.245 63.5743 145.2535 74.3624 146.2472 82.7886 147.0208 84.015 146.2444 85.7752 144.6517 88.0407 142.3833 88.2394 139.8609 87.4218 136.156 86.1925 133.9387 80.259 132.4979 73.7691 130.522 81.7495 124.2649 87.2827 119.9226 94.1815 113.3901 96.3277 110.6718 97.8807 109.5929 99.9106 99.5656 101.2562 96.7607 102.3833 95.2958 102.4004 93.7911 101.6679 91.2545 99.7289 85.5254 110.6221 84.817 114.1708 84.4153 117.4641 83.7311 123.9057 81.9582 127.0712 80.3911 125.3025 75.0452 129.2005 73.2354 138.7111 66.9342 148.9882 60.8999 153.8089 58.616 154.3085 57.5002 154.7031 55.706 152.5625 52.8883 150.263 51.1423 145.783 47.8349 147.705 45.5282 151.0068 45.0796 155.3675 44.174 158.7686 42.2023 159.1007 41.9482 164.8582 34.1949 176.1063 30.2672 180.5862 28.1252 187.5673 29.7349 197.7991 32.1636 202.35 28.5893 203.8546 27.2635 205.3565 25.3103 204.7546 21.9319 204.4963 17.5442 204.9477 15.7812 209.0301 14.9962 211.2275 14.7933 222.6005 16.606 225.4622 16.5747 230.8222 16.8189 236.821 17.6152 249.3864 19.7345 254.5846 20.6118 257.4861 20.7821 259.9901 19.7941 265.3416 17.2603 257.4577 15.3852 262.6502 13.4873 265.3416 11.5738 267.6497 9.2217 268.4815 6.4693 268.1635 4.9888 266.5709 3.9809 261.7559 1.4642 272.6662 1.1036 276.4506 1 284.3856 2.658 284.7319 3.0171 284.7887 3.8816 285.0669 4.7773 292.7663 7.0485 294.9864 8.2508 299.7133 10.0777 300.9653 11.0642 305.343 12.2183 308.4829 13.4518 312.1509 14.4526 316.4321 16.0083 322.1782 17.2476 327.0329 17.6521 339.252 19.7757 341.3358 20.4641 344.8618 21.9433 348.4219 23.6552 350.8833 27.1713 354.838 27.3544 355.9112 28.5652 359.3634 30.6391 364.1499 32.4688 363.9767 33.0849 360.1668 34.7713 359.758 37.0566 360.1186 39.9751 361.3138 42.3556 361.1889 43.0512 360.2435 43.8716 359.1079 45.1591 358.7019 46.2834 358.8013 46.8341 359.1845 47.1337 361.1917 47.1564 364.7887 47.4218 366.9038 47.9201 368.1046 50.6611 367.6987 51.1877 364.6666 52.4284 363.778 53.4135 363.69 54.8614 364.2266 56.4527 365.2685 58.2341 367.6419 60.1391 370.85 62.1321 372.9565 63.7659 373.953 64.9171 374.3164 65.722 372.8713 66.7341 371.5711 68.7356 371.3297 71.028 370.7392 72.5228 367.9144 74.5796 365.9612 75.3093 365.4048 76.3952 365.1663 78.2178 365.7398 80.4393 365.9357 81.9411 366.5375 83.0228 367.4233 83.7283 371.9543 84.976 374.4924 87.5311 376.0737 89.5809 379.1682 94.9466 371.466 95.6166 365.6773 94.2709 362.79 94.9452 357.7395 94.9735 352.0047 95.503 350.0714 96.5563 348.5525 96.9793 343.2322 95.4931 338.21 93.0373 334.5392 94.9097 332.163 95.2645 330.0281 93.5697 328.1628 93.2943 327.155 93.8592 326.2721 95.3568 324.8668 96.535 324.5005 97.2802 324.2564 100.2881 323.8902 100.9851 319.0128 100.5962 319.3052 101.3854 320.367 101.7829 320.7956 102.284 319.027 102.9426 314.1836 102.8801 313.6896 103.5785 315.0524 104.6829 313.9906 105.6496 313.0054 106.03 307.2224 106.6305 303.8752 106.4928 302.9185 107.1188 302.6516 107.9321 303.2847 108.7299 304.761 109.1543 305.2465 109.6611 305.1443 110.7584 303.915 110.9571 300.4259 109.0294 299.3641 109.1288 300.1618 110.1309 302.1548 111.2239 303.3074 112.3397 304.3153 113.6825 304.1194 114.7003 299.7871 117.9878 295.9743 120.0646 293.1297 121.9355 291.4518 123.9185 293.3937 124.9178 295.5542 126.36 297.073 129.1323 298.8843 131.6037 302.5409 133.9657 301.8056 135.3313 300.9539 136.393 294.87 138.731 287.9712 142.2542 280.5359 151.2708 278.0631 152.4788 271.5533 154.0062 269.16 155.4839 264.3139 157.2412 255.8537 158.7501 252.0153 160.8538 250.2836 163.0299 248.3559 163.1846 246.4452 162.3344 243.8958 161.7013 243.5637 163.1208 243.6715 164.1627 239.5919 162.6183 237.6671 164.0349 236.1624 166.4012 230.2914 169.588 223.9632 169.0145 223.2535 169.5766 224.937 169.984 225.1925 170.4936 224.0427 170.7647 222.3024 170.7364 219.6167 171.3666 217.8509 171.3169 217.0134 172.8244 215.6478 174.6528 212.0735 175.4093 210.2282 175.5655 209.3169 176.6046 214.816 176.8232 214.376 177.7033 214.251 178.5833 213.6832 179.5273 207.4318 180.8872 206.4694 181.9589 205.1634 182.6232 202.384 182.5849 202.4862 181.966 202.9405 181.2662 198.7984 181.3286 197.5067 179.7913 196.7203 180.186 197.1858 181.4266 198.2703 182.7169 199.4769 184.6091 198.4975 185.8057 197.4016 186.3991 198.1994 186.947 200.4109 187.3643 201.3052 188.1124 198.682 188.754 195.4086 190.9557 192.016 191.0096 189.9407 192.4632 187.7377 192.4589 185.9463 191.5433 183.076 190.791 182.1505 192.1168 182.0029 193.1715 183.6211 195.8402 186.71 197.9055 189.5717 198.797 187.5134 199.3988 185.9803 200.736 184.1322 204.9122 183.1271 206.5559 182.037 209.4574 182.7269 211.906 183.2805 213.1098 184.6801 214.7436 180.8758 214.5335 176.8586 213.5782 177.4179 215.5612 174.9508 217.9048 175.4108 219.9716 175.9246 221.3187 175.1609 223.5459 176.3221 224.2457 176.9523 225.5729 175.9133 226.5524 176.376 227.3956 176.5492 230.3822 177.3384 235.0538 177.0489 236.0417 179.2576 240.1029 178.7437 241.5267 178.4456 243.3408 181.6111 245.0839 184.4359 245.0555 187.2976 245.0286 188.3906 245.4658 189.4865 246.6993 190.3694 248.1557 192.7258 248.0351 196.4875 246.8498 198.9347 246.5673 200.5501 248.8456 204.9448 251.8549 207.5028 253.2035 211.8493 253.9132 216.4285 256.342 215.7869 259.269 217.6976 260.247 223.1002 261.4025 225.0108 262.9611 225.9278 264.2897 227.3502 265.3913 229.0138 268.72 228.4347 270.7712 226.2571 271.4766 221.1157 273.674 218.8247 275.315 217.0276 276.337 211.9202 278.5287 210.0493 278.9219 208.2579 280.0618 206.5261 280.56 204.976 280.2733 199.1817 282.3372 199.6331 283.2187 204.0761 283.5921 206.3416 283.1492 208.0847 282.1115 209.9897 281.873 211.7272 282.0689 213.5697 281.2513 215.0147 280.9248 216.508 281.3166 218.1745 283.2769 214.7166 284.2975 212.2637 284.3444 211.0657 287.5595 209.5809 288.9407 208.5163 289.605 203.0739 290.9734 199.4826 292.7081 195.2497 294.1048 193.4015 293.8011 190.6164 295.2206 184.4274 296.9013 181.2563 299.1654 174.1389 301.191 170.5135 302.839 160.665 302.9256 151.2594 302.5636 148.3069 303.3472 151.3247 303.5899 153.4398 304.3593 155.975 304.0385 161.9341 304.4232 165.0002 304.8419 168.935 307.5361 166.0421 308.4943 161.0313 309.2296 162.9107 313.0509 164.4608 315.6273 162.4309 317.1816 162.2804 324.2535 159.4329 324.3884 158.2235 327.314 159.1206 328.8059 159.0496 332.2709 159.643 334.4058 161.0398 336.3718 160.418 338.4215 155.9154 343.2194 156.0176 345.4708 156.8267 346.8079 157.4257 348.9457 155.3788 353.0551 153.9338 356.4889 152.2162 359.379 148.3722 362.8468 146.4587 365.4388 141.9816 373.5271 139.7615 375.1326 137.0389 376.3661 134.004 375.2248 131.2218 374.6031 127.8235 374.6783 122.5004 375.6138 114.4945 374.992 106.6702 375.2916 104.6914 376.0993 105.8781 379.0348 102.9937 379.4195 100.1746 378.5848 97.6933 379.5813 95.6208 380.6743 91.5497 383.2677 90.187 384.8646 89.835 387.8726 91.9727 390.5696 93.8692 393.728 88.9861 397.5393 86.2607 397.6685 78.3058 396.611 64.2074 399 51.5455 397.1106 53.1381 395.0694 53.0842 393.569 53.7996 391.2609 54.2255 388.9003 54.1062 387.3204 53.1779 385.6369 50.055 383.4338 43.02 375.9985 40.939 372.86 39.4911 371.5526 40.533 371.4816 46.3274 373.1666 47.6787 372.9593 49.0982 372.3262 47.3693 369.9145 45.8845 368.8229 44.8767 367.1905 48.2693 366.749 50.7193 366.847 52.5249 365.0101 51.483 362.0406 48.8512 361.1264 46.6539 360.7289 42.4408 356.0645 38.046 353.6485 30.2076 344.3295 27.3402 337.9332 24.6744 338.5408 23.3798 335.7543 22.4514 333.1155 22.2669 331.175 18.0879 330.0635 17.9176 328.7037 17.1652 322.6353 12.6825 321.8205 9.7838 318.4152 9.2672 311.9721 6.3146 310.7996 3.9384 311.1246 4.0491 309.5277 4.6169 308.0287 3.2286 302.0895 2.7659 296.6685 1.6388 295.0318 1 293.1155 1.5735 291.4603 2.4138 290.5093 5.3068 290.2594 8.0095 291.7229 Z M 233.8373 324.1059 233.3149 325.9186 231.8074 325.7809 230.4333 324.4423 233.2127 322.3983 237.4655 322.509 238.9276 322.9348 233.8373 324.1059 Z M 212.3205 291.9387 211.0316 292.2155 210.3928 292.1275 211.1878 290.7775 211.7783 290.1941 213.7372 289.649 214.3362 289.7442 212.3205 291.9387 Z M 217.5301 279.1107 216.8005 280.0731 216.068 278.8935 216.3604 278.6621 216.8601 277.4982 218.2711 276.8594 220.5252 277.2426 220.511 277.5336 218.3562 278.4762 217.5301 279.1107 Z"/>
</g>
</svg>