<?xml version="1.0"?>
<svg xmlns="http://www.w3.org/2000/svg" version="1.2" baseProfile="tiny" width="500" height="218" viewBox="0 0 500 218" stroke-linecap="round" stroke-linejoin="round">
<g id="ne_50m_admin_0_countries-Switzerland">
<path d="M 395.663 28.9191 399.0356 30.3723 406.9738 35.2685 405.1085 43.6242 396.0534 57.0659 391.2493 67.9592 390.7179 76.304 391.6288 80.2189 393.2555 80.1647 401.9094 80.7611 406.3123 80.7503 420.204 83.0113 431.3413 86.3135 433.4885 89.8 434.9417 94.051 448.1719 99.8637 463.3434 103.6213 468.4836 102.4175 487.3205 88.824 494.5971 91.0851 499 98.3021 498.8048 102.1302 493.6103 116.575 492.7102 124.3288 497.189 129.4582 497.6553 133.4544 496.3431 137.0982 488.8387 137.4289 478.7534 135.4552 470.2296 129.2088 463.788 129.9571 458.1814 131.5621 455.3185 137.4615 452.77 144.5212 453.5833 148.4415 457.6175 151.4563 460.6973 157.887 462.9421 166.1993 464.6447 170.0274 462.7686 171.7246 457.4657 172.8632 453.0736 171.7408 445.3741 161.791 441.7737 158.0009 435.69 157.3394 424.9539 159.7523 408.4812 165.3209 401.8335 165.2992 396.1835 164.1768 390.8914 159.4486 386.4018 150.3393 384.9595 144.6188 381.8146 144.8032 371.2738 143.1494 366.3612 145.4105 366.3178 154.7313 365.3527 166.3349 360.0606 173.8338 345.3555 186.8038 339.9549 192.4646 337.8077 196.5259 337.3522 200.0558 339.5971 206.1612 342.6552 211.9955 340.1067 215.3139 332.3313 217.0545 326.844 213.5083 324.7184 207.2077 312.822 198.6026 318.2334 191.4019 317.3225 189.6125 297.6832 185.8766 289.2136 180.4327 277.3281 170.8733 275.1158 166.7687 275.6147 153.4516 274.9314 150.22 273.3482 148.6475 267.5897 148.7506 259.5757 153.3811 252.1797 160.2891 237.0517 168.0808 235.4792 169.7509 240.5545 177.3474 240.3267 180.308 228.0074 192.4158 225.665 196.412 210.0273 204.014 202.8699 206.8607 181.181 201.2649 175.184 200.6034 165.5215 204.3502 151.7924 207.9126 129.7022 211.4587 121.5689 208.8615 117.7191 206.4215 115.8105 202.7506 110.2364 196.2765 103.9683 192.4321 99.6088 188.2516 93.7962 183.6698 90.0657 179.8417 95.0324 167.6199 91.4104 163.3147 89.5451 157.1821 90.5103 153.0233 88.5149 152.0093 68.5394 149.6127 51.9582 150.3718 40.0726 154.4602 30.3885 161.2434 29.2282 162.7074 29.8246 163.9274 34.6396 170.1684 26.4737 176.7401 13.9483 181.8533 5.0667 182.3739 1.1627 181.387 1 174.3381 8.3417 171.7408 14.9785 167.1536 17.2016 160.6849 18.015 156.1356 11.0203 150.6321 11.877 147.2594 16.2148 140.872 18.7307 135.2166 22.1793 130.3258 35.9951 122.328 49.8761 114.2922 51.969 105.7576 53.0318 95.3632 54.9946 92.869 73.7122 86.6497 78.3862 84.188 80.7394 80.6635 95.4662 69.0111 110.052 57.4618 112.9909 53.5903 115.4417 51.3184 115.4417 49.4368 113.609 47.9837 106.6577 47.0185 104.3153 43.3531 111.8631 36.803 121.3086 32.7906 130.483 32.7364 134.1702 34.5799 133.975 36.7488 137.9332 39.0804 144.8845 39.8503 153.4842 39.037 162.0188 36.5861 167.2783 30.7572 170.3365 26.349 183.7403 21.3117 192.893 23.8493 218.3233 24.5162 236.8348 23.1498 248.4384 19.7338 262.829 19.7338 272.4806 21.6587 274.1832 21.3768 276.8401 20.9267 279.4644 19.094 288.5521 17.836 289.7775 16.307 289.398 14.74 287.7605 13.9375 276.5907 14.7508 272.3179 13.5416 271.2226 10.7546 274.8122 5.918 283.0431 1.9706 290.0161 1 295.0371 2.0573 307.3022 9.3936 310.2411 9.6159 311.9436 8.2983 314.4921 7.5609 318.7214 8.9978 323.4822 13.5416 324.2738 14.2411 351.6344 12.6524 357.7724 12.6524 376.3381 20.6231 395.663 28.9191 Z"/>
</g>
</svg>