<?xml version="1.0"?>
<svg xmlns="http://www.w3.org/2000/svg" version="1.2" baseProfile="tiny" width="500" height="378" viewBox="0 0 500 378" stroke-linecap="round" stroke-linejoin="round">
<g id="ne_50m_admin_0_countries-Syria">
<path d="M 10.6829 105.2659 16.3392 105.7563 28.404 111.6929 30.3878 111.5085 34.0383 103.6804 37.5781 101.0255 45.0338 98.6988 47.1356 86.0329 50.6164 83.5993 54.8125 82.2977 61.2579 82.0543 66.87 81.2947 67.224 79.0639 59.3774 64.4216 60.0706 60.727 63.8612 45.9999 66.2432 40.2366 68.5219 38.3598 77.4305 39.1046 89.9083 41.6931 93.1974 45.9224 99.3035 49.6798 108.4554 49.4327 119.0011 50.137 127.2533 50.3841 133.8388 47.7403 148.6987 42.803 156.0733 41.1511 162.7694 38.9571 184.2959 30.8819 192.9168 31.5014 198.8165 32.567 203.3298 33.8502 213.4699 39.3738 221.8401 44.9637 227.7102 46.623 238.2707 46.505 253.5214 47.5707 272.2676 47.4932 283.2042 45.9335 297.1791 43.1865 322.0905 36.5825 354.8633 22.7772 374.1405 16.07 382.4443 15.2809 393.2629 15.2035 404.0814 16.9623 416.3528 18.2123 422.0091 18.1017 435.2981 16.7153 452.5178 13.924 463.3364 11.6379 476.4042 7.8879 484.5605 1.6527 487.1933 1 490.5782 2.1357 492.1637 2.5634 495.5118 6.1106 498.9926 15.2477 499 16.2728 498.3215 18.8724 489.8039 26.3834 478.2257 36.5862 469.9219 43.0205 455.9175 53.8686 445.4677 56.1916 427.8424 60.1001 423.1153 63.8944 418.72 70.0153 416.1389 78.3892 415.3793 83.6325 414.9147 93.4223 419.0371 103.5734 422.9973 113.3153 423.5061 119.7607 423.1079 126.1176 419.2731 132.8986 415.1212 142.198 412.7097 152.7178 411.4413 172.4117 411.4118 189.1816 411.0725 191.925 403.8454 203.7575 395.3867 217.596 391.4634 220.8039 372.9163 224.9226 352.6804 235.0627 330.0624 246.3975 309.5242 256.6888 287.9608 267.4889 265.601 278.6909 249.6202 286.6961 228.2338 297.404 208.7575 307.6436 189.023 318.0197 174.0305 325.8995 151.2503 338.3626 137.9096 345.6708 118.2858 356.4156 101.0218 365.8736 80.5868 377.0682 54.9748 373.7423 46.8848 371.8101 40.255 366.482 35.3804 363.639 23.2787 360.7187 15.4985 350.6819 10.8377 347.1273 2.7257 345.5307 3.795 341.9503 7.9764 335.9068 12.2537 329.3176 9.879 325.6561 9.1047 322.5403 8.8245 318.8235 11.7374 315.2653 10.3658 310.977 8.1239 306.6665 6.4793 304.5021 6.4867 300.5529 7.5782 297.5367 8.9056 292.9092 12.3495 290.3686 13.2419 287.7322 16.3392 285.1437 20.469 283.0346 21.3908 281.331 20.8008 280.3576 16.6489 278.4586 14.4365 275.0995 16.4056 270.2027 17.7404 268.6762 20.2109 266.3126 25.7492 262.7138 30.1002 262.1165 33.8465 262.1128 40.1887 262.4115 45.1075 263.0567 46.3538 262.1275 46.1842 260.9365 40.1002 257.9867 39.7683 255.6379 41.2801 253.1195 45.5869 249.1409 50.7196 246.2316 53.3376 245.7043 59.2004 239.8525 62.9615 233.2891 56.8774 217.3452 53.1901 214.7936 47.2167 212.6034 43.699 212.2678 43.4261 211.2317 48.1385 207.1867 51.4866 203.669 47.7771 200.3136 41.1621 198.7428 38.6916 202.2052 30.1961 202.526 16.9955 202.4817 11.1843 185.6492 10.3215 178.3594 10.4764 169.9265 14.4882 157.5777 12.6003 151.8624 12.4454 148.0092 11.4203 142.7105 1 131.3167 6.6784 110.3507 10.6829 105.2659 Z"/>
</g>
</svg>