<?xml version="1.0"?>
<svg xmlns="http://www.w3.org/2000/svg" version="1.2" baseProfile="tiny" width="434" height="400" viewBox="0 0 434 400" stroke-linecap="round" stroke-linejoin="round">
<g id="ne_50m_admin_0_countries-taiwan">
<path d="M 324.1449 316.4339 316.7933 330.3601 310.9144 345.0749 308.5373 358.9606 308.6648 373.2869 306.9835 386.2159 304.0846 399 292.5586 395.3184 286.3086 386.1637 284.8708 371.1359 276.5104 352.983 273.3796 347.7766 261.3318 337.6247 250.3856 332.5633 241.9092 325.0725 243.0224 325.6871 236.7608 315.5932 232.0066 304.8499 222.1852 274.3362 218.7993 266.9614 214.2654 260.2302 212.9667 253.5744 214.5205 246.1764 218.7529 235.12 221.3387 223.9709 219.2515 208.8271 220.0516 193.8283 223.2404 187.1666 279.131 95.7995 294.2979 76.3537 303.6208 66.8106 311.413 56.0499 318.8341 42.4309 327.9251 29.9831 334.4302 26.1508 366.4919 14.9784 376.4872 4.3105 384.4998 1 393.5907 1.1855 399.458 6.2818 404.6876 12.3173 410.1723 15.5814 424.3653 21.4777 430.5805 27.177 433.4098 36.9984 424.7711 46.3154 420.4808 54.7164 419.6807 63.9986 421.2229 76.5624 421.42 89.1668 410.6129 118.7471 399.0174 137.1724 395.8982 146.3561 392.3731 169.1355 385.5666 192.0078 379.7572 221.0024 370.2952 250.8726 364.9265 263.3668 358.2358 275.3218 342.2456 297.91 324.1449 316.4339 Z M 15.2625 90.622 20.4573 98.5244 18.2658 103.4177 1.9276 100.8087 1 96.0256 7.1804 96.9126 15.2625 90.622 Z"/>
</g>
</svg>