<?xml version="1.0"?>
<svg xmlns="http://www.w3.org/2000/svg" version="1.2" baseProfile="tiny" width="500" height="281" viewBox="0 0 500 281" stroke-linecap="round" stroke-linejoin="round">
<g id="ne_50m_admin_0_countries-Tajikistan">
<path d="M 27.2408 248.6103 29.7447 243.9468 30.7901 228.4321 33.945 223.0675 43.391 213.4368 48.3049 206.0973 53.8447 200.138 57.851 198.1349 61.538 193.4401 64.5614 188.063 65.4127 184.6827 65.1436 182.0223 64.0419 180.3072 58.8025 176.6703 51.9293 170.9927 48.2798 165.1962 46.2767 157.8003 45.7572 152.6485 52.2109 138.4608 51.1843 136.0884 49.3252 133.8849 45.5318 132.5015 40.0983 131.9037 34.7212 132.5391 27.8543 132.5892 23.1031 131.7942 21.9576 130.9053 21.3629 124.4515 20.1485 123.0493 18.1079 121.8161 4.2551 118.8428 1.5133 117.5595 1 115.932 5.9076 101.6066 8.0485 100.5268 10.1079 98.1981 13.363 95.7068 24.6806 91.6191 36.8308 93.3875 47.6351 95.2874 58.3893 96.3046 62.1139 96.9837 68.2672 97.5503 72.3861 97.0463 75.1842 95.375 80.2608 90.749 81.8133 83.807 83.6474 77.6787 86.7209 77.203 89.8195 77.8477 91.2905 76.6083 91.9165 74.9244 92.5487 73.4909 93.8194 73.1748 96.0479 74.7648 97.3186 74.3391 98.3765 73.2812 98.0636 72.0074 95.5346 69.8634 93.2936 66.4957 93.5065 65.3314 94.2701 64.1232 100.9243 62.9777 103.9477 62.7774 104.9993 61.5849 104.6112 59.6851 102.1011 58.6115 92.9806 59.2031 83.6974 59.0685 82.5895 57.9104 83.1153 56.6397 84.5175 55.6413 103.6973 53.081 113.8631 53.9699 121.4249 55.3252 124.4108 54.6522 120.8615 48.8808 125.6628 48.3393 126.2887 46.3643 120.0102 31.0342 123.4531 29.6821 126.9147 26.6618 126.6205 20.9467 129.6878 18.1611 133.3184 16.2519 138.7268 18.1799 147.0711 23.823 149.7878 24.9185 152.4857 25.2377 156.3543 23.4881 171.2525 17.9013 179.628 14.762 189.6123 10.1924 191.3337 8.4272 194.7766 1.4789 196.6545 1 199.1897 1.748 207.9533 8.9248 213.0237 13.5289 213.0237 15.1032 211.5777 16.2894 211.8594 17.4443 219.0268 19.942 219.0331 21.0844 217.3993 23.2628 216.5292 24.4615 215.6528 24.9686 206.0691 31.2752 195.4151 38.2799 195.0645 39.1938 194.5888 40.9403 194.7077 42.7274 196.4166 44.186 201.0113 45.2126 205.0926 46.549 207.1583 50.2266 209.5245 53.6225 212.7545 54.4551 228.5416 52.3142 232.2975 52.0388 232.4852 53.2062 231.5525 55.3252 218.2318 58.9433 212.1912 62.0012 210.8954 67.4159 209.2992 68.9839 206.5824 70.2672 203.9095 70.5614 199.8219 64.1952 195.1772 62.8713 188.4793 60.6303 175.4715 56.2766 168.7611 54.3862 155.841 57.2219 140.78 61.1123 138.4326 63.4816 136.8364 66.0199 136.9804 67.9511 138.0633 70.5269 137.3184 72.4956 134.4765 73.1341 130.2136 70.7429 126.4828 69.3658 124.6612 72.6208 122.4765 78.433 121.475 82.6646 124.7551 88.7678 125.8693 97.81 131.8849 97.3186 136.4858 97.3437 145.1744 94.6708 149.5437 94.5988 156.2791 95.7631 168.0662 95.9978 177.4058 95.5158 179.6593 95.7099 181.8565 94.0041 184.304 94.5925 186.5826 96.6676 196.0222 94.1512 203.0144 93.8007 207.296 94.5362 209.85 95.2717 214.3883 101.2404 217.8813 104.9587 222.1254 106.148 235.3021 105.0494 239.1581 99.8225 242.5572 98.5299 247.9844 98.1293 252.4789 97.1371 256.0469 94.9963 260.9045 93.1277 265.1361 92.7553 267.2331 94.1324 268.1533 95.9478 267.4146 98.3046 267.2518 100.7584 270.0061 102.4078 278.1062 102.7928 281.9247 104.3358 282.125 107.2372 281.5053 111.7974 284.8981 113.6315 286.6508 113.7849 298.513 108.9555 301.8307 108.8773 304.4848 111.5376 308.5348 114.7364 313.8306 118.1479 315.1013 117.6252 317.4988 113.9038 322.0183 109.8569 330.5128 108.5424 335.2013 107.2716 340.109 106.7083 355.0134 108.3483 359.9461 108.5611 370.1933 108.2513 378.2496 107.4406 384.7347 105.0181 388.021 103.0713 393.3418 101.9258 400.0836 102.1167 403.6767 102.677 403.9771 106.0228 403.1321 112.3577 402.118 116.7583 407.445 124.7488 410.8628 128.5954 414.1868 131.3122 414.8065 133.4593 414.1179 135.212 409.9802 136.9178 408.4967 138.7425 407.8081 140.7894 409.1352 143.165 411.5264 150.7487 414.5749 156.6485 418.9003 159.4685 425.3667 161.3402 428.9285 160.9458 431.4762 156.5452 435.7078 153.1681 439.2946 153.4028 445.0723 153.2588 460.2397 157.0898 475.044 162.8581 479.3569 166.0443 480.8718 169.6343 476.7779 177.9379 476.972 183.2492 477.9047 188.9081 481.2912 193.1083 484.3898 200.307 484.997 206.2726 486.3428 208.0503 487.432 210.1317 485.7669 215.5933 484.6089 221.0988 485.9923 222.9329 490.5181 225.6527 497.6354 230.7231 499 234.9265 496.4523 237.5963 491.9265 240.8326 486.1425 243.6245 484.4211 244.8013 483.4007 244.1378 480.5212 241.3209 474.1175 236.7638 469.5542 234.3632 460.8907 235.1394 455.8078 234.2912 449.6607 232.8076 443.9331 233.0205 440.3337 235.7747 437.9988 238.5322 432.2712 239.3803 424.0083 241.4993 411.2384 244.7919 405.0788 244.3068 403.4137 242.8827 404.7784 240.9828 409.1664 238.5322 410.2243 235.5619 409.3793 232.8076 405.3104 232.0565 403.7393 231.6245 401.949 231.058 394.0429 229.4148 387.7331 230.0189 376.7222 233.4649 356.4907 242.5008 347.6144 248.579 341.2295 257.7871 322.0872 260.7448 308.9292 266.0249 295.3706 274.6196 286.4004 279.2455 282.0248 279.9028 277.6555 279.0765 273.2862 276.7698 269.0171 269.5773 265.2362 258.6823 262.7386 251.4742 264.1408 242.2254 265.737 231.6996 267.3645 221.0017 269.9999 208.6481 272.1908 204.2507 272.3097 201.3117 270.3692 199.8344 266.2565 199.9158 259.9655 201.5559 255.4961 201.8407 252.8419 200.7797 253.1174 195.0426 256.3161 184.6358 251.3897 175.8721 238.3318 168.7642 227.2271 166.2947 218.0628 168.4637 210.3633 174.1132 204.1286 183.243 197.6686 190.714 190.9706 196.523 186.1945 199.318 184.6483 200.3947 183.6718 202.8548 187.2336 210.5887 187.0082 217.0769 182.9832 222.3132 178.5701 224.8108 173.7563 224.5729 169.9254 223.3585 167.0835 221.1708 159.409 220.5761 146.9021 221.5714 138.3325 224.1973 133.719 228.4508 132.3795 234.0533 134.3325 241.0048 133.356 246.3318 129.4687 250.0313 126.2699 252.1534 123.7661 252.7011 118.3389 249.5024 109.9946 242.5666 104.2544 238.8138 101.1371 238.2442 99.4344 238.6198 97.519 239.3397 96.436 240.2379 95.4908 242.2974 92.8179 243.1112 89.0495 242.4695 85.5816 243.0861 83.5222 245.2614 77.7194 247.8905 67.491 250.8357 61.8885 253.9812 60.9433 257.3208 59.4159 258.8106 56.286 258.2691 47.0341 262.8669 39.9982 261.4428 32.0796 255.5336 27.6915 250.6667 27.2408 248.6103 Z M 212.717 7.3129 210.8078 7.4538 207.3461 4.4147 206.1443 2.2958 207.559 1.6604 210.5261 3.144 212.5041 5.7605 212.717 7.3129 Z M 215.8656 78.5488 210.1254 81.0183 206.7577 80.7522 204.1349 78.3641 202.2507 76.1294 201.8375 74.8681 202.7953 74.8869 207.2397 75.9009 213.4619 76.6145 215.6465 77.2311 215.8656 78.5488 Z"/>
</g>
</svg>