<?xml version="1.0"?>
<svg xmlns="http://www.w3.org/2000/svg" version="1.2" baseProfile="tiny" width="416" height="400" viewBox="0 0 416 400" stroke-linecap="round" stroke-linejoin="round">
<g id="ne_50m_admin_0_countries-tanzania">
<path d="M 378.6479 193.2824 381.4901 201.1818 381.124 202.6609 379.1192 203.5672 378.0715 203.6434 376.8244 202.3818 375.9435 199.7136 374.4209 200.348 371.8252 197.1614 369.255 197.0092 366.9856 193.2063 367.8737 189.8892 367.359 184.2411 370.1286 181.3482 371.6875 176.4795 373.4783 179.8038 373.888 184.9879 376.3024 191.0855 378.3289 192.9707 378.6479 193.2824 Z M 392.3296 146.1943 392.5507 148.0649 391.9815 149.8268 392.1048 155.4386 391.8837 159.1617 389.7629 164.3204 388.0337 166.1548 386.4857 165.6219 385.2169 164.7736 384.2272 163.3598 386.2428 153.8979 385.2169 146.9701 389.201 147.6335 392.3296 146.1943 Z M 134.5101 313.2922 132.4075 312.3061 128.4487 310.131 122.9456 308.2096 118.4431 306.0635 116.442 303.9717 112.2149 303.1742 108.5607 302.8298 105.1784 300.8903 101.6728 300.6691 98.2288 300.1725 97.4602 298.8891 97.3406 296.0216 96.1334 295.2712 93.6066 294.5389 90.8841 294.5751 89.2237 294.9884 88.2449 294.7818 85.9864 293.0924 83.8874 290.9463 83.0934 287.524 79.9141 285.3199 76.2526 283.5798 66.073 283.761 64.4779 283.2318 62.0635 281.4989 59.2285 278.6313 56.9519 275.3578 54.9507 270.9132 54.0009 268.2342 52.8771 264.9207 50.3866 259.965 46.8628 252.9502 44.1439 247.2042 41.2147 241.0232 40.0184 236.4952 37.7418 231.4852 34.0114 225.3295 32.1226 222.9224 30.0599 220.769 24.6982 216.6144 18.6223 212.4853 15.3378 209.7011 10.9186 201.4428 9.0698 198.452 7.7864 193.1882 6.8149 187.7286 7.2137 185.5172 11.1325 178.4842 11.5277 176.5049 11.0492 173.8367 9.1278 168.2321 7.6922 164.5633 6.6807 161.4311 4.589 156.218 1.7178 149.051 1 145.9224 1.0834 143.5768 2.6386 137.3849 3.9981 130.9937 3.9618 129.2354 15.6387 129.4783 17.5601 128.0753 24.158 123.9643 31.5789 115.7242 33.0616 112.2911 36.085 107.0055 39.0505 104.3808 40.1888 102.5609 40.9646 99.7079 41.8926 97.2935 45.7861 93.7154 49.5745 90.9747 49.3026 89.8617 48.7951 89.0352 49.357 88.3283 51.427 86.9181 55.451 85.6275 56.2377 82.8795 56.2268 79.7546 55.5743 78.0072 55.6975 75.9952 55.0812 74.8714 52.453 74.5886 48.5486 73.0298 45.2351 72.3736 43.0273 71.4673 42.208 70.7749 41.8564 68.9006 42.4981 66.8596 42.8388 66.2723 43.6871 64.0863 42.2407 62.7704 41.8636 62.1287 42.5234 61.0846 45.9275 54.1351 46.6671 53.1635 48.1426 53.0402 50.4917 52.1883 52.6523 51.804 54.4215 52.1086 55.7265 51.775 56.8794 50.876 57.8546 48.1643 58.6557 43.6328 58.2135 39.9459 56.5241 37.1037 56.0637 32.7679 56.8359 26.9386 56.2812 22.0916 54.4106 18.2162 52.5001 15.9178 49.5745 14.8303 44.9777 8.9175 43.5711 6.0572 43.8249 4.27 45.0466 3.6863 45.4164 3.5087 48.3419 3.7769 51.0899 3.0954 53.6602 1.4677 56.1543 1 56.6909 1.1523 57.4739 1.2646 61.371 1.2646 67.9726 1.2646 74.5705 1.2646 81.1721 1.2646 87.77 1.2646 94.3679 1.2646 100.9695 1.2646 107.5674 1.2646 114.1653 1.2646 120.7669 1.2646 127.3648 1.2646 133.9627 1.2646 140.5643 1.2646 147.1622 1.2646 153.7601 1.2646 160.3617 1.2646 166.9596 1.2646 171.0126 1.2646 173.8403 1.2646 176.5194 2.6676 179.492 4.328 187.4023 8.7471 195.3162 13.1627 203.2301 17.5818 211.144 21.9974 219.0579 26.4165 226.9681 30.8357 234.882 35.2512 242.7959 39.6704 250.7062 44.0895 258.6164 48.5051 266.5339 52.9206 274.4442 57.3398 282.3581 61.7589 290.272 66.1745 298.1859 70.5936 306.0997 75.0092 309.8736 77.119 310.4428 78.0326 311.0989 82.0566 311.5122 84.5725 311.2838 86.7839 309.1884 90.5505 308.5685 92.519 308.5504 93.8858 309.0652 94.4223 310.8488 94.6181 312.3678 95.5099 312.9297 96.2132 314.0898 99.0481 315.5689 100.4692 318.9113 102.8763 324.6102 106.9801 330.3091 111.0839 336.0079 115.1876 341.7068 119.2914 347.4057 123.3915 353.1045 127.4953 358.8034 131.5991 364.5023 135.7028 367.2756 137.6967 368.4501 138.2586 367.7106 141.38 364.7923 148.9531 364.6255 152.107 363.4836 155.8193 362.3815 158.2736 359.4088 168.9281 356.9147 172.9159 353.5069 182.2581 352.9668 189.4034 354.8446 194.4063 355.5407 199.0973 359.5284 203.6941 362.7187 205.3363 364.8757 207.439 368.6967 212.2388 370.8827 217.0531 377.7525 219.4168 380.4896 224.8147 379.4926 228.5306 376.306 231.6084 373.3261 236.5967 370.9262 243.1475 370.8718 253.1641 372.485 251.6415 376.1211 254.0957 376.5888 261.4731 372.8403 270.0613 371.6875 274.0744 371.5026 277.522 374.2251 287.8032 378.347 293.038 378.0389 294.6766 376.9694 296.0506 384.0242 305.3131 383.4369 313.3683 386.0797 319.64 387.2397 325.0742 388.9799 329.2432 389.3134 332.118 387.1382 335.3083 392.2824 336.1058 395.3059 338.716 396.7306 341.2138 400.4465 341.105 402.4585 342.8125 405.3587 344.2227 411.7717 348.4135 413.5082 350.5197 414.139 351.7342 414.5486 352.5281 410.2382 355.7655 403.5098 360.8118 396.9191 365.7602 390.5496 369.1607 385.9963 370.734 381.1348 371.615 376.5199 373.6959 372.1551 376.9622 366.565 378.6081 359.7532 378.6226 352.597 380.9101 345.4915 385.2314 341.3515 387.7545 334.7935 383.9625 329.6493 382.7589 323.7365 382.8858 320.133 383.3535 318.8388 384.1692 317.715 386.4857 316.7579 390.3031 312.8789 393.9682 306.0816 397.4738 299.8136 398.7861 294.0785 397.8979 290.1995 396.437 288.1693 394.396 285.1894 393.4606 281.2451 393.6202 277.4749 395.0702 273.8642 397.8145 268.1037 399 260.197 398.6339 255.9519 397.3106 255.3646 395.0304 251.9025 392.3586 245.5583 389.2916 240.8854 389.2264 237.8873 392.1664 235.1503 394.0189 232.6779 394.773 230.452 394.8636 228.4835 394.2981 227.2545 394.0624 218.5068 393.7507 210.2232 393.8739 209.9694 392.5978 209.3894 389.6179 207.6674 387.0222 206.181 385.4779 204.3358 385.0682 203.3316 385.0972 202.5268 383.9009 201.5734 381.2545 200.1631 378.9996 198.2925 377.1326 197.1723 375.3997 196.7917 373.8046 197.0889 372.05 198.8218 367.6925 199.3692 364.7089 199.1734 361.6492 198.2345 358.5134 196.2696 354.783 196.4908 353.7099 195.8237 351.165 195.7549 349.385 196.1355 347.1628 195.7621 344.2408 194.0655 338.0054 194.0655 336.4103 192.2746 333.3905 186.7751 326.2524 186.5178 325.3244 177.8933 318.1319 174.4421 316.5585 173.1986 317.9071 172.7346 319.1542 173.0971 321.4562 172.8869 322.6018 172.5243 323.1202 170.4797 323.0441 169.1928 322.7794 165.9264 320.8472 163.3815 320.3723 157.0663 320.7203 154.8477 321.1735 153.1076 320.7384 149.7651 317.4395 145.8462 316.7471 142.3261 316.5767 136.5185 312.8318 135.1554 313.0058 134.5101 313.2922 Z M 386.6234 260.2079 384.6151 260.6937 383.832 260.2224 382.5994 258.6744 384.742 257.3548 386.8192 254.7918 391.6444 251.0324 393.2903 248.5528 393.892 248.0235 393.544 250.9527 390.8215 257.3585 388.4977 257.7754 386.6234 260.2079 Z"/>
</g>
</svg>