<?xml version="1.0"?>
<svg xmlns="http://www.w3.org/2000/svg" version="1.2" baseProfile="tiny" width="800" height="158" viewBox="0 0 800 158" stroke-linecap="round" stroke-linejoin="round">
<g id="us-states-43">
<path d="M 614.6903 8.0888 799 9.1015 794.9492 30.8743 777.7335 35.4315 766.0876 52.6472 749.3782 49.1028 712.9213 66.8249 710.3896 57.7106 697.731 63.7867 677.4771 84.5469 653.6789 89.6104 630.8934 103.7881 605.5762 104.2944 582.7906 117.9657 575.7017 133.1561 557.4733 135.1815 554.9416 156.9543 435.9505 157.4606 273.9201 155.9416 195.9429 156.4479 171.132 156.4479 1 156.4479 10.1142 153.9162 19.2284 137.7132 17.7094 115.434 34.9251 100.2436 37.9631 86.066 51.6345 81.0025 54.6725 63.7867 72.901 40.4949 72.3946 17.7094 77.4581 17.7094 83.5342 17.7094 94.6739 16.6967 209.6142 17.7094 208.0951 1 228.349 5.0507 344.8083 3.0253 447.0901 6.5698 465.3185 5.5571 534.1815 8.5952 613.1713 9.6079 614.6903 8.0888 Z" id="47"/>
</g>
</svg>