<?xml version="1.0"?>
<svg xmlns="http://www.w3.org/2000/svg" version="1.2" baseProfile="tiny" width="800" height="648" viewBox="0 0 800 648" stroke-linecap="round" stroke-linejoin="round">
<g id="us-states-44">
<path d="M 740.691 175.2606 747.0217 180.9249 759.0167 177.9261 767.6797 180.5917 767.6797 212.9115 767.6797 275.2188 781.0075 288.5465 781.3407 301.8743 798.0004 326.5307 799 339.5252 792.6693 355.1854 786.6718 361.5161 788.671 369.8459 784.3394 376.1766 789.0042 387.8384 774.6768 409.496 780.0079 415.4935 770.0121 415.8267 738.3587 424.1566 727.0301 419.4919 725.0309 409.496 717.0342 416.4931 711.3699 414.8271 708.3712 423.4902 714.7019 427.1553 715.7015 438.4839 704.3729 450.4789 686.0472 465.4727 649.3958 481.466 645.7307 478.8004 634.7353 482.7988 634.4021 479.1336 619.4083 481.7992 612.4112 474.1357 608.0797 475.8017 624.073 491.4618 612.4112 496.4597 601.4158 493.461 599.7499 504.4564 586.0889 515.785 572.0947 536.7762 563.0985 558.767 556.4346 557.101 554.7686 565.0977 561.7657 563.0985 558.4338 579.0918 553.7691 579.7582 553.4359 588.7545 559.1002 593.7524 560.7661 612.078 567.43 618.4087 569.096 630.0705 574.4271 640.3996 555.7682 646.7303 548.1048 638.7336 533.7774 635.7348 514.7854 636.4012 498.4589 626.4054 486.1307 625.4058 476.8012 617.4092 464.1399 614.7436 455.4768 607.0801 449.8125 588.7545 438.8171 577.7591 440.1499 568.4296 435.152 558.4338 436.818 549.7708 429.1545 540.1081 422.8238 539.1085 412.4948 530.4455 409.1628 519.4501 400.1666 509.4543 387.172 501.1244 380.8413 482.7988 374.8438 477.8008 366.8472 463.1403 364.1816 451.1453 356.5181 442.4823 343.5236 434.8188 340.5248 429.4877 328.5298 424.823 319.2004 411.4952 292.5448 408.4965 276.5515 409.1628 262.8906 404.4981 259.8918 410.8288 245.2313 412.828 234.2359 425.4894 227.572 445.8142 223.9069 446.1474 215.577 458.1424 205.5812 458.4756 190.5875 449.1462 152.9365 434.1524 145.6063 426.1558 130.9457 418.4923 120.6167 401.1662 119.9503 385.506 109.6213 372.8447 107.2889 361.8492 100.625 354.8522 76.9682 344.5231 64.3068 330.529 53.9778 325.5311 42.9824 313.5361 27.6555 307.2054 16.9933 291.2121 7.997 287.8801 1 280.8831 2.6659 274.8856 218.5758 274.8856 218.5758 213.9111 219.9085 152.2702 220.2417 1 222.5741 1 294.8772 1 405.1645 1 405.1645 118.9507 409.8292 118.2843 423.4902 129.9461 430.8205 127.947 450.1457 128.6134 454.4772 140.2752 466.8054 139.6088 480.1332 144.9399 492.1282 144.2735 497.1261 149.2714 504.7895 143.6071 516.4513 146.2727 521.4492 152.9365 530.1123 153.9361 534.777 162.266 545.4392 154.2693 559.7666 158.934 565.0977 163.932 572.0947 161.5996 577.0926 169.2631 592.4196 155.6021 596.7511 162.5992 610.0789 162.5992 622.7403 166.9307 627.405 172.2618 639.4 162.9324 652.3946 159.9336 658.3921 163.2656 672.7194 157.2681 676.0514 160.6 691.7115 160.9332 695.7098 155.6021 711.3699 161.5996 717.3674 168.5967 740.691 175.2606 Z" id="48"/>
</g>
</svg>