<?xml version="1.0"?>
<svg xmlns="http://www.w3.org/2000/svg" version="1.2" baseProfile="tiny" width="225" height="400" viewBox="0 0 225 400" stroke-linecap="round" stroke-linejoin="round">
<g id="ne_50m_admin_0_countries-thailand">
<path d="M 141.8299 236.4441 141.3857 239.2525 139.8481 238.1013 140.2161 236.6794 140.8206 236.0354 141.8299 236.4441 Z M 136.9937 228.0413 137.0805 228.6865 135.6848 228.1963 135.1959 228.4263 133.6347 228.2542 132.8646 224.5258 132.975 223.6506 134.0894 223.9253 135.6848 225.7769 136.4996 227.0622 136.9937 228.0413 Z M 28.8606 338.0314 28.5741 340.0131 27.4702 339.9855 26.3452 341.2537 25.8248 341.4219 24.9101 337.3848 25.9615 331.7286 26.5187 330.919 27.2967 332.4172 29.5571 333.0901 28.5846 336.3492 28.8606 338.0314 Z M 74.9751 3.9004 74.7727 5.4879 75.4403 5.8178 76.3655 5.0818 77.5482 3.2827 78.8387 2.2682 80.237 2.0369 81.722 3.2617 83.2938 5.9439 84.9102 7.4684 85.6619 7.634 86.2113 8.8601 86.2954 10.0363 85.5279 12.5214 84.2269 15.4126 82.3818 18.9871 82.9863 21.9914 85.5016 24.441 88.5137 25.884 91.7019 25.4831 93.3946 24.7511 94.7771 23.5907 96.065 23.044 97.6919 22.8981 102.7568 23.7484 104.297 24.579 104.5362 26.2401 103.9106 30.5112 104.6912 33.6442 106.1263 36.9441 106.2998 39.9522 104.5283 44.9146 103.0485 49.6101 101.4557 51.8915 100.2204 53.3595 99.8577 54.3556 99.9549 55.2966 101.0904 56.7093 102.2942 58.5308 102.5964 60.272 102.4677 62.4128 101.6423 65.3487 98.5672 71.7106 96.1307 77.451 97.4054 78.6022 99.8235 79.4406 101.4242 80.2594 103.1011 79.735 106.6599 76.3444 109.7272 73.8212 113.533 71.3019 113.7643 71.0825 117.0971 69.2282 118.6215 67.525 119.4468 65.3526 120.627 64.5116 122.1567 65.0018 124.0938 64.0582 126.4383 61.6808 128.2387 60.5822 129.4977 60.7649 131.7423 62.242 134.9778 65.0149 137.8558 66.6655 140.379 67.1912 141.6091 68.2228 141.5513 69.7604 142.1085 70.7368 143.2886 71.1508 143.8117 70.9852 143.6803 70.2414 144.821 69.1519 147.2391 67.7169 149.6939 66.8732 152.1909 66.6221 153.8047 65.4841 154.8771 62.5311 156.4199 60.2839 157.7972 59.268 159.5056 58.7568 159.9472 58.0432 159.1218 57.1285 159.1981 56.1994 160.1811 55.2598 162.2995 54.8576 165.5561 54.9969 169.3698 55.955 173.746 57.733 176.6136 58.3034 177.9803 57.666 180.6481 60.4192 184.6169 66.5643 188.0206 71.2086 190.8592 74.3535 193.8503 76.7676 196.9886 78.4511 199.2437 80.7404 201.2991 85.0837 199.7641 91.0895 199.3488 96.2779 199.5381 102.6516 201.3884 107.5364 204.9025 110.931 206.9448 113.675 207.5204 115.7671 210.2539 117.5623 215.1505 119.0605 217.1848 120.418 216.3595 121.6362 216.2965 123.049 216.9877 124.6589 218.6856 125.9901 221.3876 127.0441 222.9935 128.1559 223.5034 129.3242 223.4456 131.2245 222.82 133.8528 221.6925 135.8727 220.0629 137.2815 219.8658 138.392 219.4505 140.0886 219.4505 143.5607 220.607 145.8749 220.9644 148.8121 220.3284 151.2118 219.7133 156.1124 219.6371 158.0114 219.051 159.6409 217.6264 161.2153 215.4606 162.6938 212.8086 164.008 211.1843 164.5901 210.8032 164.8635 209.6415 166.3472 208.2458 167.7875 207.1577 167.7888 206.3429 167.0608 205.7778 166.1185 205.4361 164.0553 202.9891 163.0355 200.3029 162.3942 194.8333 163.4113 190.415 163.962 185.4659 163.2641 180.7979 164.1459 178.8477 164.2761 176.6083 164.1446 174.4478 164.1617 172.3898 163.8384 168.5813 162.5755 167.1278 162.6741 164.0605 163.7188 160.8592 164.4535 157.7893 164.9568 153.258 167.112 149.9804 170.2293 149.0106 172.4318 147.3836 174.6502 145.1259 178.1643 142.2058 181.5273 140.1688 183.0609 140.7286 183.9651 140.2266 185.0598 137.041 185.5473 134.5599 185.7431 134.113 186.2898 134.4101 193.0657 135.2774 195.6297 136.8833 198.7246 137.9347 200.4186 138.7153 205.444 138.9545 209.7059 142.4554 212.3986 144.4372 214.4553 145.846 216.2649 145.3545 217.4188 144.5161 220.8567 145.3335 225.3209 150.217 234.9486 150.6428 235.632 150.0619 235.7082 149.2918 233.8539 146.8133 230.7353 146.0432 227.4026 143.1336 223.7321 141.4987 222.2733 140.9783 223.4903 140.0479 224.7979 137.1909 222.9133 134.7439 220.9394 132.4808 217.1244 132.1943 218.0101 131.6871 218.8118 129.1192 215.8142 126.433 213.4224 124.0149 212.5668 122.522 211.7704 121.0869 210.5023 118.0696 209.1841 110.5682 211.0792 101.0221 209.6073 97.3476 211.0174 95.8416 210.1409 94.9138 208.5073 95.8048 205.7173 96.0072 199.8837 97.1426 195.7835 96.609 192.6675 97.1663 191.1996 97.5894 189.1968 96.0781 188.3781 89.3364 186.7932 87.9066 185.5316 86.1167 186.9772 78.0213 187.7841 74.9724 188.9931 72.1496 191.3179 71.4241 194.2708 73.0537 196.2145 74.0998 199.5946 71.1955 206.9737 70.7092 209.1657 71.8315 218.1902 71.3847 223.1407 69.8025 226.4603 67.295 229.4435 66.2621 234.4991 64.2908 236.841 61.6493 242.1936 59.8725 248.8605 58.6083 251.9448 57.8697 257.6247 52.429 266.2483 51.1516 271.12 49.2067 272.9585 49.8874 274.4107 50.0031 276.8446 49.3223 283.3379 49.091 288.7247 49.9137 291.6015 52.5236 297.3221 51.8981 298.9806 51.5985 301.3421 53.7931 302.4132 55.3649 302.7286 64.2461 300.024 67.2529 300.7192 68.3831 303.2424 69.1138 305.4424 70.6199 317.3291 71.3979 319.5369 73.193 321.6383 75.159 323.8737 75.8266 323.4729 75.9554 322.6437 76.079 321.7119 77.8347 323.9644 79.1988 328.1685 83.8852 350.4057 85.2362 353.2311 86.3532 356.2025 83.5041 354.753 82.734 349.813 81.9165 347.7352 80.9099 347.429 79.3171 347.4658 79.2146 346.5827 80.4079 344.9715 80.2213 343.0397 78.5864 341.4535 75.937 342.7125 76.0054 346.1806 77.1934 348.8378 81.6747 354.77 83.0783 357.2538 84.8603 357.9661 87.4571 357.5732 90.5638 360.103 93.0108 362.4527 99.0744 366.0523 102.7489 365.6698 106.7203 364.7775 109.3829 365.0127 111.9954 365.9353 115.1258 368.9316 120.1039 376.45 128.2282 382.7042 127.3477 384.2536 126.9928 386.6218 123.7889 389.7797 123.279 391.6091 122.1067 393.926 119.8752 395.1626 117.9592 395.3978 116.8526 395.1771 116.0878 394.7145 114.7789 392.5303 114.1165 391.8614 113.5593 391.7063 109.4722 393.2163 105.5113 394.8932 104.778 396.3914 103.724 398.1392 102.5675 398.8305 101.6607 399 100.7934 397.9736 99.2716 396.6384 98.0993 395.386 98.399 393.3635 100.6278 390.3948 100.9222 388.3171 100.6383 384.7543 100.0338 382.695 99.3846 382.6214 98.2912 382.2889 95.2003 382.6188 93.6548 380.2979 93.0424 377.7537 91.9858 376.8417 90.9397 376.2871 88.6215 377.1663 86.8552 376.6406 80.9756 374.4236 78.7152 370.849 77.5088 370.7439 76.4364 371.1421 76.0185 371.9555 75.393 376.0715 74.8857 377.3279 68.144 369.0407 63.497 365.6291 64.1515 359.4511 62.7374 358.2487 60.9791 358.1291 59.6491 356.4206 60.8319 352.7383 59.0052 353.4414 56.4767 353.31 54.4161 352.2915 52.8496 347.2017 51.8613 345.6483 49.7008 342.9832 46.8543 342.9832 45.9133 341.7032 46.1394 338.4138 44.063 336.3965 41.3321 334.7512 39.077 333.7853 36.7851 328.4852 34.9767 327.1855 33.4392 326.1289 31.3023 326.8411 30.6084 328.7493 29.1812 330.5984 27.5595 330.3631 26.0719 329.3065 24.2609 324.0078 23.9587 320.7631 24.3582 314.7284 26.6238 309.3166 27.846 300.6614 29.7779 295.2168 31.1183 293.3703 32.9739 285.94 36.7588 276.4424 37.1872 274.4068 37.952 272.124 38.5303 269.9701 38.7195 266.5743 38.2307 264.783 38.2307 263.7777 39.0297 262.499 41.7264 260.349 45.4481 256.806 49.8821 251.8187 54.4213 244.1702 56.6791 239.7309 57.6279 238.167 58.6319 237.6781 60.1827 236.1576 61.2498 234.4755 61.3102 233.6265 58.8396 225.3249 57.2231 222.6177 56.4031 219.4203 55.9694 217.1112 55.3754 214.9902 55.6672 212.9913 54.7761 211.7441 52.7681 210.1658 50.6812 207.8279 49.4353 204.001 49.4353 201.8642 48.1001 199.9954 47.6559 198.0373 48.455 196.1672 49.5063 194.5508 49.3854 187.4489 48.9649 185.3266 48.4471 181.5338 47.0856 178.6794 45.159 175.3309 42.9775 172.5672 37.2608 167.5641 33.1921 164.2222 31.1735 161.1812 28.6214 157.6802 26.7894 155.1635 24.4712 151.9806 23.2911 147.6425 22.6392 143.0271 22.9914 141.5014 24.1006 140.4986 25.5515 139.6852 26.7158 139.4972 30.0197 137.3762 32.3116 137.5562 32.8399 137.0989 33.0633 136.1329 32.7742 131.9289 32.8741 126.3081 33.2999 121.7322 33.794 118.7161 39.8655 115.2139 41.1455 113.6999 41.7632 112.0572 41.7579 110.609 41.248 109.4709 40.336 108.8414 36.4013 111.8601 35.6338 111.1872 33.8282 106.2249 33.0502 104.7136 31.9305 102.904 30.7188 100.3729 30.5322 95.9914 29.6622 93.8204 24.7551 89.1918 22.5499 86.7093 19.5483 83.119 15.9475 78.8125 12.2783 74.8305 10.5593 72.2849 9.9495 71.712 9.7367 70.7316 10.8511 67.9928 10.307 65.2449 8.4724 61.5757 7.6892 59.3074 7.952 58.4374 7.0662 58.0971 5.0345 58.2876 3.0685 56.5713 1.1814 52.9481 1 52.3108 1.6229 52.3226 3.9884 52.9494 4.8006 52.8548 6.4749 52.0216 9.0112 51.1464 10.5225 50.856 11.0114 50.421 11.2296 49.5431 9.939 41.1731 10.1572 39.4318 12.5726 35.8257 12.294 32.1815 12.9196 26.9576 15.6005 23.3804 17.6138 21.743 18.2552 19.1646 19.1698 18.6205 20.8388 18.8242 24.2846 20.7481 25.7538 20.8401 27.8434 20.7889 30.0959 20.647 31.142 20.4617 38.3226 18.5837 39.9075 18.3853 41.4215 18.6244 42.5228 18.5351 43.6345 17.673 44.4257 16.1538 45.322 11.2979 45.8345 10.4411 46.7623 9.7485 48.2841 9.2846 50.0635 9.324 52.4001 10.2584 53.8589 10.2991 55.5095 9.9075 56.9183 9.2386 57.8434 8.3896 58.2666 7.3698 57.8855 5.4078 56.821 2.9476 57.1154 2.6519 59.0735 3.196 61.9542 3.7979 64.1462 3.6638 65.5787 3.2367 66.9743 2.075 68.7275 1 70.449 1.2418 71.7763 2.2064 74.9751 3.9004 Z M 73.674 289.7301 73.4138 290.1795 72.3704 289.3253 71.6265 288.3594 71.2323 287.1227 72.8487 287.174 73.6451 288.3186 73.674 289.7301 Z M 73.582 292.708 73.7056 294.2311 73.1247 296.0618 70.6672 297.1328 69.8287 295.6675 70.0521 293.4098 70.4306 292.8434 72.8356 292.9551 73.582 292.708 Z M 62.6113 375.1766 62.0987 375.333 61.0921 373.1606 62.3668 370.004 63.6416 373.8677 62.6113 375.1766 Z M 33.7835 337.1732 33.4602 337.6279 32.0987 332.4737 34.1146 333.8523 33.7835 337.1732 Z M 26.1271 307.0956 24.6 307.3821 24.805 305.9129 25.215 304.985 25.9562 304.7367 26.2611 306.3176 26.1271 307.0956 Z M 46.8753 346.3803 47.5745 349.625 46.5914 348.9627 45.7793 347.5473 45.7898 345.4683 45.979 345.1779 46.8753 346.3803 Z"/>
</g>
</svg>