<?xml version="1.0"?>
<svg xmlns="http://www.w3.org/2000/svg" version="1.2" baseProfile="tiny" width="500" height="126" viewBox="0 0 500 126" stroke-linecap="round" stroke-linejoin="round">
<g id="ne_50m_admin_0_countries-The Gambia">
<path d="M 44.6027 38.3413 86.7211 36.7516 137.7369 37.4329 193.2865 38.1791 219.4514 38.5197 233.207 15.1368 259.3394 4.8201 286.1125 1 300.0466 2.0138 314.7754 5.469 342.9761 24.756 360.5599 29.152 375.3942 33.5479 386.0029 42.9238 402.8649 52.2267 416.1419 54.7409 424.0336 53.3135 437.1565 49.7286 445.8025 46.8412 473.9706 45.6246 494.6608 56.4036 499 68.1559 495.5449 80.2002 467.7417 86.6643 429.2244 96.7215 397.3659 91.2306 358.6052 77.475 335.9604 67.6044 326.5277 63.6626 312.3666 57.3931 300.0222 50.6289 288.0996 46.2572 279.0076 43.4591 272.2839 46.9872 268.8775 55.3249 263.492 64.6197 256.5655 70.1187 224.0744 73.3791 194.9249 76.7937 179.2714 79.6892 168.833 81.8872 165.532 109.9094 132.5137 109.5931 100.0793 109.2686 66.4365 109.7634 30.2388 110.2906 20.9764 116.0086 11.2113 125.2384 10.2137 111.2314 1 79.2431 13.3606 65.2361 26.8242 56.9957 35.8838 63.5896 38.617 76.6234 45.576 85.5289 69.3401 91.0927 92.8771 87.0942 107.2653 88.9353 106.7949 81.7169 111.6937 72.1058 140.2593 67.9856 170.4795 65.2361 201.5107 59.4694 225.8263 59.7128 233.1015 58.0987 231.3334 55.6331 209.5077 52.8674 162.9366 59.4938 115.5057 61.4403 79.5675 78.8619 64.8306 77.2317 49.9557 59.8263 44.6027 38.3413 Z"/>
</g>
</svg>