<?xml version="1.0"?>
<svg xmlns="http://www.w3.org/2000/svg" version="1.2" baseProfile="tiny" width="416" height="400" viewBox="0 0 416 400" stroke-linecap="round" stroke-linejoin="round">
<g id="ne_50m_admin_0_countries-the bahamas">
<path d="M 89.0466 179.3983 89.1502 180.9167 82.5781 185.0995 87.3534 188.0844 91.8535 181.5933 95.4244 186.8671 97.3799 196.7577 97.0626 198.48 97.3896 199.9563 98.0889 201.8502 98.2605 204.5956 94.6151 213.2332 81.5162 212.3461 81.2184 205.065 79.1949 203.66 76.1485 193.2612 72.0498 189.9104 66.3583 181.3634 69.6638 179.1587 74.07 179.8936 76.3265 178.8641 82.4357 178.0418 86.1458 176.873 89.0466 179.3983 Z M 117.6951 69.6832 116.3159 70.2627 110.5597 63.6226 105.9236 61.6931 113.1658 56.9987 116.2933 52.9648 116.2285 44.1654 117.9962 39.3448 117.3972 35.1716 118.9933 30.9111 116.8339 26.1261 110.7798 22.3318 98.8011 7.2386 79.878 3.5738 70.0814 3.4216 75.4654 1 80.4381 1.2946 88.0915 2.7353 97.2569 3.4313 102.8577 7.8732 108.206 13.7622 113.0363 16.1449 115.0242 17.6601 114.8008 19.3695 115.6037 20.9753 121.907 23.7304 128.2558 28.1787 130.1173 41.2225 121.5639 47.3964 119.9905 66.2838 117.6951 69.6832 Z M 396.0895 382.0939 393.9754 386.9566 386.9598 396.232 371.2969 398.5694 354.0411 399 352.7072 396.4683 352.3317 394.2441 353.5911 390.7671 353.4745 389.3976 352.759 387.999 359.0786 386.5001 363.187 382.1975 369.7234 381.4723 377.8754 384.4961 382.2654 384.6061 388.7663 381.2715 393.9916 374.0714 397.0964 374.9908 396.0895 382.0939 Z M 83.3357 149.0339 83.19 157.0629 83.9152 163.0684 83.245 165.2084 76.0708 169.2229 74.2286 171.4664 67.4655 173.7294 63.3734 176.8795 61.324 171.7611 57.3516 168.598 56.6847 163.2206 53.648 165.0368 49.2709 163.9296 42.0513 159.8568 37.4897 154.3272 43.8805 153.3689 45.2014 156.8039 50.2583 152.5887 49.109 150.3678 48.196 150.0829 46.5384 145.9518 54.1465 135.1322 55.7879 128.1522 52.3368 116.9537 55.5581 116.2188 64.1439 120.1459 67.99 124.0114 68.1163 129.3176 71.7261 133.426 76.9514 143.268 83.3357 149.0339 Z M 33.6727 14.9924 41.7049 17.0547 46.0075 16.773 48.5878 15.4165 60.4726 15.9701 70.0685 13.9855 71.493 17.5079 71.2501 19.3468 50.8443 21.0724 32.1252 26.2427 21.8656 29.7456 17.045 30.1341 13.3607 28.292 1 17.6148 4.3055 18.6799 13.4384 24.7146 19.1105 23.6138 24.3649 19.6252 25.1678 16.6111 24.3843 15.1834 26.7607 10.4243 33.6727 14.9924 Z M 109.6111 128.7155 102.1228 130.0914 96.7712 128.7349 95.3985 127.6439 97.6907 125.8115 102.7347 124.2834 110.8349 124.1312 114.3831 125.9377 114.8105 126.7277 109.6111 128.7155 Z M 327.7527 280.5761 329.2614 281.7643 325.03 284.4255 315.5053 281.1329 313.3589 281.3596 311.4682 277.8599 310.7494 275.2666 311.2092 272.8774 316.8812 274.7357 319.9374 278.1609 327.7527 280.5761 Z M 303.0928 191.4255 297.8384 198.6095 295.0379 197.9976 296.6308 188.9715 300.2697 187.5405 301.6974 187.6182 303.0928 191.4255 Z M 317.859 314.3722 313.2067 316.3665 314.2395 312.9283 323.162 307.104 328.0959 301.9823 330.8995 300.1693 331.8999 298.761 335.8108 296.8704 337.7727 293.5746 337.2321 290.8842 333.1334 286.4392 333.1917 283.3085 334.6032 281.1038 341.5152 280.0743 339.6893 283.4089 342.4056 292.8462 333.25 304.5982 325.4055 308.2404 317.859 314.3722 Z M 155.9395 97.3184 166.853 104.7969 176.164 107.62 186.2294 116.9828 190.5644 120.3174 191.3381 123.3542 189.6417 137.2171 187.3787 145.5633 187.7186 152.8801 185.3552 150.7142 182.966 145.9227 179.0486 143.1676 177.7439 141.7237 184.7854 141.4064 185.4103 133.8631 188.8453 127.9126 188.324 121.7225 180.1073 114.9076 174.4741 108.9086 165.8138 106.9887 157.8043 101.0156 153.0257 100.2807 147.1983 101.3328 149.3026 97.7716 150.7595 93.0611 151.8279 92.1805 155.9395 97.3184 Z M 221.2007 232.3959 218.4294 232.7876 213.4793 231.0361 201.8794 222.9716 196.4987 222.2755 198.2663 217.7268 202.365 219.3164 211.7213 226.2706 215.2534 229.7541 221.2007 232.3959 Z M 275.8397 269.2481 275.4156 270.9478 267.0305 257.6968 256.5022 254.4787 250.4546 251.2801 251.7107 249.4639 255.9065 248.6739 256.6058 244.4782 254.8154 239.9392 249.2664 230.7739 246.1519 224.5644 244.721 223.1334 244.3131 217.9276 250.9013 225.9889 253.6402 233.1567 258.0497 240.1755 261.0055 252.2837 269.4327 256.3986 275.4997 262.2487 275.8397 269.2481 Z M 244.8149 182.6778 245.2552 186.0481 240.8133 185.365 234.2574 186.6826 231.8973 186.7182 233.3671 184.4099 237.919 181.289 238.1489 178.317 232.5157 174.0305 225.9598 163.3663 222.8906 160.8378 221.4338 156.8298 215.9333 152.5304 217.0826 150.2318 218.2125 149.6911 221.9323 150.7951 230.3563 166.1343 230.9066 167.6041 244.8149 182.6778 Z M 395.1506 300.0981 399.2655 301.0564 401.5026 300.9884 409.0912 302.9795 413.6108 305.7119 414.6273 306.8386 412.1992 309.2764 405.2192 304.6597 399.1263 304.064 390.5631 304.1741 387.1346 303.3032 389.4235 298.3564 395.1506 300.0981 Z M 403.4321 361.2542 394.6003 364.5079 393.7132 360.6811 398.2165 357.612 403.4321 361.2542 Z"/>
</g>
</svg>