<?xml version="1.0"?>
<svg xmlns="http://www.w3.org/2000/svg" version="1.2" baseProfile="tiny" width="500" height="1342" viewBox="0 0 500 1342" stroke-linecap="round" stroke-linejoin="round">
<g id="ne_50m_admin_0_countries-Togo">
<path d="M 265.0927 33.6195 258.246 62.2819 244.136 97.778 234.9724 109.0634 228.5422 195.324 232.9679 202.5482 236.222 204.6829 280.5043 233.879 338.5841 272.1737 379.6122 299.209 383.0226 308.2816 383.6213 364.9947 384.142 413.6896 392.6288 441.558 394.4511 468.5673 404.7342 489.0033 442.5863 528.3914 451.6198 551.6389 452.583 626.0285 453.338 682.4682 458.128 759.3179 458.128 823.5025 458.128 904.6346 458.1541 999.7205 458.1541 1098.8545 433.1623 1100.1561 446.7776 1130.9272 449.1206 1158.8477 452.3487 1167.9593 445.5801 1181.4705 451.1772 1202.0496 462.033 1209.6903 489.7322 1251.083 499 1286.1756 454.4834 1297.8514 457.6074 1306.9239 374.4317 1325.5636 341.5258 1340.8841 340.9531 1326.0583 328.8477 1323.3899 314.139 1318.3915 304.9233 1310.6987 292.1931 1293.1264 287.6113 1279.3289 268.2167 1277.1291 244.2922 1261.7175 221.4873 1244.067 213.5732 1226.4296 215.76 1218.2813 212.2455 1209.8986 204.3835 1206.7616 183.8434 1166.8659 171.1393 1150.7905 165.1517 1137.8781 167.2343 1127.9074 164.4748 1114.4353 168.4839 1103.5534 179.5219 1097.0452 182.9843 1089.079 183.9736 1072.3788 190.1955 1037.7418 194.2566 1003.8597 182.5938 994.4878 168.2756 991.8454 160.8822 982.1481 158.0446 966.1508 158.331 952.3533 186.3686 904.0098 180.6153 792.6923 184.7806 775.6927 197.5368 763.9908 208.4707 750.4536 208.0021 736.9555 189.3104 703.6982 153.8793 678.1988 135.7603 657.5545 125.9718 639.0841 124.3578 629.1524 145.8351 614.626 155.3372 604.5772 156.5347 592.9925 147.7615 571.8536 149.2975 534.2358 157.576 506.0029 166.0628 469.4655 165.1777 458.7528 144.3512 436.9501 133.0789 433.9693 123.9413 435.5443 102.1776 449.8625 94.3416 451.4115 89.4214 447.1811 87.2606 441.4148 94.8623 432.8629 92.1028 422.1894 98.4809 412.8695 112.3045 408.6131 116.3656 403.9272 97.752 399.4495 95.5652 393.1104 96.8929 386.9275 102.2557 385.7561 108.1392 386.1075 111.3933 381.6819 114.2309 350.6635 116.4958 339.8337 118.8388 318.4215 121.7285 235.3629 125.9718 226.811 126.5706 220.6021 113.502 216.58 82.6268 194.2957 64.5598 177.1659 48.8358 159.6196 35.5589 148.087 9.656 130.2933 2.0283 118.982 1 107.6576 8.888 84.9827 21.3449 60.785 27.5538 26.2261 23.779 17.0104 6.7533 1 67.5015 13.2616 154.1136 33.9579 155.8578 37.6416 156.3785 43.8244 171.4256 43.7073 196.4434 36.3399 265.0927 33.6195 Z"/>
</g>
</svg>