<?xml version="1.0"?>
<svg xmlns="http://www.w3.org/2000/svg" version="1.2" baseProfile="tiny" width="500" height="999" viewBox="0 0 500 999" stroke-linecap="round" stroke-linejoin="round">
<g id="ne_50m_admin_0_countries-Tonga">
<path d="M 70.2956 901.2522 75.2248 901.286 80.6604 891.0224 99.2462 887.3087 97.2036 898.2812 72.1356 933.8659 56.3183 919.9561 10.3013 897.2346 1 879.6448 16.3109 866.309 14.741 877.0452 22.4048 881.9068 48.3506 883.7637 71.6461 893.352 57.213 896.5256 70.2956 901.2522 Z M 488.0613 26.5913 474.9955 47.0845 468.7665 46.7807 453.6245 34.8966 448.0876 26.8951 471.1467 2.8569 483.0308 1 499 9.0353 498.2741 15.9226 488.0613 26.5913 Z M 156.3032 946.594 154.3957 998.4855 137.498 974.6836 135.6243 963.6436 152.7245 947.6068 156.3032 946.594 Z"/>
</g>
</svg>