<?xml version="1.0"?>
<svg xmlns="http://www.w3.org/2000/svg" version="1.2" baseProfile="tiny" width="438" height="400" viewBox="0 0 438 400" stroke-linecap="round" stroke-linejoin="round">
<g id="ne_50m_admin_0_countries-trinidad and tobago">
<path d="M 363.9785 47.3665 346.8222 50.4957 348.8261 37.9329 378.9304 16.1986 425.0658 1.5857 436.8424 1 430.2142 20.4684 363.9785 47.3665 Z M 283.2224 377.0036 232.0311 394.7765 98.6811 399 43.4359 392.5568 1 397.5819 78.2262 358.8917 87.3053 342.5679 120.0917 339.5004 129.4174 334.6294 140.3308 249.2644 136.061 228.9328 129.5716 217.7266 116.2844 209.6494 86.4883 198.6281 81.4786 192.7244 100.2071 183.2908 140.3 178.0807 170.2348 167.861 232.2007 165.8108 262.2588 156.778 313.0493 154.1576 288.0779 193.3256 276.3938 207.9384 280.9411 243.222 275.2069 267.1606 281.8659 297.4345 297.0029 317.3191 287.1685 336.8645 285.7503 366.4294 283.2224 377.0036 Z"/>
</g>
</svg>