<?xml version="1.0"?>
<svg xmlns="http://www.w3.org/2000/svg" version="1.2" baseProfile="tiny" width="228" height="400" viewBox="0 0 228 400" stroke-linecap="round" stroke-linejoin="round">
<g id="ne_50m_admin_0_countries-tunisia">
<path d="M 225.3818 233.7472 225.2615 235.2229 223.2884 245.8484 222.8402 249.6745 222.545 256.1487 222.545 263.9348 227.0161 270.5183 227.1363 273.407 225.4036 276.7466 217.1776 280.5781 206.5576 285.5301 197.4297 290.2334 187.4218 295.3849 184.3555 298.7136 179.3981 301.2771 175.2495 303.8433 174.5007 306.2947 171.5984 310.9515 167.7996 314.6737 158.3001 316.42 156.5401 317.5323 152.1401 323.1211 150.1178 325.3211 147.6035 329.9124 150.8338 341.8223 154.7911 354.0712 155.5563 359.1817 155.5016 363.4286 153.2825 368.0035 148.2212 374.5652 144.5154 379.3723 137.3934 388.0329 135.2946 390.1618 130.3917 392.6843 120.9086 396.0375 114.2349 399 110.8351 385.7919 107.9273 374.5187 105.5333 365.2214 101.3137 348.8541 97.7391 334.9546 94.1699 321.0933 90.9287 308.511 87.6656 295.8495 86.2609 294.0021 76.4717 288.028 67.4531 282.5239 58.0629 276.2629 47.891 269.4743 46.2568 260.9286 41.0369 248.032 35.5274 240.8336 33.4614 238.9451 22.3603 234.2965 15.9489 230.8831 14.1944 228.9018 12.9537 223.6519 8.3843 213.2231 3.1699 203.7482 1.2569 197.3368 1 189.2747 2.0221 183.4537 4.2959 180.964 15.1564 173.7164 20.1795 164.9957 26.3995 161.7271 31.7834 159.2648 36.1396 156.398 40.0203 151.7876 42.9773 146.8738 43.4856 141.5638 44.7264 133.1383 46.6995 127.2544 51.2962 120.5806 49.3723 115.2214 46.94 109.4277 47.6451 99.4034 47.0329 95.3341 45.0652 91.7322 43.0593 87.1136 42.9828 83.2657 44.9177 73.1676 46.3989 65.4554 48.7492 55.4256 47.9238 52.6162 46.1748 50.5201 40.9167 48.3092 40.8511 46.9755 42.1465 45.5025 49.9189 40.6188 54.0947 33.4422 57.5928 31.9446 62.8837 29.3456 62.6815 26.5499 61.5009 23.5655 75.3239 20.1849 88.4964 11.3276 93.1478 9.1577 123.7071 1 127.6752 1.5657 132.1299 2.7573 130.8454 5.799 129.08 8.2176 131.6707 12.4754 135.3711 9.8846 134.42 8.1383 134.2069 5.8263 140.5035 5.6241 146.0622 5.9875 152.162 8.5291 151.7357 18.1544 159.8688 27.5856 157.5841 32.2807 164.2469 35.0601 170.1718 31.7287 173.1452 26.7985 184.0549 23.9536 194.4181 16.7333 200.1571 15.9927 201.4525 21.9149 204.2292 27.0992 200.3047 28.9247 195.3035 34.4343 185.8422 48.4212 177.1243 52.5342 170.5927 57.9235 168.4829 61.755 167.8434 66.2179 169.4776 74.2061 174.2383 82.331 179.7315 87.242 185.0333 88.7779 197.3805 96.5148 197.1783 101.117 198.9055 106.5882 199.5614 113.2346 203.863 118.5419 194.6695 130.1075 189.6519 138.4647 179.8408 149.9866 171.1064 157.472 152.3861 168.5922 147.7948 172.2843 144.7996 176.1158 143.4113 180.1059 143.9141 184.8092 150.0686 196.3529 158.2564 203.1688 166.5972 206.85 181.087 205.366 180.5896 209.807 181.6226 215.1389 187.5202 214.8875 191.4556 214.0594 194.7897 208.8751 201.8734 212.4251 205.5519 223.2638 211.5479 226.6444 212.2475 227.9042 210.1322 228.7296 208.4815 229.9812 210.2525 230.8558 216.0626 232.2058 219.5607 231.3422 225.3818 233.7472 Z M 212.7011 145.7698 204.0597 149.8062 205.7049 146.2863 211.4057 142.0476 212.8706 143.0615 212.7011 145.7698 Z M 194.7679 203.5159 193.2976 203.7755 190.592 205.3005 189.16 205.4699 185.0934 203.7618 183.5411 203.7728 181.5844 202.573 182.2457 196.0414 182.8798 194.1912 192.7729 193.9425 198.1403 197.8478 199.0203 198.8727 199.2444 199.9904 196.752 202.1795 194.7679 203.5159 Z"/>
</g>
</svg>