<?xml version="1.0"?>
<svg xmlns="http://www.w3.org/2000/svg" version="1.2" baseProfile="tiny" width="500" height="270" viewBox="0 0 500 270" stroke-linecap="round" stroke-linejoin="round">
<g id="ne_50m_admin_0_countries-Turkmenistan">
<path d="M 22.6923 141.0553 22.362 142.7084 20.4491 137.7387 19.4857 132.2597 20.7105 130.7149 22.0799 130.8026 20.7759 132.7809 22.6923 141.0553 Z M 123.729 52.3045 133.0493 52.7053 141.4303 53.0649 151.7793 53.5104 154.8516 53.9284 158.5502 54.3155 160.3874 54.374 162.0182 52.8309 163.095 51.9846 163.9414 51.3154 163.7659 50.5585 162.4551 49.9168 160.3943 47.782 159.2211 40.0753 158.4882 33.4799 160.9413 31.4259 163.7556 29.9362 167.8154 25.4498 169.9932 24.065 173.2032 22.9193 183.9272 22.62 188.4411 21.7375 189.9102 20.2856 192.2876 16.6164 193.072 13.6283 194.4035 12.2624 196.0033 11.2458 197.6444 11.2853 200.82 12.1644 203.2318 12.6529 204.952 13.3169 206.514 14.3714 208.0381 16.2087 208.2721 17.418 208.9739 18.1216 210.185 18.1353 211.0864 18.1457 211.6988 17.879 212.1013 17.2632 211.7882 16.4426 209.7171 14.0979 205.155 9.8489 202.1755 8.1201 200.6927 7.1826 200.3245 6.2983 202.2581 4.9514 204.1332 4.1842 207.4257 4.7605 211.7951 5.0735 213.739 4.4009 215.7379 1 220.7025 4.6039 225.8805 8.6448 227.7796 9.3913 231.4781 9.8197 234.5539 9.9728 235.8372 10.408 237.2306 11.4556 239.9589 15.8784 242.6976 17.0361 246.1071 17.8739 257.0822 17.8016 260.4539 18.027 263.2097 20.1102 264.9231 20.9669 265.6594 21.7031 265.4736 22.6217 264.7992 23.7846 264.7132 26.0278 264.5343 27.7635 263.6604 28.5875 263.3955 29.3582 264.1284 30.0325 269.2134 31.6874 270.9268 33.4627 272.2135 34.2592 272.5197 35.3619 271.6596 36.0964 269.2719 35.73 268.109 36.8929 268.109 38.9761 269.8155 40.9337 270.3075 42.7245 269.1824 44.4482 267.8682 46.8789 267.82 48.6008 268.6044 49.5848 272.4922 51.3618 281.4753 55.8482 283.5396 56.0409 292.041 54.9984 295.9976 54.8952 298.3233 55.5885 304.9016 56.2267 306.9934 56.9423 309.2159 56.9905 312.2642 56.7823 314.3285 54.7731 315.3813 54.3155 316.3068 53.9818 318.1853 53.9302 323.3838 55.2066 328.8577 57.8988 332.4839 60.3553 334.2695 62.5778 336.5265 67.3979 339.2548 74.8139 342.5473 79.8198 346.4076 82.4174 349.1187 87.1876 351.4651 97.6106 352.9307 99.7454 354.4205 100.8567 358.8312 103.8722 367.8556 108.8644 373.1849 111.8112 381.4214 116.5195 388.9664 120.8321 396.532 127.4895 398.0424 128.4614 404.6963 132.0619 412.1036 135.7518 417.2885 134.9175 425.0984 140.5926 428.2774 142.6981 429.6192 143.4172 435.2822 145.6569 444.2997 150.3429 455.6774 157.0587 463.1914 160.943 465.2351 161.3954 467.265 161.3731 469.4393 160.5388 471.7961 159.8799 475.8146 160.7435 480.1702 162.2969 482.9295 163.4752 486.1188 165.1886 488.6441 166.8056 490.5605 167.5539 497.0699 168.968 498.188 169.816 498.8968 170.7622 499 171.7427 495.3462 176.8966 494.8439 183.4696 494.8198 188.4187 495.2292 192.3013 493.4539 192.4338 489.1705 191.6081 480.6484 189.967 473.3305 186.6779 468.5517 184.5276 467.8051 184.82 465.6617 186.2891 464.1892 188.0971 463.0194 191.5995 461.1512 195.7298 452.2954 195.8846 444.7573 196.196 439.8925 197.7597 435.1274 199.9254 433.9335 202.4903 432.9014 205.819 430.1249 213.3795 427.5962 220.2725 426.3025 224.7451 424.3724 227.8071 418.9812 231.8446 412.864 234.5625 409.6162 235.839 408.1781 237.4267 407.8615 238.9251 406.709 239.3827 404.1871 239.1143 401.5242 239.3741 395.6788 240.9429 389.3517 242.8696 381.7654 244.798 377.4408 244.7963 375.7171 245.228 374.9636 246.1965 375.7171 248.0269 376.4499 249.3824 377.1173 251.1491 375.3421 252.5786 374.1035 255.0265 373.1333 259.334 370.4428 260.6242 366.1353 262.7212 361.3668 265.4805 360.1489 266.0447 357.4171 266.8257 354.6888 266.5883 352.2151 266.184 349.5281 266.8928 346.7516 269.0224 345.4614 268.3774 344.8146 266.2236 343.4144 264.8251 339.0656 261.6632 335.3395 259.408 333.7259 259.2601 330.3061 259.8381 326.033 260.263 322.5547 259.8088 319.7989 258.9091 315.5361 255.811 313.9844 254.1441 312.8216 252.8625 309.9075 253.2117 309.0921 251.8131 308.9751 250.1823 309.7905 248.2006 309.56 244.4729 307.9292 241.7927 306.0644 240.6281 306.2949 239.8127 307.1103 237.948 308.1597 236.3172 308.1459 233.0969 306.8454 229.6031 306.3259 224.5645 306.6631 219.648 304.8912 217.1709 290.3861 217.1571 277.4706 217.3446 276.7446 216.7838 271.7284 210.5875 267.6583 205.8861 263.6364 203.1131 254.4262 199.7001 250.0224 198.2757 246.2447 195.6713 243.1586 192.8208 242.3604 188.9107 241.7342 187.6274 240.8466 186.5884 239.8729 186.1274 238.6997 186.2323 228.0033 181.6909 223.713 180.4987 219.6738 181.4586 217.8917 181.6238 214.3789 180.3336 210.3364 182.0831 208.6092 182.1949 206.194 181.7769 204.202 181.1215 198.8176 176.9912 194.3003 175.3208 191.0456 174.2508 184.7873 172.6854 178.1093 171.8683 174.686 171.1905 172.2158 170.2874 171.5827 169.7025 171.6171 168.1887 171.4313 166.2018 170.6091 164.7551 168.9198 163.0211 166.5734 161.724 162.5377 161.9511 156.4652 161.8427 151.8137 160.5388 148.1255 160.3065 143.6907 160.5542 140.0472 160.5611 137.4497 161.509 135.9427 162.6151 134.9863 166.0074 134.109 166.5149 132.5848 166.7626 130.5549 166.5871 126.2956 166.6164 118.933 166.0143 109.6712 165.8337 102.7111 167.547 97.2097 170.0053 91.9561 172.7835 85.7736 177.1718 83.9604 179.1191 80.317 186.8963 78.7034 188.0145 76.5978 188.9107 74.4578 189.069 70.2226 190.2198 64.6249 192.1207 60.8128 192.8656 51.0384 192.4751 50.4639 190.0082 48.7023 180.989 47.8457 171.8872 47.9041 167.695 48.9225 159.2847 48.8434 155.0478 48.4271 151.2064 48.8331 147.4426 49.6141 143.209 50.0235 138.9067 49.4352 135.9049 47.5429 133.4828 44.3432 130.4861 43.8375 128.7126 43.6551 126.7343 40.5897 126.5089 37.8373 124.4618 35.5666 123.3471 30.6811 122.1103 28.2314 122.0466 25.9951 122.9566 24.3506 124.7818 23.2015 121.9038 23.229 118.8951 27.1339 112.6782 29.5767 114.4913 32.5596 115.219 36.3544 115.3291 40.0805 114.8474 39.3511 112.7177 37.6205 111.5084 35.4702 110.5554 34.703 107.7462 34.9782 104.8339 36.0001 102.0798 34.8372 100.9702 33.0722 100.2838 28.9987 100.3664 23.7141 99.6387 18.3917 99.3239 17.1462 102.57 20.0844 106.8345 17.5935 104.7392 15.2471 101.9697 11.9511 96.9844 9.8283 91.1442 9.4498 84.8395 11.2492 79.6254 13.544 74.7313 14.9305 68.4662 16.84 62.3146 18.7495 65.0704 20.9307 67.5407 23.948 69.8235 25.596 70.3688 30.5607 71.3115 33.7569 70.9571 37.1629 69.6084 40.5071 70.0506 43.2732 72.5896 45.7401 75.4349 49.4833 76.0336 57.1935 73.9761 60.861 73.5065 64.0435 74.4475 65.6846 74.6212 67.3566 74.463 65.9082 71.9377 65.3164 69.4846 67.2534 68.1875 73.3362 69.5654 77.2102 68.6468 78.1976 68.129 79.0784 67.4925 79.5429 65.3732 79.3571 63.1988 78.8548 61.15 77.7194 59.3524 74.9257 56.8374 64.0882 50.8423 60.4413 48.4512 57.4033 45.3582 55.4663 40.9905 53.894 36.4387 52.4353 33.0602 48.6542 25.2141 47.1816 24.2818 45.3375 23.8672 40.8477 23.6212 36.3028 24.1923 28.8714 25.5427 24.6155 25.1212 22.6475 25.9573 17.7758 29.2636 15.4948 32.0986 12.3089 38.5787 14.7275 40.6671 14.6828 42.0364 12.849 51.6113 13.9638 56.2559 13.5612 56.6 12.6873 55.5231 9.9281 50.7821 5.0701 45.0038 1 36.1635 8.1528 30.3852 14.27 26.291 19.2724 23.8207 20.8 23.2204 27.6431 21.1733 36.4748 19.3275 42.9774 17.9668 51.4685 16.8073 54.245 16.5923 58.3254 16.6164 61.6351 17.7087 63.6409 18.562 70.7214 22.0781 77.9465 25.67 84.1428 29.6524 85.9009 31.2763 86.8848 33.2167 87.6142 35.1193 92.8816 41.1539 95.0113 43.9183 98.0871 47.5171 100.5573 49.2683 102.976 51.4341 104.5965 53.218 106.4509 54.0643 108.5014 54.3998 113.2011 53.8338 118.8538 52.7071 122.2324 52.2374 123.729 52.3045 Z"/>
</g>
</svg>