<?xml version="1.0"?>
<svg xmlns="http://www.w3.org/2000/svg" version="1.2" baseProfile="tiny" width="800" height="264" viewBox="0 0 500 165" stroke-linecap="round" stroke-linejoin="round">
<g id="ne_50m_admin_0_countries-Turkey">
<path d="M 8.8302 51.8952 2.8541 52.6977 1 51.9066 2.8718 50.3357 6.3539 49.363 7.4867 49.2512 9.0131 50.8157 8.8302 51.8952 Z M 412.9895 15.9747 414.7191 16.4992 417.9751 17.1684 419.9943 17.9761 421.1423 18.1881 423.8014 16.5423 427.7534 16.583 431.2227 16.7747 433.0133 17.0795 435.2077 17.6256 437.8618 17.9938 438.9412 17.2078 440.488 14.8877 441.0874 14.5905 441.514 14.3797 443.4798 14.1994 445.3441 14.3772 446.2228 14.7721 447.1016 16.6274 449.3138 17.2916 453.2251 20.2568 455.615 21.4454 456.1941 21.9445 455.4068 22.5452 455.7141 23.2843 457.083 24.2532 459.0031 24.6164 461.0756 24.4881 462.2033 24.8412 463.011 25.3885 463.2243 26.1568 463.1684 26.647 463.5799 27.7505 465.1977 29.3074 467.128 30.2598 468.1668 31.2796 469.8532 34.787 470.5339 36.7274 470.2799 38.5942 469.109 40.5105 466.5464 42.8954 467.1813 43.8922 467.7553 45.2117 467.5623 46.1666 469.3757 49.2169 470.2011 51.1104 469.5103 51.5485 469.0659 52.1542 472.3295 53.6133 476.2383 54.8388 477.8866 55.0737 482.377 54.5112 485.2698 54.3905 488.1398 55.5512 492.3229 58.364 496.831 62.0341 497.7276 63.1516 498.1212 63.6418 499 64.532 498.0882 64.5155 496.6024 63.718 493.0162 61.4601 491.185 62.4303 489.6053 64.1078 487.8731 70.47 486.4711 71.1482 483.9999 71.1291 480.9725 70.9094 478.8898 71.2282 478.3514 71.632 478.6257 72.319 479.2429 73.3641 479.6797 74.6874 479.8041 75.7706 480.9013 76.751 482.377 77.6818 482.443 78.638 482.217 79.9854 481.8766 81.0128 481.5058 81.5944 482.189 83.1551 483.7916 85.0053 484.8126 85.7127 484.4317 89.2341 485.0336 90.7936 485.4933 92.9486 485.3104 96.5297 485.5111 97.4098 486.0597 97.7107 487.5201 97.8441 488.9525 98.1768 489.4478 98.7635 489.4402 99.1914 487.6521 100.8347 487.4413 102.0017 486.8216 103.6462 486.3137 104.6139 484.7161 106.4464 483.7002 108.3093 483.243 109.8472 483.5453 110.5723 486.4915 110.7907 488.0915 111.8968 492.3432 114.0975 493.0899 114.989 491.9292 116.3465 491.9495 116.9142 492.4981 117.6342 492.7572 118.894 492.653 120.2934 492.6759 122.1398 493.4581 122.4433 496.3459 124.1755 498.4006 125.9114 498.4692 126.4473 497.4685 127.8176 497.6869 129.3973 497.6463 129.7593 496.7574 129.1649 495.1547 128.9491 493.5064 128.8856 492.4676 129.3478 490.6466 130.5885 488.2007 131.9422 486.2146 133.1842 485.0768 134.035 484.1371 133.8979 483.4031 133.155 482.9916 132.1162 483.1669 128.1935 482.7351 126.9655 481.8106 126.1045 480.7236 125.613 479.4283 125.3375 478.0898 125.3095 476.1875 126.46 473.4927 127.6499 469.3148 127.5534 466.5108 127.3299 465.1546 127.1039 459.7168 125.2803 458.5815 125.2321 456.5548 124.4942 454.1445 123.9088 450.091 125.0174 448.336 124.7533 445.8774 123.792 445.0063 124.051 442.2582 126.9807 437.5875 130.1161 435.068 130.6393 433.8692 127.4925 432.7162 126.2708 432.1701 126.1235 431.0043 125.7324 430.0976 125.9572 427.2886 128.1046 422.7881 129.3961 419.0622 130.1834 413.1317 131.1447 408.555 131.6222 406.607 131.6603 402.3807 131.2298 398.6548 130.6241 394.9289 130.6507 392.0691 130.9225 385.4301 133.2324 374.1432 137.987 365.5637 140.2614 360.7508 141.2074 356.9842 141.7446 350.528 141.7713 345.2757 141.4043 341.6387 141.4449 339.617 140.8734 336.7344 138.9483 333.2421 137.046 331.6878 136.604 329.6559 136.237 326.6869 136.0237 319.2732 138.8048 316.9671 139.5604 314.4272 140.1293 309.3095 141.8297 307.0415 142.7402 304.1995 142.6551 300.5675 142.4126 297.4156 142.4976 295.3127 141.2036 294.1799 139.747 289.8826 138.8556 286.8145 138.599 286.0297 139.2454 285.2093 141.2303 283.9039 146.3023 283.6651 147.5747 286.3675 152.6175 286.2456 153.3858 284.3128 153.6474 282.093 153.7312 280.6478 154.1795 279.449 155.0176 278.7252 159.3797 276.1575 160.181 274.9384 161.0954 273.6811 163.7914 272.9979 163.8549 268.8428 161.8103 266.8948 161.6414 268.566 159.5194 266.75 155.3338 264.769 151.4124 266.6383 148.903 270.5115 145.8769 274.5879 142.3326 274.5802 140.1458 274.3694 138.4771 273.2011 137.3228 270.9585 135.7888 267.2046 137.4269 264.5251 139.2353 262.7752 139.6023 260.8729 140.6334 259.9484 142.4938 257.655 143.9441 253.9037 144.5117 248.2602 142.9599 242.2003 140.5979 238.769 138.6841 235.9701 138.2282 233.3109 139.0689 225.4629 143.7574 218.2804 150.6085 216.4974 151.7933 209.7314 154.7382 205.2588 155.7262 203.1533 155.4964 194.2513 156.7929 189.8295 156.9822 186.3271 158.5378 179.5382 156.8514 175.4796 154.6951 173.0363 152.5045 169.0513 147.7906 166.2271 145.5492 159.8801 143.5339 148.8167 138.6371 145.9061 138.1 138.3552 137.399 130.3904 136.9571 128.7776 138.7387 128.1655 145.7956 126.8017 147.7385 126.2175 151.3984 125.2422 152.4524 123.7132 153.1445 121.3233 151.9889 119.6648 151.4784 115.8043 152.9858 108.1595 155.1002 105.5536 155.3961 96.6923 152.7394 93.4489 151.0327 91.3587 149.1405 90.6526 145.9442 89.337 144.1244 89.144 142.8748 88.6284 141.436 86.8429 140.8671 84.9253 141.9529 82.8706 141.9084 80.2902 141.243 74.2023 138.566 69.524 138.354 66.7124 141.6214 64.5256 142.6602 62.1306 142.9701 61.9934 142.0405 63.8094 139.9274 56.5227 140.3172 52.6749 141.9262 49.6728 141.676 47.4226 140.9496 47.7604 140.0607 50.0436 139.7343 52.0247 139.0118 59.9209 138.4238 61.7648 137.8333 63.784 135.5373 67.4616 133.5575 67.929 132.708 65.1022 132.6965 53 133.2705 44.6923 132.9543 43.7068 133.9347 42.4572 134.0731 42.1118 131.405 43.4249 130.1644 45.1926 130.2799 49.5331 129.2018 49.1446 126.9845 46.0358 125.486 45.4034 124.6022 43.1481 124.3952 41.3194 123.3424 40.9207 120.6833 39.4654 117.765 37.3853 116.3529 37.6418 115.5782 41.454 114.5966 42.2439 110.5164 41.6623 108.0109 39.7447 107.7976 34.1572 105.8203 32.4606 106.0311 30.6091 103.8583 27.3683 102.2976 25.7631 102.8691 24.7573 103.5739 23.2563 103.2361 20.7394 101.8811 18.2681 101.1496 17.1709 100.2467 18.5475 97.8314 20.4397 97.8885 20.7851 95.9963 19.2917 92.8419 19.4364 91.2228 21.0873 90.7796 22.9668 91.0844 24.864 92.9689 25.4837 94.7925 25.085 96.5691 26.2888 98.2898 27.1448 98.7241 27.7213 96.9132 28.5264 96.5691 29.6338 97.3602 32.0136 97.7564 38.1828 96.644 39.3688 95.7017 34.848 95.8084 33.1946 94.9271 31.3989 92.9549 30.2941 91.1644 30.096 90.2856 29.4712 89.0005 30.1595 88.3122 33.2555 87.2797 35.9731 84.3907 34.8404 83.5538 33.5451 83.1589 32.138 83.4522 30.8046 82.463 30.6319 81.0864 31.6986 79.9727 31.8104 78.4412 28.3181 74.6696 27.3429 73.848 28.0946 72.6149 30.7614 70.55 33.3012 67.9937 32.9965 67.153 31.1196 66.8089 22.1998 67.9061 18.7329 68.8585 12.551 69.2928 12.1066 67.9036 12.2463 66.6514 13.633 64.3707 13.506 58.7476 14.3264 55.6985 17.7602 54.7905 21.9737 50.3103 28.8058 45.0313 35.9325 45.1329 38.7821 43.6764 43.0185 43.5913 43.7881 44.6504 44.2681 45.6638 47.9864 47.1203 54.5518 46.8892 56.1468 46.3152 57.6859 45.5126 54.6509 42.9182 55.6211 42.1868 58.3717 42.1004 61.3534 42.7112 61.4905 43.3055 60.6981 44.1195 59.7762 45.5469 60.6524 45.8212 69.143 44.959 78.0171 45.6498 80.8413 45.2752 87.8182 45.3044 89.0678 44.4091 86.9572 43.2852 84.8923 42.8941 83.503 42.3468 82.1163 41.5518 86.5407 39.0412 89.0398 38.5586 100.8347 37.017 109.6072 36.2449 109.7189 35.6722 108.4541 35.6709 97.1189 34.3934 94.3887 33.4041 90.5942 31.0497 89.7713 30.3843 88.8163 29.2363 89.3852 26.7892 90.0862 24.8234 91.4857 23.6843 96.0141 23.5103 111.5425 25.5104 122.611 24.3116 134.7081 27.226 146.2769 26.6343 148.6643 25.3263 151.5597 21.1102 167.9033 14.1092 173.6255 10.4582 179.7566 8.4607 190.2765 6.2409 199.0693 3.3061 201.5811 2.9683 222.6895 4.3703 237.1892 4.5481 243.8461 1.7797 247.7066 2.7093 247.3459 3.6985 246.6449 4.5443 246.8532 6.2574 249.1187 8.7731 251.4223 10.4862 258.1909 12.9434 267.6009 10.871 269.1171 11.1021 271.0321 11.6812 274.3466 18.3393 276.927 20.6911 280.2288 22.2912 282.9413 22.6061 284.9553 20.9375 286.5148 20.2644 289.913 19.98 295.4854 22.2709 297.4156 24.6367 306.9018 26.4654 315.6057 27.381 319.3621 29.3836 331.6116 31.3964 336.1858 31.084 343.8636 28.9734 358.7977 26.6647 368.7207 29.8877 371.4052 30.3055 373.7215 30.0274 377.0563 30.9151 380.6146 30.4389 391.5967 26.6393 395.0305 24.4856 398.6701 23.9294 401.8982 22.6404 410.5005 18.4154 412.9895 15.9747 Z M 62.0011 4.2306 61.295 7.1997 62.9332 10.4697 66.7708 15.0121 70.6338 17.3043 86.2486 22.9731 89.1211 23.4582 88.4684 25.7796 87.5286 27.8432 86.4949 29.2198 81.9207 30.1049 69.2954 27.574 66.1028 27.334 63.85 27.8381 59.6797 29.6782 55.0547 29.0877 48.6061 30.1316 46.8054 33.5959 42.3277 37.5643 34.9572 40.7721 29.6896 42.4877 21.7807 48.6404 18.1919 52.2317 16.6782 52.9289 14.8826 53.48 15.4871 51.7555 16.376 50.177 16.1728 48.9871 16.2109 47.2562 18.8498 45.2917 21.2473 43.8668 28.3435 41.2864 30.2103 39.1441 24.6456 39.1949 18.9971 39.6711 15.4413 39.3663 12.3529 39.5415 11.3726 37.6672 10.6233 36.5395 11.4234 36.1877 12.4494 35.9439 14.2629 33.9451 15.8833 32.4707 18.2199 30.6167 18.8193 29.5093 18.8193 28.4769 18.2605 27.7607 18.1513 26.9098 18.0802 25.7072 18.2097 23.2233 23.5611 20.5095 25.2755 20.2225 25.8622 18.9844 25.4685 16.1131 24.7294 13.7955 23.7719 13.6406 22.4842 12.9638 21.6385 12.1802 20.2873 11.323 17.9557 10.7973 17.8795 10.0658 18.1208 9.3344 18.9818 8.5864 22.9109 7.9413 23.3757 7.413 23.9065 6.1114 24.6862 4.7792 25.6133 4.3386 27.2743 4.3792 30.4262 4.0719 32.6231 3.6376 34.8048 2.7271 35.9223 1.9004 40.6464 1.4203 41.9721 1 43.2878 1.3568 45.0555 2.7741 47.9661 4.8072 49.5281 5.4853 50.6989 5.1704 52.812 4.4313 54.8337 4.4262 56.4668 4.5557 57.2542 3.9119 58.4834 3.7735 62.0011 4.2306 Z"/>
</g>
</svg>