<?xml version="1.0"?>
<svg xmlns="http://www.w3.org/2000/svg" version="1.2" baseProfile="tiny" width="500" height="143" viewBox="0 0 500 143" stroke-linecap="round" stroke-linejoin="round">
<g id="ne_50m_admin_0_countries-Turks and Caicos Islands">
<path d="M 481.6968 132.7728 478.9049 142.3206 439.0939 115.125 362.4016 114.8493 350.2342 77.5544 379.5324 71.4535 476.8023 84.6204 499 117.0208 481.6968 132.7728 Z M 327.4506 79.6914 315.0764 87.1366 274.1279 62.7674 268.2683 43.2583 253.6192 42.2932 229.25 24.7488 235.1786 2.0341 291.0174 1 313.5598 64.1117 327.4506 79.6914 Z M 7.7558 71.9705 88.343 110.8509 136.9435 105.0602 140.804 113.3671 114.539 122.3289 108.0934 129.5673 30.2982 139.8389 5.8945 137.8742 1 111.5403 7.7558 71.9705 Z"/>
</g>
</svg>