<?xml version="1.0"?>
<svg xmlns="http://www.w3.org/2000/svg" version="1.2" baseProfile="tiny" width="500" height="181" viewBox="0 0 500 181" stroke-linecap="round" stroke-linejoin="round">
<g id="ne_50m_admin_0_countries-Turkish Republic of Northern Cyprus">
<path d="M 349.9905 162.2379 339.5165 164.52 322.658 156.7767 312.6853 154.5737 303.3986 161.7103 292.6608 166.8417 283.1103 169.1238 274.6942 169.7834 261.0807 175.0335 244.6179 173.7144 220.636 169.414 207.1545 179.7692 203.9358 178.5292 201.7988 152.4631 193.2244 141.7913 182.302 135.908 166.5779 138.3616 145.7092 137.4646 130.2225 133.085 99.5658 140.3667 74.8188 148.4134 56.8786 156.1303 43.3442 155.7082 20.2858 148.5849 3.0315 140.5909 1 133.6523 17.1198 136.7522 46.1672 131.0799 58.7254 104.7368 62.8411 74.3835 111.9657 83.0898 161.7762 87.6012 202.5639 89.1182 242.7711 84.1847 365.9256 51.8131 400.7772 32.435 422.3582 25.8789 459.8481 9.8514 499 1 473.91 19.5207 333.1055 100.9641 323.898 125.1834 330.2034 141.9364 349.9905 162.2379 Z"/>
</g>
</svg>