<?xml version="1.0"?>
<svg xmlns="http://www.w3.org/2000/svg" version="1.2" baseProfile="tiny" width="428.4" height="450" viewBox="0 0 500 525" stroke-linecap="round" stroke-linejoin="round">
<g id="ne_50m_admin_0_countries-Uganda">
<path d="M 400.1596 481.1588 390.1211 481.1588 373.7794 481.1588 357.4288 481.1588 341.087 481.1588 324.7453 481.1588 308.3947 481.1588 292.053 481.1588 275.7112 481.1588 259.3606 481.1588 243.0189 481.1588 226.6772 481.1588 210.3265 481.1588 193.9848 481.1588 177.6431 481.1588 161.2924 481.1588 144.9507 481.1588 128.6 481.1588 118.9476 481.1588 117.0081 480.8805 115.6793 480.5033 109.5017 481.6616 103.1357 485.6932 96.3296 487.3812 89.0836 486.7168 88.1677 487.1568 84.4864 487.04 79.1888 486.7707 74.403 487.8302 70.7486 491.3679 67.0133 497.4107 60.315 504.3425 55.0713 510.4931 50.6177 514.8658 40.4087 522.0669 34.8507 524.177 32.0852 523.8448 30.3971 522.5069 27.2006 513.3035 25.2252 511.822 5.3907 516.5628 2.3828 516.6347 2.6611 513.7704 1.1975 492.1311 1 478.8871 3.5859 470.5906 5.0944 461.028 5.256 452.5878 8.9015 438.2394 7.5546 429.6375 12.2596 399.4682 13.4987 394.5612 15.3214 379.9839 18.2665 375.4899 20.8525 373.7301 24.2375 364.787 30.7473 350.506 35.2547 343.1432 34.276 327.0619 34.9943 316.1255 36.0269 313.7012 45.6344 309.6293 58.0972 299.519 63.3589 287.6308 70.8024 280.0436 85.2137 275.1231 85.2406 275.1007 127.9445 234.3003 147.8239 212.3063 156.4617 201.0377 156.767 197.0017 158.4191 191.6862 154.9532 187.5424 150.8229 183.7802 149.4401 180.3053 145.8755 178.5769 140.7755 178.6487 137.3904 176.1256 133.5564 171.1737 129.7224 168.058 117.6008 168.3184 108.2716 163.2677 108.3883 156.3809 112.0338 142.8002 119.1272 127.2576 119.5043 122.9702 118.5076 119.3068 116.8016 116.1731 113.5961 113.0664 110.6062 109.3491 112.9317 98.1703 117.3942 87.207 121.0487 81.7343 124.6223 75.5927 123.5987 70.56 118.3819 68.0728 121.1026 63.1613 126.7324 54.8917 137.6418 46.5323 147.2313 40.9609 153.6333 40.9294 166.0871 45.374 177.3557 50.6267 183.5333 50.8916 191.0486 48.6962 206.6002 39.394 210.3354 42.3526 214.8968 47.9959 219.8172 57.3295 229.6043 61.5945 234.3093 64.5351 237.6674 65.4061 239.535 64.6429 243.2523 57.3071 247.7418 53.3069 256.0383 48.2608 274.3375 44.2382 287.4108 43.0215 292.9419 42.1461 302.2261 39.7756 316.8618 32.2647 331.282 41.962 346.9324 43.8341 362.1068 43.7668 366.722 40.8217 369.3797 38.559 385.2994 22.6034 406.8579 1 421.1973 31.4387 426.1357 33.221 425.4444 35.8788 424.2322 38.4423 433.6152 45.7826 445.1801 49.6121 449.3015 53.3743 449.6786 57.4507 445.7817 75.247 446.5 80.3201 450.2353 98.1613 457.1042 102.1614 463.2278 120.1104 475.5559 127.7245 477.3248 129.9154 480.1711 138.6205 483.9423 148.1472 486.9053 150.3605 488.7011 150.9172 492.3376 161.032 490.2455 166.7112 493.0918 183.9732 497.6981 199.3991 498.9371 217.8329 499 225.9499 498.8384 230.9152 497.8058 237.9278 495.597 241.9818 491.6552 245.9146 487.3004 252.119 483.4933 258.768 481.1049 262.0363 482.9636 271.994 482.4877 274.5979 481.4731 275.8684 475.8792 277.3813 468.7409 280.0436 464.4041 282.6969 458.2714 287.7431 453.351 293.2068 446.8322 309.2836 435.9587 321.7913 434.118 325.9126 423.8551 333.3831 419.3297 342.582 416.4654 353.8596 412.4788 361.9452 403.832 373.0477 401.8387 390.588 402.1081 425.606 399.8633 465.4905 400.1596 481.1588 Z"/>
</g>
</svg>