<?xml version="1.0"?>
<svg xmlns="http://www.w3.org/2000/svg" version="1.2" baseProfile="tiny" width="800" height="318" viewBox="0 0 600 318" stroke-linecap="round" stroke-linejoin="round">
<g id="ne_50m_admin_0_countries-Ukraine">
<path d="M 446.0366 146.6135 445.0395 146.9242 435.365 146.4919 433.4954 146.6313 427.4688 147.081 421.8371 151.4439 418.4808 151.4318 413.7489 152.5694 410.5521 153.9828 406.7553 157.0472 403.8178 155.6717 400.2237 155.7109 396.716 156.5446 392.495 158.5916 390.1466 158.9538 385.4499 158.3646 379.9777 159.5402 368.163 166.2623 364.1905 171.1738 362.7448 172.1345 360.7504 173.333 358.6183 173.9383 357.4914 173.8829 363.115 170.3915 364.8418 169.0822 365.1391 168.1161 365.1688 166.5582 363.4636 164.6233 358.8615 169.4213 356.2456 170.1172 352.9271 171.5616 352.765 174.7801 353.1406 177.1662 354.5053 180.1699 357.1351 184.1941 355.6063 184.3241 351.5468 182.6066 351.3906 179.7962 348.424 177.4541 343.8961 177.4541 341.8663 177.7664 339.212 175.1121 335.6208 174.0191 332.9665 174.3314 330.1561 173.863 324.0668 171.0525 320.0072 170.7403 319.8511 172.77 318.1857 174.1531 315.5482 174.6341 313.6404 175.2219 309.0356 173.3384 307.3412 171.9534 300.134 173.3911 296.1237 173.1776 287.2654 174.5004 283.2011 173.2087 275.0616 169.5943 272.0025 168.8673 269.4029 169.0214 267.9841 167.8323 269.7245 167.2378 271.7458 167.1675 273.8428 166.7325 274.4347 166.1028 274.3076 164.9178 270.0812 164.0193 266.1492 163.7612 263.6577 162.6965 261.7552 161.4777 266.2141 161.4588 270.6946 162.3803 277.7099 162.7208 284.0712 163.6734 285.6656 162.4884 289.3624 160.4346 290.0678 159.7807 283.8713 161.1859 277.5937 160.2901 275.2994 159.0375 273.3618 157.2026 272.5484 155.111 273.0781 153.1613 272.3998 149.6428 270.3298 146.5121 269.5947 144.7934 267.4085 143.2544 269.5596 146.7364 270.3622 149.0537 271.6566 151.1885 271.3513 156.8473 270.5541 158.8362 267.9733 159.3375 264.5819 159.0389 261.1256 158.4214 261.9903 155.3069 260.15 156.3838 257.5504 159.4159 255.2642 159.8671 250.1865 159.5361 240.7634 161.5413 240.1148 163.7261 238.6988 166.6825 237.3314 168.4039 236.9017 169.4416 232.8833 173.9005 232.3699 174.322 224.7898 180.5036 223.825 180.9685 218.9122 182.4075 216.0071 183.6681 213.7804 184.2302 210.0133 183.6046 208.446 184.4964 207.7055 185.6016 207.692 187.8851 209.6053 189.5268 211.1726 194.9882 210.5889 197.2961 209.0972 195.8017 206.7651 194.2275 202.2278 192.875 197.242 193.3385 191.8157 195.6179 188.1324 196.4651 186.1948 195.88 185.0166 195.9138 184.5977 196.5678 184.6869 197.1028 185.2841 197.5176 185.1976 197.8203 184.4356 198.0095 175.8718 196.4029 172.175 194.8829 169.2646 192.0238 170.713 191.0982 171.9723 190.6915 176.4285 190.4537 177.1933 190.1618 177.2689 189.5025 177.6013 188.6485 177.4824 187.3919 176.9879 186.0651 178.9444 184.1275 181.8575 182.521 183.5654 180.9117 183.8275 178.5553 186.892 177.4068 189.6106 175.434 190.278 173.2843 191.2293 171.9331 189.4998 168.8349 189.135 166.7919 189.0485 165.08 189.9051 164.1288 192.4372 163.0627 195.1044 162.2358 196.2097 162.3168 196.6124 162.8424 196.7178 166.319 197.2501 166.3852 198.1014 165.9515 199.4931 163.9045 200.4524 164.5003 201.9279 164.726 203.0331 164.199 203.752 164.2598 204.6437 164.7881 206.4165 165.5326 208.073 165.7799 209.4458 165.284 210.6159 164.399 211.8644 164.7017 214.2425 167.1162 215.3532 166.8487 220.8227 166.3609 221.7037 165.7042 222.355 165.1084 216.6341 161.9047 216.9232 159.5212 217.1367 156.7878 216.4611 155.1651 215.3478 153.8787 210.9727 152.3843 207.5974 150.8372 206.884 150.14 206.7921 149.2347 206.6489 147.8295 205.3085 146.6229 205.195 145.6014 206.049 144.0098 206.257 142.314 205.976 141.6452 205.1869 141.0993 203.6655 141.0466 201.6658 140.067 200.293 138.7469 196.607 136.8445 195.4774 136.535 194.7883 135.5933 194.4586 134.4678 195.2315 133.0706 196.2043 130.9196 196.888 128.9009 196.8988 127.6984 196.4475 124.7258 194.5261 122.4531 193.629 122.1518 192.0778 122.7909 190.3186 123.326 188.9296 122.8247 187.3433 121.5924 184.7977 118.1631 180.0334 117.4767 178.0634 117.3132 176.1988 118.9671 175.6151 118.4644 175.0908 117.4078 174.1072 116.9862 172.8074 117.4754 172.4317 117.0052 172.9911 115.577 171.4373 114.8703 167.7783 114.8865 165.8326 114.3596 165.6002 113.2867 164.449 112.5814 162.3709 112.2423 160.3576 111.3654 158.4038 109.9534 155.4826 109.0332 151.5885 108.6076 151.2696 108.4549 150.9102 108.2522 148.397 109.2116 146.8864 109.9709 145.0353 109.498 142.0357 111.1938 135.9473 111.2816 132.9612 111.1802 131.4803 110.7587 125.7621 113.3327 125.1676 114.2812 123.8813 114.596 120.2818 115.1081 116.4985 115.8337 115.704 118.3388 114.5771 119.6913 112.5422 121.6789 105.5134 122.3693 99.4412 123.3408 93.215 123.9407 85.062 126.3675 82.411 128.5091 79.7897 129.1063 77.4171 129.2819 75.8821 128.0902 70.7098 124.8893 68.7155 123.38 66.0915 122.9355 63.2378 123.1868 60.4977 123.9299 57.6142 124.0718 54.3498 123.0003 54.0066 123.1044 52.7473 123.2489 44.643 121.9532 43.8971 121.7383 43.5377 121.6843 42.4216 121.587 36.3197 121.7491 30.6313 119.1333 28.8829 119.0535 27.5371 120.1129 26.5399 121.2911 22.6134 122.4612 21.6108 122.9314 21.0406 122.5707 20.7758 121.5532 21.0731 120.6547 20.4921 119.8034 18.9977 118.8374 18.6355 118.4388 16.7655 118.5104 16.2548 118.605 16.0683 118.5833 13.4686 117.7632 11.7445 115.7891 9.08 114.7392 7.0425 114.3866 6.1155 113.5407 5.5183 112.4152 4.8833 111.5653 4.8076 111.4856 4.3725 110.1993 3.7483 110.0669 3.6375 110.0317 1 110.256 1.3054 105.7404 5.521 102.4935 6.556 100.8546 8.1288 97.301 9.307 95.639 10.7231 94.2635 11.8553 92.9313 12.258 91.7882 13.4011 91.6639 16.7574 92.6948 19.7597 93.2258 20.5893 92.7232 20.9298 92.0638 20.792 91.5517 18.3869 90.0303 16.879 89.0629 16.7871 88.467 17.3303 87.132 17.6195 85.6322 17.2736 84.0095 15.6332 80.4153 15.3225 78.8845 16.8925 77.0252 22 72.5961 23.7024 70.9328 26.0292 68.9209 32.3419 64.112 36.3305 61.3151 39.0302 59.768 42.9837 57.0778 44.7186 55.6861 51.9393 54.7808 52.8338 53.481 54.1525 52.0582 55.1848 51.4488 55.3172 49.0532 53.9769 46.1266 52.8986 45.0929 52.0987 44.3889 52.6149 43.7309 53.4148 43.5431 54.4012 43.4499 55.6226 42.7459 55.347 41.9771 52.3014 40.1044 50.9827 38.6627 48.9181 34.9631 44.7321 31.119 43.4107 29.876 43.2215 28.7018 43.8323 27.5276 43.2567 26.0319 41.7731 24.124 42.0082 23.9173 41.8649 21.5622 42.9189 21.0541 44.5835 20.7096 46.9319 20.8258 48.9397 21.1893 51.3448 22.2661 52.096 22.0932 56.2063 20.0637 60.4463 17.0182 61.6543 15.2549 62.7109 14.4496 66.3996 14.0199 69.6127 13.8416 71.6557 13.8754 76.6712 13.5754 79.6438 13.243 82.2137 12.7066 87.7617 12.5066 96.4254 12.866 102.1112 12.8917 105.9728 13.1768 115.431 14.7955 118.9522 15.0887 120.5871 15.9467 123.7273 16.2656 129.4427 17.129 134.4069 17.5911 137.7633 17.4019 139.6414 17.6451 143.1869 21.4771 143.9111 21.9243 145.3326 22.0148 148.2295 21.6838 152.3533 21.8081 154.7989 22.6161 154.4395 24.8982 155.0826 25.2293 156.2257 25.1023 157.5418 23.8132 158.647 22.4769 159.4713 22.0635 163.6815 22.9661 165.6056 22.8201 167.381 21.8067 168.4701 21.6352 171.4535 22.3553 175.1341 22.8593 178.1067 22.8917 179.9605 23.4403 181.3089 25.8224 182.4845 26.3116 183.6195 26.4629 185.3354 24.3334 186.892 23.5079 189.0512 22.8999 190.4402 22.6337 191.4184 21.8824 192.7372 21.1487 193.8803 21.0906 194.8099 21.3744 195.8773 22.3891 197.4339 24.7023 199.3255 27.0263 200.6443 27.8695 204.0519 27.1561 206.3624 26.4305 210.5943 26.2927 216.2044 25.7819 220.493 25.1171 223.1765 25.232 224.8033 25.9697 227.2786 27.3979 227.9542 29.4476 231.1673 30.865 233.7967 31.1218 234.6939 29.6463 236.2315 28.6207 235.6559 27.2115 235.3965 25.4157 234.2453 23.7484 233.4778 21.954 234.8858 19.3908 236.4234 17.1465 237.1936 15.9278 239.6284 13.6848 242.1308 12.0823 245.8654 9.5056 248.5948 8.6544 251.062 9.0422 252.4321 9.3935 255.9749 7.868 262.2768 7.7924 267.5247 7.9869 268.0517 8.0329 270.6297 8.822 273.3483 9.4935 275.2237 9.5381 277.4559 9.384 280.0718 8.4882 281.8985 7.6289 284.1172 3.2538 284.9009 2.6255 286.1223 2.2823 288.1275 2.2458 291.9324 3.0605 296.3886 3.7929 298.9693 3.6902 305.8522 1.3635 309.6895 1 314.2484 1.5472 318.7181 1.5797 322.0906 1.2432 324.4038 2.0499 327.2602 3.8253 329.841 6.4682 332.546 11.3473 340.4261 16.8601 340.5612 17.937 339.9126 18.6288 336.0347 19.3003 332.7676 19.6624 332.6109 20.6083 333.4783 21.6324 334.9754 23.1309 335.2078 25.0604 335.1322 26.8358 335.778 28.4045 337.0265 29.0423 337.1832 29.8314 335.7375 30.7948 335.3348 31.3893 335.8969 31.7095 343.0041 31.896 346.4847 32.835 349.1276 33.6903 350.4572 33.7701 353.4514 33.2201 356.8185 32.8729 358.8615 32.8269 359.6506 33.4566 360.2802 35.1118 361.4639 36.7683 362.5691 37.2412 364.5364 37.1615 365.7201 37.2412 366.3524 37.8709 365.6417 38.818 365.7984 39.8422 366.6659 41.1042 367.6928 44.0201 368.6386 44.8875 369.2682 45.9914 369.2682 47.2534 368.4792 48.356 367.9279 49.2221 368.4792 51.1935 370.6059 53.4013 372.1841 53.9526 373.4461 55.9239 375.7323 56.5536 379.121 54.8997 381.7234 54.0323 384.977 54.5147 387.982 54.8227 390.0034 55.9496 391.4951 57.5007 393.23 58.3669 394.9676 57.9142 398.5915 58.3669 400.248 59.6289 401.9018 60.3382 404.0313 59.314 405.7662 58.052 412.114 56.7319 416.0649 56.4009 417.1674 56.1415 419.486 55.1983 421.929 54.5714 424.1341 54.7416 426.3068 56.6995 428.547 58.052 429.1767 60.1801 431.9195 63.1095 438.7295 67.1184 441.4021 68.3412 443.2181 68.125 444.1666 67.8048 444.6071 67.3859 445.0178 65.4254 445.8799 64.7039 447.2608 64.6795 452.5898 67.1225 455.3787 67.3846 458.0297 67.4319 461.5968 69.3289 465.5179 70.9787 468.5445 71.153 470.9577 70.5072 472.6142 70.114 473.6384 70.7436 474.5843 72.1624 476.1597 73.2663 477.973 73.5811 480.5835 73.6541 485.1153 75.7943 489.3769 77.9711 492.0414 78.0913 494.3006 77.4522 496.2976 77.2874 497.6813 77.8373 498.0758 78.7831 497.0489 80.0451 497.0489 81.8584 498.9405 83.5933 499 85.2985 498.4595 86.8388 497.3867 88.2576 494.7951 90.2073 492.3982 92.0273 488.7932 92.788 486.7746 93.5812 487.3042 94.9188 488.623 96.1673 491.6793 97.1767 495.1492 97.9117 495.5491 98.7238 495.0194 99.1305 492.7954 99.5074 489.7174 99.121 488.6932 99.8304 487.2745 101.0126 486.3287 103.1408 485.618 105.1121 488.9581 105.6472 490.9011 106.4525 491.5064 108.0725 492.2009 109.875 492.4009 111.4978 491.2956 112.2869 491.228 113.0935 491.7496 113.4908 493.1845 113.6705 494.2844 114.0312 494.3709 114.8879 492.2684 116.8133 490.3011 120.4952 489.2445 122.4558 489.3256 124.5839 488.142 125.7662 485.999 125.8662 478.5973 126.0729 472.163 125.9716 469.3768 125.6648 465.0179 125.4811 462.8588 125.9824 459.9997 129.3833 457.8324 130.7169 454.2437 131.9208 450.3117 132.2653 448.058 133.6706 447.2662 135.8743 447.204 137.8281 446.8365 138.8037 445.9826 139.659 445.6772 140.267 445.861 140.9385 446.7744 141.1831 447.8742 141.4885 447.8742 141.9762 447.4473 142.587 446.2258 143.2571 445.6772 144.2948 445.8015 145.392 446.0366 146.6135 Z M 274.4103 171.1738 278.2261 172.5358 274.332 172.1723 265.7763 170.8927 262.0038 169.6834 261.031 168.3323 260.4797 166.4906 262.5848 168.4268 264.0684 169.274 274.4103 171.1738 Z"/>
</g>
</svg>