<?xml version="1.0"?>
<svg xmlns="http://www.w3.org/2000/svg" version="1.2" baseProfile="tiny" width="366" height="400" viewBox="0 0 366 400" stroke-linecap="round" stroke-linejoin="round">
<g id="ne_50m_admin_0_countries-united kingdom">
<path d="M 202.6471 340.035 199.9056 341.5774 191.2032 343.1323 187.4532 344.7179 180.8846 348.3006 179.6208 348.5972 169.7085 347.7361 162.3327 343.0928 157.6175 341.1891 155.6706 340.9734 153.6572 341.5396 149.3518 342.1185 144.9602 342.0196 147.2018 339.875 150.2453 338.6759 143.4286 337.8436 141.5338 337.1911 139.3748 335.6882 134.0286 335.4312 131.4777 335.8141 127.1759 337.8005 120.3772 339.9145 112.187 336.9843 110.5817 335.7008 110.6231 333.2218 109.3953 331.2588 107.123 330.5667 110.0298 328.0086 113.5371 326.3062 121.2526 324.6147 132.9374 320.6005 139.4899 318.8909 145.5804 315.9409 148.0971 314.1433 149.9235 311.6823 151.7355 308.6622 154.3206 306.2102 151.8128 305.626 150.6911 303.7762 150.9931 301.8994 152.1508 300.2348 151.1136 298.1477 149.2692 295.9654 149.3716 294.2666 149.8606 292.4509 145.1597 292.548 140.4732 293.1161 136.2253 294.4032 132.1069 296.1523 128.4487 296.4759 128.508 295.0773 130.0953 293.348 134.2425 290.878 138.6827 288.8304 140.2611 287.2755 141.5051 285.4688 143.709 284.0181 149.5082 281.2785 160.6178 278.1955 162.277 278.0139 166.6327 278.3717 170.9148 277.9061 174.6647 276.7969 178.4038 276.5578 186.8205 279.7559 184.3163 274.8087 188.0285 273.624 193.4107 278.0966 195.4133 278.5676 199.6342 277.9186 198.0055 277.1636 196.1036 277.1187 193.612 276.4446 191.5177 275.01 188.0339 270.4584 188.2226 267.7565 190.5704 264.9467 193.1698 262.3617 190.9892 261.8476 189.2419 260.8589 188.7422 258.272 189.4271 255.9872 194.0992 253.9702 195.478 250.9088 196.064 247.5418 195.2874 245.9976 190.6513 246.2457 188.397 246.8749 186.3746 247.8726 184.3019 247.8132 178.5746 244.0885 175.3082 241.2716 169.4497 235.3087 168.6156 231.7458 173.3075 224.0608 180.5484 219.146 189.0783 217.4346 187.4281 217.1074 174.431 217.0409 170.1472 217.6431 166.1761 219.6511 163.9327 220.2677 161.5759 220.496 159.4277 221.4955 157.3299 222.8833 155.1457 223.7713 150.8062 223.5412 148.7011 223.8343 147.1893 223.0307 145.9237 221.7022 144.2663 221.3481 142.4165 221.7562 138.5048 223.5466 134.5445 224.6037 129.7556 223.4747 123.4781 221.3715 122.2395 222.1391 120.8482 224.0913 120.0482 227.1402 115.59 224.4922 111.7915 220.9526 110.517 218.7289 110.4217 216.2266 112.4836 215.2558 114.7235 216.1439 118.0618 210.2044 124.7023 202.4745 127.0465 200.2076 128.6806 197.2505 128.4001 195.3144 126.935 193.6803 120.7619 189.9682 120.8428 186.9463 121.5043 183.5325 123.1833 181.485 123.8916 181.0949 132.0925 181.1488 128.8945 180.0918 122.52 177.007 122.6332 175.9141 124.1325 173.0612 123.4386 173.3506 122.0724 174.6683 119.464 177.8573 117.8712 178.6016 113.3627 179.3584 112.5466 180.9295 111.8221 181.3394 109.5696 181.5174 108.8793 182.9825 108.3778 183.0759 107.7378 181.4958 107.6749 178.8766 108.5719 176.4677 110.2851 174.5838 116.8915 170.3 113.6755 171.6212 106.386 175.5797 102.663 178.1827 101.6689 179.0618 101.3579 179.8024 101.3795 180.6563 103.0513 185.2349 102.5749 187.3544 96.2939 201.3635 95.1039 202.7693 94.0109 203.5045 92.9772 203.6735 89.8799 203.4057 88.4975 202.3558 88.5101 201.1658 89.0907 199.3807 91.6955 192.7348 92.8262 190.8886 94.5053 189.1718 98.2066 186.1661 98.1168 185.9702 95.6522 186.5598 94.6023 186.3657 93.8491 185.7706 94.3381 176.856 96.3371 173.9223 97.0849 169.6564 98.8178 166.0036 100.824 163.343 102.3502 159.9383 104.6512 158.4246 105.2678 156.1092 107.8493 153.6033 109.8447 150.9823 108.7697 151.2412 96.0081 158.0633 92.7597 159.3055 88.3285 158.9729 84.9399 158.2053 82.292 156.591 81.1091 153.4919 77.8392 153.4092 75.042 152.8735 75.0762 152.4564 78.6859 150.7666 84.4689 150.1878 89.8817 147.4841 85.0657 145.6577 85.472 145.0788 89.6731 143.5238 95.0104 138.307 96.0926 133.5073 93.5399 131.253 92.6159 129.7753 87.5142 128.1287 86.6621 126.02 87.2553 124.8444 88.9199 123.6956 91.4277 122.8004 95.3609 121.9447 91.7908 121.0279 90.4587 119.9457 89.4484 118.3782 89.355 117.4704 91.203 113.4238 92.2798 111.7556 94.383 109.6272 103.9304 109.7476 105.0288 108.8074 106.1109 108.7715 110.9916 109.6272 110.2671 108.705 102.2837 103.6535 101.5683 102.6918 103.8441 99.9683 104.0095 98.7549 103.6751 97.457 104.3259 96.4701 106.857 96.0027 114.5725 96.0494 116.4745 95.5892 115.608 94.277 113.8121 92.5512 113.4616 91.1023 113.8822 89.8224 113.9811 87.2463 114.3316 86.1066 116.1635 84.4006 117.6771 83.8937 119.5538 83.5971 123.7891 84.1669 125.4034 84.8554 127.2568 86.4823 128.6266 86.3511 133.901 84.584 135.4865 84.3305 137.6455 86.378 146.6518 84.744 158.768 84.0123 166.0467 82.9373 173.7137 82.5472 180.872 81.3284 188.4581 81.8875 188.7116 82.5976 188.3143 83.5827 186.3746 86.281 186.6892 89.292 186.256 90.2053 185.3769 91.3306 182.5942 93.4321 175.2813 96.4359 161.8797 103.3408 153.9628 106.7671 152.8735 108.4155 152.2856 110.7076 157.0261 111.1624 158.8561 111.939 157.7217 113.1038 150.7091 117.1486 148.6436 120.805 154.0204 120.6756 158.4498 119.9727 167.2835 117.6933 175.5833 115.9999 179.5687 115.9298 187.322 117.2798 189.0855 117.3229 192.3752 116.6992 195.7027 116.5877 218.24 117.0084 224.5012 116.2156 228.6448 117.163 232.1107 119.5305 235.404 123.897 235.3033 124.6232 233.3133 126.6133 229.6407 129.1084 226.4804 132.5437 225.5528 134.3971 224.9326 136.4249 223.9313 138.2998 217.6467 147.1066 211.5203 151.989 208.7843 155.4549 205.4083 158.2161 202.1581 159.9526 198.6886 161.1103 188.6667 162.3471 185.8623 163.2334 182.5169 164.756 179.0006 165.5092 183.1227 165.4139 187.2088 164.5672 194.6403 164.2562 203.1971 167.1738 202.4044 169.5611 198.969 171.4487 191.1564 171.7453 183.8507 175.941 180.5538 177.2317 177.0753 177.8735 172.725 177.683 164.8207 176.5594 161.362 175.3855 164.4881 177.3019 168.0349 178.3014 188.6181 180.6599 189.8567 180.4154 196.4182 177.9238 205.1638 177.8861 221.8137 182.4629 226.6081 185.9612 233.4769 190.9766 237.2142 192.9343 239.9161 194.7086 241.5808 197.3691 244.8058 206.1525 248.4838 214.7345 253.3033 224.032 255.4875 226.6152 258.3601 228.4273 272.905 232.5907 276.1426 233.9713 281.7854 237.9765 287.2251 242.2441 292.2873 245.523 297.754 248.1764 295.1061 249.5552 293.2922 251.7232 294.6477 254.6713 296.875 257.4865 301.2487 261.9914 305.1065 266.908 303.6845 266.1656 302.1888 265.7575 300.1449 265.8797 298.1459 265.6424 294.4607 264.1036 290.9193 262.2143 283.8743 262.9729 279.9608 262.6332 276.565 262.6835 283.0024 263.7747 290.0475 263.8502 305.5846 272.0996 310.8374 276.9875 313.9581 283.45 311.8333 286.3533 308.5256 288.2336 305.4408 290.3854 302.5502 292.8141 311.161 296.3824 313.0162 296.2745 314.9217 295.7748 316.7517 294.5614 319.8401 291.6078 321.4328 290.5562 326.797 290.1769 331.2983 290.4034 335.7817 291.0559 339.7222 290.8492 347.6642 292.1166 351.7449 293.2599 361.855 298.4066 364.0409 301.2217 365.044 304.8566 365.1627 308.8887 363.4621 312.5739 361.5098 315.9014 360.3054 320.1978 359.4497 321.7456 358.256 322.9572 352.899 326.3476 349.3397 327.7408 347.8368 327.1296 346.2333 327.2141 346.0643 328.0284 347.7577 329.7596 347.7793 331.8484 344.6154 333.3944 341.4012 334.0542 336.0226 333.2308 328.5551 336.1107 333.9229 337.5902 335.0051 339.1649 333.6605 341.9333 330.2845 343.1683 326.5417 343.7148 322.7091 343.846 319.5345 344.5237 316.4892 345.8288 320.3111 345.1349 322.9608 345.7425 324.6254 348.0723 326.1355 348.7392 333.6029 349.7351 338.2265 349.728 347.1429 349.1617 351.4249 349.1761 352.953 349.5967 352.9781 351.5274 352.313 356.2696 351.1337 357.2476 339.3123 361.2312 336.8891 364.014 336.2096 365.7002 329.2958 365.4017 326.0564 367.185 320.4585 368.3679 316.1297 369.628 311.8944 371.219 308.4105 371.6954 293.3534 369.806 284.2644 369.9606 271.9504 371.6073 268.7793 371.3358 264.0227 369.7593 259.1529 368.6933 253.5496 368.2241 248.7121 366.768 251.7303 369.5687 245.0197 372.2688 241.9241 372.8063 238.7189 372.7218 232.161 373.4553 226.0849 373.0813 226.9981 375.0012 228.625 376.6749 227.3055 377.4029 225.9088 377.5845 214.3372 376.3207 212.6978 376.5598 211.2704 377.7265 207.0621 377.0973 202.9724 375.1307 198.6239 373.8112 194.0614 373.191 190.4338 373.4049 175.5168 376.5041 172.5399 379.614 171.0514 384.0237 168.8978 387.939 165.3852 390.9537 161.2038 391.3474 157.2705 389.2603 149.7887 386.9557 147.2432 385.3989 146.4324 385.3072 145.5965 385.8645 142.6628 386.5674 139.6247 386.5997 134.9418 387.2199 126.7948 389.0931 123.5033 390.364 116.4295 393.8695 114.9896 394.8402 112.4171 398.3762 108.4875 399 104.8939 396.7332 100.8025 395.9422 96.4863 396.717 93.8761 397.9214 92.6591 396.9435 92.6195 394.9319 95.7708 392.5356 104.1785 390.7254 111.5597 386.0281 115.1801 383.1644 116.6165 381.5537 118.3854 380.5273 120.699 380.139 121.8872 378.3593 132.1357 371.2046 132.9806 369.5633 133.4911 366.6277 134.3378 363.8018 142.6807 361.9718 146.6679 356.0305 147.7645 355.5596 159.4008 354.4702 168.0313 354.5565 176.6026 355.7196 180.996 355.8238 185.4057 355.4229 188.8644 353.8194 194.7841 348.0364 198.1134 345.4909 201.928 343.1917 205.4963 340.5653 211.2848 335.7008 207.3713 337.3762 202.6471 340.035 Z M 146.3516 277.5052 147.8939 278.1901 151.7787 278.0822 150.4934 279.6084 146.2185 281.3108 143.3387 282.9916 139.862 284.3992 138.1758 282.7849 136.2199 282.846 133.2286 279.7505 132.6893 275.1107 136.5975 273.9027 141.9958 273.9782 146.3516 277.5052 Z M 207.0208 59.9255 202.8538 59.9686 205.0056 57.7917 207.5079 57.2452 212.2448 57.4879 211.4035 58.464 207.0208 59.9255 Z M 262.4786 12.7082 261.5456 13.1342 257.9502 9.3933 260.609 5.1112 263.8376 5.2479 264.3517 6.3696 264.0317 7.4015 262.3869 7.4931 262.2395 7.8095 262.7518 9.7977 262.7842 12.1077 262.4786 12.7082 Z M 252.7011 11.8381 253.4633 14.4321 255.3652 13.7598 258.2361 16.2477 259.7012 16.2513 262.1136 15.2626 261.6265 17.578 259.1223 24.0064 258.4194 25.0976 257.9431 27.0517 257.4451 27.4328 256.7063 31.384 255.0129 32.6855 253.5963 35.7901 253.0193 36.0939 250.943 34.8985 253.0175 30.1598 253.8768 27.4058 253.3339 25.9767 252.16 24.6914 248.9853 24.65 246.3176 25.2432 245.7513 24.4846 245.6686 23.4618 245.0251 23.122 241.4747 23.1921 240.4321 22.9099 239.7436 21.9715 239.6069 21.2255 242.814 20.6412 245.8412 20.8587 250.2527 19.3703 247.4933 14.3764 243.8386 13.9072 242.9937 13.4236 243.6984 12.5769 245.7046 12.1203 248.7948 9.5838 250.6446 9.1847 252.9366 9.2549 252.7011 11.8381 Z M 272.3549 1.7334 272.3531 2.1559 270.444 5.2605 270.4691 6.4469 267.3898 6.3337 266.9062 5.9561 266.3237 4.1747 266.712 2.2781 267.1435 1.7892 268.0423 1.5878 269.0166 1.96 270.5447 1 271.341 1.0234 272.3549 1.7334 Z M 184.3397 76.0199 182.2346 76.5071 180.1475 76.4711 176.8938 74.3427 175.6552 72.7949 175.8799 71.7703 177.2533 71.4251 180.401 71.9302 182.0315 73.7009 182.2346 74.8532 182.6211 75.3063 184.5752 75.7611 184.3397 76.0199 Z M 193.0116 77.956 192.6593 78.0657 191.3182 77.3915 189.1071 74.9719 192.5766 74.4919 194.225 74.7903 193.612 75.8204 193.0116 77.956 Z M 188.2981 67.3516 187.8092 68.2594 190.6081 68.2379 194.6619 69.0126 197.1157 69.1097 199.1578 70.0697 198.0325 71.8691 196.8101 72.3725 195.4277 72.4731 190.6027 70.6755 184.2786 71.4215 183.0202 71.1932 182.1897 70.6971 181.8481 70.0805 181.8409 68.8239 181.4976 68.4536 179.2074 69.6418 178.2025 69.5016 177.6344 68.9318 177.3899 67.7525 177.6434 66.0501 178.9863 63.6269 181.2603 63.1433 184.6507 63.4237 188.53 64.7971 189.7039 65.6438 189.6751 66.3198 188.2981 67.3516 Z M 200.3748 61.5667 197.2145 62.4818 195.8663 61.7249 195.5139 59.3556 191.746 58.3417 189.916 57.7126 188.4959 56.5189 188.8572 56.1522 191.3128 55.6632 195.5068 57.8276 197.2217 59.5767 200.3281 60.0945 200.7236 60.3623 200.3748 61.5667 Z M 57.5939 157.3532 55.5014 157.5582 55.3504 157.0368 58.9817 154.5471 61.333 154.1372 62.1564 154.3799 60.4486 155.8216 57.5939 157.3532 Z M 112.8989 199.183 108.2573 199.2099 106.5801 198.8917 104.5757 197.9965 102.3233 192.9415 103.1286 191.1528 104.0526 190.2774 105.0683 189.5978 107.5167 189.312 109.9525 190.2684 110.8747 191.1582 112.9151 194.5756 113.2926 197.5075 112.8989 199.183 Z M 88.1415 166.2139 73.478 168.2614 68.4248 168.0799 67.9682 167.075 68.9749 166.4044 73.158 165.7519 74.8514 160.8281 68.5273 158.5631 68.1947 157.9267 68.6891 156.8463 69.4225 156.3645 73.2605 155.2194 74.873 154.9659 76.1817 155.1205 78.8746 156.44 81.927 159.212 86.0005 159.6524 88.7689 160.8263 88.1415 166.2139 Z M 75.2182 181.4473 76.5466 186.1751 77.8427 189.1071 77.9272 190.1084 76.7102 191.4998 70.6431 193.3514 68.7322 193.3621 68.6531 192.9127 70.0229 191.0288 68.8437 188.8914 69.4189 187.2663 68.8545 186.9679 67.6716 187.198 63.3249 189.7794 61.8741 190.0347 61.7159 189.5098 62.7909 187.3957 62.924 185.9504 63.5711 185.0623 64.7522 184.2426 66.1598 183.6278 67.2941 183.5397 68.5039 184.1743 72.0237 182.4036 75.2182 181.4473 Z M 81.066 185.7185 80.2984 186.114 78.4342 186.0043 77.7421 185.4111 77.361 184.4997 77.3142 182.8261 78.4432 181.6288 83.2124 179.8204 81.057 179.1786 80.9707 178.7274 82.2075 177.2246 87.3416 174.8858 88.7168 174.4616 90.083 174.5263 87.4297 178.6843 81.066 185.7185 Z M 72.6493 91.8843 67.9682 98.3055 66.1364 98.4637 64.5275 100.069 59.5462 101.8397 63.8929 101.8757 65.1135 102.4653 65.1477 103.7362 64.31 104.4751 58.6797 107.4178 54.8075 108.5342 50.637 111.6082 48.5319 111.6459 46.4484 113.6018 44.7335 114.4611 43.7699 114.4629 42.6626 114.0296 40.0757 112.1151 44.7694 110.233 45.2044 109.1742 48.4187 108.074 48.149 107.7306 43.0544 106.1829 41.0465 105.142 41.237 104.5973 43.689 103.4001 42.5259 103.2419 41.7404 102.5965 40.3166 102.3502 39.8906 101.748 39.6281 100.1679 40.0092 98.5518 41.4941 97.8381 42.1017 97.0741 42.7039 96.8386 45.0049 97.2449 47.3365 98.5374 50.0581 98.0395 53.2184 98.2857 53.2831 97.9855 50.9623 94.8073 51.3776 94.1583 52.636 93.4177 59.9291 91.1526 69.0234 87.3434 71.222 86.7466 71.8853 87.2661 72.8129 89.2399 72.6493 91.8843 Z M 69.6904 143.3746 68.5974 143.8492 67.2168 143.7575 65.8488 143.1463 64.0367 141.4152 68.0958 140.2143 69.7209 140.919 70.3447 141.7244 70.3717 142.6178 69.6904 143.3746 Z M 74.6357 123.4835 74.5836 125.1104 73.9346 127.0231 74.7795 129.0545 74.9737 130.5052 76.5251 130.9672 77.4742 131.6359 84.3718 132.3837 90.7877 132.1734 92.0227 132.772 92.1629 133.7212 91.149 134.7692 87.4962 136.6801 83.1387 139.7685 81.8389 140.4121 80.4314 140.439 79.4211 140.1622 78.6984 134.6668 73.9724 135.3696 70.1667 135.2888 68.0833 134.62 66.6218 133.3311 63.6754 130.018 55.097 128.7147 52.6719 126.8901 51.9421 125.7881 52.2513 125.1787 54.0381 123.8233 56.2744 124.3069 57.6586 124.0102 58.4999 123.4044 58.482 122.9065 57.3117 121.7254 57.256 121.3587 66.0285 119.863 66.7961 117.5261 68.6999 117.3355 70.8732 118.0995 73.8501 120.5264 74.6357 123.4835 Z M 35.5798 116.9311 39.7324 119.0038 36.4247 122.4409 31.3463 122.4247 24.197 119.9134 24.1646 119.401 24.7615 118.6478 25.8329 118.051 26.9474 117.909 28.7199 118.3206 31.1881 117.6609 33.1637 117.8694 35.5798 116.9311 Z M 33.9493 137.8288 32.3961 138.0338 30.3576 137.836 29.1028 137.2644 27.8355 135.0011 27.5982 133.6313 28.1626 131.0858 28.0332 128.0442 32.2361 127.9489 33.3129 128.3875 34.0338 137.4226 33.9493 137.8288 Z M 27.7995 143.3477 24.5637 143.8546 23.3629 143.558 23.158 143.0924 23.895 141.825 26.3794 141.3774 28.1752 142.0641 28.461 142.6879 27.7995 143.3477 Z M 71.9374 249.2568 68.7843 249.0303 66.575 249.6846 65.1423 250.2904 63.7545 250.1808 59.7835 250.4145 56.0407 250.3641 55.5104 249.4024 56.1486 246.5063 55.3145 245.7226 51.7407 245.3217 50.4159 244.6314 48.3629 242.6324 47.9621 241.6976 47.6672 240.4069 45.4993 238.7423 42.8639 237.5504 41.3179 237.4929 38.2331 239.4397 35.6894 241.4118 36.5919 242.4023 37.4242 243.7056 36.04 244.6404 31.855 246.7796 31.2007 247.6101 30.0717 248.0595 28.0745 247.4681 23.104 247.6047 20.8174 247.2272 18.1587 245.6507 11.6727 244.5972 10.5851 242.0751 9.3339 241.6041 1.9779 237.2718 1 235.8265 1.9528 234.9636 4.6996 233.6567 13.9234 231.4923 15.3741 230.6204 15.6725 229.851 12.9652 228.972 10.524 228.0012 9.6917 227.3649 9.6234 226.813 11.0094 226.0939 13.7957 226.0418 15.9961 226.3672 17.7452 225.72 20.821 225.0693 22.8847 224.2495 24.659 222.1337 26.534 220.2318 26.7281 219.1999 28.3694 215.5848 29.2718 214.6878 35.098 212.3203 36.5721 213.6128 39.4429 213.9292 42.0154 212.7391 45.093 208.9874 47.2358 208.7519 49.5961 209.0557 54.2359 208.5847 62.4746 206.8338 66.1472 206.805 71.3406 207.7236 75.2092 207.7039 78.6463 210.386 80.4889 214.6141 84.7799 218.7918 90.3886 222.4267 90.6133 224.6504 88.6089 225.8441 84.415 227.3271 84.433 228.9127 87.1996 228.1127 89.5869 227.7442 95.334 228.0983 97.3438 229.7108 98.7334 232.1251 99.4614 234.1079 98.9652 236.2633 97.4193 235.5802 95.8481 233.6513 94.1026 232.7632 92.073 232.2833 92.9934 234.9294 92.6303 238.469 93.5165 238.8034 96.2436 238.8645 94.4405 242.4886 90.7122 243.4719 86.3637 243.8404 85.3156 245.1239 84.5264 246.7778 82.256 249.2442 79.2629 250.6356 75.5633 250.3551 71.9374 249.2568 Z M 261.6301 374.3757 258.5453 375.6466 257.5709 377.1369 256.8249 377.7265 254.7864 378.1094 252.7676 378.1202 245.0718 375.1289 243.3011 375.2637 245.0592 373.8939 249.8392 372.7811 252.5285 371.3107 258.734 372.738 261.6301 374.3757 Z"/>
</g>
</svg>