<?xml version="1.0"?>
<svg xmlns="http://www.w3.org/2000/svg" version="1.2" baseProfile="tiny" width="500" height="358" viewBox="0 0 500 358" stroke-linecap="round" stroke-linejoin="round">
<g id="ne_50m_admin_0_countries-United Arab Emirates">
<path d="M 489.6864 44.1372 496.4673 52.5376 497.436 109.4787 499 113.52 495.3775 114.1304 491.311 118.4694 486.5886 125.1443 480.06 128.5953 474.8734 132.5003 469.919 137.3388 465.5094 138.363 459.7779 132.2178 455.8426 125.9465 456.8113 124.5893 459.566 124.1403 460.6356 120.9063 458.9707 116.2041 455.0959 114.4433 450.2121 114.2869 445.5502 116.3907 440.6059 120.538 437.8007 124.998 437.3769 133.9685 438.6786 144.0641 438.6483 148.9581 435.9238 155.0427 434.9551 164.0031 436.8824 170.9353 438.6584 175.0674 438.8299 178.5537 434.1983 189.6231 438.2144 191.6916 451.5339 192.4686 455.4289 199.9609 458.1029 205.0919 457.3764 208.1494 447.972 210.4197 436.0853 212.9323 427.5588 212.2058 412.1908 215.5911 403.9872 220.7827 406.3988 224.0319 409.2444 226.5293 410.5158 233.396 408.1243 243.1535 403.7652 252.6286 398.3465 264.4245 392.0803 277.9912 383.5033 298.3994 376.2381 314.4333 375.4409 325.9871 375.6327 333.5247 374.7851 348.6 367.9235 356.8844 366.3594 357.1366 358.1659 356.1377 355.4011 355.8047 347.5708 354.8461 335.4217 353.3628 319.6502 351.4355 300.9927 349.155 280.1658 346.6122 257.8959 343.8928 234.9095 341.0876 211.9131 338.2774 189.6432 335.558 168.8062 333.0151 150.1588 330.7347 134.3873 328.8124 122.2281 327.3241 114.4079 326.3654 111.6431 326.0325 102.9551 324.9679 98.2529 319.3727 92.5719 312.607 86.8909 305.8362 81.1999 299.0654 75.5189 292.2997 69.8379 285.5339 64.1468 278.7632 58.4658 271.9974 52.7747 265.2267 47.0937 258.4609 41.4127 251.6902 35.7217 244.9194 30.0407 238.1537 24.3496 231.3879 18.6686 224.6172 12.9876 217.8464 7.2965 211.0807 3.5025 206.55 1.3935 201.4391 1 188.0489 1 185.1277 4.8344 179.7293 6.6608 183.5889 10.9392 188.8209 18.1943 187.5444 21.5848 188.4122 24.0771 206.9738 29.3949 213.573 35.8932 216.2117 57.8503 217.6849 71.523 215.1926 98.4447 203.0738 112.5815 198.7197 151.6522 199.4765 182.9835 204.5268 231.7714 207.5187 241.2363 206.7367 267.5425 197.0094 283.6975 188.4223 293.2835 185.9551 299.6204 177.6809 303.7979 166.889 307.5011 159.8357 312.2336 156.4705 316.7441 150.5019 320.3464 140.7645 329.4178 130.9565 365.7237 107.0721 386.9442 86.901 388.821 80.3926 400.3647 70.6098 409.6076 59.8987 452.8356 29.3293 461.5135 16.7211 466.6194 2.5893 467.2248 1.5701 470.9482 1 476.2155 3.1392 476.7402 13.7091 474.8331 23.6987 474.6111 34.2787 473.8543 40.0202 477.8804 44.7325 484.6916 46.7507 487.6885 46.5085 489.6864 44.1372 Z M 488.0315 87.0322 488.6471 82.5823 487.5674 80.2816 483.1174 79.9789 481.281 83.8133 480.6654 89.3329 483.733 89.792 488.0315 87.0322 Z M 183.2559 187.9783 175.6173 188.5636 168.6549 184.6383 183.2862 179.4013 187.2518 177.0401 191.5403 172.2269 194.9408 176.3439 191.1871 182.8826 188.4626 185.6776 183.2559 187.9783 Z M 109.3425 184.8805 107.5968 185.6322 105.7603 180.0572 105.9016 178.2914 110.6341 175.7687 113.5502 180.3296 109.3425 184.8805 Z M 244.7983 196.3888 244.8286 199.8852 234.3142 198.8761 231.4989 200.6924 222.8917 199.6834 214.4862 197.1557 220.1874 192.9176 235.0811 187.943 241.2767 192.4686 244.7983 196.3888 Z M 300.3469 168.9475 299.4388 170.9555 296.5226 170.7739 289.217 168.9475 286.8457 166.0263 291.4067 162.5601 293.4147 162.3785 296.3309 166.0263 300.3469 168.9475 Z"/>
</g>
</svg>