<?xml version="1.0"?>
<svg xmlns="http://www.w3.org/2000/svg" version="1.2" baseProfile="tiny" width="500" height="75" viewBox="0 0 500 75" stroke-linecap="round" stroke-linejoin="round">
<g id="ne_50m_admin_0_countries-United States of America">
<path d="M 64.225 21.7032 64.21 21.7236 64.0332 21.7216 63.9691 21.7049 63.9451 21.6454 63.9616 21.5903 64.0029 21.5478 64.0528 21.4658 64.0919 21.3289 64.3516 21.482 64.4311 21.5501 64.4739 21.6335 64.3817 21.6646 64.2701 21.6798 64.225 21.7032 Z M 64.1791 22.0906 64.108 22.0949 64.0239 22.0736 63.8241 21.9603 63.8205 21.927 63.8491 21.8892 63.9626 21.8199 64.0091 21.8033 64.2818 21.8106 64.369 21.8292 64.3888 21.8615 64.3844 21.8944 64.3558 21.9277 64.3492 21.9625 64.3645 21.9988 64.3328 22.0348 64.1791 22.0906 Z M 62.0466 19.3338 62.0367 19.3683 61.847 19.3649 61.6553 19.314 61.5613 19.2475 61.5802 19.2176 61.7583 19.1896 61.9268 19.2527 62.0466 19.3338 Z M 47.0141 16.4009 46.9696 16.435 46.8483 16.4229 46.7834 16.4013 47.0007 16.3119 47.0364 16.3298 47.0141 16.4009 Z M 47.7832 17.1225 47.7165 17.1305 47.8167 17.0393 47.9511 16.9385 48.0777 16.8752 48.2421 16.8488 48.2237 16.8948 48.0091 16.9797 47.7832 17.1225 Z M 42.9751 16.779 42.9023 16.8216 42.6272 16.7958 42.6845 16.712 42.8947 16.6589 43.1248 16.7414 42.9751 16.779 Z M 37.4119 16.3667 37.3447 16.3718 37.4345 16.3031 37.4968 16.1691 37.5807 16.1877 37.5976 16.2123 37.459 16.3496 37.4119 16.3667 Z M 25.8534 23.3559 25.8339 23.4657 25.6427 23.3958 25.5916 23.3613 25.6258 23.3355 25.8075 23.3291 25.8534 23.3559 Z M 27.1991 23.8641 27.1539 23.8711 27.1165 23.8561 27.0648 23.7771 27.0601 23.7439 27.1595 23.7688 27.1974 23.8264 27.1991 23.8641 Z M 26.986 23.6144 26.9787 23.7253 26.9585 23.7428 26.9216 23.7131 26.8433 23.7459 26.8005 23.722 26.8187 23.6833 26.8128 23.6532 26.8708 23.6509 26.8846 23.5957 26.8746 23.5725 26.9031 23.5228 26.9444 23.5113 26.986 23.6144 Z M 17.6727 25.6018 17.6532 25.6058 17.6176 25.5714 17.6157 25.5399 17.6385 25.5171 17.7034 25.4638 17.7496 25.4448 17.8063 25.4352 17.8217 25.4494 17.7717 25.5126 17.7089 25.5551 17.6727 25.6018 Z M 4.0404 28.2602 3.9231 28.2907 3.7685 28.229 3.7835 28.1574 3.9533 28.2172 4.0404 28.2602 Z M 17.8117 8.2065 17.7578 8.2143 17.7608 8.193 17.9193 8.1366 18.2119 8.0665 18.2012 8.0817 18.0448 8.1359 17.8117 8.2065 Z M 10.3646 11.806 10.3857 11.8399 10.5311 11.8344 10.7348 11.849 10.9602 11.8819 11.1832 11.8701 11.4643 11.7659 11.6322 11.7386 11.8011 11.7242 11.9834 11.7496 12.1616 11.8048 12.2304 11.8373 12.2852 11.8942 12.3216 11.963 12.3757 12.0123 12.7095 12.0732 12.9228 12.0974 12.9742 12.1308 13.0196 12.1768 13.1962 12.2118 13.3806 12.199 13.4835 12.2115 13.7966 12.2132 14.1861 12.2643 14.1231 12.399 13.9964 12.4582 13.6394 12.4392 13.2837 12.4583 13.136 12.5277 13.013 12.6154 12.9963 12.7009 12.9246 12.7402 12.8501 12.7575 12.7897 12.7102 12.709 12.566 12.6523 12.5262 12.5899 12.5011 12.4159 12.4555 12.2394 12.4267 12.1361 12.4233 12.0617 12.3733 12.0205 12.3009 11.9498 12.2636 11.8098 12.2105 11.6666 12.1688 11.2197 12.0782 11.0727 12.0663 10.9236 12.0761 10.7639 12.1174 10.6091 12.1787 10.4507 12.2245 10.2865 12.2346 10.1298 12.2078 9.9823 12.148 9.9084 12.1056 9.8689 12.0325 9.8709 11.9593 9.8909 11.8888 9.9704 11.7183 10.1094 11.685 10.3646 11.806 Z M 17.7761 16.3363 17.9038 16.4053 17.9716 16.4092 18.1859 16.3882 18.2644 16.403 18.3406 16.4328 18.3877 16.4782 18.3967 16.5581 18.3619 16.6294 18.3723 16.73 18.3647 16.7734 18.4785 16.8304 18.514 16.9077 18.5324 16.9907 18.2855 17.0185 18.0387 17.0229 17.8256 17.0791 17.782 17.1206 17.8161 17.1823 17.7576 17.1981 17.7036 17.1845 17.6006 17.1274 17.4874 17.1002 17.0914 17.0582 16.5942 16.8923 16.3802 16.858 16.1628 16.7368 15.9663 16.5824 16.0944 16.5576 16.2232 16.545 16.8011 16.568 16.8734 16.4575 16.9477 16.4299 17.1313 16.3986 17.3028 16.3374 17.3798 16.3389 17.4584 16.3625 17.621 16.3257 17.7072 16.3179 17.7761 16.3363 Z M 36.1915 19.8972 36.2015 19.9736 36.2581 19.9643 36.4722 19.8855 36.5838 19.8625 36.7291 19.8589 36.8443 19.8947 36.8678 19.9222 36.8577 19.955 36.7655 20.0217 36.7694 20.0649 36.8684 20.1446 37.1118 20.188 37.1413 20.2119 37.14 20.2407 36.9724 20.3725 36.911 20.4033 36.8674 20.4107 36.563 20.387 36.2845 20.3438 36.1718 20.3365 36.132 20.3504 36.0532 20.391 36.1097 20.403 36.3538 20.4126 36.4398 20.4718 36.4774 20.5153 36.4961 20.5633 36.4474 20.583 36.343 20.5973 36.2179 20.5971 36.0632 20.6511 35.9778 20.7128 35.668 20.7285 35.4324 20.8108 35.3491 20.8514 35.3201 20.9 35.2312 20.9353 35.0305 20.9706 35.1502 21.0022 35.169 21.029 35.1712 21.0661 35.1547 21.098 34.9962 21.2404 34.6964 21.3575 34.6204 21.3522 34.5878 21.3376 34.5611 21.3153 34.5599 21.2929 34.9462 21.058 34.9309 21.0464 34.8258 21.0385 34.6594 20.9739 34.5419 21.0155 34.5152 21.0138 34.5465 20.9585 34.6231 20.8924 34.6097 20.8739 34.5676 20.8574 34.4709 20.8475 34.3194 20.8444 34.2072 20.86 34.1343 20.8945 34.1283 20.9091 34.2835 20.905 34.3257 20.9225 34.3675 20.9553 34.393 20.9931 34.402 21.036 34.3695 21.0937 34.2955 21.1661 34.1869 21.1534 33.9646 20.9925 33.8664 20.7569 33.6764 20.5768 33.6677 20.5338 33.722 20.4228 33.9138 20.2651 34.12 20.2219 34.2669 20.1557 34.409 20.1357 34.4969 20.1374 34.617 20.166 34.6654 20.2263 34.6364 20.2547 34.6475 20.2697 34.7317 20.306 34.8228 20.4326 34.9292 20.5451 34.9999 20.5908 35.0929 20.6189 34.9966 20.533 34.9398 20.4267 34.9112 20.2148 34.8837 20.1588 34.9375 20.1437 35.0895 20.152 35.0853 20.1204 34.9249 20.049 34.8262 19.99 34.7891 19.9433 34.7914 19.9028 34.8789 19.843 34.9286 19.826 34.9798 19.8186 35.0819 19.8313 35.1278 19.85 35.2587 19.9846 35.32 20.0264 35.3708 20.0265 35.418 20.0041 35.4616 19.9595 35.5065 19.9327 35.5528 19.9239 35.6985 19.9437 35.7471 19.9364 35.771 19.9026 35.77 19.8424 35.8059 19.8207 35.8147 19.7765 35.7353 19.7112 35.8264 19.6912 36.1286 19.7412 36.2578 19.7958 36.1915 19.8972 Z M 68.0114 22.59 67.9425 22.6626 67.8906 22.7409 67.8557 22.8249 67.8425 22.9152 67.851 23.0119 67.8788 23.0962 67.9636 23.2521 67.9917 23.3477 67.9955 23.4113 67.8073 23.6351 67.7424 23.7419 67.7485 23.7897 67.6115 23.9009 67.3601 24.0564 67.2459 24.1461 67.1896 24.1166 66.8644 24.0933 66.7461 23.8947 66.6834 23.7406 66.5886 23.6064 66.5913 23.5759 66.6775 23.4863 67.0024 23.4126 67.0055 23.3833 66.8846 23.3637 66.8556 23.3317 66.8224 23.1864 66.8313 23.059 66.8226 22.9746 66.7685 22.8018 66.6872 22.6961 66.4775 22.49 66.4599 22.438 66.5522 22.3728 66.6096 22.312 66.2551 22.4177 65.7714 22.5288 65.5642 22.6063 65.5207 22.6374 65.5058 22.6636 65.5435 22.7367 65.5377 22.7601 65.4955 22.8033 65.4456 22.9254 65.3405 23.0548 65.2871 23.0814 65.0985 23.033 65.0478 22.9916 64.9532 22.8226 64.9753 22.7776 65.0443 22.7397 65.1379 22.6577 65.2561 22.5318 65.4812 22.2118 65.6284 22.2102 65.8881 22.1469 65.4807 22.1151 65.42 22.0984 65.3652 22.0548 65.3164 21.9842 65.2335 21.9058 65.0786 21.8783 65.0108 21.8493 64.9085 21.7541 64.8397 21.7113 64.8021 21.6584 64.7956 21.5955 64.7664 21.5638 64.6597 21.5524 64.6019 21.5308 64.5864 21.3683 64.3744 21.3266 64.2875 21.2906 64.148 21.1892 64.1095 21.1399 64.0971 21.0987 64.1312 20.9867 64.1168 20.9657 63.9933 20.9774 63.2247 20.8039 63.2654 20.5747 63.1231 20.2725 62.9704 20.1499 63.0007 20.1022 63.0335 20.077 63.1019 20.0764 63.3966 20.1654 63.6742 20.2711 63.71 20.2557 63.2667 20.0319 63.1557 19.965 63.1283 19.8846 63.1266 19.8416 63.1618 19.819 63.5778 19.8391 63.6025 19.8224 63.1809 19.757 63.0947 19.7573 63.0024 19.8512 62.9585 19.8734 62.868 19.8689 62.8376 19.8545 62.7302 19.7407 62.6285 19.6616 62.4384 19.5518 62.4028 19.4736 62.3936 19.3586 62.4187 19.2498 62.574 19.0013 62.6368 18.9584 62.6531 18.9314 62.6053 18.9354 62.5598 18.959 62.4314 19.0744 62.2992 19.2636 62.1912 19.3281 62.1233 19.3125 62.0206 19.2354 61.8063 19.1414 61.5585 19.117 61.402 19.0208 61.1705 18.7531 61.1395 18.6197 61.1098 18.5871 60.9842 18.5438 60.9071 18.4796 60.7881 18.1545 60.631 17.9285 60.5919 17.8091 60.6051 17.6906 60.5846 17.6776 60.5305 17.7699 60.5163 17.818 60.4171 17.8316 60.5105 17.9251 60.5339 17.9718 60.4871 17.9679 60.3917 17.9796 60.5534 18.1393 60.6258 18.3868 60.733 18.5703 60.8024 18.7189 60.8338 18.8318 60.8792 18.9397 61.0043 19.178 61.0214 19.2254 61.0064 19.2642 60.965 19.3102 60.8936 19.3275 60.6696 19.2962 60.5853 19.2372 60.4646 19.129 60.2951 19.079 59.8754 19.1038 59.8419 19.0955 59.8436 19.007 59.8917 18.8494 59.853 18.7859 59.6361 18.5544 59.6394 18.5092 59.9409 18.403 59.7944 18.3949 59.6763 18.4364 59.6307 18.4096 59.5594 18.2613 59.5134 18.206 59.4906 18.1941 59.4775 18.3351 59.5275 18.4093 59.5346 18.4522 59.5266 18.512 59.4951 18.5548 59.4402 18.5808 59.3852 18.5873 59.2834 18.5575 59.1703 18.5013 59.0717 18.4748 59.035 18.4523 58.9882 18.3903 58.9117 18.3432 58.5434 18.2835 58.3235 18.2131 58.3052 18.2316 58.3738 18.307 58.3805 18.3516 58.3251 18.3652 58.2261 18.4367 58.2548 18.4466 58.3596 18.4231 58.4764 18.4258 58.6697 18.4695 58.8453 18.5264 58.9089 18.5583 58.9352 18.6055 58.9572 18.6224 59.1288 18.6775 59.1371 18.7065 59.0264 18.7929 59.2544 18.7835 59.3869 18.8144 59.5562 18.9479 59.6138 19.0224 59.6215 19.1178 59.5863 19.1455 59.519 19.1648 59.0561 19.1959 58.8889 19.3111 58.8543 19.3128 58.727 19.2815 58.496 19.1898 58.2081 19.1024 57.5514 18.8437 57.5334 18.8315 57.5228 18.7815 57.4776 18.756 57.3885 18.7342 57.2648 18.6686 57.1066 18.5594 57.0089 18.4741 56.9715 18.4127 56.8796 18.3425 56.5822 18.1959 56.4267 18.1396 56.2892 18.1079 56.1698 18.1009 56.1376 18.0814 56.1927 18.0493 56.2007 18.0302 55.9374 18.0001 55.6868 17.9315 55.0515 17.7385 54.7235 17.6177 54.532 17.56 54.4501 17.5275 54.4142 17.5011 54.4602 17.4736 54.5881 17.4447 54.675 17.412 54.8122 17.2899 54.8226 17.2506 54.7489 17.1618 54.716 17.0809 54.7174 17.0361 54.7341 16.9918 54.755 16.9627 54.8132 16.9345 54.8539 16.9203 54.9042 16.9299 55.0655 17.041 55.0882 17.0814 55.0807 17.2334 55.127 17.4111 55.1415 17.398 55.1564 17.3393 55.1659 17.227 55.1841 17.1731 55.2187 17.1205 55.2771 17.0927 55.4587 17.1089 55.5425 17.0994 55.1886 17.0191 54.966 16.8685 54.9257 16.8528 54.8039 16.8461 54.675 16.9068 54.3431 17.1054 54.2503 17.1402 53.8332 17.2502 53.5507 17.2723 53.2327 17.255 52.9617 17.2192 52.2818 17.0455 52.1756 17.0051 52.3337 16.8977 52.3402 16.8641 52.2851 16.7547 52.2397 16.7234 52.1749 16.7062 52.1569 16.7185 52.1563 16.751 52.1736 16.8111 52.1216 16.8429 52.006 16.8772 51.8113 16.9118 51.2076 16.8234 50.5892 16.7502 50.0368 16.735 49.2572 16.7933 48.8412 16.852 48.5986 16.8577 48.3653 16.8471 48.3462 16.8062 48.4528 16.7822 48.4469 16.7526 48.312 16.6602 48.1074 16.6042 47.8328 16.5844 47.6756 16.5574 47.6358 16.5232 47.5387 16.4905 47.3842 16.4594 47.3162 16.4036 47.3703 16.2311 47.4232 16.1276 47.4758 16.0566 47.6086 15.9391 47.5623 15.9478 47.3694 16.034 47.2011 16.123 47.0454 16.2388 46.9526 16.292 46.8335 16.3411 46.6478 16.3293 46.3955 16.2568 46.1794 16.2194 45.9996 16.2171 45.9284 16.2047 46.0512 16.14 46.1219 16.088 46.2187 16.0046 46.24 15.9641 45.5804 15.9508 45.5563 15.9068 45.5553 15.8745 45.5341 15.8477 45.4385 15.8278 45.3048 15.843 45.088 15.895 44.9942 15.8555 45.0276 15.8333 45.0984 15.8171 45.2424 15.7419 45.0478 15.7029 44.9481 15.6583 44.8996 15.6216 44.9029 15.4891 44.9543 15.4043 45.3914 15.322 45.253 15.2898 44.9771 15.3009 44.7918 15.3709 44.5719 15.4719 44.4242 15.5096 44.3488 15.484 44.2492 15.4752 44.1253 15.4831 44.042 15.509 43.9993 15.5528 43.9499 15.5824 43.8939 15.5977 43.8532 15.5928 43.7937 15.5479 43.6686 15.52 43.6074 15.4858 43.5722 15.5073 43.5295 15.5719 43.4845 15.6046 43.2731 15.6382 43.1569 15.6319 43.0183 15.5507 42.9983 15.5225 43.0455 15.4522 43.3506 15.1741 43.3201 15.1757 43.2213 15.2195 43.0244 15.3306 42.9367 15.3637 42.7858 15.3679 42.7151 15.3559 42.6298 15.365 42.5298 15.3947 42.4646 15.4273 42.434 15.4628 42.4547 15.4688 42.6056 15.4283 42.6912 15.4175 42.7151 15.4371 42.5976 15.5626 42.5263 15.6824 42.4583 15.7126 42.3501 15.7076 42.2317 15.7194 42.23 15.7529 42.4508 15.8487 42.5307 15.8623 42.6328 15.8965 42.6483 15.9305 42.61 16.0222 42.5812 16.0584 42.5346 16.0772 42.3547 16.0741 42.2965 16.0836 42.1754 16.1412 42.1149 16.189 42.137 16.1932 42.2415 16.1537 42.3935 16.1326 42.5931 16.1297 42.7419 16.1088 42.8396 16.0698 42.9349 16.0808 43.0277 16.1418 43.0554 16.1954 43.018 16.2413 42.9415 16.274 42.8257 16.2937 42.7527 16.3231 42.7222 16.3622 42.7051 16.4203 42.7013 16.4975 42.7305 16.6365 42.7081 16.6553 42.6646 16.6656 42.6001 16.6675 42.542 16.7001 42.4062 16.885 42.3584 16.9051 42.3014 16.8852 42.2509 16.8874 42.2068 16.9115 42.1101 16.9299 41.9608 16.9426 41.8331 16.9378 41.6084 16.8977 41.5167 16.8696 41.4451 16.8233 41.2434 16.8723 41.1901 16.8509 41.0644 16.7228 41.0372 16.7304 41.013 16.8685 40.9747 16.9168 40.8503 17.0169 40.7823 17.1892 40.7616 17.1942 40.7384 17.1695 40.6618 17.0155 40.6212 16.9818 40.5086 17.0705 40.4963 17.1026 40.5257 17.2172 40.4996 17.2345 40.2718 17.1728 40.2157 17.1698 40.2009 17.1802 40.2785 17.2691 40.2697 17.3011 39.9476 17.4729 39.8635 17.4668 39.8107 17.4497 39.7527 17.4523 39.5479 17.5164 39.4914 17.5136 39.4141 17.4756 39.3782 17.4773 39.359 17.5167 39.3566 17.5938 39.2807 17.6671 39.0368 17.7855 38.972 17.84 38.923 17.9145 38.8866 17.9216 38.7435 17.8737 38.5777 17.8426 38.5548 17.8581 38.6051 17.9036 38.5945 17.9315 38.5228 17.9419 38.432 17.9379 38.3223 17.9194 38.1684 17.9403 37.9703 18.0005 37.805 17.9988 37.5745 17.8997 37.511 17.8923 37.4908 17.8644 37.5358 17.7843 37.6013 17.7236 37.6495 17.6958 37.8685 17.6181 38.1187 17.5895 38.276 17.5428 38.4673 17.4464 38.5685 17.3739 38.7673 17.1873 38.7522 17.1729 38.7075 17.1629 38.2704 17.3398 38.2058 17.3563 38.1189 17.355 37.7694 17.2872 37.6955 17.2582 37.645 17.1731 37.7421 16.9796 37.8101 16.8861 37.9808 16.7419 38.2039 16.588 38.2811 16.4881 38.3969 16.221 38.3902 16.0998 38.3381 15.9519 38.3361 15.8642 38.3843 15.8364 38.8963 15.6996 39.1387 15.5973 39.6093 15.4459 39.7374 15.4472 39.8315 15.4993 39.941 15.541 40.0659 15.5722 40.2265 15.5689 40.4231 15.5312 40.7344 15.5455 41.3738 15.6451 41.5098 15.6507 41.5151 15.638 41.4164 15.5682 40.9756 15.5278 40.79 15.4873 40.268 15.3094 40.149 15.2407 40.1973 15.2085 40.325 15.182 40.3688 15.1563 40.3872 15.1119 40.4607 15.0509 40.5891 14.9733 40.7852 14.8982 41.1565 14.7868 41.0111 14.7821 40.7442 14.8026 40.6471 14.8239 40.4683 14.9037 40.3988 14.9598 40.2993 15.0694 40.2569 15.0901 40.0716 15.106 39.5668 15.1171 39.4813 15.061 39.434 15.0519 39.3714 15.0598 38.9078 15.2029 38.7415 15.276 38.6231 15.3593 38.4398 15.4204 38.1919 15.4591 38.0063 15.5071 37.8109 15.6029 37.7446 15.6763 37.7407 15.7108 37.7879 15.8197 37.7397 15.8401 37.627 15.8487 37.446 15.9208 37.0642 16.1352 37.0143 16.213 37.0164 16.2397 37.0787 16.3003 37.0353 16.3397 36.9277 16.402 36.6883 16.5006 36.531 16.5382 36.429 16.5401 36.3308 16.526 36.1562 16.4625 36.0149 16.4586 36.0062 16.4675 36.1986 16.5355 36.3941 16.623 36.516 16.6956 36.5642 16.7533 36.5664 16.8127 36.5225 16.8738 36.3842 16.9799 36.2487 17.0117 35.9021 17.0437 35.7904 17.069 35.7558 17.0887 35.9939 17.1335 36.0154 17.1565 35.9827 17.2455 35.9194 17.2745 35.7211 17.3277 35.5432 17.3431 35.5161 17.3329 35.5493 17.2629 35.5398 17.2457 35.4731 17.2314 35.3782 17.2581 35.1419 17.3609 35.1166 17.3779 35.2019 17.4054 35.184 17.4285 35.0559 17.5025 35.0027 17.5518 34.917 17.602 34.5356 17.7557 34.5646 17.7931 34.4654 17.927 34.4104 18.0446 34.4779 18.0943 34.7982 18.1525 34.9535 18.1666 35.1365 18.2073 35.4678 18.3168 35.5781 18.3883 35.5947 18.422 35.5844 18.4588 35.5447 18.5084 35.4409 18.6021 35.1908 18.7414 35.0778 18.7808 34.9068 18.8118 34.8505 18.8344 34.6308 18.9664 34.5716 19.0377 34.581 19.0997 34.539 19.1433 34.2564 19.2288 34.2665 19.244 34.369 19.2505 34.3314 19.3258 34.3148 19.4304 34.2658 19.448 34.0892 19.4473 33.8647 19.488 33.8489 19.4995 33.8448 19.5748 33.2577 19.6299 33.1292 19.7728 33.0623 19.8166 32.8322 19.9205 32.6914 19.9624 32.5305 19.9876 32.4462 20.0228 32.4384 20.0681 32.3927 20.1071 32.2532 20.1717 32.185 20.2529 32.1354 20.2657 31.8759 20.2852 31.8242 20.3109 31.7991 20.4207 31.7511 20.4242 31.6591 20.3987 31.5392 20.4184 31.2698 20.5426 31.2106 20.5872 31.2172 20.6112 31.2591 20.6349 31.323 20.7087 31.319 20.7584 31.2152 20.8971 31.1787 20.9185 31.0525 20.9528 31.0011 21.0295 30.8847 21.021 30.7912 21.0356 30.73 21.0867 30.6634 21.1162 30.5915 21.1239 30.5011 21.1645 30.3922 21.2379 30.2914 21.2847 30.1987 21.3048 30.1086 21.3098 30.0209 21.2995 29.9421 21.308 29.8721 21.3351 29.8038 21.3776 29.7495 21.498 29.6804 21.5519 29.6367 21.5613 29.5475 21.5533 29.4128 21.528 29.2759 21.5369 29.055 21.6108 28.9849 21.6665 29.1241 21.6789 29.193 21.6949 29.1912 21.7105 29.1186 21.7256 28.9951 21.7246 28.9208 21.7375 28.8303 21.7693 28.6035 21.8036 28.5173 21.8282 28.3462 21.9679 28.3257 21.9995 28.3476 22.0065 28.4437 21.9918 28.5567 22.015 28.6153 22.0446 28.6528 22.081 28.6884 22.1512 28.7104 22.1615 28.4931 22.2795 28.4315 22.3295 28.3917 22.3481 28.3658 22.3337 28.3389 22.2024 28.3225 22.1801 28.2714 22.1778 28.2219 22.2193 28.1132 22.3746 27.995 22.4527 27.1052 22.6533 26.9748 22.6988 26.9496 22.7844 26.913 22.8585 26.854 22.9176 26.785 22.9549 26.7702 22.9284 26.7771 22.7199 26.7587 22.6785 26.669 22.6519 26.6296 22.6556 26.5753 22.6673 26.4863 22.7124 26.4318 22.7236 26.364 22.7199 26.248 22.7643 25.9723 22.9068 25.7923 22.9422 25.7447 22.9718 25.6678 23.0497 25.6169 23.0782 25.5415 23.0807 25.4417 23.0572 25.3615 23.0739 25.3008 23.1306 25.2391 23.153 25.064 23.1112 24.9869 23.1398 24.8867 23.213 24.7819 23.2613 24.6727 23.2847 24.389 23.3092 24.275 23.2936 24.2519 23.2723 24.2572 23.179 24.303 23.1116 24.3453 23.0799 24.4019 23.0518 24.4845 23.0485 24.6392 23.0695 24.6217 23.047 24.5654 23.0202 24.4231 22.974 24.2821 22.9504 24.2012 22.9654 24.0874 23.001 24.0101 23.0419 23.9694 23.0885 23.9182 23.2404 23.8887 23.2815 23.5566 23.5494 23.4263 23.6319 23.2974 23.6257 23.235 23.6569 23.1471 23.7238 23.0661 23.7558 22.9917 23.7529 22.9339 23.7402 22.8928 23.7176 22.8998 23.6966 22.9553 23.677 22.9354 23.6234 22.8402 23.5357 22.7753 23.488 22.6522 23.4825 22.6331 23.5224 22.6746 23.7263 22.6682 23.7722 22.591 23.8305 22.389 23.8953 22.3258 23.8889 22.1437 23.761 21.9716 23.7357 21.9602 23.7773 21.9986 23.8624 21.9556 23.9418 21.8312 24.0158 21.7365 24.0516 21.6716 24.0495 21.668 23.9977 21.7258 23.8963 21.7406 23.8118 21.7124 23.7443 21.7156 23.6924 21.7502 23.6562 21.9787 23.5559 22.0749 23.5409 22.1266 23.5657 22.1909 23.5699 22.268 23.5536 22.3167 23.5216 22.3368 23.4737 22.4354 23.4124 22.6124 23.3377 22.815 23.1997 23.0432 22.9983 23.3106 22.8248 23.6174 22.6791 23.9503 22.5636 24.6204 22.4047 24.6719 22.4144 24.6107 22.4659 24.6525 22.4981 24.7184 22.5023 24.964 22.4768 25.0614 22.4434 25.0903 22.4756 25.0561 22.5162 24.9087 22.5573 24.9129 22.5915 25.1272 22.7519 25.1946 22.7761 25.2506 22.7732 25.2744 22.7524 25.2565 22.6368 25.3289 22.6147 25.4772 22.6094 25.5739 22.6245 25.6189 22.6601 25.7037 22.6895 25.8283 22.7129 25.9057 22.7057 25.9357 22.668 25.8823 22.6231 25.6439 22.5243 25.5778 22.4832 25.5616 22.4258 25.5955 22.3523 25.6704 22.2433 25.7864 22.0986 25.8913 21.9976 26.1039 21.8832 26.2472 21.8266 26.6105 21.6532 27.3088 21.4766 27.4814 21.3632 27.7161 21.2381 27.8167 21.2073 27.8167 21.2557 27.8489 21.2988 28.0058 21.3275 28.1077 21.3375 28.1546 21.3287 28.1674 21.2828 28.1464 21.1995 28.1411 21.1209 28.1517 21.047 28.1746 20.9886 28.2792 20.8847 28.4348 20.7664 28.6473 20.6289 28.7815 20.5667 28.9081 20.5336 29.0303 20.4737 29.2408 20.332 29.3084 20.3087 29.4594 20.2808 29.5148 20.2932 29.5473 20.3287 29.5869 20.3509 29.7403 20.3708 29.8424 20.3392 29.8258 20.3225 29.7428 20.3118 29.6898 20.2912 29.6398 20.2066 29.5381 20.1557 29.5151 20.0982 29.5335 20.0085 29.6208 19.798 29.6352 19.5815 29.7129 19.4575 29.8692 19.4127 30.2155 19.3821 30.0128 19.326 29.9374 19.3256 29.8056 19.2993 29.7555 19.1643 29.7565 19.0661 29.8438 18.9524 30.1666 18.7606 30.5202 18.6279 30.4724 18.6169 30.4287 18.5775 30.5918 18.3116 30.7509 18.0743 30.5359 18.2765 30.2874 18.4313 29.5589 18.611 29.0633 18.7616 28.8282 18.7977 28.6729 18.7594 28.5518 18.6149 28.4827 18.5635 28.3938 18.4693 28.4313 18.3468 28.5017 18.262 28.6563 18.2481 28.8306 18.289 28.9818 18.2924 28.7869 18.2089 28.5056 18.1361 28.3782 18.1597 28.2807 18.278 28.1502 18.3593 28.0357 18.3305 27.9677 18.2974 28.0149 18.3966 27.9284 18.5477 27.8955 18.6523 28.0197 18.9284 27.9967 19.0388 27.7713 19.0894 27.5877 18.9987 27.2044 18.6488 27.0708 18.5491 26.7702 18.3847 26.6712 18.4081 26.5449 18.4892 26.4225 18.5116 26.0992 18.392 25.9487 18.3007 25.8063 18.1899 25.5882 18.2509 25.398 18.3235 25.1748 18.4396 25.0257 18.4386 24.62 18.5379 24.577 18.54 24.5199 18.5936 24.4639 18.6176 24.4177 18.7208 23.8694 18.8008 23.3276 18.756 23.5171 18.6993 23.7288 18.6546 23.9126 18.5472 23.8345 18.4038 23.8209 18.3307 23.8232 18.2382 24.0239 18.1085 23.8151 18.1088 23.6811 18.1552 23.5555 18.0577 23.4968 17.866 23.6403 17.7526 23.707 17.6653 23.7633 17.5453 23.7675 17.4422 23.6563 17.2676 23.337 16.8977 23.1919 16.6218 22.943 16.4748 23.1288 16.2343 23.336 16.0152 23.6035 15.9172 23.582 15.9025 23.4342 15.9032 23.3372 15.9162 23.2511 15.9874 23.1605 16.0419 22.8772 16.3208 22.6949 16.4568 22.5763 16.4957 22.7672 16.5485 22.7961 16.5929 22.8329 16.6938 22.784 16.8165 22.7352 16.8842 22.51 16.8787 22.308 16.9774 21.8328 17.0847 21.1915 17.146 20.8764 17.1387 20.5482 17.0135 20.5506 16.941 20.5639 16.8779 20.0923 16.6622 19.8256 16.4472 19.634 16.4425 19.4674 16.3852 19.2707 16.296 19.2879 16.224 19.3188 16.1734 19.1981 16.138 19.0434 16.1415 18.8635 16.117 19.3334 15.8404 19.4951 15.6552 19.6267 15.6289 19.7976 15.6575 20.0333 15.7305 20.232 15.7627 20.3038 15.7969 20.3773 15.8618 20.2998 15.9703 20.2289 16.0465 20.3161 16.0258 20.5635 15.9079 20.7475 15.8042 20.8357 15.815 20.8931 15.8332 20.9954 15.9402 21.1225 16.0491 21.4025 15.9454 21.5524 15.8162 21.4259 15.7595 21.2713 15.7261 20.8769 15.6821 20.9732 15.6451 21.2262 15.6492 21.3215 15.6137 21.2213 15.5647 21.096 15.5208 20.7543 15.667 20.1326 15.6596 19.698 15.5743 19.2644 15.5891 19.1959 15.5722 19.1116 15.5265 19.3558 15.418 19.5288 15.358 19.538 15.3232 19.4375 15.3189 19.2485 15.3477 19.1642 15.2977 19.1779 15.211 19.147 15.2188 19.0722 15.2661 18.9665 15.2428 18.8759 15.2037 18.9234 15.1621 19.0163 15.1049 18.975 15.0964 18.8915 15.1085 18.8103 15.1834 18.828 15.244 18.826 15.3309 18.6873 15.3468 18.5685 15.3364 18.4826 15.2489 18.3939 15.0615 18.1538 15.0117 18.0949 14.917 18.2468 14.7954 18.1797 14.7328 18.0183 14.7124 17.8338 14.7738 17.7521 14.7192 17.7371 14.6593 17.7307 14.5733 17.7821 14.5643 17.8248 14.5813 18.1947 14.5336 18.2304 14.5104 17.9368 14.4377 17.8549 14.3615 17.9765 14.3183 18.1957 14.3146 18.5032 14.2694 18.3738 14.1885 18.3468 14.1441 18.3208 14.0713 18.3718 13.9478 18.7329 13.6648 19.0851 13.4288 19.1949 13.3743 19.3561 13.345 19.5062 13.3675 19.6629 13.4182 19.6926 13.3965 19.6394 13.3758 19.5722 13.2792 19.7898 13.2414 19.9173 13.1323 19.9268 13.1007 19.7884 13.1461 19.6441 13.2206 19.608 13.1457 19.5708 12.9733 19.6344 12.8104 19.6839 12.7373 19.8044 12.668 20.1513 12.6402 20.2123 12.654 20.2251 12.6213 20.0162 12.5188 20.1024 12.4388 20.1778 12.3973 20.5972 12.3323 20.8263 12.3525 21.1138 12.4282 21.2806 12.5223 21.2564 12.5706 21.2149 12.5986 21.1284 12.6299 21.0961 12.6542 21.1116 12.6736 21.2347 12.6174 21.4364 12.5491 21.5493 12.5788 21.6388 12.6328 21.7376 12.6318 22.0514 12.5855 22.2108 12.5364 22.4055 12.409 22.6646 12.3266 23.0286 12.0668 23.1358 11.9602 23.2603 11.9438 23.3727 11.9533 23.4509 12.0407 23.5654 12.0663 24.2172 12.0451 24.5503 12.005 24.7816 11.9203 25.0223 11.7775 25.1617 11.6818 25.2284 11.5571 25.1423 11.3958 25.054 11.2618 24.9377 10.9557 24.6141 10.7535 24.3838 10.6932 24.2377 10.7018 24.3436 10.573 24.6518 10.5868 24.8525 10.5617 25.015 10.4996 25.0682 10.4526 25.1485 10.3566 25.1208 10.2541 25.0776 10.1985 24.9656 10.1373 24.8324 10.0476 24.7393 10.0178 24.6603 10.0198 24.2716 10.1995 24.0384 10.2028 23.8639 10.1697 23.7124 10.2721 23.2895 10.3619 23.0637 10.4527 22.6448 10.6781 22.54 10.78 22.4065 10.7847 22.31 10.5868 21.8544 10.3982 21.7167 10.4623 21.7926 10.5216 21.8959 10.5638 22.066 10.5822 21.9927 10.6394 21.9372 10.7156 21.7665 10.6442 21.4617 10.5404 21.146 10.4869 20.324 10.4929 19.7844 10.5993 19.7348 10.5773 19.6827 10.5684 19.5928 10.5938 19.5543 10.637 19.4955 10.6644 19.3853 10.6741 19.1635 10.658 18.735 10.5918 17.7659 10.4945 17.5123 10.4348 17.2949 10.2924 17.2994 10.1957 17.396 10.1548 17.3869 10.0163 17.1982 9.9795 16.8141 9.7804 16.673 9.6956 16.7036 9.6862 16.7726 9.7092 16.9037 9.7264 17.2258 9.6988 17.3362 9.57 17.5755 9.5332 17.7955 9.5514 17.7461 9.5164 17.6899 9.489 17.1168 9.4234 17.0389 9.4435 16.0114 9.3269 15.2 9.1242 15.1335 9.0855 15.0593 8.999 15.1688 8.9137 15.2788 8.8733 15.2838 8.9203 15.3014 8.9664 15.7665 8.8592 16.0095 8.7186 16.4701 8.694 16.5773 8.6552 16.7202 8.5797 16.9244 8.4508 17.2131 8.3829 17.4099 8.322 17.666 8.2861 17.8847 8.3459 17.9521 8.3541 18.349 8.3664 18.4794 8.3404 18.5349 8.3211 18.5764 8.2905 18.1868 8.182 18.2263 8.1216 18.2759 8.0791 18.7305 7.9527 19.0799 7.9109 19.2667 7.9138 19.8091 7.7508 20.1062 7.7043 20.6658 7.6733 21.1257 7.6653 21.2501 7.7235 21.0032 7.7112 20.8944 7.7218 20.9719 7.7417 21.0592 7.7841 21.0339 7.8376 20.882 7.9966 20.8944 8.1238 20.7956 8.165 20.6999 8.2231 21.1707 8.4063 21.8995 8.418 22.296 8.3849 22.5251 8.4397 22.7128 8.4522 23.2311 8.4241 23.6214 8.4633 23.7847 8.4483 24.1457 8.1744 24.2868 8.1315 24.4403 8.1791 24.6406 8.2177 24.7684 8.1897 24.8727 8.2603 24.8236 8.1131 24.753 8.0578 24.163 7.9567 23.7682 8.007 23.6448 7.95 23.6856 7.837 23.2633 7.5587 23.0872 7.5022 22.8789 7.4995 22.7729 7.4029 22.6842 7.2787 22.8638 7.228 23.0261 7.2051 23.1764 7.2449 23.3464 7.4081 23.5047 7.4321 23.4586 7.5946 23.655 7.7444 24.0982 7.8837 24.453 7.8324 24.7036 7.8339 24.8534 7.8632 25.2202 7.9882 25.4065 8.0039 25.9892 7.9383 25.9952 7.8155 25.9463 7.7265 25.8095 7.6708 25.4159 7.6813 25.1095 7.5897 24.8488 7.6148 24.3666 7.7552 24.125 7.6999 23.9731 7.6249 23.7286 7.5486 23.6979 7.4045 23.903 7.2392 24.0547 7.1605 23.9188 7.1032 23.5773 7.0628 22.9845 7.1041 22.9566 7.0479 22.9596 6.9872 22.718 7.106 22.4699 7.0811 22.1357 7.0938 21.3982 6.9891 21.1356 6.8597 21.0254 6.7548 20.8266 6.4674 20.5727 6.2877 18.8187 5.6772 18.0208 5.5237 17.6363 5.354 17.3954 5.3122 17.1654 5.2951 16.8707 5.2403 17.0688 5.173 17.2051 5.1503 17.0633 5.2206 17.171 5.2383 17.3427 5.1977 17.4352 5.1492 17.5709 4.9431 17.7113 4.6316 17.6737 4.5089 18.647 4.5337 19.2946 4.513 19.5092 4.4852 20.3263 4.4378 20.5379 4.4035 20.9306 4.2984 21.3928 4.1128 21.7895 3.869 21.8526 3.8034 21.8777 3.8202 21.9134 3.8098 21.9558 3.7174 22.0079 3.4999 22.2047 3.2948 23.0417 2.8273 23.4302 2.6422 23.5598 2.5581 23.6948 2.4968 23.7899 2.5551 23.8353 2.5725 23.8616 2.5998 23.7818 2.6127 23.6517 2.6724 23.4702 2.7125 23.4264 2.733 23.5328 2.7284 23.8517 2.6849 24.0314 2.632 24.9255 2.5346 25.4105 2.3732 25.4293 2.3373 26.1486 2.1358 26.2481 2.1436 26.3628 2.1679 26.1635 2.3009 26.3038 2.3357 26.1793 2.4946 26.4401 2.4972 26.4984 2.5704 26.5129 2.5073 26.5097 2.4168 26.5304 2.3281 26.5689 2.2668 26.7521 2.2945 27.1646 2.2286 26.6646 2.2203 26.3646 2.0762 26.198 2.0751 26.7554 1.8638 27.2652 1.7361 27.3803 1.7386 27.4359 1.7624 27.4479 1.8009 27.3379 1.8261 27.2299 1.8714 27.2796 1.9114 27.3533 1.9171 27.5983 1.8842 27.7078 1.8431 28.23 1.8467 28.3832 1.8174 28.42 1.7882 29.0959 1.7823 29.2199 1.7617 29.6425 1.6488 30.0332 1.512 30.2133 1.4374 30.5221 1.2471 30.7865 1.1234 31.222 1 31.3263 1.0153 31.1852 1.0397 31.087 1.092 31.2224 1.1615 32.1389 1.305 32.3692 1.3129 32.4612 1.3987 32.3845 1.4815 32.1483 1.5735 31.6722 1.6675 31.8178 1.7031 31.913 1.7869 32.0539 1.7971 32.2823 1.7657 32.4613 1.7141 32.8314 1.5463 32.9477 1.4527 33.0352 1.4291 33.3455 1.4516 33.5212 1.4997 33.7213 1.5851 33.6481 1.6676 33.5661 1.7142 33.8257 1.7786 34.1129 1.792 34.3869 1.8438 34.7723 1.7378 35.0739 1.7151 35.3572 1.7187 35.7256 1.6609 36.3489 1.7396 36.5075 1.7192 36.7574 1.7327 37.0229 1.7803 37.1168 1.831 36.8325 1.9382 36.7861 2.049 36.8854 2.0951 37.0656 2.1031 37.0883 2.1677 37.2002 2.1839 37.7621 2.179 37.7192 2.2098 37.6917 2.2469 37.5178 2.3293 38.5192 2.3757 38.6539 2.33 38.8611 2.3118 39.3013 2.2489 39.467 2.2764 39.6622 2.3408 39.8425 2.3541 40.011 2.341 40.4038 2.2493 40.8574 2.2448 41.0431 2.2747 41.2395 2.2616 41.8302 2.3668 42.0478 2.3791 42.3388 2.516 42.4891 2.5201 42.6593 2.462 42.8069 2.4638 42.9511 2.5194 43.1869 2.5364 43.2968 2.6242 43.4153 2.6561 44.309 2.7212 44.7515 2.6915 45.3965 2.6993 45.7075 2.7409 46.0338 2.7356 46.5667 2.8874 46.8495 2.9111 46.9044 2.9462 47.7087 2.9832 47.9901 2.904 48.4809 2.883 48.9228 2.8165 49.1733 2.8171 49.4646 2.8337 49.5766 2.8257 49.6575 2.7966 50.3677 2.9113 50.7652 3.0425 50.9393 3.1393 51.7708 3.2778 52.0113 3.3552 52.1761 3.4405 52.2725 3.4497 52.3406 3.4247 52.6311 3.4321 52.7406 3.4441 52.7406 3.8506 52.7406 4.2571 52.7406 4.6636 52.7406 5.0701 52.7406 5.4766 52.7406 5.8831 52.7406 6.2896 52.7406 6.6962 52.7406 7.1026 52.7406 7.5091 52.7406 7.9157 52.7406 8.3221 52.7406 8.7286 52.7406 9.1352 52.7406 9.5416 52.7406 9.9481 52.7406 10.3547 52.7406 10.7612 52.7406 11.1677 52.7406 11.5742 52.7406 11.9807 52.7406 12.3872 52.7406 12.7937 52.7406 13.2002 52.7406 13.6066 52.7406 14.0132 52.7406 14.4197 52.7406 14.8262 52.7406 15.2327 52.7406 15.6392 52.7406 16.0457 52.7406 16.4522 53.0736 16.5094 53.4038 16.5661 53.5048 16.453 53.8608 16.5395 54.1719 16.6151 54.3703 16.5181 54.585 16.4131 54.8749 16.4057 55.1993 16.3973 55.4156 16.3918 55.4156 16.4811 55.3353 16.6296 55.2683 16.7536 55.4654 16.8793 55.7085 16.9454 55.9356 17.0072 56.0374 17.1784 56.286 17.3103 56.4752 17.4109 56.6563 17.5071 56.9155 17.6449 57.0971 17.7413 57.3391 17.8699 57.4828 17.9463 57.5518 18.0949 57.6346 18.2733 57.5836 18.3788 57.6981 18.3958 57.9221 18.2775 58.1326 18.2041 58.3926 18.1134 58.568 18.0523 58.8942 18.0493 59.05 17.8716 59.0506 17.6224 59.2154 17.6266 59.3127 17.5928 59.3556 17.5197 59.2517 17.4196 59.5642 17.373 59.7903 17.3392 60.1131 17.2472 60.4284 17.1575 60.5788 17.227 60.7277 17.2942 61.0195 17.456 61.0395 17.495 61.0198 17.571 60.9914 17.6469 61.1688 17.86 61.2196 17.8838 61.3654 17.9133 61.5395 17.9838 61.6164 18.045 61.8685 18.1423 61.911 18.1828 61.9349 18.2483 61.976 18.3045 62.0231 18.3449 62.0685 18.4023 62.1777 18.4699 62.3854 18.5455 62.5294 18.5979 62.731 18.6714 62.9353 18.8215 63.1127 18.9518 63.3148 19.0806 63.285 19.1833 63.4899 19.3422 63.7053 19.5441 63.8709 19.7232 63.9885 19.8233 64.1295 19.9684 64.302 20.1459 64.4982 20.3479 64.6484 20.4775 64.8443 20.659 64.941 20.7672 64.8753 20.8412 64.7938 20.9329 65.0456 20.9763 65.2201 21.0064 65.1765 21.1082 65.1189 21.2426 65.3162 21.2956 65.4502 21.3316 65.4226 21.4021 65.4962 21.4818 65.5085 21.6138 65.7488 21.6053 65.8551 21.6015 65.9987 21.66 66.188 21.7373 66.3778 21.8096 66.5398 21.8713 66.7522 21.9078 67.0145 21.9604 67.1434 22.0677 67.3826 22.1138 67.4716 22.2641 67.7476 22.3193 67.9102 22.2825 67.9685 22.3438 68.0145 22.4144 68.0268 22.5033 68.0114 22.59 Z M 21.4758 23.8525 21.6108 24.0823 21.6693 24.1273 21.7561 24.1518 21.8777 24.1766 21.9501 24.2106 22.0139 24.2624 22.0222 24.2862 21.6398 24.1934 21.3995 24.3288 21.327 24.3464 20.6449 24.353 20.5086 24.3779 20.4205 24.422 20.2646 24.5457 20.1855 24.5938 20.1021 24.6224 19.9249 24.6543 19.7121 24.65 19.6013 24.6338 19.5419 24.575 19.4893 24.459 19.4897 24.4267 19.512 24.3713 19.7015 24.2946 19.7644 24.2542 20.0099 23.9914 20.081 23.9553 20.1566 23.9465 20.3661 23.9647 20.5451 23.8881 20.9305 23.7713 21.0152 23.7574 21.2929 23.755 21.3687 23.7731 21.4273 23.8058 21.4758 23.8525 Z M 63.4484 23.0693 63.4789 23.1084 63.481 23.1331 63.2796 23.2255 63.2759 23.2446 63.2286 23.3017 63.1864 23.3226 63.1114 23.3844 62.9683 23.4511 62.9894 23.2507 62.8474 23.1344 62.9905 23.0755 63.0845 23.0923 63.2402 23.0991 63.3921 23.0479 63.4484 23.0693 Z M 66.1825 23.7146 66.3248 23.8959 66.3324 23.9596 66.1967 23.9819 66.0901 23.9728 66.0351 23.9518 66.0207 23.9223 66.0551 23.8306 65.985 23.7767 65.9039 23.7582 65.8313 23.79 65.8273 23.6995 65.8817 23.6345 65.8513 23.5463 65.8504 23.4796 65.8686 23.4583 65.942 23.4602 66.0923 23.5289 66.1825 23.7146 Z M 65.1077 22.2824 65.079 22.5135 65.0239 22.5004 64.9714 22.5 64.8643 22.5328 64.7512 22.5184 64.6984 22.4927 64.6789 22.463 64.6991 22.3944 64.6364 22.3561 64.4252 22.3422 64.346 22.3258 64.3022 22.2536 64.2916 22.1588 64.3247 22.1234 64.4311 22.0984 64.5142 21.9836 64.5601 21.9681 64.7356 21.7407 64.8237 21.7563 64.978 21.8949 65.1709 22.0948 65.1077 22.2824 Z M 66.6842 23.1452 66.6358 23.298 66.54 23.4545 66.3938 23.5387 66.2909 23.52 66.2151 23.4522 66.1448 23.4559 66.0699 23.4419 66.0279 23.3857 66.0676 23.3132 66.0325 23.257 65.995 23.3061 65.9292 23.3512 65.763 23.4098 65.6484 23.5219 65.5944 23.595 65.527 23.5153 65.4838 23.3267 65.4781 23.2466 65.5986 23.1258 65.7543 23.0111 65.7858 22.6687 66.2806 22.4966 66.3266 22.5055 66.4873 22.634 66.6582 22.8134 66.7025 22.8943 66.7038 23.0355 66.6842 23.1452 Z M 63.3634 21.0385 63.4559 21.0821 63.5062 21.0364 63.6002 21.0386 63.7744 21.0792 63.8781 21.1402 63.9366 21.2099 63.9416 21.2514 63.9239 21.3459 63.9368 21.4425 63.9296 21.4927 63.9064 21.5341 63.8671 21.5668 63.8243 21.571 63.6887 21.484 63.5334 21.3274 63.4152 21.2798 63.4104 21.2959 63.4429 21.3408 63.5394 21.425 63.5567 21.4757 63.6246 21.5375 63.6549 21.5844 63.6722 21.6459 63.6715 21.6997 63.6528 21.7457 63.6213 21.7752 63.577 21.7882 63.3404 21.7753 63.1993 21.8061 63.0343 21.7889 62.9945 21.7612 62.9696 21.7156 62.957 21.605 62.9155 21.4468 62.9255 21.3251 62.819 21.215 62.7279 21.1486 62.5968 21.0892 62.5103 21.0301 62.5341 20.9829 62.6681 20.9478 62.8883 20.956 63.3634 21.0385 Z M 64.0645 23.9726 64.0986 23.9913 64.1331 23.9781 64.1896 23.9285 64.2893 23.9383 64.3613 23.955 64.4053 23.9753 64.382 24.0476 64.364 24.1649 64.3227 24.2066 64.2821 24.2651 64.141 24.2303 64.0264 24.1559 63.8604 24.0276 63.768 23.9351 63.7608 23.8961 63.7021 23.8677 63.5882 23.7082 63.5234 23.582 63.4209 23.5676 63.2914 23.5326 63.2415 23.4635 63.276 23.4031 63.4603 23.3726 63.7373 23.5284 63.7795 23.5945 63.8788 23.6718 63.8976 23.7798 63.948 23.8221 64.0645 23.9726 Z M 45.2397 16.2443 45.2707 16.2826 45.538 16.2734 45.6149 16.2801 45.6455 16.2979 45.6093 16.3238 45.5062 16.3579 45.2046 16.4177 44.9596 16.4964 44.9276 16.4892 44.8829 16.403 44.8376 16.3681 44.8099 16.3195 44.8104 16.3015 44.8553 16.2681 44.9448 16.2191 45.0083 16.2013 45.2397 16.2443 Z M 43.3729 17.1297 43.2192 17.1498 43.1829 17.1087 43.2637 17.0063 43.3281 16.9481 43.376 16.9344 43.5526 16.8189 43.7486 16.7349 43.9284 16.612 44.1111 16.4368 44.145 16.3715 44.2296 16.3648 44.369 16.4077 44.4552 16.468 44.4151 16.5161 43.9536 16.7651 43.9148 16.7976 43.8728 16.8822 43.8348 16.9117 43.774 16.9252 43.7297 16.9621 43.702 17.0227 43.645 17.0542 43.5591 17.0569 43.4994 17.0735 43.4663 17.1042 43.3729 17.1297 Z M 43.4809 16.2432 43.4803 16.2799 43.4366 16.315 43.4785 16.3795 43.4061 16.4904 43.3781 16.561 43.3394 16.6052 43.3006 16.6224 43.2617 16.6123 43.2535 16.5879 43.2763 16.549 43.1844 16.5502 43.1564 16.4534 43.2073 16.4227 43.2257 16.3812 43.2314 16.3534 43.2913 16.2302 43.3127 16.2215 43.3196 16.2509 43.339 16.2595 43.3709 16.2475 43.4186 16.1927 43.4387 16.1863 43.4809 16.2432 Z M 43.1018 15.7206 42.9256 15.732 42.8449 15.7144 42.8332 15.6953 42.8667 15.6251 42.864 15.5954 42.9529 15.5843 43.055 15.6176 43.0846 15.6521 43.1018 15.7206 Z M 36.0398 20.8697 35.8629 20.9146 35.8315 20.9127 35.7222 21.0036 35.6387 21.0428 35.5285 20.9712 35.5567 20.8598 35.6529 20.7859 36.1394 20.8106 36.1771 20.8313 36.178 20.849 36.1422 20.8636 36.0398 20.8697 Z M 36.7646 18.9775 36.7236 18.9864 36.6219 18.9438 36.5552 18.8986 36.5993 18.8643 36.7964 18.7918 36.8906 18.7906 36.929 18.8021 36.9444 18.8245 36.9368 18.8581 36.8943 18.8998 36.7646 18.9775 Z M 35.7149 19.8608 35.676 19.8993 35.6393 19.8894 35.5616 19.8442 35.4027 19.7783 35.3303 19.733 35.3261 19.7138 35.3804 19.6925 35.5669 19.7457 35.6461 19.7943 35.7149 19.8608 Z M 32.4799 22.6833 32.4258 22.7273 32.3205 22.7241 32.2612 22.7097 32.2415 22.6713 32.404 22.5554 32.441 22.5398 32.4698 22.5443 32.4828 22.5922 32.4799 22.6833 Z M 33.7086 21.8283 33.6134 21.8612 33.5818 21.8499 33.5773 21.8226 33.5999 21.7791 33.6438 21.736 33.7908 21.6536 33.9385 21.5991 34.0138 21.6024 34.0396 21.6371 33.9473 21.7091 33.7086 21.8283 Z M 34.3682 21.7182 34.2998 21.7213 34.1964 21.6847 34.2102 21.6407 34.3569 21.5877 34.5049 21.5958 34.5162 21.6254 34.5094 21.6585 34.4971 21.6779 34.4501 21.6978 34.3682 21.7182 Z M 25.3587 23.3878 25.3798 23.3885 25.4228 23.3778 25.513 23.2995 25.5425 23.296 25.5429 23.3202 25.5003 23.3978 25.5725 23.5013 25.64 23.5511 25.6333 23.5685 25.4642 23.6045 25.3352 23.5786 25.2673 23.5875 25.2054 23.6237 25.1631 23.5837 25.1338 23.3926 25.1434 23.3591 25.2136 23.2927 25.3044 23.2628 25.3437 23.2715 25.3764 23.2979 25.3845 23.3257 25.3587 23.3878 Z M 23.1144 24.0385 23.0813 24.045 22.9856 24.0024 22.9508 23.9705 22.9256 23.9209 23.1207 23.8495 23.1611 23.8487 23.1976 23.8887 23.204 23.9203 23.15 24.0105 23.1144 24.0385 Z M 22.7579 24.6585 22.6373 24.6889 22.5093 24.6572 22.4 24.5986 22.3877 24.5289 22.6313 24.5741 22.6834 24.5955 22.7579 24.6585 Z M 26.4882 23.6466 26.4034 23.6771 26.3768 23.7159 26.3123 23.7322 26.2581 23.7638 26.0756 23.9068 25.9956 23.9332 26.084 23.8112 26.0978 23.7724 26.0995 23.7466 26.0721 23.6545 26.1255 23.6585 26.1693 23.6394 26.2576 23.5579 26.3371 23.5506 26.4222 23.4535 26.4682 23.4459 26.4909 23.459 26.4531 23.5178 26.5349 23.572 26.5145 23.6244 26.4882 23.6466 Z M 18.185 25.1186 18.1323 25.1431 18.0899 25.1485 18.0579 25.1345 17.9139 25.1512 17.8858 25.1413 17.8215 25.0583 17.8174 25.0154 17.8425 24.9816 17.9072 24.9508 18.0113 24.9233 18.1136 24.9289 18.2922 25.0053 18.376 25.05 18.3918 25.0779 18.3292 25.104 18.185 25.1186 Z M 18.5751 25.0267 18.5143 25.0372 18.4996 25.0227 18.4925 24.9615 18.4457 24.8644 18.5345 24.8292 18.5897 24.821 18.6131 24.8359 18.6772 24.9082 18.7412 24.9275 18.7883 24.943 18.7052 24.9652 18.5751 25.0267 Z M 25.033 18.8494 24.9309 18.8717 24.8226 18.8604 24.7374 18.7226 24.8027 18.7183 24.9395 18.6277 25.2423 18.5543 25.3166 18.5459 25.033 18.8494 Z M 8.585 16.2336 8.8857 16.3249 9.0785 16.3155 9.2315 16.3918 9.2947 16.4538 9.0651 16.4093 8.7332 16.4124 8.2843 16.2261 8.1234 16.1838 8.1601 16.0793 8.3323 16.0257 8.4209 16.1664 8.585 16.2336 Z M 12.1766 20.7875 12.0326 20.8531 11.9019 20.8289 11.8631 20.781 11.8621 20.7609 12.2383 20.707 12.1766 20.7875 Z M 12.8285 26.8204 12.806 26.8763 12.7856 26.8969 12.5705 26.8671 12.4269 26.8779 12.4113 26.8447 12.4242 26.8153 12.6494 26.7702 12.7409 26.7699 12.802 26.7934 12.8285 26.8204 Z M 11.3796 27.1902 11.2906 27.2344 11.2646 27.218 11.2493 27.1635 11.2993 27.121 11.451 27.0288 11.554 27.0462 11.5866 27.0705 11.5838 27.1055 11.5457 27.1511 11.4967 27.1741 11.4368 27.1743 11.3796 27.1902 Z M 8.971 27.6204 8.8676 27.641 8.7553 27.6196 8.8077 27.5462 8.8613 27.507 8.9632 27.4594 9.0846 27.4803 9.1813 27.5407 8.971 27.6204 Z M 12.7404 21.5511 12.9231 21.5788 13.0253 21.5607 13.1154 21.5752 13.1312 21.6081 12.9746 21.6799 12.911 21.6754 12.7252 21.5888 12.7404 21.5511 Z M 3.6541 28.2886 3.5665 28.3702 3.5019 28.3332 3.4774 28.221 3.5263 28.1924 3.6631 28.2735 3.6541 28.2886 Z M 4.023 27.9958 3.9902 28.0367 3.8542 27.9932 3.806 27.9577 3.7962 27.9212 3.8364 27.8609 3.9453 27.8601 4.0095 27.8847 4.0695 27.9304 4.0873 27.9589 4.023 27.9958 Z M 2.4556 28.3932 2.4155 28.4114 2.342 28.4255 2.1298 28.4098 2.0015 28.4148 1.8583 28.4246 1.7507 28.4491 1.7294 28.415 1.733 28.387 2.1961 28.3105 2.3039 28.2705 2.37 28.22 2.4303 28.1252 2.4789 28.0969 2.5087 28.0983 2.5741 28.1356 2.5511 28.1848 2.4929 28.2276 2.4738 28.2678 2.4556 28.3932 Z M 497.3244 28.1157 497.2358 28.1395 497.1884 28.0791 497.1846 28.0441 497.2324 28.0066 497.3176 28.0304 497.3686 28.0645 497.3244 28.1157 Z M 498.5431 28.872 498.3018 28.8725 497.8118 28.646 497.5631 28.5741 497.4252 28.4946 497.4867 28.4778 497.7869 28.534 498.0322 28.6562 498.1677 28.7366 498.3244 28.8049 498.493 28.8327 498.5431 28.872 Z M 490.5734 27.499 490.4831 27.503 490.4252 27.4549 490.1277 27.4361 490.1585 27.3903 490.2865 27.3712 490.4828 27.2979 490.6476 27.3104 490.604 27.3778 490.5734 27.499 Z M 61.1326 20.5545 61.2507 20.7071 61.3365 20.8256 61.4126 20.968 61.5401 21.2628 61.5996 21.3743 61.6182 21.4353 61.6323 21.5951 61.6132 21.6295 61.5751 21.661 61.5676 21.7066 61.6029 21.8285 61.6052 22.0138 61.5719 22.1181 61.5331 22.1338 61.4379 22.0996 61.3598 22.0433 61.302 21.9845 61.1599 21.799 61.1176 21.7126 61.115 21.6504 61.1369 21.6052 61.1835 21.5771 61.2643 21.5018 61.2527 21.4899 61.1913 21.5066 61.0657 21.5162 60.9553 21.4568 60.8693 21.4254 60.8866 21.3183 60.8636 21.2881 60.6943 21.3211 60.6306 21.2912 60.6167 21.251 60.6198 21.1908 60.6521 21.1382 60.8128 21.0053 60.7967 20.9809 60.7186 20.9754 60.6156 20.9299 60.5684 20.7812 60.4576 20.6964 60.3922 20.7041 60.2434 20.944 60.1698 20.9964 59.9605 21.0301 60.0031 20.9634 60.0225 20.9037 59.9482 20.7228 59.9459 20.6533 59.9955 20.602 60.1433 20.5807 60.2217 20.5504 60.2829 20.5008 60.2981 20.4525 60.4126 20.3248 60.4663 20.3 60.6088 20.3017 60.9088 20.4429 60.9998 20.4637 61.1326 20.5545 Z M 61.5353 19.4273 61.8889 19.4591 62.1477 19.4519 62.3841 19.6598 62.5296 19.8278 62.6151 19.9455 62.6635 20.0591 62.7283 20.1688 62.7225 20.1842 62.586 20.1102 62.4879 19.9604 62.4377 19.9018 62.3881 19.8754 62.336 19.8201 62.2347 19.677 62.2309 19.6367 62.1859 19.5994 62.134 19.5838 62.075 19.59 62.0548 19.6044 62.0638 19.7031 62.1101 19.8129 62.3653 20.0525 62.5358 20.189 62.5693 20.2343 62.5918 20.3589 62.5182 20.4155 62.6085 20.5305 62.6053 20.5529 62.5856 20.5749 62.3425 20.6259 62.1198 20.8392 61.8761 20.9641 61.7638 20.9841 61.7099 20.9633 61.6588 20.9154 61.6288 20.8515 61.6198 20.7714 61.6805 20.721 61.8011 20.4589 61.8045 20.3728 61.6542 20.2534 61.5637 20.1557 61.5147 20.0194 61.4326 19.6591 61.3945 19.5439 61.3408 19.4479 61.2714 19.3711 61.219 19.2866 61.1836 19.1946 61.197 19.1589 61.3173 19.2068 61.4617 19.3392 61.5353 19.4273 Z M 60.0745 19.3124 60.2732 19.448 60.2749 19.4791 60.2344 19.5723 60.1263 19.5986 60.1569 19.6356 60.2374 19.6636 60.2948 19.6403 60.5046 19.5098 60.5692 19.4823 60.6083 19.4795 60.864 19.5189 61.0876 19.5812 61.1536 19.6309 61.1907 19.7179 61.1314 19.9065 60.9478 19.9393 60.8613 19.9359 60.7689 19.9084 60.6197 19.9741 60.7433 20.0243 61.1199 20.0357 61.2343 20.1419 61.2671 20.2237 61.1858 20.374 60.9725 20.3324 60.7842 20.2454 60.3979 20.1221 60.3056 20.1163 60.2439 20.1381 60.2271 20.2129 60.231 20.3751 60.1279 20.4592 59.8235 20.4221 59.704 20.2993 59.5928 20.105 59.1732 19.8748 59.0596 19.8288 58.9083 19.6909 58.9689 19.5818 58.9867 19.5187 59.0672 19.502 59.1853 19.4532 59.2514 19.3477 59.3576 19.4331 59.4994 19.5152 59.5014 19.4381 59.5681 19.3766 59.7072 19.3788 59.7725 19.3659 59.8639 19.3084 59.9956 19.2787 60.0745 19.3124 Z M 63.0853 21.9626 63.3489 21.9925 63.5905 21.9896 63.6729 22.047 63.7275 22.1075 63.7591 22.1644 63.7679 22.2177 63.7614 22.2555 63.732 22.2957 63.7384 22.3093 64.2101 22.4415 64.4326 22.5806 64.5214 22.6537 64.5726 22.7154 64.6656 22.87 64.8621 23.0493 64.9653 23.1039 65.0237 23.1571 64.9909 23.1591 64.8524 23.1197 64.5527 22.9994 64.5283 23.0042 64.5012 23.0693 64.4547 23.1264 64.3858 23.1674 64.441 23.1797 64.6827 23.1539 64.8856 23.2711 64.9645 23.2921 65.0411 23.3764 65.0436 23.4086 64.9991 23.471 64.9651 23.4963 64.9765 23.5135 65.0331 23.5224 65.2569 23.5049 65.2968 23.5355 65.2635 23.7786 65.2952 23.8682 65.2947 23.9088 65.2688 23.9628 65.2679 24.0085 65.2881 24.0554 65.2906 24.0972 65.2338 24.2064 65.1739 24.2248 65.0771 24.2256 65.0007 24.1945 64.8935 24.1007 64.7892 23.9548 64.749 23.9339 64.612 23.912 64.5872 23.8947 64.4998 23.8917 64.4379 23.8316 64.4453 23.7529 64.3918 23.6726 64.3985 23.6366 64.3384 23.6215 64.2877 23.6441 64.314 23.7229 64.2844 23.7839 64.1757 23.7582 63.9944 23.5635 63.7885 23.4071 63.7079 23.3699 63.7295 23.3245 63.8311 23.3005 63.9135 23.3024 63.93 23.2754 63.7581 23.1244 63.7638 23.0815 63.8264 23.0053 63.7481 22.9735 63.5338 22.9974 63.4579 22.9814 63.3959 22.9203 63.3595 22.8672 63.1735 22.8576 63.1032 22.8642 62.9818 22.784 62.9266 22.7334 62.9486 22.7075 63.0603 22.662 63.1256 22.6683 63.251 22.7169 63.3001 22.7151 63.4247 22.6507 63.4437 22.5925 63.5369 22.5447 63.5221 22.4942 63.4705 22.4085 63.3564 22.3846 63.1235 22.4356 62.921 22.5141 62.8399 22.4834 62.8223 22.4353 63.0392 22.3043 63.1343 22.2319 63.1159 22.189 63.0459 22.1335 63.0401 21.9946 63.0853 21.9626 Z M 62.4962 21.259 62.5863 21.3554 62.717 21.3476 62.7903 21.4205 62.8456 21.5297 62.8054 21.5997 62.7474 21.5841 62.683 21.6246 62.6436 21.7591 62.6619 21.8938 62.6422 22.0281 62.5672 22.1651 62.5517 22.2568 62.5223 22.2844 62.49 22.2939 62.4483 22.269 62.3878 22.2495 62.3114 22.3269 62.2179 22.3275 62.1408 22.1518 62.2098 21.8593 62.3643 21.7997 62.2723 21.7202 62.0779 21.6276 62.0944 21.5761 61.9469 21.4273 61.9383 21.3919 61.9618 21.2678 62.0999 21.1572 62.2824 21.1375 62.4096 21.1849 62.4809 21.2254 62.4962 21.259 Z M 36.8608 19.1511 36.9111 19.1624 36.9636 19.0796 37.0008 19.077 37.1654 19.1471 37.2666 19.1315 37.3316 19.2177 37.3899 19.2256 37.4439 19.2151 37.4765 19.2211 37.4651 19.3123 37.345 19.4047 37.289 19.4281 37.2106 19.4042 37.1813 19.3953 37.1298 19.3545 37.0907 19.3029 37.0675 19.302 36.9756 19.3628 36.978 19.3927 37.0162 19.4379 37.0106 19.466 36.9106 19.4793 36.8125 19.4724 36.6928 19.5117 36.6642 19.4872 36.646 19.4182 36.6085 19.426 36.5522 19.5106 36.4906 19.5641 36.3781 19.6085 36.3535 19.6301 36.2712 19.633 36.1492 19.661 36.0739 19.6563 35.6247 19.5645 35.5191 19.5309 35.8885 19.3204 36.0829 19.239 36.1952 19.2434 36.3076 19.2688 36.367 19.2647 36.3714 19.1714 36.2667 19.1019 36.2707 19.0729 36.5022 19.0254 36.589 19.0322 36.6846 19.0566 36.7752 19.0962 36.8608 19.1511 Z M 15.2318 26.1279 14.8056 26.2769 14.6673 26.3858 14.5618 26.4906 14.4788 26.548 14.4184 26.5578 14.3511 26.5856 14.2105 26.6589 14.1514 26.668 13.6994 26.839 13.6674 26.8417 13.6894 26.797 13.8274 26.7337 13.9174 26.6759 14.0191 26.5806 14.0751 26.5455 14.0929 26.4976 14.1002 26.401 14.1255 26.3645 14.2225 26.2919 14.2933 26.2522 14.3863 26.2385 14.5748 26.2506 14.653 26.2137 14.6773 26.1857 14.6296 26.1602 14.6184 26.1158 14.6307 26.0393 14.6853 25.9715 14.782 25.9122 14.9136 25.8661 15.0803 25.8332 15.2021 25.8315 15.4214 25.9014 15.4539 25.9334 15.4005 26.0035 15.3698 26.0692 15.2318 26.1279 Z M 17.1085 25.3547 17.1686 25.4207 17.2725 25.3789 17.3486 25.3215 17.408 25.2473 17.4466 25.2183 17.4976 25.2573 17.6434 25.3106 17.5208 25.3925 17.2846 25.5153 17.2055 25.5974 17.2005 25.6328 17.4293 25.6057 17.4933 25.6096 17.534 25.6377 17.4713 25.671 17.3466 25.7013 17.2383 25.7599 16.9877 25.8614 16.8928 25.9458 16.7807 25.978 16.628 25.9857 16.3596 26.0406 16.1967 26.0924 16.1554 26.1204 16.1042 26.1337 16.0429 26.1323 15.9768 26.1549 15.9059 26.2018 15.8466 26.2238 15.7496 26.2286 15.6989 26.2471 15.6421 26.2464 15.4871 26.1903 15.4482 26.1576 15.5855 26.092 15.6848 26.0702 15.8358 26.0603 15.9842 25.9997 16.2895 25.9194 16.3841 25.8756 16.4449 25.7233 16.5144 25.6974 16.5515 25.6364 16.7207 25.6382 16.7983 25.7065 16.8255 25.7158 16.8391 25.7091 16.8465 25.6545 16.9333 25.6162 16.8833 25.5881 16.727 25.5527 16.611 25.536 16.5355 25.538 16.4739 25.5182 16.4265 25.4765 16.4049 25.4351 16.409 25.3941 16.4475 25.3481 16.5204 25.2973 16.6039 25.2684 16.7839 25.2476 16.9434 25.2138 17.0279 25.2086 17.0917 25.2229 17.1085 25.3547 Z M 7.4567 27.8096 7.7295 27.8661 8.0688 27.8595 8.1926 27.8732 8.1946 27.8891 7.9776 27.9122 7.9034 27.9046 7.7139 27.9357 7.5851 27.9414 7.2908 27.912 7.0637 27.9321 7.0037 27.9245 6.9323 27.8988 6.8497 27.855 6.8457 27.8276 6.9202 27.8165 7.1217 27.8541 7.1427 27.8345 7.3127 27.7992 7.4567 27.8096 Z M 5.8929 27.9505 5.1466 28.0077 5.0329 27.9683 5.1462 27.946 5.2804 27.9336 5.5611 27.8681 5.9063 27.8114 6.1755 27.7432 6.4094 27.6985 6.4752 27.6249 6.2698 27.5874 6.2294 27.5579 6.3269 27.5235 6.4083 27.4734 6.6003 27.4147 6.7718 27.4883 6.8097 27.5376 6.7934 27.596 6.7589 27.657 6.6082 27.6884 6.5857 27.7205 6.6674 27.8111 6.3573 27.891 5.8929 27.9505 Z M 3.2276 28.1846 3.235 28.2312 3.3944 28.2254 3.4444 28.2494 3.4445 28.341 3.4237 28.3669 3.3994 28.3732 3.3421 28.3531 3.2773 28.3997 2.9804 28.514 2.8884 28.4501 2.7152 28.5505 2.8365 28.2907 2.9767 28.2513 3.0285 28.2218 3.0164 28.1457 3.0814 28.0186 3.2227 28.0245 3.2879 28.077 3.2856 28.1111 3.2276 28.1846 Z M 1.4389 28.4865 1.408 28.5328 1.3745 28.5315 1.1887 28.4546 1.1615 28.4287 1.2706 28.3922 1.3023 28.364 1.2896 28.3271 1.2079 28.2759 1.0571 28.2103 1 28.163 1.0365 28.1341 1.1084 28.1162 1.3349 28.1126 1.4572 28.1934 1.5494 28.2217 1.7652 28.2409 1.6533 28.2751 1.5897 28.3082 1.5114 28.4362 1.4389 28.4865 Z M 498.9273 28.1308 498.8125 28.1658 498.6795 28.1466 498.6072 28.0926 498.6159 28.0276 498.7874 27.9569 499 28.0453 498.9273 28.1308 Z M 495.7105 28.1622 495.5896 28.2203 495.4952 28.161 495.4808 28.1342 495.6622 28.0329 495.7982 28.0109 495.8567 27.9738 495.9169 27.8455 496.0181 27.8408 496.0642 27.8559 496.0411 27.916 495.9617 28.0077 495.9591 28.0721 495.7105 28.1622 Z M 489.3062 26.5899 489.5457 26.6355 489.7101 26.6141 489.9181 26.6878 490.1746 26.8138 490.1171 26.8379 490.0524 26.8517 489.9888 26.8502 489.7887 26.8712 489.6796 26.8661 489.4778 26.9529 489.2558 26.8905 489.1809 26.7672 489.0047 26.7368 488.8652 26.6944 489.1199 26.5975 489.3062 26.5899 Z M 32.4586 73.8908 32.397 73.9577 32.3203 73.9524 32.0413 73.8094 32.0075 73.7324 32.0282 73.3753 31.9237 73.0855 31.8084 72.8642 31.8923 72.7506 32.0029 72.6628 32.1261 72.4966 32.0253 72.2835 32.0511 72.1549 32.1104 72.1326 32.4019 72.289 32.9908 72.5241 33.1476 72.6893 33.1756 72.8666 33.2826 72.8892 33.3333 73.0107 33.488 73.1171 33.5397 73.1779 33.4756 73.2757 33.1929 73.4634 32.8366 73.5456 32.5227 73.7557 32.4586 73.8908 Z M 30.1878 70.8255 30.4818 70.8637 30.5513 70.8473 30.6002 70.8785 30.8437 70.8977 30.8854 70.9094 30.8357 70.9811 30.6799 71.0468 30.4559 70.9891 30.0811 70.9685 30.0962 70.9132 30.1319 70.874 30.1373 70.8055 30.1878 70.8255 Z M 31.1989 71.219 31.2351 71.2438 31.3831 71.2066 31.4901 71.1929 31.6698 71.2844 31.7321 71.3473 31.8502 71.4144 31.8903 71.463 31.8573 71.5219 31.7271 71.6193 31.5496 71.6418 31.4449 71.6833 31.3075 71.6744 31.2665 71.6568 31.2517 71.5338 31.2083 71.4017 31.1196 71.4173 31.02 71.373 30.9167 71.2623 30.9055 71.196 30.9623 71.0911 31.0618 71.0774 31.1356 71.1353 31.1989 71.219 Z M 29.3729 70.4899 29.4208 70.4978 29.4821 70.4884 29.5035 70.5992 29.575 70.6606 29.6011 70.6972 29.5239 70.736 29.3738 70.7515 29.3035 70.7206 29.2305 70.6514 29.1516 70.6704 29.1379 70.6147 29.1239 70.5986 29.0698 70.6136 29.1203 70.6854 28.9837 70.6908 28.9403 70.6819 28.9021 70.6005 28.7612 70.4444 28.7618 70.3836 28.7138 70.311 28.9226 70.2901 29.0655 70.1628 29.146 70.1494 29.3004 70.3553 29.2965 70.413 29.3309 70.4693 29.3729 70.4899 Z M 27.1841 69.8281 27.0618 69.9063 26.9906 69.8726 26.8557 69.8599 26.8034 69.8011 26.6621 69.7481 26.6048 69.6758 26.6918 69.539 26.8969 69.4236 27.2129 69.4285 27.2787 69.5197 27.2844 69.5875 27.2433 69.6635 27.2245 69.7707 27.1841 69.8281 Z M 26.0611 69.9551 26.0329 70.0166 25.985 70.0071 25.9728 69.9523 26.0042 69.8769 26.0835 69.8118 26.1715 69.7128 26.2437 69.7275 26.2048 69.7923 26.2002 69.8628 26.0981 69.9027 26.0611 69.9551 Z M 30.6942 71.4414 30.6117 71.4806 30.522 71.4625 30.5011 71.3677 30.4146 71.2469 30.566 71.2225 30.6511 71.2575 30.696 71.2952 30.7502 71.36 30.6942 71.4414 Z M 144.9651 37.7319 145.0287 37.7319 145.3526 37.7315 145.9315 37.7308 146.5104 37.7301 147.0892 37.7295 147.6681 37.7288 148.2471 37.7281 148.826 37.7275 149.4048 37.7268 149.5418 37.4586 149.6695 37.3337 149.8443 37.3751 149.9375 37.3716 150.041 37.3073 150.1249 37.2681 150.1802 37.2739 150.2274 37.3329 150.2667 37.3722 150.3125 37.3607 150.3518 37.3051 150.3505 37.2279 150.4042 37.1742 150.468 37.166 150.5269 37.1677 150.5563 37.1414 150.5531 37.1038 150.5318 37.0432 150.539 36.9703 150.6863 36.8414 150.8668 36.754 150.9301 36.7103 150.9486 36.6217 151.0521 36.5297 151.1038 36.4768 151.1165 36.4308 151.0896 36.3742 151.0924 36.2663 151.128 36.1375 151.1705 35.9971 151.266 35.8706 151.4225 35.7325 151.4628 35.5512 151.5052 35.3599 151.6944 35.1735 151.9089 34.9621 152.031 34.8418 152.2512 34.6229 152.4078 34.4672 152.4868 34.3957 152.5692 34.3109 152.7036 34.3362 152.8373 34.3615 152.8177 34.4846 152.8395 34.5743 152.9028 34.6261 152.9945 34.6611 153.0638 34.6728 153.1454 34.6721 153.3682 34.6024 153.63 34.5574 153.7739 34.5151 153.8002 34.4757 153.8658 34.4618 153.9707 34.4737 154.1636 34.5726 154.3889 34.7218 154.5671 34.8398 154.5726 35.0444 154.576 35.2612 154.5797 35.4897 154.5824 35.6528 154.5869 35.8768 154.5905 36.0549 154.5953 36.2875 154.5978 36.4118 154.6224 36.4477 154.6076 36.4967 154.6012 36.5212 154.6027 36.5407 154.6125 36.5652 154.6109 36.5995 154.5881 36.6306 154.5766 36.6664 154.5734 36.7252 154.5978 36.7611 154.6387 36.7823 154.673 36.7823 154.7171 36.8036 154.7742 36.8411 154.8607 36.8737 154.9505 36.8851 155.0125 36.877 155.0875 36.8983 155.1137 36.9505 155.099 36.9994 155.0566 37.0223 155.0108 37.0403 155.0027 37.0778 155.0255 37.117 155.0582 37.1513 155.0941 37.2115 155.0794 37.2638 155.0468 37.3079 155.032 37.3535 155.0598 37.3928 155.1332 37.4449 155.179 37.4955 155.2508 37.5233 155.2851 37.5037 155.3128 37.4775 155.3422 37.458 155.3928 37.4695 155.4516 37.4841 155.5157 37.5016 155.5081 37.5439 155.5472 37.6152 155.5775 37.7524 155.531 37.8147 155.5409 37.8972 155.6699 37.9213 155.7013 37.9465 155.7075 37.977 155.4234 38.1886 155.183 38.159 155.0525 38.2151 154.9159 38.2315 154.856 38.326 154.781 38.3461 154.6783 38.3404 154.5898 38.3137 154.5222 38.3268 154.4276 38.4974 154.3502 38.4825 154.3193 38.5439 154.2789 38.5708 154.2195 38.5938 154.1679 38.518 154.1351 38.4459 154.0868 38.4301 154.0225 38.4117 153.9564 38.4123 153.9123 38.4226 153.8576 38.4692 153.7784 38.5092 153.7184 38.4759 153.6714 38.4223 153.6313 38.5085 153.5729 38.5995 153.5826 38.7057 153.5575 38.7686 153.502 38.7517 153.4469 38.6964 153.2921 38.6523 153.1688 38.6564 153.1938 38.5974 153.3104 38.5128 153.2745 38.4962 153.2173 38.5079 153.1924 38.4962 153.2333 38.4193 153.2372 38.3345 153.1851 38.3641 153.1195 38.4537 152.9607 38.5249 152.9681 38.6442 152.8187 38.8887 152.812 38.9927 152.7162 39.0758 152.5926 39.1473 152.4278 39.1272 152.302 39.1893 152.2382 39.2605 152.1827 39.2712 152.1537 39.1805 152.1327 39.1524 152.0863 39.2863 152.0391 39.2945 152.0213 39.1997 151.9989 39.137 151.9345 39.191 151.8918 39.3344 151.847 39.3223 151.8328 39.2689 151.8007 39.2528 151.7897 39.3137 151.8059 39.3994 151.7826 39.4452 151.7381 39.4208 151.6933 39.3795 151.6195 39.4108 151.5517 39.4235 151.5514 39.3816 151.5643 39.3301 151.4292 39.3585 151.2672 39.4535 151.1414 39.5849 151.185 39.6067 151.2341 39.6486 151.0156 39.8516 150.7916 40.0343 150.6224 40.3326 150.5544 40.3675 150.4961 40.4222 150.4341 40.6023 150.3626 40.7626 150.4026 40.834 150.429 40.9074 150.4925 40.9797 150.5465 40.9862 150.605 40.9732 150.6479 40.9762 150.6755 41.0069 150.6633 41.0438 150.5958 41.0529 150.47 41.1173 150.3597 41.142 150.3044 41.2199 150.2215 41.3098 150.0605 41.4502 150.1293 41.4934 150.378 41.5422 150.4889 41.5924 150.6567 41.8545 150.6184 41.8808 150.6031 41.9288 150.7523 41.9962 150.7999 42.1844 150.9224 42.2485 151.1049 42.2879 151.3281 42.2309 151.514 42.1526 151.5075 42.0884 151.3907 41.939 151.3626 41.8689 151.2759 41.8234 151.243 41.8619 151.1869 41.8119 151.1806 41.7839 151.2328 41.7702 151.2936 41.7757 151.3644 41.8018 151.5467 41.9647 151.5972 42.1781 151.608 42.3136 151.5874 42.3599 151.5344 42.3504 151.4332 42.3596 150.953 42.4298 150.8463 42.4916 150.6018 42.5587 150.5866 42.5253 150.6042 42.456 150.5888 42.3141 150.5406 42.3075 150.1607 42.5388 150.0138 42.5534 149.8903 42.6211 149.8627 42.5835 149.8406 42.4101 149.9179 42.2646 149.8767 42.2669 149.7477 42.3542 149.6925 42.3005 149.6649 42.2415 149.6251 42.2082 149.5821 42.1955 149.6189 42.3243 149.5314 42.4209 149.5074 42.6708 149.3974 42.7748 149.0546 42.8416 148.8311 42.8275 148.6309 42.8483 148.3646 42.8962 148.2175 42.8677 148.0667 42.9183 147.5551 42.9321 147.4472 42.9052 147.3095 43.0008 147.0889 43.0573 146.5314 43.2715 146.4085 43.3494 146.2588 43.4711 146.1582 43.5365 146.0756 43.5578 146.0247 43.6122 145.9692 43.6478 146.0228 43.5262 146.0811 43.4237 146.1294 43.2252 146.1152 43.0646 146.0552 42.9986 145.9932 42.9546 146.0658 43.113 146.0776 43.3074 146.0526 43.4212 145.9159 43.6408 145.8576 43.692 145.7896 43.737 145.7383 43.7565 145.6909 43.7916 145.6359 43.8473 145.5838 43.9577 145.6153 44.0584 145.882 44.0951 145.9535 44.0641 145.9899 44.1362 146.0103 44.2363 145.9903 44.3446 145.9457 44.4547 145.9119 44.5916 145.8833 44.8002 145.8401 44.9878 145.8345 44.9309 145.8614 44.7027 145.8178 44.7265 145.7877 44.7792 145.7063 45.0734 145.5944 45.2303 145.4914 45.3388 145.3851 45.3208 145.409 45.407 145.3798 45.4519 145.3548 45.5456 145.2914 45.6077 145.2318 45.6017 145.1462 45.6445 145.1125 45.6772 145.11 45.7399 145.0527 45.7951 144.8461 46.0816 144.6667 46.1662 144.6237 46.1539 144.671 46.0186 144.7034 45.8819 144.5945 45.8224 144.4903 45.791 144.3708 45.7951 144.2387 45.6888 144.0685 45.6115 143.8309 45.4023 143.8378 45.3443 143.8318 45.247 143.904 45.0932 143.9733 44.9857 144.0688 44.93 144.3462 44.8732 144.4157 44.7879 144.457 44.7161 144.3196 44.8395 144.1137 44.8813 144.0028 44.9274 143.9141 44.9978 143.8616 45.0863 143.7427 45.1928 143.7511 45.2642 143.771 45.315 143.7618 45.4207 143.837 45.5239 143.9861 45.6928 144.0146 45.9552 144.1283 46.1308 144.3027 46.3355 144.4368 46.3937 144.4433 46.4699 144.3814 46.5956 144.2999 46.6531 144.406 46.6416 144.4588 46.6703 144.5102 46.7752 144.5062 46.8823 144.4888 46.9426 144.4567 46.9666 144.4581 46.905 144.4353 46.8836 144.3977 46.9103 144.3734 46.9408 144.3633 47.0607 144.3376 47.1206 144.2465 47.1384 144.1542 47.2957 144.0684 47.3849 143.7305 47.9885 143.7434 48.0894 143.6816 48.1218 143.588 48.1482 143.4933 48.2086 143.4304 48.2751 143.3721 48.4539 143.2603 48.6553 143.1905 48.5714 143.1727 48.4996 143.2037 48.3123 143.3246 48.0053 143.4578 47.8144 143.5594 47.7239 143.643 47.5395 143.5374 47.512 143.3765 47.515 143.4068 47.4298 143.4537 47.3549 143.3699 47.2801 143.3202 47.2706 143.2691 47.24 143.329 47.1778 143.3583 47.112 143.3404 47.032 143.3656 46.9717 143.3237 46.9808 143.2563 47.0446 143.2144 47.0701 143.1888 47.0137 143.1597 47.0264 143.1407 47.0652 143.0977 47.0865 143.0069 47.0335 142.8745 46.9728 142.8008 46.8683 142.7588 46.7873 142.8015 46.6408 142.893 46.6148 143.0119 46.6386 143.1677 46.6384 143.1454 46.6058 143.0898 46.6112 142.9255 46.4923 142.8727 46.4205 142.7818 46.4008 142.7404 46.4698 142.6944 46.4882 142.7512 46.3372 142.8254 46.331 142.9351 46.2891 142.9032 46.2017 142.834 46.1635 142.709 46.2114 142.7105 46.15 142.7339 46.0712 142.8281 46.0715 142.9107 46.0972 142.9809 45.97 142.984 45.9132 142.8673 45.9958 142.8411 45.8177 142.956 45.646 143.0655 45.5711 143.2024 45.5733 143.3415 45.5612 143.2542 45.5298 143.1646 45.5127 143.232 45.4449 143.2894 45.4327 143.3457 45.3735 143.2102 45.3823 143.2261 45.2704 143.1602 45.2931 143.0814 45.3036 143.0507 45.3511 143.0567 45.43 143.0337 45.4817 142.9723 45.5233 142.8688 45.5557 142.8587 45.4995 142.8245 45.4741 142.8117 45.5944 142.7845 45.6353 142.7088 45.5224 142.686 45.5451 142.6889 45.5772 142.6696 45.6326 142.6047 45.6615 142.6087 45.7325 142.5835 45.7713 142.3755 45.7096 142.3706 45.7305 142.4882 45.8635 142.5742 45.9089 142.5846 45.9815 142.5108 46.0417 142.4091 45.9897 142.392 45.9935 142.4473 46.0826 142.4821 46.1605 142.4462 46.2257 142.4518 46.306 142.4441 46.3788 142.4221 46.4423 142.4716 46.7351 142.5312 46.8147 142.5897 46.8908 142.6208 46.9621 142.5586 46.9725 142.4596 46.9139 142.3727 46.8692 142.2691 46.7263 142.252 46.6692 142.2267 46.6241 142.2389 46.7277 142.2759 46.8434 142.6003 47.1022 142.6602 47.2015 142.7059 47.2796 142.6944 47.3544 142.6098 47.3015 142.5369 47.234 142.3432 47.1578 142.099 47.1096 141.9613 46.9325 141.9618 47.0064 141.9312 47.0691 141.8471 46.9927 141.794 46.9275 141.7762 46.856 141.6711 46.8609 141.5609 46.923 141.4544 46.9082 141.4417 46.787 141.4705 46.7229 141.5902 46.571 141.7028 46.4935 141.7526 46.3935 141.7356 46.2383 141.7144 46.3962 141.65 46.4744 141.5488 46.5342 141.4156 46.6407 141.383 46.7392 141.3415 46.9236 141.3977 46.9861 141.4552 47.0024 141.6249 46.9605 141.7128 46.9792 141.9081 47.2013 142.2719 47.2891 142.4045 47.344 142.5127 47.4599 142.6752 47.5266 142.8014 47.6235 142.8048 47.6867 142.7611 47.7615 142.7438 47.8627 142.6902 47.9266 142.5616 47.9339 142.4839 47.9175 142.0661 47.5617 142.0163 47.529 141.8613 47.3426 141.6795 47.2428 141.6233 47.2449 141.882 47.4295 141.9877 47.5586 142.1737 47.7395 142.3067 47.8162 142.4046 47.9357 142.4956 47.9917 142.7439 48.0716 142.6576 48.1289 142.7954 48.1777 142.8151 48.2675 142.8025 48.3699 142.6112 48.3294 142.6049 48.4048 142.622 48.4493 142.5375 48.4861 142.42 48.4362 142.1149 48.1635 142.1175 48.1999 142.1422 48.2423 142.3192 48.4179 142.4771 48.5231 142.611 48.5707 142.7142 48.6589 142.7506 48.7123 142.7749 48.7933 142.6984 48.8483 142.6113 48.8787 142.5263 48.8238 142.4639 48.766 142.3311 48.6678 142.2913 48.5581 142.1903 48.5638 141.7681 48.4246 141.4288 48.4086 141.462 48.4366 141.5049 48.4552 141.7751 48.4895 141.8819 48.5536 142.1042 48.6104 142.2343 48.626 142.2871 48.8006 142.467 48.9208 142.4903 49.0098 142.6131 49.0198 142.8292 48.9325 142.9687 48.9631 143.1698 48.9881 143.2158 49.0586 143.2503 49.1928 143.3214 49.3437 143.5058 49.9388 143.7829 50.4256 143.817 50.5094 143.7526 50.4359 143.5471 50.1135 143.4336 49.8807 143.3171 49.4696 143.2832 49.3776 143.2434 49.3409 143.2172 49.3707 143.2059 49.4231 143.225 49.4633 143.179 49.5986 143.199 49.6607 143.2735 49.7249 143.3546 49.8851 143.4193 50.1008 143.3317 50.0133 143.2383 49.967 143.0928 49.9315 142.9633 49.8692 142.9728 49.9585 142.9603 50.055 142.8605 50.0256 142.7925 49.9936 142.8527 50.0963 142.7222 50.0655 142.6352 50.072 142.5787 50.1632 142.5029 50.2186 142.3908 50.2364 142.2245 50.153 142.1707 50.0517 142.1484 49.939 142.1395 50.0723 142.1691 50.2111 142.1587 50.3167 142.3188 50.3361 142.4685 50.3189 142.6705 50.3233 142.8023 50.3035 142.8817 50.27 143.0719 50.299 143.0854 50.4265 143.0637 50.5533 143.0527 50.6883 143.1054 50.6874 143.1674 50.6443 143.1983 50.4025 143.3722 50.3132 143.4305 50.3193 143.4859 50.397 143.5045 50.4758 143.5241 50.584 143.4835 50.7489 143.2163 50.9416 143.025 51.1199 142.9272 51.1562 142.7861 51.1355 142.6261 51.0907 142.5477 51.0816 142.488 51.0966 142.4517 51.0417 142.4282 50.9416 142.366 50.9084 142.3189 50.912 142.2868 51.0184 142.1376 51.0486 141.9347 51.0047 141.7222 50.9152 141.8134 51.0112 142.3406 51.1903 142.4 51.2237 142.4554 51.2727 142.3816 51.3495 142.3238 51.4361 142.3157 51.504 142.2953 51.5469 142.0851 51.6624 141.9712 51.642 141.6801 51.4338 141.8127 51.6139 141.9189 51.6903 142.1326 51.731 142.5336 51.6637 142.6651 51.7372 142.5572 51.8674 142.4499 51.9588 142.3092 51.969 142.1853 51.9937 142.149 52.0565 142.0607 52.0605 141.9227 52.0642 141.709 52.0699 141.5916 52.0553 141.4276 52.1836 141.3657 52.2013 141.2792 52.1772 141.243 52.0741 141.2043 52.0234 141.2034 52.2163 141.2185 52.2683 141.2495 52.3075 141.0577 52.4121 140.8741 52.5427 140.8082 52.5782 140.7334 52.6436 140.5803 52.8325 140.5424 52.9703 140.4871 53.1239 140.4801 53.0547 140.4896 52.9383 140.4517 52.805 140.4276 53.0492 140.3681 53.1627 139.8221 53.1547 139.583 53.2164 139.2161 53.4239 139.1064 53.5149 138.8033 53.8665 138.7259 54.0916 138.6639 53.997 138.6792 53.926 138.6805 53.868 138.6041 53.9924 138.6766 54.1736 138.6115 54.2429 138.4113 54.3721 138.3018 54.3933 138.1788 54.43 138.14 54.5574 137.973 54.675 137.8757 54.727 137.6974 54.6955 137.7523 54.8086 137.6868 54.8943 137.5741 54.96 137.4339 55.0028 137.3535 54.9976 137.2848 55.0204 137.231 55.0748 137.0996 55.1258 136.963 55.0971 136.8083 55.0799 136.7221 55.1105 136.867 55.161 136.9446 55.2343 136.9286 55.333 136.8898 55.3711 136.7984 55.4227 136.7582 55.415 136.7337 55.3685 136.704 55.2716 136.6614 55.2922 136.6541 55.3374 136.6176 55.3535 136.4879 55.1991 136.4943 55.3169 136.5397 55.4073 136.5835 55.4533 136.6277 55.4803 136.6386 55.5223 136.5498 55.6246 136.5042 55.6473 136.423 55.6639 136.3772 55.7269 136.3908 55.7812 136.3197 55.899 136.1498 55.9726 136.0979 55.9697 136.0556 55.9913 136.0803 56.0437 136.1227 56.0819 136.1212 56.1173 136.0763 56.1655 135.9877 56.1789 135.9379 56.2339 135.9536 56.2857 135.9829 56.3147 135.9768 56.3645 135.876 56.4146 135.8524 56.4638 135.9024 56.4784 135.9409 56.4638 135.9691 56.4744 135.9087 56.5568 135.8544 56.607 135.8028 56.6972 135.6832 56.7221 135.6877 56.7512 135.7553 56.777 135.8119 56.8464 135.7056 56.9744 135.6392 56.9639 135.5987 56.9357 135.5728 57.0368 135.5827 57.0907 135.5574 57.201 135.5168 57.3335 135.4892 57.3879 135.4951 57.4893 135.5121 57.5872 135.5772 57.7133 135.6766 58.2291 135.7442 58.4083 135.8661 58.8916 136.0678 59.3601 136.3523 59.9265 136.8193 60.613 136.8752 60.7108 136.8144 60.7937 136.7959 60.8797 136.7906 61.0092 136.8074 61.1354 136.8626 61.2896 136.9688 61.5252 136.9094 61.4782 136.7557 61.14 136.7379 60.9414 136.76 60.6596 136.7239 60.6664 136.6947 60.758 136.6786 60.8655 136.6396 60.9071 136.5864 60.7431 136.5901 60.6689 136.6466 60.5822 136.6302 60.551 136.5388 60.5067 136.5194 60.4369 136.5318 60.368 136.4793 60.3312 136.4383 60.333 136.4658 60.5028 136.5092 60.6071 136.5629 60.857 136.6495 61.0084 136.7 61.1354 137.2898 62.4902 137.4294 62.6627 137.481 62.7866 137.5347 63.0457 137.5469 63.3783 137.4505 63.9863 137.4286 64.401 137.4148 64.3883 137.4055 64.3446 137.3832 64.3386 137.2996 64.5286 137.1859 64.7 137.1484 64.9663 137.0939 65.0997 136.9301 65.2408 136.8286 65.2372 136.5797 65.343 136.4049 65.3154 136.1966 65.3751 136.0595 65.3685 135.9803 65.2426 135.9924 65.1863 136.0239 65.1297 136.0773 65.1165 136.2614 65.2485 136.2961 65.193 136.2405 65.1269 136.1341 65.0901 136.0555 65.0496 135.8972 64.7489 135.7331 64.5424 135.7055 64.4044 135.4226 64.3202 135.2178 64.1928 135.0843 63.9661 135.0077 63.5642 134.9173 63.519 134.8792 63.4878 134.9674 63.3386 135.0604 63.2135 134.9868 63.2447 134.9326 63.2909 134.8635 63.4014 134.8131 63.4183 134.7669 63.4014 134.7137 63.1895 134.7289 62.9291 134.8036 62.8316 134.6889 62.8291 134.5701 62.8662 134.5875 62.953 134.5707 63.0007 134.4842 62.9884 134.4185 62.9579 134.3295 62.8676 134.208 62.6952 133.9589 62.2202 133.9103 62.1533 133.8279 62.0832 133.8667 62.0613 133.9375 62.0484 134.0974 61.8346 134.2231 61.7054 134.2648 61.616 134.2576 61.5778 134.202 61.5222 134.129 61.5708 134.0978 61.5569 134.0157 61.4448 133.9373 61.4132 133.8827 61.4374 133.9403 61.5293 133.9921 61.5634 133.9721 61.6969 133.9511 61.7404 133.9026 61.7788 133.8269 61.7583 133.7886 61.7913 133.7435 61.7566 133.6986 61.6979 133.6486 61.6013 133.7807 61.0576 133.903 60.7111 133.917 60.3159 133.9261 60.2574 133.9157 60.1524 133.7518 59.9241 133.0268 59.3672 132.4649 58.7077 131.9782 58.4603 131.6089 58.5146 131.545 58.5644 131.5176 58.6294 131.5407 58.7029 131.5072 58.7336 131.4081 58.7297 131.2746 58.7468 130.926 58.9204 130.8031 58.9141 130.6914 58.959 130.6078 58.9927 130.3897 59.0111 130.2048 59.0496 130.125 59.0287 130.0729 58.928 130.0729 58.8238 130.1151 58.9037 130.1805 58.9662 130.2105 58.9412 130.2217 58.8859 130.1566 58.7776 129.947 58.6384 129.7084 58.4351 129.7812 58.4418 129.7996 58.3983 129.7256 58.3411 129.7569 58.2751 129.809 58.2058 129.7083 58.2162 129.618 58.2647 129.615 58.3247 129.5971 58.3724 129.5485 58.3655 129.4582 58.3064 129.0137 58.1421 128.6252 58.0495 128.9234 58.0078 129.0851 58.0402 129.0658 57.9904 129.0269 57.9589 128.8993 57.9188 128.7369 57.9341 128.6342 57.9152 128.5293 57.9549 128.4143 58.0139 128.3119 58.0442 127.9113 58.0867 127.5864 58.1327 127.6385 58.0841 127.694 58.0529 127.886 58.0053 127.9147 57.9065 127.8696 57.8113 127.8191 57.8341 127.766 57.9085 127.701 57.8549 127.6289 57.8552 127.6093 57.9735 127.5169 58.0529 127.4752 58.1327 127.2043 58.1953 127.1696 58.1745 127.2489 58.0986 127.2426 58.0564 127.1522 58.0926 127.0006 58.2364 126.4668 58.2835 126.4959 58.2508 126.6086 58.2443 126.7668 58.1988 126.7348 58.1222 126.6738 58.0379 126.6175 58.0285 126.5804 57.9792 126.5822 57.8235 126.5462 57.7326 126.4593 57.639 126.43 57.657 126.366 57.817 126.3129 58.0269 126.2866 58.0947 126.1284 58.0995 125.9883 58.0851 125.5123 58.1103 125.3344 58.0392 125.2607 58.0256 125.2158 58.0272 125.0087 58.0924 124.7728 58.1423 124.7172 58.1266 124.638 58.1243 124.4669 58.2943 124.2652 58.3738 123.7564 58.2308 123.6298 58.1158 123.5175 58.0912 123.3793 58.077 123.2309 58.2185 123.1181 58.4095 123.2963 58.5142 123.4488 58.5642 123.7008 58.5222 123.8402 58.4296 123.9539 58.4326 124.0083 58.4138 124.058 58.3655 124.1553 58.4036 124.1587 58.4419 124.0896 58.4958 124.0026 58.5411 123.9499 58.5946 124.0492 58.7023 124.2051 58.7385 124.2638 58.7229 124.3002 58.6018 124.3961 58.5238 124.5264 58.5407 124.5079 58.5896 124.5262 58.6358 124.5861 58.7146 124.5792 58.8276 124.5908 58.8548 124.4503 58.9047 124.3457 58.9216 124.2619 58.9869 124.3058 59.0248 124.2205 59.0581 124.1628 59.0447 124.1338 59.057 124.1251 59.0971 124.081 59.1343 124.1451 59.2465 124.2766 59.3197 124.3693 59.4115 124.7421 59.5323 124.8324 59.5289 124.9214 59.6505 124.993 59.6924 125.062 59.7136 125.0542 59.7973 124.9315 59.8586 124.8984 59.9317 124.8676 59.9728 124.8123 59.9207 124.7555 59.883 124.624 59.9977 124.5607 60.0218 124.5921 59.8982 124.5425 59.8498 124.4674 59.7258 124.358 59.6491 124.281 59.6237 124.221 59.5752 124.1484 59.5556 124.0865 59.5606 123.9816 59.5323 123.9746 59.4664 123.9456 59.417 123.8635 59.3587 123.4714 59.2486 123.4691 59.2942 123.4962 59.3285 123.5525 59.3513 123.6199 59.3957 123.6193 59.5273 123.5902 59.583 123.5777 59.6623 123.5517 59.743 123.5038 59.8066 123.3967 59.8499 123.3495 59.8136 123.2732 59.64 123.1652 59.5853 122.9937 59.5789 122.8772 59.6181 122.7503 59.7863 122.648 59.8138 122.2978 59.7267 121.898 59.5939 121.9083 59.5497 121.9712 59.5355 122.0918 59.5536 122.0854 59.508 121.9622 59.3597 121.9395 59.2927 121.9554 59.211 121.9152 59.2128 121.8412 59.2814 121.5862 59.2233 121.5159 59.1538 121.3661 58.9579 121.1547 58.9515 121.0591 58.8328 120.8863 58.8825 120.7988 58.9376 120.7219 59.0228 120.7519 59.067 120.8285 59.1373 120.7935 59.1712 120.5476 59.2212 119.9766 59.1652 119.8096 59.1129 119.5855 59.0024 119.2749 58.9122 119.1253 58.8977 118.9788 58.9155 118.5527 58.9248 118.4538 58.9488 118.3695 58.9871 118.3149 58.9447 118.2896 58.869 118.3391 58.8567 118.3941 58.8122 118.4438 58.7243 118.4494 58.6711 118.4147 58.6364 118.3487 58.6329 118.2028 58.8621 118.2862 58.9905 118.2805 59.0369 117.9895 59.0632 117.3289 59.3218 117.0714 59.4613 117.0845 59.4143 117.396 59.2336 117.286 59.2059 117.1089 59.2511 117.0454 59.2337 117.1204 59.0843 117.0959 58.9525 116.9702 58.9489 116.8901 59.0541 116.8345 59.0496 116.7616 59.0045 116.7052 59.0188 116.7469 59.2572 116.8261 59.3553 116.8924 59.4804 116.7115 59.6349 116.5435 59.7624 116.5253 59.8856 116.3565 60.0461 116.1977 60.1372 115.8245 60.3511 115.7181 60.3969 115.5497 60.4962 115.3174 60.5707 115.0947 60.6889 115.0195 60.7068 115.1618 60.6067 115.3304 60.5079 115.1857 60.5214 114.9627 60.4756 114.8263 60.473 114.8253 60.5091 114.7215 60.56 114.614 60.4852 114.5671 60.4348 114.5449 60.3913 114.4993 60.3808 114.4554 60.401 114.6159 60.7071 114.6843 60.7204 114.76 60.7508 114.6658 60.8221 114.5643 60.8763 114.4048 60.9122 114.2697 60.8005 114.2404 60.9407 114.2233 61.0807 114.1779 61.1166 114.1054 61.1678 114.0661 61.1292 114.0474 61.075 114.001 61.1233 113.9331 61.1596 113.821 61.1669 113.7369 61.1862 113.7389 61.2442 113.7581 61.3025 113.9069 61.2565 113.8529 61.4064 113.7161 61.5545 113.6047 61.5895 113.4342 61.5679 113.392 61.5827 113.3543 61.6135 113.553 61.8453 113.4253 62.1948 113.3438 62.3215 113.2872 62.3377 113.2258 62.3414 113.0057 62.2288 112.8856 62.1417 112.9914 62.3787 113.2798 62.4479 113.2945 62.5376 113.2929 62.6142 113.2361 62.7041 113.183 62.8236 113.2222 62.9068 113.2677 63.1126 113.3066 63.207 113.3494 63.4935 113.3949 63.6177 113.657 64.0749 113.7454 64.0785 113.7596 64.128 113.7512 64.2229 113.5626 64.2506 113.4835 64.2929 113.4681 64.3297 113.4564 64.3495 113.4321 64.3477 113.3421 64.3212 113.1377 64.1914 112.8397 64.1109 112.4483 64.0797 112.1808 64.0147 112.0374 63.9156 111.8875 63.857 111.7311 63.8385 111.6016 63.7847 111.4989 63.6958 111.3487 63.639 111.151 63.6143 111.0224 63.5476 110.9329 63.3845 110.9325 63.3821 110.8524 63.1094 110.7516 62.9386 110.5552 62.7272 110.5372 62.6994 110.5372 62.6993 110.5355 62.6645 110.5599 62.5415 110.5391 62.4531 110.477 62.381 110.4627 62.3047 110.4964 62.2244 110.4986 62.128 110.4693 62.0154 110.3441 61.8936 110.123 61.7627 109.9347 61.5717 109.7792 61.3205 109.6254 61.1464 109.4733 61.0495 109.3693 60.9312 109.3133 60.7914 109.2968 60.7103 109.3196 60.6879 109.2262 60.5326 109.0164 60.2444 108.8959 60.0337 108.8649 59.9005 108.7314 59.742 108.4955 59.5581 108.3673 59.4385 108.3363 59.3555 108.3358 59.3554 107.9677 59.1138 107.8608 58.9628 107.7773 58.9151 107.6815 58.9203 107.6323 58.9058 107.6299 58.8717 107.5988 58.8701 107.5391 58.9011 107.3434 58.9073 107.0115 58.8889 106.7719 58.8478 106.6247 58.7839 106.5216 58.7925 106.4623 58.8737 106.3363 58.9259 106.1433 58.9492 105.9775 59.1 105.8386 59.3783 105.7776 59.5572 105.7945 59.6369 105.7579 59.6948 105.6677 59.731 105.5759 59.8119 105.4825 59.9376 105.3735 59.9984 105.2491 59.9943 105.0193 59.8975 104.684 59.7081 104.4211 59.591 104.2308 59.5463 104.0626 59.4587 103.9167 59.3283 103.7822 59.2413 103.6592 59.1977 103.5154 59.0531 103.3509 58.8074 103.2686 58.6179 103.2686 58.4178 103.0536 57.9819 102.9396 57.7932 102.8548 57.7061 102.6888 57.6023 102.4416 57.4817 102.1103 57.2403 101.6948 56.8783 101.4007 56.6602 101.2282 56.5862 101.0784 56.4558 100.9515 56.2689 100.8276 56.1501 100.8145 56.1446 100.8037 56.1421 100.4979 56.1405 100.1921 56.1389 99.8862 56.1373 99.5804 56.1357 99.2746 56.1342 98.9687 56.1325 98.6629 56.131 98.3572 56.1294 98.3562 56.2859 98.3553 56.4423 98.3544 56.5988 98.3535 56.7552 97.8619 56.7561 97.3701 56.7571 96.8785 56.758 96.3867 56.7589 95.8951 56.7598 95.4033 56.7607 94.9117 56.7616 94.42 56.7625 93.7602 56.5566 93.1005 56.3507 92.4407 56.1448 91.781 55.9389 91.1213 55.7329 90.4615 55.527 89.8017 55.3211 89.142 55.1153 89.2087 55.0367 89.2966 54.8272 89.1376 54.842 88.7396 54.8718 88.3414 54.9016 87.9434 54.9314 87.5453 54.9612 87.1472 54.991 86.7491 55.0208 86.3511 55.0506 85.953 55.0804 85.9499 55.0715 85.9403 54.9193 85.8758 54.8654 85.7927 54.8986 85.7548 54.7008 85.7756 54.6074 85.7656 54.5163 85.6878 54.292 85.4811 54.0201 85.0344 53.6821 84.8069 53.5692 84.6282 53.4266 84.515 53.3869 84.3724 53.3759 84.331 53.4403 84.1693 53.3963 84.1936 53.2372 84.036 53.0159 83.9072 52.9914 83.5828 53.006 83.1491 52.8842 83.021 52.8118 82.9767 52.682 82.7736 52.5691 82.506 52.4585 82.3569 52.4841 82.162 52.467 81.8842 52.3872 81.7221 52.3772 81.4064 52.4007 81.2885 52.384 81.1791 52.2834 81.0611 52.2332 81.0861 52.1095 81.0709 51.9976 81.0886 51.9105 81.0355 51.7195 81.0765 51.5425 81.041 51.4786 80.9743 51.4296 80.7652 51.3572 80.7269 51.2664 80.7611 51.1405 80.7064 51.0575 80.535 50.9801 80.3749 50.8043 80.1719 50.708 80.0884 50.5468 79.9634 50.4471 79.9199 50.3588 79.6425 50.0434 79.3462 49.7972 79.3006 49.6555 79.2888 49.4615 79.4049 49.3431 79.4678 49.239 79.4615 49.1435 79.4435 49.0736 79.3416 48.9516 78.9472 48.8792 78.6262 48.5779 78.6074 48.3475 78.4811 48.1117 78.4794 47.9585 78.4603 47.7926 78.5557 47.7564 78.6413 47.7696 78.6327 47.8356 78.6613 47.9542 78.7616 48.0432 78.8575 48.0821 78.9447 48.1687 79.01 48.1949 79.0775 48.2012 79.0413 48.1457 79.0029 48.1101 78.9557 47.9951 78.8665 47.8482 78.7638 47.7671 78.7117 47.6193 78.6672 47.5851 78.6394 47.5302 78.7384 47.4652 78.8737 47.4189 79.055 47.4064 79.5695 47.428 79.6791 47.3902 79.7696 47.4025 79.8359 47.3976 79.6963 47.3587 79.6177 47.3714 79.5253 47.3635 79.3415 47.3711 79.2672 47.3546 79.1852 47.3083 79.1318 47.3036 78.9617 47.3843 78.8858 47.3745 78.7066 47.2864 78.6284 47.274 78.5024 47.324 78.4871 47.54 78.5261 47.7005 78.4503 47.7169 78.3629 47.6506 78.2286 47.6113 78.1178 47.551 77.9612 47.4392 77.8791 47.3983 77.7861 47.4913 77.7824 47.4486 77.8287 47.3405 77.8156 47.1592 77.9558 47.3038 77.9122 47.2019 77.8032 47.0899 77.7202 47.051 77.6159 46.8504 77.3814 46.73 77.1935 46.5355 76.8091 46.2133 76.7835 45.9299 76.6433 45.5717 76.7024 45.3679 76.6945 45.2236 76.6257 45.0054 76.554 44.8868 76.2424 44.5616 75.9425 44.3426 75.8973 44.1769 75.8762 44.0098 75.9418 43.8611 75.9986 43.7046 76.0401 43.6633 76.0562 43.6805 76.0447 43.7139 76.0872 43.7242 76.1033 43.6552 76.1286 43.6195 76.0837 43.6149 76.0884 43.5931 76.1152 43.5495 76.2081 43.344 76.1985 43.0851 76.298 42.7675 76.2932 42.6627 76.2296 42.437 76.1662 42.3017 76.053 42.2058 76.1029 42.0658 76.0988 41.9322 75.899 41.7398 75.8229 41.4874 75.8083 41.3807 75.8283 41.0988 75.7759 40.9784 75.6426 40.7799 75.6997 40.6075 75.7611 40.5024 75.9111 40.0443 75.9473 40.0074 76.01 40.0085 76.1193 39.9307 76.0689 39.9126 75.9927 39.9496 76.0605 39.7683 76.1368 39.6132 76.1864 39.5573 76.2115 39.051 76.2553 38.6641 76.3273 38.5365 76.3023 38.405 76.3313 38.2267 76.311 38.0465 76.4648 37.1797 76.4446 37.075 76.4916 36.9347 76.4472 36.5646 76.4669 36.1506 76.4277 36.0981 76.4082 36.0409 76.4448 36.0325 76.5162 36.0927 76.8473 36.0921 77.0588 36.0364 77.1357 36.0548 77.2248 36.1305 77.3371 36.1458 77.4776 36.1324 77.4348 36.1134 77.3689 36.1085 77.2214 36.0387 77.1378 35.969 76.8797 35.9737 76.8268 35.929 76.5384 35.9736 76.4493 35.9278 76.2921 35.9574 76.3305 35.8274 76.3235 35.6637 76.3316 35.5044 76.3705 35.6208 76.4682 35.7444 76.5152 35.6042 76.5475 35.428 76.4521 35.3602 76.2936 35.31 76.2367 35.146 76.6119 35.0062 76.4127 34.9766 76.3345 34.9137 76.2379 34.906 76.2308 34.9545 76.1996 35.018 76.1657 34.9337 76.1561 34.8344 76.1167 34.6649 75.963 34.3921 75.8702 34.0387 75.7533 33.864 75.5292 33.6972 75.4708 33.5998 75.4172 33.3528 75.4473 33.1661 75.4056 33.0347 75.5132 33.0421 75.7964 33.1454 76.1492 33.2266 76.2559 33.2856 76.427 33.3295 77.3748 33.3975 77.4368 33.391 77.5593 33.3488 77.6114 33.3539 77.7508 33.4503 77.8208 33.4619 77.9112 33.4568 77.978 33.4386 78.0924 33.3724 78.1079 33.3969 78.1057 33.4581 78.1465 33.5454 78.2303 33.6587 78.2621 33.7292 78.0927 33.9277 78.0602 33.932 78.0552 33.8648 78.0329 33.8516 77.714 34.1871 77.6021 34.346 77.591 34.4179 77.5948 34.46 77.6395 34.4703 77.7415 34.4539 77.8927 34.3879 77.9001 34.3735 77.7591 34.397 77.6915 34.399 77.7008 34.3239 77.7168 34.2881 77.8088 34.1768 77.9056 34.11 78.0431 34.0388 78.1223 33.9804 78.1769 33.8948 78.3296 33.7927 78.3578 33.7642 78.3511 33.6801 78.3608 33.6641 78.4344 33.6755 78.465 33.8202 78.4467 33.8847 78.3153 33.9634 78.2989 33.9912 78.322 34.0985 78.3016 34.1089 78.2515 34.0963 78.2359 34.1031 78.3606 34.2199 78.4001 34.3106 78.4055 34.3917 78.3717 34.5471 78.3355 34.573 78.2733 34.5634 78.1911 34.5148 78.1727 34.5305 78.1075 34.6512 78.0859 34.6406 78.0452 34.4974 78.0231 34.4868 77.8964 34.552 77.8454 34.6147 77.8016 34.7149 77.7461 34.7617 77.9039 34.7721 78.046 34.7519 78.1602 34.7994 78.1991 34.8007 78.3033 34.7543 78.3351 34.7227 78.4213 34.5716 78.4646 34.5446 78.5289 34.5435 78.5912 34.5208 78.6834 34.4381 78.6871 34.4052 78.6536 34.2199 78.6632 34.1149 78.6459 34.0816 78.6045 34.0471 78.6097 34.0135 78.6419 33.9583 78.6442 33.9083 78.6166 33.8639 78.6291 33.8135 78.7161 33.7048 78.7326 33.6569 78.839 33.5489 78.8121 33.5053 78.7339 33.4523 78.6846 33.4055 78.6349 33.3324 78.5971 33.3079 78.5848 33.3191 78.6378 33.4387 78.6264 33.4468 78.4883 33.3823 78.4564 33.3417 78.4395 33.2865 78.4518 33.2451 78.5259 33.2042 78.6145 33.1893 78.6073 33.155 78.4961 33.0431 78.4221 32.9921 78.3652 32.9675 78.2883 32.961 78.254 32.9428 78.2449 32.9166 78.2612 32.8822 78.302 32.8712 78.4207 32.885 78.4845 32.8605 78.4785 32.8161 78.4594 32.7915 78.4623 32.6325 78.4173 32.5033 78.3938 32.4815 78.3685 32.4793 78.3417 32.4967 78.2671 32.5012 78.2214 32.4588 78.1706 32.3771 78.0783 32.1824 78.2208 32.1824 78.8139 32.1824 79.4071 32.1824 80.0003 32.1824 80.5934 32.1824 81.1865 32.1824 81.7798 32.1824 82.3729 32.1824 82.966 32.1823 83.5593 32.1823 84.1524 32.1823 84.7456 32.1823 85.3388 32.1823 85.9319 32.1823 86.5251 32.1823 87.1183 32.1823 87.7114 32.1823 88.3046 32.1823 88.8977 32.1823 89.4909 32.1823 90.0841 32.1823 90.6772 32.1823 91.2704 32.1823 91.8636 32.1823 92.4567 32.1823 93.0499 32.1823 93.6431 32.1823 94.2362 32.1823 94.8294 32.1823 95.4226 32.1823 96.0157 32.1823 96.6089 32.1823 97.2021 32.1822 97.7952 32.1822 98.3884 32.1822 98.9816 32.1822 99.5747 32.1822 100.1679 32.1822 100.7611 32.1822 101.3542 32.1822 101.9474 32.1822 102.5406 32.1822 103.1337 32.1822 103.7269 32.1822 104.32 32.1822 104.9132 32.1822 105.5064 32.1822 106.0995 32.1822 106.6927 32.1822 107.2859 32.1822 107.879 32.1822 108.4722 32.1822 109.0654 32.1822 109.6585 32.1822 110.2517 32.1822 110.8449 32.1822 111.438 32.1822 112.0312 32.1822 112.6244 32.1822 113.2175 32.1822 113.8107 32.1822 114.4039 32.1822 114.997 32.1822 115.5902 32.1822 116.1834 32.1822 116.5115 32.1841 116.5168 31.8901 116.5209 31.6584 116.8213 31.6866 116.9111 31.7288 116.9396 31.7489 116.9312 31.8129 116.9559 32.0068 117.0104 32.1686 117.1365 32.3627 117.1368 32.3633 117.1472 32.4391 117.1886 32.4865 117.2643 32.5307 117.5519 32.5843 118.0513 32.647 118.3345 32.719 118.4014 32.8002 118.5347 32.8328 118.7343 32.8169 118.8743 32.783 118.9936 32.7061 119.1604 32.689 119.3033 32.6939 119.4473 32.7015 119.5245 32.7127 119.7464 32.774 119.8912 32.824 120.099 32.9168 120.214 32.9582 120.2693 33.0548 120.3337 33.179 120.4257 33.179 120.4949 33.1063 120.6715 33.0931 120.9032 33.1439 121.1074 33.289 121.4011 33.4183 121.5805 33.4827 121.7629 33.4824 121.9946 33.4183 122.2411 33.2944 122.4184 33.2729 122.5237 33.2848 122.5836 33.3815 122.6572 33.4183 122.8482 33.4072 123.2474 33.4259 123.565 33.3995 123.6372 33.4551 123.7016 33.5425 123.8304 33.5701 124.0052 33.5425 124.318 33.564 124.45 33.5691 124.7039 33.536 124.8256 33.4979 124.9968 33.4333 125.2249 33.3472 125.624 33.1965 125.949 33.1422 126.2516 33.2503 126.4925 33.3456 126.5857 33.3825 126.8314 33.4796 127.1787 33.617 127.5769 33.7746 127.975 33.9322 128.3223 34.0696 128.568 34.1667 128.6612 34.2036 128.9312 34.315 129.2012 34.4263 129.4712 34.5376 129.7412 34.649 130.0111 34.7603 130.2811 34.8716 130.5511 34.9829 130.8211 35.0942 130.8892 35.2793 130.9554 35.4595 131.1135 35.5904 131.2582 35.7099 131.342 35.7036 131.4269 35.6531 131.4809 35.6288 131.5713 35.6248 131.7723 35.5816 131.8318 35.5911 131.8655 35.6127 131.8683 35.6465 131.8615 35.6734 131.8304 35.7274 131.8795 35.8303 131.8898 35.9446 131.9168 36.031 131.9991 36.1416 132.0706 36.228 132.1607 36.2447 132.3692 36.1944 132.4998 36.1754 132.574 36.1836 132.7009 36.2645 132.7629 36.3131 132.7777 36.3535 132.6064 36.6005 132.8781 36.7231 133.1814 36.857 133.5431 37.0167 133.7642 37.1145 134.0554 37.2541 134.1053 37.453 134.1472 37.6208 134.2008 37.8548 134.2553 38.0935 134.3097 38.3313 134.3674 38.5837 134.4308 38.861 134.4871 39.1071 134.5486 39.3758 134.6303 39.7254 134.5572 39.8601 134.398 40.1534 134.2542 40.4185 134.2416 40.4954 134.1427 40.882 134.0634 41.0417 133.9246 41.1344 133.7867 41.2243 133.6148 41.3749 133.4257 41.4493 133.3291 41.493 133.2785 41.562 133.2227 41.7133 133.2334 41.9443 133.3892 42.1432 133.617 42.2544 133.8621 42.3626 134.2112 42.3631 134.5253 42.2186 134.858 42.0656 135.1546 41.9291 135.5074 41.7668 135.827 41.6198 136.1739 41.5669 136.6547 41.4938 137.26 41.4016 137.5546 41.2966 137.9354 41.161 138.3747 41.0045 138.7538 40.8695 138.9444 40.7946 139.08 40.7092 139.1136 40.646 139.1056 40.6098 139.0706 40.5734 139.0223 40.5466 138.9793 40.5238 138.9591 40.4955 138.9551 40.4337 138.9287 40.3982 138.9036 40.372 138.9131 40.1328 138.88 40.0586 138.7564 39.8706 138.992 39.7863 139.2104 39.7081 139.3845 39.6502 139.7492 39.6411 140.0879 39.6423 140.5547 39.6438 140.948 39.6451 141.4068 39.6467 141.6758 39.6476 142.0283 39.6448 142.2001 39.4278 142.3536 39.2338 142.5227 39.0483 142.8232 38.8306 142.9105 38.7915 142.9587 38.7056 143.1409 38.624 143.3416 38.5484 143.4203 38.4774 143.4584 38.437 144.0019 38.0541 144.3106 37.8773 144.5655 37.7789 144.7596 37.7319 144.8906 37.7386 144.9651 37.7319 Z M 148.0245 43.3214 147.9256 43.4114 148.015 43.4205 148.0919 43.3941 148.1647 43.3407 148.3337 43.2685 148.4778 43.2369 148.5232 43.2303 148.5919 43.281 148.7281 43.2403 148.8683 43.2175 148.2621 43.4492 148.1381 43.4753 147.9608 43.5443 147.7931 43.5932 147.6724 43.611 147.0722 43.783 147.0246 43.7867 146.9731 43.77 146.4787 43.8585 146.2758 43.8685 146.091 43.8994 146.2277 43.8281 146.2307 43.8014 146.198 43.7806 146.1249 43.7866 146.0501 43.86 145.9306 43.8846 145.9068 43.8046 145.9466 43.7427 146.0006 43.684 146.1193 43.5918 146.2891 43.5333 146.3753 43.4828 146.4351 43.5273 146.4482 43.4671 146.4942 43.4324 146.5442 43.4138 146.6644 43.4133 146.7292 43.4038 146.776 43.3839 146.824 43.3801 146.9555 43.4074 147.0839 43.3996 147.1877 43.3619 147.2955 43.3493 147.5806 43.3408 147.864 43.3133 147.9773 43.2644 148.2153 43.1273 148.3523 43.0891 148.1391 43.2483 148.0245 43.3214 Z M 154.0378 38.6659 153.9568 38.693 153.868 38.6812 153.8699 38.7547 153.8599 38.7811 153.7616 38.7433 153.7255 38.719 153.7286 38.6217 153.8155 38.5297 153.8817 38.4934 153.9671 38.5186 154.0327 38.6216 154.0378 38.6659 Z M 145.6896 43.9657 145.6232 43.9715 145.6895 43.8381 145.8115 43.7771 145.8557 43.7898 145.8576 43.8369 145.8405 43.8772 145.7586 43.9393 145.6896 43.9657 Z M 150.8066 42.7784 150.4235 42.8464 150.3624 42.8025 150.458 42.7822 150.5787 42.678 150.659 42.6659 150.7851 42.7249 150.8066 42.7784 Z M 149.789 42.6176 149.7201 42.6556 149.6431 42.649 149.6822 42.5976 149.6971 42.5222 149.735 42.4394 149.7569 42.4141 149.802 42.3917 149.789 42.6176 Z M 151.5467 42.9325 151.4393 42.9549 151.1917 42.9036 151.3955 42.8601 151.4287 42.845 151.4553 42.7811 151.4586 42.749 151.536 42.8865 151.5467 42.9325 Z M 143.6758 50.4582 143.6548 50.4865 143.5624 50.3327 143.6575 50.3824 143.6744 50.4238 143.6758 50.4582 Z M 143.8032 51.3149 143.6166 51.3528 143.6001 51.3407 143.814 51.2613 143.8814 50.9819 143.8907 50.853 143.8586 50.6258 143.8597 50.5789 143.8945 50.6521 143.9252 50.8641 143.9136 51.0248 143.8516 51.2589 143.8032 51.3149 Z M 143.4724 51.3843 143.2195 51.4836 143.191 51.4777 143.3569 51.4067 143.4724 51.3843 Z M 142.4683 52.1456 142.4337 52.1616 142.561 51.9879 142.8126 51.7676 142.8805 51.7339 142.6714 51.922 142.4683 52.1456 Z M 134.7703 63.5383 134.7207 63.5746 134.6204 63.5479 134.5655 63.5003 134.5419 63.4069 134.6293 63.5058 134.6606 63.5281 134.7703 63.5383 Z M 134.7055 63.401 134.7035 63.4827 134.6334 63.3458 134.5867 63.1945 134.6535 63.2435 134.7055 63.401 Z M 137.0732 65.3626 136.7967 65.6242 136.8273 65.5587 136.9351 65.4187 136.97 65.3528 137.0428 65.311 137.1106 65.2355 137.1157 65.1474 137.2142 65.0858 137.2467 65.0769 137.0732 65.3626 Z M 121.1974 59.2993 121.1457 59.3191 120.9157 59.1986 120.9012 59.1468 121.0147 59.1 121.084 59.1042 121.1935 59.1654 121.2336 59.1824 121.2522 59.2072 121.2416 59.246 121.1974 59.2993 Z M 113.9347 61.5239 113.9045 61.5273 113.9718 61.4134 113.9843 61.3677 114.0947 61.2236 114.153 61.2021 114.1776 61.2635 114.0641 61.3647 113.9347 61.5239 Z M 114.2824 61.1748 114.2313 61.1805 114.2946 61.1054 114.3975 61.0675 114.6233 60.9232 114.7154 60.9132 114.7634 60.8635 114.7844 60.8562 114.7708 60.9171 114.5891 61.0036 114.2824 61.1748 Z M 113.4627 62.3608 113.4193 62.4408 113.4312 62.3215 113.5442 62.0505 113.7737 61.6943 113.8704 61.6346 113.6056 62.0253 113.4627 62.3608 Z M 116.6817 59.7929 116.6122 59.8062 116.9155 59.5922 116.979 59.5211 117.0602 59.5242 116.9248 59.6441 116.6817 59.7929 Z M 113.7171 63.9476 113.6979 64.0122 113.5827 63.7106 113.3952 63.0279 113.3882 62.6388 113.4177 62.5048 113.466 63.0544 113.6733 63.7523 113.7171 63.9476 Z M 81.5314 53.0055 81.4575 53.0091 81.3437 52.9943 81.3835 52.9617 81.4464 52.9381 81.4664 52.9558 81.5314 53.0055 Z M 82.7397 54.1291 82.6778 54.1317 82.5928 54.1188 82.5489 54.044 82.6185 54.0389 82.683 54.0492 82.7341 54.1079 82.7397 54.1291 Z M 84.2528 54.6711 84.1718 54.6837 84.082 54.6553 84.0045 54.5208 83.9192 54.4157 83.9653 54.3858 84.0343 54.487 84.2072 54.6406 84.2528 54.6711 Z M 81.8973 53.153 81.7995 53.1724 81.7254 53.1541 81.6075 53.0208 81.858 53.0032 81.9657 53.0611 81.9803 53.0772 81.8973 53.153 Z M 82.1216 52.9292 82.4047 53.0005 82.5573 52.9664 82.585 53.0009 82.567 53.0309 82.2229 53.0849 82.1172 53.0471 82.1076 52.9953 82.0719 52.9457 82.1216 52.9292 Z M 84.2562 53.8946 84.3264 53.997 84.2252 53.9843 84.1194 53.9901 84.0873 53.9344 84.0557 53.857 84.0345 53.8372 83.962 53.8303 83.9566 53.8232 83.9481 53.7855 83.9684 53.7675 84.1953 53.8538 84.2562 53.8946 Z M 78.0875 32.628 78.106 32.6582 78.0502 32.6876 78.0104 32.6922 77.9471 32.6448 77.9194 32.6391 77.9416 32.712 77.934 32.7368 77.8044 32.692 77.7805 32.6565 77.8169 32.619 77.8985 32.5803 77.9268 32.5756 78.0875 32.628 Z M 77.7662 32.867 77.8029 32.9127 77.6531 32.8835 77.5898 32.8572 77.571 32.8316 77.5485 32.7476 77.5589 32.7202 77.6256 32.7106 77.7508 32.8147 77.7662 32.867 Z M 78.3788 33.3459 78.4469 33.5284 78.4761 33.4524 78.6654 33.5841 78.6656 33.6489 78.6426 33.6707 78.6033 33.6783 78.5668 33.6593 78.5334 33.6139 78.4908 33.5898 78.4 33.5743 78.3529 33.5226 78.3365 33.4873 78.3322 33.385 78.3094 33.3532 78.2612 33.3461 78.2152 33.3219 78.1441 33.2504 78.134 33.2313 78.1677 33.173 78.2449 33.0755 78.3011 33.0293 78.336 33.0343 78.3792 33.0636 78.4306 33.117 78.421 33.1548 78.2127 33.2285 78.2059 33.2457 78.307 33.2664 78.3442 33.285 78.3788 33.3459 Z M 149.6166 42.6269 149.578 42.6526 149.5636 42.5854 149.5906 42.5082 149.618 42.5064 149.6316 42.5475 149.6166 42.6269 Z M 145.766 45.1372 145.6028 45.3478 145.5991 45.3073 145.8028 45.0459 145.766 45.1372 Z M 144.0968 47.6308 144.0336 47.6534 144.2458 47.3748 144.369 47.1414 144.424 47.0607 144.3706 47.2243 144.2774 47.3747 144.0968 47.6308 Z M 142.4091 52.129 142.3781 52.1323 142.3234 52.1169 142.2481 52.0876 142.2315 52.0661 142.3033 52.0739 142.4091 52.129 Z M 135.7474 66.0467 135.7057 66.0753 135.6859 66.0665 135.6859 66.0248 135.6266 65.9325 135.6288 65.9083 135.7648 65.9986 135.7683 66.0229 135.7474 66.0467 Z M 136.4505 65.8336 136.4242 65.8336 136.4374 65.8139 136.4922 65.7743 136.512 65.7897 136.5098 65.8095 136.4505 65.8336 Z M 136.7164 65.6952 136.679 65.7018 136.7339 65.6424 136.7493 65.6468 136.7164 65.6952 Z M 136.1517 65.9545 136.088 65.9874 136.0221 65.9633 136.0946 65.9303 136.3099 65.8951 136.2286 65.9391 136.1517 65.9545 Z M 135.6303 57.2533 135.5684 57.5922 135.5417 57.4722 135.539 57.3557 135.5859 57.2867 135.6303 57.2533 Z M 135.4248 66.1171 135.3347 66.1308 135.4074 66.0761 135.4309 65.9929 135.4736 66.0579 135.4728 66.0973 135.4248 66.1171 Z M 137.3445 62.3909 137.3671 62.4933 137.2392 62.2557 137.0812 61.8831 136.9965 61.595 137.0538 61.6729 137.1098 61.8341 137.3445 62.3909 Z M 135.1227 66.1941 135.0874 66.1972 135.0844 66.1757 135.1452 66.1494 135.1856 66.1511 135.1841 66.1803 135.1227 66.1941 Z M 125.2379 59.0045 125.1624 59.0774 125.1658 59.0496 125.2214 58.9767 125.2611 58.9484 125.2379 59.0045 Z M 125.6987 58.3043 125.6812 58.3198 125.558 58.2909 125.4831 58.264 125.4695 58.2371 125.6766 58.2859 125.6987 58.3043 Z M 126.3758 58.2537 126.2534 58.2835 126.072 58.2807 126.0351 58.2702 126.1079 58.2503 126.3229 58.2239 126.3758 58.2537 Z M 124.7723 58.4877 124.7772 58.5524 124.7091 58.5202 124.6081 58.5173 124.6526 58.4952 124.6837 58.4737 124.6993 58.4505 124.827 58.3701 124.7908 58.4291 124.7723 58.4877 Z M 125.324 58.8722 125.2847 58.9165 125.3232 58.7044 125.2691 58.5258 125.3261 58.6042 125.3446 58.6974 125.324 58.8722 Z M 130.7767 59.1019 130.6371 59.1519 130.4861 59.1155 130.5799 59.1086 130.6478 59.1233 130.8197 59.0517 130.9098 58.9975 131.0142 58.977 130.7767 59.1019 Z M 77.9888 34.6702 77.9756 34.6975 77.9559 34.696 77.9125 34.6404 77.907 34.6011 77.9443 34.5728 77.9943 34.6541 77.9888 34.6702 Z M 78.6273 34.4051 78.6209 34.4368 78.5675 34.4614 78.5399 34.4551 78.5382 34.4178 78.5238 34.4121 78.4662 34.4569 78.4705 34.3684 78.4988 34.275 78.5237 34.2733 78.5606 34.3343 78.6273 34.4051 Z M 78.4838 34.1278 78.4764 34.1545 78.3996 34.1227 78.3744 34.0932 78.3775 34.0273 78.3964 33.9843 78.4108 33.9757 78.4561 33.9943 78.4691 34.0053 78.4838 34.1278 Z M 78.0336 32.9637 78.0118 32.9774 77.9374 32.9591 77.8935 32.9282 77.8787 32.8894 77.9066 32.8154 77.9437 32.7964 77.9668 32.8006 77.9766 32.8657 78.0424 32.9345 78.0336 32.9637 Z M 153.4313 38.8557 153.3785 38.8832 153.3221 38.8743 153.3203 38.8057 153.3373 38.7824 153.3568 38.772 153.3857 38.7913 153.4313 38.8557 Z"/>
</g>
</svg>