<?xml version="1.0"?>
<svg xmlns="http://www.w3.org/2000/svg" version="1.2" baseProfile="tiny" width="440" height="400" viewBox="0 0 440 400" stroke-linecap="round" stroke-linejoin="round">
<g id="ne_50m_admin_0_countries-uruguay">
<path d="M 418.4226 300.9258 414.3884 303.9746 410.0325 309.7502 404.9205 323.6023 387.7543 342.7151 384.2631 353.4943 365.7335 364.748 352.6939 377.4095 344.1631 377.0958 336.485 382.5176 292.2542 399 276.3711 395.895 264.6105 395.9513 253.6786 388.6874 228.7578 386.057 213.124 388.9609 192.1208 396.9487 185.8021 396.8281 181.2451 396.4017 169.8868 393.0876 163.6887 386.0328 131.3915 377.9002 105.4009 359.4228 74.6964 359.0689 51.1673 361.4821 47.5313 359.0367 45.1503 354.2987 40.2836 347.4451 20.0365 331.1477 4.1251 314.9468 1 299.0274 3.2081 281.7084 7.9823 261.2119 7.1457 254.8088 13.022 251.1567 18.8379 250.4247 24.4406 245.1156 29.4562 237.1036 30.3088 231.0303 26.4155 219.7926 23.7287 204.0824 20.5191 196.2715 26.9544 183.9318 27.2279 177.9229 23.5156 172.6459 22.51 167.2241 24.2114 161.6656 23.8775 156.3082 21.5206 151.1761 23.2943 146.9288 29.1947 143.5663 33.6029 138.41 36.5149 131.4679 38.0071 126.1668 38.0795 122.5068 36.2937 119.0639 32.6537 115.814 34.3389 109.3626 41.3454 99.7097 45.8742 91.1346 47.9295 83.6455 47.7928 77.6044 45.468 73.0031 46.4534 69.89 50.757 68.249 52.6917 63.3984 52.0361 51.3242 47.5917 41.3575 50.9943 33.4662 60.7559 24.3441 65.8478 16.9757 66.2702 11.3689 69.3068 8.1432 73.9684 14.1924 87.8446 15.7932 101.7971 16.0184 104.0656 14.49 109.5356 4.5716 116.7673 1.732 124.6304 1 133.2417 1.5068 142.3879 8.0708 168.29 29.5326 187.3224 44.4384 193.1142 51.4689 198.1418 56.7298 201.9185 61.6367 200.3137 74.3787 200.555 79.9613 201.4479 81.5701 205.7878 81.7069 212.2392 80.7818 217.669 78.0709 221.9042 73.9845 226.055 70.6462 229.4094 68.8604 230.624 66.1575 232.5466 63.3582 234.5335 62.7549 238.2982 64.8303 247.1749 72.1183 254.0526 78.8512 255.7459 82.7043 258.4005 86.7184 261.228 90.2176 263.231 93.6283 269.9116 98.0767 276.6969 100.9082 281.2378 98.0284 292.7731 107.2712 318.1725 115.0096 322.8461 119.6913 327.2302 126.3438 336.1069 136.4151 348.4104 145.4889 358.3047 149.3098 367.8008 151.4978 373.118 153.4928 376.7499 156.9679 382.5497 160.7084 386.2058 162.1 387.4526 165.4464 391.1972 172.7666 395.1107 182.0254 399.3861 190.6165 408.6369 198.8698 419.0701 205.289 429.9016 208.933 435.995 213.4377 438.6053 218.1033 431.3173 225.0535 423.4059 233.7814 416.3955 240.643 409.1758 245.4373 406.7867 248.7435 405.1819 253.8676 405.2624 281.0005 404.6631 291.0959 405.1819 293.7826 406.2116 295.5765 410.7646 298.2632 416.2024 300.5236 418.4226 300.9258 Z"/>
</g>
</svg>