<?xml version="1.0" encoding="utf-8"?>
<!-- Generator: Adobe Illustrator 20.0.0, SVG Export Plug-In . SVG Version: 6.00 Build 0)  -->
<svg version="1.1"
	 id="svg1923" inkscape:version="0.44" sodipodi:docbase="/Users/amyshore/Desktop" sodipodi:docname="usa.svg" sodipodi:version="0.32" xmlns:cc="http://web.resource.org/cc/" xmlns:dc="http://purl.org/dc/elements/1.1/" xmlns:inkscape="http://www.inkscape.org/namespaces/inkscape" xmlns:rdf="http://www.w3.org/1999/02/22-rdf-syntax-ns#" xmlns:sodipodi="http://sodipodi.sourceforge.net/DTD/sodipodi-0.dtd" xmlns:svg="http://www.w3.org/2000/svg"
	 xmlns="http://www.w3.org/2000/svg" xmlns:xlink="http://www.w3.org/1999/xlink" x="0px" y="0px" width="931" height="500"
	 viewBox="0 0 1182 635" style="enable-background:new 0 0 1182 635;" xml:space="preserve">
<style type="text/css">
	.st0{display:none;}
	.st1{opacity:0.9;}
	.st2{fill:#FFFFFF;stroke:#000000;}
</style>
<sodipodi:namedview  bordercolor="#666666" borderopacity="1.0" gridtolerance="10.0" guidetolerance="10.0" id="base" inkscape:current-layer="layer2" inkscape:cx="775.234" inkscape:cy="319.32597" inkscape:pageopacity="0.0" inkscape:pageshadow="2" inkscape:window-height="752" inkscape:window-width="1280" inkscape:window-x="0" inkscape:window-y="22" inkscape:zoom="0.59527559" objecttolerance="10.0" pagecolor="#ffffff">
	</sodipodi:namedview>
<g id="layer1" inkscape:groupmode="layer" inkscape:label="bg" sodipodi:insensitive="true" class="st0">
</g>
<g id="layer2" inkscape:groupmode="layer" inkscape:label="vector" class="st1">
	<path id="path1932" class="st2" d="M880.4,100.6l4.6-11.3l1.7-24.8c0,0,4.6-15.1,6.7-15.5c2.1-0.4,3.4,3.8,5.5,3.8
		c2.1,0,4.6-5.9,7.1-5.9c2.5,0,6.7-0.8,8,1.3c1.3,2.1,5,26,8.4,28.1c3.4,2.1,6.3,2.1,7.1,3.8c0.8,1.7-1.7,2.5,0.4,4.2s8.4,1.3,9.7,5
		c1.3,3.8,0.4,4.2-1.7,6.7c-2.1,2.5-4.6,2.5-5.9,4.2c-1.3,1.7,0,2.9-3.8,5.5c-3.8,2.5-5.5,3.4-7.1,3.4c-1.7,0-1.7-2.1-3.8-0.4
		c-2.1,1.7-1.3,3.8-2.5,6.7c-1.3,2.9-3.4,5.9-5.9,7.6c-2.5,1.7-4.2-1.3-5.9,1.7c-1.7,2.9-2.1,7.1-2.5,9.7c-0.4,2.5-3.8,6.7-2.9,10.1
		c0.8,3.4,2.5,13.4,1.3,15.1c-1.3,1.7,5,7.6,8.8,7.6s2.9-4.6,5.9-4.6c2.9,0,4.6,5.9,1.7,7.6c-2.9,1.7-6.7,2.1-9.7,2.9
		c-2.9,0.8-2.5,2.9-4.6,2.9c-2.1,0-6.3-1.3-8.4,5.5c-2.1,6.7-10.5,5-16,8c-5.5,2.9-13.4,5.5-11.3,8.4c2.1,2.9,21.8-11.8,22.7-9.2
		c0.8,2.5-8.4,10.9-11.8,11.8s-11.3,2.9-13.9,5.5c-2.5,2.5-0.4,2.5,0.8,7.6c1.3,5-0.8,15.5-2.1,18.1c-1.3,2.5-5.5,13.9-7.1,13.9
		c-1.7,0-1.7-4.6-2.1-5.5c-0.4-0.8-5.9-5.9-7.1-3.8c-1.3,2.1,2.5,10.1,2.5,10.1s5,3.4,5.9,5.5c0.8,2.1-1.7,14.7-1.7,14.7l-0.8,9.7
		c0,0-2.9,10.5-4.6,10.5c-1.7,0-2.1-14.7-1.3-17.6c0.8-2.9-1.3-5.9-3.8-5.5c-2.5,0.4-6.7-8-6.7-11.8s1.7-13,1.7-13s-6.7,3.8-7.1,9.2
		c-0.4,5.5,2.9,17.6,2.9,17.6l-5.9,0.4c0,0,5.9,2.9,8,5c2.1,2.1,2.5,10.1,5,14.3c2.5,4.2,5.5,9.7,8.8,10.5
		c3.4,0.8,13.9,18.5,13.4,21.8c-0.4,3.4-0.8,6.7-12.2,16s-16,10.9-18.1,14.7c-2.1,3.8-2.1,8-5,11.3c-2.9,3.4-13,4.6-16.8,12.6
		c-3.8,8-2.5,6.7-5.5,9.7c-2.9,2.9-23.9,23.5-26.5,43.3c-2.5,19.7,8.4,36.5,9.2,39.5c0.8,2.9,8.4,7.6,10.5,12.2
		c2.1,4.6,7.6,21.4,13.4,30.2c5.9,8.8,8,37.4,2.5,40.7c-5.5,3.4-11.8,3.8-12.6,1.7c-0.8-2.1-2.9-5.5-5.5-8.4
		c-2.5-2.9-5.5-4.2-7.6-5.9c-2.1-1.7,0.8-1.7-1.3-4.6s-4.2-4.2-5.9-5.5c-1.7-1.3-0.4-1.7-0.8-3.4c-0.4-1.7-5.5-2.1-8-3.8
		c-2.5-1.7-3.8-2.1-3.8-6.3c0-4.2,0.8-10.1,0.8-10.1s-3.8-0.4-5.5-2.9c-1.7-2.5,2.1-16.8-2.9-21.4c-5-4.6-10.1-8-13-9.7
		c-2.9-1.7-9.2-12.2-14.7-11.8c-5.5,0.4-15.1,11.3-20.2,11.3c-5,0-7.6-4.6-9.2-6.7c-1.7-2.1-1.7,1.7-6.3-1.3s-5.5-4.6-9.2-4.6
		c-3.8,0-8.8,4.6-12.2,4.6s-8-0.8-8-0.8s1.7,2.5-1.7,2.1c-3.4-0.4-7.1-5-7.1-5s-1.7,4.2-3.8,4.2c-2.1,0-18.5,1.7-18.5,1.7l-9.7,8
		l8.4,2.1c0,0-6.7,2.1-4.6,5.5c2.1,3.4,13.4,5.5,10.9,7.6c-2.5,2.1-2.9,4.6-5,3.8c-2.1-0.8-10.1-8-11.8-5.9
		c-1.7,2.1-5.5,4.2-9.7,4.2c-4.2,0-5.5,2.5-8.4,1.3s-5-5.9-5-5.9l-5.5-5l-8.8-1.3c0,0-1.7,3.4-4.2,3.4c-2.5,0-8.4,0.4-11.8-0.4
		c-3.4-0.8-11.3-5-16.4-3.4c-5,1.7-16.8,7.1-18.1,8.8s-8,11.8-10.9,13.4c-2.9,1.7-24.4,10.9-29.8,19.7c-5.5,8.8-8.8,9.7-8.4,13.9
		c0.4,4.2,5.9,26,2.5,26.9s-15.5-3.4-20.2-4.2c-4.6-0.8-17.2-10.1-18.9-13.4c-1.7-3.4-2.5-16.4-4.2-18.9
		c-1.7-2.5-14.3-11.3-15.1-15.1c-0.8-3.8-4.2-16-6.3-18.1c-2.1-2.1-9.7-13-14.7-14.3c-5-1.3-18.1-2.5-20.6,1.7
		c-2.5,4.2-3.8,10.9-8,11.8c-4.2,0.8-13-5.5-16-7.1c-2.9-1.7-16.4-19.7-17.2-29.8c-0.8-10.1-23.9-24.4-23.9-24.4v-1.3l-29.4-2.9
		l-1.3,7.1l-53.8-6.7l-57.5-35.3l-0.4-3.4l-38.6-5l-2.9-4.2l0.4-11.8c0,0-8.8-12.2-11.8-13.4c-2.9-1.3-3.8-1.3-3.8-1.3v-4.2
		c0,0-6.7-2.9-8.8-3.8c-2.1-0.8-8.8-9.7-8.8-9.7L93.8,324l0.4-13l-11.8-32.3l2.9-5.9l-0.4-5l-6.3-6.7l1.7-11.8l5,3.4
		c0,0-2.5-4.6-0.8-6.3c1.7-1.7,3.4-5.5,3.4-5.5s-5,1.3-8,2.1c-2.9,0.8-5.5-2.1-5.5-4.6s-6.7-17.2-6.7-17.2s0.4-19.3,0.8-21
		c0.4-1.7-5.5-14.3-3.8-16.4c1.7-2.1,12.2-16.8,12.2-16.8v-20.6c0,0,1.7-5.9,2.1-7.6c0.4-1.7-0.8-4.6-0.8-4.6s13.9-21,19.3-33.2
		c5.5-12.2,11.8-36.1,11.8-55.9s0.4-22.7,2.9-22.7c2.5,0,6.3,5.9,9.2,8c2.9,2.1,9.7,0.8,12.2,4.6c2.5,3.8,0.4,15.1-1.3,16.8
		c-1.7,1.7-6.3,0.8-5.9,2.9s7.1,3.4,9.7,0.4c2.5-2.9,4.2-10.5,4.6-12.6c0.4-2.1-1.3-11.8-1.3-11.8s4.2,0,4.6-2.5
		c0.4-2.5-4.2-5.9-4.2-5.9v-3.8l79,19.7l11.3,2.1c0,0,63.8,12.6,87.4,15.5s63.4,8.8,82.7,10.5c19.3,1.7,85.3,4.6,95.3,4.6
		c10.1,0,26.5,0,26.5,0l1.3-8.4l3.8-0.4l3.8,10.9l6.3,0.4l2.9,3.8c0,0,4.6,1.3,10.5,0.8c5.9-0.4,6.3-0.4,6.3-0.4s2.1,3.4,4.6,4.6
		c2.5,1.3,4.2,0.8,6.3,1.3s2.1,2.5,5,3.4c2.9,0.8,8-0.8,11.3-1.7c3.4-0.8,11.3,0.8,15.1,2.1c3.8,1.3-8.8,5-11.8,8.4
		c-2.9,3.4-20.2,18.1-17.6,20.6c2.5,2.5,13.9-3.8,16-3.4c2.1,0.4,0.8,4.2,0.8,4.2l8.8,0.4c0,0,6.3-5,9.7-5.9
		c3.4-0.8,5.9-0.8,5.9-0.8l13.4-14.3h3.8c0,0-5,3.8-5,7.6c0,3.8-0.4,3.8-0.4,3.8s6.3,0,9.2,1.7c2.9,1.7,7.6,6.3,7.6,6.3l12.6,0.8
		c0,0-1.3-3.4,2.9-4.6s15.5-3.8,15.5-3.8l3.4,4.6h7.1l6.3,5v1.7l-5,0.4l-1.7,3.8c0,0-5.9-1.3-8.8-1.7c-2.9-0.4-9.2,0.4-12.6,2.5
		c-3.4,2.1-3.8,6.3-3.8,6.3s-9.7-3.4-12.2,0c-2.5,3.4-0.8,7.1-2.9,10.5c-2.1,3.4-6.7,6.3-7.1,9.2c-0.4,2.9-1.7,8,0.8,7.1
		c2.5-0.8,5.9-4.2,6.7-7.1c0.8-2.9,2.9-8,4.6-7.1c1.7,0.8,0,8.4-1.7,11.3c-1.7,2.9-5,11.3-5.5,13.9c-0.4,2.5,1.3,8.8,0,10.5
		c-1.3,1.7-3.4,1.7-2.9,7.1c0.4,5.5,3.8,5.9,3.8,10.5c0,4.6-0.8,6.3,0.8,10.5c1.7,4.2,3.4,9.7,5.9,10.9c2.5,1.3,5,2.5,8.4,0
		s7.6-9.2,8.4-13.4c0.8-4.2,2.5-10.5,0.4-15.5s-5.5-8.8-5-14.3c0.4-5.5,0-12.6,1.7-15.1c1.7-2.5-0.8-5.9,0.4-8.4
		c1.3-2.5,11.3-4.2,11.3-4.2s2.1-7.6,3.8-9.7c1.7-2.1-2.9-8,0.4-8.4c3.4-0.4,12.2,0.8,15.1,1.7c2.9,0.8,5.9-2.1,7.6,1.7
		c1.7,3.8,2.1,6.7,2.9,9.2c0.8,2.5,2.9,7.1,2.1,10.5c-0.8,3.4-5,11.8-5,11.8s-2.5,5.5-0.4,5.5c2.1,0,6.7-7.6,10.1-7.1
		c3.4,0.4,6.7,5,8,8.8c1.3,3.8,3.8,9.2,4.2,11.8c0.4,2.5,0,2.5-2.9,6.3c-2.9,3.8-4.6,9.7-4.6,12.6c0,2.9-9.2,8.8-5.9,9.2
		c3.4,0.4,8.4,4.6,11.3,4.6c2.9,0,8.4-2.5,11.8-3.8s6.3-1.7,8.8-2.5c2.5-0.8,3.4-4.6,6.3-5.9c2.9-1.3,5.9-0.4,8.8-2.1
		c2.9-1.7,1.3-3.8,4.6-6.7c3.4-2.9,12.2-7.1,14.3-11.8c2.1-4.6,2.5-8.4,0.8-8.4c-1.7,0-2.5-2.9-1.3-5.5c1.3-2.5,5.5-5.5,8.4-5.9
		c2.9-0.4,22.3,0.4,25.6-2.9c3.4-3.4,6.7-10.5,6.7-14.3c0-3.8-1.7-10.5,3.8-16c5.5-5.5,6.7-8.8,6.7-8.8l31.1-8.8c0,0,13-2.1,16-4.2
		c2.9-2.1,2.9-8.4,2.9-8.4L880.4,100.6z"/>
	<path id="path12582" class="st2" d="M893.1,168.6l2.7,3.6l2.7,3c0,0-1.8,0.3-3,1.8c-1.2,1.5-1.5,5.3-3,5s-1.5-3-1.5-5.6
		c0-2.7-1.8-5.3-1.8-5.3S887.2,168.3,893.1,168.6z"/>
	<g id="g13581" transform="translate(-2.815781,3.144444)">
		<path id="path13571" class="st2" d="M30.2,463.7c0,0,0-2.9,3.8-3.4c3.8-0.4,5,1.3,5,1.3l-2.1,4.2L30.2,463.7z"/>
		<path id="path13573" class="st2" d="M63.4,472.1c1.7-0.4,1.3,2.1,4.2,3.4c2.9,1.3,4.2,0.4,4.2,2.1S71,480,71,480s-5.5-1.3-7.1-1.7
			C62.2,477.9,63.4,472.9,63.4,472.1z"/>
		<path id="path13575" class="st2" d="M81.5,485.9l-0.4-5l7.1,0.4L81.5,485.9z"/>
		<path id="path13577" class="st2" d="M91.6,488.4c0.8-2.1,5.9-2.5,8.4,0s5.5,5,5.5,5H94.1L91.6,488.4z"/>
		<path id="path13579" class="st2" d="M118.4,505.6c0,0,10.1,8.8,8.8,12.2c-1.3,3.4-8,5-8.8,6.7c-0.8,1.7-0.8,5-5,4.6
			c-4.2-0.4-5.9,0.8-5.9-2.5c0-3.4,1.3-5.9-0.4-7.1c-1.7-1.3-2.9-1.3-2.9-3.8c0-2.5,3.4-1.7,3.8-4.2c0.4-2.5-4.6-6.3-2.5-8.4
			C107.5,501,116.8,504.8,118.4,505.6z"/>
	</g>
	<g id="g13612" transform="translate(-2.815781,3.144444)">
		<path id="path13588" class="st2" d="M299,481.7l5.5,81.5c0,0,0.8,4.2,3.8,4.2s5.5,0,5.5,0s2.5,5,5.5,5.9c2.9,0.8,2.1,2.1,4.2,2.1
			c2.1,0,1.3-3.4,5-3.4s3.4,2.5,6.3,3.8c2.9,1.3,4.2-1.7,6.3,1.3c2.1,2.9,2.1,5.5,5.5,9.2c3.4,3.8,3.4,7.6,6.7,8.4
			c3.4,0.8,10.1,0,10.5,4.2c0.4,4.2,0.4,10.9-1.3,10.9c-1.7,0-6.7,0.8-6.7,0.8s-3.4,5-5.9,1.3c-2.5-3.8-2.9-8.4-5.5-9.7
			c-2.5-1.3-4.2,1.7-5.9-1.7c-1.7-3.4-11.3-14.3-11.3-14.3l-10.9-8.4c0,0-2.5-4.2-5.9-4.6c-3.4-0.4-14.3-2.5-18.1-4.2
			c-3.8-1.7-8.4-1.7-10.1-3.4c-1.7-1.7-2.9-4.6-5.9-4.2s-2.5,6.3-4.6,8c-2.1,1.7-9.7,1.3-11.3,3.8c-1.7,2.5-5.9,2.9-5.9,2.9l-0.8-5
			l6.7-8.8l2.1-2.1c0,0-9.2-2.9-10.1,2.1c-0.8,5-0.8,5-0.8,5l-1.3-0.4c0,0-5.5,6.7-5.9,8.8c-0.4,2.1,2.5,3.8-0.8,5.9
			c-3.4,2.1-10.9,4.6-14.3,8.4c-3.4,3.8-8.8,9.7-11.8,9.7s-14.7,2.9-17.6,3.4c-2.9,0.4,5.9-4.2,8-6.3s6.3-4.6,9.2-6.3
			c2.9-1.7,5.9-3.4,8-5.9c2.1-2.5,7.1-6.7,2.9-7.6s-6.7-1.7-10.1-1.7c-3.4,0-1.3-3.4-3.8-3.4s-6.7,0-6.7,0s0.8-6.7-1.3-8.8
			s-4.6-1.3-6.7-2.9c-2.1-1.7-3.8-6.7-3.8-8.4c0-1.7-4.6-3.8-3.4-7.6s2.5-5.5,5-6.7c2.5-1.3,3.4-5.5,6.7-6.3
			c3.4-0.8,13.9,0.8,14.3-1.3c0.4-2.1,0.8-3.4,2.1-5c1.3-1.7,5-4.6,4.2-6.3c-0.8-1.7-4.2-0.4-7.1-0.4s-17.2-2.1-17.2-2.1
			s-2.5-9.7-0.4-11.8c2.1-2.1,13-5.5,15.1-4.2s2.1,3.8,2.1,3.8l7.1,0.8c0,0-6.3-8.4-6.7-10.5c-0.4-2.1-1.3-8.8-3.4-10.5
			c-2.1-1.7-2.9-5.9,0.8-6.3c3.8-0.4,10.1,2.1,10.9,0c0.8-2.1,1.7-4.2,3.8-7.1c2.1-2.9,2.1,1.3,3.8,0s2.9-2.5,5-3.8
			c2.1-1.3,7.6-2.9,10.9-2.9c3.4,0,9.2,4.2,11.3,5.5c2.1,1.3,3.8,3.4,3.8,3.4s2.9-2.1,5.5-1.3c2.5,0.8,1.3,3.8,5,5s9.2,2.1,10.9,1.3
			c1.7-0.8,3.8-2.5,6.3-1.7C294.8,476.7,298.6,480.9,299,481.7z"/>
		<path id="path13590" class="st2" d="M153.3,614.4l15.1,0.8l3.4-4.6c0,0-3.4,0.8-6.7,1.3c-3.4,0.4-2.1-2.5-5.5-2.5
			S153.7,614,153.3,614.4z"/>
		<path id="path13592" class="st2" d="M178.5,514.9c0,0,2.9-2.5,3.4-0.8c0.4,1.7,5,5.5,4.2,7.1c-0.8,1.7-6.3,0-6.3,0
			S175.5,516.6,178.5,514.9z"/>
		<path id="path13594" class="st2" d="M251.1,585.9l-2.5,4.2l0.4,3.4c0,0-7.1,4.6-9.2,4.6c-2.1,0-3.4-4.6-1.7-6.7s5.5-4.2,7.1-5.5
			C246.9,584.6,250.7,585,251.1,585.9z"/>
		<path id="path13596" class="st2" d="M190.2,558.1l-4.2-1.7v-2.1l5-0.8C191.1,553.5,189,554.4,190.2,558.1z"/>
	</g>
</g>
</svg>
