<?xml version="1.0"?>
<svg xmlns="http://www.w3.org/2000/svg" version="1.2" baseProfile="tiny" width="500" height="245" viewBox="0 0 500 245" stroke-linecap="round" stroke-linejoin="round">
<g id="ne_50m_admin_0_countries-Uzbekistan">
<path d="M 435.4446 96.9565 436.3798 96.4379 438.0348 95.9122 440.761 96.9182 443.1613 98.1821 443.7309 98.7673 443.6204 99.446 437.9243 101.9158 434.3876 103.0706 432.829 103.2789 432.4011 103.6033 431.2817 106.4174 429.0883 106.9232 426.2771 107.7861 424.3047 109.0826 421.1732 112.1517 413.2214 116.6094 413.1052 117.5219 413.7995 118.263 416.3868 118.7745 419.8045 120.1461 421.6493 121.2173 426.7135 119.833 427.9604 120.139 429.281 121.5687 430.6752 125.5744 432.9395 126.6654 435.9037 127.5043 437.7429 127.7777 440.2027 128.7625 443.473 129.1309 445.6608 128.7668 448.3955 129.6112 448.8404 129.2443 449.2031 123.2704 451.4986 124.2694 452.822 124.2524 453.981 123.5212 454.5818 122.5294 454.9701 120.5556 454.4656 118.5875 455.4887 117.6905 456.285 117.4865 456.8716 117.7246 457.223 118.2304 457.3222 120.0172 458.9772 120.771 459.986 121.2031 460.9524 122.715 461.8875 124.156 462.4855 127.5326 464.8036 127.7636 467.5298 128.4111 469.3576 127.7777 470.7746 128.1504 471.2592 129.7544 471.2507 131.2521 471.4434 132.4395 472.1915 132.7781 474.5663 132.0328 476.5727 131.9308 478.4091 132.6421 480.6903 133.7232 484.0116 136.5642 485.1112 136.9666 490.1215 137.1919 491.1558 137.7671 492.8788 137.7643 494.7378 137.2514 498.8611 138.1681 499 138.6867 498.3029 139.4009 488.4636 143.3371 487.7382 144.5472 485.729 146.0874 483.5384 146.9631 482.4757 146.9942 477.6751 145.4356 477.1111 145.8111 476.7172 146.4402 476.7371 147.1289 477.7884 148.7725 477.3038 149.8083 476.3885 150.555 473.3789 149.9004 472.8178 149.4824 472.764 149.0247 471.6049 149.0233 469.8167 149.4824 466.3736 152.3234 465.1692 153.8097 464.7214 154.7066 463.1855 155.2182 461.522 155.4109 459.4107 156.7541 457.0841 157.7899 456.3388 157.0276 455.8769 156.1746 455.2676 155.9096 453.8337 156.1094 452.0908 156.1463 450.263 155.1884 447.9052 154.2249 445.8308 153.8848 439.7323 154.3397 436.7171 154.8143 435.7705 155.2791 434.0702 155.4038 426.9232 156.373 425.4609 155.9961 424.3897 154.4587 423.4545 152.7938 421.6068 152.1887 419.5268 151.724 418.7531 151.0637 418.6993 150.2546 418.9146 149.464 419.0733 149.0502 423.8966 145.8791 428.2353 143.024 428.632 142.7944 429.0259 142.2518 429.7656 141.2656 429.7627 140.7484 426.5179 139.6177 426.3904 139.0948 427.045 138.5578 427.045 137.8451 424.7496 135.7608 420.7822 132.5117 419.6344 132.1731 418.7843 132.3899 417.2257 135.5355 416.4463 136.3346 411.9263 138.4033 408.1346 139.8245 401.3899 142.3538 399.6386 143.1458 398.4172 143.0013 397.1873 142.5054 393.4098 139.9506 390.9613 139.0778 389.3176 139.9421 387.929 141.2032 388.0622 143.7905 386.4951 145.1579 384.9365 145.77 387.7788 152.7102 387.4955 153.6043 385.3219 153.8494 386.9287 156.4622 385.5769 156.7669 382.1536 156.1533 377.5514 155.7509 368.8684 156.91 368.2336 157.362 367.9955 157.9373 368.4971 158.4615 372.6998 158.5225 376.8287 158.2547 377.9651 158.7407 378.1408 159.6007 377.6647 160.1406 376.296 160.2313 373.2836 160.7499 372.9378 161.2968 372.8415 161.8239 373.856 163.3485 375.0009 164.3192 375.1426 164.8958 374.6637 165.3748 374.0884 165.5675 373.0795 164.8477 372.5042 164.9908 372.218 165.6397 371.9346 166.4021 371.2687 166.9632 369.8659 166.6713 368.4745 166.8866 367.6441 169.661 366.9413 172.8038 364.6431 174.898 363.3763 175.6547 361.5116 175.8828 358.7259 175.6263 357.0398 175.3188 352.1712 174.8583 347.2799 173.9983 341.7794 173.1977 336.6557 175.0482 335.1821 176.1761 334.2497 177.2303 333.2806 177.7191 331.0588 184.2045 331.2912 184.9413 332.5324 185.5222 338.8038 186.8683 339.7276 187.4266 340.2774 188.0614 340.5466 190.9831 341.0652 191.3855 343.2161 191.7454 346.3249 191.7227 348.7592 191.4351 351.219 191.7057 352.9363 192.332 353.778 193.3295 354.2427 194.4036 351.321 200.8266 351.5562 203.1589 352.4631 206.5071 354.1152 209.1312 357.2268 211.7016 359.5988 213.3481 360.0975 214.1245 360.2194 215.3289 359.834 216.8592 358.4652 219.2935 356.7961 221.4189 354.9824 222.3258 352.4744 225.0236 350.2498 228.3463 345.9735 232.7063 344.5452 235.1349 344.072 242.1587 342.9384 244.2699 342.7627 243.4693 341.2267 242.673 338.5402 242.8105 336.7719 242.4293 335.9246 241.5295 333.7311 241.7803 330.1916 243.1859 326.5869 242.4421 322.9114 239.5515 315.9146 238.493 307.0502 239.1548 306.713 235.9567 306.7328 231.8802 307.1465 226.4661 310.1561 222.2209 310.0711 221.4133 309.4873 220.634 308.5663 219.9354 303.2046 218.7707 301.6262 218.1543 299.5461 216.8224 296.9191 215.4111 294.6463 214.4405 291.0586 213.161 287.7487 212.4497 285.8075 212.9924 284.0164 213.6796 282.3445 213.698 280.6611 213.3254 274.4719 210.1259 265.1003 204.5942 257.6727 200.7345 253.0082 198.8896 251.9029 198.2973 249.2844 196.563 242.8515 191.8885 238.5809 192.5757 232.4796 189.5364 226.9988 186.5708 225.7548 185.7702 219.5231 180.2866 213.3084 176.7344 206.5241 172.8562 202.1344 170.429 194.7011 166.317 191.0681 163.8331 189.841 162.9178 188.6338 161.1594 186.7011 152.5742 184.468 148.645 181.2884 146.5054 178.5764 142.3821 176.3291 136.2737 174.4701 132.3034 172.9993 130.4727 170.0124 128.4494 165.5037 126.2318 161.2217 125.1805 159.6744 125.223 158.9121 125.4979 158.0449 125.8748 156.3446 127.5298 153.8338 127.7012 152.0031 127.6615 150.2801 127.0721 144.8618 126.5464 142.9461 125.9754 139.6871 126.0604 132.6846 126.9191 130.9843 126.7604 123.585 123.065 120.3827 121.6013 119.7366 120.7908 119.7763 119.3724 120.8588 117.3703 121.7855 115.9505 121.3803 114.4755 119.9746 112.863 119.9746 111.1471 120.9325 110.1893 122.8992 110.4911 123.6077 109.886 123.3555 108.9778 122.2956 108.3217 120.8843 106.8595 116.6959 105.4964 116.0922 104.9409 116.3104 104.3061 117.0303 103.6274 117.1776 102.1977 117.2485 100.3501 117.8039 99.3922 117.9569 98.6356 117.3505 98.0291 115.9392 97.3235 113.6693 95.6076 110.8921 95.4219 101.852 95.4815 99.0436 94.7914 96.7879 93.8378 94.5406 90.1949 93.3929 89.3319 92.3358 88.9735 89.8024 88.8473 86.7559 88.4945 85.1916 87.8796 80.9267 84.5512 76.8374 81.5827 75.1909 84.384 73.5898 84.938 69.9907 84.6801 67.2787 84.2055 65.7342 84.8374 64.1416 85.9469 64.4448 86.6752 65.6662 87.4474 68.1204 88.8714 71.8781 92.3713 73.5841 94.3026 73.842 94.9784 73.5104 95.4857 73.006 95.7053 72.2635 95.6968 71.266 95.6855 70.6879 95.106 70.4952 94.1099 69.2398 92.5966 67.9532 91.728 66.5362 91.181 64.5497 90.7786 61.934 90.0546 60.5823 90.022 59.2645 90.8594 58.1678 91.9844 57.5217 94.4457 55.5635 97.468 54.3534 98.6639 50.6354 99.3908 41.8022 99.6373 39.1582 100.581 37.3643 101.7216 34.0203 105.417 31.7022 106.6441 29.6817 108.3359 30.2853 113.7685 31.2516 120.1163 32.9491 121.8748 34.0288 122.4033 34.1734 123.0267 33.4762 123.5779 32.5892 124.2751 31.246 125.5461 29.7327 125.4979 26.6863 125.1791 24.1556 124.8347 15.6313 124.4678 8.728 124.1716 1.051 123.8415 1.0482 117.1804 1.0425 110.518 1.0397 103.857 1.0368 97.1959 1.034 90.5349 1.0312 83.8739 1.0283 77.2129 1.0255 70.5518 1.0227 63.8922 1.0198 57.2312 1.017 50.5688 1.0142 43.9077 1.0113 37.2467 1.0085 30.5857 1.0028 23.9246 1 17.2636 4.6217 16.4375 9.1899 15.3947 13.5796 14.3943 18.7911 13.2055 24.6855 11.8622 29.71 10.7145 35.7065 9.3472 40.2804 8.3043 44.5765 7.3238 50.0714 6.1633 58.6127 4.3567 63.3765 3.3507 68.1912 2.3333 72.7849 1.3613 75.8569 1 79.1555 2.3872 83.1626 4.2958 87.1697 6.2058 91.1825 8.1144 95.1896 10.0231 99.1967 11.9331 103.2094 13.8417 107.2165 15.7503 111.2236 17.6589 115.2336 19.5661 119.2407 21.4762 123.2506 23.3848 127.2605 25.2934 131.2676 27.202 135.2776 29.1121 139.2875 31.0207 143.2946 32.9293 147.0297 34.7075 148.696 36.0253 149.617 38.9314 151.4647 41.2425 154.6783 43.7476 157.9741 46.3109 162.0606 49.6988 164.8973 52.0495 167.7878 54.4469 172.5572 58.403 175.5356 60.8727 177.9076 60.9535 182.7223 60.3669 189.1496 59.5819 194.2307 58.9613 200.3746 58.2103 206.2209 57.4962 210.8457 56.9308 217.7462 57.3587 224.5617 57.7824 229.4501 58.087 234.2422 58.386 239.9156 58.7374 243.0896 58.9344 246.717 59.1597 248.2529 58.566 251.3872 57.3516 254.3458 56.2053 257.4148 55.0165 260.1325 54.4143 262.9664 56.3187 265.3384 58.5064 267.835 60.8132 270.7256 63.0378 273.5113 64.3584 277.2746 66.1423 279.4369 69.2001 282.3246 73.2794 284.2233 75.9631 286.1787 78.7247 289.0239 77.6351 292.059 76.4718 294.805 75.4204 294.4734 78.8282 294.1731 81.9256 293.714 86.6114 293.3399 90.4542 292.3452 95.038 292.2772 98.5293 292.2205 101.597 292.1723 104.0313 297.5 104.1404 301.4363 104.2211 306.3644 104.3217 306.8405 107.3823 307.5036 111.6813 308.5096 115.5779 309.3541 118.8468 310.6209 123.0749 311.2982 125.3349 312.4884 127.9931 313.6531 128.6336 315.5235 129.0601 322.0357 128.7427 327.4428 128.4805 331.6964 128.2722 336.2363 128.0512 342.2441 127.7579 344.276 128.4352 346.0358 127.9605 348.0677 127.4873 349.683 129.4185 350.5049 130.3991 351.6554 131.4136 353.214 132.3615 352.5537 134.3452 351.5874 137.2372 351.3153 138.7264 353.1914 140.329 354.5828 141.2656 358.4029 143.1713 361.9764 144.2355 364.3172 144.5486 366.5503 144.1419 367.3636 143.0594 367.1596 141.5702 366.0827 140.0073 366.162 138.1455 366.8818 136.7824 369.1659 134.3084 371.3225 131.9761 374.6325 129.5985 378.5716 127.2421 380.2124 125.5276 380.8358 122.5436 383.409 120.8517 386.1862 119.8358 389.6407 118.9559 390.5872 117.4667 395.351 114.9374 398.216 113.6877 401.8207 112.9566 406.8083 111.3101 410.7446 109.3816 414.525 105.7401 417.5147 103.361 420.0425 101.8931 422.1623 101.8435 423.6444 103.0281 424.9253 103.1273 425.767 102.5846 427.1952 101.0543 428.7255 99.2788 430.1566 98.5378 432.9367 98.1595 435.4446 96.9565 Z M 426.9062 135.031 426.8098 134.3282 425.9143 133.1437 424.5711 132.472 423.9306 132.7597 424.4747 133.719 426.0418 135.0948 426.9062 135.031 Z M 442.9714 165.328 441.5233 165.593 438.8538 165.5505 437.3292 165.2543 438.2559 162.898 438.2899 162.4275 438.1793 162.3581 437.4085 162.0435 436.2466 161.0829 435.8471 159.6574 436.3005 158.3439 437.1478 157.7913 437.6891 157.882 439.3214 159.8926 440.7695 160.4792 443.626 160.8136 442.1921 162.7959 443.2463 164.9157 442.9714 165.328 Z M 459.6148 163.6546 458.8383 164.9058 457.4724 164.6068 456.4012 163.775 456.7582 163.1204 458.3622 162.7634 459.1982 162.4063 459.9123 162.3468 459.6148 163.6546 Z"/>
</g>
</svg>