<?xml version="1.0"?>
<svg xmlns="http://www.w3.org/2000/svg" version="1.2" baseProfile="tiny" width="207" height="400" viewBox="0 0 207 400" stroke-linecap="round" stroke-linejoin="round">
<g id="ne_50m_admin_0_countries-vanuatu">
<path d="M 14.3875 69.0797 18.3085 89.2203 22.8781 89.1787 25.2105 88.1077 27.8999 83.3893 29.1017 75.9757 31.4936 74.9166 34.4805 75.7079 33.1834 78.0701 34.0521 84.0022 36.3607 87.2806 37.8958 87.8756 40.966 103.3753 42.1084 106.624 42.037 109.2242 35.5991 115.0194 26.0137 114.8469 19.2605 118.3098 15.149 118.0837 15.1907 114.1626 11.5315 111.0448 7.3962 104.369 8.4196 92.5166 1.0714 70.4957 1 64.992 3.5168 57.8044 5.9801 57.4831 9.3181 63.4867 14.3875 69.0797 Z M 55.008 146.3996 57.8163 147.7205 59.3455 147.7205 60.2618 150.6836 68.9904 156.5979 71.3882 156.4313 73.4053 159.6681 77.1538 161.3043 78.1653 164.6006 80.8487 167.9564 76.1661 172.0202 67.1281 170.9373 61.9456 175.5486 57.2511 174.3705 56.4478 171.9488 57.1023 171.1396 54.3059 164.9636 53.0445 155.5269 51.1524 149.9696 49.1056 147.5956 44.8692 149.6721 43.1615 150.0172 39.1037 145.4595 41.0255 136.2014 42.0311 133.5536 45.3333 133.0479 50.3313 135.4814 55.008 146.3996 Z M 118.0242 188.0078 119.8389 188.9122 118.8393 191.435 110.4677 188.5552 103.7383 189.6738 101.8581 189.5429 99.8529 187.2105 98.3773 182.5993 99.0497 179.3625 101.8819 177.1075 102.941 176.7386 105.0473 179.5291 106.9751 181.4271 108.8434 182.2423 113.1035 186.7881 118.0242 188.0078 Z M 108.8791 161.0604 101.9176 161.6851 92.1239 159.7871 88.185 157.1453 86.4774 154.4916 89.8629 152.5281 94.7181 151.5999 100.7871 145.5309 102.8874 147.8574 105.1484 154.6522 107.5998 156.699 108.9564 158.7577 108.8791 161.0604 Z M 117.9647 234.5188 124.0337 243.1998 126.4434 243.8841 122.7663 250.1077 115.1384 250.667 106.1361 249.0546 109.4384 246.9186 107.7307 244.5029 105.0116 244.015 101.8938 245.1693 100.442 244.7766 102.4352 240.7722 107.4451 235.1316 108.9267 234.6854 110.2714 234.6259 111.5803 235.1197 117.9647 234.5188 Z M 85.4004 106.1897 81.3128 108.9862 73.7563 108.7184 70.9539 107.1417 80.218 98.6391 90.9577 96.8839 85.4004 106.1897 Z M 103.774 138.7539 102.7565 138.8312 101.7272 136.0288 98.2881 121.1122 100.5491 107.7664 101.983 110.5927 107.1179 133.9939 106.4217 137.8257 103.774 138.7539 Z M 102.3281 99.6566 101.275 103.4289 98.7522 99.0616 97.1516 80.6405 97.8061 78.9328 99.1151 78.8019 102.1913 91.6241 102.3281 99.6566 Z M 43.2151 123.7481 42.1084 125.3307 35.6467 121.38 37.1283 117.5601 44.1552 118.9286 43.2151 123.7481 Z M 65.5097 34.5995 62.975 37.6876 56.0908 36.6701 54.4606 35.855 54.9009 30.732 56.6263 28.9649 60.7318 27.3644 66.3665 29.899 65.5097 34.5995 Z M 59.6608 13.0487 58.7683 13.6497 57.3582 13.1796 53.7466 5.8076 54.6629 3.3502 59.1848 1 63.2189 5.0936 63.5997 7.3665 63.57 9.3002 62.9512 10.9722 60.2558 11.6683 59.6608 13.0487 Z M 206.3397 395.6383 204.1977 399 200.9014 398.9584 196.665 396.5843 197.4683 393.6093 202.2699 393.0857 203.6622 393.2821 206.3397 395.6383 Z M 181.6651 356.2494 178.4462 362.8717 172.8889 361.3307 167.6886 356.5469 164.9814 352.3641 166.808 344.3435 169.4677 342.9453 172.2463 343.4034 173.6624 351.2336 181.6651 356.2494 Z M 172.1035 319.6987 169.2951 322.6439 166.8437 322.3226 150.9335 315.498 151.5999 312.6896 150.9454 305.5258 152.6947 301.6346 157.0858 300.034 160.4951 300.8611 162.5776 306.5909 167.3138 308.9233 163.9878 310.8927 169.7771 315.2243 172.1035 319.6987 Z"/>
</g>
</svg>