<?xml version="1.0"?>
<svg xmlns="http://www.w3.org/2000/svg" version="1.2" baseProfile="tiny" width="500" height="425" viewBox="0 0 500 425" stroke-linecap="round" stroke-linejoin="round">
<g id="ne_50m_admin_0_countries-Venezuela">
<path d="M 462.4966 112.8149 458.0742 114.022 458.1461 113.0376 459.3298 111.3312 461.6254 110.8498 462.4894 110.266 463.9533 109.8726 464.7886 109.9427 465.6364 110.4259 463.63 111.3869 462.4966 112.8149 Z M 351.0984 39.5116 352.2786 44.3184 351.9175 45.2201 348.5873 48.4677 345.7941 48.7013 343.5452 48.5863 341.8352 47.9576 339.6383 45.847 337.5026 46.4793 332.2216 45.7464 330.7559 45.0082 332.7318 42.4216 336.3692 41.3761 337.6966 41.1624 338.7582 42.7503 341.4077 44.1226 344.5152 44.2627 345.2876 41.8126 349.489 38.1788 351.0984 39.5116 Z M 300.9525 47.7726 298.9694 48.5989 295.3338 47.7726 293.516 46.6158 294.6728 45.2938 297.6474 45.2938 300.4352 46.8978 300.9525 47.7726 Z M 455.9959 122.7859 453.7129 123.5331 453.3734 119.8436 454.0614 118.8485 457.9503 115.8811 459.0154 115.3188 459.7968 115.9421 459.601 116.7325 461.4673 118.0635 461.0165 119.7592 458.9939 121.6111 455.9959 122.7859 Z M 492.0611 134.4849 498.8994 143.4374 499 144.4235 498.2581 145.5444 493.9992 147.6442 493.0472 148.7327 491.5132 152.7222 486.1514 154.9118 482.4457 157.6565 479.949 160.0635 478.7042 161.0335 473.8112 161.5651 472.2394 163.0794 470.2618 167.6293 468.814 169.5315 466.2687 171.7643 466.2471 173.1348 469.7606 178.114 470.3929 179.6767 469.3026 182.0406 469.4085 183.7147 471.2515 185.7337 473.4591 186.1935 475.602 185.3529 478.2713 185.4265 480.0118 185.9618 480.7321 186.551 480.8579 188.094 479.7532 191.3739 478.1743 193.4899 471.1455 196.7375 468.02 198.6182 466.2956 200.0031 462.5091 199.2613 460.5782 199.3188 459.0981 200.3893 458.1999 201.3108 455.6582 201.5371 452.0639 202.0976 450.5623 202.7173 449.3983 204.3213 448.4283 206.6223 449.2384 209.3814 450.3629 211.8404 450.3162 214.1001 451.1838 220.3834 450.0521 221.8509 447.6434 223.5143 444.7676 226.4458 441.5415 230.5197 442.057 231.689 449.7683 240.2517 457.6108 248.9636 465.4047 257.6215 466.5148 258.0077 467.9859 259.0082 469.3457 262.0385 470.4683 265.2538 470.4917 266.9171 469.6187 269.0079 467.7219 271.4149 465.4191 273.3638 462.0475 275.0164 459.3675 276.5755 457.1545 280.6997 455.8145 282.1511 454.5841 282.7367 452.1502 283.2756 448.2146 283.1516 445.6154 282.8265 442.3983 285.9125 438.2831 287.0441 435.5294 291.2545 425.7219 294.5937 416.1299 297.1947 413.4984 298.2222 404.025 296.0757 401.7473 296.7457 399.1212 298.7395 396.6999 300.2861 394.6557 300.3831 392.9349 301.1824 391.9111 304.0366 391.004 313.8729 387.6055 316.7972 383.4974 316.7792 380.6773 313.3754 377.3327 310.8013 371.5021 304.7013 369.8854 303.9055 368.373 303.9432 362.9645 305.7521 360.3958 304.9671 358.3248 304.0187 354.8652 304.3222 348.6968 304.3923 344.7666 304.4498 342.8572 302.7829 341.0789 299.3772 339.8808 298.1575 338.4762 297.175 336.1518 296.6792 326.2239 296.6918 324.354 296.6954 322.9817 296.0397 321.0741 293.119 318.9868 291.7467 316.5439 291.6874 315.4698 293.2969 319.7107 298.5563 320.9466 301.4069 324.6648 305.5275 335.4297 314.2501 337.4236 317.0199 337.2044 320.5586 337.1416 325.9743 337.5062 331.099 340.276 338.4492 344.1667 345.9306 345.2247 350.6997 344.5008 354.2239 343.7607 356.0992 343.8434 356.9345 344.6409 357.6889 348.3466 358.772 356.1315 359.4492 360.8377 359.4528 368.0245 360.2629 368.5544 362.8926 367.8521 367.2306 366.433 369.6932 365.278 370.4117 361.3658 370.9829 357.2506 373.645 351.2781 376.2729 347.8688 376.6304 346.4479 377.1441 345.2444 377.9326 344.2529 378.9314 343.0907 383.8585 341.3322 389.4215 338.0145 392.7248 334.3663 395.4551 330.6535 395.764 327.6771 395.5467 326.197 396.3478 324.0595 398.5967 321.004 401.3935 318.6456 402.8844 315.4662 402.7443 312.0767 404.1202 307.7926 406.3745 304.9527 408.2264 302.5296 411.386 299.0592 414.7091 295.4955 417.0352 293.789 419.911 291.3551 423.561 288.314 423.6814 288.0698 421.4917 289.5301 417.9639 287.9476 414.9228 285.0539 413.2936 283.7013 412.8123 282.3523 413.0116 278.9232 414.5115 274.7092 417.2382 272.1172 419.2015 269.7731 420.0996 264.9484 420.9116 260.8853 421.3283 259.213 420.7679 256.1917 418.7632 249.2096 412.4925 239.756 403.998 239.0393 401.539 239.4452 399.0242 237.7298 395.3545 236.7275 391.4476 235.8743 390.1022 235.6318 387.1815 233.5805 381.9203 231.901 377.6111 230.3598 375.4215 231.0082 373.5552 230.3598 371.6907 229.1078 370.171 227.2774 365.2816 227.9259 363.1746 227.4391 361.064 225.8979 359.6181 223.7083 358.0643 220.7894 354.8185 217.301 351.7379 215.5156 350.52 214.2995 350.0351 213.2451 347.1143 212.435 346.2216 210.6495 345.9791 206.9995 344.7613 203.592 346.2216 203.513 343.9511 204.4866 342.5716 216.2556 331.7402 222.1868 326.7592 222.8245 326.0246 223.3436 324.8714 223.7496 323.3302 222.4042 321.5681 216.8502 313.2047 214.921 311.633 213.0295 310.3469 210.8561 306.8352 208.2551 298.6587 206.3834 294.5488 205.8158 291.3982 205.9344 287.8362 205.2392 285.1006 203.7321 283.1947 203.7321 277.3605 205.2392 267.5997 205.611 260.1794 204.8494 255.1049 206.1912 251.2412 209.6418 248.5917 211.5674 244.4981 211.9698 238.9584 214.0354 234.4067 217.7627 230.843 219.0326 227.3277 217.8471 223.8609 217.4645 221.6354 214.2977 219.3721 208.4455 217.7842 203.5884 217.6028 200.657 219.3667 193.145 221.0013 181.0527 222.5084 171.3152 222.4994 163.9308 220.9762 158.3121 221.4845 154.4646 224.0244 151.7558 224.5992 150.1859 223.2053 148.4848 222.8227 145.9072 223.7065 145.4617 223.3041 139.7389 216.4406 134.4364 210.0801 128.3578 202.5071 121.3381 193.763 120.0807 193.1864 117.9126 193.2438 115.044 193.3947 110.5785 192.4876 107.5195 191.2177 105.1323 189.989 100.7351 188.4353 97.7156 188.1676 95.0104 188.6257 87.5578 191.6847 83.315 191.9685 80.0333 192.0242 71.2298 190.5099 65.2052 190.2692 58.2016 191.2662 55.2073 191.8356 51.0148 190.28 48.1588 187.9162 45.495 182.2939 43.6179 177.8589 40.3577 176.9662 36.7418 176.21 34.9635 174.746 33.8966 172.1936 33.6397 168.9208 34.0097 163.5967 34.3528 161.6873 34.8504 155.9393 36.8496 152.9377 38.1034 151.481 37.8627 149.0722 36.8999 144.1325 35.9353 140.6406 31.9189 136.6781 26.7798 131.6055 24.5686 123.4864 21.9623 113.8962 19.9127 112.9334 17.9872 113.4148 15.9376 112.9334 14.1306 109.0787 12.3236 108.3566 9.4424 109.7092 7.3659 110.7636 2.0849 111.7281 1 110.7636 1.3628 109.5601 3.5956 106.0592 6.2217 101.5865 9.2753 97.5018 12.1152 93.3237 14.2312 88.8744 15.6718 80.0243 16.6651 73.917 19.2787 63.0461 24.0675 54.3666 25.8727 50.37 30.2071 45.1716 32.2027 42.3479 34.8486 40.1278 42.118 37.1047 50.8065 22.1868 52.8003 19.8157 61.5786 17.592 68.3253 15.855 73.3243 14.0354 74.9661 13.0708 76.2845 12.6235 75.1924 14.3515 72.7962 16.5502 70.0802 17.8902 56.091 21.2527 54.6612 21.9658 52.8434 23.3651 52.8326 26.5696 53.2099 29.0844 57.3251 37.3292 58.9309 39.3625 64.4436 43.8334 63.1898 44.4513 61.1583 44.5268 62.6474 50.3826 66.0315 54.4026 66.1824 56.9353 63.5886 64.7939 58.8555 69.4947 55.4983 74.9661 52.8883 77.1431 47.108 87.9027 51.507 94.3063 52.1321 97.5539 55.9294 102.1739 58.4082 103.6899 60.0608 105.5544 59.3027 108.7086 60.8188 112.9801 62.7839 115.238 65.2555 116.1415 68.3056 116.129 77.0856 113.2837 79.1657 112.003 80.4913 109.7217 84.8885 105.0946 85.1616 99.1149 86.1082 91.9406 85.0394 87.2542 80.4231 80.5811 78.4005 75.8354 73.8236 71.4149 71.0215 63.8562 69.8647 61.5031 68.9953 58.2429 68.011 52.4716 71.0826 50.3772 70.7736 45.6494 78.3214 44.3489 94.6494 36.6628 104.7623 34.7156 116.2798 30.6094 118.9491 28.5832 121.2608 25.2099 123.0481 24.8219 129.0512 27.9851 132.015 26.8858 133.188 24.4177 131.5534 19.6074 128.11 19.6056 117.7492 21.3533 116.7361 19.284 116.7397 17.4734 114.2932 11.7362 115.8164 7.4144 117.3738 3.9243 120.3448 2.5178 124.6881 1 127.9842 3.3279 129.9799 5.5499 131.0648 7.7054 131.803 13.545 133.5742 19.4619 135.4315 23.5753 138.3863 26.6756 140.6586 26.4726 142.2806 25.9553 153.0653 25.2584 159.6126 27.3708 167.949 28.4485 175.7394 32.9499 183.7435 38.4087 185.784 42.3874 186.4594 46.1955 188.3993 48.7444 186.463 51.3669 187.5084 55.7587 189.7968 60.1811 193.26 62.9922 203.1304 63.7521 213.8091 61.8516 230.2915 60.1344 235.5977 58.6543 262.8881 57.8603 268.0883 59.9799 268.593 62.0959 268.6541 63.7197 277.4359 71.6358 284.6425 72.7136 290.7677 75.2535 297.0941 76.6168 304.0205 78.5406 307.913 78.2981 310.8283 77.6227 314.2699 77.5095 338.6289 64.2766 351.675 64.6178 353.685 63.7574 355.4202 62.5989 350.6081 60.5853 339.7479 59.8093 336.4518 61.1583 334.5873 57.7526 338.1277 57.8442 350.2129 56.7 364.0692 57.4544 375.3586 55.0295 381.0384 54.6271 384.3039 55.1067 393.2942 53.535 410.2185 55.3833 423.5646 53.8583 422.0234 56.0497 417.6442 57.3772 410.5633 57.7957 405.153 61.0002 393.6175 60.4074 385.5236 61.566 388.121 62.4588 388.1192 65.7441 389.2257 66.4069 390.3914 66.4321 393.1487 68.866 393.9013 70.4575 394.7923 73.8129 393.5762 77.4359 391.8877 79.0525 395.1767 78.519 397.0412 76.8162 396.7681 75.1062 397.0412 73.1249 398.8859 73.7446 400.181 74.6391 404.3824 84.1198 407.3445 89.099 408.1025 88.9104 408.8066 88.7343 409.6868 87.7805 410.9962 85.4382 412.1261 86.9237 412.8051 87.4931 413.4894 87.6745 412.8661 85.5514 413.7068 82.8318 413.4176 81.8816 414.7306 81.6751 416.2952 82.0361 418.5243 82.7851 422.494 85.9034 425.1184 89.1349 425.3429 90.9383 426.2913 91.9514 428.0067 93.0184 428.8456 94.6853 429.0001 92.0628 427.9906 90.1516 427.7427 87.9673 432.9123 87.8703 434.2559 84.9981 437.0724 86.7279 444.5376 94.617 447.2949 95.9211 455.4265 97.4354 460.5512 101.229 463.5528 104.6347 461.7691 108.2057 456.9839 109.9894 455.0673 112.2185 453.9662 114.4063 453.9482 116.6086 452.4986 119.1646 452.2831 120.0645 451.4173 123.6678 449.4486 128.0076 446.8225 132.6078 433.1584 132.7137 436.5353 134.6016 439.6375 135.9793 444.7352 139.5952 448.7912 136.7553 454.5949 136.5523 460.8764 133.3999 463.2402 132.9095 474.9931 134.5603 477.8258 132.2431 480.1897 131.5623 486.5448 131.9952 492.0611 134.4849 Z"/>
</g>
</svg>