<?xml version="1.0"?>
<svg xmlns="http://www.w3.org/2000/svg" version="1.2" baseProfile="tiny" width="199" height="400" viewBox="0 0 199 400" stroke-linecap="round" stroke-linejoin="round">
<g id="ne_50m_admin_0_countries-vietnam">
<path d="M 53.211 350.2658 53.7244 351.606 53.5295 354.7405 52.479 357.8171 52.7897 359.1572 51.984 360.0155 50.1963 354.2534 47.9267 351.76 47.4291 350.7977 48.7482 350.8674 51.1046 349.2916 52.2341 349.2535 53.211 350.2658 Z M 158.5939 50.5346 157.3301 50.7781 154.1838 50.8268 151.4376 53.2873 149.5366 54.3063 146.5772 55.1646 143.423 56.5508 142.512 58.9955 142.4356 60.7662 141.9222 62.7422 136.8117 65.6121 135.382 65.3198 134.3973 64.2495 132.8886 64.4667 131.8697 65.0012 130.6559 64.9288 129.3026 65.5778 127.5333 65.3751 125.9061 64.4694 124.9609 64.2324 123.834 64.2219 123.6207 65.2948 125.2874 69.4561 125.7218 71.3729 120.2585 76.9942 120.8535 80.6171 119.3738 83.4028 116.0721 85.6394 109.8768 91.4055 107.0859 91.5319 104.9796 92.8339 100.393 102.3138 100.343 105.5615 99.6216 107.9377 99.7769 110.2204 97.7627 114.707 95.6775 116.6106 95.2114 119.0605 98.184 124.1026 98.5131 124.9925 100.2377 127.7005 101.075 129.633 102.3967 131.5656 107.1781 136.584 109.3055 138.1189 111.8673 139.1629 116.5145 143.6797 118.863 146.5575 117.7941 148.519 118.3206 152.6738 115.0032 151.4481 115.3981 151.9379 119.3422 154.2048 125.2452 162.1747 130.3795 166.1057 135.6032 170.5777 137.233 174.8259 141.9433 177.6353 147.1802 181.711 146.9511 182.626 148.3703 183.7199 151.8931 185.8829 154.0232 188.1683 154.8499 190.3418 156.1506 190.688 157.6145 190.1548 159.081 189.9468 160.1236 190.1087 161.7034 192.4915 163.9072 194.6229 164.9656 196.5805 165.8239 196.3185 166.5401 196.6147 166.7191 198.2524 167.043 199.3306 169.9892 202.4743 171.3952 205.4337 174.9102 210.2322 177.5089 212.9586 179.3572 214.4949 181.4741 215.8074 183.5488 221.1299 184.6731 225.9574 186.8979 231.3128 188.5803 233.6495 188.6383 238.0596 189.9942 242.6014 191.4529 245.6662 191.882 248.798 192.3296 250.3515 192.8878 251.5178 194.4702 256.8285 194.0595 259.2929 192.9536 256.8745 193.0879 263.9979 194.0595 267.7656 193.6224 272.3878 194.6387 274.0096 196.4502 279.232 197.7219 281.1067 197.6165 287.4942 198.2879 290.7142 196.5765 288.7962 195.3391 286.6082 193.6803 287.7641 192.1953 289.4689 194.5071 296.3342 191.8689 295.6813 192.1085 304.9149 193.2011 307.0726 193.2801 308.1061 192.9589 309.3422 192.2296 307.9902 192.0769 306.5987 191.6609 306.9068 191.6819 307.6229 190.8025 309.2527 190.5392 311.2722 191.4871 312.9888 191.6477 314.2987 190.9631 315.9193 189.8652 317.6359 187.3613 317.8624 186.7899 321.2141 185.9342 324.7725 181.4609 325.3373 178.2119 328.4691 174.194 329.6368 170.6159 332.7437 166.6559 335.6136 164.0809 335.994 161.8903 336.6115 159.368 341.381 155.1553 341.9273 147.5883 345.8267 145.0501 347.704 142.7358 348.4372 139.4209 350.0618 138.7074 349.4825 137.6042 348.0884 134.737 347.367 133.3336 345.8043 132.9281 343.7914 132.549 342.9937 131.9303 344.1324 131.4563 348.9204 130.9534 350.0091 129.7291 350.4817 127.32 349.1205 125.0188 346.3612 121.7435 348.2674 122.7466 348.5018 124.2395 348.3451 125.3927 348.8217 126.3721 350.6621 126.3379 351.6639 125.8298 352.8277 122.7598 353.0133 118.6656 352.6039 117.9204 352.7605 121.6513 354.5549 125.0636 355.5909 126.5801 356.727 126.5801 357.663 124.6634 359.1796 123.181 361.0345 123.1521 362.1851 123.1178 363.47 121.467 364.581 120.4349 364.3599 117.5176 362.4299 109.087 354.826 110.3587 356.9719 119.0895 365.6224 120.6245 368.4699 120.843 370.4788 119.9452 371.4912 118.4602 372.6813 115.6008 372.7708 110.909 369.5533 103.4051 361.8349 100.8512 360.783 108.4419 369.6034 109.6846 371.7452 110.9669 374.2202 110.6009 375.6907 109.9479 377.0677 91.9545 385.2508 89.2689 388.7777 87.1362 393.1259 83.6029 395.5469 81.5307 397.7612 75.5329 399 72.2576 398.6116 75.6514 394.5951 73.5556 393.1062 73.4503 382.7627 74.2744 371.4214 75.8383 365.7566 78.1 364.3441 80.9436 363.4726 81.0068 362.2786 80.7251 360.9186 79.198 358.9848 77.5261 358.0909 75.03 357.7078 73.108 355.3368 71.6441 355.4343 69.3745 356.2215 68.0054 355.2039 67.5025 353.607 65.4014 351.6363 62.9818 349.7155 64.0771 349.4154 65.3461 348.3109 66.6995 346.8917 70.0801 346.6956 73.4713 346.7614 74.4192 346.3928 75.7857 344.8894 78.0131 342.9568 79.6982 341.8852 80.0958 341.019 79.4218 338.9811 79.0479 336.8919 79.6798 336.231 82.7472 336.6036 86.112 337.5764 86.9309 338.0161 88.8687 335.4569 89.3874 335.1462 90.6538 335.1515 93.9924 334.6802 97.2599 334.0022 98.8054 334.1115 100.3062 335.8347 101.4541 337.5198 102.0439 337.6567 103.7421 336.9379 105.1428 337.8371 108.0733 339.3076 109.8295 339.3708 108.9553 335.9453 109.9374 333.5099 109.7478 332.8411 108.0917 331.7208 102.4862 327.2409 101.5278 325.9073 101.6595 323.8009 101.4725 320.7099 100.9696 318.7668 101.0539 317.6294 101.4041 316.721 102.4388 316.3603 103.4288 316.2379 104.2292 315.4414 105.572 313.4048 108.1839 313.5865 111.8568 314.7437 114.5714 315.4585 116.1722 315.319 116.5303 315.028 116.4829 313.934 116.6724 309.2606 116.5671 308.2706 118.8788 307.8099 122.4201 307.7111 124.2842 307.4386 126.0246 305.4692 130.5006 304.7912 133.7364 302.1385 136.6564 299.4108 138.0887 298.6841 139.9107 298.2102 141.2692 298.2787 142.9754 299.8571 144.3945 298.9079 146.0243 297.0517 146.8774 295.2389 147.346 292.3217 147.0248 287.8483 146.1612 284.3478 145.3529 281.7228 145.187 279.1004 147.0775 273.8411 148.6941 268.1158 148.3834 265.8541 146.622 262.2813 144.8342 257.929 142.8701 253.1463 142.1328 252.4328 141.6063 251.1005 141.3061 249.5445 142.0855 244.6578 142.196 243.0174 144.4604 240.7926 145.6662 238.2439 146.801 235.4346 146.3745 233.9483 146.2218 230.9204 146.5114 229.4526 145.9769 228.2638 145.3213 226.5393 145.7505 225.4189 147.3408 224.4592 148.2676 222.8031 149.455 220.8785 149.979 219.1157 149.1312 217.6426 147.583 215.4388 144.7605 213.4378 141.5036 210.8852 139.9028 209.316 138.6416 207.7151 137.4805 205.8497 136.8433 204.3608 137.462 203.3866 142.0934 201.146 142.9385 200.339 143.4282 199.0936 143.057 197.8759 141.809 197.219 140.3635 196.7701 138.2308 195.3601 134.2499 191.491 132.4226 190.6288 130.5006 189.515 129.479 188.3447 128.3547 185.1338 127.8518 184.8468 126.7513 185.8158 125.3479 186.8347 124.1763 186.6609 123.1073 185.7539 122.5965 184.5322 121.4143 182.8563 120.1347 181.4912 119.7977 176.8993 119.5897 175.4012 118.9499 173.312 117.9547 172.5642 116.8936 172.006 114.3976 168.2002 112.6756 166.2294 105.5773 160.878 104.6952 160.0236 102.7864 157.8211 99.4636 154.6998 97.0887 152.1814 95.3589 149.5775 94.5611 147.3171 94.3136 145.553 92.4284 143.0254 90.8013 140.9533 89.2321 140.2806 87.439 140.0002 85.8145 138.768 82.8498 135.981 81.536 134.1867 80.7619 132.9782 80.7935 131.7341 81.507 129.6633 82.368 128.4837 82.397 127.5622 81.5518 126.8105 78.2633 125.4769 70.8042 123.4522 68.0212 121.9093 65.4514 119.9294 63.5057 118.5879 54.4142 112.8797 51.6575 111.9266 49.2853 110.9129 48.5638 109.9295 48.6929 108.9856 49.6539 108.2826 52.2289 106.8161 53.182 105.1415 52.8766 102.9417 51.8497 100.7222 52.35 99.9494 53.1794 99.8612 54.9145 99.7954 58.4926 99.6703 66.215 101.6911 67.3366 101.4699 71.523 97.8036 73.1027 95.609 73.4634 93.7791 74.2902 92.6154 76.5045 90.7025 76.5387 88.9582 75.446 86.632 74.3455 85.7329 73.3976 85.3445 70.325 85.6552 69.7379 85.1326 69.3324 83.3988 69.1849 82.3338 68.1713 81.0937 64.8643 80.0379 62.0602 79.739 61.402 79.2901 62.4815 78.0948 64.3904 76.9126 65.849 76.2307 66.9943 75.0077 67.2102 73.7557 65.7858 72.642 63.927 71.4084 60.9123 69.0533 56.7523 66.5494 54.2194 65.6989 52.8897 65.8148 48.3058 67.9659 45.8388 69.3653 43.7877 71.8613 41.6471 72.3971 39.4802 71.2979 37.0237 70.1657 30.2071 68.5267 27.3424 67.151 21.392 58.7678 20.5126 57.0603 21.0813 55.1304 21.4921 52.3684 22.0871 50.578 23.1403 48.868 23.4246 47.3461 23.1666 45.8598 22.3057 45.0081 21.1867 44.7566 20.352 44.4196 19.5621 42.462 19.0856 42.7161 18.3536 45.0963 17.4769 45.952 16.3105 46.3785 15.4126 46.0033 14.8413 45.0489 14.5833 43.4336 14.0014 41.2654 13.2694 39.8489 10.7076 38.4073 9.4991 36.5366 5.6892 32.4648 2.4981 29.6107 1 27.0449 2.3086 26.0892 3.9541 24.7043 5.7129 22.5479 7.6955 19.8347 8.5223 18.1799 9.1015 17.5111 10.26 17.0227 11.508 17.2899 13.7012 18.3852 17.0029 19.7846 19.9439 21.4381 21.134 23.1034 22.7769 24.7003 24.0381 25.1834 24.67 25.0557 26.571 23.8551 28.2008 22.6493 28.235 21.2814 29.7384 20.0532 31.7052 18.0311 32.6294 16.6593 33.3324 16.5145 34.1249 16.9213 37.2238 21.1616 37.8162 21.4157 38.6904 20.7799 39.912 17.4676 41.2469 16.1841 41.7077 16.5079 49.1957 22.7572 49.9093 22.7072 50.7149 22.4268 51.2389 21.4658 51.8287 19.3028 52.9398 16.9858 55.3436 15.6957 57.2156 15.4456 57.9107 16.5488 59.53 18.0719 61.51 18.2865 65.691 15.5891 67.0575 15.1599 68.5188 15.2086 70.0169 15.1006 71.4387 14.0685 72.9395 12.7034 73.4529 10.0165 73.7715 7.606 74.801 6.6305 76.0253 5.9789 78.3317 5.0679 83.5449 2.7298 84.8851 1.6227 85.8724 1 87.8972 2.0124 90.3142 3.962 91.7807 5.4312 92.7602 7.0189 93.2262 8.3485 97.0834 9.5004 99.54 11.1341 101.175 12.3887 102.7837 12.3308 104.3925 11.9938 105.4351 10.988 107.2544 10.9669 109.4108 11.1144 110.3692 11.5172 112.1333 13.8276 112.931 14.1502 114.524 13.9882 117.565 13.1681 120.0163 12.7784 122.2332 13.6973 126.4459 16.2684 125.261 18.1009 124.3237 20.0742 122.478 21.4684 121.1115 21.8133 120.2479 23.7511 119.8688 26.6079 120.3348 28.056 121.4012 28.5194 122.5702 29.487 123.0468 30.7587 123.2047 33.5891 123.1415 36.7775 123.2995 37.8373 124.2184 37.6411 125.0767 37.2594 126.8197 37.7544 128.9866 38.5824 130.3531 39.4223 131.588 39.3196 132.5437 40.1424 132.9044 41.7209 134.0313 42.8175 137.1829 44.8962 139.7053 45.07 141.838 47.8135 144.0575 46.913 145.0791 48.0978 149.6525 47.6779 152.841 46.5694 153.9942 46.8353 156.8614 49.1207 158.5939 50.5346 Z M 122.0568 396.3157 121.2959 396.3776 120.7219 395.8273 123.1652 394.0633 122.9204 395.2323 123.002 395.8221 122.0568 396.3157 Z M 136.8907 350.0947 134.629 351.7284 134.471 350.3553 136.4378 349.4707 137.1303 348.7729 137.6253 348.7861 136.8907 350.0947 Z M 128.747 69.1981 128.4364 69.7194 127.062 68.4425 126.1536 67.8909 126.8513 66.1729 128.4627 68.0515 128.747 69.1981 Z M 148.6204 58.3847 144.7368 61.7588 143.2492 61.7048 144.5709 57.8857 145.2107 56.9787 147.5409 58.2873 148.6204 58.3847 Z M 146.4245 66.2084 144.9211 66.9114 143.1334 66.8324 145.2739 65.5146 146.3613 63.8835 147.2328 63.3122 147.2276 64.7366 146.4245 66.2084 Z M 133.2151 71.0504 132.1014 71.157 129.9608 68.969 131.114 67.8145 133.5495 68.6294 134.1077 69.156 134.0945 69.6286 133.51 70.6725 133.2151 71.0504 Z"/>
</g>
</svg>