<?xml version="1.0"?>
<svg xmlns="http://www.w3.org/2000/svg" version="1.2" baseProfile="tiny" width="800" height="279" viewBox="0 0 800 279" stroke-linecap="round" stroke-linejoin="round">
<g id="us-states-47">
<path d="M 799 136.8518 786.5555 152.926 773.5926 158.6296 765.8148 180.4074 746.1111 215.6666 730.037 222.926 724.8518 209.9629 733.1481 180.9259 758.5555 144.1111 784.4814 138.4074 799 136.8518 Z M 564.6297 14.4815 579.1481 16.037 589.5185 23.8148 589.5185 37.8148 609.2223 42.4815 621.6666 51.2963 628.9259 64.7778 620.6296 79.8148 609.2223 83.963 601.9629 97.4444 606.1111 107.2963 631.5185 104.1852 636.1851 119.2222 669.3704 125.4445 678.7037 137.3703 705.1481 150.3333 693.2222 176.7778 704.1111 197.5185 691.1481 207.3703 689.5925 219.2963 701.5185 226.5555 688.5555 237.963 668.8519 222.926 664.1851 228.1111 681.2963 239 727.963 241.5925 739.8888 276.8518 395.0741 277.8888 320.926 277.3703 256.1111 275.8148 189.7408 273.2222 1 272.1852 51.8149 258.7036 58.0371 248.3334 76.1852 244.7037 77.2223 236.4074 91.2222 230.1852 91.2222 222.926 125.963 208.9259 162.2593 183.5185 160.7037 191.2963 173.6667 207.3703 189.7408 215.1481 201.6667 214.6296 219.8148 202.1852 232.7778 212.037 257.1482 206.8518 300.1852 188.7036 303.8149 194.4074 320.4074 186.1111 320.926 169 331.2963 153.9629 348.9259 139.9629 356.1852 122.8518 374.8518 105.2222 382.1112 83.4445 398.1852 96.4074 413.7407 100.5556 423.5926 92.7778 443.8149 59.074 455.7407 67.3703 499.8148 29 505 1 554.2593 32.6296 564.6297 14.4815 Z" id="51"/>
</g>
</svg>