<?xml version="1.0"?>
<svg xmlns="http://www.w3.org/2000/svg" version="1.2" baseProfile="tiny" width="800" height="356" viewBox="0 0 800 356" stroke-linecap="round" stroke-linejoin="round">
<g id="us-states-48">
<path d="M 787.2153 1 786.0929 127.827 786.6541 264.7553 784.9705 273.173 798.4389 291.1308 799 309.0886 586.8735 308.5274 572.8439 315.2615 531.8777 317.5063 486.9832 326.4852 461.73 336.5865 431.4262 339.3924 417.9578 334.3417 361.8397 348.9325 358.4726 342.1983 325.9241 336.5865 297.865 338.27 252.9704 354.5443 200.2194 343.3207 195.1688 312.4557 185.6288 300.1097 163.7427 289.4472 154.2026 290.5696 137.9283 293.3755 119.9705 281.5907 101.4515 277.6624 86.2996 283.8355 66.6582 274.8566 70.5865 260.827 84.0548 253.5316 63.2912 232.2067 49.2616 176.6498 40.8439 169.3544 29.6203 130.0717 9.4177 114.9198 1 84.616 12.2236 64.4135 32.9874 73.9536 75.0759 86.8608 103.6962 86.2996 132.3165 91.3502 159.2531 86.2996 172.1604 95.2785 196.2911 94.7173 213.1266 117.1646 225.4726 115.481 227.7173 145.7848 235.0127 173.2827 245.1139 170.4768 235.0127 146.9071 237.8186 123.8987 254.654 100.3291 241.1857 90.789 240.0633 73.9536 229.9621 55.4346 235.0127 41.9663 228.2785 26.2531 212.0043 24.0084 196.8523 12.2236 200.7806 1 787.2153 1 Z M 204.7089 71.7088 218.1772 67.2194 215.9325 87.9831 199.6582 80.1265 204.7089 71.7088 Z M 173.2827 43.6497 184.5064 30.1814 199.6582 46.4557 195.1688 60.4853 171.5992 56.557 173.2827 43.6497 Z" id="53"/>
</g>
</svg>