<?xml version="1.0"?>
<svg xmlns="http://www.w3.org/2000/svg" version="1.2" baseProfile="tiny" width="800" height="561" viewBox="0 0 800 561" stroke-linecap="round" stroke-linejoin="round">
<g id="us-states-49">
<path d="M 343.3821 1 343.3821 149.9005 512.7899 149.9005 511.0067 233.7128 543.105 218.5552 575.2034 190.915 596.6022 196.2648 628.7005 172.191 676.848 183.7821 683.0893 165.9497 709.838 166.8413 724.9955 154.3587 752.6357 169.5162 780.2759 169.5162 799 214.9889 781.1676 246.1954 696.4637 191.8067 687.5474 239.9542 611.7597 305.934 591.2525 291.668 556.4793 349.6235 539.5385 362.9978 512.7899 355.8647 485.1497 333.5743 472.6669 371.0223 440.5687 401.3374 428.0859 430.7608 397.7708 454.8345 379.9386 480.6916 379.0469 510.1151 350.5151 524.381 344.2737 514.573 270.2693 545.7798 228.3631 554.6961 206.0726 537.7553 174.8658 559.154 154.3587 560.0457 126.7185 546.6714 104.4279 519.0312 107.1028 505.6569 85.7038 502.982 54.4971 484.2581 46.4726 465.5341 20.6157 441.4602 1 410.2535 5.4581 361.2145 48.2559 357.648 54.4971 336.249 74.1128 327.3329 66.0883 302.3676 96.4034 263.1362 120.4771 288.1017 137.4179 272.9441 132.9597 254.2201 153.4671 223.0134 172.1911 223.905 190.915 200.7228 208.7475 211.4223 229.2548 204.2893 292.5598 151.6838 307.7174 91.9453 330.0078 52.7139 330.8994 27.7486 319.3084 9.9161 343.3821 1 Z" id="54"/>
</g>
</svg>