<?xml version="1.0"?>
<svg xmlns="http://www.w3.org/2000/svg" version="1.2" baseProfile="tiny" width="500" height="407" viewBox="0 0 500 407" stroke-linecap="round" stroke-linejoin="round">
<g id="ne_50m_admin_0_countries-Western Sahara">
<path d="M 498.9278 1 498.9278 10.8344 498.9278 22.9224 498.9422 32.7828 498.9567 44.4952 498.9711 56.2219 498.9884 69.5608 499 82.8448 499 92.5319 498.9942 99.2751 486.9583 99.2751 475.9364 99.2751 464.9146 99.2751 453.8898 99.2751 442.8651 99.2751 431.8404 99.278 420.8156 99.278 409.7938 99.278 398.769 99.278 387.7443 99.278 376.7195 99.278 365.6948 99.278 354.6729 99.278 343.6482 99.2808 332.6235 99.2808 321.5987 99.2808 310.5769 99.2808 301.7218 99.2808 301.7218 106.3273 301.7218 114.385 301.7218 122.4397 301.7218 130.4945 301.7218 138.5522 301.7218 146.6069 301.7218 154.6646 301.7218 162.7193 301.7218 170.7741 301.7218 178.8289 301.7218 186.8865 301.7218 194.9413 301.7218 202.9989 301.7218 211.0537 301.7218 219.1085 301.7218 227.1661 301.7218 235.2209 301.7218 242.406 301.3 248.8487 297.7551 250.7497 289.3045 254.1791 280.6228 257.698 269.5894 259.3072 265.9781 260.4599 258.9258 265.1114 249.6721 271.216 241.6549 276.5001 236.365 283.3732 234.4495 287.1348 233.6666 291.116 234.2906 294.8978 237.1681 302.5048 237.9366 306.3357 238.3844 313.0066 238.8756 320.2726 239.4014 328.0992 239.9301 335.9343 240.4877 344.2751 241.0482 352.6159 241.6115 361.0029 242.0334 367.2318 242.5592 375.093 233.6117 375.1017 220.0445 375.1161 206.4774 375.1334 192.9074 375.1508 179.3402 375.1652 165.7731 375.1825 152.206 375.1999 138.6359 375.2143 125.0688 375.2317 111.5017 375.249 97.9316 375.2634 84.3674 375.2808 70.7974 375.2981 57.2302 375.3126 43.6631 375.3299 30.096 375.3472 16.5288 375.3617 8.9421 375.3703 6.495 386.424 4.3369 394.3776 3.0599 400.8376 4.0018 406.3211 1 403.3193 6.2755 372.539 6.6626 369.9591 6.6684 369.9562 9.7366 369.3928 22.7635 367.0238 31.6358 366.3882 54.7196 366.3882 63.5862 365.2325 70.6963 365.2325 80.7503 365.8104 89.0419 367.0238 97.9085 368.1794 107.9654 368.1794 116.2542 368.7572 126.8889 368.7572 134.5999 368.1794 139.9158 365.2325 144.6568 359.3388 146.4162 354.6007 148.2104 350.4404 147.6008 346.2802 147.023 343.9111 149.9727 340.9642 153.5234 336.2233 157.0799 333.2793 158.2615 330.9102 161.8179 328.5412 165.9464 324.3809 168.3155 321.434 171.2624 317.3315 171.8691 313.7491 173.0565 309.011 173.0565 300.7482 174.2381 290.6942 176.0033 284.1649 177.185 278.8489 178.3695 270.5862 181.926 256.3719 183.1076 252.2116 185.4795 245.74 188.4264 239.7885 190.7926 235.6283 193.7712 232.1036 197.9026 229.7345 204.403 227.3655 209.1382 224.9964 215.0609 222.6274 220.3768 220.8361 225.1178 218.4671 226.9061 216.1558 229.853 211.9956 233.9844 204.3106 236.3534 199.5725 239.907 193.621 244.0413 189.5185 246.6039 187.9237 248.7765 186.5716 254.1242 183.567 260.6217 180.0423 265.3627 177.0954 269.4912 174.0908 273.0448 171.7795 277.1762 168.197 278.9674 165.2502 281.3364 159.9343 284.2862 151.6137 286.6552 142.776 289.0214 133.2969 290.7866 127.4032 292.5779 120.296 294.944 114.9223 296.7093 109.0286 297.8909 106.6596 297.8909 103.7127 299.0783 99.5524 299.3268 99.226 300.8666 97.1834 305.0009 96.0277 309.7361 94.8143 317.19 93.8898 319.3597 92.8497 320.4835 89.3828 321.3531 86.3782 324.1527 81.5245 327.3018 77.6532 329.1248 75.2841 331.5805 71.1816 334.0044 68.2348 338.1936 64.4789 341.8627 61.5321 343.1079 58.5274 343.1079 54.945 340.4789 52.0559 338.627 46.74 346.257 45.1221 352.9597 43.3309 359.0846 41.5974 366.4228 39.2284 371.9092 39.2284 376.1879 38.6505 382.3128 39.8062 388.4059 40.384 392.6846 42.1752 400.0229 45.6999 406.1449 48.0689 409.814 48.0689 413.7431 46.9133 417.0685 45.2376 419.0879 45.1221 422.1533 46.3355 426.9203 48.7045 431.7999 48.7045 436.6825 48.0689 440.3516 45.1221 446.4765 40.384 451.359 36.8593 455.7533 34.6058 459.3069 34.028 463.2938 34.028 467.8586 33.9124 475.1968 34.4903 480.0794 34.4903 486.7561 33.6813 492.3291 32.699 494.7559 30.9078 494.7559 28.5387 493.5425 25.0141 492.2135 21.6049 491.8669 18.4847 492.6787 15.1941 493.5425 12.591 492.9387 8.4307 491.2024 3.5193 490.9741 1.0318 490.9712 1 498.9278 1 Z"/>
</g>
</svg>