<?xml version="1.0"?>
<svg xmlns="http://www.w3.org/2000/svg" version="1.2" baseProfile="tiny" width="800" height="610" viewBox="0 0 800 610" stroke-linecap="round" stroke-linejoin="round">
<g id="us-states-50">
<path d="M 337.6679 54.0008 363.0486 62.2123 377.9785 85.3536 518.3189 112.9738 576.5454 133.129 594.4611 128.65 652.6876 142.0869 668.3638 159.2563 696.7306 175.6791 695.2376 199.5669 682.5472 218.2291 714.6464 221.2151 701.9561 240.6238 722.8578 254.8072 717.6324 271.2301 691.5052 274.2161 669.1103 305.5687 660.899 327.217 676.5753 330.9494 697.4771 316.766 719.8718 289.8924 748.2385 279.4414 770.6333 245.1028 799 237.638 796.7605 255.5537 777.3518 271.9766 739.2807 328.7099 728.8298 360.0626 729.5763 382.4574 715.3929 389.9224 702.7026 420.5285 707.1814 446.6557 695.2376 463.8251 678.8148 506.3751 682.5472 539.9673 698.9701 569.8269 693.7446 609.391 559.376 609.391 307.0617 607.1515 297.3573 589.9823 248.8353 574.3059 238.3845 552.6577 233.9055 522.0514 250.3283 505.6286 230.173 492.1917 228.6801 472.0365 221.2151 456.3601 224.9476 434.7119 198.8204 404.8521 177.1721 399.6267 138.3545 376.4855 131.636 358.5696 89.8326 343.6398 75.6492 328.7099 47.2825 326.4705 11.4509 301.8363 21.1552 251.8213 18.1692 228.68 33.8456 207.7782 16.6764 190.6089 1 189.116 3.2395 169.7071 34.5921 140.5939 73.4097 129.3965 81.6211 121.1852 81.6211 40.564 109.2413 29.3666 119.6922 35.3386 150.2984 36.8316 245.1028 13.6904 280.1879 1 292.1319 10.7044 273.4696 28.6201 318.259 51.7615 337.6679 54.0008 Z" id="55"/>
</g>
</svg>