<?xml version="1.0"?>
<svg xmlns="http://www.w3.org/2000/svg" version="1.2" baseProfile="tiny" width="500" height="280" viewBox="0 0 500 280" stroke-linecap="round" stroke-linejoin="round">
<g id="ne_50m_admin_0_countries-Yemen">
<path d="M 439.6549 98.7404 418.6643 106.1519 413.127 109.4451 408.1019 113.5127 404.3372 118.5987 401.7027 127.5308 403.703 135.7005 403.5119 140.0751 398.0925 142.9718 393.0349 145.0635 387.4123 148.2448 383.9931 149.0417 381.2001 151.5827 377.9598 153.3431 366.251 157.9453 353.4566 161.5047 333.1369 165.7756 325.2903 170.3961 318.143 173.5673 307.2961 174.5206 292.4039 178.9216 284.1305 182.4444 273.8486 188.1789 271.5638 189.9942 269.7587 194.2163 266.5957 197.8611 260.4038 203.8395 255.7568 206.909 252.6508 207.0716 246.6256 208.7507 239.4986 209.0943 227.5133 206.9944 224.4357 208.4621 221.8988 210.7896 212.6699 214.8897 203.2744 223.0839 196.3995 225.259 185.2883 227.8365 177.5109 231.2455 172.2907 232.6136 165.5662 233.3271 153.1256 232.9835 141.3273 234.2134 130.4031 236.5267 125.2683 240.9073 119.422 247.8371 109.8597 250.6993 107.6074 253.1854 104.6477 258.2938 98.4518 259.613 92.8494 260.4627 87.1251 258.2368 76.331 264.4023 72.2451 265.4227 66.0491 265.6707 61.6502 266.9616 58.4831 266.5936 54.5517 264.1827 46.1848 261.2657 40.0742 263.1664 39.5619 257.3302 29.4305 239.5088 31.5406 223.9905 31.5324 221.7971 29.52 214.8694 23.4826 208.5393 23.6615 200.5179 21.6409 194.7773 20.035 188.8843 20.5554 187.315 20.653 185.8961 17.5672 176.8095 16.5345 174.9678 16.1524 173.0652 17.1647 171.6097 17.1281 169.9225 15.4897 167.1335 13.7659 161.8299 5.529 157.6729 7.1959 153.7801 8.8018 155.1441 10.9688 156.3028 11.4079 153.7821 11.4445 151.8937 8.0009 140.1117 13.0991 124.4003 11.4201 110.2561 19.2056 104.5399 21.1734 102.8202 22.3036 101.3119 24.1372 98.0838 26.6456 97.0329 27.5319 93.6361 27.4547 91.9367 25.8366 90.4812 24.625 86.5173 25.0275 81.5024 25.4341 79.3985 26.2675 75.5666 28.9915 74.1417 29.6379 73.0094 27.5319 70.5843 27.723 69.141 32.3537 65.0856 34.1832 63.868 37.1755 62.6097 39.5172 62.6239 42.2249 63.3394 44.6398 64.4758 46.9775 66.539 49.4575 68.8849 53.2589 69.7752 55.8446 69.5476 57.9505 70.5843 59.7272 70.0171 61.7478 68.8036 64.984 68.8849 67.899 67.5107 76.1724 66.8521 84.1572 67.2688 92.4957 66.1305 100.8098 66.2179 109.2011 66.3073 111.0632 66.476 112.8886 67.1916 119.9627 70.7896 125.3252 71.5275 136.1111 72.5114 147.6167 73.5623 157.5896 74.473 166.0459 73.6253 173.0631 72.922 174.9617 73.046 177.0799 75.2719 181.304 80.8133 185.2883 86.0396 192.277 86.3221 196.7613 84.3544 201.6888 81.5878 204.6933 79.4452 208.1734 70.9421 210.4298 65.4373 215.5971 59.2556 219.931 54.0821 225.6635 47.2235 228.8346 43.4303 235.0997 35.9375 241.0801 33.0184 252.6182 27.3835 263.9368 21.8543 271.3117 18.2502 277.5727 16.6037 288.0944 15.1888 300.4578 13.524 312.8171 11.8612 325.9855 10.0906 340.6785 8.1127 350.7449 6.7568 363.5839 5.029 374.2642 3.5918 383.7573 2.3152 393.5269 1 395.3686 5.157 397.2143 9.3161 399.0561 13.4752 400.8978 17.6343 402.7435 21.7934 404.5852 25.9504 406.4269 30.1095 408.2686 34.2665 410.1144 38.4256 411.9561 42.5827 413.7978 46.7417 415.6436 50.9008 417.4853 55.0599 419.327 59.217 421.1728 63.376 423.0145 67.5351 424.8155 71.5966 427.7874 72.9484 429.5519 76.7884 432.0807 82.2769 434.6054 87.7634 437.1301 93.2519 439.6549 98.7404 Z M 2.7157 154.7335 1.4025 155.6584 1 154.0403 1.8619 150.4077 3.2198 149.3588 4.1427 152.0461 3.5572 153.5321 2.7157 154.7335 Z M 9.6109 221.3072 6.8585 222.5838 8.7408 219.2805 10.6679 218.6016 11.2046 218.7337 9.6109 221.3072 Z M 10.9241 210.1838 10.3752 211.0681 9.619 210.875 7.0374 208.6674 9.8711 206.1874 11.3794 208.4864 10.9241 210.1838 Z M 467.8618 265.748 470.4272 266.2481 474.3301 264.8068 485.5226 264.6157 499 269.2464 496.455 270.4681 494.9466 272.1391 489.015 273.6657 483.1117 277.2454 466.016 278.9794 460.9991 278.0098 456.8807 274.552 449.2374 270.0636 452.2622 267.2035 452.9045 265.8923 454.0307 264.634 458.3605 262.461 462.6701 262.8106 467.8618 265.748 Z"/>
</g>
</svg>