<?xml version="1.0"?>
<svg xmlns="http://www.w3.org/2000/svg" version="1.2" baseProfile="tiny" width="500" height="422" viewBox="0 0 500 422" stroke-linecap="round" stroke-linejoin="round">
<g id="ne_50m_admin_0_countries-Zambia">
<path d="M 359.8031 318.5494 353.6046 318.5661 342.7022 318.591 331.3918 318.616 321.0638 320.839 312.5633 324.2358 302.4476 329.5518 299.1423 331.6374 296.5863 333.2442 294.9878 335.3048 294.1843 339.8298 294.1843 346.8151 293.1603 351.8438 290.0839 356.4479 290.0881 356.4395 274.7064 362.0177 264.6449 366.576 254.7748 371.9669 247.2858 378.9646 242.178 387.5651 233.7025 398.2136 225.0854 407.4384 215.923 417.2461 205.6533 420.7886 197.0279 419.9811 186.6208 416.0056 178.3576 415.2562 172.2341 417.7331 166.5809 416.9713 161.394 412.975 157.048 411.5222 153.5305 412.6045 149.0388 412.4172 140.813 410.2192 133.7112 403.4338 129.8564 400.628 126.9008 399.5582 118.3961 398.4634 98.8724 396.8981 96.8368 397.2603 88.7276 398.5966 78.5953 400.27 69.8866 401.9435 60.7533 403.7002 52.2695 396.6151 42.645 388.5725 32.675 379.6016 25.1736 372.5664 21.4853 368.5118 14.9039 363.1584 10.1666 360.5399 8.3224 359.2203 3.6143 344.9668 1.0375 331.8705 1.0375 322.0046 1.0333 308.3255 1.0291 294.6464 1.025 280.9673 1.0208 267.2883 1.0167 253.6092 1.0083 239.9301 1.0083 226.2469 1.0042 212.5678 1 205.9239 10.8326 205.9239 21.9765 205.9239 33.6283 205.9239 46.2958 205.9239 58.9633 205.9239 71.6308 205.9239 80.4685 205.9239 82.7831 205.8073 85.5763 205.3911 85.7928 204.0465 82.142 197.3152 82.3168 194.9382 83.2909 190.3715 84.7979 186.4335 86.7835 181.2508 87.0042 178.2036 85.4015 168.2752 85.5472 162.7386 86.0218 156.9856 86.4672 151.5323 85.9177 147.7316 86.5921 145.6585 87.7785 142.6946 88.4029 139.3477 89.1439 137.9073 88.9191 136.5752 88.2447 134.0817 87.5828 128.5035 86.6545 120.7481 85.7262 115.1616 87.2706 115.4738 90.4968 116.0025 92.062 118.7375 92.9737 121.7347 95.1342 121.9054 100.7915 123.6871 102.7439 126.164 104.0468 131.5049 103.2642 134.2399 101.4409 136.4545 103.2642 138.4069 107.0441 139.7098 109.2587 139.3185 115.6403 135.6719 118.1921 135.0266 121.5266 134.319 124.5321 133.3782 133.0202 131.713 137.6617 130.9845 140.2677 129.6816 142.091 129.6816 143.3939 130.7264 142.22 134.5021 141.8287 137.8907 143.4522 144.2224 144.6761 147.1863 147.4028 149.3385 149.3884 150.4583 151.6031 152.7437 156.1614 152.3482 166.2229 155.5869 169.2785 157.0855 173.5162 158.5716 176.5176 159.1295 186.8873 160.2659 190.7254 161.0319 197.8313 162.0643 203.5136 162.2308 207.5349 161.7729 210.3656 160.8487 212.0891 159.8163 212.8883 158.9421 214.0498 155.7784 216.1728 148.9222 217.0012 146.8824 219.1034 145.9374 221.8218 145.3172 223.4078 146.4203 225.1853 154.0258 233.0947 160.8903 235.7964 166.6517 237.7738 171.5805 239.4972 172.9334 242.5027 174.6277 247.2983 175.2272 251.586 175.3978 260.5986 178.9487 267.7795 181.7795 272.9122 183.8026 275.2642 185.3387 276.9086 187.8697 277.8868 189.8262 279.4562 194.8924 281.1463 198.897 283.898 199.663 286.3499 199.971 288.7851 202.706 290.6209 205.1121 294.2718 210.9734 296.9526 215.0322 297.831 218.9744 300.899 221.6053 305.0493 222.7251 308.8958 222.8625 311.1063 221.6886 316.5679 219.6446 320.814 217.3051 323.9153 216.4933 325.747 216.9887 327.1582 218.6081 327.8991 221.7801 328.074 223.5452 331.0962 225.227 333.3358 224.5567 334.1933 222.6252 334.2433 221.6428 334.235 213.0215 334.2266 205.5451 334.2142 198.5099 334.2058 189.9344 334.2017 182.4622 334.1933 176.3053 334.185 169.8821 332.2451 170.2484 329.7891 171.7096 324.1526 171.8844 321.9546 172.9834 321.2636 174.6319 321.7007 176.7924 321.8131 179.7147 320.9888 181.0926 318.5161 181.6379 314.9444 180.5098 308.442 179.0361 303.0345 178.1245 299.1589 174.2447 293.8971 168.3918 290.4628 165.4403 282.1579 159.3376 280.7509 158.1054 278.2323 155.2455 276.0718 150.3958 275.0145 147.178 274.0071 144.7843 272.8914 141.2168 274.8938 135.7343 277.712 125.2981 279.7435 117.78 280.8633 112.2018 284.897 106.5279 285.1801 101.4534 283.5566 94.9385 283.9729 91.3419 284.2435 82.2128 284.4724 74.5365 284.5224 70.8066 283.4192 64.3084 280.7051 57.115 274.7231 47.0951 274.7439 44.9554 278.3073 42.5951 283.9438 38.453 286.7037 35.997 290.009 32.5002 291.491 30.7268 294.7297 26.2434 296.7861 22.6093 297.498 17.9053 295.9494 13.4386 299.109 12.5644 309.4828 10.9825 320.9139 9.2383 332.9528 7.3983 345.1083 5.5458 356.8808 3.7516 367.5543 2.124 374.9392 1 376.0298 4.0763 378.3277 9.18 380.942 12.939 384.1973 16.2318 386.9698 18.2217 388.8014 18.8294 400.4907 18.6213 404.6951 20.6194 408.3459 23.1504 409.2576 27.0802 411.6679 29.5446 414.2613 31.4844 415.3853 31.7217 417.2919 31.2472 420.4182 31.2055 423.3197 32.0464 424.7059 32.9081 424.8433 36.2009 425.7258 37.6746 429.6805 38.2449 433.7059 38.4988 437.5899 40.7259 441.786 41.1214 446.6399 42.0372 448.9377 44.4392 454.108 46.9036 460.4272 49.1099 464.973 51.6076 467.3874 52.7399 467.5331 53.8722 468.7154 56.0119 469.9434 57.5521 470.0392 59.825 470.6303 61.9231 472.412 62.4435 473.8898 62.5767 475.2552 61.0614 477.1118 61.0989 479.1433 62.0646 479.8676 64.4874 481.4578 67.7511 484.0346 69.9782 485.7622 72.1262 485.1711 76.0393 484.0804 79.6193 487.5772 83.1536 492.1188 86.513 493.3469 88.0033 493.7174 92.9862 494.4042 94.6804 497.4931 98.8266 499 101.5783 498.8959 103.1726 490.6119 111.3817 487.9851 112.1768 485.5041 112.6431 483.2811 114.3332 481.9407 116.0816 482.4278 117.0057 483.3019 119.824 485.2377 124.2574 486.9902 127.3587 485.5291 131.2468 482.2404 137.8449 480.721 138.4318 480.4504 143.4273 481.4578 145.2506 483.0896 146.6784 483.7557 150.0753 483.8057 154.7293 483.6308 158.4884 481.5577 168.0546 485.3001 176.3969 486.5739 177.3086 491.7483 177.3668 492.6392 178.0787 491.3987 180.4515 489.1591 182.8826 487.7645 184.1356 481.1789 186.9788 471.7209 190.1301 469.7436 193.1523 468.4823 197.5441 469.5438 200.1167 470.801 201.6029 470.393 205.4327 469.5688 209.4748 469.8477 212.6552 469.4189 215.4734 468.1825 216.8555 466.5257 221.1016 464.4859 225.3643 462.8749 227.3125 460.5021 229.3398 456.7514 231.0508 456.8222 231.9 461.0724 233.869 462.1672 235.2303 462.5627 236.1586 461.651 237.0619 460.7893 238.3232 462.7459 239.6262 465.1395 240.7252 467.4041 243.5601 469.4189 247.5231 470.0017 248.9093 470.4638 249.4547 471.1964 249.5213 472.6076 248.9385 475.2177 246.7696 477.1118 245.9912 479.4014 249.08 470.2515 252.1314 465.4517 253.7299 451.756 258.2965 439.8045 262.2804 436.6948 263.038 430.4964 264.9862 427.4117 266.1768 416.6175 269.6569 412.105 271.3886 408.475 273.1121 399.5499 275.693 391.1243 278.12 381.9286 280.6218 371.6214 283.4276 365.8392 285.4465 361.9345 287.1949 352.8012 290.725 352.3724 291.5867 352.5098 293.9887 353.6671 298.9466 355.9483 303.4508 357.8632 306.0443 359.1121 312.7006 359.8031 318.5494 Z"/>
</g>
</svg>