<svg xmlns="http://www.w3.org/2000/svg" version="1.2" baseProfile="tiny" width="500" height="434" viewBox="0 0 500 434" stroke-linecap="round" stroke-linejoin="round">
<g id="ne_50m_admin_0_countries-Zimbabwe">
<path d="M 389.0145 433.4936 383.2155 429.838 375.292 427.4635 365.2252 426.3699 352.1401 426.8261 336.0494 428.8195 318.7902 426.3949 300.3561 419.5525 285.0465 417.1279 266.7687 420.1024 265.9626 420.1773 262.7882 417.859 257.7954 412.8537 249.4532 411.9726 247.1912 410.8041 245.329 408.942 244.1105 406.5674 243.6293 403.9241 245.0041 395.6944 244.2542 394.7696 242.0234 393.7823 237.4555 392.795 226.4763 389.0582 212.6727 385.4526 190.2519 381.4909 181.5473 380.4473 179.5289 379.2413 177.0044 376.2044 172.7052 366.7561 168.6559 360.5136 159.014 350.8841 157.4768 347.8909 157.958 340.2486 158.6703 334.0748 159.7076 328.832 159.239 323.9267 159.1015 317.8341 159.4077 313.7474 158.1079 311.979 154.6086 310.7354 144.648 310.173 132.6065 310.423 132.2128 304.2242 131.0693 294.6385 128.8134 289.1208 126.0452 286.2526 120.515 283.2594 109.3109 279.1601 94.0512 272.9301 81.0224 263.7068 66.0752 252.234 61.4074 250.2468 55.8959 239.4739 47.4975 221.0336 48.0411 214.8847 46.7726 211.8791 38.6179 202.8183 36.812 198.1129 35.3748 193.3575 22.3897 180.085 17.9718 174.2924 14.6099 166.85 11.2606 160.9011 8.4361 158.5016 4.7368 154.4524 2.1685 149.8345 1 146.3914 1.9623 141.7735 3.2246 138.6053 15.5723 141.9047 22.3147 142.1859 27.595 140.5612 34.1188 142.7421 41.9048 148.7409 50.3907 149.8845 59.5827 146.1664 71.9866 147.2912 87.6087 153.2588 100.5563 154.4711 115.9721 149.1534 129.7258 134.4311 142.6608 120.5837 155.3834 104.5992 163.0507 91.6892 174.2924 81.1849 189.1083 73.0927 204.2117 66.2502 227.3011 57.8768 227.2949 57.8893 231.9128 50.9781 233.45 43.4295 233.45 32.944 234.656 26.1515 237.0556 23.0583 240.8923 20.6463 245.8539 17.5156 261.0385 9.5359 273.7986 4.4369 289.302 1.1 306.28 1.0625 322.6457 1.025 331.9502 1 332.0814 11.0919 332.8 22.446 334.6184 23.5395 346.9286 23.7895 366.6749 24.5893 385.7088 25.3517 397.8628 33.5876 401.937 35.3373 414.5909 37.5431 430.7316 51.278 450.1467 52.5528 463.5004 56.8395 475.267 61.5573 482.0469 67.2 486.4274 68.481 492.3575 68.8997 495.2445 69.4184 494.5946 73.4926 490.6516 80.3788 491.1702 90.2457 496.6067 103.9244 497.3378 115.8221 495.6694 136.8057 495.7256 157.1206 496.3068 164.3755 497.1941 169.1871 498.3376 171.8178 498.1252 174.8235 494.8883 183.3407 492.2763 192.314 492.1888 195.9071 491.1827 198.4316 489.2581 200.6812 480.7784 204.8241 479.3225 207.3861 479.3537 212.0228 480.4285 215.922 483.6091 217.3593 487.4459 219.5651 488.9581 222.4833 488.9706 225.5577 487.7521 231.2504 484.3403 240.6799 487.7396 251.5216 491.5577 258.5515 496.8192 266.7 499 271.7178 498.8813 275.3234 498.1064 278.8227 490.2267 293.6887 484.5465 302.9244 477.6165 312.8163 468.4495 319.0214 466.0874 322.0083 465.1439 325.4139 465.4751 332.8313 465.0501 340.5861 457.2079 352.5151 462.0819 362.7881 460.9697 363.7317 458.3264 365.2064 447.041 376.7605 435.6244 388.4458 427.2823 396.988 417.7965 406.7049 407.161 417.5903 398.0752 426.8886 389.0145 433.4936 Z"/>
</g>
</svg>