<?xml version="1.0"?>
<svg xmlns="http://www.w3.org/2000/svg" version="1.2" baseProfile="tiny" width="500" height="182" viewBox="0 0 500 182" stroke-linecap="round" stroke-linejoin="round">
<g id="ne_50m_admin_0_countries-Åland Islands">
<path d="M 215.5162 25.9111 229.4967 26.0447 235.7301 22.1934 260.1292 24.8871 296.8169 42.5408 304.2079 52.0912 329.4975 56.9888 338.3132 66.8954 309.061 97.7727 290.9843 98.3515 277.4935 94.4334 253.6732 97.8173 239.6927 103.6499 235.0177 116.495 235.7746 143.3652 129.0063 148.7526 104.4736 140.8941 70.858 79.7851 77.5366 64.0013 100.1548 57.2782 119.5227 55.8312 122.3722 88.7344 150.823 85.4619 159.7278 63.7787 161.7313 48.507 154.0287 40.8044 134.7053 34.8382 123.5298 24.5977 139.603 8.1238 169.3449 1 194.9907 23.0171 215.5162 25.9111 Z M 66.3166 100.689 68.6764 110.9073 51.223 108.3472 37.8213 111.8423 28.7384 124.4426 8.9698 119.9234 1 101.8689 15.7374 74.8429 51.0449 73.8189 66.3166 100.689 Z M 499 167.4749 495.3936 178.2942 458.1716 180.6985 442.5437 171.0814 407.7705 172.2835 401.7152 167.4749 416.141 157.88 443.7458 151.8693 479.7657 154.2736 499 167.4749 Z"/>
</g>
</svg>